<?xml version="1.0" encoding="UTF-8"?>
<svg xmlns="http://www.w3.org/2000/svg"
     xmlns:xlink="http://www.w3.org/1999/xlink"
     xmlns:gadfly="http://www.gadflyjl.org/ns"
     version="1.2"
     width="152.4mm" height="101.6mm" viewBox="0 0 152.4 101.6"
     stroke="none"
     fill="#000000"
     stroke-width="0.3"
     font-size="3.88"
>
<g class="plotroot xscalable yscalable" id="img-4acb89d7-1">
  <g font-size="3.88" font-family="'PT Sans','Helvetica Neue','Helvetica',sans-serif" fill="#564A55" stroke="#000000" stroke-opacity="0.000" id="img-4acb89d7-2">
    <text x="86.34" y="89.99" text-anchor="middle" dy="0.6em">X</text>
  </g>
  <g class="guide xlabels" font-size="2.82" font-family="'PT Sans Caption','Helvetica Neue','Helvetica',sans-serif" fill="#6C606B" id="img-4acb89d7-3">
    <text x="27.28" y="83.32" text-anchor="middle" dy="0.6em">2010</text>
    <text x="86.34" y="83.32" text-anchor="middle" dy="0.6em">2015</text>
    <text x="145.4" y="83.32" text-anchor="middle" dy="0.6em">2020</text>
  </g>
<g clip-path="url(#img-4acb89d7-4)">
  <g id="img-4acb89d7-5">
    <g pointer-events="visible" opacity="1" fill="#000000" fill-opacity="0.000" stroke="#000000" stroke-opacity="0.000" class="guide background" id="img-4acb89d7-6">
      <rect x="25.28" y="5" width="122.12" height="77.32"/>
    </g>
    <g class="guide ygridlines xfixed" stroke-dasharray="0.5,0.5" stroke-width="0.2" stroke="#D0D0E0" id="img-4acb89d7-7">
      <path fill="none" d="M25.28,80.32 L 147.4 80.32"/>
      <path fill="none" d="M25.28,61.99 L 147.4 61.99"/>
      <path fill="none" d="M25.28,43.66 L 147.4 43.66"/>
      <path fill="none" d="M25.28,25.33 L 147.4 25.33"/>
      <path fill="none" d="M25.28,7 L 147.4 7"/>
    </g>
    <g class="guide xgridlines yfixed" stroke-dasharray="0.5,0.5" stroke-width="0.2" stroke="#D0D0E0" id="img-4acb89d7-8">
      <path fill="none" d="M27.28,5 L 27.28 82.32"/>
      <path fill="none" d="M86.34,5 L 86.34 82.32"/>
      <path fill="none" d="M145.4,5 L 145.4 82.32"/>
    </g>
    <g class="plotpanel" id="img-4acb89d7-9">
      <g stroke-width="0.3" fill="#000000" fill-opacity="0.000" class="geometry" stroke-dasharray="none" stroke="#FF00FF" id="img-4acb89d7-10">
        <path fill="none" d="M39.09,80.31 L 39.09 79.65 39.09 76.37 50.9 80.31 50.9 79.43 50.9 75.7 62.71 80.31 62.71 79.17 62.71 75.01 74.53 80.31 74.53 78.88 74.53 74.32 86.34 80.31 86.34 78.56 86.34 73.62 98.15 80.31 98.15 78.2 98.15 72.94 109.96 80.31 109.96 77.82 109.96 72.27 121.78 80.31 121.78 77.42 121.78 71.64 133.59 80.31 133.59 76.99 133.59 71.06 145.4 80.31 145.4 76.56 145.4 70.54"/>
      </g>
      <g stroke-width="0.3" fill="#000000" fill-opacity="0.000" class="geometry" stroke-dasharray="none" stroke="#00FFFF" id="img-4acb89d7-11">
        <path fill="none" d="M39.09,80.31 L 39.09 80.26 39.09 42.36 50.9 80.31 50.9 80.24 50.9 40.62 62.71 80.31 62.71 80.22 62.71 39 74.53 80.31 74.53 80.2 74.53 37.51 86.34 80.31 86.34 80.18 86.34 36.12 98.15 80.31 98.15 80.15 98.15 34.85 109.96 80.31 109.96 80.13 109.96 33.69 121.78 80.31 121.78 80.1 121.78 32.62 133.59 80.31 133.59 80.06 133.59 31.65 145.4 80.31 145.4 80.03 145.4 30.77"/>
      </g>
      <g stroke-width="0.3" fill="#000000" fill-opacity="0.000" class="geometry" stroke-dasharray="none" stroke="#008000" id="img-4acb89d7-12">
        <path fill="none" d="M39.09,80.31 L 39.09 80.28 39.09 80.13 50.9 80.31 50.9 80.26 50.9 80.03 62.71 80.31 62.71 80.21 62.71 79.89 74.53 80.31 74.53 80.14 74.53 79.72 86.34 80.31 86.34 80.05 86.34 79.51 98.15 80.31 98.15 79.92 98.15 79.27 109.96 80.31 109.96 79.76 109.96 78.98 121.78 80.31 121.78 79.55 121.78 78.67 133.59 80.31 133.59 79.3 133.59 78.32 145.4 80.31 145.4 79.01 145.4 77.94"/>
      </g>
      <g stroke-width="0.3" fill="#000000" fill-opacity="0.000" class="geometry" stroke-dasharray="none" stroke="#0000FF" id="img-4acb89d7-13">
        <path fill="none" d="M39.09,79.55 L 39.09 79.82 39.09 80.31 50.9 79.33 50.9 79.63 50.9 80.31 62.71 79.08 62.71 79.39 62.71 80.31 74.53 78.81 74.53 79.1 74.53 80.31 86.34 78.51 86.34 78.77 86.34 80.31 98.15 78.19 98.15 78.4 98.15 80.31 109.96 77.85 109.96 77.97 109.96 80.31 121.78 77.5 121.78 77.51 121.78 80.31 133.59 77.15 133.59 77.02 133.59 80.31 145.4 76.78 145.4 76.48 145.4 80.31"/>
      </g>
      <g stroke-width="0.3" fill="#000000" fill-opacity="0.000" class="geometry" stroke-dasharray="none" stroke="#FF0000" id="img-4acb89d7-14">
        <path fill="none" d="M39.09,80.28 L 39.09 80.31 39.09 80.31 50.9 80.25 50.9 80.29 50.9 80.31 62.71 80.2 62.71 80.27 62.71 80.31 74.53 80.13 74.53 80.22 74.53 80.31 86.34 80.04 86.34 80.15 86.34 80.31 98.15 79.92 98.15 80.05 98.15 80.31 109.96 79.77 109.96 79.91 109.96 80.31 121.78 79.59 121.78 79.71 121.78 80.31 133.59 79.38 133.59 79.47 133.59 80.31 145.4 79.15 145.4 79.16 145.4 80.31"/>
      </g>
      <g stroke-width="0.3" fill="#000000" fill-opacity="0.000" class="geometry" stroke-dasharray="none" stroke="#FFFF00" id="img-4acb89d7-15">
        <path fill="none" d="M39.09,80.24 L 39.09 53.16 39.09 79.79 50.9 80.23 50.9 51.62 50.9 79.74 62.71 80.22 62.71 50.16 62.71 79.69 74.53 80.21 74.53 48.79 74.53 79.64 86.34 80.2 86.34 47.5 86.34 79.6 98.15 80.19 98.15 46.3 98.15 79.55 109.96 80.18 109.96 45.18 109.96 79.51 121.78 80.17 121.78 44.14 121.78 79.47 133.59 80.16 133.59 43.17 133.59 79.43 145.4 80.14 145.4 42.28 145.4 79.39"/>
      </g>
      <g stroke-width="0.3" fill="#000000" fill-opacity="0.000" class="geometry" stroke-dasharray="none" stroke="#FF00FF" id="img-4acb89d7-16">
        <path fill="none" d="M39.09,79.92 L 39.09 76.37 39.09 80.31 50.9 79.82 50.9 75.35 50.9 80.31 62.71 79.69 62.71 74.24 62.71 80.31 74.53 79.56 74.53 73.05 74.53 80.31 86.34 79.42 86.34 71.82 86.34 80.31 98.15 79.28 98.15 70.56 98.15 80.31 109.96 79.13 109.96 69.28 109.96 80.31 121.78 78.98 121.78 68.01 121.78 80.31 133.59 78.83 133.59 66.75 133.59 80.31 145.4 78.68 145.4 65.52 145.4 80.31"/>
      </g>
      <g stroke-width="0.3" fill="#000000" fill-opacity="0.000" class="geometry" stroke-dasharray="none" stroke="#00FFFF" id="img-4acb89d7-17">
        <path fill="none" d="M39.09,80.29 L 39.09 68.87 39.09 80.31 50.9 80.28 50.9 66.95 50.9 80.3 62.71 80.26 62.71 64.99 62.71 80.3 74.53 80.25 74.53 63 74.53 80.29 86.34 80.24 86.34 61.02 86.34 80.28 98.15 80.22 98.15 59.07 98.15 80.28 109.96 80.2 109.96 57.15 109.96 80.27 121.78 80.18 121.78 55.29 121.78 80.26 133.59 80.16 133.59 53.5 133.59 80.25 145.4 80.14 145.4 51.78 145.4 80.24"/>
      </g>
      <g stroke-width="0.3" fill="#000000" fill-opacity="0.000" class="geometry" stroke-dasharray="none" stroke="#008000" id="img-4acb89d7-18">
        <path fill="none" d="M39.09,80.31 L 39.09 74.99 39.09 77.18 50.9 80.31 50.9 74.14 50.9 76.84 62.71 80.31 62.71 73.26 62.71 76.5 74.53 80.31 74.53 72.35 74.53 76.16 86.34 80.3 86.34 71.44 86.34 75.83 98.15 80.3 98.15 70.51 98.15 75.51 109.96 80.3 109.96 69.59 109.96 75.2 121.78 80.3 121.78 68.69 121.78 74.9 133.59 80.29 133.59 67.79 133.59 74.62 145.4 80.29 145.4 66.92 145.4 74.35"/>
      </g>
      <g stroke-width="0.3" fill="#000000" fill-opacity="0.000" class="geometry" stroke-dasharray="none" stroke="#0000FF" id="img-4acb89d7-19">
        <path fill="none" d="M39.09,80.09 L 39.09 80.31 39.09 80.31 50.9 79.89 50.9 80.31 50.9 80.31 62.71 79.57 62.71 80.31 62.71 80.31 74.53 79.12 74.53 80.31 74.53 80.31 86.34 78.54 86.34 80.31 86.34 80.31 98.15 77.82 98.15 80.3 98.15 80.31 109.96 76.95 109.96 80.29 109.96 80.31 121.78 75.96 121.78 80.28 121.78 80.31 133.59 74.86 133.59 80.26 133.59 80.31 145.4 73.67 145.4 80.23 145.4 80.31"/>
      </g>
      <g stroke-width="0.3" fill="#000000" fill-opacity="0.000" class="geometry" stroke-dasharray="none" stroke="#FF0000" id="img-4acb89d7-20">
        <path fill="none" d="M39.09,80.31 L 39.09 80.31 39.09 73.91 50.9 80.31 50.9 80.31 50.9 72.4 62.71 80.31 62.71 80.31 62.71 70.78 74.53 80.31 74.53 80.31 74.53 69.08 86.34 80.31 86.34 80.3 86.34 67.31 98.15 80.31 98.15 80.29 98.15 65.51 109.96 80.31 109.96 80.28 109.96 63.69 121.78 80.31 121.78 80.27 121.78 61.89 133.59 80.31 133.59 80.25 133.59 60.11 145.4 80.31 145.4 80.23 145.4 58.41"/>
      </g>
      <g stroke-width="0.3" fill="#000000" fill-opacity="0.000" class="geometry" stroke-dasharray="none" stroke="#FFFF00" id="img-4acb89d7-21">
        <path fill="none" d="M39.09,62 L 39.09 80.08 39.09 80.31 50.9 60.55 50.9 80.03 50.9 80.31 62.71 59.16 62.71 79.97 62.71 80.31 74.53 57.82 74.53 79.9 74.53 80.31 86.34 56.55 86.34 79.83 86.34 80.31 98.15 55.34 98.15 79.75 98.15 80.31 109.96 54.2 109.96 79.67 109.96 80.31 121.78 53.13 121.78 79.59 121.78 80.31 133.59 52.12 133.59 79.5 133.59 80.31 145.4 51.18 145.4 79.41 145.4 80.31"/>
      </g>
      <g stroke-width="0.3" fill="#000000" fill-opacity="0.000" class="geometry" stroke-dasharray="none" stroke="#FF00FF" id="img-4acb89d7-22">
        <path fill="none" d="M39.09,80.31 L 39.09 80.07 39.09 79.26 50.9 80.31 50.9 79.91 50.9 78.88 62.71 80.31 62.71 79.7 62.71 78.45 74.53 80.31 74.53 79.43 74.53 77.98 86.34 80.31 86.34 79.1 86.34 77.48 98.15 80.31 98.15 78.71 98.15 76.95 109.96 80.31 109.96 78.27 109.96 76.41 121.78 80.31 121.78 77.78 121.78 75.87 133.59 80.31 133.59 77.25 133.59 75.33 145.4 80.31 145.4 76.68 145.4 74.8"/>
      </g>
      <g stroke-width="0.3" fill="#000000" fill-opacity="0.000" class="geometry" stroke-dasharray="none" stroke="#00FFFF" id="img-4acb89d7-23">
        <path fill="none" d="M39.09,80.31 L 39.09 79.81 39.09 57.24 50.9 80.31 50.9 79.69 50.9 55.49 62.71 80.31 62.71 79.55 62.71 53.83 74.53 80.31 74.53 79.41 74.53 52.29 86.34 80.31 86.34 79.25 86.34 50.87 98.15 80.31 98.15 79.09 98.15 49.65 109.96 80.31 109.96 78.91 109.96 48.67 121.78 80.31 121.78 78.74 121.78 47.99 133.59 80.31 133.59 78.56 133.59 47.67 145.4 80.31 145.4 78.38 145.4 47.7"/>
      </g>
      <g stroke-width="0.3" fill="#000000" fill-opacity="0.000" class="geometry" stroke-dasharray="none" stroke="#008000" id="img-4acb89d7-24">
        <path fill="none" d="M39.09,80.31 L 39.09 79.88 39.09 66.68 50.9 80.31 50.9 79.78 50.9 65.56 62.71 80.31 62.71 79.67 62.71 64.46 74.53 80.31 74.53 79.55 74.53 63.41 86.34 80.31 86.34 79.42 86.34 62.41 98.15 80.31 98.15 79.28 98.15 61.48 109.96 80.31 109.96 79.14 109.96 60.64 121.78 80.31 121.78 78.98 121.78 59.92 133.59 80.31 133.59 78.82 133.59 59.32 145.4 80.31 145.4 78.65 145.4 58.85"/>
      </g>
      <g stroke-width="0.3" fill="#000000" fill-opacity="0.000" class="geometry" stroke-dasharray="none" stroke="#0000FF" id="img-4acb89d7-25">
        <path fill="none" d="M39.09,80.31 L 39.09 80.26 39.09 62.37 50.9 80.31 50.9 80.24 50.9 60.76 62.71 80.31 62.71 80.22 62.71 59.18 74.53 80.31 74.53 80.19 74.53 57.64 86.34 80.31 86.34 80.17 86.34 56.16 98.15 80.31 98.15 80.13 98.15 54.73 109.96 80.31 109.96 80.1 109.96 53.39 121.78 80.31 121.78 80.06 121.78 52.15 133.59 80.31 133.59 80.01 133.59 51.03 145.4 80.31 145.4 79.97 145.4 50.08"/>
      </g>
      <g stroke-width="0.3" fill="#000000" fill-opacity="0.000" class="geometry" stroke-dasharray="none" stroke="#FF0000" id="img-4acb89d7-26">
        <path fill="none" d="M39.09,78.28 L 39.09 73.28 39.09 80.31 50.9 78.04 50.9 72.3 50.9 80.31 62.71 77.8 62.71 71.31 62.71 80.31 74.53 77.57 74.53 70.32 74.53 80.31 86.34 77.35 86.34 69.35 86.34 80.31 98.15 77.14 98.15 68.41 98.15 80.31 109.96 76.96 109.96 67.52 109.96 80.31 121.78 76.8 121.78 66.71 121.78 80.31 133.59 76.66 133.59 65.99 133.59 80.31 145.4 76.56 145.4 65.38 145.4 80.31"/>
      </g>
      <g stroke-width="0.3" fill="#000000" fill-opacity="0.000" class="geometry" stroke-dasharray="none" stroke="#FFFF00" id="img-4acb89d7-27">
        <path fill="none" d="M39.09,80.25 L 39.09 74.48 39.09 79.25 50.9 80.24 50.9 73.62 50.9 79.11 62.71 80.22 62.71 72.72 62.71 78.96 74.53 80.2 74.53 71.8 74.53 78.81 86.34 80.19 86.34 70.85 86.34 78.66 98.15 80.17 98.15 69.89 98.15 78.52 109.96 80.15 109.96 68.93 109.96 78.37 121.78 80.13 121.78 67.96 121.78 78.22 133.59 80.11 133.59 67.01 133.59 78.08 145.4 80.09 145.4 66.07 145.4 77.93"/>
      </g>
      <g stroke-width="0.3" fill="#000000" fill-opacity="0.000" class="geometry" stroke-dasharray="none" stroke="#FF00FF" id="img-4acb89d7-28">
        <path fill="none" d="M39.09,80.29 L 39.09 80.3 39.09 80.31 50.9 80.27 50.9 80.28 50.9 80.31 62.71 80.23 62.71 80.24 62.71 80.31 74.53 80.18 74.53 80.18 74.53 80.31 86.34 80.12 86.34 80.09 86.34 80.31 98.15 80.04 98.15 79.96 98.15 80.31 109.96 79.95 109.96 79.8 109.96 80.31 121.78 79.85 121.78 79.59 121.78 80.31 133.59 79.75 133.59 79.34 133.59 80.31 145.4 79.65 145.4 79.07 145.4 80.31"/>
      </g>
      <g stroke-width="0.3" fill="#000000" fill-opacity="0.000" class="geometry" stroke-dasharray="none" stroke="#00FFFF" id="img-4acb89d7-29">
        <path fill="none" d="M39.09,80.31 L 39.09 80.03 39.09 63 50.9 80.31 50.9 79.96 50.9 61.56 62.71 80.31 62.71 79.88 62.71 60.16 74.53 80.31 74.53 79.8 74.53 58.81 86.34 80.31 86.34 79.7 86.34 57.51 98.15 80.31 98.15 79.6 98.15 56.29 109.96 80.31 109.96 79.5 109.96 55.13 121.78 80.31 121.78 79.38 121.78 54.07 133.59 80.31 133.59 79.27 133.59 53.13 145.4 80.31 145.4 79.15 145.4 52.34"/>
      </g>
      <g stroke-width="0.3" fill="#000000" fill-opacity="0.000" class="geometry" stroke-dasharray="none" stroke="#008000" id="img-4acb89d7-30">
        <path fill="none" d="M39.09,80.12 L 39.09 59.58 39.09 79.46 50.9 80.09 50.9 58.31 50.9 79.39 62.71 80.07 62.71 57.1 62.71 79.33 74.53 80.05 74.53 55.94 74.53 79.26 86.34 80.03 86.34 54.84 86.34 79.2 98.15 80 98.15 53.79 98.15 79.14 109.96 79.98 109.96 52.8 109.96 79.08 121.78 79.96 121.78 51.87 121.78 79.02 133.59 79.94 133.59 50.99 133.59 78.97 145.4 79.92 145.4 50.17 145.4 78.92"/>
      </g>
      <g stroke-width="0.3" fill="#000000" fill-opacity="0.000" class="geometry" stroke-dasharray="none" stroke="#0000FF" id="img-4acb89d7-31">
        <path fill="none" d="M39.09,80.31 L 39.09 78.99 39.09 80.29 50.9 80.31 50.9 78.46 50.9 80.28 62.71 80.3 62.71 77.81 62.71 80.26 74.53 80.3 74.53 77.06 74.53 80.24 86.34 80.29 86.34 76.21 86.34 80.22 98.15 80.28 98.15 75.28 98.15 80.19 109.96 80.26 109.96 74.28 109.96 80.15 121.78 80.25 121.78 73.25 121.78 80.11 133.59 80.23 133.59 72.22 133.59 80.07 145.4 80.22 145.4 71.22 145.4 80.03"/>
      </g>
      <g stroke-width="0.3" fill="#000000" fill-opacity="0.000" class="geometry" stroke-dasharray="none" stroke="#FF0000" id="img-4acb89d7-32">
        <path fill="none" d="M39.09,71.46 L 39.09 70.01 39.09 80.31 50.9 71.13 50.9 69.31 50.9 80.31 62.71 70.82 62.71 68.64 62.71 80.31 74.53 70.54 74.53 68.01 74.53 80.31 86.34 70.28 86.34 67.4 86.34 80.31 98.15 70.04 98.15 66.83 98.15 80.31 109.96 69.82 109.96 66.29 109.96 80.31 121.78 69.62 121.78 65.79 121.78 80.31 133.59 69.43 133.59 65.31 133.59 80.31 145.4 69.27 145.4 64.87 145.4 80.31"/>
      </g>
      <g stroke-width="0.3" fill="#000000" fill-opacity="0.000" class="geometry" stroke-dasharray="none" stroke="#FFFF00" id="img-4acb89d7-33">
        <path fill="none" d="M39.09,80.31 L 39.09 80.25 39.09 80.31 50.9 80.31 50.9 80.2 50.9 80.31 62.71 80.31 62.71 80.12 62.71 80.31 74.53 80.31 74.53 80 74.53 80.31 86.34 80.3 86.34 79.84 86.34 80.31 98.15 80.3 98.15 79.64 98.15 80.31 109.96 80.29 109.96 79.41 109.96 80.31 121.78 80.28 121.78 79.13 121.78 80.3 133.59 80.27 133.59 78.82 133.59 80.3 145.4 80.26 145.4 78.49 145.4 80.29"/>
      </g>
      <g stroke-width="0.3" fill="#000000" fill-opacity="0.000" class="geometry" stroke-dasharray="none" stroke="#FF00FF" id="img-4acb89d7-34">
        <path fill="none" d="M39.09,80.31 L 39.09 80.31 39.09 77.61 50.9 80.31 50.9 80.31 50.9 76.62 62.71 80.31 62.71 80.31 62.71 75.47 74.53 80.31 74.53 80.31 74.53 74.17 86.34 80.31 86.34 80.31 86.34 72.77 98.15 80.31 98.15 80.31 98.15 71.31 109.96 80.31 109.96 80.3 109.96 69.84 121.78 80.31 121.78 80.29 121.78 68.42 133.59 80.31 133.59 80.28 133.59 67.09 145.4 80.31 145.4 80.26 145.4 65.91"/>
      </g>
      <g stroke-width="0.3" fill="#000000" fill-opacity="0.000" class="geometry" stroke-dasharray="none" stroke="#00FFFF" id="img-4acb89d7-35">
        <path fill="none" d="M39.09,78.73 L 39.09 80.28 39.09 80.31 50.9 78.24 50.9 80.26 50.9 80.31 62.71 77.67 62.71 80.23 62.71 80.31 74.53 77.04 74.53 80.2 74.53 80.31 86.34 76.34 86.34 80.14 86.34 80.31 98.15 75.59 98.15 80.08 98.15 80.31 109.96 74.79 109.96 79.99 109.96 80.31 121.78 73.96 121.78 79.89 121.78 80.31 133.59 73.11 133.59 79.78 133.59 80.31 145.4 72.27 145.4 79.64 145.4 80.31"/>
      </g>
      <g stroke-width="0.3" fill="#000000" fill-opacity="0.000" class="geometry" stroke-dasharray="none" stroke="#008000" id="img-4acb89d7-36">
        <path fill="none" d="M39.09,80.31 L 39.09 79.26 39.09 28.62 50.9 80.31 50.9 79.18 50.9 27.97 62.71 80.31 62.71 79.1 62.71 27.39 74.53 80.31 74.53 79.01 74.53 26.87 86.34 80.31 86.34 78.94 86.34 26.41 98.15 80.31 98.15 78.86 98.15 26 109.96 80.31 109.96 78.78 109.96 25.64 121.78 80.31 121.78 78.71 121.78 25.31 133.59 80.31 133.59 78.65 133.59 25.02 145.4 80.31 145.4 78.58 145.4 24.77"/>
      </g>
      <g stroke-width="0.3" fill="#000000" fill-opacity="0.000" class="geometry" stroke-dasharray="none" stroke="#0000FF" id="img-4acb89d7-37">
        <path fill="none" d="M39.09,80.28 L 39.09 79.59 39.09 80.31 50.9 80.26 50.9 79.24 50.9 80.31 62.71 80.24 62.71 78.79 62.71 80.31 74.53 80.21 74.53 78.24 74.53 80.31 86.34 80.17 86.34 77.6 86.34 80.31 98.15 80.12 98.15 76.85 98.15 80.31 109.96 80.07 109.96 76.01 109.96 80.31 121.78 80.01 121.78 75.09 121.78 80.3 133.59 79.94 133.59 74.09 133.59 80.3 145.4 79.87 145.4 73.03 145.4 80.3"/>
      </g>
      <g stroke-width="0.3" fill="#000000" fill-opacity="0.000" class="geometry" stroke-dasharray="none" stroke="#FF0000" id="img-4acb89d7-38">
        <path fill="none" d="M39.09,78.02 L 39.09 72.16 39.09 80.31 50.9 77.8 50.9 71.35 50.9 80.31 62.71 77.59 62.71 70.55 62.71 80.31 74.53 77.37 74.53 69.74 74.53 80.31 86.34 77.16 86.34 68.95 86.34 80.31 98.15 76.96 98.15 68.16 98.15 80.31 109.96 76.76 109.96 67.4 109.96 80.31 121.78 76.57 121.78 66.65 121.78 80.31 133.59 76.38 133.59 65.93 133.59 80.31 145.4 76.2 145.4 65.23 145.4 80.31"/>
      </g>
      <g stroke-width="0.3" fill="#000000" fill-opacity="0.000" class="geometry" stroke-dasharray="none" stroke="#FFFF00" id="img-4acb89d7-39">
        <path fill="none" d="M39.09,80.28 L 39.09 74.57 39.09 80.31 50.9 80.27 50.9 73.18 50.9 80.31 62.71 80.25 62.71 71.68 62.71 80.31 74.53 80.23 74.53 70.09 74.53 80.31 86.34 80.21 86.34 68.42 86.34 80.31 98.15 80.18 98.15 66.72 98.15 80.31 109.96 80.15 109.96 64.98 109.96 80.3 121.78 80.12 121.78 63.25 121.78 80.3 133.59 80.08 133.59 61.53 133.59 80.3 145.4 80.04 145.4 59.83 145.4 80.29"/>
      </g>
      <g stroke-width="0.3" fill="#000000" fill-opacity="0.000" class="geometry" stroke-dasharray="none" stroke="#FF00FF" id="img-4acb89d7-40">
        <path fill="none" d="M39.09,80.29 L 39.09 71.69 39.09 80.31 50.9 80.27 50.9 70.18 50.9 80.31 62.71 80.26 62.71 68.73 62.71 80.31 74.53 80.24 74.53 67.42 74.53 80.31 86.34 80.22 86.34 66.29 86.34 80.31 98.15 80.2 98.15 65.37 98.15 80.31 109.96 80.18 109.96 64.68 109.96 80.31 121.78 80.16 121.78 64.21 121.78 80.31 133.59 80.14 133.59 63.95 133.59 80.3 145.4 80.12 145.4 63.9 145.4 80.3"/>
      </g>
      <g stroke-width="0.3" fill="#000000" fill-opacity="0.000" class="geometry" stroke-dasharray="none" stroke="#00FFFF" id="img-4acb89d7-41">
        <path fill="none" d="M39.09,80.31 L 39.09 79.93 39.09 65.14 50.9 80.31 50.9 79.85 50.9 63.87 62.71 80.31 62.71 79.76 62.71 62.64 74.53 80.31 74.53 79.66 74.53 61.45 86.34 80.31 86.34 79.56 86.34 60.3 98.15 80.31 98.15 79.45 98.15 59.21 109.96 80.31 109.96 79.33 109.96 58.17 121.78 80.31 121.78 79.22 121.78 57.19 133.59 80.31 133.59 79.09 133.59 56.26 145.4 80.31 145.4 78.97 145.4 55.39"/>
      </g>
      <g stroke-width="0.3" fill="#000000" fill-opacity="0.000" class="geometry" stroke-dasharray="none" stroke="#008000" id="img-4acb89d7-42">
        <path fill="none" d="M39.09,79.56 L 39.09 80.31 39.09 80.31 50.9 79.2 50.9 80.3 50.9 80.31 62.71 78.76 62.71 80.29 62.71 80.31 74.53 78.23 74.53 80.26 74.53 80.31 86.34 77.61 86.34 80.23 86.34 80.31 98.15 76.93 98.15 80.18 98.15 80.31 109.96 76.18 109.96 80.12 109.96 80.31 121.78 75.37 121.78 80.04 121.78 80.31 133.59 74.53 133.59 79.93 133.59 80.31 145.4 73.65 145.4 79.81 145.4 80.31"/>
      </g>
      <g stroke-width="0.3" fill="#000000" fill-opacity="0.000" class="geometry" stroke-dasharray="none" stroke="#0000FF" id="img-4acb89d7-43">
        <path fill="none" d="M39.09,80.31 L 39.09 75.8 39.09 73.65 50.9 80.31 50.9 75.29 50.9 73.22 62.71 80.31 62.71 74.78 62.71 72.83 74.53 80.31 74.53 74.28 74.53 72.48 86.34 80.31 86.34 73.79 86.34 72.2 98.15 80.31 98.15 73.33 98.15 71.98 109.96 80.31 109.96 72.9 109.96 71.84 121.78 80.31 121.78 72.5 121.78 71.78 133.59 80.31 133.59 72.16 133.59 71.8 145.4 80.31 145.4 71.87 145.4 71.89"/>
      </g>
      <g stroke-width="0.3" fill="#000000" fill-opacity="0.000" class="geometry" stroke-dasharray="none" stroke="#FF0000" id="img-4acb89d7-44">
        <path fill="none" d="M39.09,70.71 L 39.09 73.32 39.09 80.31 50.9 70.21 50.9 72.64 50.9 80.31 62.71 69.73 62.71 71.96 62.71 80.31 74.53 69.27 74.53 71.3 74.53 80.31 86.34 68.85 86.34 70.65 86.34 80.31 98.15 68.45 98.15 70.01 98.15 80.31 109.96 68.08 109.96 69.4 109.96 80.31 121.78 67.73 121.78 68.8 121.78 80.3 133.59 67.41 133.59 68.23 133.59 80.3 145.4 67.11 145.4 67.69 145.4 80.3"/>
      </g>
      <g stroke-width="0.3" fill="#000000" fill-opacity="0.000" class="geometry" stroke-dasharray="none" stroke="#FFFF00" id="img-4acb89d7-45">
        <path fill="none" d="M39.09,64.63 L 39.09 77.7 39.09 80.31 50.9 63.92 50.9 77.39 50.9 80.31 62.71 63.28 62.71 77.08 62.71 80.31 74.53 62.72 74.53 76.77 74.53 80.31 86.34 62.25 86.34 76.45 86.34 80.31 98.15 61.91 98.15 76.14 98.15 80.31 109.96 61.69 109.96 75.84 109.96 80.31 121.78 61.62 121.78 75.54 121.78 80.31 133.59 61.69 133.59 75.26 133.59 80.31 145.4 61.89 145.4 74.99 145.4 80.31"/>
      </g>
      <g stroke-width="0.3" fill="#000000" fill-opacity="0.000" class="geometry" stroke-dasharray="none" stroke="#FF00FF" id="img-4acb89d7-46">
        <path fill="none" d="M39.09,80.22 L 39.09 73.31 39.09 80.24 50.9 80.2 50.9 72.22 50.9 80.22 62.71 80.18 62.71 71.08 62.71 80.2 74.53 80.15 74.53 69.89 74.53 80.17 86.34 80.12 86.34 68.69 86.34 80.15 98.15 80.09 98.15 67.46 98.15 80.12 109.96 80.06 109.96 66.23 109.96 80.09 121.78 80.03 121.78 65.01 121.78 80.06 133.59 79.99 133.59 63.79 133.59 80.03 145.4 79.96 145.4 62.6 145.4 80"/>
      </g>
      <g stroke-width="0.3" fill="#000000" fill-opacity="0.000" class="geometry" stroke-dasharray="none" stroke="#00FFFF" id="img-4acb89d7-47">
        <path fill="none" d="M39.09,80.31 L 39.09 80.24 39.09 80.28 50.9 80.31 50.9 80.15 50.9 80.25 62.71 80.31 62.71 80.02 62.71 80.2 74.53 80.31 74.53 79.81 74.53 80.14 86.34 80.31 86.34 79.52 86.34 80.06 98.15 80.31 98.15 79.13 98.15 79.96 109.96 80.31 109.96 78.64 109.96 79.84 121.78 80.31 121.78 78.05 121.78 79.7 133.59 80.31 133.59 77.36 133.59 79.55 145.4 80.31 145.4 76.56 145.4 79.38"/>
      </g>
      <g stroke-width="0.3" fill="#000000" fill-opacity="0.000" class="geometry" stroke-dasharray="none" stroke="#008000" id="img-4acb89d7-48">
        <path fill="none" d="M39.09,58.24 L 39.09 78.98 39.09 80.31 50.9 57.08 50.9 78.77 50.9 80.31 62.71 56 62.71 78.55 62.71 80.31 74.53 55 74.53 78.32 74.53 80.31 86.34 54.07 86.34 78.08 86.34 80.31 98.15 53.21 98.15 77.84 98.15 80.31 109.96 52.42 109.96 77.6 109.96 80.31 121.78 51.7 121.78 77.36 121.78 80.31 133.59 51.08 133.59 77.12 133.59 80.31 145.4 50.58 145.4 76.89 145.4 80.31"/>
      </g>
      <g stroke-width="0.3" fill="#000000" fill-opacity="0.000" class="geometry" stroke-dasharray="none" stroke="#0000FF" id="img-4acb89d7-49">
        <path fill="none" d="M39.09,80.31 L 39.09 80.31 39.09 79.15 50.9 80.31 50.9 80.31 50.9 78.59 62.71 80.31 62.71 80.31 62.71 77.89 74.53 80.31 74.53 80.31 74.53 77.05 86.34 80.31 86.34 80.31 86.34 76.08 98.15 80.31 98.15 80.3 98.15 74.99 109.96 80.31 109.96 80.3 109.96 73.8 121.78 80.31 121.78 80.28 121.78 72.51 133.59 80.31 133.59 80.27 133.59 71.16 145.4 80.31 145.4 80.25 145.4 69.76"/>
      </g>
      <g stroke-width="0.3" fill="#000000" fill-opacity="0.000" class="geometry" stroke-dasharray="none" stroke="#FF0000" id="img-4acb89d7-50">
        <path fill="none" d="M39.09,80.18 L 39.09 76.33 39.09 80.31 50.9 80.13 50.9 75.04 50.9 80.31 62.71 80.08 62.71 73.59 62.71 80.31 74.53 80.01 74.53 72.02 74.53 80.31 86.34 79.94 86.34 70.34 86.34 80.31 98.15 79.87 98.15 68.61 98.15 80.31 109.96 79.79 109.96 66.85 109.96 80.31 121.78 79.71 121.78 65.12 121.78 80.3 133.59 79.62 133.59 63.47 133.59 80.3 145.4 79.55 145.4 61.97 145.4 80.3"/>
      </g>
      <g stroke-width="0.3" fill="#000000" fill-opacity="0.000" class="geometry" stroke-dasharray="none" stroke="#FFFF00" id="img-4acb89d7-51">
        <path fill="none" d="M39.09,80.18 L 39.09 50.9 39.09 80.17 50.9 80.16 50.9 49.22 50.9 80.15 62.71 80.15 62.71 47.63 62.71 80.13 74.53 80.13 74.53 46.15 74.53 80.11 86.34 80.11 86.34 44.76 86.34 80.09 98.15 80.09 98.15 43.47 98.15 80.07 109.96 80.07 109.96 42.27 109.96 80.05 121.78 80.06 121.78 41.16 121.78 80.04 133.59 80.04 133.59 40.14 133.59 80.02 145.4 80.02 145.4 39.19 145.4 80"/>
      </g>
      <g stroke-width="0.3" fill="#000000" fill-opacity="0.000" class="geometry" stroke-dasharray="none" stroke="#FF00FF" id="img-4acb89d7-52">
        <path fill="none" d="M39.09,80.31 L 39.09 80.31 39.09 63.37 50.9 80.31 50.9 80.3 50.9 60.59 62.71 80.31 62.71 80.29 62.71 57.86 74.53 80.31 74.53 80.27 74.53 55.23 86.34 80.31 86.34 80.25 86.34 52.72 98.15 80.31 98.15 80.22 98.15 50.34 109.96 80.31 109.96 80.19 109.96 48.11 121.78 80.31 121.78 80.14 121.78 46.04 133.59 80.31 133.59 80.09 133.59 44.13 145.4 80.31 145.4 80.03 145.4 42.38"/>
      </g>
      <g stroke-width="0.3" fill="#000000" fill-opacity="0.000" class="geometry" stroke-dasharray="none" stroke="#00FFFF" id="img-4acb89d7-53">
        <path fill="none" d="M39.09,72.6 L 39.09 79.51 39.09 80.31 50.9 71.63 50.9 79.26 50.9 80.31 62.71 70.69 62.71 78.98 62.71 80.31 74.53 69.79 74.53 78.66 74.53 80.31 86.34 68.94 86.34 78.32 86.34 80.31 98.15 68.13 98.15 77.96 98.15 80.31 109.96 67.37 109.96 77.58 109.96 80.31 121.78 66.67 121.78 77.19 121.78 80.31 133.59 66.02 133.59 76.79 133.59 80.31 145.4 65.41 145.4 76.39 145.4 80.31"/>
      </g>
      <g stroke-width="0.3" fill="#000000" fill-opacity="0.000" class="geometry" stroke-dasharray="none" stroke="#008000" id="img-4acb89d7-54">
        <path fill="none" d="M39.09,80.31 L 39.09 79.23 39.09 74.43 50.9 80.31 50.9 79.01 50.9 73.79 62.71 80.31 62.71 78.77 62.71 73.14 74.53 80.31 74.53 78.51 74.53 72.5 86.34 80.31 86.34 78.23 86.34 71.86 98.15 80.31 98.15 77.93 98.15 71.23 109.96 80.31 109.96 77.62 109.96 70.61 121.78 80.31 121.78 77.3 121.78 70.01 133.59 80.31 133.59 76.97 133.59 69.43 145.4 80.31 145.4 76.63 145.4 68.87"/>
      </g>
      <g stroke-width="0.3" fill="#000000" fill-opacity="0.000" class="geometry" stroke-dasharray="none" stroke="#0000FF" id="img-4acb89d7-55">
        <path fill="none" d="M39.09,80.31 L 39.09 76.94 39.09 78.97 50.9 80.31 50.9 76.31 50.9 78.75 62.71 80.31 62.71 75.63 62.71 78.53 74.53 80.31 74.53 74.91 74.53 78.3 86.34 80.31 86.34 74.16 86.34 78.06 98.15 80.31 98.15 73.39 98.15 77.82 109.96 80.31 109.96 72.59 109.96 77.58 121.78 80.31 121.78 71.79 121.78 77.34 133.59 80.31 133.59 70.98 133.59 77.1 145.4 80.31 145.4 70.17 145.4 76.87"/>
      </g>
      <g stroke-width="0.3" fill="#000000" fill-opacity="0.000" class="geometry" stroke-dasharray="none" stroke="#FF0000" id="img-4acb89d7-56">
        <path fill="none" d="M39.09,68.85 L 39.09 80.16 39.09 80.31 50.9 67.61 50.9 80.08 50.9 80.31 62.71 66.67 62.71 79.98 62.71 80.31 74.53 66.03 74.53 79.87 74.53 80.31 86.34 65.67 86.34 79.74 86.34 80.31 98.15 65.57 98.15 79.6 98.15 80.31 109.96 65.7 109.96 79.46 109.96 80.31 121.78 66.01 121.78 79.31 121.78 80.31 133.59 66.48 133.59 79.16 133.59 80.31 145.4 67.05 145.4 79.02 145.4 80.31"/>
      </g>
      <g stroke-width="0.3" fill="#000000" fill-opacity="0.000" class="geometry" stroke-dasharray="none" stroke="#FFFF00" id="img-4acb89d7-57">
        <path fill="none" d="M39.09,80.31 L 39.09 79.99 39.09 62.83 50.9 80.31 50.9 79.86 50.9 60.6 62.71 80.31 62.71 79.69 62.71 58.47 74.53 80.31 74.53 79.49 74.53 56.47 86.34 80.31 86.34 79.27 86.34 54.59 98.15 80.31 98.15 79.03 98.15 52.84 109.96 80.31 109.96 78.76 109.96 51.23 121.78 80.31 121.78 78.48 121.78 49.75 133.59 80.31 133.59 78.19 133.59 48.39 145.4 80.31 145.4 77.89 145.4 47.16"/>
      </g>
      <g stroke-width="0.3" fill="#000000" fill-opacity="0.000" class="geometry" stroke-dasharray="none" stroke="#FF00FF" id="img-4acb89d7-58">
        <path fill="none" d="M39.09,80.31 L 39.09 80.24 39.09 80.29 50.9 80.31 50.9 80.18 50.9 80.27 62.71 80.31 62.71 80.08 62.71 80.25 74.53 80.31 74.53 79.95 74.53 80.21 86.34 80.31 86.34 79.76 86.34 80.16 98.15 80.31 98.15 79.53 98.15 80.1 109.96 80.31 109.96 79.23 109.96 80.02 121.78 80.31 121.78 78.86 121.78 79.93 133.59 80.31 133.59 78.43 133.59 79.83 145.4 80.31 145.4 77.93 145.4 79.7"/>
      </g>
      <g stroke-width="0.3" fill="#000000" fill-opacity="0.000" class="geometry" stroke-dasharray="none" stroke="#00FFFF" id="img-4acb89d7-59">
        <path fill="none" d="M39.09,80.31 L 39.09 70.29 39.09 79.17 50.9 80.31 50.9 69.23 50.9 79.04 62.71 80.3 62.71 68.17 62.71 78.91 74.53 80.3 74.53 67.12 74.53 78.77 86.34 80.3 86.34 66.09 86.34 78.64 98.15 80.3 98.15 65.08 98.15 78.51 109.96 80.29 109.96 64.11 109.96 78.38 121.78 80.29 121.78 63.19 121.78 78.26 133.59 80.29 133.59 62.33 133.59 78.15 145.4 80.28 145.4 61.55 145.4 78.04"/>
      </g>
      <g stroke-width="0.3" fill="#000000" fill-opacity="0.000" class="geometry" stroke-dasharray="none" stroke="#008000" id="img-4acb89d7-60">
        <path fill="none" d="M39.09,79.4 L 39.09 68.19 39.09 80.09 50.9 79.29 50.9 66.83 50.9 80.06 62.71 79.19 62.71 65.47 62.71 80.03 74.53 79.09 74.53 64.13 74.53 79.99 86.34 78.99 86.34 62.82 86.34 79.95 98.15 78.89 98.15 61.55 98.15 79.92 109.96 78.79 109.96 60.32 109.96 79.88 121.78 78.7 121.78 59.14 121.78 79.84 133.59 78.61 133.59 58.01 133.59 79.81 145.4 78.53 145.4 56.93 145.4 79.77"/>
      </g>
      <g stroke-width="0.3" fill="#000000" fill-opacity="0.000" class="geometry" stroke-dasharray="none" stroke="#0000FF" id="img-4acb89d7-61">
        <path fill="none" d="M39.09,72.17 L 39.09 73.11 39.09 80.31 50.9 71.63 50.9 72.25 50.9 80.31 62.71 71.13 62.71 71.4 62.71 80.31 74.53 70.7 74.53 70.56 74.53 80.31 86.34 70.35 86.34 69.74 86.34 80.31 98.15 70.1 98.15 68.96 98.15 80.31 109.96 69.97 109.96 68.24 109.96 80.31 121.78 69.94 121.78 67.6 121.78 80.31 133.59 70.02 133.59 67.06 133.59 80.31 145.4 70.19 145.4 66.62 145.4 80.31"/>
      </g>
      <g stroke-width="0.3" fill="#000000" fill-opacity="0.000" class="geometry" stroke-dasharray="none" stroke="#FF0000" id="img-4acb89d7-62">
        <path fill="none" d="M39.09,51.41 L 39.09 79.94 39.09 80.31 50.9 49.85 50.9 79.85 50.9 80.31 62.71 48.42 62.71 79.75 62.71 80.31 74.53 47.1 74.53 79.64 74.53 80.31 86.34 45.91 86.34 79.52 86.34 80.31 98.15 44.87 98.15 79.39 98.15 80.31 109.96 44.05 109.96 79.26 109.96 80.31 121.78 43.55 121.78 79.12 121.78 80.31 133.59 43.43 133.59 78.99 133.59 80.31 145.4 43.73 145.4 78.85 145.4 80.31"/>
      </g>
      <g stroke-width="0.3" fill="#000000" fill-opacity="0.000" class="geometry" stroke-dasharray="none" stroke="#FFFF00" id="img-4acb89d7-63">
        <path fill="none" d="M39.09,73.45 L 39.09 80.25 39.09 80.31 50.9 72.32 50.9 80.22 50.9 80.31 62.71 71.15 62.71 80.18 62.71 80.31 74.53 69.94 74.53 80.14 74.53 80.31 86.34 68.73 86.34 80.08 86.34 80.31 98.15 67.51 98.15 80.01 98.15 80.31 109.96 66.3 109.96 79.94 109.96 80.31 121.78 65.11 121.78 79.85 121.78 80.31 133.59 63.95 133.59 79.74 133.59 80.31 145.4 62.82 145.4 79.63 145.4 80.31"/>
      </g>
      <g stroke-width="0.3" fill="#000000" fill-opacity="0.000" class="geometry" stroke-dasharray="none" stroke="#FF00FF" id="img-4acb89d7-64">
        <path fill="none" d="M39.09,69.8 L 39.09 80.24 39.09 80.31 50.9 68.13 50.9 80.19 50.9 80.31 62.71 66.49 62.71 80.13 62.71 80.31 74.53 64.9 74.53 80.06 74.53 80.31 86.34 63.36 86.34 79.97 86.34 80.31 98.15 61.9 98.15 79.86 98.15 80.31 109.96 60.52 109.96 79.74 109.96 80.31 121.78 59.22 121.78 79.6 121.78 80.31 133.59 58.02 133.59 79.44 133.59 80.31 145.4 56.93 145.4 79.27 145.4 80.31"/>
      </g>
      <g stroke-width="0.3" fill="#000000" fill-opacity="0.000" class="geometry" stroke-dasharray="none" stroke="#00FFFF" id="img-4acb89d7-65">
        <path fill="none" d="M39.09,78.06 L 39.09 70.26 39.09 80.22 50.9 77.87 50.9 69.28 50.9 80.2 62.71 77.69 62.71 68.3 62.71 80.18 74.53 77.51 74.53 67.32 74.53 80.17 86.34 77.34 86.34 66.36 86.34 80.15 98.15 77.17 98.15 65.42 98.15 80.13 109.96 77.01 109.96 64.51 109.96 80.11 121.78 76.86 121.78 63.63 121.78 80.09 133.59 76.73 133.59 62.81 133.59 80.07 145.4 76.61 145.4 62.05 145.4 80.05"/>
      </g>
      <g stroke-width="0.3" fill="#000000" fill-opacity="0.000" class="geometry" stroke-dasharray="none" stroke="#008000" id="img-4acb89d7-66">
        <path fill="none" d="M39.09,76.9 L 39.09 80.15 39.09 80.31 50.9 76.07 50.9 80.06 50.9 80.31 62.71 75.19 62.71 79.94 62.71 80.31 74.53 74.27 74.53 79.79 74.53 80.31 86.34 73.34 86.34 79.6 86.34 80.31 98.15 72.39 98.15 79.38 98.15 80.31 109.96 71.45 109.96 79.13 109.96 80.31 121.78 70.53 121.78 78.85 121.78 80.31 133.59 69.63 133.59 78.54 133.59 80.31 145.4 68.77 145.4 78.2 145.4 80.31"/>
      </g>
      <g stroke-width="0.3" fill="#000000" fill-opacity="0.000" class="geometry" stroke-dasharray="none" stroke="#0000FF" id="img-4acb89d7-67">
        <path fill="none" d="M39.09,80.31 L 39.09 76.23 39.09 74.33 50.9 80.31 50.9 75.64 50.9 73.82 62.71 80.31 62.71 75.03 62.71 73.33 74.53 80.31 74.53 74.41 74.53 72.85 86.34 80.31 86.34 73.78 86.34 72.4 98.15 80.31 98.15 73.15 98.15 71.96 109.96 80.31 109.96 72.53 109.96 71.55 121.78 80.31 121.78 71.92 121.78 71.17 133.59 80.31 133.59 71.33 133.59 70.83 145.4 80.31 145.4 70.75 145.4 70.52"/>
      </g>
      <g stroke-width="0.3" fill="#000000" fill-opacity="0.000" class="geometry" stroke-dasharray="none" stroke="#FF0000" id="img-4acb89d7-68">
        <path fill="none" d="M39.09,70.6 L 39.09 80.21 39.09 80.31 50.9 69.23 50.9 80.17 50.9 80.31 62.71 67.89 62.71 80.12 62.71 80.31 74.53 66.62 74.53 80.06 74.53 80.31 86.34 65.46 86.34 79.98 86.34 80.31 98.15 64.45 98.15 79.9 98.15 80.31 109.96 63.6 109.96 79.8 109.96 80.31 121.78 62.95 121.78 79.69 121.78 80.31 133.59 62.48 133.59 79.58 133.59 80.31 145.4 62.21 145.4 79.45 145.4 80.31"/>
      </g>
      <g stroke-width="0.3" fill="#000000" fill-opacity="0.000" class="geometry" stroke-dasharray="none" stroke="#FFFF00" id="img-4acb89d7-69">
        <path fill="none" d="M39.09,74.08 L 39.09 80.31 39.09 80.31 50.9 72.9 50.9 80.31 50.9 80.31 62.71 71.75 62.71 80.3 62.71 80.31 74.53 70.67 74.53 80.3 74.53 80.31 86.34 69.71 86.34 80.29 86.34 80.31 98.15 68.88 98.15 80.28 98.15 80.31 109.96 68.2 109.96 80.27 109.96 80.31 121.78 67.68 121.78 80.25 121.78 80.31 133.59 67.31 133.59 80.23 133.59 80.31 145.4 67.1 145.4 80.2 145.4 80.31"/>
      </g>
      <g stroke-width="0.3" fill="#000000" fill-opacity="0.000" class="geometry" stroke-dasharray="none" stroke="#FF00FF" id="img-4acb89d7-70">
        <path fill="none" d="M39.09,78.59 L 39.09 78.52 39.09 80.31 50.9 78.27 50.9 78.05 50.9 80.31 62.71 77.93 62.71 77.53 62.71 80.31 74.53 77.58 74.53 76.97 74.53 80.31 86.34 77.23 86.34 76.36 86.34 80.31 98.15 76.87 98.15 75.71 98.15 80.31 109.96 76.51 109.96 75.04 109.96 80.31 121.78 76.16 121.78 74.34 121.78 80.31 133.59 75.81 133.59 73.63 133.59 80.31 145.4 75.47 145.4 72.91 145.4 80.31"/>
      </g>
      <g stroke-width="0.3" fill="#000000" fill-opacity="0.000" class="geometry" stroke-dasharray="none" stroke="#00FFFF" id="img-4acb89d7-71">
        <path fill="none" d="M39.09,72.32 L 39.09 78.73 39.09 80.31 50.9 71.42 50.9 78.38 50.9 80.31 62.71 70.53 62.71 77.99 62.71 80.31 74.53 69.66 74.53 77.57 74.53 80.31 86.34 68.81 86.34 77.12 86.34 80.31 98.15 67.98 98.15 76.66 98.15 80.31 109.96 67.19 109.96 76.17 109.96 80.31 121.78 66.44 121.78 75.67 121.78 80.31 133.59 65.72 133.59 75.17 133.59 80.31 145.4 65.04 145.4 74.66 145.4 80.31"/>
      </g>
      <g stroke-width="0.3" fill="#000000" fill-opacity="0.000" class="geometry" stroke-dasharray="none" stroke="#008000" id="img-4acb89d7-72">
        <path fill="none" d="M39.09,72.88 L 39.09 80.31 39.09 80.31 50.9 71.16 50.9 80.3 50.9 80.31 62.71 69.35 62.71 80.3 62.71 80.31 74.53 67.47 74.53 80.28 74.53 80.31 86.34 65.55 86.34 80.27 86.34 80.31 98.15 63.63 98.15 80.24 98.15 80.31 109.96 61.71 109.96 80.21 109.96 80.31 121.78 59.83 121.78 80.18 121.78 80.31 133.59 57.99 133.59 80.13 133.59 80.31 145.4 56.22 145.4 80.07 145.4 80.31"/>
      </g>
      <g stroke-width="0.3" fill="#000000" fill-opacity="0.000" class="geometry" stroke-dasharray="none" stroke="#0000FF" id="img-4acb89d7-73">
        <path fill="none" d="M39.09,80.31 L 39.09 73.96 39.09 79.03 50.9 80.3 50.9 73.09 50.9 78.87 62.71 80.3 62.71 72.19 62.71 78.7 74.53 80.3 74.53 71.27 74.53 78.53 86.34 80.3 86.34 70.35 86.34 78.36 98.15 80.29 98.15 69.41 98.15 78.19 109.96 80.29 109.96 68.48 109.96 78.02 121.78 80.28 121.78 67.56 121.78 77.86 133.59 80.28 133.59 66.65 133.59 77.69 145.4 80.27 145.4 65.77 145.4 77.53"/>
      </g>
      <g stroke-width="0.3" fill="#000000" fill-opacity="0.000" class="geometry" stroke-dasharray="none" stroke="#FF0000" id="img-4acb89d7-74">
        <path fill="none" d="M39.09,80.19 L 39.09 70.73 39.09 80.31 50.9 80.15 50.9 69.3 50.9 80.31 62.71 80.12 62.71 67.84 62.71 80.31 74.53 80.08 74.53 66.35 74.53 80.31 86.34 80.03 86.34 64.86 86.34 80.31 98.15 79.99 98.15 63.38 98.15 80.3 109.96 79.94 109.96 61.91 109.96 80.3 121.78 79.89 121.78 60.49 121.78 80.3 133.59 79.84 133.59 59.13 133.59 80.29 145.4 79.78 145.4 57.85 145.4 80.29"/>
      </g>
      <g stroke-width="0.3" fill="#000000" fill-opacity="0.000" class="geometry" stroke-dasharray="none" stroke="#FFFF00" id="img-4acb89d7-75">
        <path fill="none" d="M39.09,80.2 L 39.09 80.31 39.09 80.31 50.9 80.09 50.9 80.31 50.9 80.31 62.71 79.93 62.71 80.31 62.71 80.31 74.53 79.7 74.53 80.31 74.53 80.31 86.34 79.39 86.34 80.31 86.34 80.31 98.15 79.01 98.15 80.3 98.15 80.31 109.96 78.53 109.96 80.28 109.96 80.31 121.78 77.98 121.78 80.26 121.78 80.31 133.59 77.35 133.59 80.23 133.59 80.31 145.4 76.65 145.4 80.19 145.4 80.31"/>
      </g>
      <g stroke-width="0.3" fill="#000000" fill-opacity="0.000" class="geometry" stroke-dasharray="none" stroke="#FF00FF" id="img-4acb89d7-76">
        <path fill="none" d="M39.09,73.1 L 39.09 72.46 39.09 80.31 50.9 72.67 50.9 71.67 50.9 80.31 62.71 72.26 62.71 70.89 62.71 80.31 74.53 71.88 74.53 70.11 74.53 80.31 86.34 71.51 86.34 69.36 86.34 80.31 98.15 71.17 98.15 68.62 98.15 80.3 109.96 70.84 109.96 67.9 109.96 80.3 121.78 70.54 121.78 67.21 121.78 80.3 133.59 70.26 133.59 66.55 133.59 80.3 145.4 70.01 145.4 65.92 145.4 80.3"/>
      </g>
      <g stroke-width="0.3" fill="#000000" fill-opacity="0.000" class="geometry" stroke-dasharray="none" stroke="#00FFFF" id="img-4acb89d7-77">
        <path fill="none" d="M39.09,80.31 L 39.09 69.37 39.09 72.33 50.9 80.31 50.9 68.67 50.9 72.02 62.71 80.31 62.71 67.99 62.71 71.72 74.53 80.31 74.53 67.35 74.53 71.45 86.34 80.31 86.34 66.74 86.34 71.2 98.15 80.31 98.15 66.16 98.15 70.97 109.96 80.31 109.96 65.62 109.96 70.75 121.78 80.31 121.78 65.11 121.78 70.56 133.59 80.31 133.59 64.63 133.59 70.38 145.4 80.31 145.4 64.18 145.4 70.22"/>
      </g>
      <g stroke-width="0.3" fill="#000000" fill-opacity="0.000" class="geometry" stroke-dasharray="none" stroke="#008000" id="img-4acb89d7-78">
        <path fill="none" d="M39.09,80.02 L 39.09 78.53 39.09 80.3 50.9 79.94 50.9 78 50.9 80.3 62.71 79.85 62.71 77.38 62.71 80.29 74.53 79.76 74.53 76.69 74.53 80.28 86.34 79.65 86.34 75.92 86.34 80.27 98.15 79.54 98.15 75.09 98.15 80.26 109.96 79.42 109.96 74.2 109.96 80.25 121.78 79.3 121.78 73.26 121.78 80.24 133.59 79.17 133.59 72.29 133.59 80.22 145.4 79.04 145.4 71.28 145.4 80.2"/>
      </g>
      <g stroke-width="0.3" fill="#000000" fill-opacity="0.000" class="geometry" stroke-dasharray="none" stroke="#0000FF" id="img-4acb89d7-79">
        <path fill="none" d="M39.09,79.96 L 39.09 74.11 39.09 80.24 50.9 79.9 50.9 73.14 50.9 80.22 62.71 79.84 62.71 72.13 62.71 80.2 74.53 79.77 74.53 71.09 74.53 80.18 86.34 79.7 86.34 70.02 86.34 80.15 98.15 79.63 98.15 68.94 98.15 80.13 109.96 79.55 109.96 67.84 109.96 80.1 121.78 79.48 121.78 66.75 121.78 80.08 133.59 79.4 133.59 65.67 133.59 80.05 145.4 79.32 145.4 64.6 145.4 80.02"/>
      </g>
      <g stroke-width="0.3" fill="#000000" fill-opacity="0.000" class="geometry" stroke-dasharray="none" stroke="#FF0000" id="img-4acb89d7-80">
        <path fill="none" d="M39.09,79.85 L 39.09 74.76 39.09 80.2 50.9 79.76 50.9 73.68 50.9 80.18 62.71 79.68 62.71 72.53 62.71 80.15 74.53 79.58 74.53 71.33 74.53 80.11 86.34 79.49 86.34 70.1 86.34 80.08 98.15 79.39 98.15 68.84 98.15 80.05 109.96 79.29 109.96 67.58 109.96 80.01 121.78 79.2 121.78 66.32 121.78 79.97 133.59 79.1 133.59 65.08 133.59 79.94 145.4 79.01 145.4 63.86 145.4 79.9"/>
      </g>
      <g stroke-width="0.3" fill="#000000" fill-opacity="0.000" class="geometry" stroke-dasharray="none" stroke="#FFFF00" id="img-4acb89d7-81">
        <path fill="none" d="M39.09,80.31 L 39.09 78.25 39.09 67.14 50.9 80.31 50.9 77.92 50.9 66.38 62.71 80.31 62.71 77.58 62.71 65.68 74.53 80.31 74.53 77.24 74.53 65.04 86.34 80.31 86.34 76.89 86.34 64.45 98.15 80.31 98.15 76.55 98.15 63.91 109.96 80.31 109.96 76.21 109.96 63.42 121.78 80.31 121.78 75.88 121.78 62.97 133.59 80.31 133.59 75.56 133.59 62.56 145.4 80.31 145.4 75.25 145.4 62.19"/>
      </g>
      <g stroke-width="0.3" fill="#000000" fill-opacity="0.000" class="geometry" stroke-dasharray="none" stroke="#FF00FF" id="img-4acb89d7-82">
        <path fill="none" d="M39.09,63.54 L 39.09 80.28 39.09 80.31 50.9 61.18 50.9 80.26 50.9 80.31 62.71 58.87 62.71 80.23 62.71 80.31 74.53 56.64 74.53 80.2 74.53 80.31 86.34 54.53 86.34 80.16 86.34 80.31 98.15 52.61 98.15 80.12 98.15 80.31 109.96 50.97 109.96 80.06 109.96 80.31 121.78 49.7 121.78 80 121.78 80.31 133.59 48.85 133.59 79.93 133.59 80.31 145.4 48.43 145.4 79.86 145.4 80.31"/>
      </g>
      <g stroke-width="0.3" fill="#000000" fill-opacity="0.000" class="geometry" stroke-dasharray="none" stroke="#00FFFF" id="img-4acb89d7-83">
        <path fill="none" d="M39.09,80.31 L 39.09 80.1 39.09 32.19 50.9 80.31 50.9 80.05 50.9 30.73 62.71 80.31 62.71 80.01 62.71 29.4 74.53 80.31 74.53 79.96 74.53 28.2 86.34 80.31 86.34 79.91 86.34 27.12 98.15 80.31 98.15 79.86 98.15 26.14 109.96 80.31 109.96 79.81 109.96 25.26 121.78 80.31 121.78 79.75 121.78 24.47 133.59 80.31 133.59 79.7 133.59 23.77 145.4 80.31 145.4 79.64 145.4 23.13"/>
      </g>
      <g stroke-width="0.3" fill="#000000" fill-opacity="0.000" class="geometry" stroke-dasharray="none" stroke="#008000" id="img-4acb89d7-84">
        <path fill="none" d="M39.09,75.91 L 39.09 80.27 39.09 80.31 50.9 74.85 50.9 80.24 50.9 80.31 62.71 73.73 62.71 80.2 62.71 80.31 74.53 72.56 74.53 80.15 74.53 80.31 86.34 71.37 86.34 80.07 86.34 80.31 98.15 70.17 98.15 79.98 98.15 80.31 109.96 68.98 109.96 79.87 109.96 80.31 121.78 67.82 121.78 79.73 121.78 80.31 133.59 66.69 133.59 79.58 133.59 80.31 145.4 65.6 145.4 79.41 145.4 80.31"/>
      </g>
      <g stroke-width="0.3" fill="#000000" fill-opacity="0.000" class="geometry" stroke-dasharray="none" stroke="#0000FF" id="img-4acb89d7-85">
        <path fill="none" d="M39.09,56.85 L 39.09 80.01 39.09 80.31 50.9 55.58 50.9 79.94 50.9 80.31 62.71 54.54 62.71 79.85 62.71 80.31 74.53 53.75 74.53 79.77 74.53 80.31 86.34 53.22 86.34 79.67 86.34 80.31 98.15 52.95 98.15 79.57 98.15 80.31 109.96 52.94 109.96 79.46 109.96 80.31 121.78 53.17 121.78 79.35 121.78 80.31 133.59 53.61 133.59 79.23 133.59 80.31 145.4 54.25 145.4 79.11 145.4 80.31"/>
      </g>
      <g stroke-width="0.3" fill="#000000" fill-opacity="0.000" class="geometry" stroke-dasharray="none" stroke="#FF0000" id="img-4acb89d7-86">
        <path fill="none" d="M39.09,80.31 L 39.09 65.6 39.09 80.26 50.9 80.31 50.9 63.49 50.9 80.24 62.71 80.31 62.71 61.38 62.71 80.22 74.53 80.31 74.53 59.28 74.53 80.19 86.34 80.31 86.34 57.22 86.34 80.17 98.15 80.31 98.15 55.21 98.15 80.14 109.96 80.3 109.96 53.27 109.96 80.11 121.78 80.3 121.78 51.41 121.78 80.07 133.59 80.3 133.59 49.64 133.59 80.04 145.4 80.29 145.4 47.96 145.4 80.01"/>
      </g>
      <g stroke-width="0.3" fill="#000000" fill-opacity="0.000" class="geometry" stroke-dasharray="none" stroke="#FFFF00" id="img-4acb89d7-87">
        <path fill="none" d="M39.09,80.26 L 39.09 72.44 39.09 77.28 50.9 80.25 50.9 71.39 50.9 76.99 62.71 80.24 62.71 70.31 62.71 76.72 74.53 80.23 74.53 69.23 74.53 76.45 86.34 80.22 86.34 68.15 86.34 76.19 98.15 80.2 98.15 67.09 98.15 75.94 109.96 80.19 109.96 66.04 109.96 75.7 121.78 80.17 121.78 65.02 121.78 75.48 133.59 80.16 133.59 64.04 133.59 75.28 145.4 80.14 145.4 63.1 145.4 75.1"/>
      </g>
      <g stroke-width="0.3" fill="#000000" fill-opacity="0.000" class="geometry" stroke-dasharray="none" stroke="#FF00FF" id="img-4acb89d7-88">
        <path fill="none" d="M39.09,79.43 L 39.09 74.88 39.09 80.29 50.9 79.3 50.9 74.02 50.9 80.29 62.71 79.17 62.71 73.12 62.71 80.28 74.53 79.03 74.53 72.18 74.53 80.28 86.34 78.89 86.34 71.21 86.34 80.27 98.15 78.74 98.15 70.23 98.15 80.26 109.96 78.6 109.96 69.25 109.96 80.25 121.78 78.46 121.78 68.26 121.78 80.24 133.59 78.32 133.59 67.28 133.59 80.23 145.4 78.18 145.4 66.31 145.4 80.22"/>
      </g>
      <g stroke-width="0.3" fill="#000000" fill-opacity="0.000" class="geometry" stroke-dasharray="none" stroke="#00FFFF" id="img-4acb89d7-89">
        <path fill="none" d="M39.09,80.31 L 39.09 80.29 39.09 80.31 50.9 80.31 50.9 80.26 50.9 80.31 62.71 80.31 62.71 80.21 62.71 80.31 74.53 80.31 74.53 80.12 74.53 80.3 86.34 80.31 86.34 79.98 86.34 80.29 98.15 80.31 98.15 79.79 98.15 80.28 109.96 80.31 109.96 79.52 109.96 80.25 121.78 80.31 121.78 79.18 121.78 80.22 133.59 80.31 133.59 78.76 133.59 80.18 145.4 80.31 145.4 78.25 145.4 80.13"/>
      </g>
      <g stroke-width="0.3" fill="#000000" fill-opacity="0.000" class="geometry" stroke-dasharray="none" stroke="#008000" id="img-4acb89d7-90">
        <path fill="none" d="M39.09,80.31 L 39.09 60.45 39.09 79.45 50.9 80.31 50.9 59.07 50.9 79.36 62.71 80.31 62.71 57.75 62.71 79.27 74.53 80.3 74.53 56.48 74.53 79.18 86.34 80.3 86.34 55.29 86.34 79.1 98.15 80.3 98.15 54.19 98.15 79.01 109.96 80.3 109.96 53.2 109.96 78.93 121.78 80.29 121.78 52.36 121.78 78.86 133.59 80.29 133.59 51.68 133.59 78.79 145.4 80.29 145.4 51.19 145.4 78.72"/>
      </g>
      <g stroke-width="0.3" fill="#000000" fill-opacity="0.000" class="geometry" stroke-dasharray="none" stroke="#0000FF" id="img-4acb89d7-91">
        <path fill="none" d="M39.09,76.2 L 39.09 76.56 39.09 80.31 50.9 75.71 50.9 75.88 50.9 80.31 62.71 75.22 62.71 75.15 62.71 80.31 74.53 74.74 74.53 74.4 74.53 80.31 86.34 74.28 86.34 73.64 86.34 80.31 98.15 73.83 98.15 72.86 98.15 80.31 109.96 73.41 109.96 72.09 109.96 80.31 121.78 73.02 121.78 71.32 121.78 80.31 133.59 72.68 133.59 70.57 133.59 80.31 145.4 72.39 145.4 69.85 145.4 80.31"/>
      </g>
      <g stroke-width="0.3" fill="#000000" fill-opacity="0.000" class="geometry" stroke-dasharray="none" stroke="#FF0000" id="img-4acb89d7-92">
        <path fill="none" d="M39.09,73.29 L 39.09 76.85 39.09 80.31 50.9 72.65 50.9 76.25 50.9 80.31 62.71 72.05 62.71 75.62 62.71 80.31 74.53 71.52 74.53 74.97 74.53 80.31 86.34 71.07 86.34 74.31 86.34 80.31 98.15 70.71 98.15 73.65 98.15 80.31 109.96 70.45 109.96 73.01 109.96 80.31 121.78 70.28 121.78 72.4 121.78 80.31 133.59 70.21 133.59 71.83 133.59 80.31 145.4 70.23 145.4 71.32 145.4 80.31"/>
      </g>
      <g stroke-width="0.3" fill="#000000" fill-opacity="0.000" class="geometry" stroke-dasharray="none" stroke="#FFFF00" id="img-4acb89d7-93">
        <path fill="none" d="M39.09,80.31 L 39.09 80.3 39.09 80.31 50.9 80.31 50.9 80.28 50.9 80.31 62.71 80.31 62.71 80.24 62.71 80.31 74.53 80.31 74.53 80.18 74.53 80.31 86.34 80.31 86.34 80.08 86.34 80.3 98.15 80.31 98.15 79.93 98.15 80.29 109.96 80.3 109.96 79.73 109.96 80.28 121.78 80.3 121.78 79.48 121.78 80.26 133.59 80.29 133.59 79.15 133.59 80.24 145.4 80.28 145.4 78.77 145.4 80.21"/>
      </g>
      <g stroke-width="0.3" fill="#000000" fill-opacity="0.000" class="geometry" stroke-dasharray="none" stroke="#FF00FF" id="img-4acb89d7-94">
        <path fill="none" d="M39.09,79.79 L 39.09 79.59 39.09 80.31 50.9 79.58 50.9 79.19 50.9 80.31 62.71 79.35 62.71 78.69 62.71 80.31 74.53 79.09 74.53 78.09 74.53 80.31 86.34 78.84 86.34 77.41 86.34 80.31 98.15 78.59 98.15 76.68 98.15 80.31 109.96 78.37 109.96 75.92 109.96 80.31 121.78 78.18 121.78 75.19 121.78 80.31 133.59 78.03 133.59 74.51 133.59 80.31 145.4 77.92 145.4 73.9 145.4 80.31"/>
      </g>
      <g stroke-width="0.3" fill="#000000" fill-opacity="0.000" class="geometry" stroke-dasharray="none" stroke="#00FFFF" id="img-4acb89d7-95">
        <path fill="none" d="M39.09,80.29 L 39.09 76.57 39.09 80.08 50.9 80.29 50.9 75.79 50.9 80.03 62.71 80.28 62.71 74.94 62.71 79.97 74.53 80.27 74.53 74.03 74.53 79.91 86.34 80.26 86.34 73.07 86.34 79.84 98.15 80.25 98.15 72.06 98.15 79.77 109.96 80.24 109.96 71.03 109.96 79.7 121.78 80.22 121.78 69.97 121.78 79.62 133.59 80.21 133.59 68.89 133.59 79.54 145.4 80.19 145.4 67.81 145.4 79.46"/>
      </g>
      <g stroke-width="0.3" fill="#000000" fill-opacity="0.000" class="geometry" stroke-dasharray="none" stroke="#008000" id="img-4acb89d7-96">
        <path fill="none" d="M39.09,77.17 L 39.09 80.3 39.09 80.31 50.9 76.35 50.9 80.28 50.9 80.31 62.71 75.44 62.71 80.26 62.71 80.31 74.53 74.45 74.53 80.24 74.53 80.31 86.34 73.4 86.34 80.21 86.34 80.31 98.15 72.29 98.15 80.16 98.15 80.31 109.96 71.16 109.96 80.11 109.96 80.31 121.78 70 121.78 80.04 121.78 80.31 133.59 68.84 133.59 79.96 133.59 80.31 145.4 67.69 145.4 79.87 145.4 80.31"/>
      </g>
      <g stroke-width="0.3" fill="#000000" fill-opacity="0.000" class="geometry" stroke-dasharray="none" stroke="#0000FF" id="img-4acb89d7-97">
        <path fill="none" d="M39.09,75.63 L 39.09 79.99 39.09 80.31 50.9 74.86 50.9 79.88 50.9 80.31 62.71 74.08 62.71 79.75 62.71 80.31 74.53 73.3 74.53 79.59 74.53 80.31 86.34 72.54 86.34 79.42 86.34 80.31 98.15 71.84 98.15 79.22 98.15 80.31 109.96 71.19 109.96 79 109.96 80.31 121.78 70.63 121.78 78.76 121.78 80.31 133.59 70.16 133.59 78.51 133.59 80.31 145.4 69.79 145.4 78.25 145.4 80.31"/>
      </g>
      <g stroke-width="0.3" fill="#000000" fill-opacity="0.000" class="geometry" stroke-dasharray="none" stroke="#FF0000" id="img-4acb89d7-98">
        <path fill="none" d="M39.09,80.31 L 39.09 79.96 39.09 62.95 50.9 80.31 50.9 79.88 50.9 61.66 62.71 80.31 62.71 79.8 62.71 60.42 74.53 80.31 74.53 79.7 74.53 59.23 86.34 80.31 86.34 79.6 86.34 58.08 98.15 80.31 98.15 79.49 98.15 56.99 109.96 80.31 109.96 79.37 109.96 55.96 121.78 80.31 121.78 79.25 121.78 54.98 133.59 80.31 133.59 79.12 133.59 54.06 145.4 80.31 145.4 78.98 145.4 53.2"/>
      </g>
      <g stroke-width="0.3" fill="#000000" fill-opacity="0.000" class="geometry" stroke-dasharray="none" stroke="#FFFF00" id="img-4acb89d7-99">
        <path fill="none" d="M39.09,64.37 L 39.09 79.73 39.09 80.31 50.9 64.17 50.9 79.6 50.9 80.31 62.71 64.17 62.71 79.45 62.71 80.31 74.53 64.35 74.53 79.3 74.53 80.31 86.34 64.69 86.34 79.15 86.34 80.31 98.15 65.16 98.15 78.99 98.15 80.31 109.96 65.73 109.96 78.84 109.96 80.31 121.78 66.38 121.78 78.7 121.78 80.31 133.59 67.08 133.59 78.57 133.59 80.31 145.4 67.82 145.4 78.45 145.4 80.31"/>
      </g>
      <g stroke-width="0.3" fill="#000000" fill-opacity="0.000" class="geometry" stroke-dasharray="none" stroke="#FF00FF" id="img-4acb89d7-100">
        <path fill="none" d="M39.09,67.79 L 39.09 79.92 39.09 80.31 50.9 66.37 50.9 79.81 50.9 80.31 62.71 64.96 62.71 79.69 62.71 80.31 74.53 63.59 74.53 79.55 74.53 80.31 86.34 62.26 86.34 79.4 86.34 80.31 98.15 60.98 98.15 79.23 98.15 80.31 109.96 59.75 109.96 79.05 109.96 80.31 121.78 58.57 121.78 78.86 121.78 80.31 133.59 57.47 133.59 78.66 133.59 80.31 145.4 56.42 145.4 78.46 145.4 80.31"/>
      </g>
      <g stroke-width="0.3" fill="#000000" fill-opacity="0.000" class="geometry" stroke-dasharray="none" stroke="#00FFFF" id="img-4acb89d7-101">
        <path fill="none" d="M39.09,77.52 L 39.09 78.53 39.09 80.31 50.9 76.98 50.9 77.92 50.9 80.31 62.71 76.44 62.71 77.22 62.71 80.31 74.53 75.93 74.53 76.45 74.53 80.31 86.34 75.48 86.34 75.62 86.34 80.31 98.15 75.1 98.15 74.77 98.15 80.31 109.96 74.81 109.96 73.92 109.96 80.31 121.78 74.61 121.78 73.11 121.78 80.31 133.59 74.51 133.59 72.37 133.59 80.31 145.4 74.48 145.4 71.71 145.4 80.31"/>
      </g>
      <g stroke-width="0.3" fill="#000000" fill-opacity="0.000" class="geometry" stroke-dasharray="none" stroke="#008000" id="img-4acb89d7-102">
        <path fill="none" d="M39.09,77.17 L 39.09 80.27 39.09 80.31 50.9 76.38 50.9 80.24 50.9 80.31 62.71 75.52 62.71 80.2 62.71 80.31 74.53 74.6 74.53 80.15 74.53 80.31 86.34 73.63 86.34 80.08 86.34 80.31 98.15 72.63 98.15 80 98.15 80.31 109.96 71.6 109.96 79.9 109.96 80.31 121.78 70.55 121.78 79.78 121.78 80.31 133.59 69.51 133.59 79.65 133.59 80.31 145.4 68.48 145.4 79.5 145.4 80.31"/>
      </g>
      <g stroke-width="0.3" fill="#000000" fill-opacity="0.000" class="geometry" stroke-dasharray="none" stroke="#0000FF" id="img-4acb89d7-103">
        <path fill="none" d="M39.09,79.37 L 39.09 78.09 39.09 80.27 50.9 79.2 50.9 77.54 50.9 80.26 62.71 79.02 62.71 76.93 62.71 80.24 74.53 78.82 74.53 76.25 74.53 80.22 86.34 78.62 86.34 75.52 86.34 80.2 98.15 78.42 98.15 74.74 98.15 80.18 109.96 78.21 109.96 73.93 109.96 80.16 121.78 78.01 121.78 73.08 121.78 80.13 133.59 77.8 133.59 72.2 133.59 80.11 145.4 77.59 145.4 71.31 145.4 80.08"/>
      </g>
      <g stroke-width="0.3" fill="#000000" fill-opacity="0.000" class="geometry" stroke-dasharray="none" stroke="#FF0000" id="img-4acb89d7-104">
        <path fill="none" d="M39.09,80.31 L 39.09 79.59 39.09 80.12 50.9 80.31 50.9 79.26 50.9 80.04 62.71 80.31 62.71 78.86 62.71 79.94 74.53 80.31 74.53 78.41 74.53 79.83 86.34 80.31 86.34 77.91 86.34 79.71 98.15 80.31 98.15 77.39 98.15 79.59 109.96 80.31 109.96 76.86 109.96 79.47 121.78 80.31 121.78 76.35 121.78 79.36 133.59 80.31 133.59 75.88 133.59 79.26 145.4 80.31 145.4 75.45 145.4 79.18"/>
      </g>
      <g stroke-width="0.3" fill="#000000" fill-opacity="0.000" class="geometry" stroke-dasharray="none" stroke="#FFFF00" id="img-4acb89d7-105">
        <path fill="none" d="M39.09,74.85 L 39.09 69.59 39.09 80.3 50.9 74.5 50.9 68.45 50.9 80.3 62.71 74.16 62.71 67.33 62.71 80.3 74.53 73.83 74.53 66.23 74.53 80.29 86.34 73.53 86.34 65.17 86.34 80.29 98.15 73.25 98.15 64.14 98.15 80.28 109.96 72.99 109.96 63.16 109.96 80.28 121.78 72.74 121.78 62.22 121.78 80.27 133.59 72.52 133.59 61.33 133.59 80.27 145.4 72.31 145.4 60.49 145.4 80.27"/>
      </g>
      <g stroke-width="0.3" fill="#000000" fill-opacity="0.000" class="geometry" stroke-dasharray="none" stroke="#FF00FF" id="img-4acb89d7-106">
        <path fill="none" d="M39.09,66.01 L 39.09 77.93 39.09 80.31 50.9 65.29 50.9 77.63 50.9 80.31 62.71 64.6 62.71 77.32 62.71 80.31 74.53 63.96 74.53 77.01 74.53 80.31 86.34 63.36 86.34 76.7 86.34 80.31 98.15 62.8 98.15 76.38 98.15 80.31 109.96 62.29 109.96 76.07 109.96 80.31 121.78 61.81 121.78 75.77 121.78 80.31 133.59 61.37 133.59 75.47 133.59 80.31 145.4 60.96 145.4 75.18 145.4 80.31"/>
      </g>
      <g stroke-width="0.3" fill="#000000" fill-opacity="0.000" class="geometry" stroke-dasharray="none" stroke="#00FFFF" id="img-4acb89d7-107">
        <path fill="none" d="M39.09,57.2 L 39.09 79.02 39.09 80.31 50.9 55.95 50.9 78.83 50.9 80.31 62.71 54.76 62.71 78.62 62.71 80.31 74.53 53.65 74.53 78.41 74.53 80.31 86.34 52.61 86.34 78.2 86.34 80.31 98.15 51.64 98.15 77.98 98.15 80.31 109.96 50.74 109.96 77.76 109.96 80.31 121.78 49.91 121.78 77.54 121.78 80.31 133.59 49.14 133.59 77.32 133.59 80.31 145.4 48.44 145.4 77.11 145.4 80.31"/>
      </g>
      <g stroke-width="0.3" fill="#000000" fill-opacity="0.000" class="geometry" stroke-dasharray="none" stroke="#008000" id="img-4acb89d7-108">
        <path fill="none" d="M39.09,30.6 L 39.09 79.96 39.09 80.31 50.9 29.94 50.9 79.91 50.9 80.31 62.71 29.71 62.71 79.85 62.71 80.31 74.53 29.93 74.53 79.79 74.53 80.31 86.34 30.58 86.34 79.73 86.34 80.31 98.15 31.65 98.15 79.67 98.15 80.31 109.96 33.07 109.96 79.61 109.96 80.31 121.78 34.78 121.78 79.54 121.78 80.31 133.59 36.74 133.59 79.48 133.59 80.31 145.4 38.87 145.4 79.42 145.4 80.31"/>
      </g>
      <g stroke-width="0.3" fill="#000000" fill-opacity="0.000" class="geometry" stroke-dasharray="none" stroke="#0000FF" id="img-4acb89d7-109">
        <path fill="none" d="M39.09,80.31 L 39.09 80.31 39.09 79.91 50.9 80.31 50.9 80.31 50.9 79.64 62.71 80.31 62.71 80.3 62.71 79.27 74.53 80.31 74.53 80.28 74.53 78.79 86.34 80.31 86.34 80.25 86.34 78.2 98.15 80.31 98.15 80.21 98.15 77.51 109.96 80.31 109.96 80.15 109.96 76.74 121.78 80.31 121.78 80.06 121.78 75.88 133.59 80.31 133.59 79.95 133.59 74.97 145.4 80.31 145.4 79.81 145.4 74.02"/>
      </g>
      <g class="geometry" id="img-4acb89d7-110">
        <g class="color_RGBA{Float32}(1.0f0,0.0f0,0.0f0,1.0f0)" stroke="#FFFFFF" stroke-width="0.3" fill="#FF0000" id="img-4acb89d7-111">
          <use xlink:href="#img-4acb89d7-112" x="39.09" y="80.31"/>
          <use xlink:href="#img-4acb89d7-112" x="50.9" y="80.31"/>
          <use xlink:href="#img-4acb89d7-112" x="62.71" y="80.31"/>
          <use xlink:href="#img-4acb89d7-112" x="74.53" y="80.31"/>
          <use xlink:href="#img-4acb89d7-112" x="86.34" y="80.31"/>
          <use xlink:href="#img-4acb89d7-112" x="98.15" y="80.31"/>
          <use xlink:href="#img-4acb89d7-112" x="109.96" y="80.31"/>
          <use xlink:href="#img-4acb89d7-112" x="121.78" y="80.31"/>
          <use xlink:href="#img-4acb89d7-112" x="133.59" y="80.31"/>
          <use xlink:href="#img-4acb89d7-112" x="145.4" y="80.31"/>
          <use xlink:href="#img-4acb89d7-112" x="39.09" y="80.29"/>
          <use xlink:href="#img-4acb89d7-112" x="50.9" y="80.29"/>
          <use xlink:href="#img-4acb89d7-112" x="62.71" y="80.28"/>
          <use xlink:href="#img-4acb89d7-112" x="74.53" y="80.28"/>
          <use xlink:href="#img-4acb89d7-112" x="86.34" y="80.27"/>
          <use xlink:href="#img-4acb89d7-112" x="98.15" y="80.27"/>
          <use xlink:href="#img-4acb89d7-112" x="109.96" y="80.26"/>
          <use xlink:href="#img-4acb89d7-112" x="121.78" y="80.26"/>
          <use xlink:href="#img-4acb89d7-112" x="133.59" y="80.25"/>
          <use xlink:href="#img-4acb89d7-112" x="145.4" y="80.24"/>
          <use xlink:href="#img-4acb89d7-112" x="39.09" y="80.31"/>
          <use xlink:href="#img-4acb89d7-112" x="50.9" y="80.31"/>
          <use xlink:href="#img-4acb89d7-112" x="62.71" y="80.31"/>
          <use xlink:href="#img-4acb89d7-112" x="74.53" y="80.31"/>
          <use xlink:href="#img-4acb89d7-112" x="86.34" y="80.31"/>
          <use xlink:href="#img-4acb89d7-112" x="98.15" y="80.31"/>
          <use xlink:href="#img-4acb89d7-112" x="109.96" y="80.31"/>
          <use xlink:href="#img-4acb89d7-112" x="121.78" y="80.3"/>
          <use xlink:href="#img-4acb89d7-112" x="133.59" y="80.3"/>
          <use xlink:href="#img-4acb89d7-112" x="145.4" y="80.3"/>
        </g>
      </g>
    </g>
  </g>
</g>
  <g class="guide ylabels" font-size="2.82" font-family="'PT Sans Caption','Helvetica Neue','Helvetica',sans-serif" fill="#6C606B" id="img-4acb89d7-113">
    <text x="24.28" y="80.32" text-anchor="end" dy="0.35em">0</text>
    <text x="24.28" y="61.99" text-anchor="end" dy="0.35em">5.010</text>
    <text x="24.28" y="43.66" text-anchor="end" dy="0.35em">1.010</text>
    <text x="24.28" y="25.33" text-anchor="end" dy="0.35em">1.510</text>
    <text x="24.28" y="7" text-anchor="end" dy="0.35em">2.010</text>
  </g>
  <g font-size="3.88" font-family="'PT Sans','Helvetica Neue','Helvetica',sans-serif" fill="#564A55" stroke="#000000" stroke-opacity="0.000" id="img-4acb89d7-114">
    <text x="9.16" y="43.66" text-anchor="end" dy="0.35em">Y</text>
  </g>
</g>
<defs>
  <clipPath id="img-4acb89d7-4">
  <path d="M25.28,5 L 147.4 5 147.4 82.32 25.28 82.32" />
</clipPath>
  <g id="img-4acb89d7-112">
    <circle cx="0" cy="0" r="1.06"/>
  </g>
</defs>
</svg>
