<?xml version="1.0" encoding="UTF-8"?>
<svg xmlns="http://www.w3.org/2000/svg"
     xmlns:xlink="http://www.w3.org/1999/xlink"
     xmlns:gadfly="http://www.gadflyjl.org/ns"
     version="1.2"
     width="152.4mm" height="101.6mm" viewBox="0 0 152.4 101.6"
     stroke="none"
     fill="#000000"
     stroke-width="0.3"
     font-size="3.88"
>
<g class="plotroot xscalable yscalable" id="img-17257cf3-1">
  <g font-size="3.88" font-family="'PT Sans','Helvetica Neue','Helvetica',sans-serif" fill="#564A55" stroke="#000000" stroke-opacity="0.000" id="img-17257cf3-2">
    <text x="74.22" y="89.99" text-anchor="middle" dy="0.6em">x [m]</text>
  </g>
  <g class="guide xlabels" font-size="2.82" font-family="'PT Sans Caption','Helvetica Neue','Helvetica',sans-serif" fill="#6C606B" id="img-17257cf3-3">
    <text x="17.28" y="83.32" text-anchor="middle" dy="0.6em">0</text>
    <text x="40.06" y="83.32" text-anchor="middle" dy="0.6em">500</text>
    <text x="62.83" y="83.32" text-anchor="middle" dy="0.6em">1000</text>
    <text x="85.6" y="83.32" text-anchor="middle" dy="0.6em">1500</text>
    <text x="108.37" y="83.32" text-anchor="middle" dy="0.6em">2000</text>
    <text x="131.15" y="83.32" text-anchor="middle" dy="0.6em">2500</text>
  </g>
  <g class="guide colorkey" id="img-17257cf3-4">
    <g class="color_Wells" id="img-17257cf3-5">
      <g fill="#4C404B" font-size="2.82" font-family="'PT Sans','Helvetica Neue','Helvetica',sans-serif" id="img-17257cf3-6">
        <text x="136.96" y="45.47" dy="0.35em">Wells</text>
      </g>
      <g fill="#00BFFF" stroke="#000000" stroke-opacity="0.000" id="img-17257cf3-7">
        <rect x="134.15" y="44.56" width="1.81" height="1.81"/>
      </g>
    </g>
    <g fill="#362A35" font-size="3.88" font-family="'PT Sans','Helvetica Neue','Helvetica',sans-serif" stroke="#000000" stroke-opacity="0.000" id="img-17257cf3-8">
      <text x="134.15" y="41.65">category</text>
    </g>
  </g>
<g clip-path="url(#img-17257cf3-9)">
  <g id="img-17257cf3-10">
    <g pointer-events="visible" opacity="1" fill="#000000" fill-opacity="0.000" stroke="#000000" stroke-opacity="0.000" class="guide background" id="img-17257cf3-11">
      <rect x="15.28" y="5" width="117.86" height="77.32"/>
    </g>
    <g class="guide xgridlines yfixed" stroke-dasharray="0.5,0.5" stroke-width="0.2" stroke="#D0D0E0" id="img-17257cf3-12">
      <path fill="none" d="M17.28,5 L 17.28 82.32"/>
      <path fill="none" d="M40.06,5 L 40.06 82.32"/>
      <path fill="none" d="M62.83,5 L 62.83 82.32"/>
      <path fill="none" d="M85.6,5 L 85.6 82.32"/>
      <path fill="none" d="M108.37,5 L 108.37 82.32"/>
      <path fill="none" d="M131.15,5 L 131.15 82.32"/>
    </g>
    <g class="guide ygridlines xfixed" stroke-dasharray="0.5,0.5" stroke-width="0.2" stroke="#D0D0E0" id="img-17257cf3-13">
      <path fill="none" d="M15.28,80.32 L 133.15 80.32"/>
      <path fill="none" d="M15.28,65.65 L 133.15 65.65"/>
      <path fill="none" d="M15.28,50.99 L 133.15 50.99"/>
      <path fill="none" d="M15.28,36.33 L 133.15 36.33"/>
      <path fill="none" d="M15.28,21.66 L 133.15 21.66"/>
      <path fill="none" d="M15.28,7 L 133.15 7"/>
    </g>
    <g class="plotpanel" id="img-17257cf3-14">
      <g class="geometry" stroke="#000000" stroke-opacity="0.000" fill="#4C404B" font-size="2.82" font-family="'PT Sans Caption','Helvetica Neue','Helvetica',sans-serif" id="img-17257cf3-15">
        <text x="95.2" y="39.98" text-anchor="middle" dy="0.35em" visibility="visible">w13a</text>
        <text x="118.2" y="41.74" text-anchor="middle" dy="0.35em" visibility="visible">w20a</text>
      </g>
      <g class="geometry" id="img-17257cf3-16">
        <g stroke-width="0.3" id="img-17257cf3-17">
          <use xlink:href="#img-17257cf3-18" x="90.52" y="37.65" class="color_Wells" stroke="#FFFFFF" fill="#00BFFF"/>
          <use xlink:href="#img-17257cf3-18" x="113.52" y="39.41" class="color_Wells" stroke="#FFFFFF" fill="#00BFFF"/>
        </g>
      </g>
    </g>
    <g class="geometry" id="img-17257cf3-19">
      <g stroke="#FFA500" opacity="0.2" fill="#FFA500" id="img-17257cf3-20">
        <rect x="57.14" y="25.33" width="11.39" height="36.66"/>
      </g>
    </g>
  </g>
</g>
  <g class="guide ylabels" font-size="2.82" font-family="'PT Sans Caption','Helvetica Neue','Helvetica',sans-serif" fill="#6C606B" id="img-17257cf3-21">
    <text x="14.28" y="168.29" text-anchor="middle" transform="rotate(-90, 14.28, 80.32)" gadfly:scale="1.0" visibility="hidden">600</text>
    <text x="14.28" y="153.63" text-anchor="middle" transform="rotate(-90, 14.28, 65.65)" gadfly:scale="1.0" visibility="hidden">700</text>
    <text x="14.28" y="138.97" text-anchor="middle" transform="rotate(-90, 14.28, 50.99)" gadfly:scale="1.0" visibility="hidden">800</text>
    <text x="14.28" y="124.3" text-anchor="middle" transform="rotate(-90, 14.28, 36.33)" gadfly:scale="1.0" visibility="hidden">900</text>
    <text x="14.28" y="109.64" text-anchor="middle" transform="rotate(-90, 14.28, 21.66)" gadfly:scale="1.0" visibility="hidden">1000</text>
    <text x="14.28" y="94.98" text-anchor="middle" transform="rotate(-90, 14.28, 7)" gadfly:scale="1.0" visibility="hidden">1100</text>
    <text x="14.28" y="80.32" text-anchor="middle" transform="rotate(-90, 14.28, 80.32)" gadfly:scale="1.0" visibility="visible">1200</text>
    <text x="14.28" y="65.65" text-anchor="middle" transform="rotate(-90, 14.28, 65.65)" gadfly:scale="1.0" visibility="visible">1300</text>
    <text x="14.28" y="50.99" text-anchor="middle" transform="rotate(-90, 14.28, 50.99)" gadfly:scale="1.0" visibility="visible">1400</text>
    <text x="14.28" y="36.33" text-anchor="middle" transform="rotate(-90, 14.28, 36.33)" gadfly:scale="1.0" visibility="visible">1500</text>
    <text x="14.28" y="21.66" text-anchor="middle" transform="rotate(-90, 14.28, 21.66)" gadfly:scale="1.0" visibility="visible">1600</text>
    <text x="14.28" y="7" text-anchor="middle" transform="rotate(-90, 14.28, 7)" gadfly:scale="1.0" visibility="visible">1700</text>
    <text x="14.28" y="-7.66" text-anchor="middle" transform="rotate(-90, 14.28, 80.32)" gadfly:scale="1.0" visibility="hidden">1800</text>
    <text x="14.28" y="-22.33" text-anchor="middle" transform="rotate(-90, 14.28, 65.65)" gadfly:scale="1.0" visibility="hidden">1900</text>
    <text x="14.28" y="-36.99" text-anchor="middle" transform="rotate(-90, 14.28, 50.99)" gadfly:scale="1.0" visibility="hidden">2000</text>
    <text x="14.28" y="-51.65" text-anchor="middle" transform="rotate(-90, 14.28, 36.33)" gadfly:scale="1.0" visibility="hidden">2100</text>
    <text x="14.28" y="-66.31" text-anchor="middle" transform="rotate(-90, 14.28, 21.66)" gadfly:scale="1.0" visibility="hidden">2200</text>
    <text x="14.28" y="-80.98" text-anchor="middle" transform="rotate(-90, 14.28, 7)" gadfly:scale="1.0" visibility="hidden">2300</text>
    <text x="14.28" y="256.27" text-anchor="middle" transform="rotate(-90, 14.28, 80.32)" gadfly:scale="10.0" visibility="hidden">0</text>
    <text x="14.28" y="248.94" text-anchor="middle" transform="rotate(-90, 14.28, 65.65)" gadfly:scale="10.0" visibility="hidden">50</text>
    <text x="14.28" y="241.61" text-anchor="middle" transform="rotate(-90, 14.28, 50.99)" gadfly:scale="10.0" visibility="hidden">100</text>
    <text x="14.28" y="234.28" text-anchor="middle" transform="rotate(-90, 14.28, 36.33)" gadfly:scale="10.0" visibility="hidden">150</text>
    <text x="14.28" y="226.94" text-anchor="middle" transform="rotate(-90, 14.28, 21.66)" gadfly:scale="10.0" visibility="hidden">200</text>
    <text x="14.28" y="219.61" text-anchor="middle" transform="rotate(-90, 14.28, 7)" gadfly:scale="10.0" visibility="hidden">250</text>
    <text x="14.28" y="212.28" text-anchor="middle" transform="rotate(-90, 14.28, 80.32)" gadfly:scale="10.0" visibility="hidden">300</text>
    <text x="14.28" y="204.95" text-anchor="middle" transform="rotate(-90, 14.28, 65.65)" gadfly:scale="10.0" visibility="hidden">350</text>
    <text x="14.28" y="197.62" text-anchor="middle" transform="rotate(-90, 14.28, 50.99)" gadfly:scale="10.0" visibility="hidden">400</text>
    <text x="14.28" y="190.29" text-anchor="middle" transform="rotate(-90, 14.28, 36.33)" gadfly:scale="10.0" visibility="hidden">450</text>
    <text x="14.28" y="182.96" text-anchor="middle" transform="rotate(-90, 14.28, 21.66)" gadfly:scale="10.0" visibility="hidden">500</text>
    <text x="14.28" y="175.62" text-anchor="middle" transform="rotate(-90, 14.28, 7)" gadfly:scale="10.0" visibility="hidden">550</text>
    <text x="14.28" y="168.29" text-anchor="middle" transform="rotate(-90, 14.28, 80.32)" gadfly:scale="10.0" visibility="hidden">600</text>
    <text x="14.28" y="160.96" text-anchor="middle" transform="rotate(-90, 14.28, 65.65)" gadfly:scale="10.0" visibility="hidden">650</text>
    <text x="14.28" y="153.63" text-anchor="middle" transform="rotate(-90, 14.28, 50.99)" gadfly:scale="10.0" visibility="hidden">700</text>
    <text x="14.28" y="146.3" text-anchor="middle" transform="rotate(-90, 14.28, 36.33)" gadfly:scale="10.0" visibility="hidden">750</text>
    <text x="14.28" y="138.97" text-anchor="middle" transform="rotate(-90, 14.28, 21.66)" gadfly:scale="10.0" visibility="hidden">800</text>
    <text x="14.28" y="131.64" text-anchor="middle" transform="rotate(-90, 14.28, 7)" gadfly:scale="10.0" visibility="hidden">850</text>
    <text x="14.28" y="124.3" text-anchor="middle" transform="rotate(-90, 14.28, 80.32)" gadfly:scale="10.0" visibility="hidden">900</text>
    <text x="14.28" y="116.97" text-anchor="middle" transform="rotate(-90, 14.28, 65.65)" gadfly:scale="10.0" visibility="hidden">950</text>
    <text x="14.28" y="109.64" text-anchor="middle" transform="rotate(-90, 14.28, 50.99)" gadfly:scale="10.0" visibility="hidden">1000</text>
    <text x="14.28" y="102.31" text-anchor="middle" transform="rotate(-90, 14.28, 36.33)" gadfly:scale="10.0" visibility="hidden">1050</text>
    <text x="14.28" y="94.98" text-anchor="middle" transform="rotate(-90, 14.28, 21.66)" gadfly:scale="10.0" visibility="hidden">1100</text>
    <text x="14.28" y="87.65" text-anchor="middle" transform="rotate(-90, 14.28, 7)" gadfly:scale="10.0" visibility="hidden">1150</text>
    <text x="14.28" y="80.32" text-anchor="middle" transform="rotate(-90, 14.28, 80.32)" gadfly:scale="10.0" visibility="hidden">1200</text>
    <text x="14.28" y="72.98" text-anchor="middle" transform="rotate(-90, 14.28, 65.65)" gadfly:scale="10.0" visibility="hidden">1250</text>
    <text x="14.28" y="65.65" text-anchor="middle" transform="rotate(-90, 14.28, 50.99)" gadfly:scale="10.0" visibility="hidden">1300</text>
    <text x="14.28" y="58.32" text-anchor="middle" transform="rotate(-90, 14.28, 36.33)" gadfly:scale="10.0" visibility="hidden">1350</text>
    <text x="14.28" y="50.99" text-anchor="middle" transform="rotate(-90, 14.28, 21.66)" gadfly:scale="10.0" visibility="hidden">1400</text>
    <text x="14.28" y="43.66" text-anchor="middle" transform="rotate(-90, 14.28, 7)" gadfly:scale="10.0" visibility="hidden">1450</text>
    <text x="14.28" y="36.33" text-anchor="middle" transform="rotate(-90, 14.28, 80.32)" gadfly:scale="10.0" visibility="hidden">1500</text>
    <text x="14.28" y="28.99" text-anchor="middle" transform="rotate(-90, 14.28, 65.65)" gadfly:scale="10.0" visibility="hidden">1550</text>
    <text x="14.28" y="21.66" text-anchor="middle" transform="rotate(-90, 14.28, 50.99)" gadfly:scale="10.0" visibility="hidden">1600</text>
    <text x="14.28" y="14.33" text-anchor="middle" transform="rotate(-90, 14.28, 36.33)" gadfly:scale="10.0" visibility="hidden">1650</text>
    <text x="14.28" y="7" text-anchor="middle" transform="rotate(-90, 14.28, 21.66)" gadfly:scale="10.0" visibility="hidden">1700</text>
    <text x="14.28" y="-0.33" text-anchor="middle" transform="rotate(-90, 14.28, 7)" gadfly:scale="10.0" visibility="hidden">1750</text>
    <text x="14.28" y="-7.66" text-anchor="middle" transform="rotate(-90, 14.28, 80.32)" gadfly:scale="10.0" visibility="hidden">1800</text>
    <text x="14.28" y="-14.99" text-anchor="middle" transform="rotate(-90, 14.28, 65.65)" gadfly:scale="10.0" visibility="hidden">1850</text>
    <text x="14.28" y="-22.33" text-anchor="middle" transform="rotate(-90, 14.28, 50.99)" gadfly:scale="10.0" visibility="hidden">1900</text>
    <text x="14.28" y="-29.66" text-anchor="middle" transform="rotate(-90, 14.28, 36.33)" gadfly:scale="10.0" visibility="hidden">1950</text>
    <text x="14.28" y="-36.99" text-anchor="middle" transform="rotate(-90, 14.28, 21.66)" gadfly:scale="10.0" visibility="hidden">2000</text>
    <text x="14.28" y="-44.32" text-anchor="middle" transform="rotate(-90, 14.28, 7)" gadfly:scale="10.0" visibility="hidden">2050</text>
    <text x="14.28" y="-51.65" text-anchor="middle" transform="rotate(-90, 14.28, 80.32)" gadfly:scale="10.0" visibility="hidden">2100</text>
    <text x="14.28" y="-58.98" text-anchor="middle" transform="rotate(-90, 14.28, 65.65)" gadfly:scale="10.0" visibility="hidden">2150</text>
    <text x="14.28" y="-66.31" text-anchor="middle" transform="rotate(-90, 14.28, 50.99)" gadfly:scale="10.0" visibility="hidden">2200</text>
    <text x="14.28" y="182.96" text-anchor="middle" transform="rotate(-90, 14.28, 36.33)" gadfly:scale="0.5" visibility="hidden">500</text>
    <text x="14.28" y="109.64" text-anchor="middle" transform="rotate(-90, 14.28, 21.66)" gadfly:scale="0.5" visibility="hidden">1000</text>
    <text x="14.28" y="36.33" text-anchor="middle" transform="rotate(-90, 14.28, 7)" gadfly:scale="0.5" visibility="hidden">1500</text>
    <text x="14.28" y="-36.99" text-anchor="middle" transform="rotate(-90, 14.28, 80.32)" gadfly:scale="0.5" visibility="hidden">2000</text>
    <text x="14.28" y="-110.3" text-anchor="middle" transform="rotate(-90, 14.28, 65.65)" gadfly:scale="0.5" visibility="hidden">2500</text>
    <text x="14.28" y="256.27" text-anchor="middle" transform="rotate(-90, 14.28, 50.99)" gadfly:scale="5.0" visibility="hidden">0</text>
    <text x="14.28" y="248.94" text-anchor="middle" transform="rotate(-90, 14.28, 36.33)" gadfly:scale="5.0" visibility="hidden">50</text>
    <text x="14.28" y="241.61" text-anchor="middle" transform="rotate(-90, 14.28, 21.66)" gadfly:scale="5.0" visibility="hidden">100</text>
    <text x="14.28" y="234.28" text-anchor="middle" transform="rotate(-90, 14.28, 7)" gadfly:scale="5.0" visibility="hidden">150</text>
    <text x="14.28" y="226.94" text-anchor="middle" transform="rotate(-90, 14.28, 80.32)" gadfly:scale="5.0" visibility="hidden">200</text>
    <text x="14.28" y="219.61" text-anchor="middle" transform="rotate(-90, 14.28, 65.65)" gadfly:scale="5.0" visibility="hidden">250</text>
    <text x="14.28" y="212.28" text-anchor="middle" transform="rotate(-90, 14.28, 50.99)" gadfly:scale="5.0" visibility="hidden">300</text>
    <text x="14.28" y="204.95" text-anchor="middle" transform="rotate(-90, 14.28, 36.33)" gadfly:scale="5.0" visibility="hidden">350</text>
    <text x="14.28" y="197.62" text-anchor="middle" transform="rotate(-90, 14.28, 21.66)" gadfly:scale="5.0" visibility="hidden">400</text>
    <text x="14.28" y="190.29" text-anchor="middle" transform="rotate(-90, 14.28, 7)" gadfly:scale="5.0" visibility="hidden">450</text>
    <text x="14.28" y="182.96" text-anchor="middle" transform="rotate(-90, 14.28, 80.32)" gadfly:scale="5.0" visibility="hidden">500</text>
    <text x="14.28" y="175.62" text-anchor="middle" transform="rotate(-90, 14.28, 65.65)" gadfly:scale="5.0" visibility="hidden">550</text>
    <text x="14.28" y="168.29" text-anchor="middle" transform="rotate(-90, 14.28, 50.99)" gadfly:scale="5.0" visibility="hidden">600</text>
    <text x="14.28" y="160.96" text-anchor="middle" transform="rotate(-90, 14.28, 36.33)" gadfly:scale="5.0" visibility="hidden">650</text>
    <text x="14.28" y="153.63" text-anchor="middle" transform="rotate(-90, 14.28, 21.66)" gadfly:scale="5.0" visibility="hidden">700</text>
    <text x="14.28" y="146.3" text-anchor="middle" transform="rotate(-90, 14.28, 7)" gadfly:scale="5.0" visibility="hidden">750</text>
    <text x="14.28" y="138.97" text-anchor="middle" transform="rotate(-90, 14.28, 80.32)" gadfly:scale="5.0" visibility="hidden">800</text>
    <text x="14.28" y="131.64" text-anchor="middle" transform="rotate(-90, 14.28, 65.65)" gadfly:scale="5.0" visibility="hidden">850</text>
    <text x="14.28" y="124.3" text-anchor="middle" transform="rotate(-90, 14.28, 50.99)" gadfly:scale="5.0" visibility="hidden">900</text>
    <text x="14.28" y="116.97" text-anchor="middle" transform="rotate(-90, 14.28, 36.33)" gadfly:scale="5.0" visibility="hidden">950</text>
    <text x="14.28" y="109.64" text-anchor="middle" transform="rotate(-90, 14.28, 21.66)" gadfly:scale="5.0" visibility="hidden">1000</text>
    <text x="14.28" y="102.31" text-anchor="middle" transform="rotate(-90, 14.28, 7)" gadfly:scale="5.0" visibility="hidden">1050</text>
    <text x="14.28" y="94.98" text-anchor="middle" transform="rotate(-90, 14.28, 80.32)" gadfly:scale="5.0" visibility="hidden">1100</text>
    <text x="14.28" y="87.65" text-anchor="middle" transform="rotate(-90, 14.28, 65.65)" gadfly:scale="5.0" visibility="hidden">1150</text>
    <text x="14.28" y="80.32" text-anchor="middle" transform="rotate(-90, 14.28, 50.99)" gadfly:scale="5.0" visibility="hidden">1200</text>
    <text x="14.28" y="72.98" text-anchor="middle" transform="rotate(-90, 14.28, 36.33)" gadfly:scale="5.0" visibility="hidden">1250</text>
    <text x="14.28" y="65.65" text-anchor="middle" transform="rotate(-90, 14.28, 21.66)" gadfly:scale="5.0" visibility="hidden">1300</text>
    <text x="14.28" y="58.32" text-anchor="middle" transform="rotate(-90, 14.28, 7)" gadfly:scale="5.0" visibility="hidden">1350</text>
    <text x="14.28" y="50.99" text-anchor="middle" transform="rotate(-90, 14.28, 80.32)" gadfly:scale="5.0" visibility="hidden">1400</text>
    <text x="14.28" y="43.66" text-anchor="middle" transform="rotate(-90, 14.28, 65.65)" gadfly:scale="5.0" visibility="hidden">1450</text>
    <text x="14.28" y="36.33" text-anchor="middle" transform="rotate(-90, 14.28, 50.99)" gadfly:scale="5.0" visibility="hidden">1500</text>
    <text x="14.28" y="28.99" text-anchor="middle" transform="rotate(-90, 14.28, 36.33)" gadfly:scale="5.0" visibility="hidden">1550</text>
    <text x="14.28" y="21.66" text-anchor="middle" transform="rotate(-90, 14.28, 21.66)" gadfly:scale="5.0" visibility="hidden">1600</text>
    <text x="14.28" y="14.33" text-anchor="middle" transform="rotate(-90, 14.28, 7)" gadfly:scale="5.0" visibility="hidden">1650</text>
    <text x="14.28" y="7" text-anchor="middle" transform="rotate(-90, 14.28, 80.32)" gadfly:scale="5.0" visibility="hidden">1700</text>
    <text x="14.28" y="-0.33" text-anchor="middle" transform="rotate(-90, 14.28, 65.65)" gadfly:scale="5.0" visibility="hidden">1750</text>
    <text x="14.28" y="-7.66" text-anchor="middle" transform="rotate(-90, 14.28, 50.99)" gadfly:scale="5.0" visibility="hidden">1800</text>
    <text x="14.28" y="-14.99" text-anchor="middle" transform="rotate(-90, 14.28, 36.33)" gadfly:scale="5.0" visibility="hidden">1850</text>
    <text x="14.28" y="-22.33" text-anchor="middle" transform="rotate(-90, 14.28, 21.66)" gadfly:scale="5.0" visibility="hidden">1900</text>
    <text x="14.28" y="-29.66" text-anchor="middle" transform="rotate(-90, 14.28, 7)" gadfly:scale="5.0" visibility="hidden">1950</text>
    <text x="14.28" y="-36.99" text-anchor="middle" transform="rotate(-90, 14.28, 80.32)" gadfly:scale="5.0" visibility="hidden">2000</text>
    <text x="14.28" y="-44.32" text-anchor="middle" transform="rotate(-90, 14.28, 65.65)" gadfly:scale="5.0" visibility="hidden">2050</text>
    <text x="14.28" y="-51.65" text-anchor="middle" transform="rotate(-90, 14.28, 50.99)" gadfly:scale="5.0" visibility="hidden">2100</text>
    <text x="14.28" y="-58.98" text-anchor="middle" transform="rotate(-90, 14.28, 36.33)" gadfly:scale="5.0" visibility="hidden">2150</text>
    <text x="14.28" y="-66.31" text-anchor="middle" transform="rotate(-90, 14.28, 21.66)" gadfly:scale="5.0" visibility="hidden">2200</text>
  </g>
  <g class="guide ylabels" font-size="2.82" font-family="'PT Sans Caption','Helvetica Neue','Helvetica',sans-serif" fill="#6C606B" id="img-17257cf3-22">
    <text x="14.28" y="80.32" text-anchor="middle" transform="rotate(-90, 14.28, 80.32)">1200</text>
    <text x="14.28" y="65.65" text-anchor="middle" transform="rotate(-90, 14.28, 65.65)">1300</text>
    <text x="14.28" y="50.99" text-anchor="middle" transform="rotate(-90, 14.28, 50.99)">1400</text>
    <text x="14.28" y="36.33" text-anchor="middle" transform="rotate(-90, 14.28, 36.33)">1500</text>
    <text x="14.28" y="21.66" text-anchor="middle" transform="rotate(-90, 14.28, 21.66)">1600</text>
    <text x="14.28" y="7" text-anchor="middle" transform="rotate(-90, 14.28, 7)">1700</text>
  </g>
  <g font-size="3.88" font-family="'PT Sans','Helvetica Neue','Helvetica',sans-serif" fill="#564A55" stroke="#000000" stroke-opacity="0.000" id="img-17257cf3-23">
    <text x="8.81" y="41.66" text-anchor="middle" dy="0.35em" transform="rotate(-90, 8.81, 43.66)">y [m]</text>
  </g>
</g>
<defs>
  <clipPath id="img-17257cf3-9">
  <path d="M15.28,5 L 133.15 5 133.15 82.32 15.28 82.32" />
</clipPath>
  <g id="img-17257cf3-18">
    <circle cx="0" cy="0" r="0.9"/>
  </g>
</defs>
</svg>
