<?xml version="1.0" encoding="UTF-8"?>
<svg xmlns="http://www.w3.org/2000/svg"
     xmlns:xlink="http://www.w3.org/1999/xlink"
     xmlns:gadfly="http://www.gadflyjl.org/ns"
     version="1.2"
     width="152.4mm" height="203.2mm" viewBox="0 0 152.4 203.2"
     stroke="none"
     fill="#000000"
     stroke-width="0.3"
     font-size="3.88"
>
<g class="plotroot xscalable yscalable" id="img-d4e4b891-1">
  <g font-size="3.88" font-family="'PT Sans','Helvetica Neue','Helvetica',sans-serif" fill="#564A55" stroke="#000000" stroke-opacity="0.000" id="img-d4e4b891-2">
    <text x="83.45" y="191.56" text-anchor="middle" dy="0.6em">Time [a]</text>
  </g>
  <g class="guide xlabels" font-size="2.82" font-family="'PT Sans Caption','Helvetica Neue','Helvetica',sans-serif" fill="#6C606B" id="img-d4e4b891-3">
    <text x="21.51" y="185.51" text-anchor="middle" dy="0.6em">0</text>
    <text x="46.29" y="185.51" text-anchor="middle" dy="0.6em">10</text>
    <text x="71.07" y="185.51" text-anchor="middle" dy="0.6em">20</text>
    <text x="95.84" y="185.51" text-anchor="middle" dy="0.6em">30</text>
    <text x="120.62" y="185.51" text-anchor="middle" dy="0.6em">40</text>
    <text x="145.4" y="185.51" text-anchor="middle" dy="0.6em">50</text>
  </g>
<g clip-path="url(#img-d4e4b891-4)">
  <g id="img-d4e4b891-5">
    <g pointer-events="visible" opacity="1" fill="#000000" fill-opacity="0.000" stroke="#000000" stroke-opacity="0.000" class="guide background" id="img-d4e4b891-6">
      <rect x="19.51" y="111.41" width="127.89" height="73.1"/>
    </g>
    <g class="guide ygridlines xfixed" stroke-dasharray="0.5,0.5" stroke-width="0.2" stroke="#D0D0E0" id="img-d4e4b891-7">
      <path fill="none" d="M19.51,182.51 L 147.4 182.51"/>
      <path fill="none" d="M19.51,165.24 L 147.4 165.24"/>
      <path fill="none" d="M19.51,147.96 L 147.4 147.96"/>
      <path fill="none" d="M19.51,130.68 L 147.4 130.68"/>
      <path fill="none" d="M19.51,113.41 L 147.4 113.41"/>
    </g>
    <g class="guide xgridlines yfixed" stroke-dasharray="0.5,0.5" stroke-width="0.2" stroke="#D0D0E0" id="img-d4e4b891-8">
      <path fill="none" d="M21.51,111.41 L 21.51 184.51"/>
      <path fill="none" d="M46.29,111.41 L 46.29 184.51"/>
      <path fill="none" d="M71.07,111.41 L 71.07 184.51"/>
      <path fill="none" d="M95.84,111.41 L 95.84 184.51"/>
      <path fill="none" d="M120.62,111.41 L 120.62 184.51"/>
      <path fill="none" d="M145.4,111.41 L 145.4 184.51"/>
    </g>
    <g class="plotpanel" id="img-d4e4b891-9">
      <g stroke-width="0.71" fill="#000000" fill-opacity="0.000" class="geometry" stroke-dasharray="none" stroke="#0000FF" id="img-d4e4b891-10">
        <path fill="none" d="M23.99,182.51 L 26.47 182.51 28.94 182.51 31.42 182.51 33.9 182.51 36.38 182.51 38.85 182.51 41.33 182.51 43.81 182.51 46.29 182.51 48.77 182.51 51.24 182.51 53.72 182.51 56.2 182.5 58.68 182.48 61.15 182.43 63.63 182.3 66.11 182.04 68.59 181.6 71.07 180.9 73.54 179.87 76.02 178.44 78.5 176.56 80.98 174.2 83.45 171.33 85.93 167.96 88.41 164.13 90.89 159.89 93.37 155.32 95.84 150.55 98.32 145.7 100.8 140.9 103.28 136.28 105.76 131.98 108.23 128.09 110.71 124.69 113.19 121.86 115.67 119.62 118.14 117.98 120.62 116.95 123.1 116.5 125.58 116.58 128.06 117.16 130.53 118.19 133.01 119.6 135.49 121.35 137.97 123.36 140.44 125.6 142.92 128 145.4 130.53"/>
      </g>
      <g class="geometry" id="img-d4e4b891-11">
        <g class="color_RGBA{Float32}(1.0f0,0.0f0,0.0f0,1.0f0)" stroke-width="0.3" id="img-d4e4b891-12">
          <g stroke="#FFFFFF" fill="#FF0000" id="img-d4e4b891-13">
            <use xlink:href="#img-d4e4b891-14" x="145.4" y="132.27"/>
          </g>
          <g stroke="#FFFFFF" fill="#FF0000" id="img-d4e4b891-15">
            <use xlink:href="#img-d4e4b891-16" x="142.92" y="129.84"/>
          </g>
          <g stroke="#FFFFFF" fill="#FF0000" id="img-d4e4b891-17">
            <use xlink:href="#img-d4e4b891-18" x="140.44" y="127.52"/>
          </g>
          <g stroke="#FFFFFF" fill="#FF0000" id="img-d4e4b891-19">
            <use xlink:href="#img-d4e4b891-20" x="137.97" y="125.36"/>
          </g>
          <g stroke="#FFFFFF" fill="#FF0000" id="img-d4e4b891-21">
            <use xlink:href="#img-d4e4b891-22" x="135.49" y="123.4"/>
          </g>
          <g stroke="#FFFFFF" fill="#FF0000" id="img-d4e4b891-23">
            <use xlink:href="#img-d4e4b891-24" x="133.01" y="121.71"/>
          </g>
          <g stroke="#FFFFFF" fill="#FF0000" id="img-d4e4b891-25">
            <use xlink:href="#img-d4e4b891-26" x="130.53" y="120.32"/>
          </g>
          <g stroke="#FFFFFF" fill="#FF0000" id="img-d4e4b891-27">
            <use xlink:href="#img-d4e4b891-28" x="128.06" y="119.3"/>
          </g>
          <g stroke="#FFFFFF" fill="#FF0000" id="img-d4e4b891-29">
            <use xlink:href="#img-d4e4b891-30" x="125.58" y="118.71"/>
          </g>
          <g stroke="#FFFFFF" fill="#FF0000" id="img-d4e4b891-31">
            <use xlink:href="#img-d4e4b891-32" x="123.1" y="118.59"/>
          </g>
          <g stroke="#FFFFFF" fill="#FF0000" id="img-d4e4b891-33">
            <use xlink:href="#img-d4e4b891-34" x="120.62" y="119.01"/>
          </g>
          <g stroke="#FFFFFF" fill="#FF0000" id="img-d4e4b891-35">
            <use xlink:href="#img-d4e4b891-36" x="118.14" y="119.98"/>
          </g>
          <g stroke="#FFFFFF" fill="#FF0000" id="img-d4e4b891-37">
            <use xlink:href="#img-d4e4b891-38" x="115.67" y="121.55"/>
          </g>
          <g stroke="#FFFFFF" fill="#FF0000" id="img-d4e4b891-39">
            <use xlink:href="#img-d4e4b891-40" x="113.19" y="123.72"/>
          </g>
          <g stroke="#FFFFFF" fill="#FF0000" id="img-d4e4b891-41">
            <use xlink:href="#img-d4e4b891-42" x="110.71" y="126.49"/>
          </g>
          <g stroke="#FFFFFF" fill="#FF0000" id="img-d4e4b891-43">
            <use xlink:href="#img-d4e4b891-44" x="108.23" y="129.83"/>
          </g>
          <g stroke="#FFFFFF" fill="#FF0000" id="img-d4e4b891-45">
            <use xlink:href="#img-d4e4b891-46" x="105.76" y="133.68"/>
          </g>
          <g stroke="#FFFFFF" fill="#FF0000" id="img-d4e4b891-47">
            <use xlink:href="#img-d4e4b891-48" x="103.28" y="137.96"/>
          </g>
          <g stroke="#FFFFFF" fill="#FF0000" id="img-d4e4b891-49">
            <use xlink:href="#img-d4e4b891-50" x="100.8" y="142.57"/>
          </g>
          <g stroke="#FFFFFF" fill="#FF0000" id="img-d4e4b891-51">
            <use xlink:href="#img-d4e4b891-52" x="98.32" y="147.38"/>
          </g>
          <g stroke="#FFFFFF" fill="#FF0000" id="img-d4e4b891-53">
            <use xlink:href="#img-d4e4b891-54" x="95.84" y="152.25"/>
          </g>
          <g stroke="#FFFFFF" fill="#FF0000" id="img-d4e4b891-55">
            <use xlink:href="#img-d4e4b891-56" x="93.37" y="157.04"/>
          </g>
          <g stroke="#FFFFFF" fill="#FF0000" id="img-d4e4b891-57">
            <use xlink:href="#img-d4e4b891-58" x="90.89" y="161.6"/>
          </g>
          <g stroke="#FFFFFF" fill="#FF0000" id="img-d4e4b891-59">
            <use xlink:href="#img-d4e4b891-60" x="88.41" y="165.81"/>
          </g>
          <g stroke="#FFFFFF" fill="#FF0000" id="img-d4e4b891-61">
            <use xlink:href="#img-d4e4b891-62" x="85.93" y="169.57"/>
          </g>
          <g stroke="#FFFFFF" fill="#FF0000" id="img-d4e4b891-63">
            <use xlink:href="#img-d4e4b891-64" x="83.45" y="172.82"/>
          </g>
          <g stroke="#FFFFFF" fill="#FF0000" id="img-d4e4b891-65">
            <use xlink:href="#img-d4e4b891-66" x="80.98" y="175.53"/>
          </g>
          <g stroke="#FFFFFF" fill="#FF0000" id="img-d4e4b891-67">
            <use xlink:href="#img-d4e4b891-68" x="78.5" y="177.7"/>
          </g>
          <g stroke="#FFFFFF" fill="#FF0000" id="img-d4e4b891-69">
            <use xlink:href="#img-d4e4b891-70" x="76.02" y="179.36"/>
          </g>
          <g stroke="#FFFFFF" fill="#FF0000" id="img-d4e4b891-71">
            <use xlink:href="#img-d4e4b891-72" x="73.54" y="180.57"/>
          </g>
          <g stroke="#FFFFFF" fill="#FF0000" id="img-d4e4b891-73">
            <use xlink:href="#img-d4e4b891-74" x="71.07" y="181.4"/>
          </g>
          <g stroke="#FFFFFF" fill="#FF0000" id="img-d4e4b891-75">
            <use xlink:href="#img-d4e4b891-76" x="68.59" y="181.93"/>
          </g>
          <g stroke="#FFFFFF" fill="#FF0000" id="img-d4e4b891-77">
            <use xlink:href="#img-d4e4b891-78" x="66.11" y="182.24"/>
          </g>
          <g stroke="#FFFFFF" fill="#FF0000" id="img-d4e4b891-79">
            <use xlink:href="#img-d4e4b891-80" x="63.63" y="182.4"/>
          </g>
          <g stroke="#FFFFFF" fill="#FF0000" id="img-d4e4b891-81">
            <use xlink:href="#img-d4e4b891-82" x="61.15" y="182.47"/>
          </g>
          <g stroke="#FFFFFF" fill="#FF0000" id="img-d4e4b891-83">
            <use xlink:href="#img-d4e4b891-84" x="58.68" y="182.5"/>
          </g>
          <g stroke="#FFFFFF" fill="#FF0000" id="img-d4e4b891-85">
            <use xlink:href="#img-d4e4b891-86" x="56.2" y="182.51"/>
          </g>
          <g stroke="#FFFFFF" fill="#FF0000" id="img-d4e4b891-87">
            <use xlink:href="#img-d4e4b891-88" x="53.72" y="182.51"/>
          </g>
          <g stroke="#FFFFFF" fill="#FF0000" id="img-d4e4b891-89">
            <use xlink:href="#img-d4e4b891-90" x="51.24" y="182.51"/>
          </g>
          <g stroke="#FFFFFF" fill="#FF0000" id="img-d4e4b891-91">
            <use xlink:href="#img-d4e4b891-92" x="48.77" y="182.51"/>
          </g>
          <g stroke="#FFFFFF" fill="#FF0000" id="img-d4e4b891-93">
            <use xlink:href="#img-d4e4b891-94" x="46.29" y="182.51"/>
          </g>
          <g stroke="#FFFFFF" fill="#FF0000" id="img-d4e4b891-95">
            <use xlink:href="#img-d4e4b891-96" x="43.81" y="182.51"/>
          </g>
          <g stroke="#FFFFFF" fill="#FF0000" id="img-d4e4b891-97">
            <use xlink:href="#img-d4e4b891-98" x="41.33" y="182.51"/>
          </g>
          <g stroke="#FFFFFF" fill="#FF0000" id="img-d4e4b891-99">
            <use xlink:href="#img-d4e4b891-100" x="38.85" y="182.51"/>
          </g>
          <g stroke="#FFFFFF" fill="#FF0000" id="img-d4e4b891-101">
            <use xlink:href="#img-d4e4b891-102" x="36.38" y="182.51"/>
          </g>
          <g stroke="#FFFFFF" fill="#FF0000" id="img-d4e4b891-103">
            <use xlink:href="#img-d4e4b891-104" x="33.9" y="182.51"/>
          </g>
          <g stroke="#FFFFFF" fill="#FF0000" id="img-d4e4b891-105">
            <use xlink:href="#img-d4e4b891-106" x="31.42" y="182.51"/>
          </g>
          <g stroke="#FFFFFF" fill="#FF0000" id="img-d4e4b891-107">
            <use xlink:href="#img-d4e4b891-108" x="28.94" y="182.51"/>
          </g>
          <g stroke="#FFFFFF" fill="#FF0000" id="img-d4e4b891-109">
            <use xlink:href="#img-d4e4b891-110" x="26.47" y="182.51"/>
          </g>
          <g stroke="#FFFFFF" fill="#FF0000" id="img-d4e4b891-111">
            <use xlink:href="#img-d4e4b891-112" x="23.99" y="182.51"/>
          </g>
        </g>
      </g>
    </g>
  </g>
</g>
  <g class="guide ylabels" font-size="2.82" font-family="'PT Sans Caption','Helvetica Neue','Helvetica',sans-serif" fill="#6C606B" id="img-d4e4b891-113">
    <text x="18.51" y="182.51" text-anchor="end" dy="0.35em">0</text>
    <text x="18.51" y="165.24" text-anchor="end" dy="0.35em">100</text>
    <text x="18.51" y="147.96" text-anchor="end" dy="0.35em">200</text>
    <text x="18.51" y="130.68" text-anchor="end" dy="0.35em">300</text>
    <text x="18.51" y="113.41" text-anchor="end" dy="0.35em">400</text>
  </g>
  <g font-size="3.88" font-family="'PT Sans','Helvetica Neue','Helvetica',sans-serif" fill="#564A55" stroke="#000000" stroke-opacity="0.000" id="img-d4e4b891-114">
    <text x="8.83" y="145.96" text-anchor="middle" dy="0.35em" transform="rotate(-90, 8.83, 147.96)">Concentration [ppb]</text>
  </g>
  <g font-size="3.88" font-family="'PT Sans','Helvetica Neue','Helvetica',sans-serif" fill="#564A55" stroke="#000000" stroke-opacity="0.000" id="img-d4e4b891-115">
    <text x="83.45" y="106.6" text-anchor="middle" dy="0.6em">w20a</text>
  </g>
</g>
<g class="plotroot xscalable yscalable" id="img-d4e4b891-116">
  <g font-size="3.88" font-family="'PT Sans','Helvetica Neue','Helvetica',sans-serif" fill="#564A55" stroke="#000000" stroke-opacity="0.000" id="img-d4e4b891-117">
    <text x="84.22" y="89.96" text-anchor="middle" dy="0.6em">Time [a]</text>
  </g>
  <g class="guide xlabels" font-size="2.82" font-family="'PT Sans Caption','Helvetica Neue','Helvetica',sans-serif" fill="#6C606B" id="img-d4e4b891-118">
    <text x="23.04" y="83.91" text-anchor="middle" dy="0.6em">0</text>
    <text x="47.51" y="83.91" text-anchor="middle" dy="0.6em">10</text>
    <text x="71.98" y="83.91" text-anchor="middle" dy="0.6em">20</text>
    <text x="96.45" y="83.91" text-anchor="middle" dy="0.6em">30</text>
    <text x="120.93" y="83.91" text-anchor="middle" dy="0.6em">40</text>
    <text x="145.4" y="83.91" text-anchor="middle" dy="0.6em">50</text>
  </g>
<g clip-path="url(#img-d4e4b891-119)">
  <g id="img-d4e4b891-120">
    <g pointer-events="visible" opacity="1" fill="#000000" fill-opacity="0.000" stroke="#000000" stroke-opacity="0.000" class="guide background" id="img-d4e4b891-121">
      <rect x="21.04" y="9.81" width="126.36" height="73.1"/>
    </g>
    <g class="guide ygridlines xfixed" stroke-dasharray="0.5,0.5" stroke-width="0.2" stroke="#D0D0E0" id="img-d4e4b891-122">
      <path fill="none" d="M21.04,80.91 L 147.4 80.91"/>
      <path fill="none" d="M21.04,46.36 L 147.4 46.36"/>
      <path fill="none" d="M21.04,11.81 L 147.4 11.81"/>
    </g>
    <g class="guide xgridlines yfixed" stroke-dasharray="0.5,0.5" stroke-width="0.2" stroke="#D0D0E0" id="img-d4e4b891-123">
      <path fill="none" d="M23.04,9.81 L 23.04 82.91"/>
      <path fill="none" d="M47.51,9.81 L 47.51 82.91"/>
      <path fill="none" d="M71.98,9.81 L 71.98 82.91"/>
      <path fill="none" d="M96.45,9.81 L 96.45 82.91"/>
      <path fill="none" d="M120.93,9.81 L 120.93 82.91"/>
      <path fill="none" d="M145.4,9.81 L 145.4 82.91"/>
    </g>
    <g class="plotpanel" id="img-d4e4b891-124">
      <g stroke-width="0.71" fill="#000000" fill-opacity="0.000" class="geometry" stroke-dasharray="none" stroke="#0000FF" id="img-d4e4b891-125">
        <path fill="none" d="M25.48,80.91 L 27.93 80.91 30.38 80.91 32.83 80.91 35.27 80.91 37.72 80.91 40.17 80.91 42.61 80.91 45.06 80.85 47.51 80.56 49.96 79.79 52.4 78.3 54.85 75.96 57.3 72.74 59.75 68.71 62.19 64.02 64.64 58.81 67.09 53.27 69.53 47.54 71.98 41.78 74.43 36.2 76.88 31.11 79.32 26.83 81.77 23.61 84.22 21.57 86.67 20.7 89.11 20.92 91.56 22.06 94.01 23.96 96.45 26.43 98.9 29.31 101.35 32.46 103.8 35.74 106.24 39.07 108.69 42.37 111.14 45.58 113.59 48.65 116.03 51.57 118.48 54.3 120.93 56.85 123.37 59.2 125.82 61.37 128.27 63.35 130.72 65.16 133.16 66.81 135.61 68.29 138.06 69.64 140.51 70.85 142.95 71.94 145.4 72.92"/>
      </g>
      <g class="geometry" id="img-d4e4b891-126">
        <g class="color_RGBA{Float32}(1.0f0,0.0f0,0.0f0,1.0f0)" stroke-width="0.3" id="img-d4e4b891-127">
          <g stroke="#FFFFFF" fill="#FF0000" id="img-d4e4b891-128">
            <use xlink:href="#img-d4e4b891-129" x="145.4" y="73.32"/>
          </g>
          <g stroke="#FFFFFF" fill="#FF0000" id="img-d4e4b891-130">
            <use xlink:href="#img-d4e4b891-131" x="142.95" y="72.39"/>
          </g>
          <g stroke="#FFFFFF" fill="#FF0000" id="img-d4e4b891-132">
            <use xlink:href="#img-d4e4b891-133" x="140.51" y="71.36"/>
          </g>
          <g stroke="#FFFFFF" fill="#FF0000" id="img-d4e4b891-134">
            <use xlink:href="#img-d4e4b891-135" x="138.06" y="70.2"/>
          </g>
          <g stroke="#FFFFFF" fill="#FF0000" id="img-d4e4b891-136">
            <use xlink:href="#img-d4e4b891-137" x="135.61" y="68.92"/>
          </g>
          <g stroke="#FFFFFF" fill="#FF0000" id="img-d4e4b891-138">
            <use xlink:href="#img-d4e4b891-139" x="133.16" y="67.5"/>
          </g>
          <g stroke="#FFFFFF" fill="#FF0000" id="img-d4e4b891-140">
            <use xlink:href="#img-d4e4b891-141" x="130.72" y="65.92"/>
          </g>
          <g stroke="#FFFFFF" fill="#FF0000" id="img-d4e4b891-142">
            <use xlink:href="#img-d4e4b891-143" x="128.27" y="64.18"/>
          </g>
          <g stroke="#FFFFFF" fill="#FF0000" id="img-d4e4b891-144">
            <use xlink:href="#img-d4e4b891-145" x="125.82" y="62.25"/>
          </g>
          <g stroke="#FFFFFF" fill="#FF0000" id="img-d4e4b891-146">
            <use xlink:href="#img-d4e4b891-147" x="123.37" y="60.14"/>
          </g>
          <g stroke="#FFFFFF" fill="#FF0000" id="img-d4e4b891-148">
            <use xlink:href="#img-d4e4b891-149" x="120.93" y="57.84"/>
          </g>
          <g stroke="#FFFFFF" fill="#FF0000" id="img-d4e4b891-150">
            <use xlink:href="#img-d4e4b891-151" x="118.48" y="55.32"/>
          </g>
          <g stroke="#FFFFFF" fill="#FF0000" id="img-d4e4b891-152">
            <use xlink:href="#img-d4e4b891-153" x="116.03" y="52.6"/>
          </g>
          <g stroke="#FFFFFF" fill="#FF0000" id="img-d4e4b891-154">
            <use xlink:href="#img-d4e4b891-155" x="113.59" y="49.68"/>
          </g>
          <g stroke="#FFFFFF" fill="#FF0000" id="img-d4e4b891-156">
            <use xlink:href="#img-d4e4b891-157" x="111.14" y="46.55"/>
          </g>
          <g stroke="#FFFFFF" fill="#FF0000" id="img-d4e4b891-158">
            <use xlink:href="#img-d4e4b891-159" x="108.69" y="43.25"/>
          </g>
          <g stroke="#FFFFFF" fill="#FF0000" id="img-d4e4b891-160">
            <use xlink:href="#img-d4e4b891-161" x="106.24" y="39.8"/>
          </g>
          <g stroke="#FFFFFF" fill="#FF0000" id="img-d4e4b891-162">
            <use xlink:href="#img-d4e4b891-163" x="103.8" y="36.24"/>
          </g>
          <g stroke="#FFFFFF" fill="#FF0000" id="img-d4e4b891-164">
            <use xlink:href="#img-d4e4b891-165" x="101.35" y="32.65"/>
          </g>
          <g stroke="#FFFFFF" fill="#FF0000" id="img-d4e4b891-166">
            <use xlink:href="#img-d4e4b891-167" x="98.9" y="29.1"/>
          </g>
          <g stroke="#FFFFFF" fill="#FF0000" id="img-d4e4b891-168">
            <use xlink:href="#img-d4e4b891-169" x="96.45" y="25.72"/>
          </g>
          <g stroke="#FFFFFF" fill="#FF0000" id="img-d4e4b891-170">
            <use xlink:href="#img-d4e4b891-171" x="94.01" y="22.65"/>
          </g>
          <g stroke="#FFFFFF" fill="#FF0000" id="img-d4e4b891-172">
            <use xlink:href="#img-d4e4b891-173" x="91.56" y="20.06"/>
          </g>
          <g stroke="#FFFFFF" fill="#FF0000" id="img-d4e4b891-174">
            <use xlink:href="#img-d4e4b891-175" x="89.11" y="18.16"/>
          </g>
          <g stroke="#FFFFFF" fill="#FF0000" id="img-d4e4b891-176">
            <use xlink:href="#img-d4e4b891-177" x="86.67" y="17.16"/>
          </g>
          <g stroke="#FFFFFF" fill="#FF0000" id="img-d4e4b891-178">
            <use xlink:href="#img-d4e4b891-179" x="84.22" y="17.3"/>
          </g>
          <g stroke="#FFFFFF" fill="#FF0000" id="img-d4e4b891-180">
            <use xlink:href="#img-d4e4b891-181" x="81.77" y="18.76"/>
          </g>
          <g stroke="#FFFFFF" fill="#FF0000" id="img-d4e4b891-182">
            <use xlink:href="#img-d4e4b891-183" x="79.32" y="21.66"/>
          </g>
          <g stroke="#FFFFFF" fill="#FF0000" id="img-d4e4b891-184">
            <use xlink:href="#img-d4e4b891-185" x="76.88" y="25.98"/>
          </g>
          <g stroke="#FFFFFF" fill="#FF0000" id="img-d4e4b891-186">
            <use xlink:href="#img-d4e4b891-187" x="74.43" y="31.52"/>
          </g>
          <g stroke="#FFFFFF" fill="#FF0000" id="img-d4e4b891-188">
            <use xlink:href="#img-d4e4b891-189" x="71.98" y="37.93"/>
          </g>
          <g stroke="#FFFFFF" fill="#FF0000" id="img-d4e4b891-190">
            <use xlink:href="#img-d4e4b891-191" x="69.53" y="44.74"/>
          </g>
          <g stroke="#FFFFFF" fill="#FF0000" id="img-d4e4b891-192">
            <use xlink:href="#img-d4e4b891-193" x="67.09" y="51.55"/>
          </g>
          <g stroke="#FFFFFF" fill="#FF0000" id="img-d4e4b891-194">
            <use xlink:href="#img-d4e4b891-195" x="64.64" y="58.07"/>
          </g>
          <g stroke="#FFFFFF" fill="#FF0000" id="img-d4e4b891-196">
            <use xlink:href="#img-d4e4b891-197" x="62.19" y="64.07"/>
          </g>
          <g stroke="#FFFFFF" fill="#FF0000" id="img-d4e4b891-198">
            <use xlink:href="#img-d4e4b891-199" x="59.75" y="69.34"/>
          </g>
          <g stroke="#FFFFFF" fill="#FF0000" id="img-d4e4b891-200">
            <use xlink:href="#img-d4e4b891-201" x="57.3" y="73.67"/>
          </g>
          <g stroke="#FFFFFF" fill="#FF0000" id="img-d4e4b891-202">
            <use xlink:href="#img-d4e4b891-203" x="54.85" y="76.93"/>
          </g>
          <g stroke="#FFFFFF" fill="#FF0000" id="img-d4e4b891-204">
            <use xlink:href="#img-d4e4b891-205" x="52.4" y="79.09"/>
          </g>
          <g stroke="#FFFFFF" fill="#FF0000" id="img-d4e4b891-206">
            <use xlink:href="#img-d4e4b891-207" x="49.96" y="80.28"/>
          </g>
          <g stroke="#FFFFFF" fill="#FF0000" id="img-d4e4b891-208">
            <use xlink:href="#img-d4e4b891-209" x="47.51" y="80.77"/>
          </g>
          <g stroke="#FFFFFF" fill="#FF0000" id="img-d4e4b891-210">
            <use xlink:href="#img-d4e4b891-211" x="45.06" y="80.9"/>
          </g>
          <g stroke="#FFFFFF" fill="#FF0000" id="img-d4e4b891-212">
            <use xlink:href="#img-d4e4b891-213" x="42.61" y="80.91"/>
          </g>
          <g stroke="#FFFFFF" fill="#FF0000" id="img-d4e4b891-214">
            <use xlink:href="#img-d4e4b891-215" x="40.17" y="80.91"/>
          </g>
          <g stroke="#FFFFFF" fill="#FF0000" id="img-d4e4b891-216">
            <use xlink:href="#img-d4e4b891-217" x="37.72" y="80.91"/>
          </g>
          <g stroke="#FFFFFF" fill="#FF0000" id="img-d4e4b891-218">
            <use xlink:href="#img-d4e4b891-219" x="35.27" y="80.91"/>
          </g>
          <g stroke="#FFFFFF" fill="#FF0000" id="img-d4e4b891-220">
            <use xlink:href="#img-d4e4b891-221" x="32.83" y="80.91"/>
          </g>
          <g stroke="#FFFFFF" fill="#FF0000" id="img-d4e4b891-222">
            <use xlink:href="#img-d4e4b891-223" x="30.38" y="80.91"/>
          </g>
          <g stroke="#FFFFFF" fill="#FF0000" id="img-d4e4b891-224">
            <use xlink:href="#img-d4e4b891-225" x="27.93" y="80.91"/>
          </g>
          <g stroke="#FFFFFF" fill="#FF0000" id="img-d4e4b891-226">
            <use xlink:href="#img-d4e4b891-227" x="25.48" y="80.91"/>
          </g>
        </g>
      </g>
    </g>
  </g>
</g>
  <g class="guide ylabels" font-size="2.82" font-family="'PT Sans Caption','Helvetica Neue','Helvetica',sans-serif" fill="#6C606B" id="img-d4e4b891-228">
    <text x="20.04" y="80.91" text-anchor="end" dy="0.35em">0</text>
    <text x="20.04" y="46.36" text-anchor="end" dy="0.35em">500</text>
    <text x="20.04" y="11.81" text-anchor="end" dy="0.35em">1000</text>
  </g>
  <g font-size="3.88" font-family="'PT Sans','Helvetica Neue','Helvetica',sans-serif" fill="#564A55" stroke="#000000" stroke-opacity="0.000" id="img-d4e4b891-229">
    <text x="8.83" y="44.36" text-anchor="middle" dy="0.35em" transform="rotate(-90, 8.83, 46.36)">Concentration [ppb]</text>
  </g>
  <g font-size="3.88" font-family="'PT Sans','Helvetica Neue','Helvetica',sans-serif" fill="#564A55" stroke="#000000" stroke-opacity="0.000" id="img-d4e4b891-230">
    <text x="84.22" y="5" text-anchor="middle" dy="0.6em">w13a</text>
  </g>
</g>
<defs>
  <clipPath id="img-d4e4b891-4">
  <path d="M19.51,111.41 L 147.4 111.41 147.4 184.51 19.51 184.51" />
</clipPath>
  <clipPath id="img-d4e4b891-119">
  <path d="M21.04,9.81 L 147.4 9.81 147.4 82.91 21.04 82.91" />
</clipPath>
  <g id="img-d4e4b891-14">
    <circle cx="0" cy="0" r="1.41"/>
  </g>
  <g id="img-d4e4b891-16">
    <circle cx="0" cy="0" r="1.41"/>
  </g>
  <g id="img-d4e4b891-18">
    <circle cx="0" cy="0" r="1.41"/>
  </g>
  <g id="img-d4e4b891-20">
    <circle cx="0" cy="0" r="1.41"/>
  </g>
  <g id="img-d4e4b891-22">
    <circle cx="0" cy="0" r="1.41"/>
  </g>
  <g id="img-d4e4b891-24">
    <circle cx="0" cy="0" r="1.41"/>
  </g>
  <g id="img-d4e4b891-26">
    <circle cx="0" cy="0" r="1.41"/>
  </g>
  <g id="img-d4e4b891-28">
    <circle cx="0" cy="0" r="1.41"/>
  </g>
  <g id="img-d4e4b891-30">
    <circle cx="0" cy="0" r="1.41"/>
  </g>
  <g id="img-d4e4b891-32">
    <circle cx="0" cy="0" r="1.41"/>
  </g>
  <g id="img-d4e4b891-34">
    <circle cx="0" cy="0" r="1.41"/>
  </g>
  <g id="img-d4e4b891-36">
    <circle cx="0" cy="0" r="1.41"/>
  </g>
  <g id="img-d4e4b891-38">
    <circle cx="0" cy="0" r="1.41"/>
  </g>
  <g id="img-d4e4b891-40">
    <circle cx="0" cy="0" r="1.41"/>
  </g>
  <g id="img-d4e4b891-42">
    <circle cx="0" cy="0" r="1.41"/>
  </g>
  <g id="img-d4e4b891-44">
    <circle cx="0" cy="0" r="1.41"/>
  </g>
  <g id="img-d4e4b891-46">
    <circle cx="0" cy="0" r="1.41"/>
  </g>
  <g id="img-d4e4b891-48">
    <circle cx="0" cy="0" r="1.41"/>
  </g>
  <g id="img-d4e4b891-50">
    <circle cx="0" cy="0" r="1.41"/>
  </g>
  <g id="img-d4e4b891-52">
    <circle cx="0" cy="0" r="1.41"/>
  </g>
  <g id="img-d4e4b891-54">
    <circle cx="0" cy="0" r="1.41"/>
  </g>
  <g id="img-d4e4b891-56">
    <circle cx="0" cy="0" r="1.41"/>
  </g>
  <g id="img-d4e4b891-58">
    <circle cx="0" cy="0" r="1.41"/>
  </g>
  <g id="img-d4e4b891-60">
    <circle cx="0" cy="0" r="1.41"/>
  </g>
  <g id="img-d4e4b891-62">
    <circle cx="0" cy="0" r="1.41"/>
  </g>
  <g id="img-d4e4b891-64">
    <circle cx="0" cy="0" r="1.41"/>
  </g>
  <g id="img-d4e4b891-66">
    <circle cx="0" cy="0" r="1.41"/>
  </g>
  <g id="img-d4e4b891-68">
    <circle cx="0" cy="0" r="1.41"/>
  </g>
  <g id="img-d4e4b891-70">
    <circle cx="0" cy="0" r="1.41"/>
  </g>
  <g id="img-d4e4b891-72">
    <circle cx="0" cy="0" r="1.41"/>
  </g>
  <g id="img-d4e4b891-74">
    <circle cx="0" cy="0" r="1.41"/>
  </g>
  <g id="img-d4e4b891-76">
    <circle cx="0" cy="0" r="1.41"/>
  </g>
  <g id="img-d4e4b891-78">
    <circle cx="0" cy="0" r="1.41"/>
  </g>
  <g id="img-d4e4b891-80">
    <circle cx="0" cy="0" r="1.41"/>
  </g>
  <g id="img-d4e4b891-82">
    <circle cx="0" cy="0" r="1.41"/>
  </g>
  <g id="img-d4e4b891-84">
    <circle cx="0" cy="0" r="1.41"/>
  </g>
  <g id="img-d4e4b891-86">
    <circle cx="0" cy="0" r="1.41"/>
  </g>
  <g id="img-d4e4b891-88">
    <circle cx="0" cy="0" r="1.41"/>
  </g>
  <g id="img-d4e4b891-90">
    <circle cx="0" cy="0" r="1.41"/>
  </g>
  <g id="img-d4e4b891-92">
    <circle cx="0" cy="0" r="1.41"/>
  </g>
  <g id="img-d4e4b891-94">
    <circle cx="0" cy="0" r="1.41"/>
  </g>
  <g id="img-d4e4b891-96">
    <circle cx="0" cy="0" r="1.41"/>
  </g>
  <g id="img-d4e4b891-98">
    <circle cx="0" cy="0" r="1.41"/>
  </g>
  <g id="img-d4e4b891-100">
    <circle cx="0" cy="0" r="1.41"/>
  </g>
  <g id="img-d4e4b891-102">
    <circle cx="0" cy="0" r="1.41"/>
  </g>
  <g id="img-d4e4b891-104">
    <circle cx="0" cy="0" r="1.41"/>
  </g>
  <g id="img-d4e4b891-106">
    <circle cx="0" cy="0" r="1.41"/>
  </g>
  <g id="img-d4e4b891-108">
    <circle cx="0" cy="0" r="1.41"/>
  </g>
  <g id="img-d4e4b891-110">
    <circle cx="0" cy="0" r="1.41"/>
  </g>
  <g id="img-d4e4b891-112">
    <circle cx="0" cy="0" r="1.41"/>
  </g>
  <g id="img-d4e4b891-129">
    <circle cx="0" cy="0" r="1.41"/>
  </g>
  <g id="img-d4e4b891-131">
    <circle cx="0" cy="0" r="1.41"/>
  </g>
  <g id="img-d4e4b891-133">
    <circle cx="0" cy="0" r="1.41"/>
  </g>
  <g id="img-d4e4b891-135">
    <circle cx="0" cy="0" r="1.41"/>
  </g>
  <g id="img-d4e4b891-137">
    <circle cx="0" cy="0" r="1.41"/>
  </g>
  <g id="img-d4e4b891-139">
    <circle cx="0" cy="0" r="1.41"/>
  </g>
  <g id="img-d4e4b891-141">
    <circle cx="0" cy="0" r="1.41"/>
  </g>
  <g id="img-d4e4b891-143">
    <circle cx="0" cy="0" r="1.41"/>
  </g>
  <g id="img-d4e4b891-145">
    <circle cx="0" cy="0" r="1.41"/>
  </g>
  <g id="img-d4e4b891-147">
    <circle cx="0" cy="0" r="1.41"/>
  </g>
  <g id="img-d4e4b891-149">
    <circle cx="0" cy="0" r="1.41"/>
  </g>
  <g id="img-d4e4b891-151">
    <circle cx="0" cy="0" r="1.41"/>
  </g>
  <g id="img-d4e4b891-153">
    <circle cx="0" cy="0" r="1.41"/>
  </g>
  <g id="img-d4e4b891-155">
    <circle cx="0" cy="0" r="1.41"/>
  </g>
  <g id="img-d4e4b891-157">
    <circle cx="0" cy="0" r="1.41"/>
  </g>
  <g id="img-d4e4b891-159">
    <circle cx="0" cy="0" r="1.41"/>
  </g>
  <g id="img-d4e4b891-161">
    <circle cx="0" cy="0" r="1.41"/>
  </g>
  <g id="img-d4e4b891-163">
    <circle cx="0" cy="0" r="1.41"/>
  </g>
  <g id="img-d4e4b891-165">
    <circle cx="0" cy="0" r="1.41"/>
  </g>
  <g id="img-d4e4b891-167">
    <circle cx="0" cy="0" r="1.41"/>
  </g>
  <g id="img-d4e4b891-169">
    <circle cx="0" cy="0" r="1.41"/>
  </g>
  <g id="img-d4e4b891-171">
    <circle cx="0" cy="0" r="1.41"/>
  </g>
  <g id="img-d4e4b891-173">
    <circle cx="0" cy="0" r="1.41"/>
  </g>
  <g id="img-d4e4b891-175">
    <circle cx="0" cy="0" r="1.41"/>
  </g>
  <g id="img-d4e4b891-177">
    <circle cx="0" cy="0" r="1.41"/>
  </g>
  <g id="img-d4e4b891-179">
    <circle cx="0" cy="0" r="1.41"/>
  </g>
  <g id="img-d4e4b891-181">
    <circle cx="0" cy="0" r="1.41"/>
  </g>
  <g id="img-d4e4b891-183">
    <circle cx="0" cy="0" r="1.41"/>
  </g>
  <g id="img-d4e4b891-185">
    <circle cx="0" cy="0" r="1.41"/>
  </g>
  <g id="img-d4e4b891-187">
    <circle cx="0" cy="0" r="1.41"/>
  </g>
  <g id="img-d4e4b891-189">
    <circle cx="0" cy="0" r="1.41"/>
  </g>
  <g id="img-d4e4b891-191">
    <circle cx="0" cy="0" r="1.41"/>
  </g>
  <g id="img-d4e4b891-193">
    <circle cx="0" cy="0" r="1.41"/>
  </g>
  <g id="img-d4e4b891-195">
    <circle cx="0" cy="0" r="1.41"/>
  </g>
  <g id="img-d4e4b891-197">
    <circle cx="0" cy="0" r="1.41"/>
  </g>
  <g id="img-d4e4b891-199">
    <circle cx="0" cy="0" r="1.41"/>
  </g>
  <g id="img-d4e4b891-201">
    <circle cx="0" cy="0" r="1.41"/>
  </g>
  <g id="img-d4e4b891-203">
    <circle cx="0" cy="0" r="1.41"/>
  </g>
  <g id="img-d4e4b891-205">
    <circle cx="0" cy="0" r="1.41"/>
  </g>
  <g id="img-d4e4b891-207">
    <circle cx="0" cy="0" r="1.41"/>
  </g>
  <g id="img-d4e4b891-209">
    <circle cx="0" cy="0" r="1.41"/>
  </g>
  <g id="img-d4e4b891-211">
    <circle cx="0" cy="0" r="1.41"/>
  </g>
  <g id="img-d4e4b891-213">
    <circle cx="0" cy="0" r="1.41"/>
  </g>
  <g id="img-d4e4b891-215">
    <circle cx="0" cy="0" r="1.41"/>
  </g>
  <g id="img-d4e4b891-217">
    <circle cx="0" cy="0" r="1.41"/>
  </g>
  <g id="img-d4e4b891-219">
    <circle cx="0" cy="0" r="1.41"/>
  </g>
  <g id="img-d4e4b891-221">
    <circle cx="0" cy="0" r="1.41"/>
  </g>
  <g id="img-d4e4b891-223">
    <circle cx="0" cy="0" r="1.41"/>
  </g>
  <g id="img-d4e4b891-225">
    <circle cx="0" cy="0" r="1.41"/>
  </g>
  <g id="img-d4e4b891-227">
    <circle cx="0" cy="0" r="1.41"/>
  </g>
</defs>
</svg>
