<?xml version="1.0" encoding="UTF-8"?>
<svg xmlns="http://www.w3.org/2000/svg"
     xmlns:xlink="http://www.w3.org/1999/xlink"
     xmlns:gadfly="http://www.gadflyjl.org/ns"
     version="1.2"
     width="152.4mm" height="203.2mm" viewBox="0 0 152.4 203.2"
     stroke="none"
     fill="#000000"
     stroke-width="0.3"
     font-size="3.88"
>
<g class="plotroot xscalable yscalable" id="img-7b288d7e-1">
  <g font-size="3.88" font-family="'PT Sans','Helvetica Neue','Helvetica',sans-serif" fill="#564A55" stroke="#000000" stroke-opacity="0.000" id="img-7b288d7e-2">
    <text x="83.52" y="191.59" text-anchor="middle" dy="0.6em">Time [a]</text>
  </g>
  <g class="guide xlabels" font-size="2.82" font-family="'PT Sans Caption','Helvetica Neue','Helvetica',sans-serif" fill="#6C606B" id="img-7b288d7e-3">
    <text x="21.63" y="184.92" text-anchor="middle" dy="0.6em">0</text>
    <text x="46.39" y="184.92" text-anchor="middle" dy="0.6em">10</text>
    <text x="71.14" y="184.92" text-anchor="middle" dy="0.6em">20</text>
    <text x="95.89" y="184.92" text-anchor="middle" dy="0.6em">30</text>
    <text x="120.65" y="184.92" text-anchor="middle" dy="0.6em">40</text>
    <text x="145.4" y="184.92" text-anchor="middle" dy="0.6em">50</text>
  </g>
<g clip-path="url(#img-7b288d7e-4)">
  <g id="img-7b288d7e-5">
    <g pointer-events="visible" opacity="1" fill="#000000" fill-opacity="0.000" stroke="#000000" stroke-opacity="0.000" class="guide background" id="img-7b288d7e-6">
      <rect x="19.63" y="112.21" width="127.77" height="71.7"/>
    </g>
    <g class="guide ygridlines xfixed" stroke-dasharray="0.5,0.5" stroke-width="0.2" stroke="#D0D0E0" id="img-7b288d7e-7">
      <path fill="none" d="M19.63,181.92 L 147.4 181.92"/>
      <path fill="none" d="M19.63,164.99 L 147.4 164.99"/>
      <path fill="none" d="M19.63,148.06 L 147.4 148.06"/>
      <path fill="none" d="M19.63,131.14 L 147.4 131.14"/>
      <path fill="none" d="M19.63,114.21 L 147.4 114.21"/>
    </g>
    <g class="guide xgridlines yfixed" stroke-dasharray="0.5,0.5" stroke-width="0.2" stroke="#D0D0E0" id="img-7b288d7e-8">
      <path fill="none" d="M21.63,112.21 L 21.63 183.92"/>
      <path fill="none" d="M46.39,112.21 L 46.39 183.92"/>
      <path fill="none" d="M71.14,112.21 L 71.14 183.92"/>
      <path fill="none" d="M95.89,112.21 L 95.89 183.92"/>
      <path fill="none" d="M120.65,112.21 L 120.65 183.92"/>
      <path fill="none" d="M145.4,112.21 L 145.4 183.92"/>
    </g>
    <g class="plotpanel" id="img-7b288d7e-9">
      <g class="geometry" id="img-7b288d7e-10">
        <g class="color_RGBA{Float32}(1.0f0,0.0f0,0.0f0,1.0f0)" stroke="#FFFFFF" stroke-width="0.3" fill="#FF0000" id="img-7b288d7e-11">
          <use xlink:href="#img-7b288d7e-12" x="24.11" y="181.92"/>
          <use xlink:href="#img-7b288d7e-12" x="26.58" y="181.92"/>
          <use xlink:href="#img-7b288d7e-12" x="29.06" y="181.92"/>
          <use xlink:href="#img-7b288d7e-12" x="31.53" y="181.92"/>
          <use xlink:href="#img-7b288d7e-12" x="34.01" y="181.92"/>
          <use xlink:href="#img-7b288d7e-12" x="36.48" y="181.92"/>
          <use xlink:href="#img-7b288d7e-12" x="38.96" y="181.92"/>
          <use xlink:href="#img-7b288d7e-12" x="41.43" y="181.92"/>
          <use xlink:href="#img-7b288d7e-12" x="43.91" y="181.91"/>
          <use xlink:href="#img-7b288d7e-12" x="46.39" y="181.91"/>
          <use xlink:href="#img-7b288d7e-12" x="48.86" y="181.91"/>
          <use xlink:href="#img-7b288d7e-12" x="51.34" y="181.91"/>
          <use xlink:href="#img-7b288d7e-12" x="53.81" y="181.91"/>
          <use xlink:href="#img-7b288d7e-12" x="56.29" y="181.91"/>
          <use xlink:href="#img-7b288d7e-12" x="58.76" y="181.9"/>
          <use xlink:href="#img-7b288d7e-12" x="61.24" y="181.88"/>
          <use xlink:href="#img-7b288d7e-12" x="63.71" y="181.81"/>
          <use xlink:href="#img-7b288d7e-12" x="66.19" y="181.65"/>
          <use xlink:href="#img-7b288d7e-12" x="68.66" y="181.35"/>
          <use xlink:href="#img-7b288d7e-12" x="71.14" y="180.83"/>
          <use xlink:href="#img-7b288d7e-12" x="73.61" y="180.01"/>
          <use xlink:href="#img-7b288d7e-12" x="76.09" y="178.83"/>
          <use xlink:href="#img-7b288d7e-12" x="78.57" y="177.2"/>
          <use xlink:href="#img-7b288d7e-12" x="81.04" y="175.07"/>
          <use xlink:href="#img-7b288d7e-12" x="83.52" y="172.42"/>
          <use xlink:href="#img-7b288d7e-12" x="85.99" y="169.24"/>
          <use xlink:href="#img-7b288d7e-12" x="88.47" y="165.55"/>
          <use xlink:href="#img-7b288d7e-12" x="90.94" y="161.43"/>
          <use xlink:href="#img-7b288d7e-12" x="93.42" y="156.96"/>
          <use xlink:href="#img-7b288d7e-12" x="95.89" y="152.27"/>
          <use xlink:href="#img-7b288d7e-12" x="98.37" y="147.5"/>
          <use xlink:href="#img-7b288d7e-12" x="100.84" y="142.79"/>
          <use xlink:href="#img-7b288d7e-12" x="103.32" y="138.27"/>
          <use xlink:href="#img-7b288d7e-12" x="105.79" y="134.07"/>
          <use xlink:href="#img-7b288d7e-12" x="108.27" y="130.3"/>
          <use xlink:href="#img-7b288d7e-12" x="110.74" y="127.03"/>
          <use xlink:href="#img-7b288d7e-12" x="113.22" y="124.32"/>
          <use xlink:href="#img-7b288d7e-12" x="115.7" y="122.19"/>
          <use xlink:href="#img-7b288d7e-12" x="118.17" y="120.65"/>
          <use xlink:href="#img-7b288d7e-12" x="120.65" y="119.69"/>
          <use xlink:href="#img-7b288d7e-12" x="123.12" y="119.29"/>
          <use xlink:href="#img-7b288d7e-12" x="125.6" y="119.4"/>
          <use xlink:href="#img-7b288d7e-12" x="128.07" y="119.99"/>
          <use xlink:href="#img-7b288d7e-12" x="130.55" y="120.98"/>
          <use xlink:href="#img-7b288d7e-12" x="133.02" y="122.34"/>
          <use xlink:href="#img-7b288d7e-12" x="135.5" y="124"/>
          <use xlink:href="#img-7b288d7e-12" x="137.97" y="125.92"/>
          <use xlink:href="#img-7b288d7e-12" x="140.45" y="128.04"/>
          <use xlink:href="#img-7b288d7e-12" x="142.92" y="130.31"/>
          <use xlink:href="#img-7b288d7e-12" x="145.4" y="132.69"/>
        </g>
      </g>
      <g stroke-width="1.06" fill="#000000" fill-opacity="0.000" class="geometry" stroke-dasharray="none" stroke="#0000FF" id="img-7b288d7e-13">
        <path fill="none" d="M24.11,181.92 L 26.58 181.92 29.06 181.92 31.53 181.92 34.01 181.92 36.48 181.92 38.96 181.92 41.43 181.91 43.91 181.91 46.39 181.91 48.86 181.91 51.34 181.91 53.81 181.91 56.29 181.91 58.76 181.89 61.24 181.83 63.71 181.7 66.19 181.46 68.66 181.02 71.14 180.34 73.61 179.33 76.09 177.93 78.57 176.09 81.04 173.77 83.52 170.96 85.99 167.66 88.47 163.9 90.94 159.75 93.42 155.28 95.89 150.6 98.37 145.85 100.84 141.14 103.32 136.62 105.79 132.4 108.27 128.59 110.74 125.27 113.22 122.49 115.7 120.29 118.17 118.69 120.65 117.68 123.12 117.24 125.6 117.32 128.07 117.89 130.55 118.9 133.02 120.28 135.5 121.99 137.97 123.96 140.45 126.15 142.92 128.51 145.4 130.98"/>
      </g>
    </g>
  </g>
</g>
  <g class="guide ylabels" font-size="2.82" font-family="'PT Sans Caption','Helvetica Neue','Helvetica',sans-serif" fill="#6C606B" id="img-7b288d7e-14">
    <text x="18.63" y="181.92" text-anchor="end" dy="0.35em">0</text>
    <text x="18.63" y="164.99" text-anchor="end" dy="0.35em">100</text>
    <text x="18.63" y="148.06" text-anchor="end" dy="0.35em">200</text>
    <text x="18.63" y="131.14" text-anchor="end" dy="0.35em">300</text>
    <text x="18.63" y="114.21" text-anchor="end" dy="0.35em">400</text>
  </g>
  <g font-size="3.88" font-family="'PT Sans','Helvetica Neue','Helvetica',sans-serif" fill="#564A55" stroke="#000000" stroke-opacity="0.000" id="img-7b288d7e-15">
    <text x="8.81" y="146.06" text-anchor="middle" dy="0.35em" transform="rotate(-90, 8.81, 148.06)">Concentration [ppb]</text>
  </g>
  <g font-size="3.88" font-family="'PT Sans','Helvetica Neue','Helvetica',sans-serif" fill="#564A55" stroke="#000000" stroke-opacity="0.000" id="img-7b288d7e-16">
    <text x="83.52" y="106.6" text-anchor="middle" dy="0.6em">w20a</text>
  </g>
</g>
<g class="plotroot xscalable yscalable" id="img-7b288d7e-17">
  <g font-size="3.88" font-family="'PT Sans','Helvetica Neue','Helvetica',sans-serif" fill="#564A55" stroke="#000000" stroke-opacity="0.000" id="img-7b288d7e-18">
    <text x="84.35" y="89.99" text-anchor="middle" dy="0.6em">Time [a]</text>
  </g>
  <g class="guide xlabels" font-size="2.82" font-family="'PT Sans Caption','Helvetica Neue','Helvetica',sans-serif" fill="#6C606B" id="img-7b288d7e-19">
    <text x="23.3" y="83.32" text-anchor="middle" dy="0.6em">0</text>
    <text x="47.72" y="83.32" text-anchor="middle" dy="0.6em">10</text>
    <text x="72.14" y="83.32" text-anchor="middle" dy="0.6em">20</text>
    <text x="96.56" y="83.32" text-anchor="middle" dy="0.6em">30</text>
    <text x="120.98" y="83.32" text-anchor="middle" dy="0.6em">40</text>
    <text x="145.4" y="83.32" text-anchor="middle" dy="0.6em">50</text>
  </g>
<g clip-path="url(#img-7b288d7e-20)">
  <g id="img-7b288d7e-21">
    <g pointer-events="visible" opacity="1" fill="#000000" fill-opacity="0.000" stroke="#000000" stroke-opacity="0.000" class="guide background" id="img-7b288d7e-22">
      <rect x="21.3" y="10.61" width="126.09" height="71.7"/>
    </g>
    <g class="guide ygridlines xfixed" stroke-dasharray="0.5,0.5" stroke-width="0.2" stroke="#D0D0E0" id="img-7b288d7e-23">
      <path fill="none" d="M21.3,80.32 L 147.4 80.32"/>
      <path fill="none" d="M21.3,46.46 L 147.4 46.46"/>
      <path fill="none" d="M21.3,12.61 L 147.4 12.61"/>
    </g>
    <g class="guide xgridlines yfixed" stroke-dasharray="0.5,0.5" stroke-width="0.2" stroke="#D0D0E0" id="img-7b288d7e-24">
      <path fill="none" d="M23.3,10.61 L 23.3 82.32"/>
      <path fill="none" d="M47.72,10.61 L 47.72 82.32"/>
      <path fill="none" d="M72.14,10.61 L 72.14 82.32"/>
      <path fill="none" d="M96.56,10.61 L 96.56 82.32"/>
      <path fill="none" d="M120.98,10.61 L 120.98 82.32"/>
      <path fill="none" d="M145.4,10.61 L 145.4 82.32"/>
    </g>
    <g class="plotpanel" id="img-7b288d7e-25">
      <g class="geometry" id="img-7b288d7e-26">
        <g class="color_RGBA{Float32}(1.0f0,0.0f0,0.0f0,1.0f0)" stroke="#FFFFFF" stroke-width="0.3" fill="#FF0000" id="img-7b288d7e-27">
          <use xlink:href="#img-7b288d7e-28" x="25.75" y="80.32"/>
          <use xlink:href="#img-7b288d7e-28" x="28.19" y="80.32"/>
          <use xlink:href="#img-7b288d7e-28" x="30.63" y="80.32"/>
          <use xlink:href="#img-7b288d7e-28" x="33.07" y="80.32"/>
          <use xlink:href="#img-7b288d7e-28" x="35.51" y="80.32"/>
          <use xlink:href="#img-7b288d7e-28" x="37.96" y="80.32"/>
          <use xlink:href="#img-7b288d7e-28" x="40.4" y="80.31"/>
          <use xlink:href="#img-7b288d7e-28" x="42.84" y="80.31"/>
          <use xlink:href="#img-7b288d7e-28" x="45.28" y="80.3"/>
          <use xlink:href="#img-7b288d7e-28" x="47.72" y="80.18"/>
          <use xlink:href="#img-7b288d7e-28" x="50.17" y="79.7"/>
          <use xlink:href="#img-7b288d7e-28" x="52.61" y="78.53"/>
          <use xlink:href="#img-7b288d7e-28" x="55.05" y="76.42"/>
          <use xlink:href="#img-7b288d7e-28" x="57.49" y="73.22"/>
          <use xlink:href="#img-7b288d7e-28" x="59.93" y="68.98"/>
          <use xlink:href="#img-7b288d7e-28" x="62.38" y="63.82"/>
          <use xlink:href="#img-7b288d7e-28" x="64.82" y="57.93"/>
          <use xlink:href="#img-7b288d7e-28" x="67.26" y="51.55"/>
          <use xlink:href="#img-7b288d7e-28" x="69.7" y="44.88"/>
          <use xlink:href="#img-7b288d7e-28" x="72.14" y="38.2"/>
          <use xlink:href="#img-7b288d7e-28" x="74.58" y="31.93"/>
          <use xlink:href="#img-7b288d7e-28" x="77.03" y="26.49"/>
          <use xlink:href="#img-7b288d7e-28" x="79.47" y="22.26"/>
          <use xlink:href="#img-7b288d7e-28" x="81.91" y="19.43"/>
          <use xlink:href="#img-7b288d7e-28" x="84.35" y="17.99"/>
          <use xlink:href="#img-7b288d7e-28" x="86.79" y="17.86"/>
          <use xlink:href="#img-7b288d7e-28" x="89.24" y="18.83"/>
          <use xlink:href="#img-7b288d7e-28" x="91.68" y="20.69"/>
          <use xlink:href="#img-7b288d7e-28" x="94.12" y="23.23"/>
          <use xlink:href="#img-7b288d7e-28" x="96.56" y="26.24"/>
          <use xlink:href="#img-7b288d7e-28" x="99" y="29.55"/>
          <use xlink:href="#img-7b288d7e-28" x="101.45" y="33.03"/>
          <use xlink:href="#img-7b288d7e-28" x="103.89" y="36.55"/>
          <use xlink:href="#img-7b288d7e-28" x="106.33" y="40.03"/>
          <use xlink:href="#img-7b288d7e-28" x="108.77" y="43.41"/>
          <use xlink:href="#img-7b288d7e-28" x="111.21" y="46.65"/>
          <use xlink:href="#img-7b288d7e-28" x="113.66" y="49.71"/>
          <use xlink:href="#img-7b288d7e-28" x="116.1" y="52.58"/>
          <use xlink:href="#img-7b288d7e-28" x="118.54" y="55.25"/>
          <use xlink:href="#img-7b288d7e-28" x="120.98" y="57.71"/>
          <use xlink:href="#img-7b288d7e-28" x="123.42" y="59.97"/>
          <use xlink:href="#img-7b288d7e-28" x="125.86" y="62.04"/>
          <use xlink:href="#img-7b288d7e-28" x="128.31" y="63.92"/>
          <use xlink:href="#img-7b288d7e-28" x="130.75" y="65.63"/>
          <use xlink:href="#img-7b288d7e-28" x="133.19" y="67.17"/>
          <use xlink:href="#img-7b288d7e-28" x="135.63" y="68.57"/>
          <use xlink:href="#img-7b288d7e-28" x="138.07" y="69.83"/>
          <use xlink:href="#img-7b288d7e-28" x="140.52" y="70.96"/>
          <use xlink:href="#img-7b288d7e-28" x="142.96" y="71.97"/>
          <use xlink:href="#img-7b288d7e-28" x="145.4" y="72.88"/>
        </g>
      </g>
      <g stroke-width="1.06" fill="#000000" fill-opacity="0.000" class="geometry" stroke-dasharray="none" stroke="#0000FF" id="img-7b288d7e-29">
        <path fill="none" d="M25.75,80.32 L 28.19 80.32 30.63 80.32 33.07 80.32 35.51 80.32 37.96 80.31 40.4 80.31 42.84 80.31 45.28 80.25 47.72 79.97 50.17 79.22 52.61 77.76 55.05 75.46 57.49 72.31 59.93 68.36 62.38 63.76 64.82 58.66 67.26 53.23 69.7 47.62 72.14 41.98 74.58 36.51 77.03 31.52 79.47 27.33 81.91 24.17 84.35 22.17 86.79 21.32 89.24 21.54 91.68 22.66 94.12 24.51 96.56 26.94 99 29.76 101.45 32.84 103.89 36.06 106.33 39.32 108.77 42.56 111.21 45.7 113.66 48.71 116.1 51.56 118.54 54.24 120.98 56.74 123.42 59.04 125.86 61.17 128.31 63.11 130.75 64.88 133.19 66.49 135.63 67.95 138.07 69.27 140.52 70.46 142.96 71.53 145.4 72.49"/>
      </g>
    </g>
  </g>
</g>
  <g class="guide ylabels" font-size="2.82" font-family="'PT Sans Caption','Helvetica Neue','Helvetica',sans-serif" fill="#6C606B" id="img-7b288d7e-30">
    <text x="20.3" y="80.32" text-anchor="end" dy="0.35em">0</text>
    <text x="20.3" y="46.46" text-anchor="end" dy="0.35em">500</text>
    <text x="20.3" y="12.61" text-anchor="end" dy="0.35em">1000</text>
  </g>
  <g font-size="3.88" font-family="'PT Sans','Helvetica Neue','Helvetica',sans-serif" fill="#564A55" stroke="#000000" stroke-opacity="0.000" id="img-7b288d7e-31">
    <text x="8.81" y="44.46" text-anchor="middle" dy="0.35em" transform="rotate(-90, 8.81, 46.46)">Concentration [ppb]</text>
  </g>
  <g font-size="3.88" font-family="'PT Sans','Helvetica Neue','Helvetica',sans-serif" fill="#564A55" stroke="#000000" stroke-opacity="0.000" id="img-7b288d7e-32">
    <text x="84.35" y="5" text-anchor="middle" dy="0.6em">w13a</text>
  </g>
</g>
<defs>
  <clipPath id="img-7b288d7e-20">
  <path d="M21.3,10.61 L 147.4 10.61 147.4 82.32 21.3 82.32" />
</clipPath>
  <clipPath id="img-7b288d7e-4">
  <path d="M19.63,112.21 L 147.4 112.21 147.4 183.92 19.63 183.92" />
</clipPath>
  <g id="img-7b288d7e-12">
    <circle cx="0" cy="0" r="1.41"/>
  </g>
  <g id="img-7b288d7e-28">
    <circle cx="0" cy="0" r="1.41"/>
  </g>
</defs>
</svg>
