<?xml version="1.0" encoding="UTF-8"?>
<svg xmlns="http://www.w3.org/2000/svg"
     xmlns:xlink="http://www.w3.org/1999/xlink"
     xmlns:gadfly="http://www.gadflyjl.org/ns"
     version="1.2"
     width="152.4mm" height="203.2mm" viewBox="0 0 152.4 203.2"
     stroke="none"
     fill="#000000"
     stroke-width="0.3"
     font-size="3.88"
>
<g class="plotroot xscalable yscalable" id="img-98b6a0ec-1">
  <g font-size="3.88" font-family="'PT Sans','Helvetica Neue','Helvetica',sans-serif" fill="#564A55" stroke="#000000" stroke-opacity="0.000" id="img-98b6a0ec-2">
    <text x="82.61" y="191.59" text-anchor="middle" dy="0.6em">x</text>
  </g>
  <g class="guide xlabels" font-size="2.82" font-family="'PT Sans Caption','Helvetica Neue','Helvetica',sans-serif" fill="#6C606B" id="img-98b6a0ec-3">
    <text x="19.83" y="184.92" text-anchor="middle" dy="0.6em">0</text>
    <text x="44.94" y="184.92" text-anchor="middle" dy="0.6em">10</text>
    <text x="70.06" y="184.92" text-anchor="middle" dy="0.6em">20</text>
    <text x="95.17" y="184.92" text-anchor="middle" dy="0.6em">30</text>
    <text x="120.29" y="184.92" text-anchor="middle" dy="0.6em">40</text>
    <text x="145.4" y="184.92" text-anchor="middle" dy="0.6em">50</text>
  </g>
<g clip-path="url(#img-98b6a0ec-4)">
  <g id="img-98b6a0ec-5">
    <g pointer-events="visible" opacity="1" fill="#000000" fill-opacity="0.000" stroke="#000000" stroke-opacity="0.000" class="guide background" id="img-98b6a0ec-6">
      <rect x="17.83" y="114.21" width="129.57" height="69.7"/>
    </g>
    <g class="guide ygridlines xfixed" stroke-dasharray="0.5,0.5" stroke-width="0.2" stroke="#D0D0E0" id="img-98b6a0ec-7">
      <path fill="none" d="M17.83,181.92 L 147.4 181.92"/>
      <path fill="none" d="M17.83,165.49 L 147.4 165.49"/>
      <path fill="none" d="M17.83,149.06 L 147.4 149.06"/>
      <path fill="none" d="M17.83,132.64 L 147.4 132.64"/>
      <path fill="none" d="M17.83,116.21 L 147.4 116.21"/>
    </g>
    <g class="guide xgridlines yfixed" stroke-dasharray="0.5,0.5" stroke-width="0.2" stroke="#D0D0E0" id="img-98b6a0ec-8">
      <path fill="none" d="M19.83,114.21 L 19.83 183.92"/>
      <path fill="none" d="M44.94,114.21 L 44.94 183.92"/>
      <path fill="none" d="M70.06,114.21 L 70.06 183.92"/>
      <path fill="none" d="M95.17,114.21 L 95.17 183.92"/>
      <path fill="none" d="M120.29,114.21 L 120.29 183.92"/>
      <path fill="none" d="M145.4,114.21 L 145.4 183.92"/>
    </g>
    <g class="plotpanel" id="img-98b6a0ec-9">
      <g class="geometry" id="img-98b6a0ec-10">
        <g class="color_RGBA{Float32}(1.0f0,0.0f0,0.0f0,1.0f0)" stroke="#FFFFFF" stroke-width="0.3" fill="#FF0000" id="img-98b6a0ec-11">
          <use xlink:href="#img-98b6a0ec-12" x="22.34" y="181.92"/>
          <use xlink:href="#img-98b6a0ec-12" x="24.85" y="181.92"/>
          <use xlink:href="#img-98b6a0ec-12" x="27.36" y="181.92"/>
          <use xlink:href="#img-98b6a0ec-12" x="29.87" y="181.92"/>
          <use xlink:href="#img-98b6a0ec-12" x="32.38" y="181.92"/>
          <use xlink:href="#img-98b6a0ec-12" x="34.89" y="181.92"/>
          <use xlink:href="#img-98b6a0ec-12" x="37.41" y="181.92"/>
          <use xlink:href="#img-98b6a0ec-12" x="39.92" y="181.92"/>
          <use xlink:href="#img-98b6a0ec-12" x="42.43" y="181.91"/>
          <use xlink:href="#img-98b6a0ec-12" x="44.94" y="181.91"/>
          <use xlink:href="#img-98b6a0ec-12" x="47.45" y="181.91"/>
          <use xlink:href="#img-98b6a0ec-12" x="49.96" y="181.91"/>
          <use xlink:href="#img-98b6a0ec-12" x="52.48" y="181.91"/>
          <use xlink:href="#img-98b6a0ec-12" x="54.99" y="181.91"/>
          <use xlink:href="#img-98b6a0ec-12" x="57.5" y="181.91"/>
          <use xlink:href="#img-98b6a0ec-12" x="60.01" y="181.88"/>
          <use xlink:href="#img-98b6a0ec-12" x="62.52" y="181.81"/>
          <use xlink:href="#img-98b6a0ec-12" x="65.03" y="181.66"/>
          <use xlink:href="#img-98b6a0ec-12" x="67.54" y="181.36"/>
          <use xlink:href="#img-98b6a0ec-12" x="70.06" y="180.86"/>
          <use xlink:href="#img-98b6a0ec-12" x="72.57" y="180.07"/>
          <use xlink:href="#img-98b6a0ec-12" x="75.08" y="178.92"/>
          <use xlink:href="#img-98b6a0ec-12" x="77.59" y="177.34"/>
          <use xlink:href="#img-98b6a0ec-12" x="80.1" y="175.28"/>
          <use xlink:href="#img-98b6a0ec-12" x="82.61" y="172.7"/>
          <use xlink:href="#img-98b6a0ec-12" x="85.12" y="169.61"/>
          <use xlink:href="#img-98b6a0ec-12" x="87.64" y="166.04"/>
          <use xlink:href="#img-98b6a0ec-12" x="90.15" y="162.03"/>
          <use xlink:href="#img-98b6a0ec-12" x="92.66" y="157.7"/>
          <use xlink:href="#img-98b6a0ec-12" x="95.17" y="153.15"/>
          <use xlink:href="#img-98b6a0ec-12" x="97.68" y="148.51"/>
          <use xlink:href="#img-98b6a0ec-12" x="100.19" y="143.94"/>
          <use xlink:href="#img-98b6a0ec-12" x="102.7" y="139.56"/>
          <use xlink:href="#img-98b6a0ec-12" x="105.22" y="135.49"/>
          <use xlink:href="#img-98b6a0ec-12" x="107.73" y="131.83"/>
          <use xlink:href="#img-98b6a0ec-12" x="110.24" y="128.65"/>
          <use xlink:href="#img-98b6a0ec-12" x="112.75" y="126.02"/>
          <use xlink:href="#img-98b6a0ec-12" x="115.26" y="123.95"/>
          <use xlink:href="#img-98b6a0ec-12" x="117.77" y="122.46"/>
          <use xlink:href="#img-98b6a0ec-12" x="120.29" y="121.53"/>
          <use xlink:href="#img-98b6a0ec-12" x="122.8" y="121.14"/>
          <use xlink:href="#img-98b6a0ec-12" x="125.31" y="121.25"/>
          <use xlink:href="#img-98b6a0ec-12" x="127.82" y="121.81"/>
          <use xlink:href="#img-98b6a0ec-12" x="130.33" y="122.78"/>
          <use xlink:href="#img-98b6a0ec-12" x="132.84" y="124.1"/>
          <use xlink:href="#img-98b6a0ec-12" x="135.35" y="125.72"/>
          <use xlink:href="#img-98b6a0ec-12" x="137.87" y="127.57"/>
          <use xlink:href="#img-98b6a0ec-12" x="140.38" y="129.63"/>
          <use xlink:href="#img-98b6a0ec-12" x="142.89" y="131.83"/>
          <use xlink:href="#img-98b6a0ec-12" x="145.4" y="134.14"/>
        </g>
      </g>
      <g stroke-width="1.06" fill="#000000" fill-opacity="0.000" class="geometry" stroke-dasharray="none" stroke="#0000FF" id="img-98b6a0ec-13">
        <path fill="none" d="M22.34,181.92 L 24.85 181.92 27.36 181.92 29.87 181.92 32.38 181.92 34.89 181.92 37.41 181.91 39.92 181.91 42.43 181.91 44.94 181.91 47.45 181.91 49.96 181.88 52.48 181.8 54.99 181.59 57.5 181.16 60.01 180.39 62.52 179.17 65.03 177.42 67.54 175.07 70.06 172.1 72.57 168.52 75.08 164.38 77.59 159.78 80.1 154.83 82.61 149.7 85.12 144.59 87.64 139.7 90.15 135.24 92.66 131.37 95.17 128.23 97.68 125.88 100.19 124.37 102.7 123.67 105.22 123.74 107.73 124.51 110.24 125.88 112.75 127.75 115.26 130.03 117.77 132.6 120.29 135.4 122.8 138.32 125.31 141.31 127.82 144.3 130.33 147.25 132.84 150.11 135.35 152.86 137.87 155.47 140.38 157.94 142.89 160.24 145.4 162.38"/>
      </g>
    </g>
  </g>
</g>
  <g class="guide ylabels" font-size="2.82" font-family="'PT Sans Caption','Helvetica Neue','Helvetica',sans-serif" fill="#6C606B" id="img-98b6a0ec-14">
    <text x="16.83" y="181.92" text-anchor="end" dy="0.35em">0</text>
    <text x="16.83" y="165.49" text-anchor="end" dy="0.35em">100</text>
    <text x="16.83" y="149.06" text-anchor="end" dy="0.35em">200</text>
    <text x="16.83" y="132.64" text-anchor="end" dy="0.35em">300</text>
    <text x="16.83" y="116.21" text-anchor="end" dy="0.35em">400</text>
  </g>
  <g font-size="3.88" font-family="'PT Sans','Helvetica Neue','Helvetica',sans-serif" fill="#564A55" stroke="#000000" stroke-opacity="0.000" id="img-98b6a0ec-15">
    <text x="8.81" y="149.06" text-anchor="end" dy="0.35em">y</text>
  </g>
  <g font-size="3.88" font-family="'PT Sans','Helvetica Neue','Helvetica',sans-serif" fill="#564A55" stroke="#000000" stroke-opacity="0.000" id="img-98b6a0ec-16">
    <text x="82.61" y="112.21" text-anchor="middle">w20a</text>
  </g>
</g>
<g class="plotroot xscalable yscalable" id="img-98b6a0ec-17">
  <g font-size="3.88" font-family="'PT Sans','Helvetica Neue','Helvetica',sans-serif" fill="#564A55" stroke="#000000" stroke-opacity="0.000" id="img-98b6a0ec-18">
    <text x="83.45" y="89.99" text-anchor="middle" dy="0.6em">x</text>
  </g>
  <g class="guide xlabels" font-size="2.82" font-family="'PT Sans Caption','Helvetica Neue','Helvetica',sans-serif" fill="#6C606B" id="img-98b6a0ec-19">
    <text x="21.5" y="83.32" text-anchor="middle" dy="0.6em">0</text>
    <text x="46.28" y="83.32" text-anchor="middle" dy="0.6em">10</text>
    <text x="71.06" y="83.32" text-anchor="middle" dy="0.6em">20</text>
    <text x="95.84" y="83.32" text-anchor="middle" dy="0.6em">30</text>
    <text x="120.62" y="83.32" text-anchor="middle" dy="0.6em">40</text>
    <text x="145.4" y="83.32" text-anchor="middle" dy="0.6em">50</text>
  </g>
<g clip-path="url(#img-98b6a0ec-20)">
  <g id="img-98b6a0ec-21">
    <g pointer-events="visible" opacity="1" fill="#000000" fill-opacity="0.000" stroke="#000000" stroke-opacity="0.000" class="guide background" id="img-98b6a0ec-22">
      <rect x="19.5" y="12.61" width="127.9" height="69.7"/>
    </g>
    <g class="guide ygridlines xfixed" stroke-dasharray="0.5,0.5" stroke-width="0.2" stroke="#D0D0E0" id="img-98b6a0ec-23">
      <path fill="none" d="M19.5,80.32 L 147.4 80.32"/>
      <path fill="none" d="M19.5,47.46 L 147.4 47.46"/>
      <path fill="none" d="M19.5,14.61 L 147.4 14.61"/>
    </g>
    <g class="guide xgridlines yfixed" stroke-dasharray="0.5,0.5" stroke-width="0.2" stroke="#D0D0E0" id="img-98b6a0ec-24">
      <path fill="none" d="M21.5,12.61 L 21.5 82.32"/>
      <path fill="none" d="M46.28,12.61 L 46.28 82.32"/>
      <path fill="none" d="M71.06,12.61 L 71.06 82.32"/>
      <path fill="none" d="M95.84,12.61 L 95.84 82.32"/>
      <path fill="none" d="M120.62,12.61 L 120.62 82.32"/>
      <path fill="none" d="M145.4,12.61 L 145.4 82.32"/>
    </g>
    <g class="plotpanel" id="img-98b6a0ec-25">
      <g class="geometry" id="img-98b6a0ec-26">
        <g class="color_RGBA{Float32}(1.0f0,0.0f0,0.0f0,1.0f0)" stroke="#FFFFFF" stroke-width="0.3" fill="#FF0000" id="img-98b6a0ec-27">
          <use xlink:href="#img-98b6a0ec-28" x="23.98" y="80.32"/>
          <use xlink:href="#img-98b6a0ec-28" x="26.46" y="80.32"/>
          <use xlink:href="#img-98b6a0ec-28" x="28.93" y="80.32"/>
          <use xlink:href="#img-98b6a0ec-28" x="31.41" y="80.32"/>
          <use xlink:href="#img-98b6a0ec-28" x="33.89" y="80.32"/>
          <use xlink:href="#img-98b6a0ec-28" x="36.37" y="80.32"/>
          <use xlink:href="#img-98b6a0ec-28" x="38.85" y="80.31"/>
          <use xlink:href="#img-98b6a0ec-28" x="41.32" y="80.31"/>
          <use xlink:href="#img-98b6a0ec-28" x="43.8" y="80.3"/>
          <use xlink:href="#img-98b6a0ec-28" x="46.28" y="80.18"/>
          <use xlink:href="#img-98b6a0ec-28" x="48.76" y="79.72"/>
          <use xlink:href="#img-98b6a0ec-28" x="51.24" y="78.59"/>
          <use xlink:href="#img-98b6a0ec-28" x="53.71" y="76.53"/>
          <use xlink:href="#img-98b6a0ec-28" x="56.19" y="73.43"/>
          <use xlink:href="#img-98b6a0ec-28" x="58.67" y="69.31"/>
          <use xlink:href="#img-98b6a0ec-28" x="61.15" y="64.3"/>
          <use xlink:href="#img-98b6a0ec-28" x="63.63" y="58.59"/>
          <use xlink:href="#img-98b6a0ec-28" x="66.1" y="52.4"/>
          <use xlink:href="#img-98b6a0ec-28" x="68.58" y="45.92"/>
          <use xlink:href="#img-98b6a0ec-28" x="71.06" y="39.45"/>
          <use xlink:href="#img-98b6a0ec-28" x="73.54" y="33.36"/>
          <use xlink:href="#img-98b6a0ec-28" x="76.02" y="28.08"/>
          <use xlink:href="#img-98b6a0ec-28" x="78.49" y="23.98"/>
          <use xlink:href="#img-98b6a0ec-28" x="80.97" y="21.23"/>
          <use xlink:href="#img-98b6a0ec-28" x="83.45" y="19.84"/>
          <use xlink:href="#img-98b6a0ec-28" x="85.93" y="19.7"/>
          <use xlink:href="#img-98b6a0ec-28" x="88.41" y="20.65"/>
          <use xlink:href="#img-98b6a0ec-28" x="90.88" y="22.46"/>
          <use xlink:href="#img-98b6a0ec-28" x="93.36" y="24.92"/>
          <use xlink:href="#img-98b6a0ec-28" x="95.84" y="27.84"/>
          <use xlink:href="#img-98b6a0ec-28" x="98.32" y="31.05"/>
          <use xlink:href="#img-98b6a0ec-28" x="100.8" y="34.42"/>
          <use xlink:href="#img-98b6a0ec-28" x="103.27" y="37.84"/>
          <use xlink:href="#img-98b6a0ec-28" x="105.75" y="41.22"/>
          <use xlink:href="#img-98b6a0ec-28" x="108.23" y="44.51"/>
          <use xlink:href="#img-98b6a0ec-28" x="110.71" y="47.65"/>
          <use xlink:href="#img-98b6a0ec-28" x="113.19" y="50.62"/>
          <use xlink:href="#img-98b6a0ec-28" x="115.66" y="53.4"/>
          <use xlink:href="#img-98b6a0ec-28" x="118.14" y="55.99"/>
          <use xlink:href="#img-98b6a0ec-28" x="120.62" y="58.38"/>
          <use xlink:href="#img-98b6a0ec-28" x="123.1" y="60.57"/>
          <use xlink:href="#img-98b6a0ec-28" x="125.58" y="62.58"/>
          <use xlink:href="#img-98b6a0ec-28" x="128.05" y="64.4"/>
          <use xlink:href="#img-98b6a0ec-28" x="130.53" y="66.06"/>
          <use xlink:href="#img-98b6a0ec-28" x="133.01" y="67.56"/>
          <use xlink:href="#img-98b6a0ec-28" x="135.49" y="68.92"/>
          <use xlink:href="#img-98b6a0ec-28" x="137.97" y="70.14"/>
          <use xlink:href="#img-98b6a0ec-28" x="140.44" y="71.23"/>
          <use xlink:href="#img-98b6a0ec-28" x="142.92" y="72.22"/>
          <use xlink:href="#img-98b6a0ec-28" x="145.4" y="73.1"/>
        </g>
      </g>
      <g stroke-width="1.06" fill="#000000" fill-opacity="0.000" class="geometry" stroke-dasharray="none" stroke="#0000FF" id="img-98b6a0ec-29">
        <path fill="none" d="M23.98,80.32 L 26.46 80.32 28.93 80.32 31.41 80.32 33.89 80.31 36.37 80.31 38.85 80.28 41.32 79.98 43.8 79.04 46.28 77.13 48.76 74.14 51.24 70.18 53.71 65.47 56.19 60.26 58.67 54.81 61.15 49.33 63.63 44 66.1 38.96 68.58 34.51 71.06 31.08 73.54 29.02 76.02 28.43 78.49 29.19 80.97 31.07 83.45 33.78 85.93 37.04 88.41 40.59 90.88 44.25 93.36 47.88 95.84 51.36 98.32 54.63 100.8 57.66 103.27 60.42 105.75 62.92 108.23 65.15 110.71 67.13 113.19 68.88 115.66 70.42 118.14 71.77 120.62 72.94 123.1 73.96 125.58 74.85 128.05 75.62 130.53 76.28 133.01 76.85 135.49 77.35 137.97 77.77 140.44 78.14 142.92 78.45 145.4 78.72"/>
      </g>
    </g>
  </g>
</g>
  <g class="guide ylabels" font-size="2.82" font-family="'PT Sans Caption','Helvetica Neue','Helvetica',sans-serif" fill="#6C606B" id="img-98b6a0ec-30">
    <text x="18.5" y="80.32" text-anchor="end" dy="0.35em">0</text>
    <text x="18.5" y="47.46" text-anchor="end" dy="0.35em">500</text>
    <text x="18.5" y="14.61" text-anchor="end" dy="0.35em">1000</text>
  </g>
  <g font-size="3.88" font-family="'PT Sans','Helvetica Neue','Helvetica',sans-serif" fill="#564A55" stroke="#000000" stroke-opacity="0.000" id="img-98b6a0ec-31">
    <text x="8.81" y="47.46" text-anchor="end" dy="0.35em">y</text>
  </g>
  <g font-size="3.88" font-family="'PT Sans','Helvetica Neue','Helvetica',sans-serif" fill="#564A55" stroke="#000000" stroke-opacity="0.000" id="img-98b6a0ec-32">
    <text x="83.45" y="10.61" text-anchor="middle">w13a</text>
  </g>
</g>
<defs>
  <clipPath id="img-98b6a0ec-4">
  <path d="M17.83,114.21 L 147.4 114.21 147.4 183.92 17.83 183.92" />
</clipPath>
  <clipPath id="img-98b6a0ec-20">
  <path d="M19.5,12.61 L 147.4 12.61 147.4 82.32 19.5 82.32" />
</clipPath>
  <g id="img-98b6a0ec-12">
    <circle cx="0" cy="0" r="1.41"/>
  </g>
  <g id="img-98b6a0ec-28">
    <circle cx="0" cy="0" r="1.41"/>
  </g>
</defs>
</svg>
