<?xml version="1.0" encoding="UTF-8"?>
<svg xmlns="http://www.w3.org/2000/svg"
     xmlns:xlink="http://www.w3.org/1999/xlink"
     xmlns:gadfly="http://www.gadflyjl.org/ns"
     version="1.2"
     width="203.2mm" height="101.6mm" viewBox="0 0 203.2 101.6"
     stroke="none"
     fill="#000000"
     stroke-width="0.3"
     font-size="3.88"
>
<g class="plotroot xscalable yscalable" id="img-0ef873d2-1">
  <g font-size="3.88" font-family="'PT Sans','Helvetica Neue','Helvetica',sans-serif" fill="#564A55" stroke="#000000" stroke-opacity="0.000" id="img-0ef873d2-2">
    <g transform="translate(96.29,90.88)">
      <g class="primitive">
        <text text-anchor="middle" dy="0.6em">X</text>
      </g>
    </g>
  </g>
  <g class="guide xlabels" font-size="2.82" font-family="'PT Sans Caption','Helvetica Neue','Helvetica',sans-serif" fill="#6C606B" id="img-0ef873d2-3">
    <g transform="translate(16.54,84.83)">
      <g class="primitive">
        <text text-anchor="middle" dy="0.6em">0</text>
      </g>
    </g>
    <g transform="translate(96.29,84.83)">
      <g class="primitive">
        <text text-anchor="middle" dy="0.6em">50</text>
      </g>
    </g>
    <g transform="translate(176.04,84.83)">
      <g class="primitive">
        <text text-anchor="middle" dy="0.6em">100</text>
      </g>
    </g>
  </g>
  <g class="guide colorkey" id="img-0ef873d2-4">
    <g fill="#4C404B" font-size="2.82" font-family="'PT Sans','Helvetica Neue','Helvetica',sans-serif" id="img-0ef873d2-5">
      <g transform="translate(181.56,43.77)">
        <g class="primitive">
          <text dy="0.35em">Observation 1</text>
        </g>
      </g>
      <g transform="translate(181.56,46.81)">
        <g class="primitive">
          <text dy="0.35em">Observation 2</text>
        </g>
      </g>
      <g transform="translate(181.56,49.86)">
        <g class="primitive">
          <text dy="0.35em">Observation 3</text>
        </g>
      </g>
      <g transform="translate(181.56,52.9)">
        <g class="primitive">
          <text dy="0.35em">Observation 4</text>
        </g>
      </g>
    </g>
    <g stroke="#000000" stroke-opacity="0.000" id="img-0ef873d2-6">
      <g transform="translate(179.8,43.77)" fill="#FF0000">
        <path d="M-0.76,-0.76 L 0.76 -0.76 0.76 0.76 -0.76 0.76 z" class="primitive"/>
      </g>
      <g transform="translate(179.8,46.81)" fill="#0000FF">
        <path d="M-0.76,-0.76 L 0.76 -0.76 0.76 0.76 -0.76 0.76 z" class="primitive"/>
      </g>
      <g transform="translate(179.8,49.86)" fill="#008000">
        <path d="M-0.76,-0.76 L 0.76 -0.76 0.76 0.76 -0.76 0.76 z" class="primitive"/>
      </g>
      <g transform="translate(179.8,52.9)" fill="#FFA500">
        <path d="M-0.76,-0.76 L 0.76 -0.76 0.76 0.76 -0.76 0.76 z" class="primitive"/>
      </g>
    </g>
    <g fill="#362A35" font-size="3.88" font-family="'PT Sans','Helvetica Neue','Helvetica',sans-serif" stroke="#000000" stroke-opacity="0.000" id="img-0ef873d2-7">
      <g transform="translate(179.04,40.13)">
        <g class="primitive">
          <text>Sources</text>
        </g>
      </g>
    </g>
  </g>
  <g clip-path="url(#img-0ef873d2-8)">
    <g id="img-0ef873d2-9">
      <g pointer-events="visible" opacity="1" fill="#000000" fill-opacity="0.000" stroke="#000000" stroke-opacity="0.000" class="guide background" id="img-0ef873d2-10">
        <g transform="translate(96.29,46.81)">
          <path d="M-81.75,-37.02 L 81.75 -37.02 81.75 37.02 -81.75 37.02 z" class="primitive"/>
        </g>
      </g>
      <g class="guide ygridlines xfixed" stroke-dasharray="0.5,0.5" stroke-width="0.2" stroke="#D0D0E0" id="img-0ef873d2-11">
        <g transform="translate(96.29,81.83)">
          <path fill="none" d="M-81.75,0 L 81.75 0" class="primitive"/>
        </g>
        <g transform="translate(96.29,58.49)">
          <path fill="none" d="M-81.75,0 L 81.75 0" class="primitive"/>
        </g>
        <g transform="translate(96.29,35.14)">
          <path fill="none" d="M-81.75,0 L 81.75 0" class="primitive"/>
        </g>
        <g transform="translate(96.29,11.79)">
          <path fill="none" d="M-81.75,0 L 81.75 0" class="primitive"/>
        </g>
      </g>
      <g class="guide xgridlines yfixed" stroke-dasharray="0.5,0.5" stroke-width="0.2" stroke="#D0D0E0" id="img-0ef873d2-12">
        <g transform="translate(16.54,46.81)">
          <path fill="none" d="M0,-37.02 L 0 37.02" class="primitive"/>
        </g>
        <g transform="translate(96.29,46.81)">
          <path fill="none" d="M0,-37.02 L 0 37.02" class="primitive"/>
        </g>
        <g transform="translate(176.04,46.81)">
          <path fill="none" d="M0,-37.02 L 0 37.02" class="primitive"/>
        </g>
      </g>
      <g class="plotpanel" id="img-0ef873d2-13">
        <metadata>
          <boundingbox value="14.537768554687489mm 9.793972439236114mm 163.50060492621526mm 74.04042697482637mm"/>
          <unitbox value="-1.2539137396533366 3.0856648118686727 102.50782747930667 -3.171329623737345"/>
        </metadata>
        <g stroke-width="0.71" fill="#000000" fill-opacity="0.000" class="geometry" id="img-0ef873d2-14">
          <g stroke-dasharray="none" stroke="#FFA500" id="img-0ef873d2-15">
            <g transform="translate(97.09,44.66)">
              <path fill="none" d="M-78.95,-5.33 L -77.36 -12.19 -75.76 -17.88 -74.17 -21.93 -72.57 -24.02 -70.98 -24.03 -69.38 -22 -67.79 -18.16 -66.19 -12.9 -64.6 -6.74 -63 -0.26 -61.41 5.89 -59.81 11.15 -58.22 14.98 -56.62 17.02 -55.03 17.04 -53.43 15 -51.84 11.05 -50.24 5.52 -48.65 -1.15 -47.05 -8.36 -45.46 -15.52 -43.86 -22.01 -42.27 -27.26 -40.67 -30.82 -39.08 -32.41 -37.48 -31.88 -35.89 -29.3 -34.29 -24.91 -32.7 -19.11 -31.1 -12.42 -29.51 -5.44 -27.91 1.2 -26.32 6.92 -24.72 11.21 -23.13 13.69 -21.53 14.15 -19.94 12.57 -18.34 9.1 -16.75 4.07 -15.15 -2.06 -13.56 -8.71 -11.96 -15.26 -10.37 -21.11 -8.77 -25.69 -7.18 -28.58 -5.58 -29.48 -3.99 -28.28 -2.39 -25.04 -0.8 -20.01 0.8 -13.62 2.39 -6.38 3.99 1.1 5.58 8.19 7.18 14.32 8.77 18.97 10.37 21.77 11.96 22.54 13.56 21.24 15.15 18.04 16.75 13.28 18.34 7.43 19.94 1.07 21.53 -5.18 23.13 -10.72 24.72 -15 26.32 -17.59 27.91 -18.2 29.51 -16.74 31.1 -13.28 32.7 -8.09 34.29 -1.58 35.89 5.71 37.48 13.18 39.08 20.2 40.67 26.19 42.27 30.65 43.86 33.22 45.46 33.72 47.05 32.13 48.65 28.63 50.24 23.56 51.84 17.41 53.43 10.76 55.03 4.22 56.62 -1.6 58.22 -6.15 59.81 -9.02 61.41 -9.92 63 -8.76 64.6 -5.64 66.19 -0.82 67.79 5.27 69.38 12.09 70.98 19.04 72.57 25.5 74.17 30.88 75.76 34.69 77.36 36.6 78.95 36.42" class="primitive"/>
            </g>
          </g>
        </g>
        <g stroke-width="0.71" fill="#000000" fill-opacity="0.000" class="geometry" id="img-0ef873d2-16">
          <g stroke-dasharray="none" stroke="#008000" id="img-0ef873d2-17">
            <g transform="translate(97.09,45.04)">
              <path fill="none" d="M-78.95,0.33 L -77.36 12.31 -75.76 11.94 -74.17 8.58 -72.57 20.33 -70.98 9.62 -69.38 17.06 -67.79 -20.63 -66.19 -19.68 -64.6 9.4 -63 3.44 -61.41 5.18 -59.81 -23.47 -58.22 1.3 -56.62 12.8 -55.03 -21.87 -53.43 8.7 -51.84 2.01 -50.24 14.38 -48.65 -1.75 -47.05 -22.07 -45.46 -23.93 -43.86 -6.6 -42.27 3.17 -40.67 11.94 -39.08 3.91 -37.48 8.7 -35.89 -27.6 -34.29 -12.79 -32.7 -14.23 -31.1 2.75 -29.51 2.9 -27.91 -1.46 -26.32 -14.83 -24.72 -17.95 -23.13 3.37 -21.53 -9.61 -19.94 10.98 -18.34 12.76 -16.75 -2.04 -15.15 -4.65 -13.56 -3.29 -11.96 -23.1 -10.37 1.4 -8.77 11.72 -7.18 -29.76 -5.58 -2.99 -3.99 5.49 -2.39 -17.92 -0.8 -0.8 0.8 -9.05 2.39 -17.71 3.99 9.79 5.58 -11.03 7.18 -18.55 8.77 5.23 10.37 -21.6 11.96 -10.35 13.56 5.39 15.15 -8.59 16.75 1.82 18.34 16.64 19.94 4.94 21.53 -12.75 23.13 -10.72 24.72 7.55 26.32 21.95 27.91 -18.15 29.51 -11.59 31.1 -3.98 32.7 1.98 34.29 -10.81 35.89 1.11 37.48 -8.26 39.08 5.44 40.67 -9.14 42.27 0.73 43.86 -1.24 45.46 27.53 47.05 -12.35 48.65 21.99 50.24 3.19 51.84 31.96 53.43 25.11 55.03 -9.35 56.62 34.42 58.22 35.56 59.81 -0.67 61.41 9.44 63 -8.12 64.6 7.52 66.19 -5.98 67.79 9.74 69.38 12.7 70.98 17.39 72.57 -8.15 74.17 -0.49 75.76 2.18 77.36 5.95 78.95 7.93" class="primitive"/>
            </g>
          </g>
        </g>
        <g stroke-width="0.71" fill="#000000" fill-opacity="0.000" class="geometry" id="img-0ef873d2-18">
          <g stroke-dasharray="none" stroke="#0000FF" id="img-0ef873d2-19">
            <g transform="translate(97.09,46.2)">
              <path fill="none" d="M-78.95,-6.72 L -77.36 -6.72 -75.76 -11.71 -74.17 -16.58 -72.57 -11.95 -70.98 -16.47 -69.38 -9.89 -67.79 -24.08 -66.19 -17.55 -64.6 3.93 -63 8.18 -61.41 15.95 -59.81 7.58 -58.22 24.49 -56.62 32.93 -55.03 16.24 -53.43 30.08 -51.84 23.35 -50.24 24.52 -48.65 10.29 -47.05 -6.63 -45.46 -14.31 -43.86 -11.75 -42.27 -11.77 -40.67 -10.66 -39.08 -16 -37.48 -12.87 -35.89 -28.27 -34.29 -16.35 -32.7 -11.18 -31.1 4.04 -29.51 11.09 -27.91 15.5 -26.32 14.44 -24.72 17.04 -23.13 30 -21.53 23.75 -19.94 32.21 -18.34 29.32 -16.75 16.54 -15.15 8.73 -13.56 2.34 -11.96 -14.58 -10.37 -8.68 -8.77 -8.63 -7.18 -32.83 -5.58 -20.94 -3.99 -16.13 -2.39 -25.25 -0.8 -12.36 0.8 -10.8 2.39 -8.63 3.99 11.84 5.58 7.74 7.18 9.3 8.77 25.02 10.37 13.58 11.96 19.13 13.56 24.84 15.15 13.79 16.75 13.37 18.34 14.06 19.94 0.97 21.53 -15 23.13 -20.4 24.72 -16.41 26.32 -12.66 27.91 -34.18 29.51 -30.28 31.1 -23.84 32.7 -16.48 34.29 -17.16 35.89 -4.68 37.48 -2.65 39.08 10.49 40.67 8.48 42.27 17.2 43.86 18.14 45.46 32.4 47.05 10.28 48.65 23.39 50.24 8.4 51.84 16.16 53.43 5.63 55.03 -18.55 56.62 -2.85 58.22 -7.17 59.81 -28.44 61.41 -24.53 63 -32.37 64.6 -21.59 66.19 -23.64 67.79 -9.76 69.38 -1.49 70.98 7.82 72.57 1.56 74.17 10.87 75.76 16.16 77.36 20.13 78.95 21.16" class="primitive"/>
            </g>
          </g>
        </g>
        <g stroke-width="0.71" fill="#000000" fill-opacity="0.000" class="geometry" id="img-0ef873d2-20">
          <g stroke-dasharray="none" stroke="#FF0000" id="img-0ef873d2-21">
            <g transform="translate(97.09,44.85)">
              <path fill="none" d="M-78.95,-2.5 L -77.36 0.06 -75.76 -2.97 -74.17 -6.67 -72.57 -1.85 -70.98 -7.21 -69.38 -2.47 -67.79 -19.4 -66.19 -16.29 -64.6 1.33 -63 1.59 -61.41 5.54 -59.81 -6.16 -58.22 8.14 -56.62 14.91 -55.03 -2.41 -53.43 11.85 -51.84 6.53 -50.24 9.95 -48.65 -1.45 -47.05 -15.22 -45.46 -19.73 -43.86 -14.3 -42.27 -12.04 -40.67 -9.44 -39.08 -14.25 -37.48 -11.59 -35.89 -28.45 -34.29 -18.85 -32.7 -16.67 -31.1 -4.84 -29.51 -1.27 -27.91 -0.13 -26.32 -3.95 -24.72 -3.37 -23.13 8.53 -21.53 2.27 -19.94 11.78 -18.34 10.93 -16.75 1.01 -15.15 -3.35 -13.56 -6 -11.96 -19.18 -10.37 -9.85 -8.77 -6.99 -7.18 -29.17 -5.58 -16.23 -3.99 -11.39 -2.39 -21.48 -0.8 -10.41 0.8 -11.34 2.39 -12.05 3.99 5.45 5.58 -1.42 7.18 -2.12 8.77 12.1 10.37 0.09 11.96 6.09 13.56 13.31 15.15 4.72 16.75 7.55 18.34 12.04 19.94 3.01 21.53 -8.96 23.13 -10.72 24.72 -3.73 26.32 2.18 27.91 -18.18 29.51 -14.17 31.1 -8.63 32.7 -3.06 34.29 -6.19 35.89 3.41 37.48 2.46 39.08 12.82 40.67 8.53 42.27 15.69 43.86 15.99 45.46 30.62 47.05 9.89 48.65 25.31 50.24 13.38 51.84 24.69 53.43 17.94 55.03 -2.56 56.62 16.41 58.22 14.71 59.81 -4.84 61.41 -0.24 63 -8.44 64.6 0.94 66.19 -3.4 67.79 7.5 69.38 12.4 70.98 18.22 72.57 8.67 74.17 15.2 75.76 18.44 77.36 21.28 78.95 22.17" class="primitive"/>
            </g>
          </g>
        </g>
      </g>
    </g>
  </g>
  <g class="guide ylabels" font-size="2.82" font-family="'PT Sans Caption','Helvetica Neue','Helvetica',sans-serif" fill="#6C606B" id="img-0ef873d2-22">
    <g transform="translate(13.54,81.83)">
      <g class="primitive">
        <text text-anchor="end" dy="0.35em">0</text>
      </g>
    </g>
    <g transform="translate(13.54,58.49)">
      <g class="primitive">
        <text text-anchor="end" dy="0.35em">1</text>
      </g>
    </g>
    <g transform="translate(13.54,35.14)">
      <g class="primitive">
        <text text-anchor="end" dy="0.35em">2</text>
      </g>
    </g>
    <g transform="translate(13.54,11.79)">
      <g class="primitive">
        <text text-anchor="end" dy="0.35em">3</text>
      </g>
    </g>
  </g>
  <g font-size="3.88" font-family="'PT Sans','Helvetica Neue','Helvetica',sans-serif" fill="#564A55" stroke="#000000" stroke-opacity="0.000" id="img-0ef873d2-23">
    <g transform="translate(9.11,46.81)">
      <g class="primitive">
        <text text-anchor="end" dy="0.35em">Y</text>
      </g>
    </g>
  </g>
  <g font-size="3.88" font-family="'PT Sans','Helvetica Neue','Helvetica',sans-serif" fill="#564A55" stroke="#000000" stroke-opacity="0.000" id="img-0ef873d2-24">
    <g transform="translate(96.29,5)">
      <g class="primitive">
        <text text-anchor="middle" dy="0.6em">Mixed observations</text>
      </g>
    </g>
  </g>
</g>
<defs>
  <clipPath id="img-0ef873d2-8">
    <path d="M14.54,9.79 L 178.04 9.79 178.04 83.83 14.54 83.83" />
  </clipPath>
</defs>
</svg>
