<?xml version="1.0" encoding="UTF-8" standalone="no"?>
<!-- Created with Inkscape (http://www.inkscape.org/) -->

<svg
   width="122mm"
   height="122mm"
   viewBox="0 0 122 122"
   version="1.1"
   id="svg1"
   xml:space="preserve"
   sodipodi:docname="MADS-Logo-LightGray.svg"
   inkscape:version="1.3.2 (091e20e, 2023-11-25, custom)"
   inkscape:export-filename="MADS-Logo-LightGray.png"
   inkscape:export-xdpi="96"
   inkscape:export-ydpi="96"
   xmlns:inkscape="http://www.inkscape.org/namespaces/inkscape"
   xmlns:sodipodi="http://sodipodi.sourceforge.net/DTD/sodipodi-0.dtd"
   xmlns="http://www.w3.org/2000/svg"
   xmlns:svg="http://www.w3.org/2000/svg"><sodipodi:namedview
     id="namedview1"
     pagecolor="#ffffff"
     bordercolor="#000000"
     borderopacity="0.25"
     inkscape:showpageshadow="2"
     inkscape:pageopacity="0.0"
     inkscape:pagecheckerboard="0"
     inkscape:deskcolor="#d1d1d1"
     inkscape:document-units="mm"
     inkscape:export-bgcolor="#ffffff95"
     inkscape:zoom="0.95178047"
     inkscape:cx="604.65624"
     inkscape:cy="191.7459"
     inkscape:window-width="1728"
     inkscape:window-height="1055"
     inkscape:window-x="-7"
     inkscape:window-y="-7"
     inkscape:window-maximized="1"
     inkscape:current-layer="layer1" /><defs
     id="defs1" /><g
     id="layer1"
     transform="translate(-7819.8218,714.11032)"
     style="fill:#666666"><path
       id="path3-90-5-8-03-4-7-9-6-2-0-7-5-7-1-3-4-0-4-3-48-3-6-0-8-0-4"
       style="font-variation-settings:normal;fill:#ececec;fill-opacity:1;stroke:#ffffff;stroke-width:1.5;stroke-linecap:square;stroke-linejoin:miter;stroke-miterlimit:4;stroke-dasharray:none;stroke-dashoffset:0;stroke-opacity:1"
       d="m 7920.5719,-652.77696 a 49.999688,50.000043 0 0 1 -50.006,50 49.999688,50.000043 0 0 1 -49.994,-50 z" /><path
       id="path3-90-5-8-03-4-7-9-6-2-0-7-5-7-1-3-4-0-4-8-3-9-1-7-3-6"
       style="font-variation-settings:normal;fill:#ececec;fill-opacity:1;stroke:#ffffff;stroke-width:1.5;stroke-linecap:square;stroke-linejoin:miter;stroke-miterlimit:4;stroke-dasharray:none;stroke-dashoffset:0;stroke-opacity:1"
       d="m 7900.6539,-652.77696 a 40.039806,37.037069 0 0 1 -40.047,37.03704 40.039806,37.037069 0 0 1 -40.035,-37.03704 z" /><path
       id="path3-90-5-8-03-4-7-9-6-2-0-7-5-7-1-3-4-0-45-2-1-7-4-8-1"
       style="font-variation-settings:normal;fill:#ececec;fill-opacity:1;stroke:#ffffff;stroke-width:1.5;stroke-linecap:square;stroke-linejoin:miter;stroke-miterlimit:4;stroke-dasharray:none;stroke-dashoffset:0;stroke-opacity:1"
       d="m 7880.6329,-652.77696 a 30.029854,27.777801 0 0 1 -30.036,27.77778 30.029854,27.777801 0 0 1 -30.025,-27.77778 z" /><path
       id="path3-90-5-8-03-4-7-9-6-2-0-7-5-7-1-3-4-7-9-6-1-67-0-1"
       style="font-variation-settings:normal;fill:#ececec;fill-opacity:1;stroke:#ffffff;stroke-width:1.5;stroke-linecap:square;stroke-linejoin:miter;stroke-miterlimit:4;stroke-dasharray:none;stroke-dashoffset:0;stroke-opacity:1"
       d="m 7860.6119,-652.77696 a 20.019902,18.518535 0 0 1 -20.024,18.51853 20.019902,18.518535 0 0 1 -20.016,-18.51853 z" /><path
       id="path3-90-5-8-03-4-7-9-6-2-0-7-5-7-1-3-4-0-4-3-4-9-7-01-9-95-9-9"
       style="font-variation-settings:normal;fill:#ececec;fill-opacity:1;stroke:#ffffff;stroke-width:1.5;stroke-linecap:square;stroke-linejoin:miter;stroke-miterlimit:4;stroke-dasharray:none;stroke-dashoffset:0;stroke-opacity:1;stop-color:#000000"
       d="m 7940.6939,-652.77696 a 49.999688,50.000043 0 0 0 -50.007,-50.00001 49.999688,50.000043 0 0 0 -49.993,50.00001 z" /><path
       id="path3-90-5-8-03-4-7-9-6-2-0-7-5-7-1-3-4-0-4-5-8-9-0-0-7-0-8"
       style="font-variation-settings:normal;fill:#ececec;fill-opacity:1;stroke:#ffffff;stroke-width:1.5;stroke-linecap:square;stroke-linejoin:miter;stroke-miterlimit:4;stroke-dasharray:none;stroke-dashoffset:0;stroke-opacity:1;stop-color:#000000"
       d="m 7920.7749,-652.77696 a 40.039806,37.037069 0 0 0 -40.045,-37.03704 40.039806,37.037069 0 0 0 -40.035,37.03704 z" /><path
       id="path3-90-5-8-03-4-7-9-6-2-0-7-5-7-1-3-4-0-17-4-7-2-4-80-7-9"
       style="font-variation-settings:normal;fill:#ececec;fill-opacity:1;stroke:#ffffff;stroke-width:1.5;stroke-linecap:square;stroke-linejoin:miter;stroke-miterlimit:4;stroke-dasharray:none;stroke-dashoffset:0;stroke-opacity:1;stop-color:#000000"
       d="m 7900.7539,-652.77696 a 30.029854,27.777801 0 0 0 -30.036,-27.77778 30.029854,27.777801 0 0 0 -30.024,27.77778 z" /><path
       id="path3-90-5-8-03-4-7-9-6-2-0-7-5-7-1-3-4-8-5-1-15-7-4-9-7"
       style="font-variation-settings:normal;fill:#ececec;fill-opacity:1;stroke:#ffffff;stroke-width:1.5;stroke-linecap:square;stroke-linejoin:miter;stroke-miterlimit:4;stroke-dasharray:none;stroke-dashoffset:0;stroke-opacity:1;stop-color:#000000"
       d="m 7880.7339,-652.77696 a 20.019902,18.518535 0 0 0 -20.024,-18.51852 20.019902,18.518535 0 0 0 -20.016,18.51852 z" /></g></svg>
