<?xml version="1.0" encoding="UTF-8" standalone="no"?>
<!-- Created with Inkscape (http://www.inkscape.org/) -->

<svg
   width="120.12289mm"
   height="99.999977mm"
   viewBox="0 0 120.12289 99.999976"
   version="1.1"
   id="svg1"
   xml:space="preserve"
   xmlns="http://www.w3.org/2000/svg"
   xmlns:svg="http://www.w3.org/2000/svg"><defs
     id="defs1" /><g
     id="layer1"
     transform="translate(-21089.142,-624.94574)"><path
       id="path3-90-5-8-03-4-7-9-6-2-0-7-5-7-1-3-4-0-4-3-48-3-6-0-5-8-7-71-5"
       style="font-variation-settings:normal;fill:#00ffd0;fill-opacity:1;stroke:none;stroke-width:1.0899;stroke-linecap:square;stroke-linejoin:miter;stroke-miterlimit:4;stroke-dasharray:none;stroke-dashoffset:0;stroke-opacity:1"
       d="m 21189.144,674.94583 a 49.999688,50.000043 0 0 1 -50.006,49.99996 49.999688,50.000043 0 0 1 -49.994,-49.99996 z" /><path
       id="path3-90-5-8-03-4-7-9-6-2-0-7-5-7-1-3-4-0-4-8-3-9-1-5-3-1-5-9"
       style="font-variation-settings:normal;fill:#00d3e0;fill-opacity:1;stroke:none;stroke-width:0.839419;stroke-linecap:square;stroke-linejoin:miter;stroke-miterlimit:4;stroke-dasharray:none;stroke-dashoffset:0;stroke-opacity:1"
       d="m 21169.226,674.94583 a 40.039806,37.037069 0 0 1 -40.047,37.03696 40.039806,37.037069 0 0 1 -40.035,-37.03696 z" /><path
       id="path3-90-5-8-03-4-7-9-6-2-0-7-5-7-1-3-4-0-45-2-1-7-1-9-3-5-7"
       style="font-variation-settings:normal;fill:#00a7ef;fill-opacity:1;stroke:none;stroke-width:0.629564;stroke-linecap:square;stroke-linejoin:miter;stroke-miterlimit:4;stroke-dasharray:none;stroke-dashoffset:0;stroke-opacity:1"
       d="m 21149.205,674.94583 a 30.029854,27.777801 0 0 1 -30.036,27.77766 30.029854,27.777801 0 0 1 -30.025,-27.77766 z" /><path
       id="path3-90-5-8-03-4-7-9-6-2-0-7-5-7-1-3-4-7-9-6-1-38-0-8-8-5"
       style="font-variation-settings:normal;fill:#007bff;fill-opacity:1;stroke:none;stroke-width:0.419709;stroke-linecap:square;stroke-linejoin:miter;stroke-miterlimit:4;stroke-dasharray:none;stroke-dashoffset:0;stroke-opacity:1"
       d="m 21129.184,674.94583 a 20.019902,18.518535 0 0 1 -20.024,18.51846 20.019902,18.518535 0 0 1 -20.016,-18.51846 z" /><path
       id="path3-90-5-8-03-4-7-9-6-2-0-7-5-7-1-3-4-0-4-3-4-9-7-01-9-4-5-4-5-3"
       style="font-variation-settings:normal;vector-effect:none;fill:#00ffd0;fill-opacity:1;stroke:none;stroke-width:1.0899;stroke-linecap:square;stroke-linejoin:miter;stroke-miterlimit:4;stroke-dasharray:none;stroke-dashoffset:0;stroke-opacity:1;-inkscape-stroke:none;stop-color:#000000"
       d="m 21209.266,674.94583 a 49.999688,50.000043 0 0 0 -50.007,-50 49.999688,50.000043 0 0 0 -49.993,50 z" /><path
       id="path3-90-5-8-03-4-7-9-6-2-0-7-5-7-1-3-4-0-4-5-8-9-0-0-8-2-8-6-9"
       style="font-variation-settings:normal;vector-effect:none;fill:#00d3e0;fill-opacity:1;stroke:none;stroke-width:0.839419;stroke-linecap:square;stroke-linejoin:miter;stroke-miterlimit:4;stroke-dasharray:none;stroke-dashoffset:0;stroke-opacity:1;-inkscape-stroke:none;stop-color:#000000"
       d="m 21189.347,674.94583 a 40.039806,37.037069 0 0 0 -40.046,-37.0371 40.039806,37.037069 0 0 0 -40.035,37.0371 z" /><path
       id="path3-90-5-8-03-4-7-9-6-2-0-7-5-7-1-3-4-0-17-4-7-2-4-5-2-0-79-0"
       style="font-variation-settings:normal;vector-effect:none;fill:#00a7ef;fill-opacity:1;stroke:none;stroke-width:0.629564;stroke-linecap:square;stroke-linejoin:miter;stroke-miterlimit:4;stroke-dasharray:none;stroke-dashoffset:0;stroke-opacity:1;-inkscape-stroke:none;stop-color:#000000"
       d="m 21169.326,674.94583 a 30.029854,27.777801 0 0 0 -30.036,-27.7778 30.029854,27.777801 0 0 0 -30.024,27.7778 z" /><path
       id="path3-90-5-8-03-4-7-9-6-2-0-7-5-7-1-3-4-8-5-1-15-7-45-7-4-41-5"
       style="font-variation-settings:normal;vector-effect:none;fill:#007bff;fill-opacity:1;stroke:none;stroke-width:0.419709;stroke-linecap:square;stroke-linejoin:miter;stroke-miterlimit:4;stroke-dasharray:none;stroke-dashoffset:0;stroke-opacity:1;-inkscape-stroke:none;stop-color:#000000"
       d="m 21149.306,674.94583 a 20.019902,18.518535 0 0 0 -20.024,-18.5186 20.019902,18.518535 0 0 0 -20.016,18.5186 z" /></g></svg>
