<?xml version="1.0" encoding="UTF-8" standalone="no"?>
<!-- Created with Inkscape (http://www.inkscape.org/) -->

<svg
   width="371.44656mm"
   height="95.267632mm"
   viewBox="0 0 371.44656 95.267632"
   version="1.1"
   id="svg1"
   inkscape:version="1.3.2 (091e20e, 2023-11-25, custom)"
   sodipodi:docname="Envitrace-Logo-Color-gray.svg"
   xml:space="preserve"
   xmlns:inkscape="http://www.inkscape.org/namespaces/inkscape"
   xmlns:sodipodi="http://sodipodi.sourceforge.net/DTD/sodipodi-0.dtd"
   xmlns="http://www.w3.org/2000/svg"
   xmlns:svg="http://www.w3.org/2000/svg"><sodipodi:namedview
     id="namedview1"
     pagecolor="#ffffff"
     bordercolor="#000000"
     borderopacity="0.25"
     inkscape:showpageshadow="2"
     inkscape:pageopacity="0.0"
     inkscape:pagecheckerboard="0"
     inkscape:deskcolor="#d1d1d1"
     inkscape:document-units="mm"
     inkscape:zoom="0.16232599"
     inkscape:cx="-120.12864"
     inkscape:cy="1210.527"
     inkscape:window-width="1728"
     inkscape:window-height="1055"
     inkscape:window-x="-7"
     inkscape:window-y="-7"
     inkscape:window-maximized="1"
     inkscape:current-layer="g8"
     showgrid="true"><inkscape:grid
       id="grid4"
       units="mm"
       originx="-678.3918"
       originy="-873.38959"
       spacingx="0.99999997"
       spacingy="0.99999997"
       empcolor="#0099e5"
       empopacity="0.30196078"
       color="#0099e5"
       opacity="0.14901961"
       empspacing="5"
       dotted="false"
       gridanglex="30"
       gridanglez="30"
       visible="true"
       enabled="false" /><inkscape:page
       x="-0.0001948571"
       y="-9.3793737e-08"
       width="371.44656"
       height="95.267632"
       id="page8"
       margin="0"
       bleed="0"
       inkscape:export-filename="Envitrace-Logo-Color-gray.png"
       inkscape:export-xdpi="96"
       inkscape:export-ydpi="96" /></sodipodi:namedview><defs
     id="defs1" /><g
     inkscape:label="Layer 1"
     inkscape:groupmode="layer"
     id="layer1"
     transform="translate(-678.39131,-873.38961)"><g
       id="g8"><path
         d="m 828.75647,885.66046 q 16.19365,0 16.19365,16.01291 0,2.27724 -0.32532,4.87979 h -26.63999 q 0,11.63918 13.59109,11.63918 6.47023,0 11.4946,-1.44586 v 5.42198 q -5.02437,1.44586 -12.21753,1.44586 -19.55527,0 -19.55527,-19.41069 0,-18.54317 17.45877,-18.54317 z m -10.77166,15.32613 h 20.53123 q -0.21688,-9.97644 -9.75957,-9.97644 -10.12103,0 -10.77166,9.97644 z m 30.97936,22.62773 v -37.95386 h 4.51831 l 1.19284,4.84363 q 5.81959,-4.84363 12.79587,-4.84363 14.20559,0 14.20559,14.13329 v 23.82057 h -6.68711 v -23.92901 q 0,-8.45828 -8.42214,-8.45828 -5.7473,0 -10.91625,4.80748 v 27.57981 z m 33.14815,-37.95386 h 7.22931 l 10.8801,29.7486 10.80782,-29.7486 h 7.2293 l -15.43457,37.95386 h -6.2172 z m 43.99211,0 v 37.95386 h -6.68711 v -37.95386 z m 0,-13.73568 v 6.32564 h -6.68711 v -6.32564 z m 6.58045,7.59077 h 4.193 l 1.44586,6.14491 h 10.26562 v 5.42198 h -9.21737 v 21.79636 q 0,5.31354 4.59061,5.31354 h 4.62676 v 5.42198 h -6.36179 q -9.54269,0 -9.54269,-10.22947 z m 19.41247,44.09877 v -37.95386 h 4.51832 l 1.19283,4.84363 q 4.98822,-4.84363 12.00065,-4.84363 v 5.56657 q -6.79555,0 -11.02469,4.80748 v 27.57981 z m 17.60515,-11.45845 q 0,-11.67533 15.39842,-11.67533 4.95208,0 9.90415,0.72293 v -3.57851 q 0,-6.54252 -10.22947,-6.54252 -5.85574,0 -12.00065,1.80733 v -5.42198 q 6.14491,-1.80733 12.00065,-1.80733 16.9166,0 16.9166,11.78377 v 26.17009 h -3.75926 l -2.31338,-3.75924 q -5.675,3.75924 -12.36211,3.75924 -13.55495,0 -13.55495,-11.45845 z m 15.39842,-6.25335 q -8.71131,0 -8.71131,6.14491 0,6.14491 6.86784,6.14491 6.94013,0 11.74762,-3.68695 v -7.87994 q -4.95207,-0.72293 -9.90415,-0.72293 z m 51.00458,16.6274 q -4.6991,1.0844 -10.1211,1.0844 -20.242,0 -20.242,-19.69986 0,-18.254 20.242,-18.254 5.422,0 10.1211,1.0844 v 5.42198 q -4.6991,-1.0844 -10.4825,-1.0844 -13.1935,0 -13.1935,12.83202 0,14.27788 13.1935,14.27788 5.7834,0 10.4825,-1.0844 z m 19.1594,-36.86946 q 16.1936,0 16.1936,16.01291 0,2.27724 -0.3253,4.87979 h -26.64 q 0,11.63918 13.5911,11.63918 6.4703,0 11.4946,-1.44586 v 5.42198 q -5.0243,1.44586 -12.2175,1.44586 -19.5553,0 -19.5553,-19.41069 0,-18.54317 17.4588,-18.54317 z m -10.7717,15.32613 h 20.5313 q -0.2169,-9.97644 -9.7596,-9.97644 -10.121,0 -10.7717,9.97644 z"
         id="text2-4-0-6-2-1-3-7-79"
         style="font-size:74.0281px;line-height:0;font-family:Sansation;-inkscape-font-specification:Sansation;letter-spacing:-4.98644px;fill:#999999;stroke-width:10.4921;stroke-linecap:square"
         transform="scale(0.97982166,1.0205939)"
         aria-label="envitrace" /><path
         id="path4-6-8-0-72"
         style="font-variation-settings:normal;vector-effect:none;fill:#d9ed92;fill-opacity:1;stroke:none;stroke-width:3.0023;stroke-linecap:square;stroke-linejoin:miter;stroke-miterlimit:4;stroke-dasharray:none;stroke-dashoffset:0;stroke-opacity:1;-inkscape-stroke:none;stop-color:#000000"
         d="m 726.22077,873.39295 a 47.437095,9.5257512 0 0 0 -0.19594,10e-4 v 19.04689 a 47.437095,9.5257512 0 0 0 0.19594,0.003 47.437095,9.5257512 0 0 0 47.43722,-9.52582 47.437095,9.5257512 0 0 0 -47.43722,-9.52586 z" /><path
         id="path4-6-8-1-5-9"
         style="font-variation-settings:normal;vector-effect:none;fill:#d9ed92;fill-opacity:1;stroke:none;stroke-width:3.0023;stroke-linecap:square;stroke-linejoin:miter;stroke-miterlimit:4;stroke-dasharray:none;stroke-dashoffset:0;stroke-opacity:1;-inkscape-stroke:none;stop-color:#000000"
         d="m 726.2208,873.39114 a 47.437095,9.5257512 0 0 0 -0.19596,0.003 v 19.04611 a 47.437095,9.5257512 0 0 0 0.19596,10e-4 47.437095,9.5257512 0 0 0 47.4372,-9.52585 47.437095,9.5257512 0 0 0 -47.4372,-9.52583 z" /><path
         id="path4-6-8-1-3-6-7"
         style="font-variation-settings:normal;vector-effect:none;fill:#c4e88c;fill-opacity:1;stroke:none;stroke-width:2.12305;stroke-linecap:square;stroke-linejoin:miter;stroke-miterlimit:4;stroke-dasharray:none;stroke-dashoffset:0;stroke-opacity:1;-inkscape-stroke:none;stop-color:#000000"
         d="m 726.15545,878.15426 a 31.624744,7.1451167 0 0 0 -0.13067,10e-4 v 14.28675 a 31.624744,7.1451167 0 0 0 0.13067,10e-4 31.624744,7.1451167 0 0 0 31.62482,-7.14517 31.624744,7.1451167 0 0 0 -31.62482,-7.14524 z" /><path
         id="path4-6-8-5-11-0"
         style="font-variation-settings:normal;vector-effect:none;fill:#76c893;fill-opacity:1;stroke:none;stroke-width:2.99255;stroke-linecap:square;stroke-linejoin:miter;stroke-miterlimit:4;stroke-dasharray:none;stroke-dashoffset:0;stroke-opacity:1;-inkscape-stroke:none;stop-color:#000000"
         d="m 725.82886,892.44285 a 47.437095,9.5278998 0 0 1 0.19597,10e-4 v 19.05117 a 47.437095,9.5278998 0 0 1 -0.19597,0.001 47.437095,9.5278998 0 0 1 -47.4372,-9.52796 47.437095,9.5278998 0 0 1 47.4372,-9.52802 z" /><path
         id="path4-6-8-5-3-5-1"
         style="font-variation-settings:normal;vector-effect:none;fill:#87d17f;fill-opacity:1;stroke:none;stroke-width:2.11585;stroke-linecap:square;stroke-linejoin:miter;stroke-miterlimit:4;stroke-dasharray:none;stroke-dashoffset:0;stroke-opacity:1;-inkscape-stroke:none;stop-color:#000000"
         d="m 725.89421,892.44355 a 31.624731,7.144596 0 0 1 0.13067,0.001 v 14.28573 a 31.624731,7.144596 0 0 1 -0.13067,10e-4 31.624731,7.144596 0 0 1 -31.62481,-7.14453 31.624731,7.144596 0 0 1 31.62481,-7.14466 z" /><path
         id="path4-6-8-8-6-4"
         style="font-variation-settings:normal;vector-effect:none;fill:#b5e48c;fill-opacity:1;stroke:none;stroke-width:2.62522;stroke-linecap:square;stroke-linejoin:miter;stroke-miterlimit:4;stroke-dasharray:none;stroke-dashoffset:0;stroke-opacity:1;-inkscape-stroke:none;stop-color:#000000"
         d="m 726.09007,882.91693 a 15.81243,4.7637639 0 0 0 -0.0653,10e-4 v 9.52523 a 15.81243,4.7637639 0 0 0 0.0653,10e-4 15.81243,4.7637639 0 0 0 15.81249,-4.76379 15.81243,4.7637639 0 0 0 -15.81249,-4.76388 z" /><path
         id="path4-6-8-80-9-40"
         style="font-variation-settings:normal;vector-effect:none;fill:#52b69a;fill-opacity:1;stroke:none;stroke-width:3.0023;stroke-linecap:square;stroke-linejoin:miter;stroke-miterlimit:4;stroke-dasharray:none;stroke-dashoffset:0;stroke-opacity:1;-inkscape-stroke:none;stop-color:#000000"
         d="m 726.22077,911.49889 a 47.437095,9.5257554 0 0 0 -0.19594,0.003 v 19.04688 a 47.437095,9.5257554 0 0 0 0.19594,0.003 47.437095,9.5257554 0 0 0 47.43722,-9.52584 47.437095,9.5257554 0 0 0 -47.43722,-9.52586 z" /><path
         id="path4-6-8-80-35-0-5"
         style="font-variation-settings:normal;vector-effect:none;fill:#41afa1;fill-opacity:1;stroke:none;stroke-width:2.12168;stroke-linecap:square;stroke-linejoin:miter;stroke-miterlimit:4;stroke-dasharray:none;stroke-dashoffset:0;stroke-opacity:1;-inkscape-stroke:none;stop-color:#000000"
         d="m 726.14888,916.25913 a 31.631321,7.1342995 0 0 0 -0.13068,10e-4 v 14.26513 a 31.631321,7.1342995 0 0 0 0.13068,10e-4 31.631321,7.1342995 0 0 0 31.63139,-7.13436 31.631321,7.1342995 0 0 0 -31.63139,-7.13438 z" /><path
         id="path4-6-8-8-8-4-9"
         style="font-variation-settings:normal;vector-effect:none;fill:#34a0a4;fill-opacity:1;stroke:none;stroke-width:2.59831;stroke-linecap:square;stroke-linejoin:miter;stroke-miterlimit:4;stroke-dasharray:none;stroke-dashoffset:0;stroke-opacity:1;-inkscape-stroke:none;stop-color:#000000"
         d="m 726.08874,921.02289 a 15.489796,4.7637639 0 0 0 -0.064,0.001 v 9.5252 a 15.489796,4.7637639 0 0 0 0.064,10e-4 15.489796,4.7637639 0 0 0 15.48984,-4.7638 15.489796,4.7637639 0 0 0 -15.48984,-4.76386 z" /><path
         id="path4-6-8-8-1-72-7"
         style="font-variation-settings:normal;vector-effect:none;fill:#99d98c;fill-opacity:1;stroke:none;stroke-width:2.59149;stroke-linecap:square;stroke-linejoin:miter;stroke-miterlimit:4;stroke-dasharray:none;stroke-dashoffset:0;stroke-opacity:1;-inkscape-stroke:none;stop-color:#000000"
         d="m 725.9609,892.44284 a 15.489796,4.7634106 0 0 1 0.064,10e-4 v 9.5245 a 15.489796,4.7634106 0 0 1 -0.064,10e-4 15.489796,4.7634106 0 0 1 -15.48984,-4.76344 15.489796,4.7634106 0 0 1 15.48984,-4.76352 z" /><path
         id="path4-6-8-5-2-33-5"
         style="font-variation-settings:normal;vector-effect:none;fill:#1a759f;fill-opacity:1;stroke:none;stroke-width:2.99226;stroke-linecap:square;stroke-linejoin:miter;stroke-miterlimit:4;stroke-dasharray:none;stroke-dashoffset:0;stroke-opacity:1;-inkscape-stroke:none;stop-color:#000000"
         d="m 725.8289,930.55243 a 47.437095,9.52605 0 0 1 0.19597,0.001 v 19.04749 a 47.437095,9.52605 0 0 1 -0.19597,10e-4 47.437095,9.52605 0 0 1 -47.4372,-9.52612 47.437095,9.52605 0 0 1 47.4372,-9.52614 z" /><path
         id="path4-6-8-5-2-7-0-54"
         style="font-variation-settings:normal;vector-effect:none;fill:#187ba5;fill-opacity:1;stroke:none;stroke-width:2.11613;stroke-linecap:square;stroke-linejoin:miter;stroke-miterlimit:4;stroke-dasharray:none;stroke-dashoffset:0;stroke-opacity:1;-inkscape-stroke:none;stop-color:#000000"
         d="m 725.89419,930.55241 a 31.624746,7.1464992 0 0 1 0.13068,10e-4 v 14.28952 a 31.624746,7.1464992 0 0 1 -0.13068,10e-4 31.624746,7.1464992 0 0 1 -31.62483,-7.14658 31.624746,7.1464992 0 0 1 31.62483,-7.14657 z" /><path
         id="path4-6-8-8-1-3-3-0"
         style="font-variation-settings:normal;vector-effect:none;fill:#168aad;fill-opacity:1;stroke:none;stroke-width:2.59158;stroke-linecap:square;stroke-linejoin:miter;stroke-miterlimit:4;stroke-dasharray:none;stroke-dashoffset:0;stroke-opacity:1;-inkscape-stroke:none;stop-color:#000000"
         d="m 725.96093,930.55062 a 15.489796,4.7637639 0 0 1 0.064,10e-4 v 9.52522 a 15.489796,4.7637639 0 0 1 -0.064,0.001 15.489796,4.7637639 0 0 1 -15.48983,-4.7638 15.489796,4.7637639 0 0 1 15.48983,-4.76388 z" /><path
         id="path4-6-8-80-4-34-8"
         style="font-variation-settings:normal;vector-effect:none;fill:#1e6091;fill-opacity:1;stroke:none;stroke-width:3.0024;stroke-linecap:square;stroke-linejoin:miter;stroke-miterlimit:4;stroke-dasharray:none;stroke-dashoffset:0;stroke-opacity:1;-inkscape-stroke:none;stop-color:#000000"
         d="m 726.22077,949.60477 a 47.437095,9.5263671 0 0 0 -0.19594,10e-4 v 19.04812 a 47.437095,9.5263671 0 0 0 0.19594,10e-4 47.437095,9.5263671 0 0 0 47.43722,-9.52645 47.437095,9.5263671 0 0 0 -47.43722,-9.52647 z" /><path
         id="path4-6-8-80-4-2-2-73"
         style="font-variation-settings:normal;vector-effect:none;fill:#1b5783;fill-opacity:1;stroke:none;stroke-width:2.12328;stroke-linecap:square;stroke-linejoin:miter;stroke-miterlimit:4;stroke-dasharray:none;stroke-dashoffset:0;stroke-opacity:1;-inkscape-stroke:none;stop-color:#000000"
         d="m 726.15545,954.36437 a 31.624744,7.1465304 0 0 0 -0.13067,10e-4 v 14.28958 a 31.624744,7.1465304 0 0 0 0.13067,9.6e-4 31.624744,7.1465304 0 0 0 31.62482,-7.14658 31.624744,7.1465304 0 0 0 -31.62482,-7.14661 z" /><path
         id="path4-6-8-8-8-8-7-7"
         style="font-variation-settings:normal;vector-effect:none;fill:#184e77;fill-opacity:1;stroke:none;stroke-width:2.59871;stroke-linecap:square;stroke-linejoin:miter;stroke-miterlimit:4;stroke-dasharray:none;stroke-dashoffset:0;stroke-opacity:1;-inkscape-stroke:none;stop-color:#000000"
         d="m 726.08874,959.1271 a 15.489796,4.7652408 0 0 0 -0.064,10e-4 v 9.52817 a 15.489796,4.7652408 0 0 0 0.064,9.6e-4 15.489796,4.7652408 0 0 0 15.48984,-4.7653 15.489796,4.7652408 0 0 0 -15.48984,-4.76535 z" /></g></g></svg>
