<?xml version="1.0" encoding="UTF-8"?>
<svg xmlns="http://www.w3.org/2000/svg"
     xmlns:xlink="http://www.w3.org/1999/xlink"
     xmlns:gadfly="http://www.gadflyjl.org/ns"
     version="1.2"
     width="203.2mm" height="101.6mm" viewBox="0 0 203.2 101.6"
     stroke="none"
     fill="#000000"
     stroke-width="0.3"
     font-size="3.88"
>
<g class="plotroot xscalable yscalable" id="img-15069ec6-1">
  <g font-size="3.88" font-family="'PT Sans','Helvetica Neue','Helvetica',sans-serif" fill="#564A55" stroke="#000000" stroke-opacity="0.000" id="img-15069ec6-2">
    <g transform="translate(100.93,90.88)">
      <g class="primitive">
        <text text-anchor="middle" dy="0.6em">X</text>
      </g>
    </g>
  </g>
  <g class="guide xlabels" font-size="2.82" font-family="'PT Sans Caption','Helvetica Neue','Helvetica',sans-serif" fill="#6C606B" id="img-15069ec6-3">
    <g transform="translate(18.96,84.83)">
      <g class="primitive">
        <text text-anchor="middle" dy="0.6em">0</text>
      </g>
    </g>
    <g transform="translate(100.93,84.83)">
      <g class="primitive">
        <text text-anchor="middle" dy="0.6em">50</text>
      </g>
    </g>
    <g transform="translate(182.9,84.83)">
      <g class="primitive">
        <text text-anchor="middle" dy="0.6em">100</text>
      </g>
    </g>
  </g>
  <g class="guide colorkey" id="img-15069ec6-4">
    <g fill="#4C404B" font-size="2.82" font-family="'PT Sans','Helvetica Neue','Helvetica',sans-serif" id="img-15069ec6-5">
      <g transform="translate(188.71,45.4)">
        <g class="primitive">
          <text dy="0.35em">Signal 1</text>
        </g>
      </g>
      <g transform="translate(188.71,49.01)">
        <g class="primitive">
          <text dy="0.35em">Signal 2</text>
        </g>
      </g>
      <g transform="translate(188.71,52.61)">
        <g class="primitive">
          <text dy="0.35em">Signal 3</text>
        </g>
      </g>
    </g>
    <g stroke="#000000" stroke-opacity="0.000" id="img-15069ec6-6">
      <g transform="translate(186.8,45.4)" fill="#FF0000">
        <path d="M-0.9,-0.9 L 0.9 -0.9 0.9 0.9 -0.9 0.9 z" class="primitive"/>
      </g>
      <g transform="translate(186.8,49.01)" fill="#0000FF">
        <path d="M-0.9,-0.9 L 0.9 -0.9 0.9 0.9 -0.9 0.9 z" class="primitive"/>
      </g>
      <g transform="translate(186.8,52.61)" fill="#008000">
        <path d="M-0.9,-0.9 L 0.9 -0.9 0.9 0.9 -0.9 0.9 z" class="primitive"/>
      </g>
    </g>
    <g fill="#362A35" font-size="3.88" font-family="'PT Sans','Helvetica Neue','Helvetica',sans-serif" stroke="#000000" stroke-opacity="0.000" id="img-15069ec6-7">
      <g transform="translate(185.9,41.2)">
        <g class="primitive">
          <text>Sources</text>
        </g>
      </g>
    </g>
  </g>
  <g clip-path="url(#img-15069ec6-8)">
    <g id="img-15069ec6-9">
      <g pointer-events="visible" opacity="1" fill="#000000" fill-opacity="0.000" stroke="#000000" stroke-opacity="0.000" class="guide background" id="img-15069ec6-10">
        <g transform="translate(100.93,47.2)">
          <path d="M-83.97,-36.63 L 83.97 -36.63 83.97 36.63 -83.97 36.63 z" class="primitive"/>
        </g>
      </g>
      <g class="guide ygridlines xfixed" stroke-dasharray="0.5,0.5" stroke-width="0.2" stroke="#D0D0E0" id="img-15069ec6-11">
        <g transform="translate(100.93,81.83)">
          <path fill="none" d="M-83.97,0 L 83.97 0" class="primitive"/>
        </g>
        <g transform="translate(100.93,64.52)">
          <path fill="none" d="M-83.97,0 L 83.97 0" class="primitive"/>
        </g>
        <g transform="translate(100.93,47.2)">
          <path fill="none" d="M-83.97,0 L 83.97 0" class="primitive"/>
        </g>
        <g transform="translate(100.93,29.89)">
          <path fill="none" d="M-83.97,0 L 83.97 0" class="primitive"/>
        </g>
        <g transform="translate(100.93,12.57)">
          <path fill="none" d="M-83.97,0 L 83.97 0" class="primitive"/>
        </g>
      </g>
      <g class="guide xgridlines yfixed" stroke-dasharray="0.5,0.5" stroke-width="0.2" stroke="#D0D0E0" id="img-15069ec6-12">
        <g transform="translate(18.96,47.2)">
          <path fill="none" d="M0,-36.63 L 0 36.63" class="primitive"/>
        </g>
        <g transform="translate(100.93,47.2)">
          <path fill="none" d="M0,-36.63 L 0 36.63" class="primitive"/>
        </g>
        <g transform="translate(182.9,47.2)">
          <path fill="none" d="M0,-36.63 L 0 36.63" class="primitive"/>
        </g>
      </g>
      <g class="plotpanel" id="img-15069ec6-13">
        <metadata>
          <boundingbox value="16.95691460503471mm 10.570152452256949mm 167.94563937717012mm 73.26424696180555mm"/>
          <unitbox value="-1.219916557462586 0.8230999407368464 102.43983311492516 -0.8461998814736928"/>
        </metadata>
        <g stroke-width="0.71" fill="#000000" fill-opacity="0.000" class="geometry" id="img-15069ec6-14">
          <g stroke-dasharray="none" stroke="#008000" id="img-15069ec6-15">
            <g transform="translate(101.75,48.19)">
              <path fill="none" d="M-81.15,-1.02 L -79.51 17.6 -77.87 18.02 -76.23 13.98 -74.6 32.17 -72.96 17.25 -71.32 29.02 -69.68 -25.73 -68.04 -23.59 -66.4 19.95 -64.76 11.86 -63.12 15.09 -61.48 -26.48 -59.84 10.67 -58.2 28.24 -56.56 -22.21 -54.92 23.45 -53.28 14.21 -51.64 33.04 -50 9.85 -48.36 -19.53 -46.72 -21.77 -45.09 4.22 -43.45 19.02 -41.81 32.29 -40.17 20.74 -38.53 28 -36.89 -25.35 -35.25 -3.45 -33.61 -5.56 -31.97 19.42 -30.33 19.55 -28.69 12.99 -27.05 -6.87 -25.41 -11.65 -23.77 19.55 -22.13 0.19 -20.49 30.29 -18.85 32.64 -17.21 10.55 -15.57 6.4 -13.94 8.06 -12.3 -21.51 -10.66 14.15 -9.02 28.89 -7.38 -32.77 -5.74 6.09 -4.1 17.93 -2.46 -17.28 -0.82 7.19 0.82 -5.77 2.46 -19.36 4.1 20.31 5.74 -11.25 7.38 -23.21 9.02 10.94 10.66 -29.47 12.3 -13.75 13.94 8.59 15.57 -12.84 17.21 1.69 18.85 22.71 20.49 4.67 22.13 -22.19 23.77 -20.02 25.41 6.07 27.05 26.46 28.69 -33.48 30.33 -24.67 31.97 -14.33 33.61 -6.45 35.25 -26.16 36.89 -9.48 38.53 -24.14 40.17 -4.77 41.81 -27.04 43.45 -13.24 45.09 -16.83 46.72 24.92 48.36 -34.41 50 15.67 51.64 -12.49 53.28 29.48 54.92 19.03 56.56 -32.07 58.2 32.11 59.84 33.52 61.48 -20.12 63.12 -5.47 64.76 -31.57 66.4 -8.73 68.04 -28.79 69.68 -5.79 71.32 -1.54 72.96 5.29 74.6 -32.36 76.23 -21.04 77.87 -17.01 79.51 -11.3 81.15 -8.15" class="primitive"/>
            </g>
          </g>
        </g>
        <g stroke-width="0.71" fill="#000000" fill-opacity="0.000" class="geometry" id="img-15069ec6-16">
          <g stroke-dasharray="none" stroke="#0000FF" id="img-15069ec6-17">
            <g transform="translate(101.75,49.41)">
              <path fill="none" d="M-81.15,-8.57 L -79.51 -17.15 -77.87 -24.06 -76.23 -28.75 -74.6 -30.9 -72.96 -30.11 -71.32 -26.67 -69.68 -20.55 -68.04 -12.74 -66.4 -3.88 -64.76 5.57 -63.12 14.53 -61.48 22.42 -59.84 28.07 -58.2 31.34 -56.56 32.11 -54.92 29.71 -53.28 24.91 -51.64 17.82 -50 9.34 -48.36 0.1 -46.72 -9.2 -45.09 -17.73 -43.45 -24.58 -41.81 -29.19 -40.17 -31.06 -38.53 -30.18 -36.89 -26.35 -35.25 -20.38 -33.61 -12.46 -31.97 -3.48 -30.33 5.95 -28.69 14.91 -27.05 22.64 -25.41 28.33 -23.77 31.41 -22.13 31.92 -20.49 29.43 -18.85 24.46 -17.21 17.44 -15.57 8.83 -13.94 -0.54 -12.3 -9.69 -10.66 -18.17 -9.02 -24.9 -7.38 -29.07 -5.74 -30.97 -4.1 -29.94 -2.46 -26.02 -0.82 -19.93 0.82 -11.87 2.46 -2.69 4.1 6.59 5.74 15.61 7.38 23.22 9.02 28.65 10.66 31.86 12.3 32.08 13.94 29.48 15.57 24.47 17.21 17.21 18.85 8.46 20.49 -0.85 22.13 -9.98 23.77 -18.25 25.41 -24.9 27.05 -29.24 28.69 -30.61 30.33 -29.41 31.97 -25.51 33.61 -19.24 35.25 -11.07 36.89 -1.96 38.53 7.52 40.17 16.29 41.81 23.84 43.45 29.21 45.09 32.13 46.72 32.09 48.36 29.65 50 24.23 51.64 17.03 53.28 8.13 54.92 -1.23 56.56 -10.24 58.2 -18.67 59.84 -25.13 61.48 -29.05 63.12 -30.55 64.76 -29.07 66.4 -25.08 68.04 -18.6 69.68 -10.52 71.32 -1.34 72.96 8.04 74.6 16.95 76.23 24.27 77.87 29.54 79.51 32.26 81.15 32.2" class="primitive"/>
            </g>
          </g>
        </g>
        <g stroke-width="0.71" fill="#000000" fill-opacity="0.000" class="geometry" id="img-15069ec6-18">
          <g stroke-dasharray="none" stroke="#FF0000" id="img-15069ec6-19">
            <g transform="translate(101.75,47.45)">
              <path fill="none" d="M-81.15,2.51 L -79.51 1.02 -77.87 -0.54 -76.23 -2.08 -74.6 -3.45 -72.96 -4.95 -71.32 -6.25 -69.68 -7.86 -68.04 -9.09 -66.4 -10.05 -64.76 -11.26 -63.12 -12.37 -61.48 -13.7 -59.84 -14.58 -58.2 -15.54 -56.56 -16.88 -54.92 -17.66 -53.28 -18.72 -51.64 -19.6 -50 -20.67 -48.36 -21.73 -46.72 -22.57 -45.09 -23.17 -43.45 -23.75 -41.81 -24.24 -40.17 -24.76 -38.53 -25.07 -36.89 -25.61 -35.25 -25.62 -33.61 -25.67 -31.97 -25.48 -30.33 -25.35 -28.69 -25.19 -27.05 -25.05 -25.41 -24.78 -23.77 -24.26 -22.13 -23.99 -20.49 -23.41 -18.85 -22.94 -17.21 -22.58 -15.57 -22.06 -13.94 -21.46 -12.3 -20.96 -10.66 -20.03 -9.02 -19.13 -7.38 -18.58 -5.74 -17.36 -4.1 -16.22 -2.46 -15.25 -0.82 -13.86 0.82 -12.62 2.46 -11.33 4.1 -9.69 5.74 -8.43 7.38 -7.04 9.02 -5.4 10.66 -4.17 12.3 -2.65 13.94 -1.11 15.57 0.17 17.21 1.63 18.85 3.11 20.49 4.37 22.13 5.58 23.77 6.96 25.41 8.5 27.05 10.01 28.69 11.1 30.33 12.59 31.97 14.1 33.61 15.6 35.25 16.94 36.89 18.47 38.53 19.78 40.17 21.24 41.81 22.41 43.45 23.71 45.09 24.83 46.72 26.12 48.36 26.74 50 27.9 51.64 28.53 53.28 29.47 54.92 30.05 56.56 30.34 58.2 31.22 59.84 31.7 61.48 31.84 63.12 32.32 64.76 32.54 66.4 33 68.04 33.17 69.68 33.54 71.32 33.74 72.96 33.88 74.6 33.69 76.23 33.68 77.87 33.53 79.51 33.29 81.15 32.92" class="primitive"/>
            </g>
          </g>
        </g>
      </g>
    </g>
  </g>
  <g class="guide ylabels" font-size="2.82" font-family="'PT Sans Caption','Helvetica Neue','Helvetica',sans-serif" fill="#6C606B" id="img-15069ec6-20">
    <g transform="translate(15.96,81.83)">
      <g class="primitive">
        <text text-anchor="end" dy="0.35em">0.0</text>
      </g>
    </g>
    <g transform="translate(15.96,64.52)">
      <g class="primitive">
        <text text-anchor="end" dy="0.35em">0.2</text>
      </g>
    </g>
    <g transform="translate(15.96,47.2)">
      <g class="primitive">
        <text text-anchor="end" dy="0.35em">0.4</text>
      </g>
    </g>
    <g transform="translate(15.96,29.89)">
      <g class="primitive">
        <text text-anchor="end" dy="0.35em">0.6</text>
      </g>
    </g>
    <g transform="translate(15.96,12.57)">
      <g class="primitive">
        <text text-anchor="end" dy="0.35em">0.8</text>
      </g>
    </g>
  </g>
  <g font-size="3.88" font-family="'PT Sans','Helvetica Neue','Helvetica',sans-serif" fill="#564A55" stroke="#000000" stroke-opacity="0.000" id="img-15069ec6-21">
    <g transform="translate(9.11,47.2)">
      <g class="primitive">
        <text text-anchor="end" dy="0.35em">Y</text>
      </g>
    </g>
  </g>
  <g font-size="3.88" font-family="'PT Sans','Helvetica Neue','Helvetica',sans-serif" fill="#564A55" stroke="#000000" stroke-opacity="0.000" id="img-15069ec6-22">
    <g transform="translate(100.93,5)">
      <g class="primitive">
        <text text-anchor="middle" dy="0.6em">Unmixed signals</text>
      </g>
    </g>
  </g>
</g>
<defs>
  <clipPath id="img-15069ec6-8">
    <path d="M16.96,10.57 L 184.9 10.57 184.9 83.83 16.96 83.83" />
  </clipPath>
</defs>
</svg>
