<?xml version="1.0" encoding="UTF-8"?>
<svg xmlns="http://www.w3.org/2000/svg"
     xmlns:xlink="http://www.w3.org/1999/xlink"
     xmlns:gadfly="http://www.gadflyjl.org/ns"
     version="1.2"
     width="152.4mm" height="101.6mm" viewBox="0 0 152.4 101.6"
     stroke="none"
     fill="#000000"
     stroke-width="0.3"
     font-size="3.88"
>
<g class="plotroot xscalable yscalable" id="img-5b27b499-1">
  <g font-size="3.88" font-family="'PT Sans','Helvetica Neue','Helvetica',sans-serif" fill="#564A55" stroke="#000000" stroke-opacity="0.000" id="img-5b27b499-2">
    <text x="82.67" y="89.99" text-anchor="middle" dy="0.6em">x</text>
  </g>
  <g class="guide xlabels" font-size="2.82" font-family="'PT Sans Caption','Helvetica Neue','Helvetica',sans-serif" fill="#6C606B" id="img-5b27b499-3">
    <text x="19.94" y="83.32" text-anchor="middle" dy="0.6em">0</text>
    <text x="82.67" y="83.32" text-anchor="middle" dy="0.6em">50</text>
    <text x="145.4" y="83.32" text-anchor="middle" dy="0.6em">100</text>
  </g>
<g clip-path="url(#img-5b27b499-4)">
  <g id="img-5b27b499-5">
    <g pointer-events="visible" opacity="1" fill="#000000" fill-opacity="0.000" stroke="#000000" stroke-opacity="0.000" class="guide background" id="img-5b27b499-6">
      <rect x="17.94" y="5" width="129.46" height="77.32"/>
    </g>
    <g class="guide ygridlines xfixed" stroke-dasharray="0.5,0.5" stroke-width="0.2" stroke="#D0D0E0" id="img-5b27b499-7">
      <path fill="none" d="M17.94,80.32 L 147.4 80.32"/>
      <path fill="none" d="M17.94,55.88 L 147.4 55.88"/>
      <path fill="none" d="M17.94,31.44 L 147.4 31.44"/>
      <path fill="none" d="M17.94,7 L 147.4 7"/>
    </g>
    <g class="guide xgridlines yfixed" stroke-dasharray="0.5,0.5" stroke-width="0.2" stroke="#D0D0E0" id="img-5b27b499-8">
      <path fill="none" d="M19.94,5 L 19.94 82.32"/>
      <path fill="none" d="M82.67,5 L 82.67 82.32"/>
      <path fill="none" d="M145.4,5 L 145.4 82.32"/>
    </g>
    <g class="plotpanel" id="img-5b27b499-9">
      <g stroke-width="0.3" fill="#000000" fill-opacity="0.000" class="geometry" stroke-dasharray="none" stroke="#00BFFF" id="img-5b27b499-10">
        <path fill="none" d="M19.94,55.88 L 20.06 56.07 20.19 56.26 20.32 56.45 20.44 56.64 20.57 56.83 20.69 57.01 20.82 57.19 20.94 57.37 21.07 57.55 21.19 57.72 21.32 57.9 21.44 58.07 21.57 58.23 21.7 58.4 21.82 58.56 21.95 58.72 22.07 58.87 22.2 59.03 22.32 59.18 22.45 59.33 22.57 59.47 22.7 59.61 22.82 59.75 22.95 59.89 23.08 60.02 23.2 60.15 23.33 60.28 23.45 60.41 23.58 60.53 23.7 60.65 23.83 60.76 23.95 60.87 24.08 60.98 24.2 61.09 24.33 61.19 24.46 61.29 24.58 61.39 24.71 61.48 24.83 61.57 24.96 61.66 25.08 61.74 25.21 61.82 25.33 61.9 25.46 61.97 25.58 62.05 25.71 62.11 25.84 62.18 25.96 62.24 26.09 62.3 26.21 62.35 26.34 62.41 26.46 62.46 26.59 62.5 26.71 62.55 26.84 62.59 26.96 62.62 27.09 62.66 27.22 62.69 27.34 62.71 27.47 62.74 27.59 62.76 27.72 62.78 27.84 62.8 27.97 62.81 28.09 62.82 28.22 62.83 28.35 62.83 28.47 62.83 28.6 62.83 28.72 62.83 28.85 62.82 28.97 62.81 29.1 62.8 29.22 62.78 29.35 62.77 29.47 62.75 29.6 62.73 29.73 62.7 29.85 62.67 29.98 62.64 30.1 62.61 30.23 62.58 30.35 62.54 30.48 62.5 30.6 62.46 30.73 62.42 30.85 62.37 30.98 62.32 31.11 62.27 31.23 62.22 31.36 62.17 31.48 62.11 31.61 62.05 31.73 61.99 31.86 61.93 31.98 61.87 32.11 61.8 32.23 61.74 32.36 61.67 32.49 61.6 32.61 61.52 32.74 61.45 32.86 61.38 32.99 61.3 33.11 61.22 33.24 61.14 33.36 61.06 33.49 60.98 33.61 60.9 33.74 60.81 33.87 60.73 33.99 60.64 34.12 60.56 34.24 60.47 34.37 60.38 34.49 60.29 34.62 60.2 34.74 60.11 34.87 60.01 34.99 59.92 35.12 59.83 35.25 59.73 35.37 59.64 35.5 59.54 35.62 59.45 35.75 59.35 35.87 59.25 36 59.15 36.12 59.06 36.25 58.96 36.37 58.86 36.5 58.76 36.63 58.66 36.75 58.56 36.88 58.46 37 58.37 37.13 58.27 37.25 58.17 37.38 58.07 37.5 57.97 37.63 57.87 37.75 57.77 37.88 57.68 38.01 57.58 38.13 57.48 38.26 57.38 38.38 57.29 38.51 57.19 38.63 57.09 38.76 57 38.88 56.9 39.01 56.81 39.13 56.71 39.26 56.62 39.39 56.53 39.51 56.44 39.64 56.34 39.76 56.25 39.89 56.16 40.01 56.07 40.14 55.99 40.26 55.9 40.39 55.81 40.51 55.73 40.64 55.64 40.77 55.56 40.89 55.47 41.02 55.39 41.14 55.31 41.27 55.23 41.39 55.15 41.52 55.07 41.64 55 41.77 54.92 41.89 54.85 42.02 54.77 42.15 54.7 42.27 54.63 42.4 54.56 42.52 54.49 42.65 54.43 42.77 54.36 42.9 54.29 43.02 54.23 43.15 54.17 43.27 54.11 43.4 54.05 43.53 53.99 43.65 53.93 43.78 53.88 43.9 53.82 44.03 53.77 44.15 53.72 44.28 53.67 44.4 53.62 44.53 53.57 44.65 53.53 44.78 53.48 44.91 53.44 45.03 53.4 45.16 53.36 45.28 53.32 45.41 53.28 45.53 53.24 45.66 53.21 45.78 53.17 45.91 53.14 46.04 53.11 46.16 53.08 46.29 53.05 46.41 53.03 46.54 53 46.66 52.98 46.79 52.96 46.91 52.94 47.04 52.92 47.16 52.9 47.29 52.88 47.42 52.87 47.54 52.85 47.67 52.84 47.79 52.83 47.92 52.82 48.04 52.81 48.17 52.8 48.29 52.8 48.42 52.79 48.54 52.79 48.67 52.79 48.8 52.79 48.92 52.79 49.05 52.79 49.17 52.79 49.3 52.79 49.42 52.8 49.55 52.8 49.67 52.81 49.8 52.82 49.92 52.83 50.05 52.84 50.18 52.85 50.3 52.87 50.43 52.88 50.55 52.9 50.68 52.91 50.8 52.93 50.93 52.95 51.05 52.97 51.18 52.99 51.3 53.01 51.43 53.03 51.56 53.05 51.68 53.08 51.81 53.1 51.93 53.13 52.06 53.15 52.18 53.18 52.31 53.21 52.43 53.24 52.56 53.27 52.68 53.3 52.81 53.33 52.94 53.36 53.06 53.39 53.19 53.42 53.31 53.46 53.44 53.49 53.56 53.53 53.69 53.56 53.81 53.6 53.94 53.64 54.06 53.67 54.19 53.71 54.32 53.75 54.44 53.79 54.57 53.83 54.69 53.87 54.82 53.91 54.94 53.95 55.07 53.99 55.19 54.03 55.32 54.07 55.44 54.11 55.57 54.15 55.7 54.2 55.82 54.24 55.95 54.28 56.07 54.32 56.2 54.37 56.32 54.41 56.45 54.45 56.57 54.5 56.7 54.54 56.82 54.58 56.95 54.63 57.08 54.67 57.2 54.72 57.33 54.76 57.45 54.8 57.58 54.85 57.7 54.89 57.83 54.94 57.95 54.98 58.08 55.02 58.2 55.07 58.33 55.11 58.46 55.15 58.58 55.2 58.71 55.24 58.83 55.28 58.96 55.33 59.08 55.37 59.21 55.41 59.33 55.45 59.46 55.49 59.58 55.54 59.71 55.58 59.84 55.62 59.96 55.66 60.09 55.7 60.21 55.74 60.34 55.78 60.46 55.82 60.59 55.86 60.71 55.9 60.84 55.93 60.96 55.97 61.09 56.01 61.22 56.05 61.34 56.08 61.47 56.12 61.59 56.15 61.72 56.19 61.84 56.22 61.97 56.26 62.09 56.29 62.22 56.33 62.34 56.36 62.47 56.39 62.6 56.42 62.72 56.45 62.85 56.48 62.97 56.51 63.1 56.54 63.22 56.57 63.35 56.6 63.47 56.63 63.6 56.66 63.72 56.68 63.85 56.71 63.98 56.73 64.1 56.76 64.23 56.78 64.35 56.81 64.48 56.83 64.6 56.85 64.73 56.87 64.85 56.9 64.98 56.92 65.11 56.94 65.23 56.96 65.36 56.97 65.48 56.99 65.61 57.01 65.73 57.03 65.86 57.04 65.98 57.06 66.11 57.07 66.23 57.09 66.36 57.1 66.49 57.12 66.61 57.13 66.74 57.14 66.86 57.15 66.99 57.16 67.11 57.17 67.24 57.18 67.36 57.19 67.49 57.2 67.61 57.21 67.74 57.21 67.87 57.22 67.99 57.22 68.12 57.23 68.24 57.23 68.37 57.24 68.49 57.24 68.62 57.24 68.74 57.25 68.87 57.25 68.99 57.25 69.12 57.25 69.25 57.25 69.37 57.25 69.5 57.25 69.62 57.25 69.75 57.25 69.87 57.24 70 57.24 70.12 57.24 70.25 57.23 70.37 57.23 70.5 57.22 70.63 57.22 70.75 57.21 70.88 57.2 71 57.2 71.13 57.19 71.25 57.18 71.38 57.17 71.5 57.16 71.63 57.15 71.75 57.14 71.88 57.13 72.01 57.12 72.13 57.11 72.26 57.1 72.38 57.09 72.51 57.08 72.63 57.07 72.76 57.05 72.88 57.04 73.01 57.03 73.13 57.01 73.26 57 73.39 56.98 73.51 56.97 73.64 56.96 73.76 56.94 73.89 56.92 74.01 56.91 74.14 56.89 74.26 56.88 74.39 56.86 74.51 56.84 74.64 56.83 74.77 56.81 74.89 56.79 75.02 56.77 75.14 56.76 75.27 56.74 75.39 56.72 75.52 56.7 75.64 56.68 75.77 56.67 75.89 56.65 76.02 56.63 76.15 56.61 76.27 56.59 76.4 56.57 76.52 56.55 76.65 56.53 76.77 56.51 76.9 56.49 77.02 56.48 77.15 56.46 77.27 56.44 77.4 56.42 77.53 56.4 77.65 56.38 77.78 56.36 77.9 56.34 78.03 56.32 78.15 56.3 78.28 56.28 78.4 56.26 78.53 56.24 78.65 56.22 78.78 56.2 78.91 56.18 79.03 56.16 79.16 56.15 79.28 56.13 79.41 56.11 79.53 56.09 79.66 56.07 79.78 56.05 79.91 56.03 80.03 56.01 80.16 56 80.29 55.98 80.41 55.96 80.54 55.94 80.66 55.92 80.79 55.91 80.91 55.89 81.04 55.87 81.16 55.86 81.29 55.84 81.41 55.82 81.54 55.81 81.67 55.79 81.79 55.77 81.92 55.76 82.04 55.74 82.17 55.73 82.29 55.71 82.42 55.7 82.54 55.68 82.67 55.67 82.8 55.65 82.92 55.64 83.05 55.62 83.17 55.61 83.3 55.6 83.42 55.58 83.55 55.57 83.67 55.56 83.8 55.55 83.92 55.53 84.05 55.52 84.18 55.51 84.3 55.5 84.43 55.49 84.55 55.48 84.68 55.47 84.8 55.46 84.93 55.45 85.05 55.44 85.18 55.43 85.3 55.42 85.43 55.41 85.56 55.4 85.68 55.39 85.81 55.38 85.93 55.37 86.06 55.37 86.18 55.36 86.31 55.35 86.43 55.35 86.56 55.34 86.68 55.33 86.81 55.33 86.94 55.32 87.06 55.32 87.19 55.31 87.31 55.31 87.44 55.3 87.56 55.3 87.69 55.29 87.81 55.29 87.94 55.29 88.06 55.28 88.19 55.28 88.32 55.28 88.44 55.28 88.57 55.27 88.69 55.27 88.82 55.27 88.94 55.27 89.07 55.27 89.19 55.27 89.32 55.27 89.44 55.27 89.57 55.27 89.7 55.27 89.82 55.27 89.95 55.27 90.07 55.27 90.2 55.27 90.32 55.27 90.45 55.27 90.57 55.27 90.7 55.28 90.82 55.28 90.95 55.28 91.08 55.28 91.2 55.29 91.33 55.29 91.45 55.29 91.58 55.3 91.7 55.3 91.83 55.3 91.95 55.31 92.08 55.31 92.2 55.32 92.33 55.32 92.46 55.33 92.58 55.33 92.71 55.34 92.83 55.34 92.96 55.35 93.08 55.35 93.21 55.36 93.33 55.36 93.46 55.37 93.58 55.38 93.71 55.38 93.84 55.39 93.96 55.4 94.09 55.4 94.21 55.41 94.34 55.42 94.46 55.42 94.59 55.43 94.71 55.44 94.84 55.45 94.96 55.45 95.09 55.46 95.22 55.47 95.34 55.48 95.47 55.48 95.59 55.49 95.72 55.5 95.84 55.51 95.97 55.52 96.09 55.52 96.22 55.53 96.34 55.54 96.47 55.55 96.6 55.56 96.72 55.57 96.85 55.57 96.97 55.58 97.1 55.59 97.22 55.6 97.35 55.61 97.47 55.62 97.6 55.63 97.72 55.63 97.85 55.64 97.98 55.65 98.1 55.66 98.23 55.67 98.35 55.68 98.48 55.69 98.6 55.7 98.73 55.7 98.85 55.71 98.98 55.72 99.1 55.73 99.23 55.74 99.36 55.75 99.48 55.76 99.61 55.76 99.73 55.77 99.86 55.78 99.98 55.79 100.11 55.8 100.23 55.81 100.36 55.81 100.49 55.82 100.61 55.83 100.74 55.84 100.86 55.85 100.99 55.85 101.11 55.86 101.24 55.87 101.36 55.88 101.49 55.88 101.61 55.89 101.74 55.9 101.87 55.91 101.99 55.91 102.12 55.92 102.24 55.93 102.37 55.94 102.49 55.94 102.62 55.95 102.74 55.96 102.87 55.96 102.99 55.97 103.12 55.98 103.25 55.98 103.37 55.99 103.5 55.99 103.62 56 103.75 56.01 103.87 56.01 104 56.02 104.12 56.02 104.25 56.03 104.37 56.03 104.5 56.04 104.63 56.04 104.75 56.05 104.88 56.05 105 56.06 105.13 56.06 105.25 56.07 105.38 56.07 105.5 56.08 105.63 56.08 105.75 56.08 105.88 56.09 106.01 56.09 106.13 56.1 106.26 56.1 106.38 56.1 106.51 56.11 106.63 56.11 106.76 56.11 106.88 56.11 107.01 56.12 107.13 56.12 107.26 56.12 107.39 56.12 107.51 56.13 107.64 56.13 107.76 56.13 107.89 56.13 108.01 56.14 108.14 56.14 108.26 56.14 108.39 56.14 108.51 56.14 108.64 56.14 108.77 56.14 108.89 56.14 109.02 56.15 109.14 56.15 109.27 56.15 109.39 56.15 109.52 56.15 109.64 56.15 109.77 56.15 109.89 56.15 110.02 56.15 110.15 56.15 110.27 56.15 110.4 56.15 110.52 56.15 110.65 56.15 110.77 56.15 110.9 56.14 111.02 56.14 111.15 56.14 111.27 56.14 111.4 56.14 111.53 56.14 111.65 56.14 111.78 56.14 111.9 56.14 112.03 56.13 112.15 56.13 112.28 56.13 112.4 56.13 112.53 56.13 112.65 56.12 112.78 56.12 112.91 56.12 113.03 56.12 113.16 56.12 113.28 56.11 113.41 56.11 113.53 56.11 113.66 56.11 113.78 56.1 113.91 56.1 114.03 56.1 114.16 56.09 114.29 56.09 114.41 56.09 114.54 56.09 114.66 56.08 114.79 56.08 114.91 56.08 115.04 56.07 115.16 56.07 115.29 56.07 115.41 56.06 115.54 56.06 115.67 56.06 115.79 56.05 115.92 56.05 116.04 56.05 116.17 56.04 116.29 56.04 116.42 56.03 116.54 56.03 116.67 56.03 116.79 56.02 116.92 56.02 117.05 56.02 117.17 56.01 117.3 56.01 117.42 56 117.55 56 117.67 56 117.8 55.99 117.92 55.99 118.05 55.99 118.17 55.98 118.3 55.98 118.43 55.97 118.55 55.97 118.68 55.97 118.8 55.96 118.93 55.96 119.05 55.95 119.18 55.95 119.3 55.95 119.43 55.94 119.56 55.94 119.68 55.94 119.81 55.93 119.93 55.93 120.06 55.92 120.18 55.92 120.31 55.92 120.43 55.91 120.56 55.91 120.68 55.91 120.81 55.9 120.94 55.9 121.06 55.89 121.19 55.89 121.31 55.89 121.44 55.88 121.56 55.88 121.69 55.88 121.81 55.87 121.94 55.87 122.06 55.87 122.19 55.86 122.32 55.86 122.44 55.86 122.57 55.85 122.69 55.85 122.82 55.85 122.94 55.85 123.07 55.84 123.19 55.84 123.32 55.84 123.44 55.83 123.57 55.83 123.7 55.83 123.82 55.83 123.95 55.82 124.07 55.82 124.2 55.82 124.32 55.81 124.45 55.81 124.57 55.81 124.7 55.81 124.82 55.81 124.95 55.8 125.08 55.8 125.2 55.8 125.33 55.8 125.45 55.79 125.58 55.79 125.7 55.79 125.83 55.79 125.95 55.79 126.08 55.78 126.2 55.78 126.33 55.78 126.46 55.78 126.58 55.78 126.71 55.78 126.83 55.78 126.96 55.77 127.08 55.77 127.21 55.77 127.33 55.77 127.46 55.77 127.58 55.77 127.71 55.77 127.84 55.77 127.96 55.76 128.09 55.76 128.21 55.76 128.34 55.76 128.46 55.76 128.59 55.76 128.71 55.76 128.84 55.76 128.96 55.76 129.09 55.76 129.22 55.76 129.34 55.76 129.47 55.76 129.59 55.76 129.72 55.76 129.84 55.76 129.97 55.76 130.09 55.76 130.22 55.76 130.34 55.76 130.47 55.76 130.6 55.76 130.72 55.76 130.85 55.76 130.97 55.76 131.1 55.76 131.22 55.76 131.35 55.76 131.47 55.76 131.6 55.76 131.72 55.76 131.85 55.76 131.98 55.76 132.1 55.76 132.23 55.76 132.35 55.76 132.48 55.76 132.6 55.76 132.73 55.76 132.85 55.77 132.98 55.77 133.1 55.77 133.23 55.77 133.36 55.77 133.48 55.77 133.61 55.77 133.73 55.77 133.86 55.77 133.98 55.77 134.11 55.78 134.23 55.78 134.36 55.78 134.48 55.78 134.61 55.78 134.74 55.78 134.86 55.78 134.99 55.79 135.11 55.79 135.24 55.79 135.36 55.79 135.49 55.79 135.61 55.79 135.74 55.79 135.86 55.8 135.99 55.8 136.12 55.8 136.24 55.8 136.37 55.8 136.49 55.8 136.62 55.8 136.74 55.81 136.87 55.81 136.99 55.81 137.12 55.81 137.25 55.81 137.37 55.81 137.5 55.82 137.62 55.82 137.75 55.82 137.87 55.82 138 55.82 138.12 55.82 138.25 55.83 138.37 55.83 138.5 55.83 138.63 55.83 138.75 55.83 138.88 55.83 139 55.84 139.13 55.84 139.25 55.84 139.38 55.84 139.5 55.84 139.63 55.85 139.75 55.85 139.88 55.85 140.01 55.85 140.13 55.85 140.26 55.85 140.38 55.86 140.51 55.86 140.63 55.86 140.76 55.86 140.88 55.86 141.01 55.86 141.13 55.87 141.26 55.87 141.39 55.87 141.51 55.87 141.64 55.87 141.76 55.87 141.89 55.87 142.01 55.88 142.14 55.88 142.26 55.88 142.39 55.88 142.51 55.88 142.64 55.88 142.77 55.88 142.89 55.89 143.02 55.89 143.14 55.89 143.27 55.89 143.39 55.89 143.52 55.89 143.64 55.89 143.77 55.9 143.89 55.9 144.02 55.9 144.15 55.9 144.27 55.9 144.4 55.9 144.52 55.9 144.65 55.9 144.77 55.9 144.9 55.91 145.02 55.91 145.15 55.91 145.27 55.91 145.4 55.91"/>
      </g>
      <g stroke-width="0.3" fill="#000000" fill-opacity="0.000" class="geometry" stroke-dasharray="none" stroke="#FFA500" id="img-5b27b499-11">
        <path fill="none" d="M19.94,7 L 20.06 7.01 20.19 7.04 20.32 7.09 20.44 7.15 20.57 7.24 20.69 7.34 20.82 7.47 20.94 7.61 21.07 7.77 21.19 7.94 21.32 8.14 21.44 8.35 21.57 8.57 21.7 8.82 21.82 9.08 21.95 9.35 22.07 9.64 22.2 9.95 22.32 10.27 22.45 10.61 22.57 10.96 22.7 11.33 22.82 11.71 22.95 12.11 23.08 12.51 23.2 12.94 23.33 13.37 23.45 13.82 23.58 14.27 23.7 14.75 23.83 15.23 23.95 15.72 24.08 16.23 24.2 16.74 24.33 17.27 24.46 17.81 24.58 18.35 24.71 18.91 24.83 19.47 24.96 20.05 25.08 20.63 25.21 21.22 25.33 21.82 25.46 22.42 25.58 23.04 25.71 23.66 25.84 24.28 25.96 24.92 26.09 25.56 26.21 26.2 26.34 26.85 26.46 27.51 26.59 28.17 26.71 28.83 26.84 29.5 26.96 30.17 27.09 30.85 27.22 31.53 27.34 32.21 27.47 32.9 27.59 33.58 27.72 34.27 27.84 34.96 27.97 35.66 28.09 36.35 28.22 37.05 28.35 37.74 28.47 38.44 28.6 39.13 28.72 39.83 28.85 40.52 28.97 41.22 29.1 41.91 29.22 42.6 29.35 43.29 29.47 43.98 29.6 44.66 29.73 45.35 29.85 46.03 29.98 46.71 30.1 47.38 30.23 48.05 30.35 48.72 30.48 49.39 30.6 50.05 30.73 50.7 30.85 51.35 30.98 52 31.11 52.64 31.23 53.28 31.36 53.91 31.48 54.54 31.61 55.16 31.73 55.77 31.86 56.38 31.98 56.98 32.11 57.58 32.23 58.17 32.36 58.75 32.49 59.33 32.61 59.89 32.74 60.46 32.86 61.01 32.99 61.56 33.11 62.09 33.24 62.62 33.36 63.15 33.49 63.66 33.61 64.17 33.74 64.67 33.87 65.16 33.99 65.64 34.12 66.11 34.24 66.57 34.37 67.03 34.49 67.47 34.62 67.91 34.74 68.34 34.87 68.76 34.99 69.16 35.12 69.56 35.25 69.95 35.37 70.34 35.5 70.71 35.62 71.07 35.75 71.42 35.87 71.76 36 72.09 36.12 72.42 36.25 72.73 36.37 73.03 36.5 73.33 36.63 73.61 36.75 73.88 36.88 74.15 37 74.4 37.13 74.65 37.25 74.88 37.38 75.1 37.5 75.32 37.63 75.52 37.75 75.72 37.88 75.9 38.01 76.08 38.13 76.24 38.26 76.4 38.38 76.54 38.51 76.68 38.63 76.81 38.76 76.92 38.88 77.03 39.01 77.13 39.13 77.22 39.26 77.3 39.39 77.37 39.51 77.43 39.64 77.48 39.76 77.52 39.89 77.55 40.01 77.58 40.14 77.59 40.26 77.6 40.39 77.6 40.51 77.59 40.64 77.57 40.77 77.54 40.89 77.5 41.02 77.46 41.14 77.41 41.27 77.34 41.39 77.28 41.52 77.2 41.64 77.12 41.77 77.02 41.89 76.93 42.02 76.82 42.15 76.71 42.27 76.58 42.4 76.46 42.52 76.32 42.65 76.18 42.77 76.03 42.9 75.88 43.02 75.71 43.15 75.55 43.27 75.37 43.4 75.19 43.53 75.01 43.65 74.82 43.78 74.62 43.9 74.42 44.03 74.21 44.15 74 44.28 73.78 44.4 73.55 44.53 73.33 44.65 73.09 44.78 72.86 44.91 72.61 45.03 72.37 45.16 72.12 45.28 71.86 45.41 71.61 45.53 71.34 45.66 71.08 45.78 70.81 45.91 70.54 46.04 70.26 46.16 69.99 46.29 69.71 46.41 69.42 46.54 69.14 46.66 68.85 46.79 68.56 46.91 68.26 47.04 67.97 47.16 67.67 47.29 67.37 47.42 67.07 47.54 66.77 47.67 66.47 47.79 66.16 47.92 65.86 48.04 65.55 48.17 65.25 48.29 64.94 48.42 64.63 48.54 64.32 48.67 64.01 48.8 63.7 48.92 63.39 49.05 63.09 49.17 62.78 49.3 62.47 49.42 62.16 49.55 61.85 49.67 61.55 49.8 61.24 49.92 60.93 50.05 60.63 50.18 60.33 50.3 60.03 50.43 59.73 50.55 59.43 50.68 59.13 50.8 58.83 50.93 58.54 51.05 58.25 51.18 57.96 51.3 57.67 51.43 57.38 51.56 57.1 51.68 56.82 51.81 56.54 51.93 56.26 52.06 55.99 52.18 55.72 52.31 55.45 52.43 55.18 52.56 54.92 52.68 54.66 52.81 54.41 52.94 54.15 53.06 53.9 53.19 53.66 53.31 53.41 53.44 53.17 53.56 52.94 53.69 52.7 53.81 52.47 53.94 52.25 54.06 52.02 54.19 51.81 54.32 51.59 54.44 51.38 54.57 51.17 54.69 50.97 54.82 50.77 54.94 50.58 55.07 50.39 55.19 50.2 55.32 50.02 55.44 49.84 55.57 49.66 55.7 49.49 55.82 49.33 55.95 49.16 56.07 49.01 56.2 48.85 56.32 48.7 56.45 48.56 56.57 48.42 56.7 48.28 56.82 48.15 56.95 48.03 57.08 47.9 57.2 47.78 57.33 47.67 57.45 47.56 57.58 47.46 57.7 47.36 57.83 47.26 57.95 47.17 58.08 47.08 58.2 47 58.33 46.92 58.46 46.84 58.58 46.77 58.71 46.71 58.83 46.65 58.96 46.59 59.08 46.54 59.21 46.49 59.33 46.44 59.46 46.4 59.58 46.37 59.71 46.33 59.84 46.31 59.96 46.28 60.09 46.26 60.21 46.25 60.34 46.23 60.46 46.23 60.59 46.22 60.71 46.22 60.84 46.23 60.96 46.23 61.09 46.25 61.22 46.26 61.34 46.28 61.47 46.3 61.59 46.33 61.72 46.36 61.84 46.39 61.97 46.43 62.09 46.47 62.22 46.51 62.34 46.56 62.47 46.61 62.6 46.66 62.72 46.72 62.85 46.78 62.97 46.84 63.1 46.9 63.22 46.97 63.35 47.04 63.47 47.12 63.6 47.19 63.72 47.27 63.85 47.35 63.98 47.44 64.1 47.53 64.23 47.61 64.35 47.71 64.48 47.8 64.6 47.9 64.73 48 64.85 48.1 64.98 48.2 65.11 48.3 65.23 48.41 65.36 48.52 65.48 48.63 65.61 48.74 65.73 48.86 65.86 48.97 65.98 49.09 66.11 49.21 66.23 49.33 66.36 49.45 66.49 49.58 66.61 49.7 66.74 49.83 66.86 49.95 66.99 50.08 67.11 50.21 67.24 50.34 67.36 50.47 67.49 50.6 67.61 50.73 67.74 50.87 67.87 51 67.99 51.14 68.12 51.27 68.24 51.41 68.37 51.54 68.49 51.68 68.62 51.82 68.74 51.95 68.87 52.09 68.99 52.23 69.12 52.36 69.25 52.5 69.37 52.64 69.5 52.78 69.62 52.91 69.75 53.05 69.87 53.19 70 53.32 70.12 53.46 70.25 53.6 70.37 53.73 70.5 53.87 70.63 54 70.75 54.13 70.88 54.27 71 54.4 71.13 54.53 71.25 54.66 71.38 54.79 71.5 54.92 71.63 55.05 71.75 55.18 71.88 55.3 72.01 55.43 72.13 55.55 72.26 55.67 72.38 55.8 72.51 55.92 72.63 56.04 72.76 56.16 72.88 56.27 73.01 56.39 73.13 56.5 73.26 56.62 73.39 56.73 73.51 56.84 73.64 56.95 73.76 57.05 73.89 57.16 74.01 57.26 74.14 57.36 74.26 57.47 74.39 57.56 74.51 57.66 74.64 57.76 74.77 57.85 74.89 57.94 75.02 58.04 75.14 58.12 75.27 58.21 75.39 58.3 75.52 58.38 75.64 58.46 75.77 58.54 75.89 58.62 76.02 58.7 76.15 58.77 76.27 58.84 76.4 58.91 76.52 58.98 76.65 59.05 76.77 59.11 76.9 59.18 77.02 59.24 77.15 59.3 77.27 59.35 77.4 59.41 77.53 59.46 77.65 59.51 77.78 59.56 77.9 59.61 78.03 59.65 78.15 59.7 78.28 59.74 78.4 59.78 78.53 59.81 78.65 59.85 78.78 59.88 78.91 59.92 79.03 59.94 79.16 59.97 79.28 60 79.41 60.02 79.53 60.04 79.66 60.06 79.78 60.08 79.91 60.1 80.03 60.11 80.16 60.13 80.29 60.14 80.41 60.15 80.54 60.16 80.66 60.16 80.79 60.16 80.91 60.17 81.04 60.17 81.16 60.17 81.29 60.16 81.41 60.16 81.54 60.15 81.67 60.14 81.79 60.13 81.92 60.12 82.04 60.11 82.17 60.1 82.29 60.08 82.42 60.06 82.54 60.04 82.67 60.02 82.8 60 82.92 59.98 83.05 59.95 83.17 59.93 83.3 59.9 83.42 59.87 83.55 59.84 83.67 59.81 83.8 59.78 83.92 59.74 84.05 59.71 84.18 59.67 84.3 59.64 84.43 59.6 84.55 59.56 84.68 59.52 84.8 59.48 84.93 59.43 85.05 59.39 85.18 59.35 85.3 59.3 85.43 59.25 85.56 59.21 85.68 59.16 85.81 59.11 85.93 59.06 86.06 59.01 86.18 58.96 86.31 58.91 86.43 58.85 86.56 58.8 86.68 58.75 86.81 58.69 86.94 58.64 87.06 58.58 87.19 58.52 87.31 58.47 87.44 58.41 87.56 58.35 87.69 58.29 87.81 58.24 87.94 58.18 88.06 58.12 88.19 58.06 88.32 58 88.44 57.94 88.57 57.88 88.69 57.82 88.82 57.76 88.94 57.7 89.07 57.64 89.19 57.57 89.32 57.51 89.44 57.45 89.57 57.39 89.7 57.33 89.82 57.27 89.95 57.21 90.07 57.15 90.2 57.09 90.32 57.03 90.45 56.97 90.57 56.91 90.7 56.85 90.82 56.79 90.95 56.73 91.08 56.67 91.2 56.61 91.33 56.55 91.45 56.49 91.58 56.43 91.7 56.37 91.83 56.32 91.95 56.26 92.08 56.2 92.2 56.15 92.33 56.09 92.46 56.03 92.58 55.98 92.71 55.93 92.83 55.87 92.96 55.82 93.08 55.77 93.21 55.71 93.33 55.66 93.46 55.61 93.58 55.56 93.71 55.51 93.84 55.46 93.96 55.41 94.09 55.37 94.21 55.32 94.34 55.27 94.46 55.23 94.59 55.18 94.71 55.14 94.84 55.09 94.96 55.05 95.09 55.01 95.22 54.97 95.34 54.93 95.47 54.89 95.59 54.85 95.72 54.81 95.84 54.77 95.97 54.74 96.09 54.7 96.22 54.67 96.34 54.63 96.47 54.6 96.6 54.57 96.72 54.53 96.85 54.5 96.97 54.47 97.1 54.45 97.22 54.42 97.35 54.39 97.47 54.36 97.6 54.34 97.72 54.31 97.85 54.29 97.98 54.27 98.1 54.24 98.23 54.22 98.35 54.2 98.48 54.18 98.6 54.17 98.73 54.15 98.85 54.13 98.98 54.11 99.1 54.1 99.23 54.09 99.36 54.07 99.48 54.06 99.61 54.05 99.73 54.04 99.86 54.03 99.98 54.02 100.11 54.01 100.23 54 100.36 53.99 100.49 53.99 100.61 53.98 100.74 53.98 100.86 53.98 100.99 53.97 101.11 53.97 101.24 53.97 101.36 53.97 101.49 53.97 101.61 53.97 101.74 53.97 101.87 53.98 101.99 53.98 102.12 53.98 102.24 53.99 102.37 53.99 102.49 54 102.62 54.01 102.74 54.01 102.87 54.02 102.99 54.03 103.12 54.04 103.25 54.05 103.37 54.06 103.5 54.07 103.62 54.09 103.75 54.1 103.87 54.11 104 54.12 104.12 54.14 104.25 54.15 104.37 54.17 104.5 54.19 104.63 54.2 104.75 54.22 104.88 54.24 105 54.25 105.13 54.27 105.25 54.29 105.38 54.31 105.5 54.33 105.63 54.35 105.75 54.37 105.88 54.39 106.01 54.41 106.13 54.43 106.26 54.46 106.38 54.48 106.51 54.5 106.63 54.52 106.76 54.55 106.88 54.57 107.01 54.6 107.13 54.62 107.26 54.64 107.39 54.67 107.51 54.69 107.64 54.72 107.76 54.74 107.89 54.77 108.01 54.8 108.14 54.82 108.26 54.85 108.39 54.87 108.51 54.9 108.64 54.93 108.77 54.95 108.89 54.98 109.02 55.01 109.14 55.03 109.27 55.06 109.39 55.09 109.52 55.12 109.64 55.14 109.77 55.17 109.89 55.2 110.02 55.22 110.15 55.25 110.27 55.28 110.4 55.31 110.52 55.33 110.65 55.36 110.77 55.39 110.9 55.41 111.02 55.44 111.15 55.47 111.27 55.49 111.4 55.52 111.53 55.55 111.65 55.57 111.78 55.6 111.9 55.62 112.03 55.65 112.15 55.68 112.28 55.7 112.4 55.73 112.53 55.75 112.65 55.78 112.78 55.8 112.91 55.82 113.03 55.85 113.16 55.87 113.28 55.9 113.41 55.92 113.53 55.94 113.66 55.97 113.78 55.99 113.91 56.01 114.03 56.03 114.16 56.06 114.29 56.08 114.41 56.1 114.54 56.12 114.66 56.14 114.79 56.16 114.91 56.18 115.04 56.2 115.16 56.22 115.29 56.24 115.41 56.26 115.54 56.28 115.67 56.29 115.79 56.31 115.92 56.33 116.04 56.35 116.17 56.36 116.29 56.38 116.42 56.4 116.54 56.41 116.67 56.43 116.79 56.44 116.92 56.46 117.05 56.47 117.17 56.48 117.3 56.5 117.42 56.51 117.55 56.52 117.67 56.53 117.8 56.55 117.92 56.56 118.05 56.57 118.17 56.58 118.3 56.59 118.43 56.6 118.55 56.61 118.68 56.62 118.8 56.63 118.93 56.64 119.05 56.64 119.18 56.65 119.3 56.66 119.43 56.66 119.56 56.67 119.68 56.68 119.81 56.68 119.93 56.69 120.06 56.69 120.18 56.7 120.31 56.7 120.43 56.71 120.56 56.71 120.68 56.71 120.81 56.72 120.94 56.72 121.06 56.72 121.19 56.72 121.31 56.72 121.44 56.72 121.56 56.72 121.69 56.72 121.81 56.72 121.94 56.72 122.06 56.72 122.19 56.72 122.32 56.72 122.44 56.72 122.57 56.72 122.69 56.71 122.82 56.71 122.94 56.71 123.07 56.71 123.19 56.7 123.32 56.7 123.44 56.69 123.57 56.69 123.7 56.68 123.82 56.68 123.95 56.67 124.07 56.67 124.2 56.66 124.32 56.66 124.45 56.65 124.57 56.64 124.7 56.64 124.82 56.63 124.95 56.62 125.08 56.62 125.2 56.61 125.33 56.6 125.45 56.59 125.58 56.58 125.7 56.57 125.83 56.57 125.95 56.56 126.08 56.55 126.2 56.54 126.33 56.53 126.46 56.52 126.58 56.51 126.71 56.5 126.83 56.49 126.96 56.48 127.08 56.47 127.21 56.46 127.33 56.45 127.46 56.44 127.58 56.43 127.71 56.42 127.84 56.4 127.96 56.39 128.09 56.38 128.21 56.37 128.34 56.36 128.46 56.35 128.59 56.34 128.71 56.32 128.84 56.31 128.96 56.3 129.09 56.29 129.22 56.28 129.34 56.27 129.47 56.25 129.59 56.24 129.72 56.23 129.84 56.22 129.97 56.21 130.09 56.19 130.22 56.18 130.34 56.17 130.47 56.16 130.6 56.15 130.72 56.13 130.85 56.12 130.97 56.11 131.1 56.1 131.22 56.09 131.35 56.07 131.47 56.06 131.6 56.05 131.72 56.04 131.85 56.03 131.98 56.01 132.1 56 132.23 55.99 132.35 55.98 132.48 55.97 132.6 55.96 132.73 55.95 132.85 55.94 132.98 55.92 133.1 55.91 133.23 55.9 133.36 55.89 133.48 55.88 133.61 55.87 133.73 55.86 133.86 55.85 133.98 55.84 134.11 55.83 134.23 55.82 134.36 55.81 134.48 55.8 134.61 55.79 134.74 55.78 134.86 55.77 134.99 55.76 135.11 55.75 135.24 55.74 135.36 55.73 135.49 55.73 135.61 55.72 135.74 55.71 135.86 55.7 135.99 55.69 136.12 55.69 136.24 55.68 136.37 55.67 136.49 55.66 136.62 55.66 136.74 55.65 136.87 55.64 136.99 55.63 137.12 55.63 137.25 55.62 137.37 55.61 137.5 55.61 137.62 55.6 137.75 55.6 137.87 55.59 138 55.59 138.12 55.58 138.25 55.58 138.37 55.57 138.5 55.57 138.63 55.56 138.75 55.56 138.88 55.55 139 55.55 139.13 55.54 139.25 55.54 139.38 55.54 139.5 55.53 139.63 55.53 139.75 55.53 139.88 55.52 140.01 55.52 140.13 55.52 140.26 55.52 140.38 55.51 140.51 55.51 140.63 55.51 140.76 55.51 140.88 55.51 141.01 55.51 141.13 55.5 141.26 55.5 141.39 55.5 141.51 55.5 141.64 55.5 141.76 55.5 141.89 55.5 142.01 55.5 142.14 55.5 142.26 55.5 142.39 55.5 142.51 55.5 142.64 55.5 142.77 55.5 142.89 55.5 143.02 55.5 143.14 55.51 143.27 55.51 143.39 55.51 143.52 55.51 143.64 55.51 143.77 55.51 143.89 55.52 144.02 55.52 144.15 55.52 144.27 55.52 144.4 55.52 144.52 55.53 144.65 55.53 144.77 55.53 144.9 55.53 145.02 55.54 145.15 55.54 145.27 55.54 145.4 55.55"/>
      </g>
    </g>
  </g>
</g>
  <g class="guide ylabels" font-size="2.82" font-family="'PT Sans Caption','Helvetica Neue','Helvetica',sans-serif" fill="#6C606B" id="img-5b27b499-12">
    <text x="16.94" y="80.32" text-anchor="end" dy="0.35em">-0.5</text>
    <text x="16.94" y="55.88" text-anchor="end" dy="0.35em">0.0</text>
    <text x="16.94" y="31.44" text-anchor="end" dy="0.35em">0.5</text>
    <text x="16.94" y="7" text-anchor="end" dy="0.35em">1.0</text>
  </g>
  <g font-size="3.88" font-family="'PT Sans','Helvetica Neue','Helvetica',sans-serif" fill="#564A55" stroke="#000000" stroke-opacity="0.000" id="img-5b27b499-13">
    <text x="8.81" y="43.66" text-anchor="end" dy="0.35em">y</text>
  </g>
</g>
<defs>
  <clipPath id="img-5b27b499-4">
  <path d="M17.94,5 L 147.4 5 147.4 82.32 17.94 82.32" />
</clipPath>
</defs>
</svg>
