<?xml version="1.0" encoding="UTF-8"?>
<svg xmlns="http://www.w3.org/2000/svg"
     xmlns:xlink="http://www.w3.org/1999/xlink"
     xmlns:gadfly="http://www.gadflyjl.org/ns"
     version="1.2"
     width="203.2mm" height="101.6mm" viewBox="0 0 203.2 101.6"
     stroke="none"
     fill="#000000"
     stroke-width="0.3"
     font-size="3.88"
>
<defs>
  <marker id="arrow" markerWidth="15" markerHeight="7" refX="5" refY="3.5" orient="auto" markerUnits="strokeWidth">
    <path d="M0,0 L15,3.5 L0,7 z" stroke="context-stroke" fill="context-stroke"/>
  </marker>
</defs>
<g class="plotroot xscalable yscalable" id="img-fd48a40c-1">
  <g class="guide xlabels" font-size="2.82" font-family="'PT Sans Caption','Helvetica Neue','Helvetica',sans-serif" fill="#6C606B" id="img-fd48a40c-2">
    <g transform="translate(12.88,93.48)">
      <g class="primitive">
        <text text-anchor="middle" dy="0.6em">0</text>
      </g>
    </g>
    <g transform="translate(49.54,93.48)">
      <g class="primitive">
        <text text-anchor="middle" dy="0.6em">1</text>
      </g>
    </g>
    <g transform="translate(86.21,93.48)">
      <g class="primitive">
        <text text-anchor="middle" dy="0.6em">2</text>
      </g>
    </g>
    <g transform="translate(122.87,93.48)">
      <g class="primitive">
        <text text-anchor="middle" dy="0.6em">3</text>
      </g>
    </g>
    <g transform="translate(159.54,93.48)">
      <g class="primitive">
        <text text-anchor="middle" dy="0.6em">4</text>
      </g>
    </g>
    <g transform="translate(196.2,93.48)">
      <g class="primitive">
        <text text-anchor="middle" dy="0.6em">5</text>
      </g>
    </g>
  </g>
  <g clip-path="url(#img-fd48a40c-3)">
    <g id="img-fd48a40c-4">
      <g pointer-events="visible" stroke-width="0.3" fill="#000000" fill-opacity="0.000" stroke="#000000" stroke-opacity="0.000" class="guide background" id="img-fd48a40c-5">
        <g transform="translate(104.54,48.74)" id="img-fd48a40c-6">
          <path d="M-93.66,-43.74 L93.66,-43.74 93.66,43.74 -93.66,43.74  z" class="primitive"/>
        </g>
      </g>
      <g class="guide ygridlines xfixed" stroke-dasharray="0.5,0.5" stroke-width="0.2" stroke="#D0D0E0" id="img-fd48a40c-7">
        <g transform="translate(104.54,90.48)" id="img-fd48a40c-8">
          <path fill="none" d="M-93.66,0 L93.66,0 " class="primitive"/>
        </g>
        <g transform="translate(104.54,73.79)" id="img-fd48a40c-9">
          <path fill="none" d="M-93.66,0 L93.66,0 " class="primitive"/>
        </g>
        <g transform="translate(104.54,57.09)" id="img-fd48a40c-10">
          <path fill="none" d="M-93.66,0 L93.66,0 " class="primitive"/>
        </g>
        <g transform="translate(104.54,40.39)" id="img-fd48a40c-11">
          <path fill="none" d="M-93.66,0 L93.66,0 " class="primitive"/>
        </g>
        <g transform="translate(104.54,23.7)" id="img-fd48a40c-12">
          <path fill="none" d="M-93.66,0 L93.66,0 " class="primitive"/>
        </g>
        <g transform="translate(104.54,7)" id="img-fd48a40c-13">
          <path fill="none" d="M-93.66,0 L93.66,0 " class="primitive"/>
        </g>
      </g>
      <g class="guide xgridlines yfixed" stroke-dasharray="0.5,0.5" stroke-width="0.2" stroke="#D0D0E0" id="img-fd48a40c-14">
        <g transform="translate(12.88,48.74)" id="img-fd48a40c-15">
          <path fill="none" d="M0,-43.74 L0,43.74 " class="primitive"/>
        </g>
        <g transform="translate(49.54,48.74)" id="img-fd48a40c-16">
          <path fill="none" d="M0,-43.74 L0,43.74 " class="primitive"/>
        </g>
        <g transform="translate(86.21,48.74)" id="img-fd48a40c-17">
          <path fill="none" d="M0,-43.74 L0,43.74 " class="primitive"/>
        </g>
        <g transform="translate(122.87,48.74)" id="img-fd48a40c-18">
          <path fill="none" d="M0,-43.74 L0,43.74 " class="primitive"/>
        </g>
        <g transform="translate(159.54,48.74)" id="img-fd48a40c-19">
          <path fill="none" d="M0,-43.74 L0,43.74 " class="primitive"/>
        </g>
        <g transform="translate(196.2,48.74)" id="img-fd48a40c-20">
          <path fill="none" d="M0,-43.74 L0,43.74 " class="primitive"/>
        </g>
      </g>
      <g class="plotpanel" id="img-fd48a40c-21">
        <metadata>
          <boundingbox value="10.88055555555556mm 5.0mm 187.31944444444446mm 87.48333333333333mm"/>
          <unitbox value="-0.05454958708993105 6.239568776202835 5.109099174179862 -10.479137552405671"/>
        </metadata>
        <g stroke-width="0.71" fill="#000000" fill-opacity="0.000" class="geometry" id="img-fd48a40c-22">
          <g transform="translate(104.54,35.78)" id="img-fd48a40c-23" stroke-dasharray="none" stroke="#FF0000" class="color_97">
            <path fill="none" d="M-91.66,21.13 L-55,12.9 -18.33,4.42 18.33,-4.16 55,-12.8 91.66,-21.49 " class="primitive"/>
          </g>
          <g transform="translate(104.54,34.87)" id="img-fd48a40c-24" stroke-dasharray="none" stroke="#0000FF" class="color_98">
            <path fill="none" d="M-91.66,21.89 L-55,13.9 -18.33,5.58 18.33,-3.4 55,-13.35 91.66,-24.61 " class="primitive"/>
          </g>
          <g transform="translate(104.54,35.83)" id="img-fd48a40c-25" stroke-dasharray="none" stroke="#008000" class="color_99">
            <path fill="none" d="M-91.66,21.08 L-55,12.82 -18.33,4.36 18.33,-4.17 55,-12.74 91.66,-21.36 " class="primitive"/>
          </g>
          <g transform="translate(104.54,35.81)" id="img-fd48a40c-26" stroke-dasharray="none" stroke="#00FFFF" class="color_100">
            <path fill="none" d="M-91.66,21.1 L-55,12.87 -18.33,4.4 18.33,-4.16 55,-12.78 91.66,-21.44 " class="primitive"/>
          </g>
          <g transform="translate(104.54,35.09)" id="img-fd48a40c-27" stroke-dasharray="none" stroke="#FF00FF" class="color_95">
            <path fill="none" d="M-91.66,21.68 L-55,13.68 -18.33,5.33 18.33,-3.6 55,-13.26 91.66,-23.83 " class="primitive"/>
          </g>
          <g transform="translate(104.54,35.84)" id="img-fd48a40c-28" stroke-dasharray="none" stroke="#FFFF00" class="color_96">
            <path fill="none" d="M-91.66,21.09 L-55,12.82 -18.33,4.36 18.33,-4.17 55,-12.75 91.66,-21.36 " class="primitive"/>
          </g>
          <g transform="translate(104.54,35.83)" id="img-fd48a40c-29" stroke-dasharray="none" stroke="#FF0000" class="color_97">
            <path fill="none" d="M-91.66,21.09 L-55,12.84 -18.33,4.38 18.33,-4.17 55,-12.76 91.66,-21.39 " class="primitive"/>
          </g>
          <g transform="translate(104.54,35.82)" id="img-fd48a40c-30" stroke-dasharray="none" stroke="#0000FF" class="color_98">
            <path fill="none" d="M-91.66,21.09 L-55,12.82 -18.33,4.36 18.33,-4.17 55,-12.75 91.66,-21.36 " class="primitive"/>
          </g>
          <g transform="translate(104.54,34.87)" id="img-fd48a40c-31" stroke-dasharray="none" stroke="#008000" class="color_99">
            <path fill="none" d="M-91.66,21.89 L-55,13.9 -18.33,5.58 18.33,-3.4 55,-13.35 91.66,-24.62 " class="primitive"/>
          </g>
          <g transform="translate(104.54,35.82)" id="img-fd48a40c-32" stroke-dasharray="none" stroke="#00FFFF" class="color_100">
            <path fill="none" d="M-91.66,21.1 L-55,12.84 -18.33,4.38 18.33,-4.17 55,-12.76 91.66,-21.39 " class="primitive"/>
          </g>
          <g transform="translate(104.54,35.83)" id="img-fd48a40c-33" stroke-dasharray="none" stroke="#FF00FF" class="color_95">
            <path fill="none" d="M-91.66,21.09 L-55,12.83 -18.33,4.37 18.33,-4.17 55,-12.75 91.66,-21.37 " class="primitive"/>
          </g>
          <g transform="translate(104.54,36)" id="img-fd48a40c-34" stroke-dasharray="none" stroke="#FFFF00" class="color_96">
            <path fill="none" d="M-91.66,21.09 L-55,12.46 -18.33,4.12 18.33,-4.22 55,-12.56 91.66,-20.89 " class="primitive"/>
          </g>
          <g transform="translate(104.54,34.87)" id="img-fd48a40c-35" stroke-dasharray="none" stroke="#FF0000" class="color_97">
            <path fill="none" d="M-91.66,21.89 L-55,13.9 -18.33,5.58 18.33,-3.4 55,-13.35 91.66,-24.62 " class="primitive"/>
          </g>
          <g transform="translate(104.54,34.94)" id="img-fd48a40c-36" stroke-dasharray="none" stroke="#0000FF" class="color_98">
            <path fill="none" d="M-91.66,21.83 L-55,13.83 -18.33,5.5 18.33,-3.46 55,-13.33 91.66,-24.38 " class="primitive"/>
          </g>
          <g transform="translate(104.54,34.87)" id="img-fd48a40c-37" stroke-dasharray="none" stroke="#008000" class="color_99">
            <path fill="none" d="M-91.66,21.89 L-55,13.9 -18.33,5.58 18.33,-3.4 55,-13.35 91.66,-24.61 " class="primitive"/>
          </g>
          <g transform="translate(104.54,35.84)" id="img-fd48a40c-38" stroke-dasharray="none" stroke="#00FFFF" class="color_100">
            <path fill="none" d="M-91.66,21.08 L-55,12.82 -18.33,4.36 18.33,-4.17 55,-12.74 91.66,-21.35 " class="primitive"/>
          </g>
          <g transform="translate(104.54,35.87)" id="img-fd48a40c-39" stroke-dasharray="none" stroke="#FF00FF" class="color_95">
            <path fill="none" d="M-91.66,21.08 L-55,12.76 -18.33,4.31 18.33,-4.19 55,-12.71 91.66,-21.26 " class="primitive"/>
          </g>
          <g transform="translate(104.54,36)" id="img-fd48a40c-40" stroke-dasharray="none" stroke="#FFFF00" class="color_96">
            <path fill="none" d="M-91.66,21.09 L-55,12.46 -18.33,4.12 18.33,-4.22 55,-12.56 91.66,-20.89 " class="primitive"/>
          </g>
          <g transform="translate(104.54,35.86)" id="img-fd48a40c-41" stroke-dasharray="none" stroke="#FF0000" class="color_97">
            <path fill="none" d="M-91.66,21.08 L-55,12.78 -18.33,4.33 18.33,-4.18 55,-12.72 91.66,-21.29 " class="primitive"/>
          </g>
          <g transform="translate(104.54,34.87)" id="img-fd48a40c-42" stroke-dasharray="none" stroke="#0000FF" class="color_98">
            <path fill="none" d="M-91.66,21.89 L-55,13.9 -18.33,5.58 18.33,-3.4 55,-13.35 91.66,-24.62 " class="primitive"/>
          </g>
          <g transform="translate(104.54,36)" id="img-fd48a40c-43" stroke-dasharray="none" stroke="#008000" class="color_99">
            <path fill="none" d="M-91.66,21.09 L-55,12.46 -18.33,4.12 18.33,-4.22 55,-12.56 91.66,-20.89 " class="primitive"/>
          </g>
          <g transform="translate(104.54,36)" id="img-fd48a40c-44" stroke-dasharray="none" stroke="#00FFFF" class="color_100">
            <path fill="none" d="M-91.66,21.09 L-55,12.46 -18.33,4.12 18.33,-4.22 55,-12.56 91.66,-20.89 " class="primitive"/>
          </g>
          <g transform="translate(104.54,34.87)" id="img-fd48a40c-45" stroke-dasharray="none" stroke="#FF00FF" class="color_95">
            <path fill="none" d="M-91.66,21.89 L-55,13.9 -18.33,5.58 18.33,-3.4 55,-13.35 91.66,-24.62 " class="primitive"/>
          </g>
          <g transform="translate(104.54,36)" id="img-fd48a40c-46" stroke-dasharray="none" stroke="#FFFF00" class="color_96">
            <path fill="none" d="M-91.66,21.09 L-55,12.46 -18.33,4.12 18.33,-4.22 55,-12.56 91.66,-20.89 " class="primitive"/>
          </g>
          <g transform="translate(104.54,35.84)" id="img-fd48a40c-47" stroke-dasharray="none" stroke="#FF0000" class="color_97">
            <path fill="none" d="M-91.66,21.09 L-55,12.82 -18.33,4.36 18.33,-4.17 55,-12.74 91.66,-21.35 " class="primitive"/>
          </g>
          <g transform="translate(104.54,35.81)" id="img-fd48a40c-48" stroke-dasharray="none" stroke="#0000FF" class="color_98">
            <path fill="none" d="M-91.66,21.1 L-55,12.88 -18.33,4.41 18.33,-4.16 55,-12.78 91.66,-21.45 " class="primitive"/>
          </g>
          <g transform="translate(104.54,38.29)" id="img-fd48a40c-49" stroke-dasharray="none" stroke="#008000" class="color_99">
            <path fill="none" d="M-91.66,18.66 L-55,10.12 -18.33,2.48 18.33,-4.42 55,-10.63 91.66,-16.2 " class="primitive"/>
          </g>
          <g transform="translate(104.54,34.87)" id="img-fd48a40c-50" stroke-dasharray="none" stroke="#00FFFF" class="color_100">
            <path fill="none" d="M-91.66,21.89 L-55,13.9 -18.33,5.58 18.33,-3.4 55,-13.35 91.66,-24.62 " class="primitive"/>
          </g>
          <g transform="translate(104.54,35.77)" id="img-fd48a40c-51" stroke-dasharray="none" stroke="#FF00FF" class="color_95">
            <path fill="none" d="M-91.66,21.16 L-55,12.85 -18.33,4.36 18.33,-4.19 55,-12.78 91.66,-21.41 " class="primitive"/>
          </g>
          <g transform="translate(104.54,36)" id="img-fd48a40c-52" stroke-dasharray="none" stroke="#FFFF00" class="color_96">
            <path fill="none" d="M-91.66,21.09 L-55,12.46 -18.33,4.12 18.33,-4.22 55,-12.56 91.66,-20.89 " class="primitive"/>
          </g>
          <g transform="translate(104.54,35.82)" id="img-fd48a40c-53" stroke-dasharray="none" stroke="#FF0000" class="color_97">
            <path fill="none" d="M-91.66,21.09 L-55,12.84 -18.33,4.38 18.33,-4.16 55,-12.76 91.66,-21.39 " class="primitive"/>
          </g>
          <g transform="translate(104.54,35.82)" id="img-fd48a40c-54" stroke-dasharray="none" stroke="#0000FF" class="color_98">
            <path fill="none" d="M-91.66,21.09 L-55,12.84 -18.33,4.38 18.33,-4.16 55,-12.76 91.66,-21.39 " class="primitive"/>
          </g>
          <g transform="translate(104.54,34.88)" id="img-fd48a40c-55" stroke-dasharray="none" stroke="#008000" class="color_99">
            <path fill="none" d="M-91.66,21.89 L-55,13.9 -18.33,5.58 18.33,-3.4 55,-13.35 91.66,-24.61 " class="primitive"/>
          </g>
          <g transform="translate(104.54,34.87)" id="img-fd48a40c-56" stroke-dasharray="none" stroke="#00FFFF" class="color_100">
            <path fill="none" d="M-91.66,21.89 L-55,13.9 -18.33,5.58 18.33,-3.4 55,-13.35 91.66,-24.62 " class="primitive"/>
          </g>
          <g transform="translate(104.54,36)" id="img-fd48a40c-57" stroke-dasharray="none" stroke="#FF00FF" class="color_95">
            <path fill="none" d="M-91.66,21.09 L-55,12.46 -18.33,4.12 18.33,-4.22 55,-12.56 91.66,-20.89 " class="primitive"/>
          </g>
          <g transform="translate(104.54,34.87)" id="img-fd48a40c-58" stroke-dasharray="none" stroke="#FFFF00" class="color_96">
            <path fill="none" d="M-91.66,21.89 L-55,13.9 -18.33,5.58 18.33,-3.4 55,-13.35 91.66,-24.61 " class="primitive"/>
          </g>
          <g transform="translate(104.54,34.87)" id="img-fd48a40c-59" stroke-dasharray="none" stroke="#FF0000" class="color_97">
            <path fill="none" d="M-91.66,21.89 L-55,13.9 -18.33,5.58 18.33,-3.4 55,-13.35 91.66,-24.62 " class="primitive"/>
          </g>
          <g transform="translate(104.54,34.87)" id="img-fd48a40c-60" stroke-dasharray="none" stroke="#0000FF" class="color_98">
            <path fill="none" d="M-91.66,21.89 L-55,13.9 -18.33,5.58 18.33,-3.4 55,-13.35 91.66,-24.62 " class="primitive"/>
          </g>
          <g transform="translate(104.54,34.87)" id="img-fd48a40c-61" stroke-dasharray="none" stroke="#008000" class="color_99">
            <path fill="none" d="M-91.66,21.89 L-55,13.9 -18.33,5.58 18.33,-3.4 55,-13.35 91.66,-24.61 " class="primitive"/>
          </g>
          <g transform="translate(104.54,35.04)" id="img-fd48a40c-62" stroke-dasharray="none" stroke="#00FFFF" class="color_100">
            <path fill="none" d="M-91.66,21.73 L-55,13.72 -18.33,5.42 18.33,-3.47 55,-13.24 91.66,-24.16 " class="primitive"/>
          </g>
          <g transform="translate(104.54,36)" id="img-fd48a40c-63" stroke-dasharray="none" stroke="#FF00FF" class="color_95">
            <path fill="none" d="M-91.66,21.09 L-55,12.46 -18.33,4.12 18.33,-4.22 55,-12.56 91.66,-20.9 " class="primitive"/>
          </g>
          <g transform="translate(104.54,36)" id="img-fd48a40c-64" stroke-dasharray="none" stroke="#FFFF00" class="color_96">
            <path fill="none" d="M-91.66,21.09 L-55,12.46 -18.33,4.12 18.33,-4.22 55,-12.56 91.66,-20.89 " class="primitive"/>
          </g>
          <g transform="translate(104.54,34.87)" id="img-fd48a40c-65" stroke-dasharray="none" stroke="#FF0000" class="color_97">
            <path fill="none" d="M-91.66,21.89 L-55,13.9 -18.33,5.58 18.33,-3.4 55,-13.35 91.66,-24.62 " class="primitive"/>
          </g>
          <g transform="translate(104.54,34.87)" id="img-fd48a40c-66" stroke-dasharray="none" stroke="#0000FF" class="color_98">
            <path fill="none" d="M-91.66,21.89 L-55,13.9 -18.33,5.58 18.33,-3.4 55,-13.35 91.66,-24.61 " class="primitive"/>
          </g>
          <g transform="translate(104.54,35.81)" id="img-fd48a40c-67" stroke-dasharray="none" stroke="#008000" class="color_99">
            <path fill="none" d="M-91.66,21.1 L-55,12.86 -18.33,4.39 18.33,-4.16 55,-12.77 91.66,-21.42 " class="primitive"/>
          </g>
          <g transform="translate(104.54,35.81)" id="img-fd48a40c-68" stroke-dasharray="none" stroke="#00FFFF" class="color_100">
            <path fill="none" d="M-91.66,21.1 L-55,12.86 -18.33,4.4 18.33,-4.16 55,-12.77 91.66,-21.43 " class="primitive"/>
          </g>
          <g transform="translate(104.54,34.87)" id="img-fd48a40c-69" stroke-dasharray="none" stroke="#FF00FF" class="color_95">
            <path fill="none" d="M-91.66,21.89 L-55,13.9 -18.33,5.58 18.33,-3.4 55,-13.35 91.66,-24.61 " class="primitive"/>
          </g>
          <g transform="translate(104.54,35.81)" id="img-fd48a40c-70" stroke-dasharray="none" stroke="#FFFF00" class="color_96">
            <path fill="none" d="M-91.66,21.1 L-55,12.89 -18.33,4.42 18.33,-4.15 55,-12.79 91.66,-21.47 " class="primitive"/>
          </g>
          <g transform="translate(104.54,34.87)" id="img-fd48a40c-71" stroke-dasharray="none" stroke="#FF0000" class="color_97">
            <path fill="none" d="M-91.66,21.89 L-55,13.9 -18.33,5.58 18.33,-3.4 55,-13.35 91.66,-24.61 " class="primitive"/>
          </g>
          <g transform="translate(104.54,35.81)" id="img-fd48a40c-72" stroke-dasharray="none" stroke="#0000FF" class="color_98">
            <path fill="none" d="M-91.66,21.1 L-55,12.87 -18.33,4.4 18.33,-4.16 55,-12.77 91.66,-21.43 " class="primitive"/>
          </g>
          <g transform="translate(104.54,35.81)" id="img-fd48a40c-73" stroke-dasharray="none" stroke="#008000" class="color_99">
            <path fill="none" d="M-91.66,21.1 L-55,12.86 -18.33,4.39 18.33,-4.16 55,-12.77 91.66,-21.42 " class="primitive"/>
          </g>
          <g transform="translate(104.54,35.81)" id="img-fd48a40c-74" stroke-dasharray="none" stroke="#00FFFF" class="color_100">
            <path fill="none" d="M-91.66,21.1 L-55,12.87 -18.33,4.4 18.33,-4.16 55,-12.78 91.66,-21.44 " class="primitive"/>
          </g>
          <g transform="translate(104.54,35.04)" id="img-fd48a40c-75" stroke-dasharray="none" stroke="#FF00FF" class="color_95">
            <path fill="none" d="M-91.66,21.73 L-55,13.74 -18.33,5.39 18.33,-3.55 55,-13.29 91.66,-24.03 " class="primitive"/>
          </g>
          <g transform="translate(104.54,35.81)" id="img-fd48a40c-76" stroke-dasharray="none" stroke="#FFFF00" class="color_96">
            <path fill="none" d="M-91.66,21.1 L-55,12.87 -18.33,4.4 18.33,-4.16 55,-12.78 91.66,-21.44 " class="primitive"/>
          </g>
          <g transform="translate(104.54,35.82)" id="img-fd48a40c-77" stroke-dasharray="none" stroke="#FF0000" class="color_97">
            <path fill="none" d="M-91.66,21.1 L-55,12.84 -18.33,4.37 18.33,-4.17 55,-12.76 91.66,-21.39 " class="primitive"/>
          </g>
          <g transform="translate(104.54,35.82)" id="img-fd48a40c-78" stroke-dasharray="none" stroke="#0000FF" class="color_98">
            <path fill="none" d="M-91.66,21.11 L-55,12.86 -18.33,4.39 18.33,-4.17 55,-12.77 91.66,-21.41 " class="primitive"/>
          </g>
          <g transform="translate(104.54,36)" id="img-fd48a40c-79" stroke-dasharray="none" stroke="#008000" class="color_99">
            <path fill="none" d="M-91.66,21.09 L-55,12.46 -18.33,4.12 18.33,-4.22 55,-12.56 91.66,-20.89 " class="primitive"/>
          </g>
          <g transform="translate(104.54,36)" id="img-fd48a40c-80" stroke-dasharray="none" stroke="#00FFFF" class="color_100">
            <path fill="none" d="M-91.66,21.09 L-55,12.46 -18.33,4.12 18.33,-4.22 55,-12.56 91.66,-20.89 " class="primitive"/>
          </g>
          <g transform="translate(104.54,35.85)" id="img-fd48a40c-81" stroke-dasharray="none" stroke="#FF00FF" class="color_95">
            <path fill="none" d="M-91.66,21.08 L-55,12.81 -18.33,4.36 18.33,-4.17 55,-12.74 91.66,-21.34 " class="primitive"/>
          </g>
          <g transform="translate(104.54,35.99)" id="img-fd48a40c-82" stroke-dasharray="none" stroke="#FFFF00" class="color_96">
            <path fill="none" d="M-91.66,21.08 L-55,12.49 -18.33,4.13 18.33,-4.22 55,-12.57 91.66,-20.91 " class="primitive"/>
          </g>
          <g transform="translate(104.54,35.84)" id="img-fd48a40c-83" stroke-dasharray="none" stroke="#FF0000" class="color_97">
            <path fill="none" d="M-91.66,21.09 L-55,12.81 -18.33,4.35 18.33,-4.17 55,-12.74 91.66,-21.34 " class="primitive"/>
          </g>
          <g transform="translate(104.54,36)" id="img-fd48a40c-84" stroke-dasharray="none" stroke="#0000FF" class="color_98">
            <path fill="none" d="M-91.66,21.09 L-55,12.46 -18.33,4.12 18.33,-4.22 55,-12.56 91.66,-20.89 " class="primitive"/>
          </g>
          <g transform="translate(104.54,34.88)" id="img-fd48a40c-85" stroke-dasharray="none" stroke="#008000" class="color_99">
            <path fill="none" d="M-91.66,21.89 L-55,13.89 -18.33,5.58 18.33,-3.4 55,-13.35 91.66,-24.61 " class="primitive"/>
          </g>
          <g transform="translate(104.54,35.81)" id="img-fd48a40c-86" stroke-dasharray="none" stroke="#00FFFF" class="color_100">
            <path fill="none" d="M-91.66,21.1 L-55,12.87 -18.33,4.4 18.33,-4.16 55,-12.77 91.66,-21.43 " class="primitive"/>
          </g>
          <g transform="translate(104.54,45.83)" id="img-fd48a40c-87" stroke-dasharray="none" stroke="#FF00FF" class="color_95">
            <path fill="none" d="M-91.66,-5.45 L-55,0.46 -18.33,2.85 18.33,2.96 55,1.24 91.66,-2.06 " class="primitive"/>
          </g>
          <g transform="translate(104.54,35.83)" id="img-fd48a40c-88" stroke-dasharray="none" stroke="#FFFF00" class="color_96">
            <path fill="none" d="M-91.66,21.08 L-55,12.83 -18.33,4.37 18.33,-4.16 55,-12.75 91.66,-21.37 " class="primitive"/>
          </g>
          <g transform="translate(104.54,35.87)" id="img-fd48a40c-89" stroke-dasharray="none" stroke="#FF0000" class="color_97">
            <path fill="none" d="M-91.66,21.08 L-55,12.77 -18.33,4.32 18.33,-4.19 55,-12.71 91.66,-21.26 " class="primitive"/>
          </g>
          <g transform="translate(104.54,34.88)" id="img-fd48a40c-90" stroke-dasharray="none" stroke="#0000FF" class="color_98">
            <path fill="none" d="M-91.66,21.89 L-55,13.9 -18.33,5.58 18.33,-3.4 55,-13.35 91.66,-24.61 " class="primitive"/>
          </g>
          <g transform="translate(104.54,36)" id="img-fd48a40c-91" stroke-dasharray="none" stroke="#008000" class="color_99">
            <path fill="none" d="M-91.66,21.09 L-55,12.46 -18.33,4.12 18.33,-4.22 55,-12.56 91.66,-20.89 " class="primitive"/>
          </g>
          <g transform="translate(104.54,34.87)" id="img-fd48a40c-92" stroke-dasharray="none" stroke="#00FFFF" class="color_100">
            <path fill="none" d="M-91.66,21.89 L-55,13.9 -18.33,5.58 18.33,-3.4 55,-13.35 91.66,-24.61 " class="primitive"/>
          </g>
          <g transform="translate(104.54,34.87)" id="img-fd48a40c-93" stroke-dasharray="none" stroke="#FF00FF" class="color_95">
            <path fill="none" d="M-91.66,21.89 L-55,13.9 -18.33,5.58 18.33,-3.4 55,-13.35 91.66,-24.61 " class="primitive"/>
          </g>
          <g transform="translate(104.54,34.87)" id="img-fd48a40c-94" stroke-dasharray="none" stroke="#FFFF00" class="color_96">
            <path fill="none" d="M-91.66,21.89 L-55,13.9 -18.33,5.58 18.33,-3.4 55,-13.35 91.66,-24.62 " class="primitive"/>
          </g>
          <g transform="translate(104.54,35.27)" id="img-fd48a40c-95" stroke-dasharray="none" stroke="#FF0000" class="color_97">
            <path fill="none" d="M-91.66,21.52 L-55,13.5 -18.33,5.12 18.33,-3.75 55,-13.17 91.66,-23.22 " class="primitive"/>
          </g>
          <g transform="translate(104.54,35.81)" id="img-fd48a40c-96" stroke-dasharray="none" stroke="#0000FF" class="color_98">
            <path fill="none" d="M-91.66,21.1 L-55,12.86 -18.33,4.39 18.33,-4.16 55,-12.77 91.66,-21.42 " class="primitive"/>
          </g>
          <g transform="translate(104.54,35.82)" id="img-fd48a40c-97" stroke-dasharray="none" stroke="#008000" class="color_99">
            <path fill="none" d="M-91.66,21.09 L-55,12.85 -18.33,4.39 18.33,-4.16 55,-12.76 91.66,-21.4 " class="primitive"/>
          </g>
          <g transform="translate(104.54,36)" id="img-fd48a40c-98" stroke-dasharray="none" stroke="#00FFFF" class="color_100">
            <path fill="none" d="M-91.66,21.09 L-55,12.46 -18.33,4.12 18.33,-4.22 55,-12.56 91.66,-20.89 " class="primitive"/>
          </g>
          <g transform="translate(104.54,35.83)" id="img-fd48a40c-99" stroke-dasharray="none" stroke="#FF00FF" class="color_95">
            <path fill="none" d="M-91.66,21.09 L-55,12.84 -18.33,4.37 18.33,-4.17 55,-12.76 91.66,-21.38 " class="primitive"/>
          </g>
          <g transform="translate(104.54,34.87)" id="img-fd48a40c-100" stroke-dasharray="none" stroke="#FFFF00" class="color_96">
            <path fill="none" d="M-91.66,21.89 L-55,13.9 -18.33,5.58 18.33,-3.4 55,-13.35 91.66,-24.62 " class="primitive"/>
          </g>
          <g transform="translate(104.54,34.87)" id="img-fd48a40c-101" stroke-dasharray="none" stroke="#FF0000" class="color_97">
            <path fill="none" d="M-91.66,21.89 L-55,13.9 -18.33,5.58 18.33,-3.4 55,-13.35 91.66,-24.62 " class="primitive"/>
          </g>
          <g transform="translate(104.54,34.87)" id="img-fd48a40c-102" stroke-dasharray="none" stroke="#0000FF" class="color_98">
            <path fill="none" d="M-91.66,21.89 L-55,13.9 -18.33,5.58 18.33,-3.4 55,-13.35 91.66,-24.61 " class="primitive"/>
          </g>
          <g transform="translate(104.54,35.83)" id="img-fd48a40c-103" stroke-dasharray="none" stroke="#008000" class="color_99">
            <path fill="none" d="M-91.66,21.08 L-55,12.83 -18.33,4.37 18.33,-4.16 55,-12.75 91.66,-21.37 " class="primitive"/>
          </g>
          <g transform="translate(104.54,35.82)" id="img-fd48a40c-104" stroke-dasharray="none" stroke="#00FFFF" class="color_100">
            <path fill="none" d="M-91.66,21.1 L-55,12.85 -18.33,4.39 18.33,-4.16 55,-12.76 91.66,-21.4 " class="primitive"/>
          </g>
          <g transform="translate(104.54,34.87)" id="img-fd48a40c-105" stroke-dasharray="none" stroke="#FF00FF" class="color_95">
            <path fill="none" d="M-91.66,21.89 L-55,13.9 -18.33,5.58 18.33,-3.4 55,-13.35 91.66,-24.62 " class="primitive"/>
          </g>
          <g transform="translate(104.54,35.81)" id="img-fd48a40c-106" stroke-dasharray="none" stroke="#FFFF00" class="color_96">
            <path fill="none" d="M-91.66,21.1 L-55,12.86 -18.33,4.4 18.33,-4.16 55,-12.77 91.66,-21.42 " class="primitive"/>
          </g>
          <g transform="translate(104.54,35.97)" id="img-fd48a40c-107" stroke-dasharray="none" stroke="#FF0000" class="color_97">
            <path fill="none" d="M-91.66,21.07 L-55,12.56 -18.33,4.17 18.33,-4.22 55,-12.6 91.66,-20.98 " class="primitive"/>
          </g>
          <g transform="translate(104.54,35.81)" id="img-fd48a40c-108" stroke-dasharray="none" stroke="#0000FF" class="color_98">
            <path fill="none" d="M-91.66,21.1 L-55,12.86 -18.33,4.39 18.33,-4.16 55,-12.77 91.66,-21.42 " class="primitive"/>
          </g>
          <g transform="translate(104.54,34.21)" id="img-fd48a40c-109" stroke-dasharray="none" stroke="#008000" class="color_99">
            <path fill="none" d="M-91.66,23.22 L-55,14 -18.33,4.7 18.33,-4.63 55,-13.97 91.66,-23.33 " class="primitive"/>
          </g>
          <g transform="translate(104.54,34.87)" id="img-fd48a40c-110" stroke-dasharray="none" stroke="#00FFFF" class="color_100">
            <path fill="none" d="M-91.66,21.89 L-55,13.9 -18.33,5.58 18.33,-3.4 55,-13.35 91.66,-24.62 " class="primitive"/>
          </g>
          <g transform="translate(104.54,35.87)" id="img-fd48a40c-111" stroke-dasharray="none" stroke="#FF00FF" class="color_95">
            <path fill="none" d="M-91.66,21.08 L-55,12.77 -18.33,4.32 18.33,-4.18 55,-12.72 91.66,-21.27 " class="primitive"/>
          </g>
          <g transform="translate(104.54,54.43)" id="img-fd48a40c-112" stroke-dasharray="none" stroke="#FFFF00" class="color_96">
            <path fill="none" d="M-91.66,11.63 L-55,-26.82 -18.33,-21.07 18.33,-7.13 55,11.14 91.66,32.24 " class="primitive"/>
          </g>
          <g transform="translate(104.54,34.87)" id="img-fd48a40c-113" stroke-dasharray="none" stroke="#FF0000" class="color_97">
            <path fill="none" d="M-91.66,21.89 L-55,13.9 -18.33,5.58 18.33,-3.4 55,-13.35 91.66,-24.62 " class="primitive"/>
          </g>
          <g transform="translate(104.54,34.87)" id="img-fd48a40c-114" stroke-dasharray="none" stroke="#0000FF" class="color_98">
            <path fill="none" d="M-91.66,21.89 L-55,13.9 -18.33,5.58 18.33,-3.4 55,-13.35 91.66,-24.62 " class="primitive"/>
          </g>
          <g transform="translate(104.54,35.1)" id="img-fd48a40c-115" stroke-dasharray="none" stroke="#008000" class="color_99">
            <path fill="none" d="M-91.66,21.68 L-55,13.68 -18.33,5.32 18.33,-3.6 55,-13.26 91.66,-23.82 " class="primitive"/>
          </g>
          <g transform="translate(104.54,35.81)" id="img-fd48a40c-116" stroke-dasharray="none" stroke="#00FFFF" class="color_100">
            <path fill="none" d="M-91.66,21.1 L-55,12.87 -18.33,4.4 18.33,-4.16 55,-12.78 91.66,-21.44 " class="primitive"/>
          </g>
          <g transform="translate(104.54,34.87)" id="img-fd48a40c-117" stroke-dasharray="none" stroke="#FF00FF" class="color_95">
            <path fill="none" d="M-91.66,21.89 L-55,13.9 -18.33,5.58 18.33,-3.4 55,-13.35 91.66,-24.62 " class="primitive"/>
          </g>
          <g transform="translate(104.54,35.81)" id="img-fd48a40c-118" stroke-dasharray="none" stroke="#FFFF00" class="color_96">
            <path fill="none" d="M-91.66,21.1 L-55,12.87 -18.33,4.4 18.33,-4.16 55,-12.78 91.66,-21.44 " class="primitive"/>
          </g>
          <g transform="translate(104.54,34.87)" id="img-fd48a40c-119" stroke-dasharray="none" stroke="#FF0000" class="color_97">
            <path fill="none" d="M-91.66,21.89 L-55,13.9 -18.33,5.58 18.33,-3.4 55,-13.35 91.66,-24.62 " class="primitive"/>
          </g>
          <g transform="translate(104.54,34.87)" id="img-fd48a40c-120" stroke-dasharray="none" stroke="#0000FF" class="color_98">
            <path fill="none" d="M-91.66,21.89 L-55,13.9 -18.33,5.58 18.33,-3.4 55,-13.35 91.66,-24.62 " class="primitive"/>
          </g>
          <g transform="translate(104.54,34.87)" id="img-fd48a40c-121" stroke-dasharray="none" stroke="#008000" class="color_99">
            <path fill="none" d="M-91.66,21.89 L-55,13.9 -18.33,5.58 18.33,-3.4 55,-13.35 91.66,-24.61 " class="primitive"/>
          </g>
          <g transform="translate(104.54,34.87)" id="img-fd48a40c-122" stroke-dasharray="none" stroke="#00FFFF" class="color_100">
            <path fill="none" d="M-91.66,21.89 L-55,13.9 -18.33,5.58 18.33,-3.4 55,-13.35 91.66,-24.61 " class="primitive"/>
          </g>
        </g>
        <g class="geometry" id="img-fd48a40c-123">
          <g stroke-width="0" id="img-fd48a40c-124">
            <g class="color_RGBA{Float32}(1.0f0,0.0f0,0.0f0,1.0f0)" fill-opacity="1" stroke="#FFFFFF" fill="#FF0000" id="img-fd48a40c-125">
              <g class="marker" id="img-fd48a40c-126">
                <g transform="translate(196.2,NaN)" id="img-fd48a40c-127">
                  <circle cx="0" cy="0" r="1.41" class="primitive"/>
                </g>
              </g>
            </g>
            <g class="color_RGBA{Float32}(1.0f0,0.0f0,0.0f0,1.0f0)" fill-opacity="1" stroke="#FFFFFF" fill="#FF0000" id="img-fd48a40c-128">
              <g class="marker" id="img-fd48a40c-129">
                <g transform="translate(159.54,24.53)" id="img-fd48a40c-130">
                  <circle cx="0" cy="0" r="1.41" class="primitive"/>
                </g>
              </g>
            </g>
            <g class="color_RGBA{Float32}(1.0f0,0.0f0,0.0f0,1.0f0)" fill-opacity="1" stroke="#FFFFFF" fill="#FF0000" id="img-fd48a40c-131">
              <g class="marker" id="img-fd48a40c-132">
                <g transform="translate(122.87,31.21)" id="img-fd48a40c-133">
                  <circle cx="0" cy="0" r="1.41" class="primitive"/>
                </g>
              </g>
            </g>
            <g class="color_RGBA{Float32}(1.0f0,0.0f0,0.0f0,1.0f0)" fill-opacity="1" stroke="#FFFFFF" fill="#FF0000" id="img-fd48a40c-134">
              <g class="marker" id="img-fd48a40c-135">
                <g transform="translate(86.21,41.23)" id="img-fd48a40c-136">
                  <circle cx="0" cy="0" r="1.41" class="primitive"/>
                </g>
              </g>
            </g>
            <g class="color_RGBA{Float32}(1.0f0,0.0f0,0.0f0,1.0f0)" fill-opacity="1" stroke="#FFFFFF" fill="#FF0000" id="img-fd48a40c-137">
              <g class="marker" id="img-fd48a40c-138">
                <g transform="translate(49.54,47.91)" id="img-fd48a40c-139">
                  <circle cx="0" cy="0" r="1.41" class="primitive"/>
                </g>
              </g>
            </g>
            <g class="color_RGBA{Float32}(1.0f0,0.0f0,0.0f0,1.0f0)" fill-opacity="1" stroke="#FFFFFF" fill="#FF0000" id="img-fd48a40c-140">
              <g class="marker" id="img-fd48a40c-141">
                <g transform="translate(12.88,57.09)" id="img-fd48a40c-142">
                  <circle cx="0" cy="0" r="1.41" class="primitive"/>
                </g>
              </g>
            </g>
          </g>
        </g>
      </g>
    </g>
  </g>
  <g class="guide ylabels" font-size="2.82" font-family="'PT Sans Caption','Helvetica Neue','Helvetica',sans-serif" fill="#6C606B" id="img-fd48a40c-143">
    <g transform="translate(9.88,90.48)" id="img-fd48a40c-144">
      <g class="primitive">
        <text text-anchor="end" dy="0.35em">-4</text>
      </g>
    </g>
    <g transform="translate(9.88,73.79)" id="img-fd48a40c-145">
      <g class="primitive">
        <text text-anchor="end" dy="0.35em">-2</text>
      </g>
    </g>
    <g transform="translate(9.88,57.09)" id="img-fd48a40c-146">
      <g class="primitive">
        <text text-anchor="end" dy="0.35em">0</text>
      </g>
    </g>
    <g transform="translate(9.88,40.39)" id="img-fd48a40c-147">
      <g class="primitive">
        <text text-anchor="end" dy="0.35em">2</text>
      </g>
    </g>
    <g transform="translate(9.88,23.7)" id="img-fd48a40c-148">
      <g class="primitive">
        <text text-anchor="end" dy="0.35em">4</text>
      </g>
    </g>
    <g transform="translate(9.88,7)" id="img-fd48a40c-149">
      <g class="primitive">
        <text text-anchor="end" dy="0.35em">6</text>
      </g>
    </g>
  </g>
</g>
<defs>
  <clipPath id="img-fd48a40c-3">
    <path d="M10.88,5 L198.2,5 198.2,92.48 10.88,92.48 " />
  </clipPath>
</defs>
</svg>
