<?xml version="1.0" encoding="UTF-8"?>
<svg xmlns="http://www.w3.org/2000/svg"
     xmlns:xlink="http://www.w3.org/1999/xlink"
     xmlns:gadfly="http://www.gadflyjl.org/ns"
     version="1.2"
     width="203.2mm" height="101.6mm" viewBox="0 0 203.2 101.6"
     stroke="none"
     fill="#000000"
     stroke-width="0.3"
     font-size="3.88"
>
<defs>
  <marker id="arrow" markerWidth="15" markerHeight="7" refX="5" refY="3.5" orient="auto" markerUnits="strokeWidth">
    <path d="M0,0 L15,3.5 L0,7 z" stroke="context-stroke" fill="context-stroke"/>
  </marker>
</defs>
<g class="plotroot xscalable yscalable" id="img-533f064c-1">
  <g class="guide xlabels" font-size="2.82" font-family="'PT Sans Caption','Helvetica Neue','Helvetica',sans-serif" fill="#6C606B" id="img-533f064c-2">
    <g transform="translate(11.31,93.55)">
      <g class="primitive">
        <text text-anchor="middle" dy="0.6em">0</text>
      </g>
    </g>
    <g transform="translate(48.29,93.55)">
      <g class="primitive">
        <text text-anchor="middle" dy="0.6em">1</text>
      </g>
    </g>
    <g transform="translate(85.27,93.55)">
      <g class="primitive">
        <text text-anchor="middle" dy="0.6em">2</text>
      </g>
    </g>
    <g transform="translate(122.24,93.55)">
      <g class="primitive">
        <text text-anchor="middle" dy="0.6em">3</text>
      </g>
    </g>
    <g transform="translate(159.22,93.55)">
      <g class="primitive">
        <text text-anchor="middle" dy="0.6em">4</text>
      </g>
    </g>
    <g transform="translate(196.2,93.55)">
      <g class="primitive">
        <text text-anchor="middle" dy="0.6em">5</text>
      </g>
    </g>
  </g>
  <g clip-path="url(#img-533f064c-3)">
    <g id="img-533f064c-4">
      <g pointer-events="visible" stroke-width="0.3" fill="#000000" fill-opacity="0.000" stroke="#000000" stroke-opacity="0.000" class="guide background" id="img-533f064c-5">
        <g transform="translate(103.75,48.78)" id="img-533f064c-6">
          <path d="M-94.45,-43.78 L94.45,-43.78 94.45,43.78 -94.45,43.78  z" class="primitive"/>
        </g>
      </g>
      <g class="guide ygridlines xfixed" stroke-dasharray="0.5,0.5" stroke-width="0.2" stroke="#D0D0E0" id="img-533f064c-7">
        <g transform="translate(103.75,90.55)" id="img-533f064c-8">
          <path fill="none" d="M-94.45,0 L94.45,0 " class="primitive"/>
        </g>
        <g transform="translate(103.75,80.11)" id="img-533f064c-9">
          <path fill="none" d="M-94.45,0 L94.45,0 " class="primitive"/>
        </g>
        <g transform="translate(103.75,69.66)" id="img-533f064c-10">
          <path fill="none" d="M-94.45,0 L94.45,0 " class="primitive"/>
        </g>
        <g transform="translate(103.75,59.22)" id="img-533f064c-11">
          <path fill="none" d="M-94.45,0 L94.45,0 " class="primitive"/>
        </g>
        <g transform="translate(103.75,48.78)" id="img-533f064c-12">
          <path fill="none" d="M-94.45,0 L94.45,0 " class="primitive"/>
        </g>
        <g transform="translate(103.75,38.33)" id="img-533f064c-13">
          <path fill="none" d="M-94.45,0 L94.45,0 " class="primitive"/>
        </g>
        <g transform="translate(103.75,27.89)" id="img-533f064c-14">
          <path fill="none" d="M-94.45,0 L94.45,0 " class="primitive"/>
        </g>
        <g transform="translate(103.75,17.44)" id="img-533f064c-15">
          <path fill="none" d="M-94.45,0 L94.45,0 " class="primitive"/>
        </g>
        <g transform="translate(103.75,7)" id="img-533f064c-16">
          <path fill="none" d="M-94.45,0 L94.45,0 " class="primitive"/>
        </g>
      </g>
      <g class="guide xgridlines yfixed" stroke-dasharray="0.5,0.5" stroke-width="0.2" stroke="#D0D0E0" id="img-533f064c-17">
        <g transform="translate(11.31,48.78)" id="img-533f064c-18">
          <path fill="none" d="M0,-43.78 L0,43.78 " class="primitive"/>
        </g>
        <g transform="translate(48.29,48.78)" id="img-533f064c-19">
          <path fill="none" d="M0,-43.78 L0,43.78 " class="primitive"/>
        </g>
        <g transform="translate(85.27,48.78)" id="img-533f064c-20">
          <path fill="none" d="M0,-43.78 L0,43.78 " class="primitive"/>
        </g>
        <g transform="translate(122.24,48.78)" id="img-533f064c-21">
          <path fill="none" d="M0,-43.78 L0,43.78 " class="primitive"/>
        </g>
        <g transform="translate(159.22,48.78)" id="img-533f064c-22">
          <path fill="none" d="M0,-43.78 L0,43.78 " class="primitive"/>
        </g>
        <g transform="translate(196.2,48.78)" id="img-533f064c-23">
          <path fill="none" d="M0,-43.78 L0,43.78 " class="primitive"/>
        </g>
      </g>
      <g class="plotpanel" id="img-533f064c-24">
        <metadata>
          <boundingbox value="9.30890299479168mm 5.0mm 188.8910970052083mm 87.55120171440971mm"/>
          <unitbox value="-0.054085892517141076 7.191499340185319 5.1081717850342825 -8.382998680370639"/>
        </metadata>
        <g stroke-width="0.71" fill="#000000" fill-opacity="0.000" class="geometry" id="img-533f064c-25">
          <g transform="translate(103.75,52.32)" id="img-533f064c-26" stroke="#FF0000" stroke-dasharray="none" class="color_85">
            <path fill="none" d="M-92.45,27.38 L-55.47,17.38 -18.49,6.98 18.49,-4.25 55.47,-16.7 92.45,-30.79 " class="primitive"/>
          </g>
          <g transform="translate(103.75,53.54)" id="img-533f064c-27" stroke="#0000FF" stroke-dasharray="none" class="color_86">
            <path fill="none" d="M-92.45,26.38 L-55.47,15.99 -18.49,5.42 18.49,-5.23 55.47,-15.92 92.45,-26.64 " class="primitive"/>
          </g>
          <g transform="translate(103.75,52.32)" id="img-533f064c-28" stroke="#008000" stroke-dasharray="none" class="color_87">
            <path fill="none" d="M-92.45,27.38 L-55.47,17.38 -18.49,6.98 18.49,-4.25 55.47,-16.7 92.45,-30.79 " class="primitive"/>
          </g>
          <g transform="translate(103.75,52.32)" id="img-533f064c-29" stroke="#FFA500" stroke-dasharray="none" class="color_88">
            <path fill="none" d="M-92.45,27.38 L-55.47,17.38 -18.49,6.98 18.49,-4.25 55.47,-16.7 92.45,-30.79 " class="primitive"/>
          </g>
          <g transform="translate(103.75,52.32)" id="img-533f064c-30" stroke="#FF00FF" stroke-dasharray="none" class="color_89">
            <path fill="none" d="M-92.45,27.38 L-55.47,17.38 -18.49,6.98 18.49,-4.25 55.47,-16.7 92.45,-30.79 " class="primitive"/>
          </g>
          <g transform="translate(103.75,53.49)" id="img-533f064c-31" stroke="#00FFFF" stroke-dasharray="none" class="color_90">
            <path fill="none" d="M-92.45,26.39 L-55.47,16.09 -18.49,5.5 18.49,-5.2 55.47,-15.98 92.45,-26.81 " class="primitive"/>
          </g>
          <g transform="translate(103.75,49.07)" id="img-533f064c-32" stroke="#A52A2A" stroke-dasharray="none" class="color_91">
            <path fill="none" d="M-92.45,24.54 L-55.47,25.31 -18.49,13.67 18.49,-2.14 55.47,-20.54 92.45,-40.83 " class="primitive"/>
          </g>
          <g transform="translate(103.75,53.51)" id="img-533f064c-33" stroke="#FFC0CB" stroke-dasharray="none" class="color_92">
            <path fill="none" d="M-92.45,26.38 L-55.47,16.05 -18.49,5.46 18.49,-5.21 55.47,-15.95 92.45,-26.73 " class="primitive"/>
          </g>
          <g transform="translate(103.75,53.49)" id="img-533f064c-34" stroke="#00FF00" stroke-dasharray="none" class="color_93">
            <path fill="none" d="M-92.45,26.4 L-55.47,16.09 -18.49,5.5 18.49,-5.2 55.47,-15.98 92.45,-26.81 " class="primitive"/>
          </g>
          <g transform="translate(103.75,53.5)" id="img-533f064c-35" stroke="#000080" stroke-dasharray="none" class="color_94">
            <path fill="none" d="M-92.45,26.39 L-55.47,16.08 -18.49,5.49 18.49,-5.21 55.47,-15.97 92.45,-26.79 " class="primitive"/>
          </g>
          <g transform="translate(103.75,53.51)" id="img-533f064c-36" stroke="#800000" stroke-dasharray="none" class="color_95">
            <path fill="none" d="M-92.45,26.38 L-55.47,16.05 -18.49,5.46 18.49,-5.21 55.47,-15.95 92.45,-26.73 " class="primitive"/>
          </g>
          <g transform="translate(103.75,53.72)" id="img-533f064c-37" stroke="#FFFF00" stroke-dasharray="none" class="color_96">
            <path fill="none" d="M-92.45,26.38 L-55.47,15.58 -18.49,5.15 18.49,-5.28 55.47,-15.71 92.45,-26.14 " class="primitive"/>
          </g>
          <g transform="translate(103.75,53.72)" id="img-533f064c-38" stroke="#808000" stroke-dasharray="none" class="color_97">
            <path fill="none" d="M-92.45,26.38 L-55.47,15.58 -18.49,5.15 18.49,-5.28 55.47,-15.71 92.45,-26.14 " class="primitive"/>
          </g>
          <g transform="translate(103.75,53.56)" id="img-533f064c-39" stroke="#00FF7F" stroke-dasharray="none" class="color_98">
            <path fill="none" d="M-92.45,26.37 L-55.47,15.97 -18.49,5.4 18.49,-5.24 55.47,-15.91 92.45,-26.6 " class="primitive"/>
          </g>
          <g transform="translate(103.75,52.71)" id="img-533f064c-40" stroke="#008080" stroke-dasharray="none" class="color_99">
            <path fill="none" d="M-92.45,27.02 L-55.47,17 -18.49,6.52 18.49,-4.6 55.47,-16.53 92.45,-29.4 " class="primitive"/>
          </g>
          <g transform="translate(103.75,53.56)" id="img-533f064c-41" stroke="#FF7F50" stroke-dasharray="none" class="color_100">
            <path fill="none" d="M-92.45,26.37 L-55.47,15.96 -18.49,5.39 18.49,-5.24 55.47,-15.9 92.45,-26.58 " class="primitive"/>
          </g>
          <g transform="translate(103.75,52.32)" id="img-533f064c-42" stroke="#E6BEFF" stroke-dasharray="none" class="color_80">
            <path fill="none" d="M-92.45,27.38 L-55.47,17.38 -18.49,6.98 18.49,-4.25 55.47,-16.7 92.45,-30.79 " class="primitive"/>
          </g>
          <g transform="translate(103.75,53.49)" id="img-533f064c-43" stroke="#F5F5DC" stroke-dasharray="none" class="color_81">
            <path fill="none" d="M-92.45,26.4 L-55.47,16.1 -18.49,5.5 18.49,-5.2 55.47,-15.98 92.45,-26.81 " class="primitive"/>
          </g>
          <g transform="translate(103.75,53.54)" id="img-533f064c-44" stroke="#800080" stroke-dasharray="none" class="color_82">
            <path fill="none" d="M-92.45,26.38 L-55.47,16 -18.49,5.43 18.49,-5.23 55.47,-15.92 92.45,-26.66 " class="primitive"/>
          </g>
          <g transform="translate(103.75,53.52)" id="img-533f064c-45" stroke="#4B6F44" stroke-dasharray="none" class="color_83">
            <path fill="none" d="M-92.45,26.37 L-55.47,16.03 -18.49,5.45 18.49,-5.21 55.47,-15.94 92.45,-26.7 " class="primitive"/>
          </g>
          <g transform="translate(103.75,52.32)" id="img-533f064c-46" stroke="#9F4576" stroke-dasharray="none" class="color_84">
            <path fill="none" d="M-92.45,27.38 L-55.47,17.38 -18.49,6.98 18.49,-4.25 55.47,-16.7 92.45,-30.79 " class="primitive"/>
          </g>
          <g transform="translate(103.75,53.72)" id="img-533f064c-47" stroke="#FF0000" stroke-dasharray="none" class="color_85">
            <path fill="none" d="M-92.45,26.38 L-55.47,15.58 -18.49,5.15 18.49,-5.28 55.47,-15.71 92.45,-26.14 " class="primitive"/>
          </g>
          <g transform="translate(103.75,53.01)" id="img-533f064c-48" stroke="#0000FF" stroke-dasharray="none" class="color_86">
            <path fill="none" d="M-92.45,26.76 L-55.47,16.46 -18.49,5.92 18.49,-4.96 55.47,-16.23 92.45,-27.95 " class="primitive"/>
          </g>
          <g transform="translate(103.75,53.72)" id="img-533f064c-49" stroke="#008000" stroke-dasharray="none" class="color_87">
            <path fill="none" d="M-92.45,26.38 L-55.47,15.58 -18.49,5.15 18.49,-5.28 55.47,-15.71 92.45,-26.14 " class="primitive"/>
          </g>
          <g transform="translate(103.75,52.32)" id="img-533f064c-50" stroke="#FFA500" stroke-dasharray="none" class="color_88">
            <path fill="none" d="M-92.45,27.38 L-55.47,17.38 -18.49,6.98 18.49,-4.25 55.47,-16.7 92.45,-30.79 " class="primitive"/>
          </g>
          <g transform="translate(103.75,53.51)" id="img-533f064c-51" stroke="#FF00FF" stroke-dasharray="none" class="color_89">
            <path fill="none" d="M-92.45,26.37 L-55.47,16.06 -18.49,5.48 18.49,-5.21 55.47,-15.95 92.45,-26.75 " class="primitive"/>
          </g>
          <g transform="translate(103.75,55.09)" id="img-533f064c-52" stroke="#00FFFF" stroke-dasharray="none" class="color_90">
            <path fill="none" d="M-92.45,24.84 L-55.47,14.11 -18.49,4.09 18.49,-5.41 55.47,-14.48 92.45,-23.16 " class="primitive"/>
          </g>
          <g transform="translate(103.75,52.32)" id="img-533f064c-53" stroke="#A52A2A" stroke-dasharray="none" class="color_91">
            <path fill="none" d="M-92.45,27.38 L-55.47,17.38 -18.49,6.98 18.49,-4.25 55.47,-16.7 92.45,-30.79 " class="primitive"/>
          </g>
          <g transform="translate(103.75,53.67)" id="img-533f064c-54" stroke="#FFC0CB" stroke-dasharray="none" class="color_92">
            <path fill="none" d="M-92.45,26.35 L-55.47,15.75 -18.49,5.23 18.49,-5.28 55.47,-15.78 92.45,-26.28 " class="primitive"/>
          </g>
          <g transform="translate(103.75,53.48)" id="img-533f064c-55" stroke="#00FF00" stroke-dasharray="none" class="color_93">
            <path fill="none" d="M-92.45,26.4 L-55.47,16.1 -18.49,5.51 18.49,-5.2 55.47,-15.99 92.45,-26.83 " class="primitive"/>
          </g>
          <g transform="translate(103.75,53.48)" id="img-533f064c-56" stroke="#000080" stroke-dasharray="none" class="color_94">
            <path fill="none" d="M-92.45,26.4 L-55.47,16.1 -18.49,5.51 18.49,-5.2 55.47,-15.99 92.45,-26.83 " class="primitive"/>
          </g>
          <g transform="translate(103.75,53.72)" id="img-533f064c-57" stroke="#800000" stroke-dasharray="none" class="color_95">
            <path fill="none" d="M-92.45,26.38 L-55.47,15.58 -18.49,5.15 18.49,-5.28 55.47,-15.71 92.45,-26.14 " class="primitive"/>
          </g>
          <g transform="translate(103.75,53.48)" id="img-533f064c-58" stroke="#FFFF00" stroke-dasharray="none" class="color_96">
            <path fill="none" d="M-92.45,26.4 L-55.47,16.11 -18.49,5.51 18.49,-5.2 55.47,-15.99 92.45,-26.83 " class="primitive"/>
          </g>
          <g transform="translate(103.75,53.56)" id="img-533f064c-59" stroke="#808000" stroke-dasharray="none" class="color_97">
            <path fill="none" d="M-92.45,26.37 L-55.47,15.97 -18.49,5.4 18.49,-5.24 55.47,-15.91 92.45,-26.6 " class="primitive"/>
          </g>
          <g transform="translate(103.75,52.32)" id="img-533f064c-60" stroke="#00FF7F" stroke-dasharray="none" class="color_98">
            <path fill="none" d="M-92.45,27.38 L-55.47,17.38 -18.49,6.98 18.49,-4.25 55.47,-16.7 92.45,-30.79 " class="primitive"/>
          </g>
          <g transform="translate(103.75,52.32)" id="img-533f064c-61" stroke="#008080" stroke-dasharray="none" class="color_99">
            <path fill="none" d="M-92.45,27.38 L-55.47,17.38 -18.49,6.98 18.49,-4.25 55.47,-16.7 92.45,-30.79 " class="primitive"/>
          </g>
          <g transform="translate(103.75,53.48)" id="img-533f064c-62" stroke="#FF7F50" stroke-dasharray="none" class="color_100">
            <path fill="none" d="M-92.45,26.4 L-55.47,16.11 -18.49,5.51 18.49,-5.2 55.47,-15.99 92.45,-26.83 " class="primitive"/>
          </g>
          <g transform="translate(103.75,53.52)" id="img-533f064c-63" stroke="#E6BEFF" stroke-dasharray="none" class="color_80">
            <path fill="none" d="M-92.45,26.38 L-55.47,16.04 -18.49,5.46 18.49,-5.21 55.47,-15.95 92.45,-26.73 " class="primitive"/>
          </g>
          <g transform="translate(103.75,53.72)" id="img-533f064c-64" stroke="#F5F5DC" stroke-dasharray="none" class="color_81">
            <path fill="none" d="M-92.45,26.38 L-55.47,15.58 -18.49,5.15 18.49,-5.28 55.47,-15.71 92.45,-26.14 " class="primitive"/>
          </g>
          <g transform="translate(103.75,52.32)" id="img-533f064c-65" stroke="#800080" stroke-dasharray="none" class="color_82">
            <path fill="none" d="M-92.45,27.38 L-55.47,17.38 -18.49,6.98 18.49,-4.25 55.47,-16.7 92.45,-30.79 " class="primitive"/>
          </g>
          <g transform="translate(103.75,52.32)" id="img-533f064c-66" stroke="#4B6F44" stroke-dasharray="none" class="color_83">
            <path fill="none" d="M-92.45,27.38 L-55.47,17.38 -18.49,6.98 18.49,-4.25 55.47,-16.7 92.45,-30.79 " class="primitive"/>
          </g>
          <g transform="translate(103.75,53.52)" id="img-533f064c-67" stroke="#9F4576" stroke-dasharray="none" class="color_84">
            <path fill="none" d="M-92.45,26.38 L-55.47,16.03 -18.49,5.45 18.49,-5.22 55.47,-15.94 92.45,-26.71 " class="primitive"/>
          </g>
          <g transform="translate(103.75,52.32)" id="img-533f064c-68" stroke="#FF0000" stroke-dasharray="none" class="color_85">
            <path fill="none" d="M-92.45,27.38 L-55.47,17.38 -18.49,6.98 18.49,-4.25 55.47,-16.7 92.45,-30.79 " class="primitive"/>
          </g>
          <g transform="translate(103.75,53.49)" id="img-533f064c-69" stroke="#0000FF" stroke-dasharray="none" class="color_86">
            <path fill="none" d="M-92.45,26.39 L-55.47,16.09 -18.49,5.5 18.49,-5.21 55.47,-15.98 92.45,-26.8 " class="primitive"/>
          </g>
          <g transform="translate(103.75,52.32)" id="img-533f064c-70" stroke="#008000" stroke-dasharray="none" class="color_87">
            <path fill="none" d="M-92.45,27.38 L-55.47,17.38 -18.49,6.98 18.49,-4.25 55.47,-16.7 92.45,-30.79 " class="primitive"/>
          </g>
          <g transform="translate(103.75,53.52)" id="img-533f064c-71" stroke="#FFA500" stroke-dasharray="none" class="color_88">
            <path fill="none" d="M-92.45,26.38 L-55.47,16.06 -18.49,5.47 18.49,-5.21 55.47,-15.95 92.45,-26.74 " class="primitive"/>
          </g>
          <g transform="translate(103.75,53.49)" id="img-533f064c-72" stroke="#FF00FF" stroke-dasharray="none" class="color_89">
            <path fill="none" d="M-92.45,26.39 L-55.47,16.1 -18.49,5.5 18.49,-5.2 55.47,-15.98 92.45,-26.81 " class="primitive"/>
          </g>
          <g transform="translate(103.75,53.48)" id="img-533f064c-73" stroke="#00FFFF" stroke-dasharray="none" class="color_90">
            <path fill="none" d="M-92.45,26.4 L-55.47,16.1 -18.49,5.51 18.49,-5.2 55.47,-15.98 92.45,-26.82 " class="primitive"/>
          </g>
          <g transform="translate(103.75,53.72)" id="img-533f064c-74" stroke="#A52A2A" stroke-dasharray="none" class="color_91">
            <path fill="none" d="M-92.45,26.38 L-55.47,15.58 -18.49,5.15 18.49,-5.28 55.47,-15.71 92.45,-26.14 " class="primitive"/>
          </g>
          <g transform="translate(103.75,53.56)" id="img-533f064c-75" stroke="#FFC0CB" stroke-dasharray="none" class="color_92">
            <path fill="none" d="M-92.45,26.37 L-55.47,15.97 -18.49,5.39 18.49,-5.24 55.47,-15.9 92.45,-26.6 " class="primitive"/>
          </g>
          <g transform="translate(103.75,52.32)" id="img-533f064c-76" stroke="#00FF00" stroke-dasharray="none" class="color_93">
            <path fill="none" d="M-92.45,27.38 L-55.47,17.38 -18.49,6.98 18.49,-4.25 55.47,-16.7 92.45,-30.79 " class="primitive"/>
          </g>
          <g transform="translate(103.75,53.48)" id="img-533f064c-77" stroke="#000080" stroke-dasharray="none" class="color_94">
            <path fill="none" d="M-92.45,26.4 L-55.47,16.11 -18.49,5.51 18.49,-5.2 55.47,-15.99 92.45,-26.83 " class="primitive"/>
          </g>
          <g transform="translate(103.75,53.49)" id="img-533f064c-78" stroke="#800000" stroke-dasharray="none" class="color_95">
            <path fill="none" d="M-92.45,26.39 L-55.47,16.09 -18.49,5.49 18.49,-5.2 55.47,-15.97 92.45,-26.79 " class="primitive"/>
          </g>
          <g transform="translate(103.75,53.49)" id="img-533f064c-79" stroke="#FFFF00" stroke-dasharray="none" class="color_96">
            <path fill="none" d="M-92.45,26.39 L-55.47,16.09 -18.49,5.49 18.49,-5.21 55.47,-15.98 92.45,-26.8 " class="primitive"/>
          </g>
          <g transform="translate(103.75,52.32)" id="img-533f064c-80" stroke="#808000" stroke-dasharray="none" class="color_97">
            <path fill="none" d="M-92.45,27.38 L-55.47,17.38 -18.49,6.98 18.49,-4.25 55.47,-16.7 92.45,-30.79 " class="primitive"/>
          </g>
          <g transform="translate(103.75,52.93)" id="img-533f064c-81" stroke="#00FF7F" stroke-dasharray="none" class="color_98">
            <path fill="none" d="M-92.45,26.81 L-55.47,16.76 -18.49,6.25 18.49,-4.79 55.47,-16.4 92.45,-28.62 " class="primitive"/>
          </g>
          <g transform="translate(103.75,53.72)" id="img-533f064c-82" stroke="#008080" stroke-dasharray="none" class="color_99">
            <path fill="none" d="M-92.45,26.38 L-55.47,15.58 -18.49,5.15 18.49,-5.28 55.47,-15.71 92.45,-26.14 " class="primitive"/>
          </g>
          <g transform="translate(103.75,52.32)" id="img-533f064c-83" stroke="#FF7F50" stroke-dasharray="none" class="color_100">
            <path fill="none" d="M-92.45,27.38 L-55.47,17.38 -18.49,6.98 18.49,-4.25 55.47,-16.7 92.45,-30.79 " class="primitive"/>
          </g>
          <g transform="translate(103.75,52.32)" id="img-533f064c-84" stroke="#E6BEFF" stroke-dasharray="none" class="color_80">
            <path fill="none" d="M-92.45,27.38 L-55.47,17.38 -18.49,6.98 18.49,-4.25 55.47,-16.7 92.45,-30.79 " class="primitive"/>
          </g>
          <g transform="translate(103.75,52.32)" id="img-533f064c-85" stroke="#F5F5DC" stroke-dasharray="none" class="color_81">
            <path fill="none" d="M-92.45,27.38 L-55.47,17.38 -18.49,6.98 18.49,-4.25 55.47,-16.7 92.45,-30.79 " class="primitive"/>
          </g>
          <g transform="translate(103.75,53.2)" id="img-533f064c-86" stroke="#800080" stroke-dasharray="none" class="color_82">
            <path fill="none" d="M-92.45,20.32 L-55.47,12.32 -18.49,4.17 18.49,-4.03 55.47,-12.26 92.45,-20.52 " class="primitive"/>
          </g>
          <g transform="translate(103.75,53.52)" id="img-533f064c-87" stroke="#4B6F44" stroke-dasharray="none" class="color_83">
            <path fill="none" d="M-92.45,26.39 L-55.47,16.04 -18.49,5.45 18.49,-5.22 55.47,-15.95 92.45,-26.72 " class="primitive"/>
          </g>
          <g transform="translate(103.75,53.51)" id="img-533f064c-88" stroke="#9F4576" stroke-dasharray="none" class="color_84">
            <path fill="none" d="M-92.45,26.38 L-55.47,16.05 -18.49,5.46 18.49,-5.21 55.47,-15.95 92.45,-26.73 " class="primitive"/>
          </g>
          <g transform="translate(103.75,53.52)" id="img-533f064c-89" stroke="#FF0000" stroke-dasharray="none" class="color_85">
            <path fill="none" d="M-92.45,26.39 L-55.47,16.04 -18.49,5.46 18.49,-5.22 55.47,-15.95 92.45,-26.72 " class="primitive"/>
          </g>
          <g transform="translate(103.75,53.48)" id="img-533f064c-90" stroke="#0000FF" stroke-dasharray="none" class="color_86">
            <path fill="none" d="M-92.45,26.4 L-55.47,16.1 -18.49,5.51 18.49,-5.2 55.47,-15.99 92.45,-26.83 " class="primitive"/>
          </g>
          <g transform="translate(103.75,52.72)" id="img-533f064c-91" stroke="#008000" stroke-dasharray="none" class="color_87">
            <path fill="none" d="M-92.45,27.01 L-55.47,16.97 -18.49,6.5 18.49,-4.61 55.47,-16.52 92.45,-29.35 " class="primitive"/>
          </g>
          <g transform="translate(103.75,53.72)" id="img-533f064c-92" stroke="#FFA500" stroke-dasharray="none" class="color_88">
            <path fill="none" d="M-92.45,26.38 L-55.47,15.58 -18.49,5.15 18.49,-5.28 55.47,-15.71 92.45,-26.14 " class="primitive"/>
          </g>
          <g transform="translate(103.75,53.72)" id="img-533f064c-93" stroke="#FF00FF" stroke-dasharray="none" class="color_89">
            <path fill="none" d="M-92.45,26.38 L-55.47,15.58 -18.49,5.15 18.49,-5.28 55.47,-15.71 92.45,-26.14 " class="primitive"/>
          </g>
          <g transform="translate(103.75,53.53)" id="img-533f064c-94" stroke="#00FFFF" stroke-dasharray="none" class="color_90">
            <path fill="none" d="M-92.45,26.39 L-55.47,16.03 -18.49,5.45 18.49,-5.22 55.47,-15.94 92.45,-26.7 " class="primitive"/>
          </g>
          <g transform="translate(103.75,53.52)" id="img-533f064c-95" stroke="#A52A2A" stroke-dasharray="none" class="color_91">
            <path fill="none" d="M-92.45,26.39 L-55.47,16.04 -18.49,5.46 18.49,-5.22 55.47,-15.95 92.45,-26.72 " class="primitive"/>
          </g>
          <g transform="translate(103.75,53.49)" id="img-533f064c-96" stroke="#FFC0CB" stroke-dasharray="none" class="color_92">
            <path fill="none" d="M-92.45,26.4 L-55.47,16.1 -18.49,5.5 18.49,-5.2 55.47,-15.98 92.45,-26.81 " class="primitive"/>
          </g>
          <g transform="translate(103.75,53.18)" id="img-533f064c-97" stroke="#00FF00" stroke-dasharray="none" class="color_93">
            <path fill="none" d="M-92.45,26.6 L-55.47,16.49 -18.49,5.93 18.49,-4.99 55.47,-16.24 92.45,-27.79 " class="primitive"/>
          </g>
          <g transform="translate(103.75,52.32)" id="img-533f064c-98" stroke="#000080" stroke-dasharray="none" class="color_94">
            <path fill="none" d="M-92.45,27.37 L-55.47,17.38 -18.49,6.97 18.49,-4.26 55.47,-16.7 92.45,-30.76 " class="primitive"/>
          </g>
          <g transform="translate(103.75,52.69)" id="img-533f064c-99" stroke="#800000" stroke-dasharray="none" class="color_95">
            <path fill="none" d="M-92.45,27.03 L-55.47,17.01 -18.49,6.54 18.49,-4.59 55.47,-16.54 92.45,-29.44 " class="primitive"/>
          </g>
          <g transform="translate(103.75,53.55)" id="img-533f064c-100" stroke="#FFFF00" stroke-dasharray="none" class="color_96">
            <path fill="none" d="M-92.45,26.37 L-55.47,15.98 -18.49,5.4 18.49,-5.23 55.47,-15.91 92.45,-26.62 " class="primitive"/>
          </g>
          <g transform="translate(103.75,53.72)" id="img-533f064c-101" stroke="#808000" stroke-dasharray="none" class="color_97">
            <path fill="none" d="M-92.45,26.38 L-55.47,15.59 -18.49,5.16 18.49,-5.28 55.47,-15.71 92.45,-26.14 " class="primitive"/>
          </g>
          <g transform="translate(103.75,53.52)" id="img-533f064c-102" stroke="#00FF7F" stroke-dasharray="none" class="color_98">
            <path fill="none" d="M-92.45,26.38 L-55.47,16.03 -18.49,5.45 18.49,-5.22 55.47,-15.94 92.45,-26.7 " class="primitive"/>
          </g>
          <g transform="translate(103.75,52.32)" id="img-533f064c-103" stroke="#008080" stroke-dasharray="none" class="color_99">
            <path fill="none" d="M-92.45,27.38 L-55.47,17.38 -18.49,6.98 18.49,-4.25 55.47,-16.7 92.45,-30.79 " class="primitive"/>
          </g>
          <g transform="translate(103.75,53.52)" id="img-533f064c-104" stroke="#FF7F50" stroke-dasharray="none" class="color_100">
            <path fill="none" d="M-92.45,26.38 L-55.47,16.06 -18.49,5.47 18.49,-5.21 55.47,-15.95 92.45,-26.74 " class="primitive"/>
          </g>
          <g transform="translate(103.75,53.5)" id="img-533f064c-105" stroke="#E6BEFF" stroke-dasharray="none" class="color_80">
            <path fill="none" d="M-92.45,26.4 L-55.47,16.08 -18.49,5.48 18.49,-5.21 55.47,-15.97 92.45,-26.78 " class="primitive"/>
          </g>
          <g transform="translate(103.75,52.32)" id="img-533f064c-106" stroke="#F5F5DC" stroke-dasharray="none" class="color_81">
            <path fill="none" d="M-92.45,27.38 L-55.47,17.38 -18.49,6.98 18.49,-4.25 55.47,-16.7 92.45,-30.79 " class="primitive"/>
          </g>
          <g transform="translate(103.75,52.32)" id="img-533f064c-107" stroke="#800080" stroke-dasharray="none" class="color_82">
            <path fill="none" d="M-92.45,27.38 L-55.47,17.38 -18.49,6.98 18.49,-4.25 55.47,-16.7 92.45,-30.79 " class="primitive"/>
          </g>
          <g transform="translate(103.75,53.28)" id="img-533f064c-108" stroke="#4B6F44" stroke-dasharray="none" class="color_83">
            <path fill="none" d="M-92.45,26.54 L-55.47,16.37 -18.49,5.8 18.49,-5.06 55.47,-16.16 92.45,-27.48 " class="primitive"/>
          </g>
          <g transform="translate(103.75,52.32)" id="img-533f064c-109" stroke="#9F4576" stroke-dasharray="none" class="color_84">
            <path fill="none" d="M-92.45,27.38 L-55.47,17.38 -18.49,6.98 18.49,-4.25 55.47,-16.7 92.45,-30.79 " class="primitive"/>
          </g>
          <g transform="translate(103.75,53.5)" id="img-533f064c-110" stroke="#FF0000" stroke-dasharray="none" class="color_85">
            <path fill="none" d="M-92.45,26.39 L-55.47,16.08 -18.49,5.49 18.49,-5.21 55.47,-15.97 92.45,-26.78 " class="primitive"/>
          </g>
          <g transform="translate(103.75,53.52)" id="img-533f064c-111" stroke="#0000FF" stroke-dasharray="none" class="color_86">
            <path fill="none" d="M-92.45,26.37 L-55.47,16.03 -18.49,5.46 18.49,-5.21 55.47,-15.94 92.45,-26.71 " class="primitive"/>
          </g>
          <g transform="translate(103.75,53.5)" id="img-533f064c-112" stroke="#008000" stroke-dasharray="none" class="color_87">
            <path fill="none" d="M-92.45,26.39 L-55.47,16.08 -18.49,5.49 18.49,-5.21 55.47,-15.97 92.45,-26.78 " class="primitive"/>
          </g>
          <g transform="translate(103.75,53.72)" id="img-533f064c-113" stroke="#FFA500" stroke-dasharray="none" class="color_88">
            <path fill="none" d="M-92.45,26.38 L-55.47,15.58 -18.49,5.15 18.49,-5.28 55.47,-15.71 92.45,-26.14 " class="primitive"/>
          </g>
          <g transform="translate(103.75,52.32)" id="img-533f064c-114" stroke="#FF00FF" stroke-dasharray="none" class="color_89">
            <path fill="none" d="M-92.45,27.38 L-55.47,17.38 -18.49,6.98 18.49,-4.25 55.47,-16.7 92.45,-30.79 " class="primitive"/>
          </g>
          <g transform="translate(103.75,52.32)" id="img-533f064c-115" stroke="#00FFFF" stroke-dasharray="none" class="color_90">
            <path fill="none" d="M-92.45,27.38 L-55.47,17.38 -18.49,6.98 18.49,-4.25 55.47,-16.7 92.45,-30.79 " class="primitive"/>
          </g>
          <g transform="translate(103.75,52.32)" id="img-533f064c-116" stroke="#A52A2A" stroke-dasharray="none" class="color_91">
            <path fill="none" d="M-92.45,27.38 L-55.47,17.38 -18.49,6.98 18.49,-4.25 55.47,-16.7 92.45,-30.79 " class="primitive"/>
          </g>
          <g transform="translate(103.75,53.49)" id="img-533f064c-117" stroke="#FFC0CB" stroke-dasharray="none" class="color_92">
            <path fill="none" d="M-92.45,26.4 L-55.47,16.1 -18.49,5.5 18.49,-5.2 55.47,-15.98 92.45,-26.81 " class="primitive"/>
          </g>
          <g transform="translate(103.75,53.49)" id="img-533f064c-118" stroke="#00FF00" stroke-dasharray="none" class="color_93">
            <path fill="none" d="M-92.45,26.39 L-55.47,16.09 -18.49,5.5 18.49,-5.2 55.47,-15.98 92.45,-26.8 " class="primitive"/>
          </g>
          <g transform="translate(103.75,53.52)" id="img-533f064c-119" stroke="#000080" stroke-dasharray="none" class="color_94">
            <path fill="none" d="M-92.45,26.38 L-55.47,16.03 -18.49,5.45 18.49,-5.22 55.47,-15.94 92.45,-26.71 " class="primitive"/>
          </g>
          <g transform="translate(103.75,52.32)" id="img-533f064c-120" stroke="#800000" stroke-dasharray="none" class="color_95">
            <path fill="none" d="M-92.45,27.38 L-55.47,17.38 -18.49,6.98 18.49,-4.25 55.47,-16.7 92.45,-30.79 " class="primitive"/>
          </g>
          <g transform="translate(103.75,52.32)" id="img-533f064c-121" stroke="#FFFF00" stroke-dasharray="none" class="color_96">
            <path fill="none" d="M-92.45,27.38 L-55.47,17.38 -18.49,6.98 18.49,-4.25 55.47,-16.7 92.45,-30.79 " class="primitive"/>
          </g>
          <g transform="translate(103.75,53.56)" id="img-533f064c-122" stroke="#808000" stroke-dasharray="none" class="color_97">
            <path fill="none" d="M-92.45,26.37 L-55.47,15.97 -18.49,5.4 18.49,-5.24 55.47,-15.91 92.45,-26.6 " class="primitive"/>
          </g>
          <g transform="translate(103.75,53.47)" id="img-533f064c-123" stroke="#00FF7F" stroke-dasharray="none" class="color_98">
            <path fill="none" d="M-92.45,26.4 L-55.47,16.12 -18.49,5.52 18.49,-5.2 55.47,-15.99 92.45,-26.85 " class="primitive"/>
          </g>
          <g transform="translate(103.75,53.49)" id="img-533f064c-124" stroke="#008080" stroke-dasharray="none" class="color_99">
            <path fill="none" d="M-92.45,26.39 L-55.47,16.09 -18.49,5.5 18.49,-5.2 55.47,-15.98 92.45,-26.81 " class="primitive"/>
          </g>
          <g transform="translate(103.75,53.52)" id="img-533f064c-125" stroke="#FF7F50" stroke-dasharray="none" class="color_100">
            <path fill="none" d="M-92.45,26.38 L-55.47,16.05 -18.49,5.46 18.49,-5.22 55.47,-15.95 92.45,-26.72 " class="primitive"/>
          </g>
        </g>
        <g class="geometry" id="img-533f064c-126">
          <g stroke-width="0" id="img-533f064c-127">
            <g class="color_RGBA{Float32}(1.0f0,0.0f0,0.0f0,1.0f0)" fill-opacity="1" stroke="#FFFFFF" fill="#FF0000" id="img-533f064c-128">
              <g class="marker" id="img-533f064c-129">
                <g transform="translate(196.2,NaN)" id="img-533f064c-130">
                  <circle cx="0" cy="0" r="1.41" class="primitive"/>
                </g>
              </g>
            </g>
            <g class="color_RGBA{Float32}(1.0f0,0.0f0,0.0f0,1.0f0)" fill-opacity="1" stroke="#FFFFFF" fill="#FF0000" id="img-533f064c-131">
              <g class="marker" id="img-533f064c-132">
                <g transform="translate(159.22,39.38)" id="img-533f064c-133">
                  <circle cx="0" cy="0" r="1.41" class="primitive"/>
                </g>
              </g>
            </g>
            <g class="color_RGBA{Float32}(1.0f0,0.0f0,0.0f0,1.0f0)" fill-opacity="1" stroke="#FFFFFF" fill="#FF0000" id="img-533f064c-134">
              <g class="marker" id="img-533f064c-135">
                <g transform="translate(122.24,47.73)" id="img-533f064c-136">
                  <circle cx="0" cy="0" r="1.41" class="primitive"/>
                </g>
              </g>
            </g>
            <g class="color_RGBA{Float32}(1.0f0,0.0f0,0.0f0,1.0f0)" fill-opacity="1" stroke="#FFFFFF" fill="#FF0000" id="img-533f064c-137">
              <g class="marker" id="img-533f064c-138">
                <g transform="translate(85.27,60.26)" id="img-533f064c-139">
                  <circle cx="0" cy="0" r="1.41" class="primitive"/>
                </g>
              </g>
            </g>
            <g class="color_RGBA{Float32}(1.0f0,0.0f0,0.0f0,1.0f0)" fill-opacity="1" stroke="#FFFFFF" fill="#FF0000" id="img-533f064c-140">
              <g class="marker" id="img-533f064c-141">
                <g transform="translate(48.29,68.62)" id="img-533f064c-142">
                  <circle cx="0" cy="0" r="1.41" class="primitive"/>
                </g>
              </g>
            </g>
            <g class="color_RGBA{Float32}(1.0f0,0.0f0,0.0f0,1.0f0)" fill-opacity="1" stroke="#FFFFFF" fill="#FF0000" id="img-533f064c-143">
              <g class="marker" id="img-533f064c-144">
                <g transform="translate(11.31,80.11)" id="img-533f064c-145">
                  <circle cx="0" cy="0" r="1.41" class="primitive"/>
                </g>
              </g>
            </g>
          </g>
        </g>
      </g>
    </g>
  </g>
  <g class="guide ylabels" font-size="2.82" font-family="'PT Sans Caption','Helvetica Neue','Helvetica',sans-serif" fill="#6C606B" id="img-533f064c-146">
    <g transform="translate(8.31,90.55)" id="img-533f064c-147">
      <g class="primitive">
        <text text-anchor="end" dy="0.35em">-1</text>
      </g>
    </g>
    <g transform="translate(8.31,80.11)" id="img-533f064c-148">
      <g class="primitive">
        <text text-anchor="end" dy="0.35em">0</text>
      </g>
    </g>
    <g transform="translate(8.31,69.66)" id="img-533f064c-149">
      <g class="primitive">
        <text text-anchor="end" dy="0.35em">1</text>
      </g>
    </g>
    <g transform="translate(8.31,59.22)" id="img-533f064c-150">
      <g class="primitive">
        <text text-anchor="end" dy="0.35em">2</text>
      </g>
    </g>
    <g transform="translate(8.31,48.78)" id="img-533f064c-151">
      <g class="primitive">
        <text text-anchor="end" dy="0.35em">3</text>
      </g>
    </g>
    <g transform="translate(8.31,38.33)" id="img-533f064c-152">
      <g class="primitive">
        <text text-anchor="end" dy="0.35em">4</text>
      </g>
    </g>
    <g transform="translate(8.31,27.89)" id="img-533f064c-153">
      <g class="primitive">
        <text text-anchor="end" dy="0.35em">5</text>
      </g>
    </g>
    <g transform="translate(8.31,17.44)" id="img-533f064c-154">
      <g class="primitive">
        <text text-anchor="end" dy="0.35em">6</text>
      </g>
    </g>
    <g transform="translate(8.31,7)" id="img-533f064c-155">
      <g class="primitive">
        <text text-anchor="end" dy="0.35em">7</text>
      </g>
    </g>
  </g>
</g>
<defs>
  <clipPath id="img-533f064c-3">
    <path d="M9.31,5 L198.2,5 198.2,92.55 9.31,92.55 " />
  </clipPath>
</defs>
</svg>
