<?xml version="1.0" encoding="UTF-8"?>
<svg xmlns="http://www.w3.org/2000/svg"
     xmlns:xlink="http://www.w3.org/1999/xlink"
     xmlns:gadfly="http://www.gadflyjl.org/ns"
     version="1.2"
     width="203.2mm" height="101.6mm" viewBox="0 0 203.2 101.6"
     stroke="none"
     fill="#000000"
     stroke-width="0.3"
     font-size="3.88"
>
<defs>
  <marker id="arrow" markerWidth="15" markerHeight="7" refX="5" refY="3.5" orient="auto" markerUnits="strokeWidth">
    <path d="M0,0 L15,3.5 L0,7 z" stroke="context-stroke" fill="context-stroke"/>
  </marker>
</defs>
<g class="plotroot xscalable yscalable" id="img-008752cd-1">
  <g class="guide xlabels" font-size="2.82" font-family="'PT Sans Caption','Helvetica Neue','Helvetica',sans-serif" fill="#6C606B" id="img-008752cd-2">
    <g transform="translate(11.36,93.55)">
      <g class="primitive">
        <text text-anchor="middle" dy="0.6em">0</text>
      </g>
    </g>
    <g transform="translate(48.33,93.55)">
      <g class="primitive">
        <text text-anchor="middle" dy="0.6em">1</text>
      </g>
    </g>
    <g transform="translate(85.3,93.55)">
      <g class="primitive">
        <text text-anchor="middle" dy="0.6em">2</text>
      </g>
    </g>
    <g transform="translate(122.27,93.55)">
      <g class="primitive">
        <text text-anchor="middle" dy="0.6em">3</text>
      </g>
    </g>
    <g transform="translate(159.23,93.55)">
      <g class="primitive">
        <text text-anchor="middle" dy="0.6em">4</text>
      </g>
    </g>
    <g transform="translate(196.2,93.55)">
      <g class="primitive">
        <text text-anchor="middle" dy="0.6em">5</text>
      </g>
    </g>
  </g>
  <g clip-path="url(#img-008752cd-3)">
    <g id="img-008752cd-4">
      <g pointer-events="visible" stroke-width="0.3" fill="#000000" fill-opacity="0.000" stroke="#000000" stroke-opacity="0.000" class="guide background" id="img-008752cd-5">
        <g transform="translate(103.78,48.78)" id="img-008752cd-6">
          <path d="M-94.42,-43.78 L94.42,-43.78 94.42,43.78 -94.42,43.78  z" class="primitive"/>
        </g>
      </g>
      <g class="guide ygridlines xfixed" stroke-dasharray="0.5,0.5" stroke-width="0.2" stroke="#D0D0E0" id="img-008752cd-7">
        <g transform="translate(103.78,90.55)" id="img-008752cd-8">
          <path fill="none" d="M-94.42,0 L94.42,0 " class="primitive"/>
        </g>
        <g transform="translate(103.78,80.11)" id="img-008752cd-9">
          <path fill="none" d="M-94.42,0 L94.42,0 " class="primitive"/>
        </g>
        <g transform="translate(103.78,69.66)" id="img-008752cd-10">
          <path fill="none" d="M-94.42,0 L94.42,0 " class="primitive"/>
        </g>
        <g transform="translate(103.78,59.22)" id="img-008752cd-11">
          <path fill="none" d="M-94.42,0 L94.42,0 " class="primitive"/>
        </g>
        <g transform="translate(103.78,48.78)" id="img-008752cd-12">
          <path fill="none" d="M-94.42,0 L94.42,0 " class="primitive"/>
        </g>
        <g transform="translate(103.78,38.33)" id="img-008752cd-13">
          <path fill="none" d="M-94.42,0 L94.42,0 " class="primitive"/>
        </g>
        <g transform="translate(103.78,27.89)" id="img-008752cd-14">
          <path fill="none" d="M-94.42,0 L94.42,0 " class="primitive"/>
        </g>
        <g transform="translate(103.78,17.44)" id="img-008752cd-15">
          <path fill="none" d="M-94.42,0 L94.42,0 " class="primitive"/>
        </g>
        <g transform="translate(103.78,7)" id="img-008752cd-16">
          <path fill="none" d="M-94.42,0 L94.42,0 " class="primitive"/>
        </g>
      </g>
      <g class="guide xgridlines yfixed" stroke-dasharray="0.5,0.5" stroke-width="0.2" stroke="#D0D0E0" id="img-008752cd-17">
        <g transform="translate(11.36,48.78)" id="img-008752cd-18">
          <path fill="none" d="M0,-43.78 L0,43.78 " class="primitive"/>
        </g>
        <g transform="translate(48.33,48.78)" id="img-008752cd-19">
          <path fill="none" d="M0,-43.78 L0,43.78 " class="primitive"/>
        </g>
        <g transform="translate(85.3,48.78)" id="img-008752cd-20">
          <path fill="none" d="M0,-43.78 L0,43.78 " class="primitive"/>
        </g>
        <g transform="translate(122.27,48.78)" id="img-008752cd-21">
          <path fill="none" d="M0,-43.78 L0,43.78 " class="primitive"/>
        </g>
        <g transform="translate(159.23,48.78)" id="img-008752cd-22">
          <path fill="none" d="M0,-43.78 L0,43.78 " class="primitive"/>
        </g>
        <g transform="translate(196.2,48.78)" id="img-008752cd-23">
          <path fill="none" d="M0,-43.78 L0,43.78 " class="primitive"/>
        </g>
      </g>
      <g class="plotpanel" id="img-008752cd-24">
        <metadata>
          <boundingbox value="9.362646484375006mm 5.0mm 188.83735351562498mm 87.55120171440971mm"/>
          <unitbox value="-0.05410161858411732 7.191499340185319 5.108203237168235 -8.382998680370639"/>
        </metadata>
        <g stroke-width="0.71" fill="#000000" fill-opacity="0.000" class="geometry" id="img-008752cd-25">
          <g transform="translate(103.78,52.32)" id="img-008752cd-26" stroke="#FF0000" stroke-dasharray="none" class="color_85">
            <path fill="none" d="M-92.42,27.38 L-55.45,17.38 -18.48,6.98 18.48,-4.25 55.45,-16.7 92.42,-30.79 " class="primitive"/>
          </g>
          <g transform="translate(103.78,53.54)" id="img-008752cd-27" stroke="#0000FF" stroke-dasharray="none" class="color_86">
            <path fill="none" d="M-92.42,26.38 L-55.45,15.99 -18.48,5.42 18.48,-5.23 55.45,-15.92 92.42,-26.64 " class="primitive"/>
          </g>
          <g transform="translate(103.78,52.32)" id="img-008752cd-28" stroke="#008000" stroke-dasharray="none" class="color_87">
            <path fill="none" d="M-92.42,27.38 L-55.45,17.38 -18.48,6.98 18.48,-4.25 55.45,-16.7 92.42,-30.79 " class="primitive"/>
          </g>
          <g transform="translate(103.78,52.32)" id="img-008752cd-29" stroke="#FFA500" stroke-dasharray="none" class="color_88">
            <path fill="none" d="M-92.42,27.38 L-55.45,17.38 -18.48,6.98 18.48,-4.25 55.45,-16.7 92.42,-30.79 " class="primitive"/>
          </g>
          <g transform="translate(103.78,52.32)" id="img-008752cd-30" stroke="#FF00FF" stroke-dasharray="none" class="color_89">
            <path fill="none" d="M-92.42,27.38 L-55.45,17.38 -18.48,6.98 18.48,-4.25 55.45,-16.7 92.42,-30.79 " class="primitive"/>
          </g>
          <g transform="translate(103.78,53.49)" id="img-008752cd-31" stroke="#00FFFF" stroke-dasharray="none" class="color_90">
            <path fill="none" d="M-92.42,26.39 L-55.45,16.09 -18.48,5.5 18.48,-5.2 55.45,-15.98 92.42,-26.81 " class="primitive"/>
          </g>
          <g transform="translate(103.78,49.07)" id="img-008752cd-32" stroke="#A52A2A" stroke-dasharray="none" class="color_91">
            <path fill="none" d="M-92.42,24.54 L-55.45,25.31 -18.48,13.67 18.48,-2.14 55.45,-20.54 92.42,-40.83 " class="primitive"/>
          </g>
          <g transform="translate(103.78,53.51)" id="img-008752cd-33" stroke="#FFC0CB" stroke-dasharray="none" class="color_92">
            <path fill="none" d="M-92.42,26.38 L-55.45,16.05 -18.48,5.46 18.48,-5.21 55.45,-15.95 92.42,-26.73 " class="primitive"/>
          </g>
          <g transform="translate(103.78,53.49)" id="img-008752cd-34" stroke="#00FF00" stroke-dasharray="none" class="color_93">
            <path fill="none" d="M-92.42,26.4 L-55.45,16.09 -18.48,5.5 18.48,-5.2 55.45,-15.98 92.42,-26.81 " class="primitive"/>
          </g>
          <g transform="translate(103.78,53.5)" id="img-008752cd-35" stroke="#000080" stroke-dasharray="none" class="color_94">
            <path fill="none" d="M-92.42,26.39 L-55.45,16.08 -18.48,5.49 18.48,-5.21 55.45,-15.97 92.42,-26.79 " class="primitive"/>
          </g>
          <g transform="translate(103.78,53.51)" id="img-008752cd-36" stroke="#800000" stroke-dasharray="none" class="color_95">
            <path fill="none" d="M-92.42,26.38 L-55.45,16.05 -18.48,5.46 18.48,-5.21 55.45,-15.95 92.42,-26.73 " class="primitive"/>
          </g>
          <g transform="translate(103.78,53.72)" id="img-008752cd-37" stroke="#FFFF00" stroke-dasharray="none" class="color_96">
            <path fill="none" d="M-92.42,26.38 L-55.45,15.58 -18.48,5.15 18.48,-5.28 55.45,-15.71 92.42,-26.14 " class="primitive"/>
          </g>
          <g transform="translate(103.78,53.72)" id="img-008752cd-38" stroke="#808000" stroke-dasharray="none" class="color_97">
            <path fill="none" d="M-92.42,26.38 L-55.45,15.58 -18.48,5.15 18.48,-5.28 55.45,-15.71 92.42,-26.14 " class="primitive"/>
          </g>
          <g transform="translate(103.78,53.56)" id="img-008752cd-39" stroke="#00FF7F" stroke-dasharray="none" class="color_98">
            <path fill="none" d="M-92.42,26.37 L-55.45,15.97 -18.48,5.4 18.48,-5.24 55.45,-15.91 92.42,-26.6 " class="primitive"/>
          </g>
          <g transform="translate(103.78,52.71)" id="img-008752cd-40" stroke="#008080" stroke-dasharray="none" class="color_99">
            <path fill="none" d="M-92.42,27.02 L-55.45,17 -18.48,6.52 18.48,-4.6 55.45,-16.53 92.42,-29.4 " class="primitive"/>
          </g>
          <g transform="translate(103.78,53.56)" id="img-008752cd-41" stroke="#FF7F50" stroke-dasharray="none" class="color_100">
            <path fill="none" d="M-92.42,26.37 L-55.45,15.96 -18.48,5.39 18.48,-5.24 55.45,-15.9 92.42,-26.58 " class="primitive"/>
          </g>
          <g transform="translate(103.78,52.32)" id="img-008752cd-42" stroke="#E6BEFF" stroke-dasharray="none" class="color_80">
            <path fill="none" d="M-92.42,27.38 L-55.45,17.38 -18.48,6.98 18.48,-4.25 55.45,-16.7 92.42,-30.79 " class="primitive"/>
          </g>
          <g transform="translate(103.78,53.49)" id="img-008752cd-43" stroke="#F5F5DC" stroke-dasharray="none" class="color_81">
            <path fill="none" d="M-92.42,26.4 L-55.45,16.1 -18.48,5.5 18.48,-5.2 55.45,-15.98 92.42,-26.81 " class="primitive"/>
          </g>
          <g transform="translate(103.78,53.54)" id="img-008752cd-44" stroke="#800080" stroke-dasharray="none" class="color_82">
            <path fill="none" d="M-92.42,26.38 L-55.45,16 -18.48,5.43 18.48,-5.23 55.45,-15.92 92.42,-26.66 " class="primitive"/>
          </g>
          <g transform="translate(103.78,53.52)" id="img-008752cd-45" stroke="#4B6F44" stroke-dasharray="none" class="color_83">
            <path fill="none" d="M-92.42,26.37 L-55.45,16.03 -18.48,5.45 18.48,-5.21 55.45,-15.94 92.42,-26.7 " class="primitive"/>
          </g>
          <g transform="translate(103.78,52.32)" id="img-008752cd-46" stroke="#9F4576" stroke-dasharray="none" class="color_84">
            <path fill="none" d="M-92.42,27.38 L-55.45,17.38 -18.48,6.98 18.48,-4.25 55.45,-16.7 92.42,-30.79 " class="primitive"/>
          </g>
          <g transform="translate(103.78,53.72)" id="img-008752cd-47" stroke="#FF0000" stroke-dasharray="none" class="color_85">
            <path fill="none" d="M-92.42,26.38 L-55.45,15.58 -18.48,5.15 18.48,-5.28 55.45,-15.71 92.42,-26.14 " class="primitive"/>
          </g>
          <g transform="translate(103.78,53.01)" id="img-008752cd-48" stroke="#0000FF" stroke-dasharray="none" class="color_86">
            <path fill="none" d="M-92.42,26.76 L-55.45,16.46 -18.48,5.92 18.48,-4.96 55.45,-16.23 92.42,-27.95 " class="primitive"/>
          </g>
          <g transform="translate(103.78,53.72)" id="img-008752cd-49" stroke="#008000" stroke-dasharray="none" class="color_87">
            <path fill="none" d="M-92.42,26.38 L-55.45,15.58 -18.48,5.15 18.48,-5.28 55.45,-15.71 92.42,-26.14 " class="primitive"/>
          </g>
          <g transform="translate(103.78,52.32)" id="img-008752cd-50" stroke="#FFA500" stroke-dasharray="none" class="color_88">
            <path fill="none" d="M-92.42,27.38 L-55.45,17.38 -18.48,6.98 18.48,-4.25 55.45,-16.7 92.42,-30.79 " class="primitive"/>
          </g>
          <g transform="translate(103.78,53.51)" id="img-008752cd-51" stroke="#FF00FF" stroke-dasharray="none" class="color_89">
            <path fill="none" d="M-92.42,26.37 L-55.45,16.06 -18.48,5.48 18.48,-5.21 55.45,-15.95 92.42,-26.75 " class="primitive"/>
          </g>
          <g transform="translate(103.78,55.09)" id="img-008752cd-52" stroke="#00FFFF" stroke-dasharray="none" class="color_90">
            <path fill="none" d="M-92.42,24.84 L-55.45,14.11 -18.48,4.09 18.48,-5.41 55.45,-14.48 92.42,-23.16 " class="primitive"/>
          </g>
          <g transform="translate(103.78,52.32)" id="img-008752cd-53" stroke="#A52A2A" stroke-dasharray="none" class="color_91">
            <path fill="none" d="M-92.42,27.38 L-55.45,17.38 -18.48,6.98 18.48,-4.25 55.45,-16.7 92.42,-30.79 " class="primitive"/>
          </g>
          <g transform="translate(103.78,53.67)" id="img-008752cd-54" stroke="#FFC0CB" stroke-dasharray="none" class="color_92">
            <path fill="none" d="M-92.42,26.35 L-55.45,15.75 -18.48,5.23 18.48,-5.28 55.45,-15.78 92.42,-26.28 " class="primitive"/>
          </g>
          <g transform="translate(103.78,53.48)" id="img-008752cd-55" stroke="#00FF00" stroke-dasharray="none" class="color_93">
            <path fill="none" d="M-92.42,26.4 L-55.45,16.1 -18.48,5.51 18.48,-5.2 55.45,-15.99 92.42,-26.83 " class="primitive"/>
          </g>
          <g transform="translate(103.78,53.48)" id="img-008752cd-56" stroke="#000080" stroke-dasharray="none" class="color_94">
            <path fill="none" d="M-92.42,26.4 L-55.45,16.1 -18.48,5.51 18.48,-5.2 55.45,-15.99 92.42,-26.83 " class="primitive"/>
          </g>
          <g transform="translate(103.78,53.72)" id="img-008752cd-57" stroke="#800000" stroke-dasharray="none" class="color_95">
            <path fill="none" d="M-92.42,26.38 L-55.45,15.58 -18.48,5.15 18.48,-5.28 55.45,-15.71 92.42,-26.14 " class="primitive"/>
          </g>
          <g transform="translate(103.78,53.48)" id="img-008752cd-58" stroke="#FFFF00" stroke-dasharray="none" class="color_96">
            <path fill="none" d="M-92.42,26.4 L-55.45,16.11 -18.48,5.51 18.48,-5.2 55.45,-15.99 92.42,-26.83 " class="primitive"/>
          </g>
          <g transform="translate(103.78,53.56)" id="img-008752cd-59" stroke="#808000" stroke-dasharray="none" class="color_97">
            <path fill="none" d="M-92.42,26.37 L-55.45,15.97 -18.48,5.4 18.48,-5.24 55.45,-15.91 92.42,-26.6 " class="primitive"/>
          </g>
          <g transform="translate(103.78,52.32)" id="img-008752cd-60" stroke="#00FF7F" stroke-dasharray="none" class="color_98">
            <path fill="none" d="M-92.42,27.38 L-55.45,17.38 -18.48,6.98 18.48,-4.25 55.45,-16.7 92.42,-30.79 " class="primitive"/>
          </g>
          <g transform="translate(103.78,52.32)" id="img-008752cd-61" stroke="#008080" stroke-dasharray="none" class="color_99">
            <path fill="none" d="M-92.42,27.38 L-55.45,17.38 -18.48,6.98 18.48,-4.25 55.45,-16.7 92.42,-30.79 " class="primitive"/>
          </g>
          <g transform="translate(103.78,53.48)" id="img-008752cd-62" stroke="#FF7F50" stroke-dasharray="none" class="color_100">
            <path fill="none" d="M-92.42,26.4 L-55.45,16.11 -18.48,5.51 18.48,-5.2 55.45,-15.99 92.42,-26.83 " class="primitive"/>
          </g>
          <g transform="translate(103.78,53.52)" id="img-008752cd-63" stroke="#E6BEFF" stroke-dasharray="none" class="color_80">
            <path fill="none" d="M-92.42,26.38 L-55.45,16.04 -18.48,5.46 18.48,-5.21 55.45,-15.95 92.42,-26.73 " class="primitive"/>
          </g>
          <g transform="translate(103.78,53.72)" id="img-008752cd-64" stroke="#F5F5DC" stroke-dasharray="none" class="color_81">
            <path fill="none" d="M-92.42,26.38 L-55.45,15.58 -18.48,5.15 18.48,-5.28 55.45,-15.71 92.42,-26.14 " class="primitive"/>
          </g>
          <g transform="translate(103.78,52.32)" id="img-008752cd-65" stroke="#800080" stroke-dasharray="none" class="color_82">
            <path fill="none" d="M-92.42,27.38 L-55.45,17.38 -18.48,6.98 18.48,-4.25 55.45,-16.7 92.42,-30.79 " class="primitive"/>
          </g>
          <g transform="translate(103.78,52.32)" id="img-008752cd-66" stroke="#4B6F44" stroke-dasharray="none" class="color_83">
            <path fill="none" d="M-92.42,27.38 L-55.45,17.38 -18.48,6.98 18.48,-4.25 55.45,-16.7 92.42,-30.79 " class="primitive"/>
          </g>
          <g transform="translate(103.78,53.52)" id="img-008752cd-67" stroke="#9F4576" stroke-dasharray="none" class="color_84">
            <path fill="none" d="M-92.42,26.38 L-55.45,16.03 -18.48,5.45 18.48,-5.22 55.45,-15.94 92.42,-26.71 " class="primitive"/>
          </g>
          <g transform="translate(103.78,52.32)" id="img-008752cd-68" stroke="#FF0000" stroke-dasharray="none" class="color_85">
            <path fill="none" d="M-92.42,27.38 L-55.45,17.38 -18.48,6.98 18.48,-4.25 55.45,-16.7 92.42,-30.79 " class="primitive"/>
          </g>
          <g transform="translate(103.78,53.49)" id="img-008752cd-69" stroke="#0000FF" stroke-dasharray="none" class="color_86">
            <path fill="none" d="M-92.42,26.39 L-55.45,16.09 -18.48,5.5 18.48,-5.21 55.45,-15.98 92.42,-26.8 " class="primitive"/>
          </g>
          <g transform="translate(103.78,52.32)" id="img-008752cd-70" stroke="#008000" stroke-dasharray="none" class="color_87">
            <path fill="none" d="M-92.42,27.38 L-55.45,17.38 -18.48,6.98 18.48,-4.25 55.45,-16.7 92.42,-30.79 " class="primitive"/>
          </g>
          <g transform="translate(103.78,53.52)" id="img-008752cd-71" stroke="#FFA500" stroke-dasharray="none" class="color_88">
            <path fill="none" d="M-92.42,26.38 L-55.45,16.06 -18.48,5.47 18.48,-5.21 55.45,-15.95 92.42,-26.74 " class="primitive"/>
          </g>
          <g transform="translate(103.78,53.49)" id="img-008752cd-72" stroke="#FF00FF" stroke-dasharray="none" class="color_89">
            <path fill="none" d="M-92.42,26.39 L-55.45,16.1 -18.48,5.5 18.48,-5.2 55.45,-15.98 92.42,-26.81 " class="primitive"/>
          </g>
          <g transform="translate(103.78,53.48)" id="img-008752cd-73" stroke="#00FFFF" stroke-dasharray="none" class="color_90">
            <path fill="none" d="M-92.42,26.4 L-55.45,16.1 -18.48,5.51 18.48,-5.2 55.45,-15.98 92.42,-26.82 " class="primitive"/>
          </g>
          <g transform="translate(103.78,53.72)" id="img-008752cd-74" stroke="#A52A2A" stroke-dasharray="none" class="color_91">
            <path fill="none" d="M-92.42,26.38 L-55.45,15.58 -18.48,5.15 18.48,-5.28 55.45,-15.71 92.42,-26.14 " class="primitive"/>
          </g>
          <g transform="translate(103.78,53.56)" id="img-008752cd-75" stroke="#FFC0CB" stroke-dasharray="none" class="color_92">
            <path fill="none" d="M-92.42,26.37 L-55.45,15.97 -18.48,5.39 18.48,-5.24 55.45,-15.9 92.42,-26.6 " class="primitive"/>
          </g>
          <g transform="translate(103.78,52.32)" id="img-008752cd-76" stroke="#00FF00" stroke-dasharray="none" class="color_93">
            <path fill="none" d="M-92.42,27.38 L-55.45,17.38 -18.48,6.98 18.48,-4.25 55.45,-16.7 92.42,-30.79 " class="primitive"/>
          </g>
          <g transform="translate(103.78,53.48)" id="img-008752cd-77" stroke="#000080" stroke-dasharray="none" class="color_94">
            <path fill="none" d="M-92.42,26.4 L-55.45,16.11 -18.48,5.51 18.48,-5.2 55.45,-15.99 92.42,-26.83 " class="primitive"/>
          </g>
          <g transform="translate(103.78,53.49)" id="img-008752cd-78" stroke="#800000" stroke-dasharray="none" class="color_95">
            <path fill="none" d="M-92.42,26.39 L-55.45,16.09 -18.48,5.49 18.48,-5.2 55.45,-15.97 92.42,-26.79 " class="primitive"/>
          </g>
          <g transform="translate(103.78,53.49)" id="img-008752cd-79" stroke="#FFFF00" stroke-dasharray="none" class="color_96">
            <path fill="none" d="M-92.42,26.39 L-55.45,16.09 -18.48,5.49 18.48,-5.21 55.45,-15.98 92.42,-26.8 " class="primitive"/>
          </g>
          <g transform="translate(103.78,52.32)" id="img-008752cd-80" stroke="#808000" stroke-dasharray="none" class="color_97">
            <path fill="none" d="M-92.42,27.38 L-55.45,17.38 -18.48,6.98 18.48,-4.25 55.45,-16.7 92.42,-30.79 " class="primitive"/>
          </g>
          <g transform="translate(103.78,52.93)" id="img-008752cd-81" stroke="#00FF7F" stroke-dasharray="none" class="color_98">
            <path fill="none" d="M-92.42,26.81 L-55.45,16.76 -18.48,6.25 18.48,-4.79 55.45,-16.4 92.42,-28.62 " class="primitive"/>
          </g>
          <g transform="translate(103.78,53.72)" id="img-008752cd-82" stroke="#008080" stroke-dasharray="none" class="color_99">
            <path fill="none" d="M-92.42,26.38 L-55.45,15.58 -18.48,5.15 18.48,-5.28 55.45,-15.71 92.42,-26.14 " class="primitive"/>
          </g>
          <g transform="translate(103.78,52.32)" id="img-008752cd-83" stroke="#FF7F50" stroke-dasharray="none" class="color_100">
            <path fill="none" d="M-92.42,27.38 L-55.45,17.38 -18.48,6.98 18.48,-4.25 55.45,-16.7 92.42,-30.79 " class="primitive"/>
          </g>
          <g transform="translate(103.78,52.32)" id="img-008752cd-84" stroke="#E6BEFF" stroke-dasharray="none" class="color_80">
            <path fill="none" d="M-92.42,27.38 L-55.45,17.38 -18.48,6.98 18.48,-4.25 55.45,-16.7 92.42,-30.79 " class="primitive"/>
          </g>
          <g transform="translate(103.78,52.32)" id="img-008752cd-85" stroke="#F5F5DC" stroke-dasharray="none" class="color_81">
            <path fill="none" d="M-92.42,27.38 L-55.45,17.38 -18.48,6.98 18.48,-4.25 55.45,-16.7 92.42,-30.79 " class="primitive"/>
          </g>
          <g transform="translate(103.78,53.2)" id="img-008752cd-86" stroke="#800080" stroke-dasharray="none" class="color_82">
            <path fill="none" d="M-92.42,20.32 L-55.45,12.32 -18.48,4.17 18.48,-4.03 55.45,-12.26 92.42,-20.52 " class="primitive"/>
          </g>
          <g transform="translate(103.78,53.52)" id="img-008752cd-87" stroke="#4B6F44" stroke-dasharray="none" class="color_83">
            <path fill="none" d="M-92.42,26.39 L-55.45,16.04 -18.48,5.45 18.48,-5.22 55.45,-15.95 92.42,-26.72 " class="primitive"/>
          </g>
          <g transform="translate(103.78,53.51)" id="img-008752cd-88" stroke="#9F4576" stroke-dasharray="none" class="color_84">
            <path fill="none" d="M-92.42,26.38 L-55.45,16.05 -18.48,5.46 18.48,-5.21 55.45,-15.95 92.42,-26.73 " class="primitive"/>
          </g>
          <g transform="translate(103.78,53.52)" id="img-008752cd-89" stroke="#FF0000" stroke-dasharray="none" class="color_85">
            <path fill="none" d="M-92.42,26.39 L-55.45,16.04 -18.48,5.46 18.48,-5.22 55.45,-15.95 92.42,-26.72 " class="primitive"/>
          </g>
          <g transform="translate(103.78,53.48)" id="img-008752cd-90" stroke="#0000FF" stroke-dasharray="none" class="color_86">
            <path fill="none" d="M-92.42,26.4 L-55.45,16.1 -18.48,5.51 18.48,-5.2 55.45,-15.99 92.42,-26.83 " class="primitive"/>
          </g>
          <g transform="translate(103.78,52.72)" id="img-008752cd-91" stroke="#008000" stroke-dasharray="none" class="color_87">
            <path fill="none" d="M-92.42,27.01 L-55.45,16.97 -18.48,6.5 18.48,-4.61 55.45,-16.52 92.42,-29.35 " class="primitive"/>
          </g>
          <g transform="translate(103.78,53.72)" id="img-008752cd-92" stroke="#FFA500" stroke-dasharray="none" class="color_88">
            <path fill="none" d="M-92.42,26.38 L-55.45,15.58 -18.48,5.15 18.48,-5.28 55.45,-15.71 92.42,-26.14 " class="primitive"/>
          </g>
          <g transform="translate(103.78,53.72)" id="img-008752cd-93" stroke="#FF00FF" stroke-dasharray="none" class="color_89">
            <path fill="none" d="M-92.42,26.38 L-55.45,15.58 -18.48,5.15 18.48,-5.28 55.45,-15.71 92.42,-26.14 " class="primitive"/>
          </g>
          <g transform="translate(103.78,53.53)" id="img-008752cd-94" stroke="#00FFFF" stroke-dasharray="none" class="color_90">
            <path fill="none" d="M-92.42,26.39 L-55.45,16.03 -18.48,5.45 18.48,-5.22 55.45,-15.94 92.42,-26.7 " class="primitive"/>
          </g>
          <g transform="translate(103.78,53.52)" id="img-008752cd-95" stroke="#A52A2A" stroke-dasharray="none" class="color_91">
            <path fill="none" d="M-92.42,26.39 L-55.45,16.04 -18.48,5.46 18.48,-5.22 55.45,-15.95 92.42,-26.72 " class="primitive"/>
          </g>
          <g transform="translate(103.78,53.49)" id="img-008752cd-96" stroke="#FFC0CB" stroke-dasharray="none" class="color_92">
            <path fill="none" d="M-92.42,26.4 L-55.45,16.1 -18.48,5.5 18.48,-5.2 55.45,-15.98 92.42,-26.81 " class="primitive"/>
          </g>
          <g transform="translate(103.78,53.18)" id="img-008752cd-97" stroke="#00FF00" stroke-dasharray="none" class="color_93">
            <path fill="none" d="M-92.42,26.6 L-55.45,16.49 -18.48,5.93 18.48,-4.99 55.45,-16.24 92.42,-27.79 " class="primitive"/>
          </g>
          <g transform="translate(103.78,52.32)" id="img-008752cd-98" stroke="#000080" stroke-dasharray="none" class="color_94">
            <path fill="none" d="M-92.42,27.37 L-55.45,17.38 -18.48,6.97 18.48,-4.26 55.45,-16.7 92.42,-30.76 " class="primitive"/>
          </g>
          <g transform="translate(103.78,52.69)" id="img-008752cd-99" stroke="#800000" stroke-dasharray="none" class="color_95">
            <path fill="none" d="M-92.42,27.03 L-55.45,17.01 -18.48,6.54 18.48,-4.59 55.45,-16.54 92.42,-29.44 " class="primitive"/>
          </g>
          <g transform="translate(103.78,53.55)" id="img-008752cd-100" stroke="#FFFF00" stroke-dasharray="none" class="color_96">
            <path fill="none" d="M-92.42,26.37 L-55.45,15.98 -18.48,5.4 18.48,-5.23 55.45,-15.91 92.42,-26.62 " class="primitive"/>
          </g>
          <g transform="translate(103.78,53.72)" id="img-008752cd-101" stroke="#808000" stroke-dasharray="none" class="color_97">
            <path fill="none" d="M-92.42,26.38 L-55.45,15.59 -18.48,5.16 18.48,-5.28 55.45,-15.71 92.42,-26.14 " class="primitive"/>
          </g>
          <g transform="translate(103.78,53.52)" id="img-008752cd-102" stroke="#00FF7F" stroke-dasharray="none" class="color_98">
            <path fill="none" d="M-92.42,26.38 L-55.45,16.03 -18.48,5.45 18.48,-5.22 55.45,-15.94 92.42,-26.7 " class="primitive"/>
          </g>
          <g transform="translate(103.78,52.32)" id="img-008752cd-103" stroke="#008080" stroke-dasharray="none" class="color_99">
            <path fill="none" d="M-92.42,27.38 L-55.45,17.38 -18.48,6.98 18.48,-4.25 55.45,-16.7 92.42,-30.79 " class="primitive"/>
          </g>
          <g transform="translate(103.78,53.52)" id="img-008752cd-104" stroke="#FF7F50" stroke-dasharray="none" class="color_100">
            <path fill="none" d="M-92.42,26.38 L-55.45,16.06 -18.48,5.47 18.48,-5.21 55.45,-15.95 92.42,-26.74 " class="primitive"/>
          </g>
          <g transform="translate(103.78,53.5)" id="img-008752cd-105" stroke="#E6BEFF" stroke-dasharray="none" class="color_80">
            <path fill="none" d="M-92.42,26.4 L-55.45,16.08 -18.48,5.48 18.48,-5.21 55.45,-15.97 92.42,-26.78 " class="primitive"/>
          </g>
          <g transform="translate(103.78,52.32)" id="img-008752cd-106" stroke="#F5F5DC" stroke-dasharray="none" class="color_81">
            <path fill="none" d="M-92.42,27.38 L-55.45,17.38 -18.48,6.98 18.48,-4.25 55.45,-16.7 92.42,-30.79 " class="primitive"/>
          </g>
          <g transform="translate(103.78,52.32)" id="img-008752cd-107" stroke="#800080" stroke-dasharray="none" class="color_82">
            <path fill="none" d="M-92.42,27.38 L-55.45,17.38 -18.48,6.98 18.48,-4.25 55.45,-16.7 92.42,-30.79 " class="primitive"/>
          </g>
          <g transform="translate(103.78,53.28)" id="img-008752cd-108" stroke="#4B6F44" stroke-dasharray="none" class="color_83">
            <path fill="none" d="M-92.42,26.54 L-55.45,16.37 -18.48,5.8 18.48,-5.06 55.45,-16.16 92.42,-27.48 " class="primitive"/>
          </g>
          <g transform="translate(103.78,52.32)" id="img-008752cd-109" stroke="#9F4576" stroke-dasharray="none" class="color_84">
            <path fill="none" d="M-92.42,27.38 L-55.45,17.38 -18.48,6.98 18.48,-4.25 55.45,-16.7 92.42,-30.79 " class="primitive"/>
          </g>
          <g transform="translate(103.78,53.5)" id="img-008752cd-110" stroke="#FF0000" stroke-dasharray="none" class="color_85">
            <path fill="none" d="M-92.42,26.39 L-55.45,16.08 -18.48,5.49 18.48,-5.21 55.45,-15.97 92.42,-26.78 " class="primitive"/>
          </g>
          <g transform="translate(103.78,53.52)" id="img-008752cd-111" stroke="#0000FF" stroke-dasharray="none" class="color_86">
            <path fill="none" d="M-92.42,26.37 L-55.45,16.03 -18.48,5.46 18.48,-5.21 55.45,-15.94 92.42,-26.71 " class="primitive"/>
          </g>
          <g transform="translate(103.78,53.5)" id="img-008752cd-112" stroke="#008000" stroke-dasharray="none" class="color_87">
            <path fill="none" d="M-92.42,26.39 L-55.45,16.08 -18.48,5.49 18.48,-5.21 55.45,-15.97 92.42,-26.78 " class="primitive"/>
          </g>
          <g transform="translate(103.78,53.72)" id="img-008752cd-113" stroke="#FFA500" stroke-dasharray="none" class="color_88">
            <path fill="none" d="M-92.42,26.38 L-55.45,15.58 -18.48,5.15 18.48,-5.28 55.45,-15.71 92.42,-26.14 " class="primitive"/>
          </g>
          <g transform="translate(103.78,52.32)" id="img-008752cd-114" stroke="#FF00FF" stroke-dasharray="none" class="color_89">
            <path fill="none" d="M-92.42,27.38 L-55.45,17.38 -18.48,6.98 18.48,-4.25 55.45,-16.7 92.42,-30.79 " class="primitive"/>
          </g>
          <g transform="translate(103.78,52.32)" id="img-008752cd-115" stroke="#00FFFF" stroke-dasharray="none" class="color_90">
            <path fill="none" d="M-92.42,27.38 L-55.45,17.38 -18.48,6.98 18.48,-4.25 55.45,-16.7 92.42,-30.79 " class="primitive"/>
          </g>
          <g transform="translate(103.78,52.32)" id="img-008752cd-116" stroke="#A52A2A" stroke-dasharray="none" class="color_91">
            <path fill="none" d="M-92.42,27.38 L-55.45,17.38 -18.48,6.98 18.48,-4.25 55.45,-16.7 92.42,-30.79 " class="primitive"/>
          </g>
          <g transform="translate(103.78,53.49)" id="img-008752cd-117" stroke="#FFC0CB" stroke-dasharray="none" class="color_92">
            <path fill="none" d="M-92.42,26.4 L-55.45,16.1 -18.48,5.5 18.48,-5.2 55.45,-15.98 92.42,-26.81 " class="primitive"/>
          </g>
          <g transform="translate(103.78,53.49)" id="img-008752cd-118" stroke="#00FF00" stroke-dasharray="none" class="color_93">
            <path fill="none" d="M-92.42,26.39 L-55.45,16.09 -18.48,5.5 18.48,-5.2 55.45,-15.98 92.42,-26.8 " class="primitive"/>
          </g>
          <g transform="translate(103.78,53.52)" id="img-008752cd-119" stroke="#000080" stroke-dasharray="none" class="color_94">
            <path fill="none" d="M-92.42,26.38 L-55.45,16.03 -18.48,5.45 18.48,-5.22 55.45,-15.94 92.42,-26.71 " class="primitive"/>
          </g>
          <g transform="translate(103.78,52.32)" id="img-008752cd-120" stroke="#800000" stroke-dasharray="none" class="color_95">
            <path fill="none" d="M-92.42,27.38 L-55.45,17.38 -18.48,6.98 18.48,-4.25 55.45,-16.7 92.42,-30.79 " class="primitive"/>
          </g>
          <g transform="translate(103.78,52.32)" id="img-008752cd-121" stroke="#FFFF00" stroke-dasharray="none" class="color_96">
            <path fill="none" d="M-92.42,27.38 L-55.45,17.38 -18.48,6.98 18.48,-4.25 55.45,-16.7 92.42,-30.79 " class="primitive"/>
          </g>
          <g transform="translate(103.78,53.56)" id="img-008752cd-122" stroke="#808000" stroke-dasharray="none" class="color_97">
            <path fill="none" d="M-92.42,26.37 L-55.45,15.97 -18.48,5.4 18.48,-5.24 55.45,-15.91 92.42,-26.6 " class="primitive"/>
          </g>
          <g transform="translate(103.78,53.47)" id="img-008752cd-123" stroke="#00FF7F" stroke-dasharray="none" class="color_98">
            <path fill="none" d="M-92.42,26.4 L-55.45,16.12 -18.48,5.52 18.48,-5.2 55.45,-15.99 92.42,-26.85 " class="primitive"/>
          </g>
          <g transform="translate(103.78,53.49)" id="img-008752cd-124" stroke="#008080" stroke-dasharray="none" class="color_99">
            <path fill="none" d="M-92.42,26.39 L-55.45,16.09 -18.48,5.5 18.48,-5.2 55.45,-15.98 92.42,-26.81 " class="primitive"/>
          </g>
          <g transform="translate(103.78,53.52)" id="img-008752cd-125" stroke="#FF7F50" stroke-dasharray="none" class="color_100">
            <path fill="none" d="M-92.42,26.38 L-55.45,16.05 -18.48,5.46 18.48,-5.22 55.45,-15.95 92.42,-26.72 " class="primitive"/>
          </g>
        </g>
        <g class="geometry" id="img-008752cd-126">
          <g stroke-width="0" id="img-008752cd-127">
            <g class="color_RGBA{Float32}(1.0f0,0.0f0,0.0f0,1.0f0)" fill-opacity="1" stroke="#FFFFFF" fill="#FF0000" id="img-008752cd-128">
              <g class="marker" id="img-008752cd-129">
                <g transform="translate(196.2,NaN)" id="img-008752cd-130">
                  <circle cx="0" cy="0" r="1.41" class="primitive"/>
                </g>
              </g>
            </g>
            <g class="color_RGBA{Float32}(1.0f0,0.0f0,0.0f0,1.0f0)" fill-opacity="1" stroke="#FFFFFF" fill="#FF0000" id="img-008752cd-131">
              <g class="marker" id="img-008752cd-132">
                <g transform="translate(159.23,39.38)" id="img-008752cd-133">
                  <circle cx="0" cy="0" r="1.41" class="primitive"/>
                </g>
              </g>
            </g>
            <g class="color_RGBA{Float32}(1.0f0,0.0f0,0.0f0,1.0f0)" fill-opacity="1" stroke="#FFFFFF" fill="#FF0000" id="img-008752cd-134">
              <g class="marker" id="img-008752cd-135">
                <g transform="translate(122.27,47.73)" id="img-008752cd-136">
                  <circle cx="0" cy="0" r="1.41" class="primitive"/>
                </g>
              </g>
            </g>
            <g class="color_RGBA{Float32}(1.0f0,0.0f0,0.0f0,1.0f0)" fill-opacity="1" stroke="#FFFFFF" fill="#FF0000" id="img-008752cd-137">
              <g class="marker" id="img-008752cd-138">
                <g transform="translate(85.3,60.26)" id="img-008752cd-139">
                  <circle cx="0" cy="0" r="1.41" class="primitive"/>
                </g>
              </g>
            </g>
            <g class="color_RGBA{Float32}(1.0f0,0.0f0,0.0f0,1.0f0)" fill-opacity="1" stroke="#FFFFFF" fill="#FF0000" id="img-008752cd-140">
              <g class="marker" id="img-008752cd-141">
                <g transform="translate(48.33,68.62)" id="img-008752cd-142">
                  <circle cx="0" cy="0" r="1.41" class="primitive"/>
                </g>
              </g>
            </g>
            <g class="color_RGBA{Float32}(1.0f0,0.0f0,0.0f0,1.0f0)" fill-opacity="1" stroke="#FFFFFF" fill="#FF0000" id="img-008752cd-143">
              <g class="marker" id="img-008752cd-144">
                <g transform="translate(11.36,80.11)" id="img-008752cd-145">
                  <circle cx="0" cy="0" r="1.41" class="primitive"/>
                </g>
              </g>
            </g>
          </g>
        </g>
      </g>
    </g>
  </g>
  <g class="guide ylabels" font-size="2.82" font-family="'PT Sans Caption','Helvetica Neue','Helvetica',sans-serif" fill="#6C606B" id="img-008752cd-146">
    <g transform="translate(8.36,90.55)" id="img-008752cd-147">
      <g class="primitive">
        <text text-anchor="end" dy="0.35em">-1</text>
      </g>
    </g>
    <g transform="translate(8.36,80.11)" id="img-008752cd-148">
      <g class="primitive">
        <text text-anchor="end" dy="0.35em">0</text>
      </g>
    </g>
    <g transform="translate(8.36,69.66)" id="img-008752cd-149">
      <g class="primitive">
        <text text-anchor="end" dy="0.35em">1</text>
      </g>
    </g>
    <g transform="translate(8.36,59.22)" id="img-008752cd-150">
      <g class="primitive">
        <text text-anchor="end" dy="0.35em">2</text>
      </g>
    </g>
    <g transform="translate(8.36,48.78)" id="img-008752cd-151">
      <g class="primitive">
        <text text-anchor="end" dy="0.35em">3</text>
      </g>
    </g>
    <g transform="translate(8.36,38.33)" id="img-008752cd-152">
      <g class="primitive">
        <text text-anchor="end" dy="0.35em">4</text>
      </g>
    </g>
    <g transform="translate(8.36,27.89)" id="img-008752cd-153">
      <g class="primitive">
        <text text-anchor="end" dy="0.35em">5</text>
      </g>
    </g>
    <g transform="translate(8.36,17.44)" id="img-008752cd-154">
      <g class="primitive">
        <text text-anchor="end" dy="0.35em">6</text>
      </g>
    </g>
    <g transform="translate(8.36,7)" id="img-008752cd-155">
      <g class="primitive">
        <text text-anchor="end" dy="0.35em">7</text>
      </g>
    </g>
  </g>
</g>
<defs>
  <clipPath id="img-008752cd-3">
    <path d="M9.36,5 L198.2,5 198.2,92.55 9.36,92.55 " />
  </clipPath>
</defs>
</svg>
