<?xml version="1.0" encoding="UTF-8"?>
<svg xmlns="http://www.w3.org/2000/svg"
     xmlns:xlink="http://www.w3.org/1999/xlink"
     xmlns:gadfly="http://www.gadflyjl.org/ns"
     version="1.2"
     width="203.2mm" height="101.6mm" viewBox="0 0 203.2 101.6"
     stroke="none"
     fill="#000000"
     stroke-width="0.3"
     font-size="3.88"
>
<defs>
  <marker id="arrow" markerWidth="15" markerHeight="7" refX="5" refY="3.5" orient="auto" markerUnits="strokeWidth">
    <path d="M0,0 L15,3.5 L0,7 z" stroke="context-stroke" fill="context-stroke"/>
  </marker>
</defs>
<g class="plotroot xscalable yscalable" id="img-0706ba61-1">
  <g class="guide xlabels" font-size="2.82" font-family="'PT Sans Caption','Helvetica Neue','Helvetica',sans-serif" fill="#6C606B" id="img-0706ba61-2">
    <g transform="translate(34.4,92.78)">
      <g class="primitive">
        <text text-anchor="middle" dy="0.6em">0</text>
      </g>
    </g>
    <g transform="translate(66.76,92.78)">
      <g class="primitive">
        <text text-anchor="middle" dy="0.6em">1</text>
      </g>
    </g>
    <g transform="translate(99.12,92.78)">
      <g class="primitive">
        <text text-anchor="middle" dy="0.6em">2</text>
      </g>
    </g>
    <g transform="translate(131.48,92.78)">
      <g class="primitive">
        <text text-anchor="middle" dy="0.6em">3</text>
      </g>
    </g>
    <g transform="translate(163.84,92.78)">
      <g class="primitive">
        <text text-anchor="middle" dy="0.6em">4</text>
      </g>
    </g>
    <g transform="translate(196.2,92.78)">
      <g class="primitive">
        <text text-anchor="middle" dy="0.6em">5</text>
      </g>
    </g>
  </g>
  <g clip-path="url(#img-0706ba61-3)">
    <g id="img-0706ba61-4">
      <g pointer-events="visible" stroke-width="0.3" fill="#000000" fill-opacity="0.000" stroke="#000000" stroke-opacity="0.000" class="guide background" id="img-0706ba61-5">
        <g transform="translate(115.3,48.39)" id="img-0706ba61-6">
          <path d="M-82.9,-43.39 L82.9,-43.39 82.9,43.39 -82.9,43.39  z" class="primitive"/>
        </g>
      </g>
      <g class="guide ygridlines xfixed" stroke-dasharray="0.5,0.5" stroke-width="0.2" stroke="#D0D0E0" id="img-0706ba61-7">
        <g transform="translate(115.3,89.78)" id="img-0706ba61-8">
          <path fill="none" d="M-82.9,0 L82.9,0 " class="primitive"/>
        </g>
        <g transform="translate(115.3,73.22)" id="img-0706ba61-9">
          <path fill="none" d="M-82.9,0 L82.9,0 " class="primitive"/>
        </g>
        <g transform="translate(115.3,56.67)" id="img-0706ba61-10">
          <path fill="none" d="M-82.9,0 L82.9,0 " class="primitive"/>
        </g>
        <g transform="translate(115.3,40.11)" id="img-0706ba61-11">
          <path fill="none" d="M-82.9,0 L82.9,0 " class="primitive"/>
        </g>
        <g transform="translate(115.3,23.56)" id="img-0706ba61-12">
          <path fill="none" d="M-82.9,0 L82.9,0 " class="primitive"/>
        </g>
        <g transform="translate(115.3,7)" id="img-0706ba61-13">
          <path fill="none" d="M-82.9,0 L82.9,0 " class="primitive"/>
        </g>
      </g>
      <g class="guide xgridlines yfixed" stroke-dasharray="0.5,0.5" stroke-width="0.2" stroke="#D0D0E0" id="img-0706ba61-14">
        <g transform="translate(34.4,48.39)" id="img-0706ba61-15">
          <path fill="none" d="M0,-43.39 L0,43.39 " class="primitive"/>
        </g>
        <g transform="translate(66.76,48.39)" id="img-0706ba61-16">
          <path fill="none" d="M0,-43.39 L0,43.39 " class="primitive"/>
        </g>
        <g transform="translate(99.12,48.39)" id="img-0706ba61-17">
          <path fill="none" d="M0,-43.39 L0,43.39 " class="primitive"/>
        </g>
        <g transform="translate(131.48,48.39)" id="img-0706ba61-18">
          <path fill="none" d="M0,-43.39 L0,43.39 " class="primitive"/>
        </g>
        <g transform="translate(163.84,48.39)" id="img-0706ba61-19">
          <path fill="none" d="M0,-43.39 L0,43.39 " class="primitive"/>
        </g>
        <g transform="translate(196.2,48.39)" id="img-0706ba61-20">
          <path fill="none" d="M0,-43.39 L0,43.39 " class="primitive"/>
        </g>
      </g>
      <g class="plotpanel" id="img-0706ba61-21">
        <metadata>
          <boundingbox value="32.400000000000006mm 5.0mm 165.8mm 86.77777777777777mm"/>
          <unitbox value="-0.06180469715698393 20.604026845637584 5.123609394313968 -26.20805369127517"/>
        </metadata>
        <g stroke-width="0.71" fill="#000000" fill-opacity="0.000" class="geometry" id="img-0706ba61-22">
          <g transform="translate(115.3,64.79)" id="img-0706ba61-23" stroke-dasharray="none" stroke="#FF0000" class="color_97">
            <path fill="none" d="M-80.9,8.36 L-48.54,5.09 -16.18,1.74 16.18,-1.65 48.54,-5.06 80.9,-8.48 " class="primitive"/>
          </g>
          <g transform="translate(115.3,64.8)" id="img-0706ba61-24" stroke-dasharray="none" stroke="#0000FF" class="color_98">
            <path fill="none" d="M-80.9,8.36 L-48.54,5.06 -16.18,1.71 16.18,-1.66 48.54,-5.04 80.9,-8.43 " class="primitive"/>
          </g>
          <g transform="translate(115.3,64.79)" id="img-0706ba61-25" stroke-dasharray="none" stroke="#008000" class="color_99">
            <path fill="none" d="M-80.9,8.36 L-48.54,5.09 -16.18,1.74 16.18,-1.65 48.54,-5.06 80.9,-8.48 " class="primitive"/>
          </g>
          <g transform="translate(115.3,64.41)" id="img-0706ba61-26" stroke-dasharray="none" stroke="#00FFFF" class="color_100">
            <path fill="none" d="M-80.9,8.68 L-48.54,5.51 -16.18,2.21 16.18,-1.35 48.54,-5.3 80.9,-9.76 " class="primitive"/>
          </g>
          <g transform="translate(115.3,64.79)" id="img-0706ba61-27" stroke-dasharray="none" stroke="#FF00FF" class="color_95">
            <path fill="none" d="M-80.9,8.37 L-48.54,5.09 -16.18,1.74 16.18,-1.65 48.54,-5.06 80.9,-8.49 " class="primitive"/>
          </g>
          <g transform="translate(115.3,64.57)" id="img-0706ba61-28" stroke-dasharray="none" stroke="#FFFF00" class="color_96">
            <path fill="none" d="M-80.9,8.54 L-48.54,5.35 -16.18,2.03 16.18,-1.49 48.54,-5.22 80.9,-9.21 " class="primitive"/>
          </g>
          <g transform="translate(115.3,64.81)" id="img-0706ba61-29" stroke-dasharray="none" stroke="#FF0000" class="color_97">
            <path fill="none" d="M-80.9,8.36 L-48.54,5.06 -16.18,1.71 16.18,-1.66 48.54,-5.04 80.9,-8.43 " class="primitive"/>
          </g>
          <g transform="translate(115.3,64.86)" id="img-0706ba61-30" stroke-dasharray="none" stroke="#0000FF" class="color_98">
            <path fill="none" d="M-80.9,8.36 L-48.54,4.94 -16.18,1.63 16.18,-1.67 48.54,-4.98 80.9,-8.29 " class="primitive"/>
          </g>
          <g transform="translate(115.3,64.41)" id="img-0706ba61-31" stroke-dasharray="none" stroke="#008000" class="color_99">
            <path fill="none" d="M-80.9,8.68 L-48.54,5.51 -16.18,2.21 16.18,-1.35 48.54,-5.3 80.9,-9.76 " class="primitive"/>
          </g>
          <g transform="translate(115.3,64.79)" id="img-0706ba61-32" stroke-dasharray="none" stroke="#00FFFF" class="color_100">
            <path fill="none" d="M-80.9,8.37 L-48.54,5.09 -16.18,1.73 16.18,-1.66 48.54,-5.06 80.9,-8.47 " class="primitive"/>
          </g>
          <g transform="translate(115.3,64.86)" id="img-0706ba61-33" stroke-dasharray="none" stroke="#FF00FF" class="color_95">
            <path fill="none" d="M-80.9,8.36 L-48.54,4.94 -16.18,1.63 16.18,-1.67 48.54,-4.98 80.9,-8.29 " class="primitive"/>
          </g>
          <g transform="translate(115.3,64.78)" id="img-0706ba61-34" stroke-dasharray="none" stroke="#FFFF00" class="color_96">
            <path fill="none" d="M-80.9,8.37 L-48.54,5.11 -16.18,1.75 16.18,-1.65 48.54,-5.07 80.9,-8.5 " class="primitive"/>
          </g>
          <g transform="translate(115.3,64.78)" id="img-0706ba61-35" stroke-dasharray="none" stroke="#FF0000" class="color_97">
            <path fill="none" d="M-80.9,8.37 L-48.54,5.11 -16.18,1.75 16.18,-1.65 48.54,-5.07 80.9,-8.51 " class="primitive"/>
          </g>
          <g transform="translate(115.3,64.41)" id="img-0706ba61-36" stroke-dasharray="none" stroke="#0000FF" class="color_98">
            <path fill="none" d="M-80.9,8.68 L-48.54,5.51 -16.18,2.21 16.18,-1.35 48.54,-5.3 80.9,-9.76 " class="primitive"/>
          </g>
          <g transform="translate(115.3,62.96)" id="img-0706ba61-37" stroke-dasharray="none" stroke="#008000" class="color_99">
            <path fill="none" d="M-80.9,11.63 L-48.54,17.19 -16.18,9.89 16.18,-0.46 48.54,-12.52 80.9,-25.73 " class="primitive"/>
          </g>
          <g transform="translate(115.3,64.86)" id="img-0706ba61-38" stroke-dasharray="none" stroke="#00FFFF" class="color_100">
            <path fill="none" d="M-80.9,8.36 L-48.54,4.94 -16.18,1.63 16.18,-1.67 48.54,-4.98 80.9,-8.29 " class="primitive"/>
          </g>
          <g transform="translate(115.3,64.41)" id="img-0706ba61-39" stroke-dasharray="none" stroke="#FF00FF" class="color_95">
            <path fill="none" d="M-80.9,8.68 L-48.54,5.51 -16.18,2.21 16.18,-1.35 48.54,-5.3 80.9,-9.76 " class="primitive"/>
          </g>
          <g transform="translate(115.3,64.8)" id="img-0706ba61-40" stroke-dasharray="none" stroke="#FFFF00" class="color_96">
            <path fill="none" d="M-80.9,8.36 L-48.54,5.06 -16.18,1.71 16.18,-1.66 48.54,-5.04 80.9,-8.43 " class="primitive"/>
          </g>
          <g transform="translate(115.3,64.86)" id="img-0706ba61-41" stroke-dasharray="none" stroke="#FF0000" class="color_97">
            <path fill="none" d="M-80.9,8.36 L-48.54,4.94 -16.18,1.63 16.18,-1.67 48.54,-4.98 80.9,-8.29 " class="primitive"/>
          </g>
          <g transform="translate(115.3,64.42)" id="img-0706ba61-42" stroke-dasharray="none" stroke="#0000FF" class="color_98">
            <path fill="none" d="M-80.9,8.68 L-48.54,5.51 -16.18,2.21 16.18,-1.35 48.54,-5.29 80.9,-9.75 " class="primitive"/>
          </g>
          <g transform="translate(115.3,64.81)" id="img-0706ba61-43" stroke-dasharray="none" stroke="#008000" class="color_99">
            <path fill="none" d="M-80.9,8.36 L-48.54,5.06 -16.18,1.71 16.18,-1.66 48.54,-5.04 80.9,-8.43 " class="primitive"/>
          </g>
          <g transform="translate(115.3,64.41)" id="img-0706ba61-44" stroke-dasharray="none" stroke="#00FFFF" class="color_100">
            <path fill="none" d="M-80.9,8.68 L-48.54,5.51 -16.18,2.21 16.18,-1.35 48.54,-5.3 80.9,-9.76 " class="primitive"/>
          </g>
          <g transform="translate(115.3,64.41)" id="img-0706ba61-45" stroke-dasharray="none" stroke="#FF00FF" class="color_95">
            <path fill="none" d="M-80.9,8.68 L-48.54,5.51 -16.18,2.21 16.18,-1.35 48.54,-5.3 80.9,-9.76 " class="primitive"/>
          </g>
          <g transform="translate(115.3,64.85)" id="img-0706ba61-46" stroke-dasharray="none" stroke="#FFFF00" class="color_96">
            <path fill="none" d="M-80.9,8.36 L-48.54,4.97 -16.18,1.64 16.18,-1.67 48.54,-4.99 80.9,-8.3 " class="primitive"/>
          </g>
          <g transform="translate(115.3,64.79)" id="img-0706ba61-47" stroke-dasharray="none" stroke="#FF0000" class="color_97">
            <path fill="none" d="M-80.9,8.37 L-48.54,5.1 -16.18,1.74 16.18,-1.65 48.54,-5.06 80.9,-8.49 " class="primitive"/>
          </g>
          <g transform="translate(115.3,64.79)" id="img-0706ba61-48" stroke-dasharray="none" stroke="#0000FF" class="color_98">
            <path fill="none" d="M-80.9,8.36 L-48.54,5.08 -16.18,1.73 16.18,-1.65 48.54,-5.05 80.9,-8.47 " class="primitive"/>
          </g>
          <g transform="translate(115.3,64.41)" id="img-0706ba61-49" stroke-dasharray="none" stroke="#008000" class="color_99">
            <path fill="none" d="M-80.9,8.68 L-48.54,5.51 -16.18,2.21 16.18,-1.35 48.54,-5.3 80.9,-9.76 " class="primitive"/>
          </g>
          <g transform="translate(115.3,64.8)" id="img-0706ba61-50" stroke-dasharray="none" stroke="#00FFFF" class="color_100">
            <path fill="none" d="M-80.9,8.36 L-48.54,5.08 -16.18,1.72 16.18,-1.66 48.54,-5.05 80.9,-8.46 " class="primitive"/>
          </g>
          <g transform="translate(115.3,64.41)" id="img-0706ba61-51" stroke-dasharray="none" stroke="#FF00FF" class="color_95">
            <path fill="none" d="M-80.9,8.68 L-48.54,5.51 -16.18,2.21 16.18,-1.35 48.54,-5.3 80.9,-9.76 " class="primitive"/>
          </g>
          <g transform="translate(115.3,64.79)" id="img-0706ba61-52" stroke-dasharray="none" stroke="#FFFF00" class="color_96">
            <path fill="none" d="M-80.9,8.37 L-48.54,5.1 -16.18,1.74 16.18,-1.65 48.54,-5.06 80.9,-8.49 " class="primitive"/>
          </g>
          <g transform="translate(115.3,64.41)" id="img-0706ba61-53" stroke-dasharray="none" stroke="#FF0000" class="color_97">
            <path fill="none" d="M-80.9,8.68 L-48.54,5.51 -16.18,2.21 16.18,-1.35 48.54,-5.3 80.9,-9.76 " class="primitive"/>
          </g>
          <g transform="translate(115.3,64.78)" id="img-0706ba61-54" stroke-dasharray="none" stroke="#0000FF" class="color_98">
            <path fill="none" d="M-80.9,8.37 L-48.54,5.11 -16.18,1.75 16.18,-1.65 48.54,-5.07 80.9,-8.51 " class="primitive"/>
          </g>
          <g transform="translate(115.3,64.78)" id="img-0706ba61-55" stroke-dasharray="none" stroke="#008000" class="color_99">
            <path fill="none" d="M-80.9,8.37 L-48.54,5.1 -16.18,1.74 16.18,-1.65 48.54,-5.07 80.9,-8.5 " class="primitive"/>
          </g>
          <g transform="translate(115.3,64.41)" id="img-0706ba61-56" stroke-dasharray="none" stroke="#00FFFF" class="color_100">
            <path fill="none" d="M-80.9,8.68 L-48.54,5.51 -16.18,2.21 16.18,-1.35 48.54,-5.3 80.9,-9.76 " class="primitive"/>
          </g>
          <g transform="translate(115.3,64.79)" id="img-0706ba61-57" stroke-dasharray="none" stroke="#FF00FF" class="color_95">
            <path fill="none" d="M-80.9,8.36 L-48.54,5.09 -16.18,1.74 16.18,-1.65 48.54,-5.06 80.9,-8.49 " class="primitive"/>
          </g>
          <g transform="translate(115.3,64.41)" id="img-0706ba61-58" stroke-dasharray="none" stroke="#FFFF00" class="color_96">
            <path fill="none" d="M-80.9,8.68 L-48.54,5.51 -16.18,2.21 16.18,-1.35 48.54,-5.3 80.9,-9.76 " class="primitive"/>
          </g>
          <g transform="translate(115.3,64.41)" id="img-0706ba61-59" stroke-dasharray="none" stroke="#FF0000" class="color_97">
            <path fill="none" d="M-80.9,8.68 L-48.54,5.51 -16.18,2.21 16.18,-1.35 48.54,-5.3 80.9,-9.76 " class="primitive"/>
          </g>
          <g transform="translate(115.3,64.79)" id="img-0706ba61-60" stroke-dasharray="none" stroke="#0000FF" class="color_98">
            <path fill="none" d="M-80.9,8.36 L-48.54,5.08 -16.18,1.73 16.18,-1.65 48.54,-5.05 80.9,-8.47 " class="primitive"/>
          </g>
          <g transform="translate(115.3,64.41)" id="img-0706ba61-61" stroke-dasharray="none" stroke="#008000" class="color_99">
            <path fill="none" d="M-80.9,8.68 L-48.54,5.51 -16.18,2.21 16.18,-1.35 48.54,-5.3 80.9,-9.76 " class="primitive"/>
          </g>
          <g transform="translate(115.3,64.41)" id="img-0706ba61-62" stroke-dasharray="none" stroke="#00FFFF" class="color_100">
            <path fill="none" d="M-80.9,8.68 L-48.54,5.51 -16.18,2.21 16.18,-1.35 48.54,-5.3 80.9,-9.76 " class="primitive"/>
          </g>
          <g transform="translate(115.3,64.41)" id="img-0706ba61-63" stroke-dasharray="none" stroke="#FF00FF" class="color_95">
            <path fill="none" d="M-80.9,8.68 L-48.54,5.51 -16.18,2.21 16.18,-1.35 48.54,-5.3 80.9,-9.76 " class="primitive"/>
          </g>
          <g transform="translate(115.3,64.41)" id="img-0706ba61-64" stroke-dasharray="none" stroke="#FFFF00" class="color_96">
            <path fill="none" d="M-80.9,8.68 L-48.54,5.51 -16.18,2.21 16.18,-1.35 48.54,-5.3 80.9,-9.76 " class="primitive"/>
          </g>
          <g transform="translate(115.3,64.79)" id="img-0706ba61-65" stroke-dasharray="none" stroke="#FF0000" class="color_97">
            <path fill="none" d="M-80.9,8.36 L-48.54,5.09 -16.18,1.73 16.18,-1.65 48.54,-5.06 80.9,-8.47 " class="primitive"/>
          </g>
          <g transform="translate(115.3,64.82)" id="img-0706ba61-66" stroke-dasharray="none" stroke="#0000FF" class="color_98">
            <path fill="none" d="M-80.9,8.34 L-48.54,5.08 -16.18,1.73 16.18,-1.65 48.54,-5.04 80.9,-8.46 " class="primitive"/>
          </g>
          <g transform="translate(115.3,64.78)" id="img-0706ba61-67" stroke-dasharray="none" stroke="#008000" class="color_99">
            <path fill="none" d="M-80.9,8.37 L-48.54,5.11 -16.18,1.75 16.18,-1.65 48.54,-5.07 80.9,-8.5 " class="primitive"/>
          </g>
          <g transform="translate(115.3,64.41)" id="img-0706ba61-68" stroke-dasharray="none" stroke="#00FFFF" class="color_100">
            <path fill="none" d="M-80.9,8.68 L-48.54,5.51 -16.18,2.21 16.18,-1.35 48.54,-5.3 80.9,-9.76 " class="primitive"/>
          </g>
          <g transform="translate(115.3,64.79)" id="img-0706ba61-69" stroke-dasharray="none" stroke="#FF00FF" class="color_95">
            <path fill="none" d="M-80.9,8.36 L-48.54,5.09 -16.18,1.73 16.18,-1.65 48.54,-5.06 80.9,-8.47 " class="primitive"/>
          </g>
          <g transform="translate(115.3,64.79)" id="img-0706ba61-70" stroke-dasharray="none" stroke="#FFFF00" class="color_96">
            <path fill="none" d="M-80.9,8.36 L-48.54,5.09 -16.18,1.74 16.18,-1.65 48.54,-5.06 80.9,-8.48 " class="primitive"/>
          </g>
          <g transform="translate(115.3,64.79)" id="img-0706ba61-71" stroke-dasharray="none" stroke="#FF0000" class="color_97">
            <path fill="none" d="M-80.9,8.36 L-48.54,5.09 -16.18,1.74 16.18,-1.65 48.54,-5.06 80.9,-8.48 " class="primitive"/>
          </g>
          <g transform="translate(115.3,64.79)" id="img-0706ba61-72" stroke-dasharray="none" stroke="#0000FF" class="color_98">
            <path fill="none" d="M-80.9,8.36 L-48.54,5.09 -16.18,1.73 16.18,-1.65 48.54,-5.06 80.9,-8.48 " class="primitive"/>
          </g>
          <g transform="translate(115.3,64.41)" id="img-0706ba61-73" stroke-dasharray="none" stroke="#008000" class="color_99">
            <path fill="none" d="M-80.9,8.68 L-48.54,5.51 -16.18,2.21 16.18,-1.35 48.54,-5.3 80.9,-9.76 " class="primitive"/>
          </g>
          <g transform="translate(115.3,64.78)" id="img-0706ba61-74" stroke-dasharray="none" stroke="#00FFFF" class="color_100">
            <path fill="none" d="M-80.9,8.37 L-48.54,5.1 -16.18,1.74 16.18,-1.65 48.54,-5.07 80.9,-8.5 " class="primitive"/>
          </g>
          <g transform="translate(115.3,64.79)" id="img-0706ba61-75" stroke-dasharray="none" stroke="#FF00FF" class="color_95">
            <path fill="none" d="M-80.9,8.37 L-48.54,5.09 -16.18,1.74 16.18,-1.65 48.54,-5.06 80.9,-8.49 " class="primitive"/>
          </g>
          <g transform="translate(115.3,64.41)" id="img-0706ba61-76" stroke-dasharray="none" stroke="#FFFF00" class="color_96">
            <path fill="none" d="M-80.9,8.68 L-48.54,5.51 -16.18,2.21 16.18,-1.35 48.54,-5.3 80.9,-9.76 " class="primitive"/>
          </g>
          <g transform="translate(115.3,64.78)" id="img-0706ba61-77" stroke-dasharray="none" stroke="#FF0000" class="color_97">
            <path fill="none" d="M-80.9,8.37 L-48.54,5.11 -16.18,1.75 16.18,-1.65 48.54,-5.07 80.9,-8.5 " class="primitive"/>
          </g>
          <g transform="translate(115.3,64.78)" id="img-0706ba61-78" stroke-dasharray="none" stroke="#0000FF" class="color_98">
            <path fill="none" d="M-80.9,8.37 L-48.54,5.1 -16.18,1.74 16.18,-1.65 48.54,-5.06 80.9,-8.49 " class="primitive"/>
          </g>
          <g transform="translate(115.3,64.79)" id="img-0706ba61-79" stroke-dasharray="none" stroke="#008000" class="color_99">
            <path fill="none" d="M-80.9,8.37 L-48.54,5.09 -16.18,1.73 16.18,-1.65 48.54,-5.06 80.9,-8.47 " class="primitive"/>
          </g>
          <g transform="translate(115.3,64.79)" id="img-0706ba61-80" stroke-dasharray="none" stroke="#00FFFF" class="color_100">
            <path fill="none" d="M-80.9,8.36 L-48.54,5.08 -16.18,1.73 16.18,-1.65 48.54,-5.05 80.9,-8.47 " class="primitive"/>
          </g>
          <g transform="translate(115.3,64.79)" id="img-0706ba61-81" stroke-dasharray="none" stroke="#FF00FF" class="color_95">
            <path fill="none" d="M-80.9,8.36 L-48.54,5.09 -16.18,1.73 16.18,-1.65 48.54,-5.06 80.9,-8.48 " class="primitive"/>
          </g>
          <g transform="translate(115.3,64.79)" id="img-0706ba61-82" stroke-dasharray="none" stroke="#FFFF00" class="color_96">
            <path fill="none" d="M-80.9,8.36 L-48.54,5.09 -16.18,1.73 16.18,-1.65 48.54,-5.06 80.9,-8.47 " class="primitive"/>
          </g>
          <g transform="translate(115.3,64.79)" id="img-0706ba61-83" stroke-dasharray="none" stroke="#FF0000" class="color_97">
            <path fill="none" d="M-80.9,8.36 L-48.54,5.08 -16.18,1.73 16.18,-1.65 48.54,-5.05 80.9,-8.47 " class="primitive"/>
          </g>
          <g transform="translate(115.3,64.78)" id="img-0706ba61-84" stroke-dasharray="none" stroke="#0000FF" class="color_98">
            <path fill="none" d="M-80.9,8.37 L-48.54,5.11 -16.18,1.75 16.18,-1.65 48.54,-5.07 80.9,-8.51 " class="primitive"/>
          </g>
          <g transform="translate(115.3,64.41)" id="img-0706ba61-85" stroke-dasharray="none" stroke="#008000" class="color_99">
            <path fill="none" d="M-80.9,8.68 L-48.54,5.51 -16.18,2.21 16.18,-1.35 48.54,-5.3 80.9,-9.76 " class="primitive"/>
          </g>
          <g transform="translate(115.3,64.79)" id="img-0706ba61-86" stroke-dasharray="none" stroke="#00FFFF" class="color_100">
            <path fill="none" d="M-80.9,8.36 L-48.54,5.08 -16.18,1.73 16.18,-1.65 48.54,-5.05 80.9,-8.47 " class="primitive"/>
          </g>
          <g transform="translate(115.3,64.41)" id="img-0706ba61-87" stroke-dasharray="none" stroke="#FF00FF" class="color_95">
            <path fill="none" d="M-80.9,8.68 L-48.54,5.51 -16.18,2.21 16.18,-1.35 48.54,-5.3 80.9,-9.76 " class="primitive"/>
          </g>
          <g transform="translate(115.3,64.41)" id="img-0706ba61-88" stroke-dasharray="none" stroke="#FFFF00" class="color_96">
            <path fill="none" d="M-80.9,8.68 L-48.54,5.51 -16.18,2.21 16.18,-1.35 48.54,-5.3 80.9,-9.76 " class="primitive"/>
          </g>
          <g transform="translate(115.3,64.79)" id="img-0706ba61-89" stroke-dasharray="none" stroke="#FF0000" class="color_97">
            <path fill="none" d="M-80.9,8.37 L-48.54,5.08 -16.18,1.73 16.18,-1.65 48.54,-5.06 80.9,-8.47 " class="primitive"/>
          </g>
          <g transform="translate(115.3,64.86)" id="img-0706ba61-90" stroke-dasharray="none" stroke="#0000FF" class="color_98">
            <path fill="none" d="M-80.9,8.36 L-48.54,4.94 -16.18,1.63 16.18,-1.67 48.54,-4.98 80.9,-8.29 " class="primitive"/>
          </g>
          <g transform="translate(115.3,64.85)" id="img-0706ba61-91" stroke-dasharray="none" stroke="#008000" class="color_99">
            <path fill="none" d="M-80.9,8.36 L-48.54,4.96 -16.18,1.64 16.18,-1.67 48.54,-4.99 80.9,-8.3 " class="primitive"/>
          </g>
          <g transform="translate(115.3,64.41)" id="img-0706ba61-92" stroke-dasharray="none" stroke="#00FFFF" class="color_100">
            <path fill="none" d="M-80.9,8.68 L-48.54,5.51 -16.18,2.21 16.18,-1.35 48.54,-5.3 80.9,-9.76 " class="primitive"/>
          </g>
          <g transform="translate(115.3,64.79)" id="img-0706ba61-93" stroke-dasharray="none" stroke="#FF00FF" class="color_95">
            <path fill="none" d="M-80.9,8.36 L-48.54,5.09 -16.18,1.73 16.18,-1.65 48.54,-5.06 80.9,-8.47 " class="primitive"/>
          </g>
          <g transform="translate(115.3,64.86)" id="img-0706ba61-94" stroke-dasharray="none" stroke="#FFFF00" class="color_96">
            <path fill="none" d="M-80.9,8.36 L-48.54,4.94 -16.18,1.63 16.18,-1.67 48.54,-4.98 80.9,-8.29 " class="primitive"/>
          </g>
          <g transform="translate(115.3,64.78)" id="img-0706ba61-95" stroke-dasharray="none" stroke="#FF0000" class="color_97">
            <path fill="none" d="M-80.9,8.37 L-48.54,5.1 -16.18,1.74 16.18,-1.65 48.54,-5.06 80.9,-8.49 " class="primitive"/>
          </g>
          <g transform="translate(115.3,64.8)" id="img-0706ba61-96" stroke-dasharray="none" stroke="#0000FF" class="color_98">
            <path fill="none" d="M-80.9,8.36 L-48.54,5.06 -16.18,1.71 16.18,-1.66 48.54,-5.04 80.9,-8.43 " class="primitive"/>
          </g>
          <g transform="translate(115.3,64.86)" id="img-0706ba61-97" stroke-dasharray="none" stroke="#008000" class="color_99">
            <path fill="none" d="M-80.9,8.36 L-48.54,4.94 -16.18,1.63 16.18,-1.67 48.54,-4.98 80.9,-8.29 " class="primitive"/>
          </g>
          <g transform="translate(115.3,64.79)" id="img-0706ba61-98" stroke-dasharray="none" stroke="#00FFFF" class="color_100">
            <path fill="none" d="M-80.9,8.37 L-48.54,5.09 -16.18,1.74 16.18,-1.65 48.54,-5.06 80.9,-8.49 " class="primitive"/>
          </g>
          <g transform="translate(115.3,64.41)" id="img-0706ba61-99" stroke-dasharray="none" stroke="#FF00FF" class="color_95">
            <path fill="none" d="M-80.9,8.68 L-48.54,5.51 -16.18,2.21 16.18,-1.35 48.54,-5.3 80.9,-9.76 " class="primitive"/>
          </g>
          <g transform="translate(115.3,64.79)" id="img-0706ba61-100" stroke-dasharray="none" stroke="#FFFF00" class="color_96">
            <path fill="none" d="M-80.9,8.37 L-48.54,5.08 -16.18,1.73 16.18,-1.65 48.54,-5.06 80.9,-8.47 " class="primitive"/>
          </g>
          <g transform="translate(115.3,64.51)" id="img-0706ba61-101" stroke-dasharray="none" stroke="#FF0000" class="color_97">
            <path fill="none" d="M-80.9,3.95 L-48.54,2.83 -16.18,1.08 16.18,-0.75 48.54,-2.61 80.9,-4.5 " class="primitive"/>
          </g>
          <g transform="translate(115.3,64.7)" id="img-0706ba61-102" stroke-dasharray="none" stroke="#0000FF" class="color_98">
            <path fill="none" d="M-80.9,4.17 L-48.54,2.28 -16.18,0.51 16.18,-1.07 48.54,-2.42 80.9,-3.47 " class="primitive"/>
          </g>
          <g transform="translate(115.3,64.79)" id="img-0706ba61-103" stroke-dasharray="none" stroke="#008000" class="color_99">
            <path fill="none" d="M-80.9,8.36 L-48.54,5.09 -16.18,1.73 16.18,-1.65 48.54,-5.06 80.9,-8.48 " class="primitive"/>
          </g>
          <g transform="translate(115.3,64.41)" id="img-0706ba61-104" stroke-dasharray="none" stroke="#00FFFF" class="color_100">
            <path fill="none" d="M-80.9,8.68 L-48.54,5.51 -16.18,2.21 16.18,-1.35 48.54,-5.3 80.9,-9.76 " class="primitive"/>
          </g>
          <g transform="translate(115.3,64.41)" id="img-0706ba61-105" stroke-dasharray="none" stroke="#FF00FF" class="color_95">
            <path fill="none" d="M-80.9,8.68 L-48.54,5.51 -16.18,2.21 16.18,-1.35 48.54,-5.3 80.9,-9.76 " class="primitive"/>
          </g>
          <g transform="translate(115.3,64.41)" id="img-0706ba61-106" stroke-dasharray="none" stroke="#FFFF00" class="color_96">
            <path fill="none" d="M-80.9,8.68 L-48.54,5.51 -16.18,2.21 16.18,-1.35 48.54,-5.3 80.9,-9.76 " class="primitive"/>
          </g>
          <g transform="translate(115.3,64.78)" id="img-0706ba61-107" stroke-dasharray="none" stroke="#FF0000" class="color_97">
            <path fill="none" d="M-80.9,8.37 L-48.54,5.1 -16.18,1.75 16.18,-1.65 48.54,-5.07 80.9,-8.5 " class="primitive"/>
          </g>
          <g transform="translate(115.3,64.41)" id="img-0706ba61-108" stroke-dasharray="none" stroke="#0000FF" class="color_98">
            <path fill="none" d="M-80.9,8.68 L-48.54,5.51 -16.18,2.21 16.18,-1.35 48.54,-5.3 80.9,-9.76 " class="primitive"/>
          </g>
          <g transform="translate(115.3,64.41)" id="img-0706ba61-109" stroke-dasharray="none" stroke="#008000" class="color_99">
            <path fill="none" d="M-80.9,8.68 L-48.54,5.51 -16.18,2.21 16.18,-1.35 48.54,-5.3 80.9,-9.76 " class="primitive"/>
          </g>
          <g transform="translate(115.3,45.6)" id="img-0706ba61-110" stroke-dasharray="none" stroke="#00FFFF" class="color_100">
            <path fill="none" d="M-80.9,24.26 L-48.54,18.13 -16.18,9.47 16.18,-1.95 48.54,-16.29 80.9,-33.62 " class="primitive"/>
          </g>
          <g transform="translate(115.3,64.78)" id="img-0706ba61-111" stroke-dasharray="none" stroke="#FF00FF" class="color_95">
            <path fill="none" d="M-80.9,8.37 L-48.54,5.1 -16.18,1.74 16.18,-1.65 48.54,-5.06 80.9,-8.5 " class="primitive"/>
          </g>
          <g transform="translate(115.3,64.86)" id="img-0706ba61-112" stroke-dasharray="none" stroke="#FFFF00" class="color_96">
            <path fill="none" d="M-80.9,8.36 L-48.54,4.94 -16.18,1.63 16.18,-1.67 48.54,-4.98 80.9,-8.29 " class="primitive"/>
          </g>
          <g transform="translate(115.3,64.41)" id="img-0706ba61-113" stroke-dasharray="none" stroke="#FF0000" class="color_97">
            <path fill="none" d="M-80.9,8.68 L-48.54,5.51 -16.18,2.21 16.18,-1.35 48.54,-5.3 80.9,-9.76 " class="primitive"/>
          </g>
          <g transform="translate(115.3,64.79)" id="img-0706ba61-114" stroke-dasharray="none" stroke="#0000FF" class="color_98">
            <path fill="none" d="M-80.9,8.36 L-48.54,5.09 -16.18,1.73 16.18,-1.65 48.54,-5.06 80.9,-8.47 " class="primitive"/>
          </g>
          <g transform="translate(115.3,64.78)" id="img-0706ba61-115" stroke-dasharray="none" stroke="#008000" class="color_99">
            <path fill="none" d="M-80.9,8.37 L-48.54,5.11 -16.18,1.75 16.18,-1.65 48.54,-5.07 80.9,-8.5 " class="primitive"/>
          </g>
          <g transform="translate(115.3,64.79)" id="img-0706ba61-116" stroke-dasharray="none" stroke="#00FFFF" class="color_100">
            <path fill="none" d="M-80.9,8.37 L-48.54,5.09 -16.18,1.73 16.18,-1.65 48.54,-5.06 80.9,-8.48 " class="primitive"/>
          </g>
          <g transform="translate(115.3,64.4)" id="img-0706ba61-117" stroke-dasharray="none" stroke="#FF00FF" class="color_95">
            <path fill="none" d="M-80.9,8.69 L-48.54,5.52 -16.18,2.22 16.18,-1.35 48.54,-5.3 80.9,-9.77 " class="primitive"/>
          </g>
          <g transform="translate(115.3,64.41)" id="img-0706ba61-118" stroke-dasharray="none" stroke="#FFFF00" class="color_96">
            <path fill="none" d="M-80.9,8.68 L-48.54,5.51 -16.18,2.21 16.18,-1.35 48.54,-5.3 80.9,-9.76 " class="primitive"/>
          </g>
          <g transform="translate(115.3,64.79)" id="img-0706ba61-119" stroke-dasharray="none" stroke="#FF0000" class="color_97">
            <path fill="none" d="M-80.9,8.37 L-48.54,5.1 -16.18,1.74 16.18,-1.65 48.54,-5.06 80.9,-8.49 " class="primitive"/>
          </g>
          <g transform="translate(115.3,64.78)" id="img-0706ba61-120" stroke-dasharray="none" stroke="#0000FF" class="color_98">
            <path fill="none" d="M-80.9,8.37 L-48.54,5.11 -16.18,1.75 16.18,-1.65 48.54,-5.07 80.9,-8.51 " class="primitive"/>
          </g>
          <g transform="translate(115.3,64.41)" id="img-0706ba61-121" stroke-dasharray="none" stroke="#008000" class="color_99">
            <path fill="none" d="M-80.9,8.68 L-48.54,5.51 -16.18,2.21 16.18,-1.35 48.54,-5.3 80.9,-9.76 " class="primitive"/>
          </g>
          <g transform="translate(115.3,64.41)" id="img-0706ba61-122" stroke-dasharray="none" stroke="#00FFFF" class="color_100">
            <path fill="none" d="M-80.9,8.68 L-48.54,5.51 -16.18,2.21 16.18,-1.35 48.54,-5.3 80.9,-9.76 " class="primitive"/>
          </g>
        </g>
        <g class="geometry" id="img-0706ba61-123">
          <g stroke-width="0" id="img-0706ba61-124">
            <g class="color_RGBA{Float32}(1.0f0,0.0f0,0.0f0,1.0f0)" fill-opacity="1" stroke="#FFFFFF" fill="#FF0000" id="img-0706ba61-125">
              <g class="marker" id="img-0706ba61-126">
                <g transform="translate(196.2,NaN)" id="img-0706ba61-127">
                  <circle cx="0" cy="0" r="1.41" class="primitive"/>
                </g>
              </g>
            </g>
            <g class="color_RGBA{Float32}(1.0f0,0.0f0,0.0f0,1.0f0)" fill-opacity="1" stroke="#FFFFFF" fill="#FF0000" id="img-0706ba61-128">
              <g class="marker" id="img-0706ba61-129">
                <g transform="translate(163.84,60.31)" id="img-0706ba61-130">
                  <circle cx="0" cy="0" r="1.41" class="primitive"/>
                </g>
              </g>
            </g>
            <g class="color_RGBA{Float32}(1.0f0,0.0f0,0.0f0,1.0f0)" fill-opacity="1" stroke="#FFFFFF" fill="#FF0000" id="img-0706ba61-131">
              <g class="marker" id="img-0706ba61-132">
                <g transform="translate(131.48,62.96)" id="img-0706ba61-133">
                  <circle cx="0" cy="0" r="1.41" class="primitive"/>
                </g>
              </g>
            </g>
            <g class="color_RGBA{Float32}(1.0f0,0.0f0,0.0f0,1.0f0)" fill-opacity="1" stroke="#FFFFFF" fill="#FF0000" id="img-0706ba61-134">
              <g class="marker" id="img-0706ba61-135">
                <g transform="translate(99.12,66.93)" id="img-0706ba61-136">
                  <circle cx="0" cy="0" r="1.41" class="primitive"/>
                </g>
              </g>
            </g>
            <g class="color_RGBA{Float32}(1.0f0,0.0f0,0.0f0,1.0f0)" fill-opacity="1" stroke="#FFFFFF" fill="#FF0000" id="img-0706ba61-137">
              <g class="marker" id="img-0706ba61-138">
                <g transform="translate(66.76,69.58)" id="img-0706ba61-139">
                  <circle cx="0" cy="0" r="1.41" class="primitive"/>
                </g>
              </g>
            </g>
            <g class="color_RGBA{Float32}(1.0f0,0.0f0,0.0f0,1.0f0)" fill-opacity="1" stroke="#FFFFFF" fill="#FF0000" id="img-0706ba61-140">
              <g class="marker" id="img-0706ba61-141">
                <g transform="translate(34.4,73.22)" id="img-0706ba61-142">
                  <circle cx="0" cy="0" r="1.41" class="primitive"/>
                </g>
              </g>
            </g>
          </g>
        </g>
      </g>
    </g>
  </g>
  <g class="guide ylabels" font-size="2.82" font-family="'PT Sans Caption','Helvetica Neue','Helvetica',sans-serif" fill="#6C606B" id="img-0706ba61-143">
    <g transform="translate(31.4,89.78)" id="img-0706ba61-144">
      <g class="primitive">
        <text text-anchor="end" dy="0.35em">-5</text>
      </g>
    </g>
    <g transform="translate(31.4,73.22)" id="img-0706ba61-145">
      <g class="primitive">
        <text text-anchor="end" dy="0.35em">0</text>
      </g>
    </g>
    <g transform="translate(31.4,56.67)" id="img-0706ba61-146">
      <g class="primitive">
        <text text-anchor="end" dy="0.35em">5</text>
      </g>
    </g>
    <g transform="translate(31.4,40.11)" id="img-0706ba61-147">
      <g class="primitive">
        <text text-anchor="end" dy="0.35em">10</text>
      </g>
    </g>
    <g transform="translate(31.4,23.56)" id="img-0706ba61-148">
      <g class="primitive">
        <text text-anchor="end" dy="0.35em">15</text>
      </g>
    </g>
    <g transform="translate(31.4,7)" id="img-0706ba61-149">
      <g class="primitive">
        <text text-anchor="end" dy="0.35em">20</text>
      </g>
    </g>
  </g>
</g>
<defs>
  <clipPath id="img-0706ba61-3">
    <path d="M32.4,5 L198.2,5 198.2,91.78 32.4,91.78 " />
  </clipPath>
</defs>
</svg>
