<?xml version="1.0" encoding="UTF-8"?>
<svg xmlns="http://www.w3.org/2000/svg"
     xmlns:xlink="http://www.w3.org/1999/xlink"
     xmlns:gadfly="http://www.gadflyjl.org/ns"
     version="1.2"
     width="203.2mm" height="101.6mm" viewBox="0 0 203.2 101.6"
     stroke="none"
     fill="#000000"
     stroke-width="0.3"
     font-size="3.88"
>
<g class="plotroot xscalable yscalable" id="img-97718aae-1">
  <g font-size="3.88" font-family="'PT Sans','Helvetica Neue','Helvetica',sans-serif" fill="#564A55" stroke="#000000" stroke-opacity="0.000" id="img-97718aae-2">
    <g transform="translate(96.29,90.88)">
      <g class="primitive">
        <text text-anchor="middle" dy="0.6em">X</text>
      </g>
    </g>
  </g>
  <g class="guide xlabels" font-size="2.82" font-family="'PT Sans Caption','Helvetica Neue','Helvetica',sans-serif" fill="#6C606B" id="img-97718aae-3">
    <g transform="translate(16.54,84.83)">
      <g class="primitive">
        <text text-anchor="middle" dy="0.6em">0</text>
      </g>
    </g>
    <g transform="translate(96.29,84.83)">
      <g class="primitive">
        <text text-anchor="middle" dy="0.6em">50</text>
      </g>
    </g>
    <g transform="translate(176.04,84.83)">
      <g class="primitive">
        <text text-anchor="middle" dy="0.6em">100</text>
      </g>
    </g>
  </g>
  <g class="guide colorkey" id="img-97718aae-4">
    <g fill="#4C404B" font-size="2.82" font-family="'PT Sans','Helvetica Neue','Helvetica',sans-serif" id="img-97718aae-5">
      <g transform="translate(181.56,43.77)">
        <g class="primitive">
          <text dy="0.35em">Observation 1</text>
        </g>
      </g>
      <g transform="translate(181.56,46.81)">
        <g class="primitive">
          <text dy="0.35em">Observation 2</text>
        </g>
      </g>
      <g transform="translate(181.56,49.86)">
        <g class="primitive">
          <text dy="0.35em">Observation 3</text>
        </g>
      </g>
      <g transform="translate(181.56,52.9)">
        <g class="primitive">
          <text dy="0.35em">Observation 4</text>
        </g>
      </g>
    </g>
    <g stroke="#000000" stroke-opacity="0.000" id="img-97718aae-6">
      <g transform="translate(179.8,43.77)" fill="#FF0000">
        <path d="M-0.76,-0.76 L 0.76 -0.76 0.76 0.76 -0.76 0.76 z" class="primitive"/>
      </g>
      <g transform="translate(179.8,46.81)" fill="#0000FF">
        <path d="M-0.76,-0.76 L 0.76 -0.76 0.76 0.76 -0.76 0.76 z" class="primitive"/>
      </g>
      <g transform="translate(179.8,49.86)" fill="#008000">
        <path d="M-0.76,-0.76 L 0.76 -0.76 0.76 0.76 -0.76 0.76 z" class="primitive"/>
      </g>
      <g transform="translate(179.8,52.9)" fill="#FFA500">
        <path d="M-0.76,-0.76 L 0.76 -0.76 0.76 0.76 -0.76 0.76 z" class="primitive"/>
      </g>
    </g>
    <g fill="#362A35" font-size="3.88" font-family="'PT Sans','Helvetica Neue','Helvetica',sans-serif" stroke="#000000" stroke-opacity="0.000" id="img-97718aae-7">
      <g transform="translate(179.04,40.13)">
        <g class="primitive">
          <text>Sources</text>
        </g>
      </g>
    </g>
  </g>
  <g clip-path="url(#img-97718aae-8)">
    <g id="img-97718aae-9">
      <g pointer-events="visible" opacity="1" fill="#000000" fill-opacity="0.000" stroke="#000000" stroke-opacity="0.000" class="guide background" id="img-97718aae-10">
        <g transform="translate(96.29,46.81)">
          <path d="M-81.75,-37.02 L 81.75 -37.02 81.75 37.02 -81.75 37.02 z" class="primitive"/>
        </g>
      </g>
      <g class="guide ygridlines xfixed" stroke-dasharray="0.5,0.5" stroke-width="0.2" stroke="#D0D0E0" id="img-97718aae-11">
        <g transform="translate(96.29,81.83)">
          <path fill="none" d="M-81.75,0 L 81.75 0" class="primitive"/>
        </g>
        <g transform="translate(96.29,58.49)">
          <path fill="none" d="M-81.75,0 L 81.75 0" class="primitive"/>
        </g>
        <g transform="translate(96.29,35.14)">
          <path fill="none" d="M-81.75,0 L 81.75 0" class="primitive"/>
        </g>
        <g transform="translate(96.29,11.79)">
          <path fill="none" d="M-81.75,0 L 81.75 0" class="primitive"/>
        </g>
      </g>
      <g class="guide xgridlines yfixed" stroke-dasharray="0.5,0.5" stroke-width="0.2" stroke="#D0D0E0" id="img-97718aae-12">
        <g transform="translate(16.54,46.81)">
          <path fill="none" d="M0,-37.02 L 0 37.02" class="primitive"/>
        </g>
        <g transform="translate(96.29,46.81)">
          <path fill="none" d="M0,-37.02 L 0 37.02" class="primitive"/>
        </g>
        <g transform="translate(176.04,46.81)">
          <path fill="none" d="M0,-37.02 L 0 37.02" class="primitive"/>
        </g>
      </g>
      <g class="plotpanel" id="img-97718aae-13">
        <metadata>
          <boundingbox value="14.537768554687489mm 9.793972439236114mm 163.50060492621526mm 74.04042697482637mm"/>
          <unitbox value="-1.2539137396533366 3.0856648118686727 102.50782747930667 -3.171329623737345"/>
        </metadata>
        <g stroke-width="0.71" fill="#000000" fill-opacity="0.000" class="geometry" id="img-97718aae-14">
          <g stroke-dasharray="none" stroke="#FFA500" id="img-97718aae-15">
            <g transform="translate(97.09,44.66)">
              <path fill="none" d="M-78.95,-5.33 L -77.36 -12.19 -75.76 -17.88 -74.17 -21.93 -72.57 -24.02 -70.98 -24.03 -69.38 -22 -67.79 -18.16 -66.19 -12.9 -64.6 -6.74 -63 -0.26 -61.41 5.89 -59.81 11.15 -58.22 14.98 -56.62 17.02 -55.03 17.04 -53.43 15 -51.84 11.05 -50.24 5.52 -48.65 -1.15 -47.05 -8.36 -45.46 -15.52 -43.86 -22.01 -42.27 -27.26 -40.67 -30.82 -39.08 -32.41 -37.48 -31.88 -35.89 -29.3 -34.29 -24.91 -32.7 -19.11 -31.1 -12.42 -29.51 -5.44 -27.91 1.2 -26.32 6.92 -24.72 11.21 -23.13 13.69 -21.53 14.15 -19.94 12.57 -18.34 9.1 -16.75 4.07 -15.15 -2.06 -13.56 -8.71 -11.96 -15.26 -10.37 -21.11 -8.77 -25.69 -7.18 -28.58 -5.58 -29.48 -3.99 -28.28 -2.39 -25.04 -0.8 -20.01 0.8 -13.62 2.39 -6.38 3.99 1.1 5.58 8.19 7.18 14.32 8.77 18.97 10.37 21.77 11.96 22.54 13.56 21.24 15.15 18.04 16.75 13.28 18.34 7.43 19.94 1.07 21.53 -5.18 23.13 -10.72 24.72 -15 26.32 -17.59 27.91 -18.2 29.51 -16.74 31.1 -13.28 32.7 -8.09 34.29 -1.58 35.89 5.71 37.48 13.18 39.08 20.2 40.67 26.19 42.27 30.65 43.86 33.22 45.46 33.72 47.05 32.13 48.65 28.63 50.24 23.56 51.84 17.41 53.43 10.76 55.03 4.22 56.62 -1.6 58.22 -6.15 59.81 -9.02 61.41 -9.92 63 -8.76 64.6 -5.64 66.19 -0.82 67.79 5.27 69.38 12.09 70.98 19.04 72.57 25.5 74.17 30.88 75.76 34.69 77.36 36.6 78.95 36.42" class="primitive"/>
            </g>
          </g>
        </g>
        <g stroke-width="0.71" fill="#000000" fill-opacity="0.000" class="geometry" id="img-97718aae-16">
          <g stroke-dasharray="none" stroke="#008000" id="img-97718aae-17">
            <g transform="translate(97.09,44.4)">
              <path fill="none" d="M-78.95,-2.81 L -77.36 -7.85 -75.76 -12.52 -74.17 -16.66 -72.57 -20.12 -70.98 -22.8 -69.38 -24.6 -67.79 -25.47 -66.19 -25.4 -64.6 -24.41 -63 -22.57 -61.41 -19.95 -59.81 -16.69 -58.22 -12.93 -56.62 -8.84 -55.03 -4.6 -53.43 -0.39 -51.84 3.6 -50.24 7.2 -48.65 10.26 -47.05 12.63 -45.46 14.22 -43.86 14.96 -42.27 14.79 -40.67 13.72 -39.08 11.79 -37.48 9.06 -35.89 5.65 -34.29 1.67 -32.7 -2.71 -31.1 -7.32 -29.51 -11.98 -27.91 -16.5 -26.32 -20.7 -24.72 -24.41 -23.13 -27.49 -21.53 -29.79 -19.94 -31.23 -18.34 -31.75 -16.75 -31.3 -15.15 -29.91 -13.56 -27.62 -11.96 -24.5 -10.37 -20.68 -8.77 -16.29 -7.18 -11.5 -5.58 -6.47 -3.99 -1.4 -2.39 3.52 -0.8 8.13 0.8 12.24 2.39 15.72 3.99 18.44 5.58 20.32 7.18 21.3 8.77 21.36 10.37 20.52 11.96 18.83 13.56 16.38 15.15 13.29 16.75 9.71 18.34 5.79 19.94 1.72 21.53 -2.31 23.13 -6.14 24.72 -9.57 26.32 -12.46 27.91 -14.66 29.51 -16.08 31.1 -16.62 32.7 -16.25 34.29 -14.97 35.89 -12.8 37.48 -9.81 39.08 -6.1 40.67 -1.8 42.27 2.93 43.86 7.92 45.46 13 47.05 17.97 48.65 22.65 50.24 26.86 51.84 30.46 53.43 33.31 55.03 35.3 56.62 36.38 58.22 36.5 59.81 35.67 61.41 33.93 63 31.36 64.6 28.05 66.19 24.16 67.79 19.83 69.38 15.24 70.98 10.58 72.57 6.02 74.17 1.76 75.76 -2.04 77.36 -5.24 78.95 -7.71" class="primitive"/>
            </g>
          </g>
        </g>
        <g stroke-width="0.71" fill="#000000" fill-opacity="0.000" class="geometry" id="img-97718aae-18">
          <g stroke-dasharray="none" stroke="#0000FF" id="img-97718aae-19">
            <g transform="translate(97.09,45.88)">
              <path fill="none" d="M-78.95,-8.28 L -77.36 -16.79 -75.76 -23.94 -74.17 -29.2 -72.57 -32.18 -70.98 -32.68 -69.38 -30.72 -67.79 -26.5 -66.19 -20.41 -64.6 -12.97 -63 -4.82 -61.41 3.38 -59.81 10.98 -58.22 17.37 -56.62 22.11 -55.03 24.87 -53.43 25.53 -51.84 24.14 -50.24 20.93 -48.65 16.29 -47.05 10.72 -45.46 4.77 -43.86 -0.97 -42.27 -5.97 -40.67 -9.77 -39.08 -12.06 -37.48 -12.69 -35.89 -11.65 -34.29 -9.12 -32.7 -5.42 -31.1 -1 -29.51 3.64 -27.91 7.98 -26.32 11.51 -24.72 13.8 -23.13 14.57 -21.53 13.66 -19.94 11.1 -18.34 7.07 -16.75 1.91 -15.15 -3.9 -13.56 -9.83 -11.96 -15.28 -10.37 -19.72 -8.77 -22.64 -7.18 -23.7 -5.58 -22.68 -3.99 -19.57 -2.39 -14.53 -0.8 -7.9 0.8 -0.16 2.39 8.08 3.99 16.16 5.58 23.42 7.18 29.23 8.77 33.09 10.37 34.64 11.96 33.72 13.56 30.34 15.15 24.73 16.75 17.31 18.34 8.63 19.94 -0.63 21.53 -9.78 23.13 -18.11 24.72 -24.97 26.32 -29.87 27.91 -32.44 29.51 -32.52 31.1 -30.16 32.7 -25.6 34.29 -19.24 35.89 -11.63 37.48 -3.43 39.08 4.72 40.67 12.15 42.27 18.3 43.86 22.72 45.46 25.13 47.05 25.44 48.65 23.72 50.24 20.24 51.84 15.41 53.43 9.73 55.03 3.78 56.62 -1.88 58.22 -6.7 59.81 -10.27 61.41 -12.29 63 -12.63 64.6 -11.32 66.19 -8.57 67.79 -4.72 69.38 -0.22 70.98 4.41 72.57 8.64 74.17 11.99 75.76 14.05 77.36 14.54 78.95 13.35" class="primitive"/>
            </g>
          </g>
        </g>
        <g stroke-width="0.71" fill="#000000" fill-opacity="0.000" class="geometry" id="img-97718aae-20">
          <g stroke-dasharray="none" stroke="#FF0000" id="img-97718aae-21">
            <g transform="translate(97.09,44.53)">
              <path fill="none" d="M-78.95,-4.07 L -77.36 -10.02 -75.76 -15.2 -74.17 -19.29 -72.57 -22.07 -70.98 -23.42 -69.38 -23.3 -67.79 -21.82 -66.19 -19.15 -64.6 -15.58 -63 -11.42 -61.41 -7.03 -59.81 -2.77 -58.22 1.03 -56.62 4.09 -55.03 6.22 -53.43 7.3 -51.84 7.33 -50.24 6.36 -48.65 4.56 -47.05 2.13 -45.46 -0.65 -43.86 -3.52 -42.27 -6.23 -40.67 -8.55 -39.08 -10.31 -37.48 -11.41 -35.89 -11.83 -34.29 -11.62 -32.7 -10.91 -31.1 -9.87 -29.51 -8.71 -27.91 -7.65 -26.32 -6.89 -24.72 -6.6 -23.13 -6.9 -21.53 -7.82 -19.94 -9.33 -18.34 -11.32 -16.75 -13.62 -15.15 -15.98 -13.56 -18.16 -11.96 -19.88 -10.37 -20.89 -8.77 -20.99 -7.18 -20.04 -5.58 -17.98 -3.99 -14.84 -2.39 -10.76 -0.8 -5.94 0.8 -0.69 2.39 4.67 3.99 9.77 5.58 14.26 7.18 17.81 8.77 20.16 10.37 21.15 11.96 20.68 13.56 18.81 15.15 15.67 16.75 11.49 18.34 6.61 19.94 1.4 21.53 -3.75 23.13 -8.43 24.72 -12.29 26.32 -15.02 27.91 -16.43 29.51 -16.41 31.1 -14.95 32.7 -12.17 34.29 -8.27 35.89 -3.54 37.48 1.69 39.08 7.05 40.67 12.19 42.27 16.79 43.86 20.57 45.46 23.36 47.05 25.05 48.65 25.64 50.24 25.21 51.84 23.94 53.43 22.03 55.03 19.76 56.62 17.39 58.22 15.17 59.81 13.33 61.41 12.01 63 11.3 64.6 11.21 66.19 11.67 67.79 12.55 69.38 13.67 70.98 14.81 72.57 15.76 74.17 16.32 75.76 16.33 77.36 15.68 78.95 14.35" class="primitive"/>
            </g>
          </g>
        </g>
      </g>
    </g>
  </g>
  <g class="guide ylabels" font-size="2.82" font-family="'PT Sans Caption','Helvetica Neue','Helvetica',sans-serif" fill="#6C606B" id="img-97718aae-22">
    <g transform="translate(13.54,81.83)">
      <g class="primitive">
        <text text-anchor="end" dy="0.35em">0</text>
      </g>
    </g>
    <g transform="translate(13.54,58.49)">
      <g class="primitive">
        <text text-anchor="end" dy="0.35em">1</text>
      </g>
    </g>
    <g transform="translate(13.54,35.14)">
      <g class="primitive">
        <text text-anchor="end" dy="0.35em">2</text>
      </g>
    </g>
    <g transform="translate(13.54,11.79)">
      <g class="primitive">
        <text text-anchor="end" dy="0.35em">3</text>
      </g>
    </g>
  </g>
  <g font-size="3.88" font-family="'PT Sans','Helvetica Neue','Helvetica',sans-serif" fill="#564A55" stroke="#000000" stroke-opacity="0.000" id="img-97718aae-23">
    <g transform="translate(9.11,46.81)">
      <g class="primitive">
        <text text-anchor="end" dy="0.35em">Y</text>
      </g>
    </g>
  </g>
  <g font-size="3.88" font-family="'PT Sans','Helvetica Neue','Helvetica',sans-serif" fill="#564A55" stroke="#000000" stroke-opacity="0.000" id="img-97718aae-24">
    <g transform="translate(96.29,5)">
      <g class="primitive">
        <text text-anchor="middle" dy="0.6em">Mixed observations</text>
      </g>
    </g>
  </g>
</g>
<defs>
  <clipPath id="img-97718aae-8">
    <path d="M14.54,9.79 L 178.04 9.79 178.04 83.83 14.54 83.83" />
  </clipPath>
</defs>
</svg>
