<?xml version="1.0" encoding="UTF-8"?>
<svg xmlns="http://www.w3.org/2000/svg"
     xmlns:xlink="http://www.w3.org/1999/xlink"
     xmlns:gadfly="http://www.gadflyjl.org/ns"
     version="1.2"
     width="203.2mm" height="101.6mm" viewBox="0 0 203.2 101.6"
     stroke="none"
     fill="#000000"
     stroke-width="0.3"
     font-size="3.88"
>
<g class="plotroot xscalable yscalable" id="img-6f650894-1">
  <g font-size="3.88" font-family="'PT Sans','Helvetica Neue','Helvetica',sans-serif" fill="#564A55" stroke="#000000" stroke-opacity="0.000" id="img-6f650894-2">
    <g transform="translate(96.29,90.81)">
      <g class="primitive">
        <text text-anchor="middle" dy="0.6em">Time</text>
      </g>
    </g>
  </g>
  <g class="guide xlabels" font-size="2.82" font-family="'PT Sans Caption','Helvetica Neue','Helvetica',sans-serif" fill="#6C606B" id="img-6f650894-3">
    <g transform="translate(16.54,84.76)">
      <g class="primitive">
        <text text-anchor="middle" dy="0.6em">0</text>
      </g>
    </g>
    <g transform="translate(96.29,84.76)">
      <g class="primitive">
        <text text-anchor="middle" dy="0.6em">50</text>
      </g>
    </g>
    <g transform="translate(176.04,84.76)">
      <g class="primitive">
        <text text-anchor="middle" dy="0.6em">100</text>
      </g>
    </g>
  </g>
  <g class="guide colorkey" id="img-6f650894-4">
    <g fill="#4C404B" font-size="2.82" font-family="'PT Sans','Helvetica Neue','Helvetica',sans-serif" id="img-6f650894-5">
      <g transform="translate(181.56,39.53)">
        <g class="primitive">
          <text dy="0.35em">Observation 1</text>
        </g>
      </g>
      <g transform="translate(181.56,42.57)">
        <g class="primitive">
          <text dy="0.35em">Observation 2</text>
        </g>
      </g>
      <g transform="translate(181.56,45.62)">
        <g class="primitive">
          <text dy="0.35em">Observation 3</text>
        </g>
      </g>
      <g transform="translate(181.56,48.66)">
        <g class="primitive">
          <text dy="0.35em">Observation 4</text>
        </g>
      </g>
      <g transform="translate(181.56,51.71)">
        <g class="primitive">
          <text dy="0.35em">Observation 5</text>
        </g>
      </g>
      <g transform="translate(181.56,54.75)">
        <g class="primitive">
          <text dy="0.35em">Observation 6</text>
        </g>
      </g>
      <g transform="translate(181.56,57.79)">
        <g class="primitive">
          <text dy="0.35em">Observation 7</text>
        </g>
      </g>
    </g>
    <g stroke="#000000" stroke-opacity="0.000" id="img-6f650894-6">
      <g transform="translate(179.8,39.53)" fill="#FF0000">
        <path d="M-0.76,-0.76 L 0.76 -0.76 0.76 0.76 -0.76 0.76 z" class="primitive"/>
      </g>
      <g transform="translate(179.8,42.57)" fill="#0000FF">
        <path d="M-0.76,-0.76 L 0.76 -0.76 0.76 0.76 -0.76 0.76 z" class="primitive"/>
      </g>
      <g transform="translate(179.8,45.62)" fill="#008000">
        <path d="M-0.76,-0.76 L 0.76 -0.76 0.76 0.76 -0.76 0.76 z" class="primitive"/>
      </g>
      <g transform="translate(179.8,48.66)" fill="#FFA500">
        <path d="M-0.76,-0.76 L 0.76 -0.76 0.76 0.76 -0.76 0.76 z" class="primitive"/>
      </g>
      <g transform="translate(179.8,51.71)" fill="#FF00FF">
        <path d="M-0.76,-0.76 L 0.76 -0.76 0.76 0.76 -0.76 0.76 z" class="primitive"/>
      </g>
      <g transform="translate(179.8,54.75)" fill="#00FFFF">
        <path d="M-0.76,-0.76 L 0.76 -0.76 0.76 0.76 -0.76 0.76 z" class="primitive"/>
      </g>
      <g transform="translate(179.8,57.79)" fill="#A52A2A">
        <path d="M-0.76,-0.76 L 0.76 -0.76 0.76 0.76 -0.76 0.76 z" class="primitive"/>
      </g>
    </g>
    <g fill="#362A35" font-size="3.88" font-family="'PT Sans','Helvetica Neue','Helvetica',sans-serif" stroke="#000000" stroke-opacity="0.000" id="img-6f650894-7">
      <g transform="translate(179.04,34.49)">
        <g class="primitive">
          <text></text>
        </g>
      </g>
    </g>
  </g>
  <g clip-path="url(#img-6f650894-8)">
    <g id="img-6f650894-9">
      <g pointer-events="visible" opacity="1" fill="#000000" fill-opacity="0.000" stroke="#000000" stroke-opacity="0.000" class="guide background" id="img-6f650894-10">
        <g transform="translate(96.29,47.14)">
          <path d="M-81.75,-36.62 L 81.75 -36.62 81.75 36.62 -81.75 36.62 z" class="primitive"/>
        </g>
      </g>
      <g class="guide ygridlines xfixed" stroke-dasharray="0.5,0.5" stroke-width="0.2" stroke="#D0D0E0" id="img-6f650894-11">
        <g transform="translate(96.29,81.76)">
          <path fill="none" d="M-81.75,0 L 81.75 0" class="primitive"/>
        </g>
        <g transform="translate(96.29,58.68)">
          <path fill="none" d="M-81.75,0 L 81.75 0" class="primitive"/>
        </g>
        <g transform="translate(96.29,35.6)">
          <path fill="none" d="M-81.75,0 L 81.75 0" class="primitive"/>
        </g>
        <g transform="translate(96.29,12.52)">
          <path fill="none" d="M-81.75,0 L 81.75 0" class="primitive"/>
        </g>
      </g>
      <g class="guide xgridlines yfixed" stroke-dasharray="0.5,0.5" stroke-width="0.2" stroke="#D0D0E0" id="img-6f650894-12">
        <g transform="translate(16.54,47.14)">
          <path fill="none" d="M0,-36.62 L 0 36.62" class="primitive"/>
        </g>
        <g transform="translate(96.29,47.14)">
          <path fill="none" d="M0,-36.62 L 0 36.62" class="primitive"/>
        </g>
        <g transform="translate(176.04,47.14)">
          <path fill="none" d="M0,-36.62 L 0 36.62" class="primitive"/>
        </g>
      </g>
      <g class="plotpanel" id="img-6f650894-13">
        <metadata>
          <boundingbox value="14.537768554687489mm 10.523643663194449mm 163.50060492621526mm 73.23324110243055mm"/>
          <unitbox value="-1.2539137396533366 3.0866635723600315 102.50782747930667 -3.173327144720063"/>
        </metadata>
        <g stroke-width="0.71" fill="#000000" fill-opacity="0.000" class="geometry" id="img-6f650894-14">
          <g stroke-dasharray="none" stroke="#A52A2A" id="img-6f650894-15">
            <g transform="translate(97.09,52.34)">
              <path fill="none" d="M-78.95,-6.46 L -77.36 -9.57 -75.76 -14.56 -74.17 -18.68 -72.57 -17.15 -70.98 -19.11 -69.38 -14.58 -67.79 -19.43 -66.19 -13.34 -64.6 0.58 -63 6.13 -61.41 13.25 -59.81 11.95 -58.22 22.43 -56.62 27.82 -55.03 19.79 -53.43 25.81 -51.84 20.72 -50.24 18.74 -48.65 8.58 -47.05 -3.21 -45.46 -10.4 -43.86 -12.22 -42.27 -14.71 -40.67 -15.83 -39.08 -19.16 -37.48 -17.29 -35.89 -23.57 -34.29 -15.47 -32.7 -10.02 -31.1 0.82 -29.51 7.76 -27.91 13.21 -26.32 15.48 -24.72 18.84 -23.13 26.41 -21.53 23.48 -19.94 26.79 -18.34 23.55 -16.75 14.63 -15.15 7.62 -13.56 1.03 -11.96 -10.72 -10.37 -10.85 -8.77 -13.28 -7.18 -26.85 -5.58 -21.61 -3.99 -18.85 -2.39 -21.97 -0.8 -13.35 0.8 -9.65 2.39 -5.24 3.99 8.32 5.58 9.54 7.18 13.08 8.77 22.87 10.37 18.33 11.96 21.17 13.56 23.07 15.15 15.75 16.75 12.9 18.34 10.06 19.94 0.16 21.53 -11.11 23.13 -16.8 24.72 -17.24 26.32 -16.94 27.91 -28.16 29.51 -25.79 31.1 -21.17 32.7 -15.24 34.29 -12.61 35.89 -3.1 37.48 1.35 39.08 11.07 40.67 12.81 42.27 19.09 43.86 20.62 45.46 27.71 47.05 15.8 48.65 20.36 50.24 10.28 51.84 10.91 53.43 2.27 55.03 -13.05 56.62 -8.29 58.22 -12.78 59.81 -24.8 61.41 -23.4 63 -26.77 64.6 -19.95 66.19 -18.62 67.79 -8.78 69.38 -1.33 70.98 6.71 72.57 6.82 74.17 14.12 75.76 18.67 77.36 21.63 78.95 22.13" class="primitive"/>
            </g>
          </g>
        </g>
        <g stroke-width="0.71" fill="#000000" fill-opacity="0.000" class="geometry" id="img-6f650894-16">
          <g stroke-dasharray="none" stroke="#00FFFF" id="img-6f650894-17">
            <g transform="translate(97.09,58.34)">
              <path fill="none" d="M-78.95,-3.49 L -77.36 -0.39 -75.76 -2.81 -74.17 -5.9 -72.57 -0.57 -70.98 -5.31 -69.38 -0.08 -67.79 -16.28 -66.19 -12.68 -64.6 5.25 -63 6 -61.41 10.39 -59.81 -0.7 -58.22 13.89 -56.62 21.01 -55.03 4.29 -53.43 18.78 -51.84 13.9 -50.24 17.62 -48.65 6.68 -47.05 -6.63 -45.46 -10.81 -43.86 -5.2 -42.27 -2.75 -40.67 0.02 -39.08 -4.56 -37.48 -1.79 -35.89 -18.35 -34.29 -8.78 -32.7 -6.57 -31.1 5.16 -29.51 8.68 -27.91 9.78 -26.32 5.94 -24.72 6.43 -23.13 18.07 -21.53 11.74 -19.94 20.96 -18.34 19.92 -16.75 9.89 -15.15 5.33 -13.56 2.43 -11.96 -10.9 -10.37 -2.01 -8.77 0.48 -7.18 -21.83 -5.58 -9.43 -3.99 -5.06 -2.39 -15.47 -0.8 -4.98 0.8 -6.37 2.39 -7.56 3.99 9.23 5.58 1.93 7.18 0.72 8.77 14.23 10.37 1.8 11.96 7.19 13.56 13.76 15.15 4.7 16.75 6.92 18.34 10.78 19.94 1.28 21.53 -11.13 23.13 -13.44 24.72 -7.1 26.32 -1.83 27.91 -22.52 29.51 -19.1 31.1 -14.18 32.7 -9.2 34.29 -12.83 35.89 -3.84 37.48 -5.28 39.08 4.48 40.67 -0.23 42.27 6.4 43.86 6.28 45.46 20.33 47.05 -0.55 48.65 14.32 50.24 2.18 51.84 13.04 53.43 6.07 55.03 -14.46 56.62 4.05 58.22 2.15 59.81 -17.36 61.41 -12.98 63 -21.22 64.6 -12.06 66.19 -16.43 67.79 -5.7 69.38 -0.88 70.98 4.88 72.57 -4.52 74.17 1.99 75.76 5.29 77.36 8.22 78.95 9.25" class="primitive"/>
            </g>
          </g>
        </g>
        <g stroke-width="0.71" fill="#000000" fill-opacity="0.000" class="geometry" id="img-6f650894-18">
          <g stroke-dasharray="none" stroke="#FF00FF" id="img-6f650894-19">
            <g transform="translate(97.09,56.2)">
              <path fill="none" d="M-78.95,-4.34 L -77.36 -10.55 -75.76 -15.6 -74.17 -19.03 -72.57 -20.54 -70.98 -20 -69.38 -17.44 -67.79 -13.11 -66.19 -7.39 -64.6 -0.78 -63 6.12 -61.41 12.69 -59.81 18.35 -58.22 22.59 -56.62 25.04 -55.03 25.47 -53.43 23.84 -51.84 20.31 -50.24 15.19 -48.65 8.93 -47.05 2.09 -45.46 -4.71 -43.86 -10.87 -42.27 -15.84 -40.67 -19.17 -39.08 -20.57 -37.48 -19.91 -35.89 -17.25 -34.29 -12.82 -32.7 -7.03 -31.1 -0.4 -29.51 6.5 -27.91 13.04 -26.32 18.63 -24.72 22.78 -23.13 25.11 -21.53 25.43 -19.94 23.69 -18.34 20.06 -16.75 14.86 -15.15 8.55 -13.56 1.7 -11.96 -5.08 -10.37 -11.19 -8.77 -16.07 -7.18 -19.3 -5.58 -20.58 -3.99 -19.81 -2.39 -17.04 -0.8 -12.53 0.8 -11.75 2.39 -15.33 3.99 4.54 5.58 -9.51 7.18 16.76 8.77 5.43 10.37 21.56 11.96 20.09 13.56 19.09 15.15 4.93 16.75 -3.87 18.34 6.38 19.94 -9.38 21.53 -21.14 23.13 -29.27 24.72 -16.41 26.32 -20.59 27.91 -40.09 29.51 -35.6 31.1 -16.83 32.7 -12.23 34.29 -6.32 35.89 0.38 37.48 7.26 39.08 13.72 40.67 19.17 42.27 23.14 43.86 25.25 45.46 25.34 47.05 23.38 48.65 19.55 50.24 14.2 51.84 7.8 53.43 0.93 55.03 -5.81 56.62 -11.8 58.22 -16.52 59.81 -19.55 61.41 -20.6 63 -19.59 64.6 -16.62 66.19 -11.93 67.79 -5.96 69.38 0.76 70.98 7.64 72.57 14.06 74.17 19.44 75.76 23.31 77.36 25.31 78.95 25.28" class="primitive"/>
            </g>
          </g>
        </g>
        <g stroke-width="0.71" fill="#000000" fill-opacity="0.000" class="geometry" id="img-6f650894-20">
          <g stroke-dasharray="none" stroke="#FFA500" id="img-6f650894-21">
            <g transform="translate(97.09,66.06)">
              <path fill="none" d="M-78.95,0.75 L -77.36 -2.36 -75.76 -4.88 -74.17 -6.6 -72.57 -7.35 -70.98 -7.08 -69.38 -5.8 -67.79 -3.64 -66.19 -0.77 -64.6 2.53 -63 5.98 -61.41 9.26 -59.81 12.09 -58.22 14.21 -56.62 15.44 -55.03 15.65 -53.43 14.84 -51.84 13.07 -50.24 10.51 -48.65 7.38 -47.05 3.96 -45.46 0.56 -43.86 -2.52 -42.27 -5 -40.67 -6.67 -39.08 -7.37 -37.48 -7.03 -35.89 -5.7 -34.29 -3.49 -32.7 -0.6 -31.1 2.72 -29.51 6.17 -27.91 9.44 -26.32 12.23 -24.72 14.31 -23.13 15.48 -21.53 15.63 -19.94 14.76 -18.34 12.95 -16.75 10.35 -15.15 7.19 -13.56 3.77 -11.96 0.38 -10.37 -2.68 -8.77 -5.12 -7.18 -6.73 -5.58 -7.37 -3.99 -6.99 -2.39 -5.6 -0.8 -3.35 0.8 -10.56 2.39 -27.72 3.99 1.68 5.58 -36.18 7.18 8.09 8.77 -20.65 10.37 8.25 11.96 5.02 13.56 5.8 15.15 -16.93 16.75 -26.61 18.34 3.41 19.94 -17.8 21.53 -31.18 23.13 -38.37 24.72 -5.45 26.32 -9.12 27.91 -46.37 29.51 -38.72 31.1 -5.5 32.7 -3.2 34.29 -0.24 35.89 3.11 37.48 6.55 39.08 9.78 40.67 12.5 42.27 14.49 43.86 15.54 45.46 15.59 47.05 14.61 48.65 12.69 50.24 10.02 51.84 6.82 53.43 3.38 55.03 0.01 56.62 -2.98 58.22 -5.34 59.81 -6.85 61.41 -7.38 63 -6.88 64.6 -5.39 66.19 -3.05 67.79 -0.06 69.38 3.3 70.98 6.74 72.57 9.95 74.17 12.64 75.76 14.57 77.36 15.57 78.95 15.56" class="primitive"/>
            </g>
          </g>
        </g>
        <g stroke-width="0.71" fill="#000000" fill-opacity="0.000" class="geometry" id="img-6f650894-22">
          <g stroke-dasharray="none" stroke="#008000" id="img-6f650894-23">
            <g transform="translate(97.09,68.2)">
              <path fill="none" d="M-78.95,1.6 L -77.36 7.8 -75.76 7.91 -74.17 6.53 -72.57 12.62 -70.98 7.61 -69.38 11.56 -67.79 -6.8 -66.19 -6.07 -64.6 8.56 -63 5.86 -61.41 6.97 -59.81 -6.96 -58.22 5.51 -56.62 11.41 -55.03 -5.52 -53.43 9.78 -51.84 6.66 -50.24 12.95 -48.65 5.14 -47.05 -4.75 -45.46 -5.54 -43.86 3.15 -42.27 8.09 -40.67 12.52 -39.08 8.64 -37.48 11.08 -35.89 -6.81 -34.29 0.55 -32.7 -0.13 -31.1 8.28 -29.51 8.35 -27.91 6.18 -26.32 -0.46 -24.72 -2.05 -23.13 8.43 -21.53 1.94 -19.94 12.03 -18.34 12.81 -16.75 5.38 -15.15 3.97 -13.56 4.5 -11.96 -5.44 -10.37 6.5 -8.77 11.43 -7.18 -9.26 -5.58 3.78 -3.99 7.76 -2.39 -4.03 -0.8 4.2 0.8 -5.18 2.39 -19.95 3.99 6.37 5.58 -24.73 7.18 -7.96 8.77 -11.86 10.37 -11.5 11.96 -7.88 13.56 0.46 15.15 -17.16 16.75 -15.82 18.34 7.81 19.94 -7.15 21.53 -21.18 23.13 -22.55 24.72 3.86 26.32 9.64 27.91 -28.79 29.51 -22.23 31.1 -2.84 32.7 -0.17 34.29 -6.75 35.89 -1.11 37.48 -5.99 39.08 0.54 40.67 -6.9 42.27 -2.25 43.86 -3.43 45.46 10.58 47.05 -9.32 48.65 7.46 50.24 -2 51.84 12.06 53.43 8.53 55.03 -8.64 56.62 12.87 58.22 13.33 59.81 -4.67 61.41 0.24 63 -8.51 64.6 -0.83 66.19 -7.54 67.79 0.2 69.38 1.65 70.98 3.98 72.57 -8.63 74.17 -4.81 75.76 -3.44 77.36 -1.52 78.95 -0.47" class="primitive"/>
            </g>
          </g>
        </g>
        <g stroke-width="0.71" fill="#000000" fill-opacity="0.000" class="geometry" id="img-6f650894-24">
          <g stroke-dasharray="none" stroke="#0000FF" id="img-6f650894-25">
            <g transform="translate(97.09,68.2)">
              <path fill="none" d="M-78.95,1.6 L -77.36 7.8 -75.76 7.91 -74.17 6.53 -72.57 12.62 -70.98 7.61 -69.38 11.56 -67.79 -6.8 -66.19 -6.07 -64.6 8.56 -63 5.86 -61.41 6.97 -59.81 -6.96 -58.22 5.51 -56.62 11.41 -55.03 -5.52 -53.43 9.78 -51.84 6.66 -50.24 12.95 -48.65 5.14 -47.05 -4.75 -45.46 -5.54 -43.86 3.15 -42.27 8.09 -40.67 12.52 -39.08 8.64 -37.48 11.08 -35.89 -6.81 -34.29 0.55 -32.7 -0.13 -31.1 8.28 -29.51 8.35 -27.91 6.18 -26.32 -0.46 -24.72 -2.05 -23.13 8.43 -21.53 1.94 -19.94 12.03 -18.34 12.81 -16.75 5.38 -15.15 3.97 -13.56 4.5 -11.96 -5.44 -10.37 6.5 -8.77 11.43 -7.18 -9.26 -5.58 3.78 -3.99 7.76 -2.39 -4.03 -0.8 4.2 0.8 -5.18 2.39 -19.95 3.99 6.37 5.58 -24.73 7.18 -7.96 8.77 -11.86 10.37 -11.5 11.96 -7.88 13.56 0.46 15.15 -17.16 16.75 -15.82 18.34 7.81 19.94 -7.15 21.53 -21.18 23.13 -22.55 24.72 3.86 26.32 9.64 27.91 -28.79 29.51 -22.23 31.1 -2.84 32.7 -0.17 34.29 -6.75 35.89 -1.11 37.48 -5.99 39.08 0.54 40.67 -6.9 42.27 -2.25 43.86 -3.43 45.46 10.58 47.05 -9.32 48.65 7.46 50.24 -2 51.84 12.06 53.43 8.53 55.03 -8.64 56.62 12.87 58.22 13.33 59.81 -4.67 61.41 0.24 63 -8.51 64.6 -0.83 66.19 -7.54 67.79 0.2 69.38 1.65 70.98 3.98 72.57 -8.63 74.17 -4.81 75.76 -3.44 77.36 -1.52 78.95 -0.47" class="primitive"/>
            </g>
          </g>
        </g>
        <g stroke-width="0.71" fill="#000000" fill-opacity="0.000" class="geometry" id="img-6f650894-26">
          <g stroke-dasharray="none" stroke="#FF0000" id="img-6f650894-27">
            <g transform="translate(97.09,62.2)">
              <path fill="none" d="M-78.95,-1.37 L -77.36 -1.37 -75.76 -3.84 -74.17 -6.25 -72.57 -3.96 -70.98 -6.2 -69.38 -2.94 -67.79 -9.96 -66.19 -6.73 -64.6 3.89 -63 5.99 -61.41 9.83 -59.81 5.69 -58.22 14.05 -56.62 18.22 -55.03 9.97 -53.43 16.81 -51.84 13.49 -50.24 14.07 -48.65 7.03 -47.05 -1.33 -45.46 -5.13 -43.86 -3.86 -42.27 -3.87 -40.67 -3.32 -39.08 -5.96 -37.48 -4.41 -35.89 -12.03 -34.29 -6.14 -32.7 -3.58 -31.1 3.94 -29.51 7.42 -27.91 9.61 -26.32 9.08 -24.72 10.37 -23.13 16.77 -21.53 13.69 -19.94 17.86 -18.34 16.44 -16.75 10.12 -15.15 6.26 -13.56 3.1 -11.96 -5.26 -10.37 -2.34 -8.77 -2.32 -7.18 -14.28 -5.58 -8.4 -3.99 -6.02 -2.39 -10.54 -0.8 -4.16 0.8 -8.47 2.39 -17.64 3.99 5.46 5.58 -17.12 7.18 4.4 8.77 -3.21 10.37 5.03 11.96 6.1 13.56 9.78 15.15 -6.12 16.75 -9.84 18.34 7.09 19.94 -8.26 21.53 -21.16 23.13 -25.91 24.72 -6.28 26.32 -5.48 27.91 -34.44 29.51 -28.91 31.1 -9.84 32.7 -6.2 34.29 -6.53 35.89 -0.37 37.48 0.63 39.08 7.13 40.67 6.14 42.27 10.44 43.86 10.91 45.46 17.96 47.05 7.03 48.65 13.51 50.24 6.1 51.84 9.93 53.43 4.73 55.03 -7.22 56.62 0.53 58.22 -1.6 59.81 -12.11 61.41 -10.18 63 -14.05 64.6 -8.72 66.19 -9.74 67.79 -2.88 69.38 1.21 70.98 5.81 72.57 2.71 74.17 7.32 75.76 9.93 77.36 11.9 78.95 12.41" class="primitive"/>
            </g>
          </g>
        </g>
      </g>
    </g>
  </g>
  <g class="guide ylabels" font-size="2.82" font-family="'PT Sans Caption','Helvetica Neue','Helvetica',sans-serif" fill="#6C606B" id="img-6f650894-28">
    <g transform="translate(13.54,81.76)">
      <g class="primitive">
        <text text-anchor="end" dy="0.35em">0</text>
      </g>
    </g>
    <g transform="translate(13.54,58.68)">
      <g class="primitive">
        <text text-anchor="end" dy="0.35em">1</text>
      </g>
    </g>
    <g transform="translate(13.54,35.6)">
      <g class="primitive">
        <text text-anchor="end" dy="0.35em">2</text>
      </g>
    </g>
    <g transform="translate(13.54,12.52)">
      <g class="primitive">
        <text text-anchor="end" dy="0.35em">3</text>
      </g>
    </g>
  </g>
  <g font-size="3.88" font-family="'PT Sans','Helvetica Neue','Helvetica',sans-serif" fill="#564A55" stroke="#000000" stroke-opacity="0.000" id="img-6f650894-29">
    <g transform="translate(9.11,47.14)">
      <g class="primitive">
        <text text-anchor="end" dy="0.35em">Y</text>
      </g>
    </g>
  </g>
  <g font-size="3.88" font-family="'PT Sans','Helvetica Neue','Helvetica',sans-serif" fill="#564A55" stroke="#000000" stroke-opacity="0.000" id="img-6f650894-30">
    <g transform="translate(96.29,5)">
      <g class="primitive">
        <text text-anchor="middle" dy="0.6em">Reproduced observations</text>
      </g>
    </g>
  </g>
</g>
<defs>
  <clipPath id="img-6f650894-8">
    <path d="M14.54,10.52 L 178.04 10.52 178.04 83.76 14.54 83.76" />
  </clipPath>
</defs>
</svg>
