<?xml version="1.0" encoding="UTF-8"?>
<svg xmlns="http://www.w3.org/2000/svg"
     xmlns:xlink="http://www.w3.org/1999/xlink"
     xmlns:gadfly="http://www.gadflyjl.org/ns"
     version="1.2"
     width="203.2mm" height="101.6mm" viewBox="0 0 203.2 101.6"
     stroke="none"
     fill="#000000"
     stroke-width="0.3"
     font-size="3.88"
>
<g class="plotroot xscalable yscalable" id="img-7b17f886-1">
  <g font-size="3.88" font-family="'PT Sans','Helvetica Neue','Helvetica',sans-serif" fill="#564A55" stroke="#000000" stroke-opacity="0.000" id="img-7b17f886-2">
    <text x="85.67" y="90.81" text-anchor="middle" dy="0.6em">Time</text>
  </g>
  <g class="guide xlabels" font-size="2.82" font-family="'PT Sans Caption','Helvetica Neue','Helvetica',sans-serif" fill="#6C606B" id="img-7b17f886-3">
    <text x="16.54" y="84.76" text-anchor="middle" dy="0.6em">0</text>
    <text x="85.67" y="84.76" text-anchor="middle" dy="0.6em">50</text>
    <text x="154.81" y="84.76" text-anchor="middle" dy="0.6em">100</text>
  </g>
  <g class="guide colorkey" id="img-7b17f886-4">
    <g fill="#4C404B" font-size="2.82" font-family="'PT Sans','Helvetica Neue','Helvetica',sans-serif" id="img-7b17f886-5">
      <text x="160.33" y="36.77" dy="0.35em" id="img-7b17f886-6" class="color_Observation_1">Observation 1</text>
      <text x="160.33" y="39.81" dy="0.35em" id="img-7b17f886-7" class="color_Observation_2">Observation 2</text>
      <text x="160.33" y="42.86" dy="0.35em" id="img-7b17f886-8" class="color_Observation_3">Observation 3</text>
      <text x="160.33" y="45.9" dy="0.35em" id="img-7b17f886-9" class="color_Observation_4">Observation 4</text>
      <text x="160.33" y="48.94" dy="0.35em" id="img-7b17f886-10" class="color_Observation_5">Observation 5</text>
      <text x="160.33" y="51.99" dy="0.35em" id="img-7b17f886-11" class="color_Observation_6">Observation 6</text>
      <text x="160.33" y="55.03" dy="0.35em" id="img-7b17f886-12" class="color_Observation_7">Observation 7</text>
    </g>
    <g stroke="#000000" stroke-opacity="0.000" id="img-7b17f886-13">
      <rect x="157.81" y="36.01" width="1.52" height="1.52" id="img-7b17f886-14" fill="#00BFFF" class="color_Observation_1"/>
      <rect x="157.81" y="39.05" width="1.52" height="1.52" id="img-7b17f886-15" fill="#D4CA3A" class="color_Observation_2"/>
      <rect x="157.81" y="42.1" width="1.52" height="1.52" id="img-7b17f886-16" fill="#FF6DAE" class="color_Observation_3"/>
      <rect x="157.81" y="45.14" width="1.52" height="1.52" id="img-7b17f886-17" fill="#00B78D" class="color_Observation_4"/>
      <rect x="157.81" y="48.18" width="1.52" height="1.52" id="img-7b17f886-18" fill="#BEA9FF" class="color_Observation_5"/>
      <rect x="157.81" y="51.23" width="1.52" height="1.52" id="img-7b17f886-19" fill="#FF6765" class="color_Observation_6"/>
      <rect x="157.81" y="54.27" width="1.52" height="1.52" id="img-7b17f886-20" fill="#C6C6C6" class="color_Observation_7"/>
    </g>
    <g fill="#362A35" font-size="3.88" font-family="'PT Sans','Helvetica Neue','Helvetica',sans-serif" stroke="#000000" stroke-opacity="0.000" id="img-7b17f886-21">
      <text x="157.81" y="33.49" id="img-7b17f886-22">Reproduced observations</text>
    </g>
  </g>
<g clip-path="url(#img-7b17f886-23)">
  <g id="img-7b17f886-24">
    <g pointer-events="visible" opacity="1" fill="#000000" fill-opacity="0.000" stroke="#000000" stroke-opacity="0.000" class="guide background" id="img-7b17f886-25">
      <rect x="14.54" y="5" width="142.27" height="78.76" id="img-7b17f886-26"/>
    </g>
    <g class="guide ygridlines xfixed" stroke-dasharray="0.5,0.5" stroke-width="0.2" stroke="#D0D0E0" id="img-7b17f886-27">
      <path fill="none" d="M14.54,81.76 L 156.81 81.76" id="img-7b17f886-28"/>
      <path fill="none" d="M14.54,56.84 L 156.81 56.84" id="img-7b17f886-29"/>
      <path fill="none" d="M14.54,31.92 L 156.81 31.92" id="img-7b17f886-30"/>
      <path fill="none" d="M14.54,7 L 156.81 7" id="img-7b17f886-31"/>
    </g>
    <g class="guide xgridlines yfixed" stroke-dasharray="0.5,0.5" stroke-width="0.2" stroke="#D0D0E0" id="img-7b17f886-32">
      <path fill="none" d="M16.54,5 L 16.54 83.76" id="img-7b17f886-33"/>
      <path fill="none" d="M85.67,5 L 85.67 83.76" id="img-7b17f886-34"/>
      <path fill="none" d="M154.81,5 L 154.81 83.76" id="img-7b17f886-35"/>
    </g>
    <g class="plotpanel" id="img-7b17f886-36">
      <g stroke-width="0.71" fill="#000000" fill-opacity="0.000" class="geometry color_Observation_7" stroke-dasharray="none" stroke="#C6C6C6" id="img-7b17f886-37">
        <path fill="none" d="M17.92,43.01 L 19.3 39.66 20.69 34.27 22.07 29.82 23.45 31.47 24.83 29.36 26.22 34.25 27.6 29.01 28.98 35.59 30.36 50.62 31.75 56.61 33.13 64.3 34.51 62.9 35.9 74.21 37.28 80.03 38.66 71.36 40.04 77.87 41.43 72.37 42.81 70.23 44.19 59.25 45.57 46.53 46.96 38.76 48.34 36.8 49.72 34.11 51.11 32.9 52.49 29.3 53.87 31.33 55.25 24.54 56.64 33.29 58.02 39.18 59.4 50.88 60.78 58.37 62.17 64.25 63.55 66.71 64.93 70.33 66.32 78.51 67.7 75.35 69.08 78.92 70.46 75.42 71.85 65.79 73.23 58.22 74.61 51.11 75.99 38.42 77.38 38.27 78.76 35.66 80.14 21 81.53 26.65 82.91 29.64 84.29 26.26 85.67 35.58 87.06 39.57 88.44 44.33 89.82 58.98 91.2 60.3 92.59 64.11 93.97 74.69 95.35 69.79 96.74 72.85 98.12 74.91 99.5 67 100.88 63.92 102.27 60.86 103.65 50.17 105.03 38 106.41 31.85 107.8 31.38 109.18 31.7 110.56 19.58 111.95 22.15 113.33 27.13 114.71 33.54 116.09 36.37 117.48 46.65 118.86 51.45 120.24 61.95 121.62 63.82 123.01 70.61 124.39 72.26 125.77 79.91 127.16 67.05 128.54 71.98 129.92 61.09 131.3 61.78 132.69 52.45 134.07 35.91 135.45 41.05 136.83 36.2 138.22 23.21 139.6 24.73 140.98 21.09 142.37 28.45 143.75 29.89 145.13 40.51 146.51 48.56 147.9 57.24 149.28 57.36 150.66 65.24 152.04 70.15 153.43 73.35 154.81 73.88" id="img-7b17f886-38"/>
      </g>
      <g stroke-width="0.71" fill="#000000" fill-opacity="0.000" class="geometry color_Observation_6" stroke-dasharray="none" stroke="#FF6765" id="img-7b17f886-39">
        <path fill="none" d="M17.92,52.7 L 19.3 56.05 20.69 53.44 22.07 50.1 23.45 55.85 24.83 50.73 26.22 56.38 27.6 38.89 28.98 42.78 30.36 62.14 31.75 62.95 33.13 67.69 34.51 55.71 35.9 71.46 37.28 79.15 38.66 61.1 40.04 76.75 41.43 71.47 42.81 75.49 44.19 63.68 45.57 49.31 46.96 44.79 48.34 50.85 49.72 53.5 51.11 56.49 52.49 51.54 53.87 54.53 55.25 36.65 56.64 46.99 58.02 49.38 59.4 62.04 60.78 65.84 62.17 67.02 63.55 62.88 64.93 63.41 66.32 75.98 67.7 69.14 69.08 79.1 70.46 77.98 71.85 67.15 73.23 62.22 74.61 59.1 75.99 44.7 77.38 54.3 78.76 56.98 80.14 32.9 81.53 46.28 82.91 51 84.29 39.76 85.67 51.09 87.06 49.59 88.44 48.31 89.82 66.44 91.2 58.55 92.59 57.24 93.97 71.83 95.35 58.42 96.74 64.23 98.12 71.33 99.5 61.54 100.88 63.94 102.27 68.11 103.65 57.85 105.03 44.45 106.41 41.95 107.8 48.8 109.18 54.49 110.56 32.16 111.95 35.84 113.33 41.16 114.71 46.53 116.09 42.62 117.48 52.32 118.86 50.76 120.24 61.31 121.62 56.22 123.01 63.38 124.39 63.24 125.77 78.42 127.16 55.87 128.54 71.93 129.92 58.82 131.3 70.55 132.69 63.03 134.07 40.85 135.45 60.84 136.83 58.79 138.22 37.72 139.6 42.45 140.98 33.55 142.37 43.45 143.75 38.73 145.13 50.32 146.51 55.51 147.9 61.74 149.28 51.59 150.66 58.62 152.04 62.18 153.43 65.34 154.81 66.46" id="img-7b17f886-40"/>
      </g>
      <g stroke-width="0.71" fill="#000000" fill-opacity="0.000" class="geometry color_Observation_5" stroke-dasharray="none" stroke="#BEA9FF" id="img-7b17f886-41">
        <path fill="none" d="M17.92,49.47 L 19.3 42.77 20.69 37.32 22.07 33.61 23.45 31.98 24.83 32.57 26.22 35.33 27.6 40.01 28.98 46.19 30.36 53.32 31.75 60.77 33.13 67.87 34.51 73.98 35.9 78.56 37.28 81.2 38.66 81.66 40.04 79.91 41.43 76.09 42.81 70.56 44.19 63.8 45.57 56.42 46.96 49.07 48.34 42.42 49.72 37.06 51.11 33.46 52.49 31.96 53.87 32.67 55.25 35.54 56.64 40.32 58.02 46.57 59.4 53.74 60.78 61.18 62.17 68.24 63.55 74.28 64.93 78.76 66.32 81.28 67.7 81.62 69.08 79.75 70.46 75.83 71.85 70.21 73.23 63.4 74.61 56 75.99 48.68 77.38 42.08 78.76 36.81 80.14 33.32 81.53 31.94 82.91 32.77 84.29 35.76 85.67 40.63 87.06 41.48 88.44 37.61 89.82 59.07 91.2 43.89 92.59 72.26 93.97 60.03 95.35 77.44 96.74 75.86 98.12 74.78 99.5 59.49 100.88 49.99 102.27 61.05 103.65 44.04 105.03 31.34 106.41 22.56 107.8 36.44 109.18 31.93 110.56 10.88 111.95 15.72 113.33 35.99 114.71 40.95 116.09 47.34 117.48 54.57 118.86 62 120.24 68.98 121.62 74.87 123.01 79.15 124.39 81.43 125.77 81.52 127.16 79.4 128.54 75.27 129.92 69.49 131.3 62.59 132.69 55.16 134.07 47.89 135.45 41.42 136.83 36.32 138.22 33.06 139.6 31.92 140.98 33.01 142.37 36.22 143.75 41.28 145.13 47.73 146.51 54.99 147.9 62.41 149.28 69.34 150.66 75.15 152.04 79.33 153.43 81.49 154.81 81.46" id="img-7b17f886-42"/>
      </g>
      <g stroke-width="0.71" fill="#000000" fill-opacity="0.000" class="geometry color_Observation_4" stroke-dasharray="none" stroke="#00B78D" id="img-7b17f886-43">
        <path fill="none" d="M17.92,65.62 L 19.3 62.26 20.69 59.54 22.07 57.68 23.45 56.87 24.83 57.16 26.22 58.54 27.6 60.88 28.98 63.97 30.36 67.54 31.75 71.26 33.13 74.81 34.51 77.87 35.9 80.16 37.28 81.48 38.66 81.71 40.04 80.83 41.43 78.93 42.81 76.16 44.19 72.78 45.57 69.09 46.96 65.42 48.34 62.09 49.72 59.41 51.11 57.61 52.49 56.86 53.87 57.21 55.25 58.65 56.64 61.04 58.02 64.16 59.4 67.75 60.78 71.47 62.17 75 63.55 78.02 64.93 80.26 66.32 81.52 67.7 81.69 69.08 80.75 70.46 78.79 71.85 75.98 73.23 72.58 74.61 68.88 75.99 65.22 77.38 61.92 78.76 59.28 80.14 57.54 81.53 56.85 82.91 57.27 84.29 58.76 85.67 61.2 87.06 53.4 88.44 34.88 89.82 66.62 91.2 25.74 92.59 73.54 93.97 42.51 95.35 73.72 96.74 70.23 98.12 71.07 99.5 46.53 100.88 36.07 102.27 68.49 103.65 45.59 105.03 31.14 106.41 23.38 107.8 58.92 109.18 54.96 110.56 14.74 111.95 22.99 113.33 58.87 114.71 61.36 116.09 64.55 117.48 68.16 118.86 71.88 120.24 75.37 121.62 78.31 123.01 80.45 124.39 81.59 125.77 81.64 127.16 80.58 128.54 78.51 129.92 75.63 131.3 72.17 132.69 68.46 134.07 64.82 135.45 61.59 136.83 59.04 138.22 57.41 139.6 56.84 140.98 57.38 142.37 58.99 143.75 61.52 145.13 64.74 146.51 68.37 147.9 72.09 149.28 75.55 150.66 78.46 152.04 80.54 153.43 81.63 154.81 81.61" id="img-7b17f886-44"/>
      </g>
      <g stroke-width="0.71" fill="#000000" fill-opacity="0.000" class="geometry color_Observation_3" stroke-dasharray="none" stroke="#FF6DAE" id="img-7b17f886-45">
        <path fill="none" d="M17.92,68.84 L 19.3 75.54 20.69 75.66 22.07 74.17 23.45 80.74 24.83 75.33 26.22 79.59 27.6 59.77 28.98 60.56 30.36 76.35 31.75 73.44 33.13 74.64 34.51 59.6 35.9 73.06 37.28 79.43 38.66 61.15 40.04 77.67 41.43 74.31 42.81 81.09 44.19 72.66 45.57 61.98 46.96 61.13 48.34 70.52 49.72 75.85 51.11 80.64 52.49 76.44 53.87 79.07 55.25 59.76 56.64 67.71 58.02 66.97 59.4 76.05 60.78 76.13 62.17 73.78 63.55 66.62 64.93 64.9 66.32 76.22 67.7 69.21 69.08 80.11 70.46 80.95 71.85 72.93 73.23 71.4 74.61 71.97 75.99 61.24 77.38 74.13 78.76 79.46 80.14 57.12 81.53 71.19 82.91 75.49 84.29 62.76 85.67 71.65 87.06 61.52 88.44 45.57 89.82 73.99 91.2 40.41 92.59 58.52 93.97 54.31 95.35 54.7 96.74 58.6 98.12 67.61 99.5 48.58 100.88 50.03 102.27 75.55 103.65 59.39 105.03 44.24 106.41 42.77 107.8 71.28 109.18 77.52 110.56 36.02 111.95 43.11 113.33 64.04 114.71 66.93 116.09 59.83 117.48 65.91 118.86 60.64 120.24 67.7 121.62 59.66 123.01 64.69 124.39 63.41 125.77 78.54 127.16 57.05 128.54 75.17 129.92 64.96 131.3 80.14 132.69 76.32 134.07 57.79 135.45 81.01 136.83 81.51 138.22 62.07 139.6 67.37 140.98 57.93 142.37 66.22 143.75 58.97 145.13 67.33 146.51 68.9 147.9 71.41 149.28 57.8 150.66 61.92 152.04 63.4 153.43 65.47 154.81 66.61" id="img-7b17f886-46"/>
      </g>
      <g stroke-width="0.71" fill="#000000" fill-opacity="0.000" class="geometry color_Observation_2" stroke-dasharray="none" stroke="#D4CA3A" id="img-7b17f886-47">
        <path fill="none" d="M17.92,68.84 L 19.3 75.54 20.69 75.66 22.07 74.17 23.45 80.74 24.83 75.33 26.22 79.59 27.6 59.77 28.98 60.56 30.36 76.35 31.75 73.44 33.13 74.64 34.51 59.6 35.9 73.06 37.28 79.43 38.66 61.15 40.04 77.67 41.43 74.31 42.81 81.09 44.19 72.66 45.57 61.98 46.96 61.13 48.34 70.52 49.72 75.85 51.11 80.64 52.49 76.44 53.87 79.07 55.25 59.76 56.64 67.71 58.02 66.97 59.4 76.05 60.78 76.13 62.17 73.78 63.55 66.62 64.93 64.9 66.32 76.22 67.7 69.21 69.08 80.11 70.46 80.95 71.85 72.93 73.23 71.4 74.61 71.97 75.99 61.24 77.38 74.13 78.76 79.46 80.14 57.12 81.53 71.19 82.91 75.49 84.29 62.76 85.67 71.65 87.06 61.52 88.44 45.57 89.82 73.99 91.2 40.41 92.59 58.52 93.97 54.31 95.35 54.7 96.74 58.6 98.12 67.61 99.5 48.58 100.88 50.03 102.27 75.55 103.65 59.39 105.03 44.24 106.41 42.77 107.8 71.28 109.18 77.52 110.56 36.02 111.95 43.11 113.33 64.04 114.71 66.93 116.09 59.83 117.48 65.91 118.86 60.64 120.24 67.7 121.62 59.66 123.01 64.69 124.39 63.41 125.77 78.54 127.16 57.05 128.54 75.17 129.92 64.96 131.3 80.14 132.69 76.32 134.07 57.79 135.45 81.01 136.83 81.51 138.22 62.07 139.6 67.37 140.98 57.93 142.37 66.22 143.75 58.97 145.13 67.33 146.51 68.9 147.9 71.41 149.28 57.8 150.66 61.92 152.04 63.4 153.43 65.47 154.81 66.61" id="img-7b17f886-48"/>
      </g>
      <g stroke-width="0.71" fill="#000000" fill-opacity="0.000" class="geometry color_Observation_1" stroke-dasharray="none" stroke="#00BFFF" id="img-7b17f886-49">
        <path fill="none" d="M17.92,59.16 L 19.3 59.15 20.69 56.49 22.07 53.89 23.45 56.36 24.83 53.95 26.22 57.46 27.6 49.89 28.98 53.37 30.36 64.84 31.75 67.11 33.13 71.25 34.51 66.79 35.9 75.81 37.28 80.31 38.66 71.41 40.04 78.79 41.43 75.2 42.81 75.83 44.19 68.23 45.57 59.2 46.96 55.1 48.34 56.47 49.72 56.46 51.11 57.05 52.49 54.2 53.87 55.87 55.25 47.65 56.64 54.01 58.02 56.77 59.4 64.89 60.78 68.66 62.17 71.01 63.55 70.45 64.93 71.83 66.32 78.75 67.7 75.42 69.08 79.93 70.46 78.39 71.85 71.57 73.23 67.4 74.61 63.99 75.99 54.96 77.38 58.11 78.76 58.13 80.14 45.22 81.53 51.56 82.91 54.13 84.29 49.26 85.67 56.14 87.06 51.5 88.44 41.59 89.82 66.53 91.2 42.15 92.59 65.39 93.97 57.17 95.35 66.07 96.74 67.23 98.12 71.2 99.5 54.04 100.88 50.01 102.27 68.3 103.65 51.72 105.03 37.79 106.41 32.67 107.8 53.86 109.18 54.72 110.56 23.45 111.95 29.42 113.33 50.02 114.71 53.94 116.09 53.58 117.48 60.24 118.86 61.32 120.24 68.34 121.62 67.27 123.01 71.92 124.39 72.42 125.77 80.03 127.16 68.22 128.54 75.22 129.92 67.22 131.3 71.36 132.69 65.74 134.07 52.84 135.45 61.22 136.83 58.91 138.22 47.56 139.6 49.65 140.98 45.47 142.37 51.22 143.75 50.13 145.13 57.53 146.51 61.94 147.9 66.91 149.28 63.57 150.66 68.54 152.04 71.36 153.43 73.48 154.81 74.03" id="img-7b17f886-50"/>
      </g>
    </g>
  </g>
</g>
  <g class="guide ylabels" font-size="2.82" font-family="'PT Sans Caption','Helvetica Neue','Helvetica',sans-serif" fill="#6C606B" id="img-7b17f886-51">
    <text x="13.54" y="81.76" text-anchor="end" dy="0.35em" id="img-7b17f886-52">0</text>
    <text x="13.54" y="56.84" text-anchor="end" dy="0.35em" id="img-7b17f886-53">1</text>
    <text x="13.54" y="31.92" text-anchor="end" dy="0.35em" id="img-7b17f886-54">2</text>
    <text x="13.54" y="7" text-anchor="end" dy="0.35em" id="img-7b17f886-55">3</text>
  </g>
  <g font-size="3.88" font-family="'PT Sans','Helvetica Neue','Helvetica',sans-serif" fill="#564A55" stroke="#000000" stroke-opacity="0.000" id="img-7b17f886-56">
    <text x="9.11" y="44.38" text-anchor="end" dy="0.35em" id="img-7b17f886-57">Y</text>
  </g>
</g>
<defs>
  <clipPath id="img-7b17f886-23">
  <path d="M14.54,5 L 156.81 5 156.81 83.76 14.54 83.76" />
</clipPath>
</defs>
</svg>
