<?xml version="1.0" encoding="UTF-8"?>
<svg xmlns="http://www.w3.org/2000/svg"
     xmlns:xlink="http://www.w3.org/1999/xlink"
     xmlns:gadfly="http://www.gadflyjl.org/ns"
     version="1.2"
     width="203.2mm" height="101.6mm" viewBox="0 0 203.2 101.6"
     stroke="none"
     fill="#000000"
     stroke-width="0.3"
     font-size="3.88"
>
<g class="plotroot xscalable yscalable" id="img-60525134-1">
  <g font-size="3.88" font-family="'PT Sans','Helvetica Neue','Helvetica',sans-serif" fill="#564A55" stroke="#000000" stroke-opacity="0.000" id="img-60525134-2">
    <text x="90.47" y="90.81" text-anchor="middle" dy="0.6em">Time</text>
  </g>
  <g class="guide xlabels" font-size="2.82" font-family="'PT Sans Caption','Helvetica Neue','Helvetica',sans-serif" fill="#6C606B" id="img-60525134-3">
    <text x="16.54" y="84.76" text-anchor="middle" dy="0.6em">0</text>
    <text x="90.47" y="84.76" text-anchor="middle" dy="0.6em">50</text>
    <text x="164.41" y="84.76" text-anchor="middle" dy="0.6em">100</text>
  </g>
  <g class="guide colorkey" id="img-60525134-4">
    <g fill="#4C404B" font-size="2.82" font-family="'PT Sans','Helvetica Neue','Helvetica',sans-serif" id="img-60525134-5">
      <text x="169.93" y="36.77" dy="0.35em">Observation 1</text>
      <text x="169.93" y="39.81" dy="0.35em">Observation 2</text>
      <text x="169.93" y="42.86" dy="0.35em">Observation 3</text>
      <text x="169.93" y="45.9" dy="0.35em">Observation 4</text>
      <text x="169.93" y="48.94" dy="0.35em">Observation 5</text>
      <text x="169.93" y="51.99" dy="0.35em">Observation 6</text>
      <text x="169.93" y="55.03" dy="0.35em">Observation 7</text>
    </g>
    <g stroke="#000000" stroke-opacity="0.000" id="img-60525134-6">
      <rect x="167.41" y="36.01" width="1.52" height="1.52" fill="#00FFFF"/>
      <rect x="167.41" y="39.05" width="1.52" height="1.52" fill="#000000"/>
      <rect x="167.41" y="42.1" width="1.52" height="1.52" fill="#FFA500"/>
      <rect x="167.41" y="45.14" width="1.52" height="1.52" fill="#800080"/>
      <rect x="167.41" y="48.18" width="1.52" height="1.52" fill="#FF00FF"/>
      <rect x="167.41" y="51.23" width="1.52" height="1.52" fill="#A52A2A"/>
      <rect x="167.41" y="54.27" width="1.52" height="1.52" fill="#808080"/>
    </g>
    <g fill="#362A35" font-size="3.88" font-family="'PT Sans','Helvetica Neue','Helvetica',sans-serif" stroke="#000000" stroke-opacity="0.000" id="img-60525134-7">
      <text x="167.41" y="33.12">Mixed observations</text>
    </g>
  </g>
<g clip-path="url(#img-60525134-8)">
  <g id="img-60525134-9">
    <g pointer-events="visible" opacity="1" fill="#000000" fill-opacity="0.000" stroke="#000000" stroke-opacity="0.000" class="guide background" id="img-60525134-10">
      <rect x="14.54" y="5" width="151.87" height="78.76"/>
    </g>
    <g class="guide ygridlines xfixed" stroke-dasharray="0.5,0.5" stroke-width="0.2" stroke="#D0D0E0" id="img-60525134-11">
      <path fill="none" d="M14.54,81.76 L 166.41 81.76"/>
      <path fill="none" d="M14.54,56.84 L 166.41 56.84"/>
      <path fill="none" d="M14.54,31.92 L 166.41 31.92"/>
      <path fill="none" d="M14.54,7 L 166.41 7"/>
    </g>
    <g class="guide xgridlines yfixed" stroke-dasharray="0.5,0.5" stroke-width="0.2" stroke="#D0D0E0" id="img-60525134-12">
      <path fill="none" d="M16.54,5 L 16.54 83.76"/>
      <path fill="none" d="M90.47,5 L 90.47 83.76"/>
      <path fill="none" d="M164.41,5 L 164.41 83.76"/>
    </g>
    <g class="plotpanel" id="img-60525134-13">
      <g stroke-width="0.71" fill="#000000" fill-opacity="0.000" class="geometry" stroke-dasharray="none" stroke="#808080" id="img-60525134-14">
        <path fill="none" d="M18.02,43.01 L 19.5 39.66 20.97 34.27 22.45 29.82 23.93 31.47 25.41 29.36 26.89 34.25 28.37 29.01 29.85 35.59 31.33 50.62 32.8 56.61 34.28 64.3 35.76 62.9 37.24 74.21 38.72 80.03 40.2 71.36 41.68 77.87 43.15 72.37 44.63 70.23 46.11 59.25 47.59 46.53 49.07 38.76 50.55 36.8 52.03 34.11 53.51 32.9 54.98 29.3 56.46 31.33 57.94 24.54 59.42 33.29 60.9 39.18 62.38 50.88 63.86 58.37 65.34 64.25 66.81 66.71 68.29 70.33 69.77 78.51 71.25 75.35 72.73 78.92 74.21 75.42 75.69 65.79 77.17 58.22 78.64 51.11 80.12 38.42 81.6 38.27 83.08 35.66 84.56 21 86.04 26.65 87.52 29.64 89 26.26 90.47 35.58 91.95 39.57 93.43 44.33 94.91 58.98 96.39 60.3 97.87 64.11 99.35 74.69 100.83 69.79 102.3 72.85 103.78 74.91 105.26 67 106.74 63.92 108.22 60.86 109.7 50.17 111.18 38 112.65 31.85 114.13 31.38 115.61 31.7 117.09 19.58 118.57 22.15 120.05 27.13 121.53 33.54 123.01 36.37 124.48 46.65 125.96 51.45 127.44 61.95 128.92 63.82 130.4 70.61 131.88 72.26 133.36 79.91 134.84 67.05 136.31 71.98 137.79 61.09 139.27 61.78 140.75 52.45 142.23 35.91 143.71 41.05 145.19 36.2 146.67 23.21 148.14 24.73 149.62 21.09 151.1 28.45 152.58 29.89 154.06 40.51 155.54 48.56 157.02 57.24 158.5 57.36 159.97 65.24 161.45 70.15 162.93 73.35 164.41 73.88"/>
      </g>
      <g stroke-width="0.71" fill="#000000" fill-opacity="0.000" class="geometry" stroke-dasharray="none" stroke="#A52A2A" id="img-60525134-15">
        <path fill="none" d="M18.02,52.7 L 19.5 56.05 20.97 53.44 22.45 50.1 23.93 55.85 25.41 50.73 26.89 56.38 28.37 38.89 29.85 42.78 31.33 62.14 32.8 62.95 34.28 67.69 35.76 55.71 37.24 71.46 38.72 79.15 40.2 61.1 41.68 76.75 43.15 71.47 44.63 75.49 46.11 63.68 47.59 49.31 49.07 44.79 50.55 50.85 52.03 53.5 53.51 56.49 54.98 51.54 56.46 54.53 57.94 36.65 59.42 46.99 60.9 49.38 62.38 62.04 63.86 65.84 65.34 67.02 66.81 62.88 68.29 63.41 69.77 75.98 71.25 69.14 72.73 79.1 74.21 77.98 75.69 67.15 77.17 62.22 78.64 59.1 80.12 44.7 81.6 54.3 83.08 56.98 84.56 32.9 86.04 46.28 87.52 51 89 39.76 90.47 51.09 91.95 49.59 93.43 48.31 94.91 66.44 96.39 58.55 97.87 57.24 99.35 71.83 100.83 58.42 102.3 64.23 103.78 71.33 105.26 61.54 106.74 63.94 108.22 68.11 109.7 57.85 111.18 44.45 112.65 41.95 114.13 48.8 115.61 54.49 117.09 32.16 118.57 35.84 120.05 41.16 121.53 46.53 123.01 42.62 124.48 52.32 125.96 50.76 127.44 61.31 128.92 56.22 130.4 63.38 131.88 63.24 133.36 78.42 134.84 55.87 136.31 71.93 137.79 58.82 139.27 70.55 140.75 63.03 142.23 40.85 143.71 60.84 145.19 58.79 146.67 37.72 148.14 42.45 149.62 33.55 151.1 43.45 152.58 38.73 154.06 50.32 155.54 55.51 157.02 61.74 158.5 51.59 159.97 58.62 161.45 62.18 162.93 65.34 164.41 66.46"/>
      </g>
      <g stroke-width="0.71" fill="#000000" fill-opacity="0.000" class="geometry" stroke-dasharray="none" stroke="#FF00FF" id="img-60525134-16">
        <path fill="none" d="M18.02,49.47 L 19.5 42.77 20.97 37.32 22.45 33.61 23.93 31.98 25.41 32.57 26.89 35.33 28.37 40.01 29.85 46.19 31.33 53.32 32.8 60.77 34.28 67.87 35.76 73.98 37.24 78.56 38.72 81.2 40.2 81.66 41.68 79.91 43.15 76.09 44.63 70.56 46.11 63.8 47.59 56.42 49.07 49.07 50.55 42.42 52.03 37.06 53.51 33.46 54.98 31.96 56.46 32.67 57.94 35.54 59.42 40.32 60.9 46.57 62.38 53.74 63.86 61.18 65.34 68.24 66.81 74.28 68.29 78.76 69.77 81.28 71.25 81.62 72.73 79.75 74.21 75.83 75.69 70.21 77.17 63.4 78.64 56 80.12 48.68 81.6 42.08 83.08 36.81 84.56 33.32 86.04 31.94 87.52 32.77 89 35.76 90.47 40.63 91.95 41.48 93.43 37.61 94.91 59.07 96.39 43.89 97.87 72.26 99.35 60.03 100.83 77.44 102.3 75.86 103.78 74.78 105.26 59.49 106.74 49.99 108.22 61.05 109.7 44.04 111.18 31.34 112.65 22.56 114.13 36.44 115.61 31.93 117.09 10.88 118.57 15.72 120.05 35.99 121.53 40.95 123.01 47.34 124.48 54.57 125.96 62 127.44 68.98 128.92 74.87 130.4 79.15 131.88 81.43 133.36 81.52 134.84 79.4 136.31 75.27 137.79 69.49 139.27 62.59 140.75 55.16 142.23 47.89 143.71 41.42 145.19 36.32 146.67 33.06 148.14 31.92 149.62 33.01 151.1 36.22 152.58 41.28 154.06 47.73 155.54 54.99 157.02 62.41 158.5 69.34 159.97 75.15 161.45 79.33 162.93 81.49 164.41 81.46"/>
      </g>
      <g stroke-width="0.71" fill="#000000" fill-opacity="0.000" class="geometry" stroke-dasharray="none" stroke="#800080" id="img-60525134-17">
        <path fill="none" d="M18.02,65.62 L 19.5 62.26 20.97 59.54 22.45 57.68 23.93 56.87 25.41 57.16 26.89 58.54 28.37 60.88 29.85 63.97 31.33 67.54 32.8 71.26 34.28 74.81 35.76 77.87 37.24 80.16 38.72 81.48 40.2 81.71 41.68 80.83 43.15 78.93 44.63 76.16 46.11 72.78 47.59 69.09 49.07 65.42 50.55 62.09 52.03 59.41 53.51 57.61 54.98 56.86 56.46 57.21 57.94 58.65 59.42 61.04 60.9 64.16 62.38 67.75 63.86 71.47 65.34 75 66.81 78.02 68.29 80.26 69.77 81.52 71.25 81.69 72.73 80.75 74.21 78.79 75.69 75.98 77.17 72.58 78.64 68.88 80.12 65.22 81.6 61.92 83.08 59.28 84.56 57.54 86.04 56.85 87.52 57.27 89 58.76 90.47 61.2 91.95 53.4 93.43 34.88 94.91 66.62 96.39 25.74 97.87 73.54 99.35 42.51 100.83 73.72 102.3 70.23 103.78 71.07 105.26 46.53 106.74 36.07 108.22 68.49 109.7 45.59 111.18 31.14 112.65 23.38 114.13 58.92 115.61 54.96 117.09 14.74 118.57 22.99 120.05 58.87 121.53 61.36 123.01 64.55 124.48 68.16 125.96 71.88 127.44 75.37 128.92 78.31 130.4 80.45 131.88 81.59 133.36 81.64 134.84 80.58 136.31 78.51 137.79 75.63 139.27 72.17 140.75 68.46 142.23 64.82 143.71 61.59 145.19 59.04 146.67 57.41 148.14 56.84 149.62 57.38 151.1 58.99 152.58 61.52 154.06 64.74 155.54 68.37 157.02 72.09 158.5 75.55 159.97 78.46 161.45 80.54 162.93 81.63 164.41 81.61"/>
      </g>
      <g stroke-width="0.71" fill="#000000" fill-opacity="0.000" class="geometry" stroke-dasharray="none" stroke="#FFA500" id="img-60525134-18">
        <path fill="none" d="M18.02,68.84 L 19.5 75.54 20.97 75.66 22.45 74.17 23.93 80.74 25.41 75.33 26.89 79.59 28.37 59.77 29.85 60.56 31.33 76.35 32.8 73.44 34.28 74.64 35.76 59.6 37.24 73.06 38.72 79.43 40.2 61.15 41.68 77.67 43.15 74.31 44.63 81.09 46.11 72.66 47.59 61.98 49.07 61.13 50.55 70.52 52.03 75.85 53.51 80.64 54.98 76.44 56.46 79.07 57.94 59.76 59.42 67.71 60.9 66.97 62.38 76.05 63.86 76.13 65.34 73.78 66.81 66.62 68.29 64.9 69.77 76.22 71.25 69.21 72.73 80.11 74.21 80.95 75.69 72.93 77.17 71.4 78.64 71.97 80.12 61.24 81.6 74.13 83.08 79.46 84.56 57.12 86.04 71.19 87.52 75.49 89 62.76 90.47 71.65 91.95 61.52 93.43 45.57 94.91 73.99 96.39 40.41 97.87 58.52 99.35 54.31 100.83 54.7 102.3 58.6 103.78 67.61 105.26 48.58 106.74 50.03 108.22 75.55 109.7 59.39 111.18 44.24 112.65 42.77 114.13 71.28 115.61 77.52 117.09 36.02 118.57 43.11 120.05 64.04 121.53 66.93 123.01 59.83 124.48 65.91 125.96 60.64 127.44 67.7 128.92 59.66 130.4 64.69 131.88 63.41 133.36 78.54 134.84 57.05 136.31 75.17 137.79 64.96 139.27 80.14 140.75 76.32 142.23 57.79 143.71 81.01 145.19 81.51 146.67 62.07 148.14 67.37 149.62 57.93 151.1 66.22 152.58 58.97 154.06 67.33 155.54 68.9 157.02 71.41 158.5 57.8 159.97 61.92 161.45 63.4 162.93 65.47 164.41 66.61"/>
      </g>
      <g stroke-width="0.71" fill="#000000" fill-opacity="0.000" class="geometry" stroke-dasharray="none" stroke="#000000" id="img-60525134-19">
        <path fill="none" d="M18.02,68.84 L 19.5 75.54 20.97 75.66 22.45 74.17 23.93 80.74 25.41 75.33 26.89 79.59 28.37 59.77 29.85 60.56 31.33 76.35 32.8 73.44 34.28 74.64 35.76 59.6 37.24 73.06 38.72 79.43 40.2 61.15 41.68 77.67 43.15 74.31 44.63 81.09 46.11 72.66 47.59 61.98 49.07 61.13 50.55 70.52 52.03 75.85 53.51 80.64 54.98 76.44 56.46 79.07 57.94 59.76 59.42 67.71 60.9 66.97 62.38 76.05 63.86 76.13 65.34 73.78 66.81 66.62 68.29 64.9 69.77 76.22 71.25 69.21 72.73 80.11 74.21 80.95 75.69 72.93 77.17 71.4 78.64 71.97 80.12 61.24 81.6 74.13 83.08 79.46 84.56 57.12 86.04 71.19 87.52 75.49 89 62.76 90.47 71.65 91.95 61.52 93.43 45.57 94.91 73.99 96.39 40.41 97.87 58.52 99.35 54.31 100.83 54.7 102.3 58.6 103.78 67.61 105.26 48.58 106.74 50.03 108.22 75.55 109.7 59.39 111.18 44.24 112.65 42.77 114.13 71.28 115.61 77.52 117.09 36.02 118.57 43.11 120.05 64.04 121.53 66.93 123.01 59.83 124.48 65.91 125.96 60.64 127.44 67.7 128.92 59.66 130.4 64.69 131.88 63.41 133.36 78.54 134.84 57.05 136.31 75.17 137.79 64.96 139.27 80.14 140.75 76.32 142.23 57.79 143.71 81.01 145.19 81.51 146.67 62.07 148.14 67.37 149.62 57.93 151.1 66.22 152.58 58.97 154.06 67.33 155.54 68.9 157.02 71.41 158.5 57.8 159.97 61.92 161.45 63.4 162.93 65.47 164.41 66.61"/>
      </g>
      <g stroke-width="0.71" fill="#000000" fill-opacity="0.000" class="geometry" stroke-dasharray="none" stroke="#00FFFF" id="img-60525134-20">
        <path fill="none" d="M18.02,59.16 L 19.5 59.15 20.97 56.49 22.45 53.89 23.93 56.36 25.41 53.95 26.89 57.46 28.37 49.89 29.85 53.37 31.33 64.84 32.8 67.11 34.28 71.25 35.76 66.79 37.24 75.81 38.72 80.31 40.2 71.41 41.68 78.79 43.15 75.2 44.63 75.83 46.11 68.23 47.59 59.2 49.07 55.1 50.55 56.47 52.03 56.46 53.51 57.05 54.98 54.2 56.46 55.87 57.94 47.65 59.42 54.01 60.9 56.77 62.38 64.89 63.86 68.66 65.34 71.01 66.81 70.45 68.29 71.83 69.77 78.75 71.25 75.42 72.73 79.93 74.21 78.39 75.69 71.57 77.17 67.4 78.64 63.99 80.12 54.96 81.6 58.11 83.08 58.13 84.56 45.22 86.04 51.56 87.52 54.13 89 49.26 90.47 56.14 91.95 51.5 93.43 41.59 94.91 66.53 96.39 42.15 97.87 65.39 99.35 57.17 100.83 66.07 102.3 67.23 103.78 71.2 105.26 54.04 106.74 50.01 108.22 68.3 109.7 51.72 111.18 37.79 112.65 32.67 114.13 53.86 115.61 54.72 117.09 23.45 118.57 29.42 120.05 50.02 121.53 53.94 123.01 53.58 124.48 60.24 125.96 61.32 127.44 68.34 128.92 67.27 130.4 71.92 131.88 72.42 133.36 80.03 134.84 68.22 136.31 75.22 137.79 67.22 139.27 71.36 140.75 65.74 142.23 52.84 143.71 61.22 145.19 58.91 146.67 47.56 148.14 49.65 149.62 45.47 151.1 51.22 152.58 50.13 154.06 57.53 155.54 61.94 157.02 66.91 158.5 63.57 159.97 68.54 161.45 71.36 162.93 73.48 164.41 74.03"/>
      </g>
    </g>
  </g>
</g>
  <g class="guide ylabels" font-size="2.82" font-family="'PT Sans Caption','Helvetica Neue','Helvetica',sans-serif" fill="#6C606B" id="img-60525134-21">
    <text x="13.54" y="81.76" text-anchor="end" dy="0.35em">0</text>
    <text x="13.54" y="56.84" text-anchor="end" dy="0.35em">1</text>
    <text x="13.54" y="31.92" text-anchor="end" dy="0.35em">2</text>
    <text x="13.54" y="7" text-anchor="end" dy="0.35em">3</text>
  </g>
  <g font-size="3.88" font-family="'PT Sans','Helvetica Neue','Helvetica',sans-serif" fill="#564A55" stroke="#000000" stroke-opacity="0.000" id="img-60525134-22">
    <text x="9.11" y="44.38" text-anchor="end" dy="0.35em">Y</text>
  </g>
</g>
<defs>
  <clipPath id="img-60525134-8">
  <path d="M14.54,5 L 166.41 5 166.41 83.76 14.54 83.76" />
</clipPath>
</defs>
</svg>
