<?xml version="1.0" encoding="UTF-8"?>
<svg xmlns="http://www.w3.org/2000/svg"
     xmlns:xlink="http://www.w3.org/1999/xlink"
     xmlns:gadfly="http://www.gadflyjl.org/ns"
     version="1.2"
     width="203.2mm" height="101.6mm" viewBox="0 0 203.2 101.6"
     stroke="none"
     fill="#000000"
     stroke-width="0.3"
     font-size="3.88"
>
<g class="plotroot xscalable yscalable" id="img-18da4b42-1">
  <g font-size="3.88" font-family="'PT Sans','Helvetica Neue','Helvetica',sans-serif" fill="#564A55" stroke="#000000" stroke-opacity="0.000" id="img-18da4b42-2">
    <text x="94.77" y="90.81" text-anchor="middle" dy="0.6em">Time</text>
  </g>
  <g class="guide xlabels" font-size="2.82" font-family="'PT Sans Caption','Helvetica Neue','Helvetica',sans-serif" fill="#6C606B" id="img-18da4b42-3">
    <text x="18.89" y="84.76" text-anchor="middle" dy="0.6em">0</text>
    <text x="94.77" y="84.76" text-anchor="middle" dy="0.6em">50</text>
    <text x="170.66" y="84.76" text-anchor="middle" dy="0.6em">100</text>
  </g>
  <g class="guide colorkey" id="img-18da4b42-4">
    <g fill="#4C404B" font-size="2.82" font-family="'PT Sans','Helvetica Neue','Helvetica',sans-serif" id="img-18da4b42-5">
      <text x="176.47" y="42.57" dy="0.35em" id="img-18da4b42-6" class="color_Signal_1">Signal 1</text>
      <text x="176.47" y="46.18" dy="0.35em" id="img-18da4b42-7" class="color_Signal_2">Signal 2</text>
      <text x="176.47" y="49.79" dy="0.35em" id="img-18da4b42-8" class="color_Signal_3">Signal 3</text>
    </g>
    <g stroke="#000000" stroke-opacity="0.000" id="img-18da4b42-9">
      <rect x="173.66" y="41.67" width="1.8" height="1.8" id="img-18da4b42-10" fill="#00BFFF" class="color_Signal_1"/>
      <rect x="173.66" y="45.28" width="1.8" height="1.8" id="img-18da4b42-11" fill="#D4CA3A" class="color_Signal_2"/>
      <rect x="173.66" y="48.89" width="1.8" height="1.8" id="img-18da4b42-12" fill="#FF6DAE" class="color_Signal_3"/>
    </g>
    <g fill="#362A35" font-size="3.88" font-family="'PT Sans','Helvetica Neue','Helvetica',sans-serif" stroke="#000000" stroke-opacity="0.000" id="img-18da4b42-13">
      <text x="173.66" y="38.76" id="img-18da4b42-14">Original signals</text>
    </g>
  </g>
<g clip-path="url(#img-18da4b42-15)">
  <g id="img-18da4b42-16">
    <g pointer-events="visible" opacity="1" fill="#000000" fill-opacity="0.000" stroke="#000000" stroke-opacity="0.000" class="guide background" id="img-18da4b42-17">
      <rect x="16.89" y="5" width="155.78" height="78.76" id="img-18da4b42-18"/>
    </g>
    <g class="guide ygridlines xfixed" stroke-dasharray="0.5,0.5" stroke-width="0.2" stroke="#D0D0E0" id="img-18da4b42-19">
      <path fill="none" d="M16.89,81.76 L 172.66 81.76" id="img-18da4b42-20"/>
      <path fill="none" d="M16.89,44.38 L 172.66 44.38" id="img-18da4b42-21"/>
      <path fill="none" d="M16.89,7 L 172.66 7" id="img-18da4b42-22"/>
    </g>
    <g class="guide xgridlines yfixed" stroke-dasharray="0.5,0.5" stroke-width="0.2" stroke="#D0D0E0" id="img-18da4b42-23">
      <path fill="none" d="M18.89,5 L 18.89 83.76" id="img-18da4b42-24"/>
      <path fill="none" d="M94.77,5 L 94.77 83.76" id="img-18da4b42-25"/>
      <path fill="none" d="M170.66,5 L 170.66 83.76" id="img-18da4b42-26"/>
    </g>
    <g class="plotpanel" id="img-18da4b42-27">
      <g stroke-width="0.71" fill="#000000" fill-opacity="0.000" class="geometry color_Signal_3" stroke-dasharray="none" stroke="#FF6DAE" id="img-18da4b42-28">
        <path fill="none" d="M20.4,81.76 L 21.92 81.76 23.44 81.76 24.96 81.76 26.47 81.76 27.99 81.76 29.51 81.76 31.03 81.76 32.55 81.76 34.06 81.76 35.58 81.76 37.1 81.76 38.62 81.76 40.13 81.76 41.65 81.76 43.17 81.76 44.69 81.76 46.21 81.76 47.72 81.76 49.24 81.76 50.76 81.76 52.28 81.76 53.79 81.76 55.31 81.76 56.83 81.76 58.35 81.76 59.87 81.76 61.38 81.76 62.9 81.76 64.42 81.76 65.94 81.76 67.45 81.76 68.97 81.76 70.49 81.76 72.01 81.76 73.53 81.76 75.04 81.76 76.56 81.76 78.08 81.76 79.6 81.76 81.11 81.76 82.63 81.76 84.15 81.76 85.67 81.76 87.19 81.76 88.7 81.76 90.22 81.76 91.74 81.76 93.26 81.76 94.77 81.76 96.29 65.33 97.81 32.14 99.33 74.18 100.85 7.6 102.36 74.82 103.88 24.99 105.4 70 106.92 64.61 108.43 67.36 109.95 33.57 111.47 22.16 112.99 75.93 114.5 47.13 116.02 30.93 117.54 24.2 119.06 81.4 120.58 77.98 122.09 18.61 123.61 30.27 125.13 81.76 126.65 81.76 128.16 81.76 129.68 81.76 131.2 81.76 132.72 81.76 134.24 81.76 135.75 81.76 137.27 81.76 138.79 81.76 140.31 81.76 141.82 81.76 143.34 81.76 144.86 81.76 146.38 81.76 147.9 81.76 149.41 81.76 150.93 81.76 152.45 81.76 153.97 81.76 155.48 81.76 157 81.76 158.52 81.76 160.04 81.76 161.56 81.76 163.07 81.76 164.59 81.76 166.11 81.76 167.63 81.76 169.14 81.76 170.66 81.76" id="img-18da4b42-29"/>
      </g>
      <g stroke-width="0.71" fill="#000000" fill-opacity="0.000" class="geometry color_Signal_2" stroke-dasharray="none" stroke="#D4CA3A" id="img-18da4b42-30">
        <path fill="none" d="M20.4,62.38 L 21.92 72.43 23.44 72.61 24.96 70.37 26.47 80.23 27.99 72.11 29.51 78.51 31.03 48.78 32.55 49.96 34.06 73.65 35.58 69.29 37.1 71.07 38.62 48.52 40.13 68.71 41.65 78.27 43.17 50.85 44.69 75.63 46.21 70.58 47.72 80.76 49.24 68.11 50.76 52.09 52.28 50.82 53.79 64.89 55.31 72.9 56.83 80.08 58.35 73.79 59.87 77.73 61.38 48.76 62.9 60.69 64.42 59.58 65.94 73.2 67.45 73.31 68.97 69.79 70.49 59.05 72.01 56.48 73.53 73.45 75.04 62.94 76.56 79.28 78.08 80.54 79.6 68.51 81.11 66.22 82.63 67.08 84.15 50.98 85.67 70.32 87.19 78.3 88.7 44.79 90.22 65.91 91.74 72.36 93.26 53.26 94.77 66.6 96.29 59.61 97.81 52.29 99.33 73.9 100.85 56.81 102.36 50.37 103.88 68.97 105.4 47.04 106.92 55.6 108.43 67.74 109.95 56.09 111.47 63.97 112.99 75.36 114.5 65.52 116.02 50.9 117.54 52.06 119.06 66.22 120.58 77.29 122.09 44.73 123.61 49.54 125.13 55.19 126.65 59.52 128.16 48.86 129.68 57.99 131.2 50.08 132.72 60.67 134.24 48.62 135.75 56.15 137.27 54.23 138.79 76.93 140.31 44.69 141.82 71.88 143.34 56.55 144.86 79.33 146.38 73.61 147.9 45.8 149.41 80.64 150.93 81.38 152.45 52.22 153.97 60.18 155.48 46.01 157 58.45 158.52 47.58 160.04 60.12 161.56 62.47 163.07 66.23 164.59 45.82 166.11 52 167.63 54.22 169.14 57.33 170.66 59.03" id="img-18da4b42-31"/>
      </g>
      <g stroke-width="0.71" fill="#000000" fill-opacity="0.000" class="geometry color_Signal_1" stroke-dasharray="none" stroke="#00BFFF" id="img-18da4b42-32">
        <path fill="none" d="M20.4,33.33 L 21.92 23.27 23.44 15.1 24.96 9.54 26.47 7.09 27.99 7.98 29.51 12.11 31.03 19.13 32.55 28.4 34.06 39.1 35.58 50.27 37.1 60.92 38.62 70.09 40.13 76.96 41.65 80.92 43.17 81.61 44.69 78.98 46.21 73.26 47.72 64.96 49.24 54.82 50.76 43.75 52.28 32.73 53.79 22.76 55.31 14.71 56.83 9.32 58.35 7.05 59.87 8.13 61.38 12.43 62.9 19.6 64.42 28.97 65.94 39.73 67.45 50.89 68.97 61.48 70.49 70.54 72.01 77.26 73.53 81.04 75.04 81.55 76.56 78.74 78.08 72.86 79.6 64.43 81.11 54.22 82.63 43.12 84.15 32.14 85.67 22.25 87.19 14.33 88.7 9.1 90.22 7.03 91.74 8.28 93.26 12.77 94.77 20.07 96.29 29.55 97.81 40.35 99.33 51.51 100.85 62.04 102.36 70.98 103.88 77.55 105.4 81.16 106.92 81.48 108.43 78.49 109.95 72.45 111.47 63.9 112.99 53.61 114.5 42.49 116.02 31.55 117.54 21.74 119.06 13.96 120.58 8.9 122.09 7.01 123.61 8.45 125.13 13.11 126.65 20.55 128.16 30.13 129.68 40.98 131.2 52.13 132.72 62.59 134.24 71.42 135.75 77.84 137.27 81.27 138.79 81.4 140.31 78.23 141.82 72.03 143.34 63.36 144.86 53 146.38 41.87 147.9 30.96 149.41 21.25 150.93 13.6 152.45 8.71 153.97 7 155.48 8.63 157 13.45 158.52 21.04 160.04 30.71 161.56 41.6 163.07 52.74 164.59 63.13 166.11 71.85 167.63 78.11 169.14 81.36 170.66 81.31" id="img-18da4b42-33"/>
      </g>
    </g>
  </g>
</g>
  <g class="guide ylabels" font-size="2.82" font-family="'PT Sans Caption','Helvetica Neue','Helvetica',sans-serif" fill="#6C606B" id="img-18da4b42-34">
    <text x="15.89" y="81.76" text-anchor="end" dy="0.35em" id="img-18da4b42-35">0.0</text>
    <text x="15.89" y="44.38" text-anchor="end" dy="0.35em" id="img-18da4b42-36">0.5</text>
    <text x="15.89" y="7" text-anchor="end" dy="0.35em" id="img-18da4b42-37">1.0</text>
  </g>
  <g font-size="3.88" font-family="'PT Sans','Helvetica Neue','Helvetica',sans-serif" fill="#564A55" stroke="#000000" stroke-opacity="0.000" id="img-18da4b42-38">
    <text x="9.11" y="44.38" text-anchor="end" dy="0.35em" id="img-18da4b42-39">Y</text>
  </g>
</g>
<defs>
  <clipPath id="img-18da4b42-15">
  <path d="M16.89,5 L 172.66 5 172.66 83.76 16.89 83.76" />
</clipPath>
</defs>
</svg>
