<?xml version="1.0" encoding="UTF-8"?>
<svg xmlns="http://www.w3.org/2000/svg"
     xmlns:xlink="http://www.w3.org/1999/xlink"
     xmlns:gadfly="http://www.gadflyjl.org/ns"
     version="1.2"
     width="152.4mm" height="101.6mm" viewBox="0 0 152.4 101.6"
     stroke="none"
     fill="#000000"
     stroke-width="0.3"
     font-size="3.88"
>
<g class="plotroot xscalable yscalable" id="img-d69ff317-1">
  <g font-size="3.88" font-family="'PT Sans','Helvetica Neue','Helvetica',sans-serif" fill="#564A55" stroke="#000000" stroke-opacity="0.000" id="img-d69ff317-2">
    <text x="68.64" y="90.81" text-anchor="middle" dy="0.6em">Time</text>
  </g>
  <g class="guide xlabels" font-size="2.82" font-family="'PT Sans Caption','Helvetica Neue','Helvetica',sans-serif" fill="#6C606B" id="img-d69ff317-3">
    <text x="18.89" y="84.76" text-anchor="middle" dy="0.6em">0</text>
    <text x="68.64" y="84.76" text-anchor="middle" dy="0.6em">50</text>
    <text x="118.39" y="84.76" text-anchor="middle" dy="0.6em">100</text>
  </g>
  <g class="guide colorkey" id="img-d69ff317-4">
    <g fill="#4C404B" font-size="2.82" font-family="'PT Sans','Helvetica Neue','Helvetica',sans-serif" id="img-d69ff317-5">
      <text x="124.2" y="42.57" dy="0.35em" id="img-d69ff317-6" class="color_Signal_1">Signal 1</text>
      <text x="124.2" y="46.18" dy="0.35em" id="img-d69ff317-7" class="color_Signal_2">Signal 2</text>
      <text x="124.2" y="49.79" dy="0.35em" id="img-d69ff317-8" class="color_Signal_3">Signal 3</text>
    </g>
    <g stroke="#000000" stroke-opacity="0.000" id="img-d69ff317-9">
      <rect x="121.39" y="41.67" width="1.8" height="1.8" id="img-d69ff317-10" fill="#00BFFF" class="color_Signal_1"/>
      <rect x="121.39" y="45.28" width="1.8" height="1.8" id="img-d69ff317-11" fill="#D4CA3A" class="color_Signal_2"/>
      <rect x="121.39" y="48.89" width="1.8" height="1.8" id="img-d69ff317-12" fill="#FF6DAE" class="color_Signal_3"/>
    </g>
    <g fill="#362A35" font-size="3.88" font-family="'PT Sans','Helvetica Neue','Helvetica',sans-serif" stroke="#000000" stroke-opacity="0.000" id="img-d69ff317-13">
      <text x="121.39" y="38.75" id="img-d69ff317-14">Unmixed signals</text>
    </g>
  </g>
<g clip-path="url(#img-d69ff317-15)">
  <g id="img-d69ff317-16">
    <g pointer-events="visible" opacity="1" fill="#000000" fill-opacity="0.000" stroke="#000000" stroke-opacity="0.000" class="guide background" id="img-d69ff317-17">
      <rect x="16.89" y="5" width="103.51" height="78.76" id="img-d69ff317-18"/>
    </g>
    <g class="guide ygridlines xfixed" stroke-dasharray="0.5,0.5" stroke-width="0.2" stroke="#D0D0E0" id="img-d69ff317-19">
      <path fill="none" d="M16.89,81.76 L 120.39 81.76" id="img-d69ff317-20"/>
      <path fill="none" d="M16.89,44.38 L 120.39 44.38" id="img-d69ff317-21"/>
      <path fill="none" d="M16.89,7 L 120.39 7" id="img-d69ff317-22"/>
    </g>
    <g class="guide xgridlines yfixed" stroke-dasharray="0.5,0.5" stroke-width="0.2" stroke="#D0D0E0" id="img-d69ff317-23">
      <path fill="none" d="M18.89,5 L 18.89 83.76" id="img-d69ff317-24"/>
      <path fill="none" d="M68.64,5 L 68.64 83.76" id="img-d69ff317-25"/>
      <path fill="none" d="M118.39,5 L 118.39 83.76" id="img-d69ff317-26"/>
    </g>
    <g class="plotpanel" id="img-d69ff317-27">
      <g stroke-width="0.71" fill="#000000" fill-opacity="0.000" class="geometry color_Signal_3" stroke-dasharray="none" stroke="#FF6DAE" id="img-d69ff317-28">
        <path fill="none" d="M19.88,81.23 L 20.88 81.15 21.87 81.07 22.87 81.01 23.86 81 24.86 81 25.85 81.05 26.85 81.06 27.84 81.16 28.84 81.31 29.83 81.42 30.83 81.53 31.82 81.57 32.82 81.68 33.81 81.74 34.81 81.69 35.8 81.72 36.8 81.65 37.79 81.59 38.79 81.46 39.78 81.32 40.78 81.2 41.77 81.13 42.77 81.07 43.76 81.03 44.76 80.99 45.75 81.01 46.75 81 47.74 81.09 48.74 81.18 49.73 81.32 50.73 81.43 51.72 81.53 52.72 81.6 53.71 81.66 54.71 81.73 55.7 81.72 56.7 81.72 57.69 81.67 58.69 81.56 59.68 81.45 60.68 81.34 61.67 81.2 62.67 81.14 63.66 81.07 64.66 80.95 65.65 80.97 66.65 81 67.64 81.01 68.64 81.11 69.63 64.93 70.63 32.16 71.62 73.94 72.62 8.1 73.61 74.72 74.61 25.49 75.6 70.04 76.6 64.73 77.59 67.44 78.59 33.91 79.58 22.55 80.58 75.69 81.57 47.05 82.57 30.88 83.56 24.12 84.56 80.7 85.55 77.28 86.55 18.42 87.55 29.98 88.54 81.01 89.54 81.1 90.53 81.17 91.53 81.3 92.52 81.4 93.52 81.52 94.51 81.59 95.51 81.67 96.5 81.7 97.5 81.74 98.49 81.65 99.49 81.64 100.48 81.52 101.48 81.46 102.47 81.34 103.47 81.18 104.46 81.15 105.46 81.07 106.45 80.96 107.45 80.96 108.44 80.95 109.44 81.02 110.43 81.08 111.43 81.2 112.42 81.32 113.42 81.43 114.41 81.5 115.41 81.6 116.4 81.67 117.4 81.7 118.39 81.71" id="img-d69ff317-29"/>
      </g>
      <g stroke-width="0.71" fill="#000000" fill-opacity="0.000" class="geometry color_Signal_2" stroke-dasharray="none" stroke="#D4CA3A" id="img-d69ff317-30">
        <path fill="none" d="M19.88,46.76 L 20.88 39.45 21.87 33.53 22.87 29.51 23.86 27.71 24.86 28.37 25.85 31.35 26.85 36.52 27.84 43.23 28.84 50.9 29.83 59 30.83 66.7 31.82 73.41 32.82 78.32 33.81 81.16 34.81 81.75 35.8 79.77 36.8 75.64 37.79 69.6 38.79 62.3 39.78 54.33 40.78 46.36 41.77 39.1 42.77 33.25 43.76 29.32 44.76 27.7 45.75 28.46 46.75 31.67 47.74 36.82 48.74 43.61 49.73 51.36 50.73 59.44 51.72 67.12 52.72 73.71 53.71 78.58 54.71 81.27 55.7 81.67 56.7 79.58 57.69 75.32 58.69 69.26 59.68 61.87 60.68 53.83 61.67 45.93 62.67 38.71 63.66 32.96 64.66 29.28 65.65 27.7 66.65 28.6 67.64 31.9 68.64 37.15 69.63 44.02 70.63 51.84 71.62 59.88 72.62 67.51 73.61 74.05 74.61 78.72 75.6 81.43 76.6 81.63 77.59 79.43 78.59 75.07 79.58 68.85 80.58 61.4 81.57 53.36 82.57 45.47 83.56 38.37 84.56 32.73 85.55 29.02 86.55 27.72 87.55 28.76 88.54 32.14 89.54 37.52 90.53 44.48 91.53 52.31 92.52 60.41 93.52 67.95 94.51 74.38 95.51 79 96.5 81.49 97.5 81.51 98.49 79.32 99.49 74.75 100.48 68.52 101.48 60.95 102.47 52.9 103.47 45.09 104.46 37.95 105.46 32.42 106.45 28.97 107.45 27.7 108.44 28.93 109.44 32.38 110.43 37.91 111.43 44.87 112.42 52.75 113.42 60.8 114.41 68.39 115.41 74.68 116.4 79.21 117.4 81.55 118.39 81.5" id="img-d69ff317-31"/>
      </g>
      <g stroke-width="0.71" fill="#000000" fill-opacity="0.000" class="geometry color_Signal_1" stroke-dasharray="none" stroke="#00BFFF" id="img-d69ff317-32">
        <path fill="none" d="M19.88,51.86 L 20.88 67.67 21.87 68.01 22.87 64.56 23.86 80.01 24.86 67.3 25.85 77.27 26.85 30.7 27.84 32.48 28.84 69.44 29.83 62.52 30.83 65.23 31.82 29.87 32.82 61.4 33.81 76.31 34.81 33.42 35.8 72.2 36.8 64.35 37.79 80.34 38.79 60.64 39.78 35.68 40.78 33.78 41.77 55.88 42.77 68.47 43.76 79.75 44.76 69.92 45.75 76.09 46.75 30.74 47.74 49.33 48.74 47.52 49.73 68.72 50.73 68.81 51.72 63.22 52.72 46.33 53.71 42.26 54.71 68.77 55.7 52.33 56.7 77.91 57.69 79.93 58.69 61.18 59.68 57.69 60.68 59.13 61.67 34.03 62.67 64.38 63.66 76.93 64.66 24.56 65.65 57.6 66.65 67.68 67.64 37.77 68.64 58.57 69.63 48.02 70.63 37.38 71.62 69.93 72.62 44.94 73.61 32.95 74.61 63.35 75.6 27.79 76.6 41.32 77.59 60.26 78.59 43.01 79.58 55.72 80.58 72.14 81.57 57.65 82.57 35.32 83.56 37.39 84.56 58.03 85.55 75.48 86.55 26.21 87.55 33.4 88.54 40.78 89.54 47.5 90.53 30.75 91.53 44.93 92.52 32.47 93.52 48.93 94.51 30.01 95.51 41.74 96.5 38.71 97.5 74.2 98.49 23.81 99.49 66.39 100.48 42.49 101.48 78.2 102.47 69.35 103.47 25.95 104.46 80.53 105.46 81.75 106.45 36.18 107.45 48.64 108.44 26.47 109.44 45.87 110.43 28.81 111.43 48.34 112.42 51.93 113.42 57.72 114.41 25.7 115.41 35.3 116.4 38.71 117.4 43.56 118.39 46.22" id="img-d69ff317-33"/>
      </g>
    </g>
  </g>
</g>
  <g class="guide ylabels" font-size="2.82" font-family="'PT Sans Caption','Helvetica Neue','Helvetica',sans-serif" fill="#6C606B" id="img-d69ff317-34">
    <text x="15.89" y="81.76" text-anchor="end" dy="0.35em" id="img-d69ff317-35">0.0</text>
    <text x="15.89" y="44.38" text-anchor="end" dy="0.35em" id="img-d69ff317-36">0.5</text>
    <text x="15.89" y="7" text-anchor="end" dy="0.35em" id="img-d69ff317-37">1.0</text>
  </g>
  <g font-size="3.88" font-family="'PT Sans','Helvetica Neue','Helvetica',sans-serif" fill="#564A55" stroke="#000000" stroke-opacity="0.000" id="img-d69ff317-38">
    <text x="9.11" y="44.38" text-anchor="end" dy="0.35em" id="img-d69ff317-39">Y</text>
  </g>
</g>
<defs>
  <clipPath id="img-d69ff317-15">
  <path d="M16.89,5 L 120.39 5 120.39 83.76 16.89 83.76" />
</clipPath>
</defs>
</svg>
