<?xml version="1.0" encoding="UTF-8"?>
<svg xmlns="http://www.w3.org/2000/svg"
     xmlns:xlink="http://www.w3.org/1999/xlink"
     xmlns:gadfly="http://www.gadflyjl.org/ns"
     version="1.2"
     width="152.4mm" height="101.6mm" viewBox="0 0 152.4 101.6"
     stroke="none"
     fill="#000000"
     stroke-width="0.3"
     font-size="3.88"
>
<g class="plotroot xscalable yscalable" id="img-18da4b42-1">
  <g font-size="3.88" font-family="'PT Sans','Helvetica Neue','Helvetica',sans-serif" fill="#564A55" stroke="#000000" stroke-opacity="0.000" id="img-18da4b42-2">
    <text x="69.34" y="89.99" text-anchor="middle" dy="0.6em">X</text>
  </g>
  <g class="guide xlabels" font-size="2.82" font-family="'PT Sans Caption','Helvetica Neue','Helvetica',sans-serif" fill="#6C606B" id="img-18da4b42-3">
    <text x="19.18" y="83.32" text-anchor="middle" dy="0.6em">0</text>
    <text x="69.34" y="83.32" text-anchor="middle" dy="0.6em">50</text>
    <text x="119.49" y="83.32" text-anchor="middle" dy="0.6em">100</text>
  </g>
  <g class="guide colorkey" id="img-18da4b42-4">
    <g fill="#4C404B" font-size="2.82" font-family="'PT Sans','Helvetica Neue','Helvetica',sans-serif" id="img-18da4b42-5">
      <text x="125.31" y="41.84" dy="0.35em" id="img-18da4b42-6" class="color_Signal_1">Signal 1</text>
      <text x="125.31" y="45.47" dy="0.35em" id="img-18da4b42-7" class="color_Signal_2">Signal 2</text>
      <text x="125.31" y="49.1" dy="0.35em" id="img-18da4b42-8" class="color_Signal_3">Signal 3</text>
    </g>
    <g stroke="#000000" stroke-opacity="0.000" id="img-18da4b42-9">
      <rect x="122.49" y="40.94" width="1.81" height="1.81" id="img-18da4b42-10" class="color_Signal_1" fill="#00BFFF"/>
      <rect x="122.49" y="44.56" width="1.81" height="1.81" id="img-18da4b42-11" class="color_Signal_2" fill="#D4CA3A"/>
      <rect x="122.49" y="48.19" width="1.81" height="1.81" id="img-18da4b42-12" class="color_Signal_3" fill="#FF6DAE"/>
    </g>
    <g fill="#362A35" font-size="3.88" font-family="'PT Sans','Helvetica Neue','Helvetica',sans-serif" stroke="#000000" stroke-opacity="0.000" id="img-18da4b42-13">
      <text x="122.49" y="38.02" id="img-18da4b42-14">Original signals</text>
    </g>
  </g>
<g clip-path="url(#img-18da4b42-15)">
  <g id="img-18da4b42-16">
    <g pointer-events="visible" opacity="1" fill="#000000" fill-opacity="0.000" stroke="#000000" stroke-opacity="0.000" class="guide background" id="img-18da4b42-17">
      <rect x="17.18" y="5" width="104.31" height="77.32" id="img-18da4b42-18"/>
    </g>
    <g class="guide ygridlines xfixed" stroke-dasharray="0.5,0.5" stroke-width="0.2" stroke="#D0D0E0" id="img-18da4b42-19">
      <path fill="none" d="M17.18,80.31 L 121.49 80.31" id="img-18da4b42-20"/>
      <path fill="none" d="M17.18,43.66 L 121.49 43.66" id="img-18da4b42-21"/>
      <path fill="none" d="M17.18,7 L 121.49 7" id="img-18da4b42-22"/>
    </g>
    <g class="guide xgridlines yfixed" stroke-dasharray="0.5,0.5" stroke-width="0.2" stroke="#D0D0E0" id="img-18da4b42-23">
      <path fill="none" d="M19.18,5 L 19.18 82.32" id="img-18da4b42-24"/>
      <path fill="none" d="M69.34,5 L 69.34 82.32" id="img-18da4b42-25"/>
      <path fill="none" d="M119.49,5 L 119.49 82.32" id="img-18da4b42-26"/>
    </g>
    <g class="plotpanel" id="img-18da4b42-27">
      <g stroke-width="0.3" fill="#000000" fill-opacity="0.000" class="geometry color_Signal_3" stroke-dasharray="none" stroke="#FF6DAE" id="img-18da4b42-28">
        <path fill="none" d="M20.19,80.31 L 21.19 80.31 22.19 80.31 23.2 80.31 24.2 80.31 25.2 80.31 26.21 80.31 27.21 80.31 28.21 80.31 29.21 80.31 30.22 80.31 31.22 80.31 32.22 80.31 33.23 80.31 34.23 80.31 35.23 80.31 36.24 80.31 37.24 80.31 38.24 80.31 39.25 80.31 40.25 80.31 41.25 80.31 42.26 80.31 43.26 80.31 44.26 80.31 45.26 80.31 46.27 80.31 47.27 80.31 48.27 80.31 49.28 80.31 50.28 80.31 51.28 80.31 52.29 80.31 53.29 80.31 54.29 80.31 55.3 80.31 56.3 80.31 57.3 80.31 58.3 80.31 59.31 80.31 60.31 80.31 61.31 80.31 62.32 80.31 63.32 80.31 64.32 80.31 65.33 80.31 66.33 80.31 67.33 80.31 68.34 80.31 69.34 80.31 70.34 64.2 71.35 31.65 72.35 72.88 73.35 7.59 74.35 73.51 75.36 24.64 76.36 68.78 77.36 63.5 78.37 66.19 79.37 33.05 80.37 21.87 81.38 74.6 82.38 46.36 83.38 30.47 84.39 23.87 85.39 79.97 86.39 76.61 87.4 18.39 88.4 29.82 89.4 80.31 90.4 80.31 91.41 80.31 92.41 80.31 93.41 80.31 94.42 80.31 95.42 80.31 96.42 80.31 97.43 80.31 98.43 80.31 99.43 80.31 100.44 80.31 101.44 80.31 102.44 80.31 103.45 80.31 104.45 80.31 105.45 80.31 106.45 80.31 107.46 80.31 108.46 80.31 109.46 80.31 110.47 80.31 111.47 80.31 112.47 80.31 113.48 80.31 114.48 80.31 115.48 80.31 116.49 80.31 117.49 80.31 118.49 80.31 119.49 80.31" id="img-18da4b42-29"/>
      </g>
      <g stroke-width="0.3" fill="#000000" fill-opacity="0.000" class="geometry color_Signal_2" stroke-dasharray="none" stroke="#D4CA3A" id="img-18da4b42-30">
        <path fill="none" d="M20.19,61.31 L 21.19 71.17 22.19 71.34 23.2 69.15 24.2 78.82 25.2 70.86 26.21 77.13 27.21 47.97 28.21 49.14 29.21 72.37 30.22 68.09 31.22 69.84 32.22 47.72 33.23 67.52 34.23 76.89 35.23 50 36.24 74.31 37.24 69.35 38.24 79.34 39.25 66.93 40.25 51.22 41.25 49.98 42.26 63.78 43.26 71.63 44.26 78.67 45.26 72.5 46.27 76.37 47.27 47.96 48.27 59.65 49.28 58.57 50.28 71.92 51.28 72.03 52.29 68.58 53.29 58.04 54.29 55.52 55.3 72.17 56.3 61.86 57.3 77.89 58.3 79.12 59.31 67.32 60.31 65.08 61.31 65.92 62.32 50.13 63.32 69.1 64.32 76.93 65.33 44.07 66.33 64.77 67.33 71.1 68.34 52.37 69.34 65.45 70.34 58.6 71.35 51.41 72.35 72.61 73.35 55.85 74.35 49.53 75.36 67.77 76.36 46.27 77.36 54.66 78.37 66.57 79.37 55.14 80.37 62.87 81.38 74.04 82.38 64.4 83.38 50.05 84.39 51.19 85.39 65.07 86.39 75.93 87.4 44 88.4 48.72 89.4 54.26 90.4 58.51 91.41 48.06 92.41 57.01 93.41 49.25 94.42 59.63 95.42 47.82 96.42 55.21 97.43 53.32 98.43 75.58 99.43 43.96 100.44 70.63 101.44 55.6 102.44 77.93 103.45 72.32 104.45 45.05 105.45 79.22 106.45 79.95 107.46 51.35 108.46 59.15 109.46 45.26 110.47 57.45 111.47 46.8 112.47 59.09 113.48 61.4 114.48 65.09 115.48 45.07 116.49 51.14 117.49 53.31 118.49 56.36 119.49 58.03" id="img-18da4b42-31"/>
      </g>
      <g stroke-width="0.3" fill="#000000" fill-opacity="0.000" class="geometry color_Signal_1" stroke-dasharray="none" stroke="#00BFFF" id="img-18da4b42-32">
        <path fill="none" d="M20.19,32.82 L 21.19 22.96 22.19 14.94 23.2 9.49 24.2 7.09 25.2 7.96 26.21 12.01 27.21 18.9 28.21 27.99 29.21 38.48 30.22 49.44 31.22 59.88 32.22 68.87 33.23 75.61 34.23 79.49 35.23 80.17 36.24 77.6 37.24 71.99 38.24 63.84 39.25 53.9 40.25 43.04 41.25 32.24 42.26 22.45 43.26 14.56 44.26 9.27 45.26 7.05 46.27 8.1 47.27 12.33 48.27 19.35 49.28 28.55 50.28 39.1 51.28 50.05 52.29 60.43 53.29 69.31 54.29 75.9 55.3 79.62 56.3 80.12 57.3 77.36 58.3 71.59 59.31 63.33 60.31 53.31 61.31 42.42 62.32 31.65 63.32 21.95 64.32 14.19 65.33 9.06 66.33 7.03 67.33 8.26 68.34 12.65 69.34 19.82 70.34 29.11 71.35 39.71 72.35 50.65 73.35 60.98 74.35 69.75 75.36 76.19 76.36 79.73 77.36 80.05 78.37 77.11 79.37 71.19 80.37 62.8 81.38 52.71 82.38 41.81 83.38 31.07 84.39 21.46 85.39 13.83 86.39 8.86 87.4 7.01 88.4 8.42 89.4 12.99 90.4 20.29 91.41 29.68 92.41 40.32 93.41 51.26 94.42 61.52 95.42 70.18 96.42 76.47 97.43 79.84 98.43 79.97 99.43 76.85 100.44 70.78 101.44 62.28 102.44 52.11 103.45 41.19 104.45 30.5 105.45 20.97 106.45 13.48 107.46 8.68 108.46 7 109.46 8.6 110.47 13.33 111.47 20.77 112.47 30.25 113.48 40.94 114.48 51.86 115.48 62.05 116.49 70.6 117.49 76.74 118.49 79.93 119.49 79.88" id="img-18da4b42-33"/>
      </g>
    </g>
  </g>
</g>
  <g class="guide ylabels" font-size="2.82" font-family="'PT Sans Caption','Helvetica Neue','Helvetica',sans-serif" fill="#6C606B" id="img-18da4b42-34">
    <text x="16.18" y="80.31" text-anchor="end" dy="0.35em" id="img-18da4b42-35">0.0</text>
    <text x="16.18" y="43.66" text-anchor="end" dy="0.35em" id="img-18da4b42-36">0.5</text>
    <text x="16.18" y="7" text-anchor="end" dy="0.35em" id="img-18da4b42-37">1.0</text>
  </g>
  <g font-size="3.88" font-family="'PT Sans','Helvetica Neue','Helvetica',sans-serif" fill="#564A55" stroke="#000000" stroke-opacity="0.000" id="img-18da4b42-38">
    <text x="9.16" y="43.66" text-anchor="end" dy="0.35em" id="img-18da4b42-39">Y</text>
  </g>
</g>
<defs>
  <clipPath id="img-18da4b42-15">
  <path d="M17.18,5 L 121.49 5 121.49 82.32 17.18 82.32" />
</clipPath>
</defs>
</svg>
