<?xml version="1.0" encoding="UTF-8"?>
<svg xmlns="http://www.w3.org/2000/svg"
     xmlns:xlink="http://www.w3.org/1999/xlink"
     xmlns:gadfly="http://www.gadflyjl.org/ns"
     version="1.2"
     width="152.4mm" height="101.6mm" viewBox="0 0 152.4 101.6"
     stroke="none"
     fill="#000000"
     stroke-width="0.3"
     font-size="3.88"
>
<g class="plotroot xscalable yscalable" id="img-7b17f886-1">
  <g font-size="3.88" font-family="'PT Sans','Helvetica Neue','Helvetica',sans-serif" fill="#564A55" stroke="#000000" stroke-opacity="0.000" id="img-7b17f886-2">
    <text x="60.17" y="89.99" text-anchor="middle" dy="0.6em">X</text>
  </g>
  <g class="guide xlabels" font-size="2.82" font-family="'PT Sans Caption','Helvetica Neue','Helvetica',sans-serif" fill="#6C606B" id="img-7b17f886-3">
    <text x="16.84" y="83.32" text-anchor="middle" dy="0.6em">0</text>
    <text x="60.17" y="83.32" text-anchor="middle" dy="0.6em">50</text>
    <text x="103.51" y="83.32" text-anchor="middle" dy="0.6em">100</text>
  </g>
  <g class="guide colorkey" id="img-7b17f886-4">
    <g fill="#4C404B" font-size="2.82" font-family="'PT Sans','Helvetica Neue','Helvetica',sans-serif" id="img-7b17f886-5">
      <text x="109.32" y="34.59" dy="0.35em" id="img-7b17f886-6" class="color_Observation_1">Observation 1</text>
      <text x="109.32" y="38.22" dy="0.35em" id="img-7b17f886-7" class="color_Observation_2">Observation 2</text>
      <text x="109.32" y="41.84" dy="0.35em" id="img-7b17f886-8" class="color_Observation_3">Observation 3</text>
      <text x="109.32" y="45.47" dy="0.35em" id="img-7b17f886-9" class="color_Observation_4">Observation 4</text>
      <text x="109.32" y="49.1" dy="0.35em" id="img-7b17f886-10" class="color_Observation_5">Observation 5</text>
      <text x="109.32" y="52.72" dy="0.35em" id="img-7b17f886-11" class="color_Observation_6">Observation 6</text>
      <text x="109.32" y="56.35" dy="0.35em" id="img-7b17f886-12" class="color_Observation_7">Observation 7</text>
    </g>
    <g stroke="#000000" stroke-opacity="0.000" id="img-7b17f886-13">
      <rect x="106.51" y="33.68" width="1.81" height="1.81" id="img-7b17f886-14" class="color_Observation_1" fill="#00BFFF"/>
      <rect x="106.51" y="37.31" width="1.81" height="1.81" id="img-7b17f886-15" class="color_Observation_2" fill="#D4CA3A"/>
      <rect x="106.51" y="40.94" width="1.81" height="1.81" id="img-7b17f886-16" class="color_Observation_3" fill="#FF6DAE"/>
      <rect x="106.51" y="44.56" width="1.81" height="1.81" id="img-7b17f886-17" class="color_Observation_4" fill="#00B78D"/>
      <rect x="106.51" y="48.19" width="1.81" height="1.81" id="img-7b17f886-18" class="color_Observation_5" fill="#BEA9FF"/>
      <rect x="106.51" y="51.82" width="1.81" height="1.81" id="img-7b17f886-19" class="color_Observation_6" fill="#FF6765"/>
      <rect x="106.51" y="55.44" width="1.81" height="1.81" id="img-7b17f886-20" class="color_Observation_7" fill="#C6C6C6"/>
    </g>
    <g fill="#362A35" font-size="3.88" font-family="'PT Sans','Helvetica Neue','Helvetica',sans-serif" stroke="#000000" stroke-opacity="0.000" id="img-7b17f886-21">
      <text x="106.51" y="30.77" id="img-7b17f886-22">Reproduced observations</text>
    </g>
  </g>
<g clip-path="url(#img-7b17f886-23)">
  <g id="img-7b17f886-24">
    <g pointer-events="visible" opacity="1" fill="#000000" fill-opacity="0.000" stroke="#000000" stroke-opacity="0.000" class="guide background" id="img-7b17f886-25">
      <rect x="14.84" y="5" width="90.67" height="77.32" id="img-7b17f886-26"/>
    </g>
    <g class="guide ygridlines xfixed" stroke-dasharray="0.5,0.5" stroke-width="0.2" stroke="#D0D0E0" id="img-7b17f886-27">
      <path fill="none" d="M14.84,80.32 L 105.51 80.32" id="img-7b17f886-28"/>
      <path fill="none" d="M14.84,55.88 L 105.51 55.88" id="img-7b17f886-29"/>
      <path fill="none" d="M14.84,31.44 L 105.51 31.44" id="img-7b17f886-30"/>
      <path fill="none" d="M14.84,7 L 105.51 7" id="img-7b17f886-31"/>
    </g>
    <g class="guide xgridlines yfixed" stroke-dasharray="0.5,0.5" stroke-width="0.2" stroke="#D0D0E0" id="img-7b17f886-32">
      <path fill="none" d="M16.84,5 L 16.84 82.32" id="img-7b17f886-33"/>
      <path fill="none" d="M60.17,5 L 60.17 82.32" id="img-7b17f886-34"/>
      <path fill="none" d="M103.51,5 L 103.51 82.32" id="img-7b17f886-35"/>
    </g>
    <g class="plotpanel" id="img-7b17f886-36">
      <g stroke-width="0.3" fill="#000000" fill-opacity="0.000" class="geometry color_Observation_7" stroke-dasharray="none" stroke="#C6C6C6" id="img-7b17f886-37">
        <path fill="none" d="M17.7,42.32 L 18.57 39.03 19.44 33.74 20.3 29.38 21.17 31 22.04 28.92 22.9 33.72 23.77 28.59 24.64 35.04 25.5 49.78 26.37 55.66 27.24 63.2 28.1 61.82 28.97 72.91 29.84 78.63 30.7 70.12 31.57 76.5 32.44 71.11 33.3 69.01 34.17 58.24 35.04 45.77 35.9 38.15 36.77 36.23 37.64 33.58 38.5 32.4 39.37 28.87 40.24 30.86 41.1 24.21 41.97 32.79 42.84 38.56 43.7 50.04 44.57 57.38 45.44 63.15 46.31 65.56 47.17 69.11 48.04 77.13 48.91 74.03 49.77 77.54 50.64 74.1 51.51 64.66 52.37 57.23 53.24 50.26 54.11 37.81 54.97 37.67 55.84 35.1 56.71 20.73 57.57 26.27 58.44 29.21 59.31 25.89 60.17 35.03 61.04 38.94 61.91 43.61 62.77 57.97 63.64 59.27 64.51 63.01 65.37 73.39 66.24 68.58 67.11 71.58 67.97 73.6 68.84 65.84 69.71 62.82 70.57 59.82 71.44 49.34 72.31 37.4 73.17 31.37 74.04 30.91 74.91 31.22 75.77 19.34 76.64 21.85 77.51 26.74 78.37 33.03 79.24 35.81 80.11 45.88 80.97 50.59 81.84 60.89 82.71 62.72 83.57 69.38 84.44 71 85.31 78.5 86.17 65.89 87.04 70.73 87.91 60.05 88.77 60.72 89.64 51.57 90.51 35.35 91.37 40.39 92.24 35.63 93.11 22.9 93.97 24.38 94.84 20.82 95.71 28.04 96.57 29.44 97.44 39.87 98.31 47.76 99.17 56.27 100.04 56.39 100.91 64.11 101.77 68.93 102.64 72.07 103.51 72.59" id="img-7b17f886-38"/>
      </g>
      <g stroke-width="0.3" fill="#000000" fill-opacity="0.000" class="geometry color_Observation_6" stroke-dasharray="none" stroke="#FF6765" id="img-7b17f886-39">
        <path fill="none" d="M17.7,51.81 L 18.57 55.1 19.44 52.54 20.3 49.26 21.17 54.91 22.04 49.89 22.9 55.43 23.77 38.28 24.64 42.09 25.5 61.07 26.37 61.87 27.24 66.52 28.1 54.77 28.97 70.22 29.84 77.76 30.7 60.06 31.57 75.4 32.44 70.23 33.3 74.17 34.17 62.59 35.04 48.49 35.9 44.06 36.77 50 37.64 52.61 38.5 55.54 39.37 50.68 40.24 53.61 41.1 36.08 41.97 46.22 42.84 48.56 43.7 60.98 44.57 64.71 45.44 65.87 46.31 61.8 47.17 62.32 48.04 74.65 48.91 67.95 49.77 77.71 50.64 76.61 51.51 65.99 52.37 61.15 53.24 58.09 54.11 43.97 54.97 53.39 55.84 56.02 56.71 32.4 57.57 45.52 58.44 50.15 59.31 39.13 60.17 50.24 61.04 48.77 61.91 47.51 62.77 65.29 63.64 57.56 64.51 56.27 65.37 70.58 66.24 57.42 67.11 63.12 67.97 70.08 68.84 60.49 69.71 62.85 70.57 66.93 71.44 56.87 72.31 43.73 73.17 41.28 74.04 47.99 74.91 53.57 75.77 31.67 76.64 35.29 77.51 40.5 78.37 45.77 79.24 41.93 80.11 51.44 80.97 49.92 81.84 60.26 82.71 55.27 83.57 62.29 84.44 62.16 85.31 77.04 86.17 54.93 87.04 70.68 87.91 57.82 88.77 69.33 89.64 61.95 90.51 40.2 91.37 59.81 92.24 57.79 93.11 37.13 93.97 41.77 94.84 33.04 95.71 42.75 96.57 38.12 97.44 49.48 98.31 54.58 99.17 60.68 100.04 50.73 100.91 57.62 101.77 61.12 102.64 64.22 103.51 65.31" id="img-7b17f886-40"/>
      </g>
      <g stroke-width="0.3" fill="#000000" fill-opacity="0.000" class="geometry color_Observation_5" stroke-dasharray="none" stroke="#BEA9FF" id="img-7b17f886-41">
        <path fill="none" d="M17.7,48.65 L 18.57 42.08 19.44 36.73 20.3 33.1 21.17 31.5 22.04 32.08 22.9 34.78 23.77 39.37 24.64 45.43 25.5 52.43 26.37 59.73 27.24 66.69 28.1 72.68 28.97 77.18 29.84 79.77 30.7 80.22 31.57 78.5 32.44 74.76 33.3 69.33 34.17 62.71 35.04 55.47 35.9 48.26 36.77 41.74 37.64 36.48 38.5 32.95 39.37 31.47 40.24 32.17 41.1 34.99 41.97 39.67 42.84 45.81 43.7 52.84 44.57 60.14 45.44 67.06 46.31 72.98 47.17 77.37 48.04 79.85 48.91 80.18 49.77 78.34 50.64 74.5 51.51 68.99 52.37 62.31 53.24 55.05 54.11 47.87 54.97 41.41 55.84 36.23 56.71 32.81 57.57 31.46 58.44 32.28 59.31 35.21 60.17 39.98 61.04 40.81 61.91 37.02 62.77 58.06 63.64 43.18 64.51 71 65.37 59.01 66.24 76.08 67.11 74.53 67.97 73.47 68.84 58.48 69.71 49.16 70.57 60.01 71.44 43.33 72.31 30.87 73.17 22.26 74.04 35.88 74.91 31.45 75.77 10.8 76.64 15.56 77.51 35.43 78.37 40.3 79.24 46.56 80.11 53.65 80.97 60.94 81.84 67.78 82.71 73.56 83.57 77.75 84.44 80 85.31 80.08 86.17 78.01 87.04 73.96 87.91 68.29 88.77 61.51 89.64 54.23 90.51 47.1 91.37 40.75 92.24 35.76 93.11 32.56 93.97 31.44 94.84 32.5 95.71 35.66 96.57 40.62 97.44 46.94 98.31 54.06 99.17 61.34 100.04 68.14 100.91 73.84 101.77 77.93 102.64 80.06 103.51 80.02" id="img-7b17f886-42"/>
      </g>
      <g stroke-width="0.3" fill="#000000" fill-opacity="0.000" class="geometry color_Observation_4" stroke-dasharray="none" stroke="#00B78D" id="img-7b17f886-43">
        <path fill="none" d="M17.7,64.48 L 18.57 61.2 19.44 58.52 20.3 56.71 21.17 55.91 22.04 56.2 22.9 57.55 23.77 59.84 24.64 62.87 25.5 66.37 26.37 70.02 27.24 73.5 28.1 76.5 28.97 78.75 29.84 80.04 30.7 80.27 31.57 79.41 32.44 77.54 33.3 74.82 34.17 71.51 35.04 67.89 35.9 64.29 36.77 61.03 37.64 58.4 38.5 56.63 39.37 55.89 40.24 56.24 41.1 57.65 41.97 59.99 42.84 63.06 43.7 66.58 44.57 70.23 45.44 73.69 46.31 76.65 47.17 78.84 48.04 80.08 48.91 80.25 49.77 79.33 50.64 77.41 51.51 74.65 52.37 71.31 53.24 67.68 54.11 64.09 54.97 60.86 55.84 58.27 56.71 56.56 57.57 55.89 58.44 56.3 59.31 57.76 60.17 60.15 61.04 52.51 61.91 34.34 62.77 65.47 63.64 25.38 64.51 72.26 65.37 41.82 66.24 72.43 67.11 69.01 67.97 69.83 68.84 45.76 69.71 35.51 70.57 67.3 71.44 44.84 72.31 30.67 73.17 23.06 74.04 57.92 74.91 54.03 75.77 14.59 76.64 22.69 77.51 57.87 78.37 60.31 79.24 63.44 80.11 66.98 80.97 70.63 81.84 74.05 82.71 76.94 83.57 79.03 84.44 80.16 85.31 80.2 86.17 79.16 87.04 77.14 87.91 74.3 88.77 70.91 89.64 67.27 90.51 63.71 91.37 60.53 92.24 58.04 93.11 56.44 93.97 55.88 94.84 56.41 95.71 57.99 96.57 60.47 97.44 63.63 98.31 67.19 99.17 70.83 100.04 74.23 100.91 77.08 101.77 79.12 102.64 80.19 103.51 80.17" id="img-7b17f886-44"/>
      </g>
      <g stroke-width="0.3" fill="#000000" fill-opacity="0.000" class="geometry color_Observation_3" stroke-dasharray="none" stroke="#FF6DAE" id="img-7b17f886-45">
        <path fill="none" d="M17.7,67.64 L 18.57 74.22 19.44 74.33 20.3 72.87 21.17 79.32 22.04 74.01 22.9 78.19 23.77 58.75 24.64 59.53 25.5 75.02 26.37 72.16 27.24 73.33 28.1 58.58 28.97 71.79 29.84 78.03 30.7 60.11 31.57 76.31 32.44 73.01 33.3 79.66 34.17 71.39 35.04 60.92 35.9 60.09 36.77 69.29 37.64 74.52 38.5 79.22 39.37 75.1 40.24 77.68 41.1 58.74 41.97 66.54 42.84 65.82 43.7 74.72 44.57 74.79 45.44 72.49 46.31 65.47 47.17 63.79 48.04 74.88 48.91 68.01 49.77 78.7 50.64 79.52 51.51 71.65 52.37 70.16 53.24 70.72 54.11 60.19 54.97 72.84 55.84 78.06 56.71 56.15 57.57 69.95 58.44 74.17 59.31 61.69 60.17 70.4 61.04 60.47 61.91 44.83 62.77 72.7 63.64 39.76 64.51 57.53 65.37 53.39 66.24 53.78 67.11 57.61 67.97 66.45 68.84 47.78 69.71 49.2 70.57 74.23 71.44 58.38 72.31 43.53 73.17 42.08 74.04 70.04 74.91 76.16 75.77 35.46 76.64 42.42 77.51 62.94 78.37 65.78 79.24 58.81 80.11 64.78 80.97 59.61 81.84 66.53 82.71 58.65 83.57 63.58 84.44 62.32 85.31 77.16 86.17 56.08 87.04 73.86 87.91 63.84 88.77 78.73 89.64 74.99 90.51 56.81 91.37 79.59 92.24 80.07 93.11 61.01 93.97 66.21 94.84 56.94 95.71 65.07 96.57 57.97 97.44 66.17 98.31 67.71 99.17 70.16 100.04 56.82 100.91 60.86 101.77 62.31 102.64 64.35 103.51 65.46" id="img-7b17f886-46"/>
      </g>
      <g stroke-width="0.3" fill="#000000" fill-opacity="0.000" class="geometry color_Observation_2" stroke-dasharray="none" stroke="#D4CA3A" id="img-7b17f886-47">
        <path fill="none" d="M17.7,67.64 L 18.57 74.22 19.44 74.33 20.3 72.87 21.17 79.32 22.04 74.01 22.9 78.19 23.77 58.75 24.64 59.53 25.5 75.02 26.37 72.16 27.24 73.33 28.1 58.58 28.97 71.79 29.84 78.03 30.7 60.11 31.57 76.31 32.44 73.01 33.3 79.66 34.17 71.39 35.04 60.92 35.9 60.09 36.77 69.29 37.64 74.52 38.5 79.22 39.37 75.1 40.24 77.68 41.1 58.74 41.97 66.54 42.84 65.82 43.7 74.72 44.57 74.79 45.44 72.49 46.31 65.47 47.17 63.79 48.04 74.88 48.91 68.01 49.77 78.7 50.64 79.52 51.51 71.65 52.37 70.16 53.24 70.72 54.11 60.19 54.97 72.84 55.84 78.06 56.71 56.15 57.57 69.95 58.44 74.17 59.31 61.69 60.17 70.4 61.04 60.47 61.91 44.83 62.77 72.7 63.64 39.76 64.51 57.53 65.37 53.39 66.24 53.78 67.11 57.61 67.97 66.45 68.84 47.78 69.71 49.2 70.57 74.23 71.44 58.38 72.31 43.53 73.17 42.08 74.04 70.04 74.91 76.16 75.77 35.46 76.64 42.42 77.51 62.94 78.37 65.78 79.24 58.81 80.11 64.78 80.97 59.61 81.84 66.53 82.71 58.65 83.57 63.58 84.44 62.32 85.31 77.16 86.17 56.08 87.04 73.86 87.91 63.84 88.77 78.73 89.64 74.99 90.51 56.81 91.37 79.59 92.24 80.07 93.11 61.01 93.97 66.21 94.84 56.94 95.71 65.07 96.57 57.97 97.44 66.17 98.31 67.71 99.17 70.16 100.04 56.82 100.91 60.86 101.77 62.31 102.64 64.35 103.51 65.46" id="img-7b17f886-48"/>
      </g>
      <g stroke-width="0.3" fill="#000000" fill-opacity="0.000" class="geometry color_Observation_1" stroke-dasharray="none" stroke="#00BFFF" id="img-7b17f886-49">
        <path fill="none" d="M17.7,58.15 L 18.57 58.15 19.44 55.53 20.3 52.99 21.17 55.41 22.04 53.04 22.9 56.49 23.77 49.06 24.64 52.48 25.5 63.72 26.37 65.95 27.24 70.01 28.1 65.63 28.97 74.48 29.84 78.9 30.7 70.16 31.57 77.41 32.44 73.88 33.3 74.5 34.17 67.05 35.04 58.19 35.9 54.18 36.77 55.52 37.64 55.5 38.5 56.09 39.37 53.29 40.24 54.93 41.1 46.87 41.97 53.11 42.84 55.81 43.7 63.78 44.57 67.47 45.44 69.78 46.31 69.22 47.17 70.58 48.04 77.37 48.91 74.1 49.77 78.52 50.64 77.01 51.51 70.32 52.37 66.23 53.24 62.89 54.11 54.03 54.97 57.12 55.84 57.15 56.71 44.48 57.57 50.7 58.44 53.22 59.31 48.45 60.17 55.19 61.04 50.64 61.91 40.93 62.77 65.38 63.64 41.47 64.51 64.27 65.37 56.2 66.24 64.93 67.11 66.07 67.97 69.96 68.84 53.13 69.71 49.18 70.57 67.12 71.44 50.85 72.31 37.2 73.17 32.17 74.04 52.96 74.91 53.8 75.77 23.13 76.64 28.99 77.51 49.19 78.37 53.04 79.24 52.68 80.11 59.21 80.97 60.27 81.84 67.15 82.71 66.1 83.57 70.66 84.44 71.16 85.31 78.62 86.17 67.04 87.04 73.91 87.91 66.06 88.77 70.12 89.64 64.61 90.51 51.95 91.37 60.17 92.24 57.91 93.11 46.78 93.97 48.82 94.84 44.72 95.71 50.37 96.57 49.29 97.44 56.55 98.31 60.88 99.17 65.75 100.04 62.48 100.91 67.35 101.77 70.12 102.64 72.2 103.51 72.74" id="img-7b17f886-50"/>
      </g>
    </g>
  </g>
</g>
  <g class="guide ylabels" font-size="2.82" font-family="'PT Sans Caption','Helvetica Neue','Helvetica',sans-serif" fill="#6C606B" id="img-7b17f886-51">
    <text x="13.84" y="80.32" text-anchor="end" dy="0.35em" id="img-7b17f886-52">0</text>
    <text x="13.84" y="55.88" text-anchor="end" dy="0.35em" id="img-7b17f886-53">1</text>
    <text x="13.84" y="31.44" text-anchor="end" dy="0.35em" id="img-7b17f886-54">2</text>
    <text x="13.84" y="7" text-anchor="end" dy="0.35em" id="img-7b17f886-55">3</text>
  </g>
  <g font-size="3.88" font-family="'PT Sans','Helvetica Neue','Helvetica',sans-serif" fill="#564A55" stroke="#000000" stroke-opacity="0.000" id="img-7b17f886-56">
    <text x="9.16" y="43.66" text-anchor="end" dy="0.35em" id="img-7b17f886-57">Y</text>
  </g>
</g>
<defs>
  <clipPath id="img-7b17f886-23">
  <path d="M14.84,5 L 105.51 5 105.51 82.32 14.84 82.32" />
</clipPath>
</defs>
</svg>
