<?xml version="1.0" encoding="UTF-8"?>
<svg xmlns="http://www.w3.org/2000/svg"
     xmlns:xlink="http://www.w3.org/1999/xlink"
     xmlns:gadfly="http://www.gadflyjl.org/ns"
     version="1.2"
     width="203.2mm" height="101.6mm" viewBox="0 0 203.2 101.6"
     stroke="none"
     fill="#000000"
     stroke-width="0.3"
     font-size="3.88"
>
<g class="plotroot xscalable yscalable" id="img-5eb49c4c-1">
  <g font-size="3.88" font-family="'PT Sans','Helvetica Neue','Helvetica',sans-serif" fill="#564A55" stroke="#000000" stroke-opacity="0.000" id="img-5eb49c4c-2">
    <g transform="translate(95.73,90.81)">
      <g class="primitive">
        <text text-anchor="middle" dy="0.6em">Time</text>
      </g>
    </g>
  </g>
  <g class="guide xlabels" font-size="2.82" font-family="'PT Sans Caption','Helvetica Neue','Helvetica',sans-serif" fill="#6C606B" id="img-5eb49c4c-3">
    <g transform="translate(16.54,84.76)">
      <g class="primitive">
        <text text-anchor="middle" dy="0.6em">0</text>
      </g>
    </g>
    <g transform="translate(95.73,84.76)">
      <g class="primitive">
        <text text-anchor="middle" dy="0.6em">50</text>
      </g>
    </g>
    <g transform="translate(174.93,84.76)">
      <g class="primitive">
        <text text-anchor="middle" dy="0.6em">100</text>
      </g>
    </g>
  </g>
  <g class="guide colorkey" id="img-5eb49c4c-4">
    <g fill="#4C404B" font-size="2.82" font-family="'PT Sans','Helvetica Neue','Helvetica',sans-serif" id="img-5eb49c4c-5">
      <g transform="translate(180.45,39.17)">
        <g class="primitive">
          <text dy="0.35em">Observation 1</text>
        </g>
      </g>
      <g transform="translate(180.45,42.21)">
        <g class="primitive">
          <text dy="0.35em">Observation 2</text>
        </g>
      </g>
      <g transform="translate(180.45,45.25)">
        <g class="primitive">
          <text dy="0.35em">Observation 3</text>
        </g>
      </g>
      <g transform="translate(180.45,48.3)">
        <g class="primitive">
          <text dy="0.35em">Observation 4</text>
        </g>
      </g>
      <g transform="translate(180.45,51.34)">
        <g class="primitive">
          <text dy="0.35em">Observation 5</text>
        </g>
      </g>
      <g transform="translate(180.45,54.38)">
        <g class="primitive">
          <text dy="0.35em">Observation 6</text>
        </g>
      </g>
      <g transform="translate(180.45,57.43)">
        <g class="primitive">
          <text dy="0.35em">Observation 7</text>
        </g>
      </g>
    </g>
    <g stroke="#000000" stroke-opacity="0.000" id="img-5eb49c4c-6">
      <g transform="translate(178.69,39.17)" fill="#FF0000">
        <path d="M-0.76,-0.76 L 0.76 -0.76 0.76 0.76 -0.76 0.76 z" class="primitive"/>
      </g>
      <g transform="translate(178.69,42.21)" fill="#0000FF">
        <path d="M-0.76,-0.76 L 0.76 -0.76 0.76 0.76 -0.76 0.76 z" class="primitive"/>
      </g>
      <g transform="translate(178.69,45.25)" fill="#008000">
        <path d="M-0.76,-0.76 L 0.76 -0.76 0.76 0.76 -0.76 0.76 z" class="primitive"/>
      </g>
      <g transform="translate(178.69,48.3)" fill="#FFA500">
        <path d="M-0.76,-0.76 L 0.76 -0.76 0.76 0.76 -0.76 0.76 z" class="primitive"/>
      </g>
      <g transform="translate(178.69,51.34)" fill="#FF00FF">
        <path d="M-0.76,-0.76 L 0.76 -0.76 0.76 0.76 -0.76 0.76 z" class="primitive"/>
      </g>
      <g transform="translate(178.69,54.38)" fill="#00FFFF">
        <path d="M-0.76,-0.76 L 0.76 -0.76 0.76 0.76 -0.76 0.76 z" class="primitive"/>
      </g>
      <g transform="translate(178.69,57.43)" fill="#A52A2A">
        <path d="M-0.76,-0.76 L 0.76 -0.76 0.76 0.76 -0.76 0.76 z" class="primitive"/>
      </g>
    </g>
    <g fill="#362A35" font-size="3.88" font-family="'PT Sans','Helvetica Neue','Helvetica',sans-serif" stroke="#000000" stroke-opacity="0.000" id="img-5eb49c4c-7">
      <g transform="translate(177.93,35.53)">
        <g class="primitive">
          <text>Observations</text>
        </g>
      </g>
    </g>
  </g>
  <g clip-path="url(#img-5eb49c4c-8)">
    <g id="img-5eb49c4c-9">
      <g pointer-events="visible" opacity="1" fill="#000000" fill-opacity="0.000" stroke="#000000" stroke-opacity="0.000" class="guide background" id="img-5eb49c4c-10">
        <g transform="translate(95.73,46.78)">
          <path d="M-81.19,-36.98 L 81.19 -36.98 81.19 36.98 -81.19 36.98 z" class="primitive"/>
        </g>
      </g>
      <g class="guide ygridlines xfixed" stroke-dasharray="0.5,0.5" stroke-width="0.2" stroke="#D0D0E0" id="img-5eb49c4c-11">
        <g transform="translate(95.73,81.76)">
          <path fill="none" d="M-81.19,0 L 81.19 0" class="primitive"/>
        </g>
        <g transform="translate(95.73,58.44)">
          <path fill="none" d="M-81.19,0 L 81.19 0" class="primitive"/>
        </g>
        <g transform="translate(95.73,35.11)">
          <path fill="none" d="M-81.19,0 L 81.19 0" class="primitive"/>
        </g>
        <g transform="translate(95.73,11.79)">
          <path fill="none" d="M-81.19,0 L 81.19 0" class="primitive"/>
        </g>
      </g>
      <g class="guide xgridlines yfixed" stroke-dasharray="0.5,0.5" stroke-width="0.2" stroke="#D0D0E0" id="img-5eb49c4c-12">
        <g transform="translate(16.54,46.78)">
          <path fill="none" d="M0,-36.98 L 0 36.98" class="primitive"/>
        </g>
        <g transform="translate(95.73,46.78)">
          <path fill="none" d="M0,-36.98 L 0 36.98" class="primitive"/>
        </g>
        <g transform="translate(174.93,46.78)">
          <path fill="none" d="M0,-36.98 L 0 36.98" class="primitive"/>
        </g>
      </g>
      <g class="plotpanel" id="img-5eb49c4c-13">
        <metadata>
          <boundingbox value="14.537768554687489mm 9.793972439236114mm 162.38911132812498mm 73.96291232638889mm"/>
          <unitbox value="-1.2627130635620039 3.085759723266078 102.525426127124 -3.171519446532156"/>
        </metadata>
        <g stroke-width="0.71" fill="#000000" fill-opacity="0.000" class="geometry" id="img-5eb49c4c-14">
          <g stroke-dasharray="none" stroke="#A52A2A" id="img-5eb49c4c-15">
            <g transform="translate(96.52,52.03)">
              <path fill="none" d="M-78.4,-6.53 L -76.82 -9.67 -75.23 -14.72 -73.65 -18.88 -72.07 -17.33 -70.48 -19.31 -68.9 -14.74 -67.32 -19.63 -65.73 -13.48 -64.15 0.59 -62.56 6.2 -60.98 13.39 -59.4 12.08 -57.81 22.66 -56.23 28.12 -54.64 20 -53.06 26.09 -51.48 20.94 -49.89 18.94 -48.31 8.67 -46.72 -3.24 -45.14 -10.51 -43.56 -12.34 -41.97 -14.87 -40.39 -15.99 -38.81 -19.37 -37.22 -17.47 -35.64 -23.82 -34.05 -15.63 -32.47 -10.12 -30.89 0.83 -29.3 7.84 -27.72 13.34 -26.13 15.64 -24.55 19.04 -22.97 26.69 -21.38 23.73 -19.8 27.07 -18.21 23.8 -16.63 14.79 -15.05 7.7 -13.46 1.04 -11.88 -10.83 -10.3 -10.97 -8.71 -13.42 -7.13 -27.13 -5.54 -21.84 -3.96 -19.05 -2.38 -22.21 -0.79 -13.49 0.79 -9.75 2.38 -5.3 3.96 8.41 5.54 9.64 7.13 13.21 8.71 23.12 10.3 18.53 11.88 21.4 13.46 23.32 15.05 15.91 16.63 13.04 18.21 10.17 19.8 0.17 21.38 -11.23 22.97 -16.98 24.55 -17.42 26.13 -17.12 27.72 -28.46 29.3 -26.06 30.89 -21.39 32.47 -15.4 34.05 -12.75 35.64 -3.13 37.22 1.36 38.81 11.19 40.39 12.94 41.97 19.3 43.56 20.84 45.14 28 46.72 15.96 48.31 20.58 49.89 10.39 51.48 11.03 53.06 2.3 54.64 -13.18 56.23 -8.37 57.81 -12.91 59.4 -25.06 60.98 -23.65 62.56 -27.05 64.15 -20.16 65.73 -18.82 67.32 -8.87 68.9 -1.34 70.48 6.78 72.07 6.9 73.65 14.27 75.23 18.86 76.82 21.86 78.4 22.36" class="primitive"/>
            </g>
          </g>
        </g>
        <g stroke-width="0.71" fill="#000000" fill-opacity="0.000" class="geometry" id="img-5eb49c4c-16">
          <g stroke-dasharray="none" stroke="#00FFFF" id="img-5eb49c4c-17">
            <g transform="translate(96.52,58.09)">
              <path fill="none" d="M-78.4,-3.53 L -76.82 -0.39 -75.23 -2.84 -73.65 -5.96 -72.07 -0.58 -70.48 -5.37 -68.9 -0.08 -67.32 -16.45 -65.73 -12.81 -64.15 5.3 -62.56 6.07 -60.98 10.5 -59.4 -0.71 -57.81 14.03 -56.23 21.23 -54.64 4.34 -53.06 18.98 -51.48 14.04 -49.89 17.81 -48.31 6.75 -46.72 -6.7 -45.14 -10.93 -43.56 -5.26 -41.97 -2.78 -40.39 0.02 -38.81 -4.61 -37.22 -1.81 -35.64 -18.54 -34.05 -8.87 -32.47 -6.63 -30.89 5.21 -29.3 8.77 -27.72 9.88 -26.13 6 -24.55 6.49 -22.97 18.26 -21.38 11.86 -19.8 21.18 -18.21 20.13 -16.63 10 -15.05 5.38 -13.46 2.46 -11.88 -11.02 -10.3 -2.03 -8.71 0.48 -7.13 -22.06 -5.54 -9.53 -3.96 -5.12 -2.38 -15.63 -0.79 -5.03 0.79 -6.43 2.38 -7.64 3.96 9.33 5.54 1.95 7.13 0.72 8.71 14.38 10.3 1.82 11.88 7.26 13.46 13.9 15.05 4.75 16.63 7 18.21 10.89 19.8 1.29 21.38 -11.25 22.97 -13.59 24.55 -7.18 26.13 -1.85 27.72 -22.75 29.3 -19.3 30.89 -14.33 32.47 -9.3 34.05 -12.96 35.64 -3.88 37.22 -5.34 38.81 4.53 40.39 -0.23 41.97 6.47 43.56 6.34 45.14 20.54 46.72 -0.56 48.31 14.47 49.89 2.2 51.48 13.18 53.06 6.14 54.64 -14.61 56.23 4.1 57.81 2.17 59.4 -17.55 60.98 -13.12 62.56 -21.45 64.15 -12.18 65.73 -16.6 67.32 -5.76 68.9 -0.89 70.48 4.93 72.07 -4.57 73.65 2.01 75.23 5.35 76.82 8.31 78.4 9.35" class="primitive"/>
            </g>
          </g>
        </g>
        <g stroke-width="0.71" fill="#000000" fill-opacity="0.000" class="geometry" id="img-5eb49c4c-18">
          <g stroke-dasharray="none" stroke="#FF00FF" id="img-5eb49c4c-19">
            <g transform="translate(96.52,55.93)">
              <path fill="none" d="M-78.4,-4.39 L -76.82 -10.66 -75.23 -15.76 -73.65 -19.23 -72.07 -20.76 -70.48 -20.21 -68.9 -17.63 -67.32 -13.25 -65.73 -7.46 -64.15 -0.79 -62.56 6.18 -60.98 12.82 -59.4 18.54 -57.81 22.83 -56.23 25.3 -54.64 25.73 -53.06 24.09 -51.48 20.52 -49.89 15.35 -48.31 9.02 -46.72 2.11 -45.14 -4.76 -43.56 -10.99 -41.97 -16.01 -40.39 -19.37 -38.81 -20.78 -37.22 -20.12 -35.64 -17.43 -34.05 -12.96 -32.47 -7.11 -30.89 -0.4 -29.3 6.57 -27.72 13.17 -26.13 18.82 -24.55 23.02 -22.97 25.38 -21.38 25.7 -19.8 23.94 -18.21 20.27 -16.63 15.02 -15.05 8.64 -13.46 1.72 -11.88 -5.13 -10.3 -11.3 -8.71 -16.24 -7.13 -19.5 -5.54 -20.8 -3.96 -20.02 -2.38 -17.22 -0.79 -12.66 0.79 -11.87 2.38 -15.49 3.96 4.59 5.54 -9.61 7.13 16.94 8.71 5.49 10.3 21.78 11.88 20.3 13.46 19.29 15.05 4.98 16.63 -3.91 18.21 6.45 19.8 -9.47 21.38 -21.36 22.97 -29.57 24.55 -16.58 26.13 -20.81 27.72 -40.51 29.3 -35.97 30.89 -17.01 32.47 -12.36 34.05 -6.39 35.64 0.38 37.22 7.34 38.81 13.86 40.39 19.38 41.97 23.38 43.56 25.52 45.14 25.6 46.72 23.62 48.31 19.76 49.89 14.35 51.48 7.88 53.06 0.94 54.64 -5.87 56.23 -11.93 57.81 -16.7 59.4 -19.75 60.98 -20.82 62.56 -19.8 64.15 -16.79 65.73 -12.06 67.32 -6.02 68.9 0.77 70.48 7.72 72.07 14.21 73.65 19.64 75.23 23.55 76.82 25.58 78.4 25.55" class="primitive"/>
            </g>
          </g>
        </g>
        <g stroke-width="0.71" fill="#000000" fill-opacity="0.000" class="geometry" id="img-5eb49c4c-20">
          <g stroke-dasharray="none" stroke="#FFA500" id="img-5eb49c4c-21">
            <g transform="translate(96.52,65.9)">
              <path fill="none" d="M-78.4,0.75 L -76.82 -2.38 -75.23 -4.93 -73.65 -6.67 -72.07 -7.43 -70.48 -7.16 -68.9 -5.87 -67.32 -3.68 -65.73 -0.78 -64.15 2.55 -62.56 6.04 -60.98 9.36 -59.4 12.22 -57.81 14.36 -56.23 15.6 -54.64 15.82 -53.06 15 -51.48 13.21 -49.89 10.62 -48.31 7.46 -46.72 4 -45.14 0.57 -43.56 -2.54 -41.97 -5.05 -40.39 -6.74 -38.81 -7.44 -37.22 -7.11 -35.64 -5.76 -34.05 -3.53 -32.47 -0.61 -30.89 2.75 -29.3 6.23 -27.72 9.54 -26.13 12.36 -24.55 14.46 -22.97 15.64 -21.38 15.8 -19.8 14.92 -18.21 13.09 -16.63 10.46 -15.05 7.27 -13.46 3.81 -11.88 0.38 -10.3 -2.7 -8.71 -5.17 -7.13 -6.8 -5.54 -7.45 -3.96 -7.06 -2.38 -5.66 -0.79 -3.38 0.79 -10.68 2.38 -28.01 3.96 1.7 5.54 -36.56 7.13 8.17 8.71 -20.87 10.3 8.34 11.88 5.08 13.46 5.86 15.05 -17.11 16.63 -26.89 18.21 3.45 19.8 -17.99 21.38 -31.51 22.97 -38.77 24.55 -5.51 26.13 -9.22 27.72 -46.86 29.3 -39.13 30.89 -5.56 32.47 -3.23 34.05 -0.25 35.64 3.14 37.22 6.62 38.81 9.88 40.39 12.64 41.97 14.64 43.56 15.71 45.14 15.75 46.72 14.76 48.31 12.83 49.89 10.12 51.48 6.89 53.06 3.42 54.64 0.01 56.23 -3.02 57.81 -5.4 59.4 -6.93 60.98 -7.46 62.56 -6.95 64.15 -5.45 65.73 -3.08 67.32 -0.06 68.9 3.33 70.48 6.81 72.07 10.05 73.65 12.77 75.23 14.72 76.82 15.74 78.4 15.72" class="primitive"/>
            </g>
          </g>
        </g>
        <g stroke-width="0.71" fill="#000000" fill-opacity="0.000" class="geometry" id="img-5eb49c4c-22">
          <g stroke-dasharray="none" stroke="#008000" id="img-5eb49c4c-23">
            <g transform="translate(96.52,68.05)">
              <path fill="none" d="M-78.4,1.61 L -76.82 7.89 -75.23 8 -73.65 6.6 -72.07 12.75 -70.48 7.69 -68.9 11.68 -67.32 -6.87 -65.73 -6.13 -64.15 8.65 -62.56 5.92 -60.98 7.04 -59.4 -7.03 -57.81 5.57 -56.23 11.53 -54.64 -5.58 -53.06 9.88 -51.48 6.73 -49.89 13.08 -48.31 5.19 -46.72 -4.8 -45.14 -5.6 -43.56 3.18 -41.97 8.18 -40.39 12.66 -38.81 8.73 -37.22 11.19 -35.64 -6.88 -34.05 0.56 -32.47 -0.13 -30.89 8.36 -29.3 8.44 -27.72 6.24 -26.13 -0.47 -24.55 -2.07 -22.97 8.52 -21.38 1.96 -19.8 12.16 -18.21 12.95 -16.63 5.44 -15.05 4.01 -13.46 4.55 -11.88 -5.5 -10.3 6.57 -8.71 11.55 -7.13 -9.36 -5.54 3.82 -3.96 7.84 -2.38 -4.07 -0.79 4.25 0.79 -5.24 2.38 -20.16 3.96 6.44 5.54 -24.99 7.13 -8.04 8.71 -11.99 10.3 -11.62 11.88 -7.97 13.46 0.47 15.05 -17.34 16.63 -15.99 18.21 7.89 19.8 -7.23 21.38 -21.4 22.97 -22.78 24.55 3.9 26.13 9.74 27.72 -29.1 29.3 -22.46 30.89 -2.87 32.47 -0.17 34.05 -6.82 35.64 -1.13 37.22 -6.06 38.81 0.55 40.39 -6.97 41.97 -2.27 43.56 -3.47 45.14 10.69 46.72 -9.42 48.31 7.54 49.89 -2.02 51.48 12.19 53.06 8.62 54.64 -8.73 56.23 13.01 57.81 13.47 59.4 -4.72 60.98 0.24 62.56 -8.6 64.15 -0.84 65.73 -7.62 67.32 0.2 68.9 1.67 70.48 4.02 72.07 -8.72 73.65 -4.86 75.23 -3.48 76.82 -1.54 78.4 -0.47" class="primitive"/>
            </g>
          </g>
        </g>
        <g stroke-width="0.71" fill="#000000" fill-opacity="0.000" class="geometry" id="img-5eb49c4c-24">
          <g stroke-dasharray="none" stroke="#0000FF" id="img-5eb49c4c-25">
            <g transform="translate(96.52,68.05)">
              <path fill="none" d="M-78.4,1.61 L -76.82 7.89 -75.23 8 -73.65 6.6 -72.07 12.75 -70.48 7.69 -68.9 11.68 -67.32 -6.87 -65.73 -6.13 -64.15 8.65 -62.56 5.92 -60.98 7.04 -59.4 -7.03 -57.81 5.57 -56.23 11.53 -54.64 -5.58 -53.06 9.88 -51.48 6.73 -49.89 13.08 -48.31 5.19 -46.72 -4.8 -45.14 -5.6 -43.56 3.18 -41.97 8.18 -40.39 12.66 -38.81 8.73 -37.22 11.19 -35.64 -6.88 -34.05 0.56 -32.47 -0.13 -30.89 8.36 -29.3 8.44 -27.72 6.24 -26.13 -0.47 -24.55 -2.07 -22.97 8.52 -21.38 1.96 -19.8 12.16 -18.21 12.95 -16.63 5.44 -15.05 4.01 -13.46 4.55 -11.88 -5.5 -10.3 6.57 -8.71 11.55 -7.13 -9.36 -5.54 3.82 -3.96 7.84 -2.38 -4.07 -0.79 4.25 0.79 -5.24 2.38 -20.16 3.96 6.44 5.54 -24.99 7.13 -8.04 8.71 -11.99 10.3 -11.62 11.88 -7.97 13.46 0.47 15.05 -17.34 16.63 -15.99 18.21 7.89 19.8 -7.23 21.38 -21.4 22.97 -22.78 24.55 3.9 26.13 9.74 27.72 -29.1 29.3 -22.46 30.89 -2.87 32.47 -0.17 34.05 -6.82 35.64 -1.13 37.22 -6.06 38.81 0.55 40.39 -6.97 41.97 -2.27 43.56 -3.47 45.14 10.69 46.72 -9.42 48.31 7.54 49.89 -2.02 51.48 12.19 53.06 8.62 54.64 -8.73 56.23 13.01 57.81 13.47 59.4 -4.72 60.98 0.24 62.56 -8.6 64.15 -0.84 65.73 -7.62 67.32 0.2 68.9 1.67 70.48 4.02 72.07 -8.72 73.65 -4.86 75.23 -3.48 76.82 -1.54 78.4 -0.47" class="primitive"/>
            </g>
          </g>
        </g>
        <g stroke-width="0.71" fill="#000000" fill-opacity="0.000" class="geometry" id="img-5eb49c4c-26">
          <g stroke-dasharray="none" stroke="#FF0000" id="img-5eb49c4c-27">
            <g transform="translate(96.52,61.99)">
              <path fill="none" d="M-78.4,-1.39 L -76.82 -1.39 -75.23 -3.88 -73.65 -6.32 -72.07 -4 -70.48 -6.26 -68.9 -2.97 -67.32 -10.06 -65.73 -6.8 -64.15 3.93 -62.56 6.05 -60.98 9.93 -59.4 5.75 -57.81 14.2 -56.23 18.41 -54.64 10.08 -53.06 16.99 -51.48 13.63 -49.89 14.21 -48.31 7.11 -46.72 -1.35 -45.14 -5.18 -43.56 -3.9 -41.97 -3.91 -40.39 -3.36 -38.81 -6.03 -37.22 -4.46 -35.64 -12.15 -34.05 -6.2 -32.47 -3.62 -30.89 3.98 -29.3 7.5 -27.72 9.71 -26.13 9.18 -24.55 10.48 -22.97 16.95 -21.38 13.83 -19.8 18.05 -18.21 16.61 -16.63 10.23 -15.05 6.33 -13.46 3.13 -11.88 -5.32 -10.3 -2.37 -8.71 -2.35 -7.13 -14.43 -5.54 -8.49 -3.96 -6.09 -2.38 -10.65 -0.79 -4.21 0.79 -8.56 2.38 -17.82 3.96 5.51 5.54 -17.3 7.13 4.45 8.71 -3.25 10.3 5.08 11.88 6.17 13.46 9.88 15.05 -6.18 16.63 -9.95 18.21 7.17 19.8 -8.35 21.38 -21.38 22.97 -26.18 24.55 -6.34 26.13 -5.54 27.72 -34.8 29.3 -29.22 30.89 -9.94 32.47 -6.27 34.05 -6.6 35.64 -0.37 37.22 0.64 38.81 7.21 40.39 6.2 41.97 10.55 43.56 11.02 45.14 18.15 46.72 7.1 48.31 13.65 49.89 6.16 51.48 10.03 53.06 4.78 54.64 -7.3 56.23 0.54 57.81 -1.61 59.4 -12.24 60.98 -10.29 62.56 -14.2 64.15 -8.82 65.73 -9.84 67.32 -2.91 68.9 1.22 70.48 5.87 72.07 2.74 73.65 7.39 75.23 10.04 76.82 12.02 78.4 12.54" class="primitive"/>
            </g>
          </g>
        </g>
      </g>
    </g>
  </g>
  <g class="guide ylabels" font-size="2.82" font-family="'PT Sans Caption','Helvetica Neue','Helvetica',sans-serif" fill="#6C606B" id="img-5eb49c4c-28">
    <g transform="translate(13.54,81.76)">
      <g class="primitive">
        <text text-anchor="end" dy="0.35em">0</text>
      </g>
    </g>
    <g transform="translate(13.54,58.44)">
      <g class="primitive">
        <text text-anchor="end" dy="0.35em">1</text>
      </g>
    </g>
    <g transform="translate(13.54,35.11)">
      <g class="primitive">
        <text text-anchor="end" dy="0.35em">2</text>
      </g>
    </g>
    <g transform="translate(13.54,11.79)">
      <g class="primitive">
        <text text-anchor="end" dy="0.35em">3</text>
      </g>
    </g>
  </g>
  <g font-size="3.88" font-family="'PT Sans','Helvetica Neue','Helvetica',sans-serif" fill="#564A55" stroke="#000000" stroke-opacity="0.000" id="img-5eb49c4c-29">
    <g transform="translate(9.11,46.78)">
      <g class="primitive">
        <text text-anchor="end" dy="0.35em">Y</text>
      </g>
    </g>
  </g>
  <g font-size="3.88" font-family="'PT Sans','Helvetica Neue','Helvetica',sans-serif" fill="#564A55" stroke="#000000" stroke-opacity="0.000" id="img-5eb49c4c-30">
    <g transform="translate(95.73,5)">
      <g class="primitive">
        <text text-anchor="middle" dy="0.6em">Mixed observations</text>
      </g>
    </g>
  </g>
</g>
<defs>
  <clipPath id="img-5eb49c4c-8">
    <path d="M14.54,9.79 L 176.93 9.79 176.93 83.76 14.54 83.76" />
  </clipPath>
</defs>
</svg>
