<?xml version="1.0" encoding="UTF-8"?>
<svg xmlns="http://www.w3.org/2000/svg"
     xmlns:xlink="http://www.w3.org/1999/xlink"
     xmlns:gadfly="http://www.gadflyjl.org/ns"
     version="1.2"
     width="152.4mm" height="101.6mm" viewBox="0 0 152.4 101.6"
     stroke="none"
     fill="#000000"
     stroke-width="0.3"
     font-size="3.88"
>
<g class="plotroot xscalable yscalable" id="img-60525134-1">
  <g font-size="3.88" font-family="'PT Sans','Helvetica Neue','Helvetica',sans-serif" fill="#564A55" stroke="#000000" stroke-opacity="0.000" id="img-60525134-2">
    <text x="65.07" y="90.81" text-anchor="middle" dy="0.6em">Time</text>
  </g>
  <g class="guide xlabels" font-size="2.82" font-family="'PT Sans Caption','Helvetica Neue','Helvetica',sans-serif" fill="#6C606B" id="img-60525134-3">
    <text x="16.54" y="84.76" text-anchor="middle" dy="0.6em">0</text>
    <text x="65.07" y="84.76" text-anchor="middle" dy="0.6em">50</text>
    <text x="113.61" y="84.76" text-anchor="middle" dy="0.6em">100</text>
  </g>
  <g class="guide colorkey" id="img-60525134-4">
    <g fill="#4C404B" font-size="2.82" font-family="'PT Sans','Helvetica Neue','Helvetica',sans-serif" id="img-60525134-5">
      <text x="119.13" y="36.77" dy="0.35em" id="img-60525134-6" class="color_Observation_1">Observation 1</text>
      <text x="119.13" y="39.81" dy="0.35em" id="img-60525134-7" class="color_Observation_2">Observation 2</text>
      <text x="119.13" y="42.86" dy="0.35em" id="img-60525134-8" class="color_Observation_3">Observation 3</text>
      <text x="119.13" y="45.9" dy="0.35em" id="img-60525134-9" class="color_Observation_4">Observation 4</text>
      <text x="119.13" y="48.94" dy="0.35em" id="img-60525134-10" class="color_Observation_5">Observation 5</text>
      <text x="119.13" y="51.99" dy="0.35em" id="img-60525134-11" class="color_Observation_6">Observation 6</text>
      <text x="119.13" y="55.03" dy="0.35em" id="img-60525134-12" class="color_Observation_7">Observation 7</text>
    </g>
    <g stroke="#000000" stroke-opacity="0.000" id="img-60525134-13">
      <rect x="116.61" y="36.01" width="1.52" height="1.52" id="img-60525134-14" fill="#00BFFF" class="color_Observation_1"/>
      <rect x="116.61" y="39.05" width="1.52" height="1.52" id="img-60525134-15" fill="#D4CA3A" class="color_Observation_2"/>
      <rect x="116.61" y="42.1" width="1.52" height="1.52" id="img-60525134-16" fill="#FF6DAE" class="color_Observation_3"/>
      <rect x="116.61" y="45.14" width="1.52" height="1.52" id="img-60525134-17" fill="#00B78D" class="color_Observation_4"/>
      <rect x="116.61" y="48.18" width="1.52" height="1.52" id="img-60525134-18" fill="#BEA9FF" class="color_Observation_5"/>
      <rect x="116.61" y="51.23" width="1.52" height="1.52" id="img-60525134-19" fill="#FF6765" class="color_Observation_6"/>
      <rect x="116.61" y="54.27" width="1.52" height="1.52" id="img-60525134-20" fill="#C6C6C6" class="color_Observation_7"/>
    </g>
    <g fill="#362A35" font-size="3.88" font-family="'PT Sans','Helvetica Neue','Helvetica',sans-serif" stroke="#000000" stroke-opacity="0.000" id="img-60525134-21">
      <text x="116.61" y="33.12" id="img-60525134-22">Mixed observations</text>
    </g>
  </g>
<g clip-path="url(#img-60525134-23)">
  <g id="img-60525134-24">
    <g pointer-events="visible" opacity="1" fill="#000000" fill-opacity="0.000" stroke="#000000" stroke-opacity="0.000" class="guide background" id="img-60525134-25">
      <rect x="14.54" y="5" width="101.07" height="78.76" id="img-60525134-26"/>
    </g>
    <g class="guide ygridlines xfixed" stroke-dasharray="0.5,0.5" stroke-width="0.2" stroke="#D0D0E0" id="img-60525134-27">
      <path fill="none" d="M14.54,81.76 L 115.61 81.76" id="img-60525134-28"/>
      <path fill="none" d="M14.54,56.84 L 115.61 56.84" id="img-60525134-29"/>
      <path fill="none" d="M14.54,31.92 L 115.61 31.92" id="img-60525134-30"/>
      <path fill="none" d="M14.54,7 L 115.61 7" id="img-60525134-31"/>
    </g>
    <g class="guide xgridlines yfixed" stroke-dasharray="0.5,0.5" stroke-width="0.2" stroke="#D0D0E0" id="img-60525134-32">
      <path fill="none" d="M16.54,5 L 16.54 83.76" id="img-60525134-33"/>
      <path fill="none" d="M65.07,5 L 65.07 83.76" id="img-60525134-34"/>
      <path fill="none" d="M113.61,5 L 113.61 83.76" id="img-60525134-35"/>
    </g>
    <g class="plotpanel" id="img-60525134-36">
      <g stroke-width="0.71" fill="#000000" fill-opacity="0.000" class="geometry color_Observation_7" stroke-dasharray="none" stroke="#C6C6C6" id="img-60525134-37">
        <path fill="none" d="M17.51,43.01 L 18.48 39.66 19.45 34.27 20.42 29.82 21.39 31.47 22.36 29.36 23.33 34.25 24.3 29.01 25.27 35.59 26.25 50.62 27.22 56.61 28.19 64.3 29.16 62.9 30.13 74.21 31.1 80.03 32.07 71.36 33.04 77.87 34.01 72.37 34.98 70.23 35.95 59.25 36.92 46.53 37.89 38.76 38.86 36.8 39.84 34.11 40.81 32.9 41.78 29.3 42.75 31.33 43.72 24.54 44.69 33.29 45.66 39.18 46.63 50.88 47.6 58.37 48.57 64.25 49.54 66.71 50.51 70.33 51.48 78.51 52.45 75.35 53.43 78.92 54.4 75.42 55.37 65.79 56.34 58.22 57.31 51.11 58.28 38.42 59.25 38.27 60.22 35.66 61.19 21 62.16 26.65 63.13 29.64 64.1 26.26 65.07 35.58 66.04 39.57 67.02 44.33 67.99 58.98 68.96 60.3 69.93 64.11 70.9 74.69 71.87 69.79 72.84 72.85 73.81 74.91 74.78 67 75.75 63.92 76.72 60.86 77.69 50.17 78.66 38 79.63 31.85 80.61 31.38 81.58 31.7 82.55 19.58 83.52 22.15 84.49 27.13 85.46 33.54 86.43 36.37 87.4 46.65 88.37 51.45 89.34 61.95 90.31 63.82 91.28 70.61 92.25 72.26 93.23 79.91 94.2 67.05 95.17 71.98 96.14 61.09 97.11 61.78 98.08 52.45 99.05 35.91 100.02 41.05 100.99 36.2 101.96 23.21 102.93 24.73 103.9 21.09 104.87 28.45 105.84 29.89 106.82 40.51 107.79 48.56 108.76 57.24 109.73 57.36 110.7 65.24 111.67 70.15 112.64 73.35 113.61 73.88" id="img-60525134-38"/>
      </g>
      <g stroke-width="0.71" fill="#000000" fill-opacity="0.000" class="geometry color_Observation_6" stroke-dasharray="none" stroke="#FF6765" id="img-60525134-39">
        <path fill="none" d="M17.51,52.7 L 18.48 56.05 19.45 53.44 20.42 50.1 21.39 55.85 22.36 50.73 23.33 56.38 24.3 38.89 25.27 42.78 26.25 62.14 27.22 62.95 28.19 67.69 29.16 55.71 30.13 71.46 31.1 79.15 32.07 61.1 33.04 76.75 34.01 71.47 34.98 75.49 35.95 63.68 36.92 49.31 37.89 44.79 38.86 50.85 39.84 53.5 40.81 56.49 41.78 51.54 42.75 54.53 43.72 36.65 44.69 46.99 45.66 49.38 46.63 62.04 47.6 65.84 48.57 67.02 49.54 62.88 50.51 63.41 51.48 75.98 52.45 69.14 53.43 79.1 54.4 77.98 55.37 67.15 56.34 62.22 57.31 59.1 58.28 44.7 59.25 54.3 60.22 56.98 61.19 32.9 62.16 46.28 63.13 51 64.1 39.76 65.07 51.09 66.04 49.59 67.02 48.31 67.99 66.44 68.96 58.55 69.93 57.24 70.9 71.83 71.87 58.42 72.84 64.23 73.81 71.33 74.78 61.54 75.75 63.94 76.72 68.11 77.69 57.85 78.66 44.45 79.63 41.95 80.61 48.8 81.58 54.49 82.55 32.16 83.52 35.84 84.49 41.16 85.46 46.53 86.43 42.62 87.4 52.32 88.37 50.76 89.34 61.31 90.31 56.22 91.28 63.38 92.25 63.24 93.23 78.42 94.2 55.87 95.17 71.93 96.14 58.82 97.11 70.55 98.08 63.03 99.05 40.85 100.02 60.84 100.99 58.79 101.96 37.72 102.93 42.45 103.9 33.55 104.87 43.45 105.84 38.73 106.82 50.32 107.79 55.51 108.76 61.74 109.73 51.59 110.7 58.62 111.67 62.18 112.64 65.34 113.61 66.46" id="img-60525134-40"/>
      </g>
      <g stroke-width="0.71" fill="#000000" fill-opacity="0.000" class="geometry color_Observation_5" stroke-dasharray="none" stroke="#BEA9FF" id="img-60525134-41">
        <path fill="none" d="M17.51,49.47 L 18.48 42.77 19.45 37.32 20.42 33.61 21.39 31.98 22.36 32.57 23.33 35.33 24.3 40.01 25.27 46.19 26.25 53.32 27.22 60.77 28.19 67.87 29.16 73.98 30.13 78.56 31.1 81.2 32.07 81.66 33.04 79.91 34.01 76.09 34.98 70.56 35.95 63.8 36.92 56.42 37.89 49.07 38.86 42.42 39.84 37.06 40.81 33.46 41.78 31.96 42.75 32.67 43.72 35.54 44.69 40.32 45.66 46.57 46.63 53.74 47.6 61.18 48.57 68.24 49.54 74.28 50.51 78.76 51.48 81.28 52.45 81.62 53.43 79.75 54.4 75.83 55.37 70.21 56.34 63.4 57.31 56 58.28 48.68 59.25 42.08 60.22 36.81 61.19 33.32 62.16 31.94 63.13 32.77 64.1 35.76 65.07 40.63 66.04 41.48 67.02 37.61 67.99 59.07 68.96 43.89 69.93 72.26 70.9 60.03 71.87 77.44 72.84 75.86 73.81 74.78 74.78 59.49 75.75 49.99 76.72 61.05 77.69 44.04 78.66 31.34 79.63 22.56 80.61 36.44 81.58 31.93 82.55 10.88 83.52 15.72 84.49 35.99 85.46 40.95 86.43 47.34 87.4 54.57 88.37 62 89.34 68.98 90.31 74.87 91.28 79.15 92.25 81.43 93.23 81.52 94.2 79.4 95.17 75.27 96.14 69.49 97.11 62.59 98.08 55.16 99.05 47.89 100.02 41.42 100.99 36.32 101.96 33.06 102.93 31.92 103.9 33.01 104.87 36.22 105.84 41.28 106.82 47.73 107.79 54.99 108.76 62.41 109.73 69.34 110.7 75.15 111.67 79.33 112.64 81.49 113.61 81.46" id="img-60525134-42"/>
      </g>
      <g stroke-width="0.71" fill="#000000" fill-opacity="0.000" class="geometry color_Observation_4" stroke-dasharray="none" stroke="#00B78D" id="img-60525134-43">
        <path fill="none" d="M17.51,65.62 L 18.48 62.26 19.45 59.54 20.42 57.68 21.39 56.87 22.36 57.16 23.33 58.54 24.3 60.88 25.27 63.97 26.25 67.54 27.22 71.26 28.19 74.81 29.16 77.87 30.13 80.16 31.1 81.48 32.07 81.71 33.04 80.83 34.01 78.93 34.98 76.16 35.95 72.78 36.92 69.09 37.89 65.42 38.86 62.09 39.84 59.41 40.81 57.61 41.78 56.86 42.75 57.21 43.72 58.65 44.69 61.04 45.66 64.16 46.63 67.75 47.6 71.47 48.57 75 49.54 78.02 50.51 80.26 51.48 81.52 52.45 81.69 53.43 80.75 54.4 78.79 55.37 75.98 56.34 72.58 57.31 68.88 58.28 65.22 59.25 61.92 60.22 59.28 61.19 57.54 62.16 56.85 63.13 57.27 64.1 58.76 65.07 61.2 66.04 53.4 67.02 34.88 67.99 66.62 68.96 25.74 69.93 73.54 70.9 42.51 71.87 73.72 72.84 70.23 73.81 71.07 74.78 46.53 75.75 36.07 76.72 68.49 77.69 45.59 78.66 31.14 79.63 23.38 80.61 58.92 81.58 54.96 82.55 14.74 83.52 22.99 84.49 58.87 85.46 61.36 86.43 64.55 87.4 68.16 88.37 71.88 89.34 75.37 90.31 78.31 91.28 80.45 92.25 81.59 93.23 81.64 94.2 80.58 95.17 78.51 96.14 75.63 97.11 72.17 98.08 68.46 99.05 64.82 100.02 61.59 100.99 59.04 101.96 57.41 102.93 56.84 103.9 57.38 104.87 58.99 105.84 61.52 106.82 64.74 107.79 68.37 108.76 72.09 109.73 75.55 110.7 78.46 111.67 80.54 112.64 81.63 113.61 81.61" id="img-60525134-44"/>
      </g>
      <g stroke-width="0.71" fill="#000000" fill-opacity="0.000" class="geometry color_Observation_3" stroke-dasharray="none" stroke="#FF6DAE" id="img-60525134-45">
        <path fill="none" d="M17.51,68.84 L 18.48 75.54 19.45 75.66 20.42 74.17 21.39 80.74 22.36 75.33 23.33 79.59 24.3 59.77 25.27 60.56 26.25 76.35 27.22 73.44 28.19 74.64 29.16 59.6 30.13 73.06 31.1 79.43 32.07 61.15 33.04 77.67 34.01 74.31 34.98 81.09 35.95 72.66 36.92 61.98 37.89 61.13 38.86 70.52 39.84 75.85 40.81 80.64 41.78 76.44 42.75 79.07 43.72 59.76 44.69 67.71 45.66 66.97 46.63 76.05 47.6 76.13 48.57 73.78 49.54 66.62 50.51 64.9 51.48 76.22 52.45 69.21 53.43 80.11 54.4 80.95 55.37 72.93 56.34 71.4 57.31 71.97 58.28 61.24 59.25 74.13 60.22 79.46 61.19 57.12 62.16 71.19 63.13 75.49 64.1 62.76 65.07 71.65 66.04 61.52 67.02 45.57 67.99 73.99 68.96 40.41 69.93 58.52 70.9 54.31 71.87 54.7 72.84 58.6 73.81 67.61 74.78 48.58 75.75 50.03 76.72 75.55 77.69 59.39 78.66 44.24 79.63 42.77 80.61 71.28 81.58 77.52 82.55 36.02 83.52 43.11 84.49 64.04 85.46 66.93 86.43 59.83 87.4 65.91 88.37 60.64 89.34 67.7 90.31 59.66 91.28 64.69 92.25 63.41 93.23 78.54 94.2 57.05 95.17 75.17 96.14 64.96 97.11 80.14 98.08 76.32 99.05 57.79 100.02 81.01 100.99 81.51 101.96 62.07 102.93 67.37 103.9 57.93 104.87 66.22 105.84 58.97 106.82 67.33 107.79 68.9 108.76 71.41 109.73 57.8 110.7 61.92 111.67 63.4 112.64 65.47 113.61 66.61" id="img-60525134-46"/>
      </g>
      <g stroke-width="0.71" fill="#000000" fill-opacity="0.000" class="geometry color_Observation_2" stroke-dasharray="none" stroke="#D4CA3A" id="img-60525134-47">
        <path fill="none" d="M17.51,68.84 L 18.48 75.54 19.45 75.66 20.42 74.17 21.39 80.74 22.36 75.33 23.33 79.59 24.3 59.77 25.27 60.56 26.25 76.35 27.22 73.44 28.19 74.64 29.16 59.6 30.13 73.06 31.1 79.43 32.07 61.15 33.04 77.67 34.01 74.31 34.98 81.09 35.95 72.66 36.92 61.98 37.89 61.13 38.86 70.52 39.84 75.85 40.81 80.64 41.78 76.44 42.75 79.07 43.72 59.76 44.69 67.71 45.66 66.97 46.63 76.05 47.6 76.13 48.57 73.78 49.54 66.62 50.51 64.9 51.48 76.22 52.45 69.21 53.43 80.11 54.4 80.95 55.37 72.93 56.34 71.4 57.31 71.97 58.28 61.24 59.25 74.13 60.22 79.46 61.19 57.12 62.16 71.19 63.13 75.49 64.1 62.76 65.07 71.65 66.04 61.52 67.02 45.57 67.99 73.99 68.96 40.41 69.93 58.52 70.9 54.31 71.87 54.7 72.84 58.6 73.81 67.61 74.78 48.58 75.75 50.03 76.72 75.55 77.69 59.39 78.66 44.24 79.63 42.77 80.61 71.28 81.58 77.52 82.55 36.02 83.52 43.11 84.49 64.04 85.46 66.93 86.43 59.83 87.4 65.91 88.37 60.64 89.34 67.7 90.31 59.66 91.28 64.69 92.25 63.41 93.23 78.54 94.2 57.05 95.17 75.17 96.14 64.96 97.11 80.14 98.08 76.32 99.05 57.79 100.02 81.01 100.99 81.51 101.96 62.07 102.93 67.37 103.9 57.93 104.87 66.22 105.84 58.97 106.82 67.33 107.79 68.9 108.76 71.41 109.73 57.8 110.7 61.92 111.67 63.4 112.64 65.47 113.61 66.61" id="img-60525134-48"/>
      </g>
      <g stroke-width="0.71" fill="#000000" fill-opacity="0.000" class="geometry color_Observation_1" stroke-dasharray="none" stroke="#00BFFF" id="img-60525134-49">
        <path fill="none" d="M17.51,59.16 L 18.48 59.15 19.45 56.49 20.42 53.89 21.39 56.36 22.36 53.95 23.33 57.46 24.3 49.89 25.27 53.37 26.25 64.84 27.22 67.11 28.19 71.25 29.16 66.79 30.13 75.81 31.1 80.31 32.07 71.41 33.04 78.79 34.01 75.2 34.98 75.83 35.95 68.23 36.92 59.2 37.89 55.1 38.86 56.47 39.84 56.46 40.81 57.05 41.78 54.2 42.75 55.87 43.72 47.65 44.69 54.01 45.66 56.77 46.63 64.89 47.6 68.66 48.57 71.01 49.54 70.45 50.51 71.83 51.48 78.75 52.45 75.42 53.43 79.93 54.4 78.39 55.37 71.57 56.34 67.4 57.31 63.99 58.28 54.96 59.25 58.11 60.22 58.13 61.19 45.22 62.16 51.56 63.13 54.13 64.1 49.26 65.07 56.14 66.04 51.5 67.02 41.59 67.99 66.53 68.96 42.15 69.93 65.39 70.9 57.17 71.87 66.07 72.84 67.23 73.81 71.2 74.78 54.04 75.75 50.01 76.72 68.3 77.69 51.72 78.66 37.79 79.63 32.67 80.61 53.86 81.58 54.72 82.55 23.45 83.52 29.42 84.49 50.02 85.46 53.94 86.43 53.58 87.4 60.24 88.37 61.32 89.34 68.34 90.31 67.27 91.28 71.92 92.25 72.42 93.23 80.03 94.2 68.22 95.17 75.22 96.14 67.22 97.11 71.36 98.08 65.74 99.05 52.84 100.02 61.22 100.99 58.91 101.96 47.56 102.93 49.65 103.9 45.47 104.87 51.22 105.84 50.13 106.82 57.53 107.79 61.94 108.76 66.91 109.73 63.57 110.7 68.54 111.67 71.36 112.64 73.48 113.61 74.03" id="img-60525134-50"/>
      </g>
    </g>
  </g>
</g>
  <g class="guide ylabels" font-size="2.82" font-family="'PT Sans Caption','Helvetica Neue','Helvetica',sans-serif" fill="#6C606B" id="img-60525134-51">
    <text x="13.54" y="81.76" text-anchor="end" dy="0.35em" id="img-60525134-52">0</text>
    <text x="13.54" y="56.84" text-anchor="end" dy="0.35em" id="img-60525134-53">1</text>
    <text x="13.54" y="31.92" text-anchor="end" dy="0.35em" id="img-60525134-54">2</text>
    <text x="13.54" y="7" text-anchor="end" dy="0.35em" id="img-60525134-55">3</text>
  </g>
  <g font-size="3.88" font-family="'PT Sans','Helvetica Neue','Helvetica',sans-serif" fill="#564A55" stroke="#000000" stroke-opacity="0.000" id="img-60525134-56">
    <text x="9.11" y="44.38" text-anchor="end" dy="0.35em" id="img-60525134-57">Y</text>
  </g>
</g>
<defs>
  <clipPath id="img-60525134-23">
  <path d="M14.54,5 L 115.61 5 115.61 83.76 14.54 83.76" />
</clipPath>
</defs>
</svg>
