<?xml version="1.0" encoding="UTF-8"?>
<svg xmlns="http://www.w3.org/2000/svg"
     xmlns:xlink="http://www.w3.org/1999/xlink"
     xmlns:gadfly="http://www.gadflyjl.org/ns"
     version="1.2"
     width="152.4mm" height="152.4mm" viewBox="0 0 152.4 152.4"
     stroke="none"
     fill="#000000"
     stroke-width="0.3"
     font-size="3.88"
>
<g class="plotroot xscalable yscalable" id="img-ec6d833f-1">
  <g font-size="3.88" font-family="'PT Sans','Helvetica Neue','Helvetica',sans-serif" fill="#564A55" stroke="#000000" stroke-opacity="0.000" id="img-ec6d833f-2">
    <text x="82.14" y="141.68" text-anchor="middle" dy="0.6em">X</text>
  </g>
  <g class="guide xlabels" font-size="2.82" font-family="'PT Sans Caption','Helvetica Neue','Helvetica',sans-serif" fill="#6C606B" id="img-ec6d833f-3">
    <text x="18.89" y="135.63" text-anchor="middle" dy="0.6em">0</text>
    <text x="82.14" y="135.63" text-anchor="middle" dy="0.6em">50</text>
    <text x="145.4" y="135.63" text-anchor="middle" dy="0.6em">100</text>
  </g>
<g clip-path="url(#img-ec6d833f-4)">
  <g id="img-ec6d833f-5">
    <g pointer-events="visible" opacity="1" fill="#000000" fill-opacity="0.000" stroke="#000000" stroke-opacity="0.000" class="guide background" id="img-ec6d833f-6">
      <rect x="16.89" y="112.19" width="130.51" height="22.45"/>
    </g>
    <g class="guide ygridlines xfixed" stroke-dasharray="0.5,0.5" stroke-width="0.2" stroke="#D0D0E0" id="img-ec6d833f-7">
      <path fill="none" d="M16.89,132.63 L 147.4 132.63"/>
      <path fill="none" d="M16.89,123.41 L 147.4 123.41"/>
      <path fill="none" d="M16.89,114.19 L 147.4 114.19"/>
    </g>
    <g class="guide xgridlines yfixed" stroke-dasharray="0.5,0.5" stroke-width="0.2" stroke="#D0D0E0" id="img-ec6d833f-8">
      <path fill="none" d="M18.89,112.19 L 18.89 134.63"/>
      <path fill="none" d="M82.14,112.19 L 82.14 134.63"/>
      <path fill="none" d="M145.4,112.19 L 145.4 134.63"/>
    </g>
    <g class="plotpanel" id="img-ec6d833f-9">
      <g stroke-width="0.71" fill="#000000" fill-opacity="0.000" class="geometry" stroke-dasharray="none" stroke="#00BFFF" id="img-ec6d833f-10">
        <path fill="none" d="M20.15,116.94 L 21.42 121.44 22.68 130.16 23.95 123.94 25.21 126.44 26.48 119.89 27.74 131.08 29.01 127.17 30.27 131.83 31.54 120.04 32.8 128.59 34.07 129.75 35.33 128.61 36.6 124.39 37.86 123.56 39.13 126.48 40.39 114.34 41.66 119.03 42.92 116.09 44.19 127.85 45.45 116.03 46.72 128.58 47.98 130.46 49.25 118.23 50.51 115.31 51.78 131.88 53.04 116.14 54.31 126.97 55.58 114.43 56.84 114.29 58.11 117.66 59.37 125.16 60.64 125.62 61.9 120.37 63.17 126.28 64.43 129.8 65.7 121.35 66.96 127.27 68.23 132.16 69.49 125.9 70.76 122.74 72.02 118.13 73.29 132.28 74.55 114.76 75.82 127.82 77.08 127.73 78.35 131.64 79.61 128.43 80.88 130.89 82.14 126.33 83.41 124.54 84.67 124.62 85.94 117.11 87.2 115.2 88.47 120.18 89.73 132.5 91 118.59 92.26 130.53 93.53 129.26 94.79 126.44 96.06 121.65 97.32 124.16 98.59 121.06 99.85 120.73 101.12 122.53 102.39 127.88 103.65 116.88 104.92 125.43 106.18 116.43 107.45 125.77 108.71 120.37 109.98 120.01 111.24 121.63 112.51 127.86 113.77 123.64 115.04 127.76 116.3 129.14 117.57 125.85 118.83 128.95 120.1 129.9 121.36 114.46 122.63 123.34 123.89 131.65 125.16 126.71 126.42 114.6 127.69 118.57 128.95 116.53 130.22 123.37 131.48 131.58 132.75 120.52 134.01 125.41 135.28 116.81 136.54 118.5 137.81 126.71 139.07 117.26 140.34 129.44 141.6 123.53 142.87 126.68 144.13 121.6 145.4 119.7"/>
      </g>
    </g>
  </g>
</g>
  <g class="guide ylabels" font-size="2.82" font-family="'PT Sans Caption','Helvetica Neue','Helvetica',sans-serif" fill="#6C606B" id="img-ec6d833f-11">
    <text x="15.89" y="132.63" text-anchor="end" dy="0.35em">0.0</text>
    <text x="15.89" y="123.41" text-anchor="end" dy="0.35em">0.5</text>
    <text x="15.89" y="114.19" text-anchor="end" dy="0.35em">1.0</text>
  </g>
  <g font-size="3.88" font-family="'PT Sans','Helvetica Neue','Helvetica',sans-serif" fill="#564A55" stroke="#000000" stroke-opacity="0.000" id="img-ec6d833f-12">
    <text x="9.11" y="123.41" text-anchor="end" dy="0.35em">Y</text>
  </g>
  <g font-size="3.88" font-family="'PT Sans','Helvetica Neue','Helvetica',sans-serif" fill="#564A55" stroke="#000000" stroke-opacity="0.000" id="img-ec6d833f-13">
    <text x="82.14" y="106.6" text-anchor="middle" dy="0.6em">Signal 3</text>
  </g>
</g>
<g class="plotroot xscalable yscalable" id="img-ec6d833f-14">
  <g font-size="3.88" font-family="'PT Sans','Helvetica Neue','Helvetica',sans-serif" fill="#564A55" stroke="#000000" stroke-opacity="0.000" id="img-ec6d833f-15">
    <text x="82.14" y="90.88" text-anchor="middle" dy="0.6em">X</text>
  </g>
  <g class="guide xlabels" font-size="2.82" font-family="'PT Sans Caption','Helvetica Neue','Helvetica',sans-serif" fill="#6C606B" id="img-ec6d833f-16">
    <text x="18.89" y="84.83" text-anchor="middle" dy="0.6em">0</text>
    <text x="82.14" y="84.83" text-anchor="middle" dy="0.6em">50</text>
    <text x="145.4" y="84.83" text-anchor="middle" dy="0.6em">100</text>
  </g>
<g clip-path="url(#img-ec6d833f-17)">
  <g id="img-ec6d833f-18">
    <g pointer-events="visible" opacity="1" fill="#000000" fill-opacity="0.000" stroke="#000000" stroke-opacity="0.000" class="guide background" id="img-ec6d833f-19">
      <rect x="16.89" y="61.39" width="130.51" height="22.45"/>
    </g>
    <g class="guide ygridlines xfixed" stroke-dasharray="0.5,0.5" stroke-width="0.2" stroke="#D0D0E0" id="img-ec6d833f-20">
      <path fill="none" d="M16.89,81.83 L 147.4 81.83"/>
      <path fill="none" d="M16.89,72.61 L 147.4 72.61"/>
      <path fill="none" d="M16.89,63.39 L 147.4 63.39"/>
    </g>
    <g class="guide xgridlines yfixed" stroke-dasharray="0.5,0.5" stroke-width="0.2" stroke="#D0D0E0" id="img-ec6d833f-21">
      <path fill="none" d="M18.89,61.39 L 18.89 83.83"/>
      <path fill="none" d="M82.14,61.39 L 82.14 83.83"/>
      <path fill="none" d="M145.4,61.39 L 145.4 83.83"/>
    </g>
    <g class="plotpanel" id="img-ec6d833f-22">
      <g stroke-width="0.71" fill="#000000" fill-opacity="0.000" class="geometry" stroke-dasharray="none" stroke="#00BFFF" id="img-ec6d833f-23">
        <path fill="none" d="M20.15,72.98 L 21.42 76.73 22.68 63.71 23.95 67.99 25.21 67 26.48 80.07 27.74 68.85 29.01 80.24 30.27 70.06 31.54 66.46 32.8 80.7 34.07 80.44 35.33 68.74 36.6 79.08 37.86 75.53 39.13 80.58 40.39 75.18 41.66 76.64 42.92 73.3 44.19 66.32 45.45 65.65 46.72 68.21 47.98 80.41 49.25 76.3 50.51 75.08 51.78 70.16 53.04 72.59 54.31 75.49 55.58 66.64 56.84 67.97 58.11 69.48 59.37 64.86 60.64 77.75 61.9 74.94 63.17 77.44 64.43 76.97 65.7 64.21 66.96 64.18 68.23 69.43 69.49 73.16 70.76 79.13 72.02 81.27 73.29 81.48 74.55 78.22 75.82 68.63 77.08 77.99 78.35 79.84 79.61 75.88 80.88 81.19 82.14 67.56 83.41 77.78 84.67 69.59 85.94 79.96 87.2 63.53 88.47 80.12 89.73 67.82 91 78.93 92.26 77.6 93.53 78.28 94.79 69.94 96.06 67.13 97.32 80.4 98.59 73.29 99.85 69.29 101.12 67.63 102.39 81.75 103.65 80.9 104.92 66.25 106.18 69.13 107.45 72.82 108.71 72.97 109.98 73.39 111.24 65.93 112.51 63.55 113.77 68.19 115.04 75.49 116.3 65.13 117.57 67.81 118.83 71.59 120.1 80.77 121.36 79.66 122.63 68.24 123.89 81.34 125.16 67.02 126.42 71.57 127.69 72.86 128.95 78.63 130.22 80.47 131.48 79.49 132.75 79.79 134.01 65.75 135.28 66.2 136.54 73.23 137.81 72.05 139.07 65.15 140.34 74.17 141.6 75.75 142.87 68.29 144.13 67.57 145.4 77.18"/>
      </g>
    </g>
  </g>
</g>
  <g class="guide ylabels" font-size="2.82" font-family="'PT Sans Caption','Helvetica Neue','Helvetica',sans-serif" fill="#6C606B" id="img-ec6d833f-24">
    <text x="15.89" y="81.83" text-anchor="end" dy="0.35em">0.0</text>
    <text x="15.89" y="72.61" text-anchor="end" dy="0.35em">0.5</text>
    <text x="15.89" y="63.39" text-anchor="end" dy="0.35em">1.0</text>
  </g>
  <g font-size="3.88" font-family="'PT Sans','Helvetica Neue','Helvetica',sans-serif" fill="#564A55" stroke="#000000" stroke-opacity="0.000" id="img-ec6d833f-25">
    <text x="9.11" y="72.61" text-anchor="end" dy="0.35em">Y</text>
  </g>
  <g font-size="3.88" font-family="'PT Sans','Helvetica Neue','Helvetica',sans-serif" fill="#564A55" stroke="#000000" stroke-opacity="0.000" id="img-ec6d833f-26">
    <text x="82.14" y="55.8" text-anchor="middle" dy="0.6em">Signal 2</text>
  </g>
</g>
<g class="plotroot xscalable yscalable" id="img-ec6d833f-27">
  <g font-size="3.88" font-family="'PT Sans','Helvetica Neue','Helvetica',sans-serif" fill="#564A55" stroke="#000000" stroke-opacity="0.000" id="img-ec6d833f-28">
    <text x="82.14" y="40.08" text-anchor="middle" dy="0.6em">X</text>
  </g>
  <g class="guide xlabels" font-size="2.82" font-family="'PT Sans Caption','Helvetica Neue','Helvetica',sans-serif" fill="#6C606B" id="img-ec6d833f-29">
    <text x="18.89" y="34.03" text-anchor="middle" dy="0.6em">0</text>
    <text x="82.14" y="34.03" text-anchor="middle" dy="0.6em">50</text>
    <text x="145.4" y="34.03" text-anchor="middle" dy="0.6em">100</text>
  </g>
<g clip-path="url(#img-ec6d833f-30)">
  <g id="img-ec6d833f-31">
    <g pointer-events="visible" opacity="1" fill="#000000" fill-opacity="0.000" stroke="#000000" stroke-opacity="0.000" class="guide background" id="img-ec6d833f-32">
      <rect x="16.89" y="10.59" width="130.51" height="22.45"/>
    </g>
    <g class="guide ygridlines xfixed" stroke-dasharray="0.5,0.5" stroke-width="0.2" stroke="#D0D0E0" id="img-ec6d833f-33">
      <path fill="none" d="M16.89,31.03 L 147.4 31.03"/>
      <path fill="none" d="M16.89,21.81 L 147.4 21.81"/>
      <path fill="none" d="M16.89,12.59 L 147.4 12.59"/>
    </g>
    <g class="guide xgridlines yfixed" stroke-dasharray="0.5,0.5" stroke-width="0.2" stroke="#D0D0E0" id="img-ec6d833f-34">
      <path fill="none" d="M18.89,10.59 L 18.89 33.03"/>
      <path fill="none" d="M82.14,10.59 L 82.14 33.03"/>
      <path fill="none" d="M145.4,10.59 L 145.4 33.03"/>
    </g>
    <g class="plotpanel" id="img-ec6d833f-35">
      <g stroke-width="0.71" fill="#000000" fill-opacity="0.000" class="geometry" stroke-dasharray="none" stroke="#00BFFF" id="img-ec6d833f-36">
        <path fill="none" d="M20.15,21.47 L 21.42 26.43 22.68 26.52 23.95 25.42 25.21 30.28 26.48 26.27 27.74 29.43 29.01 14.76 30.27 15.34 31.54 27.03 32.8 24.88 34.07 25.76 35.33 14.63 36.6 24.6 37.86 29.31 39.13 15.78 40.39 28.01 41.66 25.52 42.92 30.54 44.19 24.3 45.45 16.39 46.72 15.77 47.98 22.71 49.25 26.66 50.51 30.21 51.78 27.1 53.04 29.05 54.31 14.75 55.58 20.63 56.84 20.09 58.11 26.81 59.37 26.87 60.64 25.13 61.9 19.83 63.17 18.56 64.43 26.94 65.7 21.75 66.96 29.81 68.23 30.43 69.49 24.5 70.76 23.37 72.02 23.79 73.29 15.84 74.55 25.39 75.82 29.33 77.08 12.79 78.35 23.21 79.61 26.4 80.88 16.97 82.14 23.55 83.41 20.11 84.67 16.49 85.94 27.16 87.2 18.72 88.47 15.54 89.73 24.72 91 13.9 92.26 18.12 93.53 24.12 94.79 18.37 96.06 22.25 97.32 27.88 98.59 23.02 99.85 15.8 101.12 16.37 102.39 23.36 103.65 28.83 104.92 12.76 106.18 15.13 107.45 17.92 108.71 20.06 109.98 14.8 111.24 19.3 112.51 15.4 113.77 20.63 115.04 14.68 116.3 18.4 117.57 17.45 118.83 28.65 120.1 12.74 121.36 26.16 122.63 18.6 123.89 29.84 125.16 27.01 126.42 13.29 127.69 30.48 128.95 30.85 130.22 16.46 131.48 20.38 132.75 13.39 134.01 19.53 135.28 14.17 136.54 20.35 137.81 21.52 139.07 23.37 140.34 13.3 141.6 16.35 142.87 17.44 144.13 18.98 145.4 19.82"/>
      </g>
    </g>
  </g>
</g>
  <g class="guide ylabels" font-size="2.82" font-family="'PT Sans Caption','Helvetica Neue','Helvetica',sans-serif" fill="#6C606B" id="img-ec6d833f-37">
    <text x="15.89" y="31.03" text-anchor="end" dy="0.35em">0.0</text>
    <text x="15.89" y="21.81" text-anchor="end" dy="0.35em">0.5</text>
    <text x="15.89" y="12.59" text-anchor="end" dy="0.35em">1.0</text>
  </g>
  <g font-size="3.88" font-family="'PT Sans','Helvetica Neue','Helvetica',sans-serif" fill="#564A55" stroke="#000000" stroke-opacity="0.000" id="img-ec6d833f-38">
    <text x="9.11" y="21.81" text-anchor="end" dy="0.35em">Y</text>
  </g>
  <g font-size="3.88" font-family="'PT Sans','Helvetica Neue','Helvetica',sans-serif" fill="#564A55" stroke="#000000" stroke-opacity="0.000" id="img-ec6d833f-39">
    <text x="82.14" y="5" text-anchor="middle" dy="0.6em">Signal 1</text>
  </g>
</g>
<defs>
  <clipPath id="img-ec6d833f-17">
  <path d="M16.89,61.39 L 147.4 61.39 147.4 83.83 16.89 83.83" />
</clipPath>
  <clipPath id="img-ec6d833f-30">
  <path d="M16.89,10.59 L 147.4 10.59 147.4 33.03 16.89 33.03" />
</clipPath>
  <clipPath id="img-ec6d833f-4">
  <path d="M16.89,112.19 L 147.4 112.19 147.4 134.63 16.89 134.63" />
</clipPath>
</defs>
</svg>
