<?xml version="1.0" encoding="UTF-8"?>
<svg xmlns="http://www.w3.org/2000/svg"
     xmlns:xlink="http://www.w3.org/1999/xlink"
     xmlns:gadfly="http://www.gadflyjl.org/ns"
     version="1.2"
     width="152.4mm" height="101.6mm" viewBox="0 0 152.4 101.6"
     stroke="none"
     fill="#000000"
     stroke-width="0.3"
     font-size="3.88"
>
<g class="plotroot xscalable yscalable" id="img-e33a5a0b-1">
  <g font-size="3.88" font-family="'PT Sans','Helvetica Neue','Helvetica',sans-serif" fill="#564A55" stroke="#000000" stroke-opacity="0.000" id="img-e33a5a0b-2">
    <text x="82.29" y="89.99" text-anchor="middle" dy="0.6em">X</text>
  </g>
  <g class="guide xlabels" font-size="2.82" font-family="'PT Sans Caption','Helvetica Neue','Helvetica',sans-serif" fill="#6C606B" id="img-e33a5a0b-3">
    <text x="19.18" y="83.32" text-anchor="middle" dy="0.6em">0</text>
    <text x="82.29" y="83.32" text-anchor="middle" dy="0.6em">50</text>
    <text x="145.4" y="83.32" text-anchor="middle" dy="0.6em">100</text>
  </g>
<g clip-path="url(#img-e33a5a0b-4)">
  <g id="img-e33a5a0b-5">
    <g pointer-events="visible" opacity="1" fill="#000000" fill-opacity="0.000" stroke="#000000" stroke-opacity="0.000" class="guide background" id="img-e33a5a0b-6">
      <rect x="17.18" y="63.41" width="130.22" height="18.9"/>
    </g>
    <g class="guide ygridlines xfixed" stroke-dasharray="0.5,0.5" stroke-width="0.2" stroke="#D0D0E0" id="img-e33a5a0b-7">
      <path fill="none" d="M17.18,80.32 L 147.4 80.32"/>
      <path fill="none" d="M17.18,76.59 L 147.4 76.59"/>
      <path fill="none" d="M17.18,72.86 L 147.4 72.86"/>
      <path fill="none" d="M17.18,69.14 L 147.4 69.14"/>
      <path fill="none" d="M17.18,65.41 L 147.4 65.41"/>
    </g>
    <g class="guide xgridlines yfixed" stroke-dasharray="0.5,0.5" stroke-width="0.2" stroke="#D0D0E0" id="img-e33a5a0b-8">
      <path fill="none" d="M19.18,63.41 L 19.18 82.32"/>
      <path fill="none" d="M82.29,63.41 L 82.29 82.32"/>
      <path fill="none" d="M145.4,63.41 L 145.4 82.32"/>
    </g>
    <g class="plotpanel" id="img-e33a5a0b-9">
      <g stroke-width="0.3" fill="#000000" fill-opacity="0.000" class="geometry" stroke-dasharray="none" stroke="#00BFFF" id="img-e33a5a0b-10">
        <path fill="none" d="M20.45,74.59 L 21.71 77.01 22.97 68.5 24.23 71.3 25.49 70.62 26.76 79.2 28.02 71.84 29.28 79.39 30.54 72.73 31.8 70.29 33.07 79.62 34.33 79.44 35.59 71.87 36.85 78.56 38.12 76.2 39.38 79.61 40.64 75.99 41.9 76.96 43.16 74.74 44.43 70.22 45.69 69.84 46.95 71.52 48.21 79.45 49.48 76.73 50.74 75.91 52 72.71 53.26 74.28 54.52 76.29 55.79 70.45 57.05 71.33 58.31 72.26 59.57 69.25 60.83 77.69 62.1 75.89 63.36 77.53 64.62 77.17 65.88 68.86 67.15 68.78 68.41 72.21 69.67 74.69 70.93 78.6 72.19 80 73.46 80.19 74.72 78 75.98 71.69 77.24 77.94 78.51 79.07 79.77 76.46 81.03 80 82.29 71.03 83.55 77.74 84.82 72.42 86.08 79.12 87.34 68.44 88.6 79.31 89.86 71.2 91.13 78.54 92.39 77.64 93.65 78.04 94.91 72.63 96.18 70.76 97.44 79.4 98.7 74.79 99.96 72.23 101.22 71.13 102.49 80.32 103.75 79.72 105.01 70.26 106.27 72.12 107.53 74.52 108.8 74.6 110.06 74.92 111.32 70 112.58 68.47 113.85 71.47 115.11 76.29 116.37 69.49 117.63 71.25 118.89 73.64 120.16 79.76 121.42 78.93 122.68 71.52 123.94 80 125.21 70.65 126.47 73.74 127.73 74.45 128.99 78.22 130.25 79.53 131.52 78.86 132.78 79.11 134.04 69.88 135.3 70.22 136.56 74.77 137.83 73.99 139.09 69.46 140.35 75.44 141.61 76.44 142.88 71.56 144.14 71.07 145.4 77.35"/>
      </g>
    </g>
  </g>
</g>
  <g class="guide ylabels" font-size="2.82" font-family="'PT Sans Caption','Helvetica Neue','Helvetica',sans-serif" fill="#6C606B" id="img-e33a5a0b-11">
    <text x="16.18" y="80.32" text-anchor="end" dy="0.35em">0.0</text>
    <text x="16.18" y="76.59" text-anchor="end" dy="0.35em">0.1</text>
    <text x="16.18" y="72.86" text-anchor="end" dy="0.35em">0.2</text>
    <text x="16.18" y="69.14" text-anchor="end" dy="0.35em">0.3</text>
    <text x="16.18" y="65.41" text-anchor="end" dy="0.35em">0.4</text>
  </g>
  <g font-size="3.88" font-family="'PT Sans','Helvetica Neue','Helvetica',sans-serif" fill="#564A55" stroke="#000000" stroke-opacity="0.000" id="img-e33a5a0b-12">
    <text x="9.16" y="72.86" text-anchor="end" dy="0.35em">Y</text>
  </g>
  <g font-size="3.88" font-family="'PT Sans','Helvetica Neue','Helvetica',sans-serif" fill="#564A55" stroke="#000000" stroke-opacity="0.000" id="img-e33a5a0b-13">
    <text x="82.29" y="61.41" text-anchor="middle">Source 2</text>
  </g>
</g>
<g class="plotroot xscalable yscalable" id="img-e33a5a0b-14">
  <g font-size="3.88" font-family="'PT Sans','Helvetica Neue','Helvetica',sans-serif" fill="#564A55" stroke="#000000" stroke-opacity="0.000" id="img-e33a5a0b-15">
    <text x="83.13" y="39.19" text-anchor="middle" dy="0.6em">X</text>
  </g>
  <g class="guide xlabels" font-size="2.82" font-family="'PT Sans Caption','Helvetica Neue','Helvetica',sans-serif" fill="#6C606B" id="img-e33a5a0b-16">
    <text x="20.86" y="32.52" text-anchor="middle" dy="0.6em">0</text>
    <text x="83.13" y="32.52" text-anchor="middle" dy="0.6em">50</text>
    <text x="145.4" y="32.52" text-anchor="middle" dy="0.6em">100</text>
  </g>
<g clip-path="url(#img-e33a5a0b-17)">
  <g id="img-e33a5a0b-18">
    <g pointer-events="visible" opacity="1" fill="#000000" fill-opacity="0.000" stroke="#000000" stroke-opacity="0.000" class="guide background" id="img-e33a5a0b-19">
      <rect x="18.86" y="12.61" width="128.54" height="18.9"/>
    </g>
    <g class="guide ygridlines xfixed" stroke-dasharray="0.5,0.5" stroke-width="0.2" stroke="#D0D0E0" id="img-e33a5a0b-20">
      <path fill="none" d="M18.86,29.52 L 147.4 29.52"/>
      <path fill="none" d="M18.86,25.79 L 147.4 25.79"/>
      <path fill="none" d="M18.86,22.06 L 147.4 22.06"/>
      <path fill="none" d="M18.86,18.34 L 147.4 18.34"/>
      <path fill="none" d="M18.86,14.61 L 147.4 14.61"/>
    </g>
    <g class="guide xgridlines yfixed" stroke-dasharray="0.5,0.5" stroke-width="0.2" stroke="#D0D0E0" id="img-e33a5a0b-21">
      <path fill="none" d="M20.86,12.61 L 20.86 31.52"/>
      <path fill="none" d="M83.13,12.61 L 83.13 31.52"/>
      <path fill="none" d="M145.4,12.61 L 145.4 31.52"/>
    </g>
    <g class="plotpanel" id="img-e33a5a0b-22">
      <g stroke-width="0.3" fill="#000000" fill-opacity="0.000" class="geometry" stroke-dasharray="none" stroke="#00BFFF" id="img-e33a5a0b-23">
        <path fill="none" d="M22.1,23.2 L 23.35 26.34 24.59 24.19 25.84 24.35 27.08 26.64 28.33 26.82 29.57 26.53 30.82 21.03 32.07 19.62 33.31 24.91 34.56 26.22 35.8 26.62 37.05 19.03 38.29 25.8 39.54 27.59 40.78 21.6 42.03 26.87 43.27 25.86 44.52 27.83 45.77 23.51 47.01 19.41 48.26 19.52 49.5 25.08 50.75 26.38 51.99 27.96 53.24 25.57 54.48 26.96 55.73 20.23 56.97 21.71 58.22 21.66 59.47 25.31 60.71 24.56 61.96 25.85 63.2 22.7 64.45 22.48 65.69 26.63 66.94 21.87 68.18 25.93 69.43 27.13 70.67 24.76 71.92 25.19 73.16 25.77 74.41 21.79 75.66 26.06 76.9 26.44 78.15 19.66 79.39 25.23 80.64 26.17 81.88 22.31 83.13 23.34 84.37 23.32 85.62 20.12 86.86 27.24 88.11 20.23 89.36 21.41 90.6 23.98 91.85 20.38 93.09 22.29 94.34 25.43 95.58 21.12 96.83 22.61 98.07 27.68 99.32 24.04 100.56 19.72 101.81 19.73 103.06 25.63 104.3 28.24 105.55 17.67 106.79 19.35 108.04 21.38 109.28 22.49 110.53 19.9 111.77 20.92 113.02 18.55 114.26 21.97 115.51 20.19 116.76 20.33 118 20.3 119.25 26.59 120.49 20.1 121.74 26.69 122.98 20.95 124.23 28.83 125.47 25 126.72 18.84 127.96 27.73 129.21 28.88 130.45 21.93 131.7 23.75 132.95 20.27 134.19 21.01 135.44 18.38 136.68 22.68 137.93 23.07 139.17 22.84 140.42 19.27 141.66 21.08 142.91 20.38 144.15 21.03 145.4 23.07"/>
      </g>
    </g>
  </g>
</g>
  <g class="guide ylabels" font-size="2.82" font-family="'PT Sans Caption','Helvetica Neue','Helvetica',sans-serif" fill="#6C606B" id="img-e33a5a0b-24">
    <text x="17.86" y="29.52" text-anchor="end" dy="0.35em">0.00</text>
    <text x="17.86" y="25.79" text-anchor="end" dy="0.35em">0.05</text>
    <text x="17.86" y="22.06" text-anchor="end" dy="0.35em">0.10</text>
    <text x="17.86" y="18.34" text-anchor="end" dy="0.35em">0.15</text>
    <text x="17.86" y="14.61" text-anchor="end" dy="0.35em">0.20</text>
  </g>
  <g font-size="3.88" font-family="'PT Sans','Helvetica Neue','Helvetica',sans-serif" fill="#564A55" stroke="#000000" stroke-opacity="0.000" id="img-e33a5a0b-25">
    <text x="9.16" y="22.06" text-anchor="end" dy="0.35em">Y</text>
  </g>
  <g font-size="3.88" font-family="'PT Sans','Helvetica Neue','Helvetica',sans-serif" fill="#564A55" stroke="#000000" stroke-opacity="0.000" id="img-e33a5a0b-26">
    <text x="83.13" y="10.61" text-anchor="middle">Source 1</text>
  </g>
</g>
<defs>
  <clipPath id="img-e33a5a0b-4">
  <path d="M17.18,63.41 L 147.4 63.41 147.4 82.32 17.18 82.32" />
</clipPath>
  <clipPath id="img-e33a5a0b-17">
  <path d="M18.86,12.61 L 147.4 12.61 147.4 31.52 18.86 31.52" />
</clipPath>
</defs>
</svg>
