<?xml version="1.0" encoding="UTF-8"?>
<svg xmlns="http://www.w3.org/2000/svg"
     xmlns:xlink="http://www.w3.org/1999/xlink"
     xmlns:gadfly="http://www.gadflyjl.org/ns"
     version="1.2"
     width="152.4mm" height="152.4mm" viewBox="0 0 152.4 152.4"
     stroke="none"
     fill="#000000"
     stroke-width="0.3"
     font-size="3.88"
>
<g class="plotroot xscalable yscalable" id="img-ec6d833f-1">
  <g font-size="3.88" font-family="'PT Sans','Helvetica Neue','Helvetica',sans-serif" fill="#564A55" stroke="#000000" stroke-opacity="0.000" id="img-ec6d833f-2">
    <text x="82.29" y="140.79" text-anchor="middle" dy="0.6em">X</text>
  </g>
  <g class="guide xlabels" font-size="2.82" font-family="'PT Sans Caption','Helvetica Neue','Helvetica',sans-serif" fill="#6C606B" id="img-ec6d833f-3">
    <text x="19.18" y="134.11" text-anchor="middle" dy="0.6em">0</text>
    <text x="82.29" y="134.11" text-anchor="middle" dy="0.6em">50</text>
    <text x="145.4" y="134.11" text-anchor="middle" dy="0.6em">100</text>
  </g>
<g clip-path="url(#img-ec6d833f-4)">
  <g id="img-ec6d833f-5">
    <g pointer-events="visible" opacity="1" fill="#000000" fill-opacity="0.000" stroke="#000000" stroke-opacity="0.000" class="guide background" id="img-ec6d833f-6">
      <rect x="17.18" y="114.21" width="130.22" height="18.9"/>
    </g>
    <g class="guide ygridlines xfixed" stroke-dasharray="0.5,0.5" stroke-width="0.2" stroke="#D0D0E0" id="img-ec6d833f-7">
      <path fill="none" d="M17.18,131.11 L 147.4 131.11"/>
      <path fill="none" d="M17.18,123.66 L 147.4 123.66"/>
      <path fill="none" d="M17.18,116.21 L 147.4 116.21"/>
    </g>
    <g class="guide xgridlines yfixed" stroke-dasharray="0.5,0.5" stroke-width="0.2" stroke="#D0D0E0" id="img-ec6d833f-8">
      <path fill="none" d="M19.18,114.21 L 19.18 133.11"/>
      <path fill="none" d="M82.29,114.21 L 82.29 133.11"/>
      <path fill="none" d="M145.4,114.21 L 145.4 133.11"/>
    </g>
    <g class="plotpanel" id="img-ec6d833f-9">
      <g stroke-width="0.3" fill="#000000" fill-opacity="0.000" class="geometry" stroke-dasharray="none" stroke="#00BFFF" id="img-ec6d833f-10">
        <path fill="none" d="M20.45,118.44 L 21.71 122.07 22.97 129.12 24.23 124.09 25.49 126.11 26.76 120.82 28.02 129.86 29.28 126.7 30.54 130.47 31.8 120.94 33.07 127.85 34.33 128.79 35.59 127.87 36.85 124.45 38.12 123.78 39.38 126.14 40.64 116.33 41.9 120.13 43.16 117.75 44.43 127.25 45.69 117.7 46.95 127.84 48.21 129.36 49.48 119.48 50.74 117.12 52 130.51 53.26 117.79 54.52 126.54 55.79 116.41 57.05 116.29 58.31 119.02 59.57 125.08 60.83 125.45 62.1 121.21 63.36 125.98 64.62 128.83 65.88 122 67.15 126.78 68.41 130.73 69.67 125.67 70.93 123.12 72.19 119.4 73.46 130.83 74.72 116.68 75.98 127.23 77.24 127.16 78.51 130.31 79.77 127.72 81.03 129.71 82.29 126.03 83.55 124.58 84.82 124.64 86.08 118.58 87.34 117.03 88.6 121.06 89.86 131.01 91.13 119.77 92.39 129.42 93.65 128.39 94.91 126.11 96.18 122.25 97.44 124.27 98.7 121.76 99.96 121.5 101.22 122.95 102.49 127.27 103.75 118.39 105.01 125.3 106.27 118.03 107.53 125.57 108.8 121.21 110.06 120.92 111.32 122.22 112.58 127.26 113.85 123.85 115.11 127.18 116.37 128.29 117.63 125.63 118.89 128.14 120.16 128.9 121.42 116.43 122.68 123.61 123.94 130.32 125.21 126.33 126.47 116.55 127.73 119.76 128.99 118.11 130.25 123.63 131.52 130.26 132.78 121.33 134.04 125.28 135.3 118.33 136.56 119.69 137.83 126.33 139.09 118.7 140.35 128.53 141.61 123.76 142.88 126.3 144.14 122.2 145.4 120.66"/>
      </g>
    </g>
  </g>
</g>
  <g class="guide ylabels" font-size="2.82" font-family="'PT Sans Caption','Helvetica Neue','Helvetica',sans-serif" fill="#6C606B" id="img-ec6d833f-11">
    <text x="16.18" y="131.11" text-anchor="end" dy="0.35em">0.0</text>
    <text x="16.18" y="123.66" text-anchor="end" dy="0.35em">0.5</text>
    <text x="16.18" y="116.21" text-anchor="end" dy="0.35em">1.0</text>
  </g>
  <g font-size="3.88" font-family="'PT Sans','Helvetica Neue','Helvetica',sans-serif" fill="#564A55" stroke="#000000" stroke-opacity="0.000" id="img-ec6d833f-12">
    <text x="9.16" y="123.66" text-anchor="end" dy="0.35em">Y</text>
  </g>
  <g font-size="3.88" font-family="'PT Sans','Helvetica Neue','Helvetica',sans-serif" fill="#564A55" stroke="#000000" stroke-opacity="0.000" id="img-ec6d833f-13">
    <text x="82.29" y="112.21" text-anchor="middle">Source 3</text>
  </g>
</g>
<g class="plotroot xscalable yscalable" id="img-ec6d833f-14">
  <g font-size="3.88" font-family="'PT Sans','Helvetica Neue','Helvetica',sans-serif" fill="#564A55" stroke="#000000" stroke-opacity="0.000" id="img-ec6d833f-15">
    <text x="82.29" y="89.99" text-anchor="middle" dy="0.6em">X</text>
  </g>
  <g class="guide xlabels" font-size="2.82" font-family="'PT Sans Caption','Helvetica Neue','Helvetica',sans-serif" fill="#6C606B" id="img-ec6d833f-16">
    <text x="19.18" y="83.31" text-anchor="middle" dy="0.6em">0</text>
    <text x="82.29" y="83.31" text-anchor="middle" dy="0.6em">50</text>
    <text x="145.4" y="83.31" text-anchor="middle" dy="0.6em">100</text>
  </g>
<g clip-path="url(#img-ec6d833f-17)">
  <g id="img-ec6d833f-18">
    <g pointer-events="visible" opacity="1" fill="#000000" fill-opacity="0.000" stroke="#000000" stroke-opacity="0.000" class="guide background" id="img-ec6d833f-19">
      <rect x="17.18" y="63.41" width="130.22" height="18.9"/>
    </g>
    <g class="guide ygridlines xfixed" stroke-dasharray="0.5,0.5" stroke-width="0.2" stroke="#D0D0E0" id="img-ec6d833f-20">
      <path fill="none" d="M17.18,80.31 L 147.4 80.31"/>
      <path fill="none" d="M17.18,72.86 L 147.4 72.86"/>
      <path fill="none" d="M17.18,65.41 L 147.4 65.41"/>
    </g>
    <g class="guide xgridlines yfixed" stroke-dasharray="0.5,0.5" stroke-width="0.2" stroke="#D0D0E0" id="img-ec6d833f-21">
      <path fill="none" d="M19.18,63.41 L 19.18 82.31"/>
      <path fill="none" d="M82.29,63.41 L 82.29 82.31"/>
      <path fill="none" d="M145.4,63.41 L 145.4 82.31"/>
    </g>
    <g class="plotpanel" id="img-ec6d833f-22">
      <g stroke-width="0.3" fill="#000000" fill-opacity="0.000" class="geometry" stroke-dasharray="none" stroke="#00BFFF" id="img-ec6d833f-23">
        <path fill="none" d="M20.45,73.16 L 21.71 76.2 22.97 65.68 24.23 69.13 25.49 68.33 26.76 78.89 28.02 69.83 29.28 79.02 30.54 70.8 31.8 67.89 33.07 79.4 34.33 79.19 35.59 69.74 36.85 78.09 38.12 75.22 39.38 79.3 40.64 74.94 41.9 76.12 43.16 73.42 44.43 67.78 45.69 67.24 46.95 69.31 48.21 79.17 49.48 75.84 50.74 74.86 52 70.88 53.26 72.85 54.52 75.19 55.79 68.04 57.05 69.11 58.31 70.33 59.57 66.61 60.83 77.02 62.1 74.74 63.36 76.76 64.62 76.39 65.88 66.08 67.15 66.05 68.41 70.3 69.67 73.31 70.93 78.13 72.19 79.86 73.46 80.03 74.72 77.4 75.98 69.65 77.24 77.21 78.51 78.7 79.77 75.51 81.03 79.8 82.29 68.78 83.55 77.04 84.82 70.42 86.08 78.8 87.34 65.53 88.6 78.93 89.86 69 91.13 77.97 92.39 76.9 93.65 77.44 94.91 70.71 96.18 68.43 97.44 79.15 98.7 73.41 99.96 70.18 101.22 68.84 102.49 80.24 103.75 79.56 105.01 67.73 106.27 70.05 107.53 73.03 108.8 73.16 110.06 73.5 111.32 67.47 112.58 65.54 113.85 69.29 115.11 75.19 116.37 66.82 117.63 68.99 118.89 72.04 120.16 79.46 121.42 78.56 122.68 69.33 123.94 79.92 125.21 68.35 126.47 72.03 127.73 73.07 128.99 77.73 130.25 79.21 131.52 78.42 132.78 78.66 134.04 67.32 135.3 67.69 136.56 73.36 137.83 72.41 139.09 66.83 140.35 74.12 141.61 75.4 142.88 69.37 144.14 68.79 145.4 76.55"/>
      </g>
    </g>
  </g>
</g>
  <g class="guide ylabels" font-size="2.82" font-family="'PT Sans Caption','Helvetica Neue','Helvetica',sans-serif" fill="#6C606B" id="img-ec6d833f-24">
    <text x="16.18" y="80.31" text-anchor="end" dy="0.35em">0.0</text>
    <text x="16.18" y="72.86" text-anchor="end" dy="0.35em">0.5</text>
    <text x="16.18" y="65.41" text-anchor="end" dy="0.35em">1.0</text>
  </g>
  <g font-size="3.88" font-family="'PT Sans','Helvetica Neue','Helvetica',sans-serif" fill="#564A55" stroke="#000000" stroke-opacity="0.000" id="img-ec6d833f-25">
    <text x="9.16" y="72.86" text-anchor="end" dy="0.35em">Y</text>
  </g>
  <g font-size="3.88" font-family="'PT Sans','Helvetica Neue','Helvetica',sans-serif" fill="#564A55" stroke="#000000" stroke-opacity="0.000" id="img-ec6d833f-26">
    <text x="82.29" y="61.41" text-anchor="middle">Source 2</text>
  </g>
</g>
<g class="plotroot xscalable yscalable" id="img-ec6d833f-27">
  <g font-size="3.88" font-family="'PT Sans','Helvetica Neue','Helvetica',sans-serif" fill="#564A55" stroke="#000000" stroke-opacity="0.000" id="img-ec6d833f-28">
    <text x="82.29" y="39.19" text-anchor="middle" dy="0.6em">X</text>
  </g>
  <g class="guide xlabels" font-size="2.82" font-family="'PT Sans Caption','Helvetica Neue','Helvetica',sans-serif" fill="#6C606B" id="img-ec6d833f-29">
    <text x="19.18" y="32.51" text-anchor="middle" dy="0.6em">0</text>
    <text x="82.29" y="32.51" text-anchor="middle" dy="0.6em">50</text>
    <text x="145.4" y="32.51" text-anchor="middle" dy="0.6em">100</text>
  </g>
<g clip-path="url(#img-ec6d833f-30)">
  <g id="img-ec6d833f-31">
    <g pointer-events="visible" opacity="1" fill="#000000" fill-opacity="0.000" stroke="#000000" stroke-opacity="0.000" class="guide background" id="img-ec6d833f-32">
      <rect x="17.18" y="12.61" width="130.22" height="18.9"/>
    </g>
    <g class="guide ygridlines xfixed" stroke-dasharray="0.5,0.5" stroke-width="0.2" stroke="#D0D0E0" id="img-ec6d833f-33">
      <path fill="none" d="M17.18,29.51 L 147.4 29.51"/>
      <path fill="none" d="M17.18,22.06 L 147.4 22.06"/>
      <path fill="none" d="M17.18,14.61 L 147.4 14.61"/>
    </g>
    <g class="guide xgridlines yfixed" stroke-dasharray="0.5,0.5" stroke-width="0.2" stroke="#D0D0E0" id="img-ec6d833f-34">
      <path fill="none" d="M19.18,12.61 L 19.18 31.51"/>
      <path fill="none" d="M82.29,12.61 L 82.29 31.51"/>
      <path fill="none" d="M145.4,12.61 L 145.4 31.51"/>
    </g>
    <g class="plotpanel" id="img-ec6d833f-35">
      <g stroke-width="0.3" fill="#000000" fill-opacity="0.000" class="geometry" stroke-dasharray="none" stroke="#00BFFF" id="img-ec6d833f-36">
        <path fill="none" d="M20.45,21.79 L 21.71 25.8 22.97 25.87 24.23 24.98 25.49 28.91 26.76 25.67 28.02 28.22 29.28 16.36 30.54 16.84 31.8 26.28 33.07 24.54 34.33 25.26 35.59 16.26 36.85 24.31 38.12 28.12 39.38 17.19 40.64 27.07 41.9 25.06 43.16 29.12 44.43 24.07 45.69 17.69 46.95 17.18 48.21 22.79 49.48 25.98 50.74 28.85 52 26.34 53.26 27.91 54.52 16.36 55.79 21.11 57.05 20.67 58.31 26.1 59.57 26.15 60.83 24.75 62.1 20.46 63.36 19.44 64.62 26.2 65.88 22.01 67.15 28.53 68.41 29.03 69.67 24.23 70.93 23.32 72.19 23.66 73.46 17.24 74.72 24.96 75.98 28.14 77.24 14.78 78.51 23.2 79.77 25.77 81.03 18.15 82.29 23.47 83.55 20.69 84.82 17.77 86.08 26.38 87.34 19.57 88.6 17 89.86 24.42 91.13 15.67 92.39 19.09 93.65 23.93 94.91 19.28 96.18 22.42 97.44 26.96 98.7 23.04 99.96 17.21 101.22 17.67 102.49 23.32 103.75 27.73 105.01 14.75 106.27 16.67 107.53 18.92 108.8 20.65 110.06 16.4 111.32 20.04 112.58 16.89 113.85 21.11 115.11 16.3 116.37 19.31 117.63 18.54 118.89 27.59 120.16 14.74 121.42 25.58 122.68 19.47 123.94 28.55 125.21 26.27 126.47 15.18 127.73 29.07 128.99 29.37 130.25 17.74 131.52 20.91 132.78 15.26 134.04 20.22 135.3 15.89 136.56 20.89 137.83 21.83 139.09 23.33 140.35 15.19 141.61 17.65 142.88 18.53 144.14 19.78 145.4 20.46"/>
      </g>
    </g>
  </g>
</g>
  <g class="guide ylabels" font-size="2.82" font-family="'PT Sans Caption','Helvetica Neue','Helvetica',sans-serif" fill="#6C606B" id="img-ec6d833f-37">
    <text x="16.18" y="29.51" text-anchor="end" dy="0.35em">0.0</text>
    <text x="16.18" y="22.06" text-anchor="end" dy="0.35em">0.5</text>
    <text x="16.18" y="14.61" text-anchor="end" dy="0.35em">1.0</text>
  </g>
  <g font-size="3.88" font-family="'PT Sans','Helvetica Neue','Helvetica',sans-serif" fill="#564A55" stroke="#000000" stroke-opacity="0.000" id="img-ec6d833f-38">
    <text x="9.16" y="22.06" text-anchor="end" dy="0.35em">Y</text>
  </g>
  <g font-size="3.88" font-family="'PT Sans','Helvetica Neue','Helvetica',sans-serif" fill="#564A55" stroke="#000000" stroke-opacity="0.000" id="img-ec6d833f-39">
    <text x="82.29" y="10.61" text-anchor="middle">Source 1</text>
  </g>
</g>
<defs>
  <clipPath id="img-ec6d833f-30">
  <path d="M17.18,12.61 L 147.4 12.61 147.4 31.51 17.18 31.51" />
</clipPath>
  <clipPath id="img-ec6d833f-4">
  <path d="M17.18,114.21 L 147.4 114.21 147.4 133.11 17.18 133.11" />
</clipPath>
  <clipPath id="img-ec6d833f-17">
  <path d="M17.18,63.41 L 147.4 63.41 147.4 82.31 17.18 82.31" />
</clipPath>
</defs>
</svg>
