<?xml version="1.0" encoding="UTF-8"?>
<svg xmlns="http://www.w3.org/2000/svg"
     xmlns:xlink="http://www.w3.org/1999/xlink"
     xmlns:gadfly="http://www.gadflyjl.org/ns"
     version="1.2"
     width="152.4mm" height="101.6mm" viewBox="0 0 152.4 101.6"
     stroke="none"
     fill="#000000"
     stroke-width="0.3"
     font-size="3.88"
>
<g class="plotroot xscalable yscalable" id="img-059ebd8b-1">
  <g font-size="3.88" font-family="'PT Sans','Helvetica Neue','Helvetica',sans-serif" fill="#564A55" stroke="#000000" stroke-opacity="0.000" id="img-059ebd8b-2">
    <text x="83.13" y="89.99" text-anchor="middle" dy="0.6em">X</text>
  </g>
  <g class="guide xlabels" font-size="2.82" font-family="'PT Sans Caption','Helvetica Neue','Helvetica',sans-serif" fill="#6C606B" id="img-059ebd8b-3">
    <text x="20.86" y="83.32" text-anchor="middle" dy="0.6em">0</text>
    <text x="83.13" y="83.32" text-anchor="middle" dy="0.6em">50</text>
    <text x="145.4" y="83.32" text-anchor="middle" dy="0.6em">100</text>
  </g>
<g clip-path="url(#img-059ebd8b-4)">
  <g id="img-059ebd8b-5">
    <g pointer-events="visible" opacity="1" fill="#000000" fill-opacity="0.000" stroke="#000000" stroke-opacity="0.000" class="guide background" id="img-059ebd8b-6">
      <rect x="18.86" y="63.41" width="128.54" height="18.9"/>
    </g>
    <g class="guide ygridlines xfixed" stroke-dasharray="0.5,0.5" stroke-width="0.2" stroke="#D0D0E0" id="img-059ebd8b-7">
      <path fill="none" d="M18.86,80.32 L 147.4 80.32"/>
      <path fill="none" d="M18.86,77.33 L 147.4 77.33"/>
      <path fill="none" d="M18.86,74.35 L 147.4 74.35"/>
      <path fill="none" d="M18.86,71.37 L 147.4 71.37"/>
      <path fill="none" d="M18.86,68.39 L 147.4 68.39"/>
      <path fill="none" d="M18.86,65.41 L 147.4 65.41"/>
    </g>
    <g class="guide xgridlines yfixed" stroke-dasharray="0.5,0.5" stroke-width="0.2" stroke="#D0D0E0" id="img-059ebd8b-8">
      <path fill="none" d="M20.86,63.41 L 20.86 82.32"/>
      <path fill="none" d="M83.13,63.41 L 83.13 82.32"/>
      <path fill="none" d="M145.4,63.41 L 145.4 82.32"/>
    </g>
    <g class="plotpanel" id="img-059ebd8b-9">
      <g stroke-width="0.3" fill="#000000" fill-opacity="0.000" class="geometry" stroke-dasharray="none" stroke="#00BFFF" id="img-059ebd8b-10">
        <path fill="none" d="M22.1,73.17 L 23.35 76.52 24.59 72.8 25.84 73.53 27.08 75.46 28.33 77.4 29.57 75.61 30.82 72.21 32.07 69.54 33.31 73.83 34.56 76.95 35.8 77.28 37.05 68.83 38.29 76.36 39.54 77.48 40.78 72.78 42.03 76.79 43.27 76.07 44.52 77.39 45.77 72.54 47.01 68.74 48.26 69.19 49.5 75.88 50.75 76.49 51.99 77.75 53.24 74.93 54.48 76.51 55.73 70.84 56.97 70.96 58.22 71.1 59.47 74.6 60.71 73.29 61.96 76.22 63.2 72.99 64.45 73.14 65.69 76.81 66.94 70.77 68.18 74.43 69.43 76.23 70.67 74.61 71.92 75.81 73.16 76.62 74.41 73.07 75.66 76.47 76.9 75.5 78.15 70.67 79.39 75.95 80.64 76.25 81.88 73.5 83.13 72.56 84.37 73.94 85.62 69.92 86.86 77.77 88.11 69.19 89.36 72.54 90.6 73.17 91.85 71.45 93.09 72.99 94.34 75.91 95.58 70.88 96.83 71.84 98.07 78.22 99.32 73.97 100.56 69.53 101.81 69.31 103.06 76.56 104.3 78.8 105.55 67.25 106.79 69.17 108.04 71.51 109.28 72.53 110.53 70.25 111.77 70.15 113.02 67.68 114.26 71.41 115.51 70.8 116.76 69.51 118 69.85 119.25 76.04 120.49 71.45 121.74 77.23 122.98 70.5 124.23 79.38 125.47 73.98 126.72 69.04 127.96 77.24 129.21 79.06 130.45 73.05 131.7 74.56 132.95 71.46 134.19 70.2 135.44 67.88 136.68 72.74 137.93 72.93 139.17 71.78 140.42 69.79 141.66 71.64 142.91 69.98 144.15 70.48 145.4 73.64"/>
      </g>
    </g>
  </g>
</g>
  <g class="guide ylabels" font-size="2.82" font-family="'PT Sans Caption','Helvetica Neue','Helvetica',sans-serif" fill="#6C606B" id="img-059ebd8b-11">
    <text x="17.86" y="80.32" text-anchor="end" dy="0.35em">0.42</text>
    <text x="17.86" y="77.33" text-anchor="end" dy="0.35em">0.43</text>
    <text x="17.86" y="74.35" text-anchor="end" dy="0.35em">0.44</text>
    <text x="17.86" y="71.37" text-anchor="end" dy="0.35em">0.45</text>
    <text x="17.86" y="68.39" text-anchor="end" dy="0.35em">0.46</text>
    <text x="17.86" y="65.41" text-anchor="end" dy="0.35em">0.47</text>
  </g>
  <g font-size="3.88" font-family="'PT Sans','Helvetica Neue','Helvetica',sans-serif" fill="#564A55" stroke="#000000" stroke-opacity="0.000" id="img-059ebd8b-12">
    <text x="9.16" y="72.86" text-anchor="end" dy="0.35em">Y</text>
  </g>
  <g font-size="3.88" font-family="'PT Sans','Helvetica Neue','Helvetica',sans-serif" fill="#564A55" stroke="#000000" stroke-opacity="0.000" id="img-059ebd8b-13">
    <text x="83.13" y="61.41" text-anchor="middle">Source 2</text>
  </g>
</g>
<g class="plotroot xscalable yscalable" id="img-059ebd8b-14">
  <g font-size="3.88" font-family="'PT Sans','Helvetica Neue','Helvetica',sans-serif" fill="#564A55" stroke="#000000" stroke-opacity="0.000" id="img-059ebd8b-15">
    <text x="83.13" y="39.19" text-anchor="middle" dy="0.6em">X</text>
  </g>
  <g class="guide xlabels" font-size="2.82" font-family="'PT Sans Caption','Helvetica Neue','Helvetica',sans-serif" fill="#6C606B" id="img-059ebd8b-16">
    <text x="20.86" y="32.52" text-anchor="middle" dy="0.6em">0</text>
    <text x="83.13" y="32.52" text-anchor="middle" dy="0.6em">50</text>
    <text x="145.4" y="32.52" text-anchor="middle" dy="0.6em">100</text>
  </g>
<g clip-path="url(#img-059ebd8b-17)">
  <g id="img-059ebd8b-18">
    <g pointer-events="visible" opacity="1" fill="#000000" fill-opacity="0.000" stroke="#000000" stroke-opacity="0.000" class="guide background" id="img-059ebd8b-19">
      <rect x="18.86" y="12.61" width="128.54" height="18.9"/>
    </g>
    <g class="guide ygridlines xfixed" stroke-dasharray="0.5,0.5" stroke-width="0.2" stroke="#D0D0E0" id="img-059ebd8b-20">
      <path fill="none" d="M18.86,29.52 L 147.4 29.52"/>
      <path fill="none" d="M18.86,26.53 L 147.4 26.53"/>
      <path fill="none" d="M18.86,23.55 L 147.4 23.55"/>
      <path fill="none" d="M18.86,20.57 L 147.4 20.57"/>
      <path fill="none" d="M18.86,17.59 L 147.4 17.59"/>
      <path fill="none" d="M18.86,14.61 L 147.4 14.61"/>
    </g>
    <g class="guide xgridlines yfixed" stroke-dasharray="0.5,0.5" stroke-width="0.2" stroke="#D0D0E0" id="img-059ebd8b-21">
      <path fill="none" d="M20.86,12.61 L 20.86 31.52"/>
      <path fill="none" d="M83.13,12.61 L 83.13 31.52"/>
      <path fill="none" d="M145.4,12.61 L 145.4 31.52"/>
    </g>
    <g class="plotpanel" id="img-059ebd8b-22">
      <g stroke-width="0.3" fill="#000000" fill-opacity="0.000" class="geometry" stroke-dasharray="none" stroke="#00BFFF" id="img-059ebd8b-23">
        <path fill="none" d="M22.1,22.37 L 23.35 25.72 24.59 22 25.84 22.73 27.08 24.66 28.33 26.6 29.57 24.81 30.82 21.41 32.07 18.74 33.31 23.03 34.56 26.15 35.8 26.48 37.05 18.03 38.29 25.56 39.54 26.68 40.78 21.98 42.03 25.99 43.27 25.27 44.52 26.59 45.77 21.74 47.01 17.94 48.26 18.39 49.5 25.08 50.75 25.69 51.99 26.95 53.24 24.13 54.48 25.71 55.73 20.04 56.97 20.16 58.22 20.3 59.47 23.8 60.71 22.49 61.96 25.42 63.2 22.19 64.45 22.34 65.69 26.01 66.94 19.97 68.18 23.63 69.43 25.43 70.67 23.81 71.92 25.01 73.16 25.82 74.41 22.27 75.66 25.67 76.9 24.7 78.15 19.87 79.39 25.15 80.64 25.45 81.88 22.7 83.13 21.76 84.37 23.14 85.62 19.12 86.86 26.97 88.11 18.39 89.36 21.74 90.6 22.37 91.85 20.65 93.09 22.19 94.34 25.11 95.58 20.08 96.83 21.04 98.07 27.42 99.32 23.17 100.56 18.73 101.81 18.51 103.06 25.76 104.3 28 105.55 16.45 106.79 18.37 108.04 20.71 109.28 21.73 110.53 19.45 111.77 19.35 113.02 16.88 114.26 20.61 115.51 20 116.76 18.71 118 19.05 119.25 25.24 120.49 20.65 121.74 26.43 122.98 19.7 124.23 28.58 125.47 23.18 126.72 18.24 127.96 26.44 129.21 28.26 130.45 22.25 131.7 23.76 132.95 20.66 134.19 19.4 135.44 17.08 136.68 21.94 137.93 22.13 139.17 20.98 140.42 18.99 141.66 20.84 142.91 19.18 144.15 19.68 145.4 22.84"/>
      </g>
    </g>
  </g>
</g>
  <g class="guide ylabels" font-size="2.82" font-family="'PT Sans Caption','Helvetica Neue','Helvetica',sans-serif" fill="#6C606B" id="img-059ebd8b-24">
    <text x="17.86" y="29.52" text-anchor="end" dy="0.35em">0.42</text>
    <text x="17.86" y="26.53" text-anchor="end" dy="0.35em">0.43</text>
    <text x="17.86" y="23.55" text-anchor="end" dy="0.35em">0.44</text>
    <text x="17.86" y="20.57" text-anchor="end" dy="0.35em">0.45</text>
    <text x="17.86" y="17.59" text-anchor="end" dy="0.35em">0.46</text>
    <text x="17.86" y="14.61" text-anchor="end" dy="0.35em">0.47</text>
  </g>
  <g font-size="3.88" font-family="'PT Sans','Helvetica Neue','Helvetica',sans-serif" fill="#564A55" stroke="#000000" stroke-opacity="0.000" id="img-059ebd8b-25">
    <text x="9.16" y="22.06" text-anchor="end" dy="0.35em">Y</text>
  </g>
  <g font-size="3.88" font-family="'PT Sans','Helvetica Neue','Helvetica',sans-serif" fill="#564A55" stroke="#000000" stroke-opacity="0.000" id="img-059ebd8b-26">
    <text x="83.13" y="10.61" text-anchor="middle">Source 1</text>
  </g>
</g>
<defs>
  <clipPath id="img-059ebd8b-17">
  <path d="M18.86,12.61 L 147.4 12.61 147.4 31.52 18.86 31.52" />
</clipPath>
  <clipPath id="img-059ebd8b-4">
  <path d="M18.86,63.41 L 147.4 63.41 147.4 82.32 18.86 82.32" />
</clipPath>
</defs>
</svg>
