<?xml version="1.0" encoding="UTF-8"?>
<svg xmlns="http://www.w3.org/2000/svg"
     xmlns:xlink="http://www.w3.org/1999/xlink"
     xmlns:gadfly="http://www.gadflyjl.org/ns"
     version="1.2"
     width="152.4mm" height="152.4mm" viewBox="0 0 152.4 152.4"
     stroke="none"
     fill="#000000"
     stroke-width="0.3"
     font-size="3.88"
>
<g class="plotroot xscalable yscalable" id="img-383fbaf4-1">
  <g font-size="3.88" font-family="'PT Sans','Helvetica Neue','Helvetica',sans-serif" fill="#564A55" stroke="#000000" stroke-opacity="0.000" id="img-383fbaf4-2">
    <text x="82.14" y="141.68" text-anchor="middle" dy="0.6em">X</text>
  </g>
  <g class="guide xlabels" font-size="2.82" font-family="'PT Sans Caption','Helvetica Neue','Helvetica',sans-serif" fill="#6C606B" id="img-383fbaf4-3">
    <text x="18.89" y="135.63" text-anchor="middle" dy="0.6em">0</text>
    <text x="82.14" y="135.63" text-anchor="middle" dy="0.6em">50</text>
    <text x="145.4" y="135.63" text-anchor="middle" dy="0.6em">100</text>
  </g>
<g clip-path="url(#img-383fbaf4-4)">
  <g id="img-383fbaf4-5">
    <g pointer-events="visible" opacity="1" fill="#000000" fill-opacity="0.000" stroke="#000000" stroke-opacity="0.000" class="guide background" id="img-383fbaf4-6">
      <rect x="16.89" y="112.19" width="130.51" height="22.45"/>
    </g>
    <g class="guide ygridlines xfixed" stroke-dasharray="0.5,0.5" stroke-width="0.2" stroke="#D0D0E0" id="img-383fbaf4-7">
      <path fill="none" d="M16.89,132.63 L 147.4 132.63"/>
      <path fill="none" d="M16.89,123.41 L 147.4 123.41"/>
      <path fill="none" d="M16.89,114.19 L 147.4 114.19"/>
    </g>
    <g class="guide xgridlines yfixed" stroke-dasharray="0.5,0.5" stroke-width="0.2" stroke="#D0D0E0" id="img-383fbaf4-8">
      <path fill="none" d="M18.89,112.19 L 18.89 134.63"/>
      <path fill="none" d="M82.14,112.19 L 82.14 134.63"/>
      <path fill="none" d="M145.4,112.19 L 145.4 134.63"/>
    </g>
    <g class="plotpanel" id="img-383fbaf4-9">
      <g stroke-width="0.71" fill="#000000" fill-opacity="0.000" class="geometry" stroke-dasharray="none" stroke="#00BFFF" id="img-383fbaf4-10">
        <path fill="none" d="M20.15,121.82 L 21.42 125.69 22.68 119.97 23.95 120.77 25.21 120.87 26.48 127.39 27.74 123.61 29.01 130.02 30.27 124.83 31.54 118.47 32.8 130.65 34.07 130.85 35.33 122.92 36.6 128.22 37.86 125.55 39.13 130 40.39 122.34 41.66 124.86 42.92 121.64 44.19 120.96 45.45 116.77 46.72 122.55 47.98 131.1 49.25 124.36 50.51 122.56 51.78 124.76 53.04 121.21 54.31 126.83 55.58 116.84 56.84 117.68 58.11 119.69 59.37 119.09 60.64 127.74 61.9 124.25 63.17 127.83 64.43 128.57 65.7 117.49 66.96 119.29 68.23 124.33 69.49 124.82 70.76 127.73 72.02 127.64 73.29 132.48 74.55 124.52 75.82 122.4 77.08 128.75 78.35 131.1 79.61 127.41 80.88 131.83 82.14 121.29 83.41 127.47 84.67 122.16 85.94 126.4 87.2 115.08 88.47 127.66 89.73 123.46 91 126.38 92.26 129.33 93.53 129.29 94.79 122.96 96.06 119.5 97.32 128.97 98.59 123.35 99.85 120.7 101.12 120.19 102.39 131.13 103.65 126.92 104.92 120.27 106.18 119.21 107.45 124.64 108.71 122.96 109.98 123.18 111.24 118.74 112.51 119.25 113.77 120.86 115.04 127.09 116.3 120.67 117.57 121.38 118.83 124.73 120.1 131.28 121.36 125.35 122.63 120.83 123.89 132 125.16 121.01 126.42 120.25 127.69 122.16 128.95 125.29 130.22 128.91 131.48 130.89 132.75 127.57 134.01 119.85 135.28 117.42 136.54 122.51 137.81 124.39 139.07 116.75 140.34 126.78 141.6 125.86 142.87 121.96 144.13 119.81 145.4 125.51"/>
      </g>
    </g>
  </g>
</g>
  <g class="guide ylabels" font-size="2.82" font-family="'PT Sans Caption','Helvetica Neue','Helvetica',sans-serif" fill="#6C606B" id="img-383fbaf4-11">
    <text x="15.89" y="132.63" text-anchor="end" dy="0.35em">0.0</text>
    <text x="15.89" y="123.41" text-anchor="end" dy="0.35em">0.5</text>
    <text x="15.89" y="114.19" text-anchor="end" dy="0.35em">1.0</text>
  </g>
  <g font-size="3.88" font-family="'PT Sans','Helvetica Neue','Helvetica',sans-serif" fill="#564A55" stroke="#000000" stroke-opacity="0.000" id="img-383fbaf4-12">
    <text x="9.11" y="123.41" text-anchor="end" dy="0.35em">Y</text>
  </g>
  <g font-size="3.88" font-family="'PT Sans','Helvetica Neue','Helvetica',sans-serif" fill="#564A55" stroke="#000000" stroke-opacity="0.000" id="img-383fbaf4-13">
    <text x="82.14" y="106.6" text-anchor="middle" dy="0.6em">Signal 3</text>
  </g>
</g>
<g class="plotroot xscalable yscalable" id="img-383fbaf4-14">
  <g font-size="3.88" font-family="'PT Sans','Helvetica Neue','Helvetica',sans-serif" fill="#564A55" stroke="#000000" stroke-opacity="0.000" id="img-383fbaf4-15">
    <text x="82.98" y="90.88" text-anchor="middle" dy="0.6em">X</text>
  </g>
  <g class="guide xlabels" font-size="2.82" font-family="'PT Sans Caption','Helvetica Neue','Helvetica',sans-serif" fill="#6C606B" id="img-383fbaf4-16">
    <text x="20.56" y="84.83" text-anchor="middle" dy="0.6em">0</text>
    <text x="82.98" y="84.83" text-anchor="middle" dy="0.6em">50</text>
    <text x="145.4" y="84.83" text-anchor="middle" dy="0.6em">100</text>
  </g>
<g clip-path="url(#img-383fbaf4-17)">
  <g id="img-383fbaf4-18">
    <g pointer-events="visible" opacity="1" fill="#000000" fill-opacity="0.000" stroke="#000000" stroke-opacity="0.000" class="guide background" id="img-383fbaf4-19">
      <rect x="18.56" y="61.39" width="128.84" height="22.45"/>
    </g>
    <g class="guide ygridlines xfixed" stroke-dasharray="0.5,0.5" stroke-width="0.2" stroke="#D0D0E0" id="img-383fbaf4-20">
      <path fill="none" d="M18.56,81.83 L 147.4 81.83"/>
      <path fill="none" d="M18.56,77.22 L 147.4 77.22"/>
      <path fill="none" d="M18.56,72.61 L 147.4 72.61"/>
      <path fill="none" d="M18.56,68 L 147.4 68"/>
      <path fill="none" d="M18.56,63.39 L 147.4 63.39"/>
    </g>
    <g class="guide xgridlines yfixed" stroke-dasharray="0.5,0.5" stroke-width="0.2" stroke="#D0D0E0" id="img-383fbaf4-21">
      <path fill="none" d="M20.56,61.39 L 20.56 83.83"/>
      <path fill="none" d="M82.98,61.39 L 82.98 83.83"/>
      <path fill="none" d="M145.4,61.39 L 145.4 83.83"/>
    </g>
    <g class="plotpanel" id="img-383fbaf4-22">
      <g stroke-width="0.71" fill="#000000" fill-opacity="0.000" class="geometry" stroke-dasharray="none" stroke="#00BFFF" id="img-383fbaf4-23">
        <path fill="none" d="M21.81,68.89 L 23.06 73.28 24.31 79.2 25.56 74.76 26.8 77.94 28.05 72.16 29.3 80.61 30.55 73.17 31.8 76.57 33.05 72.8 34.29 77.3 35.54 78.33 36.79 74.3 38.04 74.54 39.29 75.59 40.54 73.04 41.78 69.25 43.03 71.44 44.28 71.22 45.53 76.95 46.78 66.84 48.03 74.66 49.27 77.81 50.52 71.3 51.77 70.58 53.02 80.35 54.27 70.8 55.52 73.14 56.77 67.14 58.01 66.85 59.26 71.13 60.51 76.07 61.76 75.53 63.01 70.53 64.26 73.86 65.5 78.81 66.75 72.01 68 78.38 69.25 81.61 70.5 75.61 71.75 73.08 72.99 70.21 74.24 76.77 75.49 68.62 76.74 78.48 77.99 72.95 79.24 78.74 80.48 77.79 81.73 76.24 82.98 75.71 84.23 73.23 85.48 72.31 86.73 70.66 87.97 67.1 89.22 68.93 90.47 80.04 91.72 67.4 92.97 76.46 94.22 77.54 95.46 74.07 96.71 72.3 97.96 75.41 99.21 72.02 100.46 69.6 101.71 70.98 102.96 76.33 104.2 71.02 105.45 71.72 106.7 66.62 107.95 73.43 109.2 70.65 110.45 68.72 111.69 71.37 112.94 74.18 114.19 73.03 115.44 73.62 116.69 75.92 117.94 73.45 119.18 78.93 120.43 74.26 121.68 68.64 122.93 72.19 124.18 80.83 125.43 77.07 126.67 64.81 127.92 72.81 129.17 71.49 130.42 71.26 131.67 77.81 132.92 68.46 134.16 73.87 135.41 66.62 136.66 69.53 137.91 75.2 139.16 69.87 140.41 74.29 141.65 71.43 142.9 73.97 144.15 71.21 145.4 70.04"/>
      </g>
    </g>
  </g>
</g>
  <g class="guide ylabels" font-size="2.82" font-family="'PT Sans Caption','Helvetica Neue','Helvetica',sans-serif" fill="#6C606B" id="img-383fbaf4-24">
    <text x="17.56" y="81.83" text-anchor="end" dy="0.35em">0.00</text>
    <text x="17.56" y="77.22" text-anchor="end" dy="0.35em">0.25</text>
    <text x="17.56" y="72.61" text-anchor="end" dy="0.35em">0.50</text>
    <text x="17.56" y="68" text-anchor="end" dy="0.35em">0.75</text>
    <text x="17.56" y="63.39" text-anchor="end" dy="0.35em">1.00</text>
  </g>
  <g font-size="3.88" font-family="'PT Sans','Helvetica Neue','Helvetica',sans-serif" fill="#564A55" stroke="#000000" stroke-opacity="0.000" id="img-383fbaf4-25">
    <text x="9.11" y="72.61" text-anchor="end" dy="0.35em">Y</text>
  </g>
  <g font-size="3.88" font-family="'PT Sans','Helvetica Neue','Helvetica',sans-serif" fill="#564A55" stroke="#000000" stroke-opacity="0.000" id="img-383fbaf4-26">
    <text x="82.98" y="55.8" text-anchor="middle" dy="0.6em">Signal 2</text>
  </g>
</g>
<g class="plotroot xscalable yscalable" id="img-383fbaf4-27">
  <g font-size="3.88" font-family="'PT Sans','Helvetica Neue','Helvetica',sans-serif" fill="#564A55" stroke="#000000" stroke-opacity="0.000" id="img-383fbaf4-28">
    <text x="82.14" y="40.08" text-anchor="middle" dy="0.6em">X</text>
  </g>
  <g class="guide xlabels" font-size="2.82" font-family="'PT Sans Caption','Helvetica Neue','Helvetica',sans-serif" fill="#6C606B" id="img-383fbaf4-29">
    <text x="18.89" y="34.03" text-anchor="middle" dy="0.6em">0</text>
    <text x="82.14" y="34.03" text-anchor="middle" dy="0.6em">50</text>
    <text x="145.4" y="34.03" text-anchor="middle" dy="0.6em">100</text>
  </g>
<g clip-path="url(#img-383fbaf4-30)">
  <g id="img-383fbaf4-31">
    <g pointer-events="visible" opacity="1" fill="#000000" fill-opacity="0.000" stroke="#000000" stroke-opacity="0.000" class="guide background" id="img-383fbaf4-32">
      <rect x="16.89" y="10.59" width="130.51" height="22.45"/>
    </g>
    <g class="guide ygridlines xfixed" stroke-dasharray="0.5,0.5" stroke-width="0.2" stroke="#D0D0E0" id="img-383fbaf4-33">
      <path fill="none" d="M16.89,31.03 L 147.4 31.03"/>
      <path fill="none" d="M16.89,21.81 L 147.4 21.81"/>
      <path fill="none" d="M16.89,12.59 L 147.4 12.59"/>
    </g>
    <g class="guide xgridlines yfixed" stroke-dasharray="0.5,0.5" stroke-width="0.2" stroke="#D0D0E0" id="img-383fbaf4-34">
      <path fill="none" d="M18.89,10.59 L 18.89 33.03"/>
      <path fill="none" d="M82.14,10.59 L 82.14 33.03"/>
      <path fill="none" d="M145.4,10.59 L 145.4 33.03"/>
    </g>
    <g class="plotpanel" id="img-383fbaf4-35">
      <g stroke-width="0.71" fill="#000000" fill-opacity="0.000" class="geometry" stroke-dasharray="none" stroke="#00BFFF" id="img-383fbaf4-36">
        <path fill="none" d="M20.15,22.83 L 21.42 26.79 22.68 17.94 23.95 20.66 25.21 21.69 26.48 28.97 27.74 22.25 29.01 24.28 30.27 17.69 31.54 20.55 32.8 28.27 34.07 28.36 35.33 16.79 36.6 27.41 37.86 26.96 39.13 24.93 40.39 26.87 41.66 26.55 42.92 26.5 44.19 18.92 45.45 16.31 46.72 16.88 47.98 27.15 49.25 26.81 50.51 27.56 51.78 22.16 53.04 25.48 54.31 21.26 55.58 18.64 56.84 19.29 58.11 22.55 59.37 19.13 60.64 26.68 61.9 23.24 63.17 23.97 64.43 26.58 65.7 17.05 66.96 19.66 68.23 22.92 69.49 23.49 70.76 27.09 72.02 28.92 73.29 25.14 74.55 27.8 75.82 22.29 77.08 22.07 78.35 26.9 79.61 25.77 80.88 25.47 82.14 19.53 83.41 24.89 84.67 18.3 85.94 29.41 87.2 15.89 88.47 24.96 89.73 19.73 91 23.69 92.26 23.63 93.53 26.4 94.79 19.11 96.06 19.08 97.32 29.49 98.59 23.34 99.85 18.11 101.12 17.14 102.39 28.42 103.65 30.66 104.92 14.72 106.18 18.04 107.45 20.82 108.71 22.08 109.98 20.4 111.24 17.21 112.51 13.82 113.77 19.02 115.04 21.18 116.3 15.87 117.57 17.44 118.83 23.85 120.1 23.68 121.36 29.02 122.63 18.31 123.89 30.33 125.16 20.46 126.42 19.03 127.69 26.03 128.95 29.98 130.22 25.31 131.48 25.62 132.75 23.92 134.01 16.93 135.28 15.78 136.54 22.48 137.81 21.61 139.07 18.53 140.34 19.71 141.6 22.25 142.87 17.69 144.13 18.14 145.4 24.72"/>
      </g>
    </g>
  </g>
</g>
  <g class="guide ylabels" font-size="2.82" font-family="'PT Sans Caption','Helvetica Neue','Helvetica',sans-serif" fill="#6C606B" id="img-383fbaf4-37">
    <text x="15.89" y="31.03" text-anchor="end" dy="0.35em">0.0</text>
    <text x="15.89" y="21.81" text-anchor="end" dy="0.35em">0.5</text>
    <text x="15.89" y="12.59" text-anchor="end" dy="0.35em">1.0</text>
  </g>
  <g font-size="3.88" font-family="'PT Sans','Helvetica Neue','Helvetica',sans-serif" fill="#564A55" stroke="#000000" stroke-opacity="0.000" id="img-383fbaf4-38">
    <text x="9.11" y="21.81" text-anchor="end" dy="0.35em">Y</text>
  </g>
  <g font-size="3.88" font-family="'PT Sans','Helvetica Neue','Helvetica',sans-serif" fill="#564A55" stroke="#000000" stroke-opacity="0.000" id="img-383fbaf4-39">
    <text x="82.14" y="5" text-anchor="middle" dy="0.6em">Signal 1</text>
  </g>
</g>
<defs>
  <clipPath id="img-383fbaf4-17">
  <path d="M18.56,61.39 L 147.4 61.39 147.4 83.83 18.56 83.83" />
</clipPath>
  <clipPath id="img-383fbaf4-4">
  <path d="M16.89,112.19 L 147.4 112.19 147.4 134.63 16.89 134.63" />
</clipPath>
  <clipPath id="img-383fbaf4-30">
  <path d="M16.89,10.59 L 147.4 10.59 147.4 33.03 16.89 33.03" />
</clipPath>
</defs>
</svg>
