<?xml version="1.0" encoding="UTF-8"?>
<svg xmlns="http://www.w3.org/2000/svg"
     xmlns:xlink="http://www.w3.org/1999/xlink"
     xmlns:gadfly="http://www.gadflyjl.org/ns"
     version="1.2"
     width="203.2mm" height="101.6mm" viewBox="0 0 203.2 101.6"
     stroke="none"
     fill="#000000"
     stroke-width="0.3"
     font-size="3.88"
>
<g class="plotroot xscalable yscalable" id="img-59fa39fe-1">
  <g font-size="3.88" font-family="'PT Sans','Helvetica Neue','Helvetica',sans-serif" fill="#564A55" stroke="#000000" stroke-opacity="0.000" id="img-59fa39fe-2">
    <text x="85.67" y="90.88" text-anchor="middle" dy="0.6em">X</text>
  </g>
  <g class="guide xlabels" font-size="2.82" font-family="'PT Sans Caption','Helvetica Neue','Helvetica',sans-serif" fill="#6C606B" id="img-59fa39fe-3">
    <text x="16.54" y="84.83" text-anchor="middle" dy="0.6em">0</text>
    <text x="85.67" y="84.83" text-anchor="middle" dy="0.6em">50</text>
    <text x="154.81" y="84.83" text-anchor="middle" dy="0.6em">100</text>
  </g>
  <g class="guide colorkey" id="img-59fa39fe-4">
    <g fill="#4C404B" font-size="2.82" font-family="'PT Sans','Helvetica Neue','Helvetica',sans-serif" id="img-59fa39fe-5">
      <text x="180.32" y="44.42" dy="0.35em" id="img-59fa39fe-6" class="color_Observation_3">Observation 3</text>
      <text x="180.32" y="47.46" dy="0.35em" id="img-59fa39fe-7" class="color_Observation_4">Observation 4</text>
    </g>
    <g stroke="#000000" stroke-opacity="0.000" id="img-59fa39fe-8">
      <rect x="177.8" y="43.66" width="1.52" height="1.52" id="img-59fa39fe-9" fill="#FF6DAE" class="color_Observation_3"/>
      <rect x="177.8" y="46.7" width="1.52" height="1.52" id="img-59fa39fe-10" fill="#00B78D" class="color_Observation_4"/>
    </g>
    <g fill="#4C404B" font-size="2.82" font-family="'PT Sans','Helvetica Neue','Helvetica',sans-serif" id="img-59fa39fe-11">
      <text x="160.33" y="44.42" dy="0.35em" id="img-59fa39fe-12" class="color_Observation_1">Observation 1</text>
      <text x="160.33" y="47.46" dy="0.35em" id="img-59fa39fe-13" class="color_Observation_2">Observation 2</text>
    </g>
    <g stroke="#000000" stroke-opacity="0.000" id="img-59fa39fe-14">
      <rect x="157.81" y="43.66" width="1.52" height="1.52" id="img-59fa39fe-15" fill="#00BFFF" class="color_Observation_1"/>
      <rect x="157.81" y="46.7" width="1.52" height="1.52" id="img-59fa39fe-16" fill="#D4CA3A" class="color_Observation_2"/>
    </g>
    <g fill="#362A35" font-size="3.88" font-family="'PT Sans','Helvetica Neue','Helvetica',sans-serif" stroke="#000000" stroke-opacity="0.000" id="img-59fa39fe-17">
      <text x="157.81" y="41.14" id="img-59fa39fe-18">Reproduced observations</text>
    </g>
  </g>
<g clip-path="url(#img-59fa39fe-19)">
  <g id="img-59fa39fe-20">
    <g pointer-events="visible" opacity="1" fill="#000000" fill-opacity="0.000" stroke="#000000" stroke-opacity="0.000" class="guide background" id="img-59fa39fe-21">
      <rect x="14.54" y="5" width="142.27" height="78.83" id="img-59fa39fe-22"/>
    </g>
    <g class="guide ygridlines xfixed" stroke-dasharray="0.5,0.5" stroke-width="0.2" stroke="#D0D0E0" id="img-59fa39fe-23">
      <path fill="none" d="M14.54,81.83 L 156.81 81.83" id="img-59fa39fe-24"/>
      <path fill="none" d="M14.54,56.89 L 156.81 56.89" id="img-59fa39fe-25"/>
      <path fill="none" d="M14.54,31.94 L 156.81 31.94" id="img-59fa39fe-26"/>
      <path fill="none" d="M14.54,7 L 156.81 7" id="img-59fa39fe-27"/>
    </g>
    <g class="guide xgridlines yfixed" stroke-dasharray="0.5,0.5" stroke-width="0.2" stroke="#D0D0E0" id="img-59fa39fe-28">
      <path fill="none" d="M16.54,5 L 16.54 83.83" id="img-59fa39fe-29"/>
      <path fill="none" d="M85.67,5 L 85.67 83.83" id="img-59fa39fe-30"/>
      <path fill="none" d="M154.81,5 L 154.81 83.83" id="img-59fa39fe-31"/>
    </g>
    <g class="plotpanel" id="img-59fa39fe-32">
      <g stroke-width="0.71" fill="#000000" fill-opacity="0.000" class="geometry color_Observation_4" stroke-dasharray="none" stroke="#00B78D" id="img-59fa39fe-33">
        <path fill="none" d="M17.92,36.42 L 19.3 29.09 20.69 23.01 22.07 18.69 23.45 16.45 24.83 16.44 26.22 18.61 27.6 22.71 28.98 28.33 30.36 34.92 31.75 41.83 33.13 48.41 34.51 54.03 35.9 58.12 37.28 60.3 38.66 60.32 40.04 58.14 41.43 53.92 42.81 48.01 44.19 40.89 45.57 33.18 46.96 25.53 48.34 18.6 49.72 12.99 51.11 9.18 52.49 7.49 53.87 8.05 55.25 10.81 56.64 15.5 58.02 21.7 59.4 28.84 60.78 36.3 62.17 43.4 63.55 49.51 64.93 54.09 66.32 56.74 67.7 57.24 69.08 55.55 70.46 51.84 71.85 46.46 73.23 39.92 74.61 32.81 75.99 25.81 77.38 19.56 78.76 14.66 80.14 11.58 81.53 10.62 82.91 11.9 84.29 15.37 85.67 20.73 87.06 27.56 88.44 35.3 89.82 43.29 91.2 50.87 92.59 57.41 93.97 62.38 95.35 65.38 96.74 66.19 98.12 64.81 99.5 61.39 100.88 56.31 102.27 50.06 103.65 43.26 105.03 36.58 106.41 30.66 107.8 26.09 109.18 23.32 110.56 22.66 111.95 24.23 113.33 27.92 114.71 33.47 116.09 40.43 117.48 48.22 118.86 56.2 120.24 63.7 121.62 70.1 123.01 74.86 124.39 77.61 125.77 78.14 127.16 76.45 128.54 72.71 129.92 67.29 131.3 60.72 132.69 53.61 134.07 46.62 135.45 40.41 136.83 35.54 138.22 32.48 139.6 31.52 140.98 32.75 142.37 36.09 143.75 41.24 145.13 47.74 146.51 55.04 147.9 62.46 149.28 69.36 150.66 75.11 152.04 79.18 153.43 81.22 154.81 81.02" id="img-59fa39fe-34"/>
      </g>
      <g stroke-width="0.71" fill="#000000" fill-opacity="0.000" class="geometry color_Observation_3" stroke-dasharray="none" stroke="#FF6DAE" id="img-59fa39fe-35">
        <path fill="none" d="M17.92,42.87 L 19.3 55.67 20.69 55.29 22.07 51.69 23.45 64.24 24.83 52.8 26.22 60.75 27.6 20.48 28.98 21.5 30.36 52.56 31.75 46.2 33.13 48.06 34.51 17.45 35.9 43.92 37.28 56.21 38.66 19.16 40.04 51.82 41.43 44.67 42.81 57.89 44.19 40.66 45.57 18.95 46.96 16.96 48.34 35.47 49.72 45.91 51.11 55.29 52.49 46.71 53.87 51.82 55.25 13.03 56.64 28.86 58.02 27.32 59.4 45.47 60.78 45.63 62.17 40.96 63.55 26.68 64.93 23.35 66.32 46.13 67.7 32.26 69.08 54.26 70.46 56.15 71.85 40.34 73.23 37.56 74.61 39.01 75.99 17.84 77.38 44.02 78.76 55.05 80.14 10.73 81.53 39.34 82.91 48.39 84.29 23.38 85.67 41.67 87.06 32.85 88.44 23.6 89.82 52.99 91.2 30.74 92.59 22.71 93.97 48.11 95.35 19.44 96.74 31.46 98.12 48.28 99.5 33.34 100.88 44.47 102.27 60.3 103.65 47.8 105.03 28.91 106.41 31.07 107.8 50.59 109.18 65.97 110.56 23.13 111.95 30.14 113.33 38.28 114.71 44.64 116.09 30.98 117.48 43.71 118.86 33.69 120.24 48.34 121.62 32.76 123.01 43.3 124.39 41.2 125.77 71.93 127.16 29.33 128.54 66.02 129.92 45.93 131.3 76.67 132.69 69.36 134.07 32.54 135.45 79.3 136.83 80.52 138.22 41.81 139.6 52.61 140.98 33.85 142.37 50.56 143.75 36.14 145.13 52.93 146.51 56.09 147.9 61.1 149.28 33.82 150.66 42.01 152.04 44.86 153.43 48.88 154.81 50.99" id="img-59fa39fe-36"/>
      </g>
      <g stroke-width="0.71" fill="#000000" fill-opacity="0.000" class="geometry color_Observation_2" stroke-dasharray="none" stroke="#D4CA3A" id="img-59fa39fe-37">
        <path fill="none" d="M17.92,36.58 L 19.3 36.58 20.69 31.24 22.07 26.04 23.45 30.99 24.83 26.16 26.22 33.19 27.6 18.03 28.98 25.01 30.36 47.96 31.75 52.5 33.13 60.8 34.51 51.86 35.9 69.93 37.28 78.95 38.66 61.11 40.04 75.9 41.43 68.71 42.81 69.96 44.19 54.75 45.57 36.67 46.96 28.47 48.34 31.21 49.72 31.18 51.11 32.37 52.49 26.66 53.87 30.01 55.25 13.55 56.64 26.29 58.02 31.81 59.4 48.07 60.78 55.6 62.17 60.32 63.55 59.19 64.93 61.96 66.32 75.82 67.7 69.14 69.08 78.17 70.46 75.09 71.85 61.43 73.23 53.09 74.61 46.26 75.99 28.18 77.38 34.49 78.76 34.54 80.14 8.68 81.53 21.39 82.91 26.53 84.29 16.78 85.67 30.55 87.06 32.22 88.44 34.54 89.82 56.41 91.2 52.03 92.59 53.7 93.97 70.49 95.35 58.27 96.74 64.19 98.12 70.3 99.5 58.49 100.88 58.05 102.27 58.78 103.65 44.8 105.03 27.73 106.41 21.96 107.8 26.22 109.18 30.23 110.56 7.24 111.95 11.41 113.33 18.29 114.71 26.15 116.09 25.43 117.48 38.76 118.86 40.92 120.24 54.97 121.62 52.82 123.01 62.13 124.39 63.14 125.77 78.37 127.16 54.74 128.54 68.75 129.92 52.74 131.3 61.02 132.69 49.77 134.07 23.94 135.45 40.71 136.83 36.1 138.22 13.38 139.6 17.55 140.98 9.18 142.37 20.7 143.75 18.51 145.13 33.33 146.51 42.17 147.9 52.11 149.28 45.42 150.66 55.37 152.04 61.03 153.43 65.27 154.81 66.37" id="img-59fa39fe-38"/>
      </g>
      <g stroke-width="0.71" fill="#000000" fill-opacity="0.000" class="geometry color_Observation_1" stroke-dasharray="none" stroke="#00BFFF" id="img-59fa39fe-39">
        <path fill="none" d="M17.92,39.65 L 19.3 42.38 20.69 39.15 22.07 35.19 23.45 40.35 24.83 34.62 26.22 39.68 27.6 21.6 28.98 24.92 30.36 43.74 31.75 44.02 33.13 48.24 34.51 35.74 35.9 51.02 37.28 58.25 38.66 39.74 40.04 54.98 41.43 49.3 42.81 52.95 44.19 40.77 45.57 26.06 46.96 21.24 48.34 27.04 49.72 29.45 51.11 32.23 52.49 27.1 53.87 29.94 55.25 11.92 56.64 22.18 58.02 24.51 59.4 37.15 60.78 40.96 62.17 42.18 63.55 38.09 64.93 38.72 66.32 51.44 67.7 44.75 69.08 54.9 70.46 54 71.85 43.4 73.23 38.74 74.61 35.91 75.99 21.83 77.38 31.79 78.76 34.86 80.14 11.15 81.53 24.98 82.91 30.15 84.29 19.37 85.67 31.2 87.06 30.21 88.44 29.45 89.82 48.14 91.2 40.8 92.59 40.06 93.97 55.25 95.35 42.41 96.74 48.83 98.12 56.54 99.5 47.37 100.88 50.39 102.27 55.18 103.65 45.53 105.03 32.74 106.41 30.86 107.8 38.34 109.18 44.65 110.56 22.9 111.95 27.18 113.33 33.1 114.71 39.05 116.09 35.7 117.48 45.96 118.86 44.95 120.24 56.02 121.62 51.43 123.01 59.08 124.39 59.41 125.77 75.04 127.16 52.89 128.54 69.36 129.92 56.61 131.3 68.7 132.69 61.48 134.07 39.58 135.45 59.85 136.83 58.03 138.22 37.15 139.6 42.06 140.98 33.3 142.37 43.32 143.75 38.69 145.13 50.34 146.51 55.56 147.9 61.78 149.28 51.59 150.66 58.56 152.04 62.02 153.43 65.05 154.81 66.01" id="img-59fa39fe-40"/>
      </g>
    </g>
  </g>
</g>
  <g class="guide ylabels" font-size="2.82" font-family="'PT Sans Caption','Helvetica Neue','Helvetica',sans-serif" fill="#6C606B" id="img-59fa39fe-41">
    <text x="13.54" y="81.83" text-anchor="end" dy="0.35em" id="img-59fa39fe-42">0</text>
    <text x="13.54" y="56.89" text-anchor="end" dy="0.35em" id="img-59fa39fe-43">1</text>
    <text x="13.54" y="31.94" text-anchor="end" dy="0.35em" id="img-59fa39fe-44">2</text>
    <text x="13.54" y="7" text-anchor="end" dy="0.35em" id="img-59fa39fe-45">3</text>
  </g>
  <g font-size="3.88" font-family="'PT Sans','Helvetica Neue','Helvetica',sans-serif" fill="#564A55" stroke="#000000" stroke-opacity="0.000" id="img-59fa39fe-46">
    <text x="9.11" y="44.42" text-anchor="end" dy="0.35em" id="img-59fa39fe-47">Y</text>
  </g>
</g>
<defs>
  <clipPath id="img-59fa39fe-19">
  <path d="M14.54,5 L 156.81 5 156.81 83.83 14.54 83.83" />
</clipPath>
</defs>
</svg>
