<?xml version="1.0" encoding="UTF-8"?>
<svg xmlns="http://www.w3.org/2000/svg"
     xmlns:xlink="http://www.w3.org/1999/xlink"
     xmlns:gadfly="http://www.gadflyjl.org/ns"
     version="1.2"
     width="152.4mm" height="101.6mm" viewBox="0 0 152.4 101.6"
     stroke="none"
     fill="#000000"
     stroke-width="0.3"
     font-size="3.88"
>
<g class="plotroot xscalable yscalable" id="img-59fa39fe-1">
  <g font-size="3.88" font-family="'PT Sans','Helvetica Neue','Helvetica',sans-serif" fill="#564A55" stroke="#000000" stroke-opacity="0.000" id="img-59fa39fe-2">
    <text x="60.27" y="90.88" text-anchor="middle" dy="0.6em">X</text>
  </g>
  <g class="guide xlabels" font-size="2.82" font-family="'PT Sans Caption','Helvetica Neue','Helvetica',sans-serif" fill="#6C606B" id="img-59fa39fe-3">
    <text x="16.54" y="84.83" text-anchor="middle" dy="0.6em">0</text>
    <text x="60.27" y="84.83" text-anchor="middle" dy="0.6em">50</text>
    <text x="104.01" y="84.83" text-anchor="middle" dy="0.6em">100</text>
  </g>
  <g class="guide colorkey" id="img-59fa39fe-4">
    <g fill="#4C404B" font-size="2.82" font-family="'PT Sans','Helvetica Neue','Helvetica',sans-serif" id="img-59fa39fe-5">
      <text x="109.53" y="41.37" dy="0.35em" id="img-59fa39fe-6" class="color_Observation_1">Observation 1</text>
      <text x="109.53" y="44.42" dy="0.35em" id="img-59fa39fe-7" class="color_Observation_2">Observation 2</text>
      <text x="109.53" y="47.46" dy="0.35em" id="img-59fa39fe-8" class="color_Observation_3">Observation 3</text>
      <text x="109.53" y="50.5" dy="0.35em" id="img-59fa39fe-9" class="color_Observation_4">Observation 4</text>
    </g>
    <g stroke="#000000" stroke-opacity="0.000" id="img-59fa39fe-10">
      <rect x="107.01" y="40.61" width="1.52" height="1.52" id="img-59fa39fe-11" fill="#00BFFF" class="color_Observation_1"/>
      <rect x="107.01" y="43.66" width="1.52" height="1.52" id="img-59fa39fe-12" fill="#D4CA3A" class="color_Observation_2"/>
      <rect x="107.01" y="46.7" width="1.52" height="1.52" id="img-59fa39fe-13" fill="#FF6DAE" class="color_Observation_3"/>
      <rect x="107.01" y="49.74" width="1.52" height="1.52" id="img-59fa39fe-14" fill="#00B78D" class="color_Observation_4"/>
    </g>
    <g fill="#362A35" font-size="3.88" font-family="'PT Sans','Helvetica Neue','Helvetica',sans-serif" stroke="#000000" stroke-opacity="0.000" id="img-59fa39fe-15">
      <text x="107.01" y="38.09" id="img-59fa39fe-16">Reproduced observations</text>
    </g>
  </g>
<g clip-path="url(#img-59fa39fe-17)">
  <g id="img-59fa39fe-18">
    <g pointer-events="visible" opacity="1" fill="#000000" fill-opacity="0.000" stroke="#000000" stroke-opacity="0.000" class="guide background" id="img-59fa39fe-19">
      <rect x="14.54" y="5" width="91.47" height="78.83" id="img-59fa39fe-20"/>
    </g>
    <g class="guide ygridlines xfixed" stroke-dasharray="0.5,0.5" stroke-width="0.2" stroke="#D0D0E0" id="img-59fa39fe-21">
      <path fill="none" d="M14.54,81.83 L 106.01 81.83" id="img-59fa39fe-22"/>
      <path fill="none" d="M14.54,56.89 L 106.01 56.89" id="img-59fa39fe-23"/>
      <path fill="none" d="M14.54,31.94 L 106.01 31.94" id="img-59fa39fe-24"/>
      <path fill="none" d="M14.54,7 L 106.01 7" id="img-59fa39fe-25"/>
    </g>
    <g class="guide xgridlines yfixed" stroke-dasharray="0.5,0.5" stroke-width="0.2" stroke="#D0D0E0" id="img-59fa39fe-26">
      <path fill="none" d="M16.54,5 L 16.54 83.83" id="img-59fa39fe-27"/>
      <path fill="none" d="M60.27,5 L 60.27 83.83" id="img-59fa39fe-28"/>
      <path fill="none" d="M104.01,5 L 104.01 83.83" id="img-59fa39fe-29"/>
    </g>
    <g class="plotpanel" id="img-59fa39fe-30">
      <g stroke-width="0.71" fill="#000000" fill-opacity="0.000" class="geometry color_Observation_4" stroke-dasharray="none" stroke="#00B78D" id="img-59fa39fe-31">
        <path fill="none" d="M17.41,36.42 L 18.29 29.09 19.16 23.01 20.04 18.69 20.91 16.45 21.79 16.44 22.66 18.61 23.54 22.71 24.41 28.33 25.28 34.92 26.16 41.83 27.03 48.41 27.91 54.03 28.78 58.12 29.66 60.3 30.53 60.32 31.41 58.14 32.28 53.92 33.16 48.01 34.03 40.89 34.91 33.18 35.78 25.53 36.66 18.6 37.53 12.99 38.41 9.18 39.28 7.49 40.16 8.05 41.03 10.81 41.9 15.5 42.78 21.7 43.65 28.84 44.53 36.3 45.4 43.4 46.28 49.51 47.15 54.09 48.03 56.74 48.9 57.24 49.78 55.55 50.65 51.84 51.53 46.46 52.4 39.92 53.28 32.81 54.15 25.81 55.03 19.56 55.9 14.66 56.77 11.58 57.65 10.62 58.52 11.9 59.4 15.37 60.27 20.73 61.15 27.56 62.02 35.3 62.9 43.29 63.77 50.87 64.65 57.41 65.52 62.38 66.4 65.38 67.27 66.19 68.15 64.81 69.02 61.39 69.9 56.31 70.77 50.06 71.65 43.26 72.52 36.58 73.39 30.66 74.27 26.09 75.14 23.32 76.02 22.66 76.89 24.23 77.77 27.92 78.64 33.47 79.52 40.43 80.39 48.22 81.27 56.2 82.14 63.7 83.02 70.1 83.89 74.86 84.77 77.61 85.64 78.14 86.52 76.45 87.39 72.71 88.26 67.29 89.14 60.72 90.01 53.61 90.89 46.62 91.76 40.41 92.64 35.54 93.51 32.48 94.39 31.52 95.26 32.75 96.14 36.09 97.01 41.24 97.89 47.74 98.76 55.04 99.64 62.46 100.51 69.36 101.39 75.11 102.26 79.18 103.14 81.22 104.01 81.02" id="img-59fa39fe-32"/>
      </g>
      <g stroke-width="0.71" fill="#000000" fill-opacity="0.000" class="geometry color_Observation_3" stroke-dasharray="none" stroke="#FF6DAE" id="img-59fa39fe-33">
        <path fill="none" d="M17.41,42.87 L 18.29 55.67 19.16 55.29 20.04 51.69 20.91 64.24 21.79 52.8 22.66 60.75 23.54 20.48 24.41 21.5 25.28 52.56 26.16 46.2 27.03 48.06 27.91 17.45 28.78 43.92 29.66 56.21 30.53 19.16 31.41 51.82 32.28 44.67 33.16 57.89 34.03 40.66 34.91 18.95 35.78 16.96 36.66 35.47 37.53 45.91 38.41 55.29 39.28 46.71 40.16 51.82 41.03 13.03 41.9 28.86 42.78 27.32 43.65 45.47 44.53 45.63 45.4 40.96 46.28 26.68 47.15 23.35 48.03 46.13 48.9 32.26 49.78 54.26 50.65 56.15 51.53 40.34 52.4 37.56 53.28 39.01 54.15 17.84 55.03 44.02 55.9 55.05 56.77 10.73 57.65 39.34 58.52 48.39 59.4 23.38 60.27 41.67 61.15 32.85 62.02 23.6 62.9 52.99 63.77 30.74 64.65 22.71 65.52 48.11 66.4 19.44 67.27 31.46 68.15 48.28 69.02 33.34 69.9 44.47 70.77 60.3 71.65 47.8 72.52 28.91 73.39 31.07 74.27 50.59 75.14 65.97 76.02 23.13 76.89 30.14 77.77 38.28 78.64 44.64 79.52 30.98 80.39 43.71 81.27 33.69 82.14 48.34 83.02 32.76 83.89 43.3 84.77 41.2 85.64 71.93 86.52 29.33 87.39 66.02 88.26 45.93 89.14 76.67 90.01 69.36 90.89 32.54 91.76 79.3 92.64 80.52 93.51 41.81 94.39 52.61 95.26 33.85 96.14 50.56 97.01 36.14 97.89 52.93 98.76 56.09 99.64 61.1 100.51 33.82 101.39 42.01 102.26 44.86 103.14 48.88 104.01 50.99" id="img-59fa39fe-34"/>
      </g>
      <g stroke-width="0.71" fill="#000000" fill-opacity="0.000" class="geometry color_Observation_2" stroke-dasharray="none" stroke="#D4CA3A" id="img-59fa39fe-35">
        <path fill="none" d="M17.41,36.58 L 18.29 36.58 19.16 31.24 20.04 26.04 20.91 30.99 21.79 26.16 22.66 33.19 23.54 18.03 24.41 25.01 25.28 47.96 26.16 52.5 27.03 60.8 27.91 51.86 28.78 69.93 29.66 78.95 30.53 61.11 31.41 75.9 32.28 68.71 33.16 69.96 34.03 54.75 34.91 36.67 35.78 28.47 36.66 31.21 37.53 31.18 38.41 32.37 39.28 26.66 40.16 30.01 41.03 13.55 41.9 26.29 42.78 31.81 43.65 48.07 44.53 55.6 45.4 60.32 46.28 59.19 47.15 61.96 48.03 75.82 48.9 69.14 49.78 78.17 50.65 75.09 51.53 61.43 52.4 53.09 53.28 46.26 54.15 28.18 55.03 34.49 55.9 34.54 56.77 8.68 57.65 21.39 58.52 26.53 59.4 16.78 60.27 30.55 61.15 32.22 62.02 34.54 62.9 56.41 63.77 52.03 64.65 53.7 65.52 70.49 66.4 58.27 67.27 64.19 68.15 70.3 69.02 58.49 69.9 58.05 70.77 58.78 71.65 44.8 72.52 27.73 73.39 21.96 74.27 26.22 75.14 30.23 76.02 7.24 76.89 11.41 77.77 18.29 78.64 26.15 79.52 25.43 80.39 38.76 81.27 40.92 82.14 54.97 83.02 52.82 83.89 62.13 84.77 63.14 85.64 78.37 86.52 54.74 87.39 68.75 88.26 52.74 89.14 61.02 90.01 49.77 90.89 23.94 91.76 40.71 92.64 36.1 93.51 13.38 94.39 17.55 95.26 9.18 96.14 20.7 97.01 18.51 97.89 33.33 98.76 42.17 99.64 52.11 100.51 45.42 101.39 55.37 102.26 61.03 103.14 65.27 104.01 66.37" id="img-59fa39fe-36"/>
      </g>
      <g stroke-width="0.71" fill="#000000" fill-opacity="0.000" class="geometry color_Observation_1" stroke-dasharray="none" stroke="#00BFFF" id="img-59fa39fe-37">
        <path fill="none" d="M17.41,39.65 L 18.29 42.38 19.16 39.15 20.04 35.19 20.91 40.35 21.79 34.62 22.66 39.68 23.54 21.6 24.41 24.92 25.28 43.74 26.16 44.02 27.03 48.24 27.91 35.74 28.78 51.02 29.66 58.25 30.53 39.74 31.41 54.98 32.28 49.3 33.16 52.95 34.03 40.77 34.91 26.06 35.78 21.24 36.66 27.04 37.53 29.45 38.41 32.23 39.28 27.1 40.16 29.94 41.03 11.92 41.9 22.18 42.78 24.51 43.65 37.15 44.53 40.96 45.4 42.18 46.28 38.09 47.15 38.72 48.03 51.44 48.9 44.75 49.78 54.9 50.65 54 51.53 43.4 52.4 38.74 53.28 35.91 54.15 21.83 55.03 31.79 55.9 34.86 56.77 11.15 57.65 24.98 58.52 30.15 59.4 19.37 60.27 31.2 61.15 30.21 62.02 29.45 62.9 48.14 63.77 40.8 64.65 40.06 65.52 55.25 66.4 42.41 67.27 48.83 68.15 56.54 69.02 47.37 69.9 50.39 70.77 55.18 71.65 45.53 72.52 32.74 73.39 30.86 74.27 38.34 75.14 44.65 76.02 22.9 76.89 27.18 77.77 33.1 78.64 39.05 79.52 35.7 80.39 45.96 81.27 44.95 82.14 56.02 83.02 51.43 83.89 59.08 84.77 59.41 85.64 75.04 86.52 52.89 87.39 69.36 88.26 56.61 89.14 68.7 90.01 61.48 90.89 39.58 91.76 59.85 92.64 58.03 93.51 37.15 94.39 42.06 95.26 33.3 96.14 43.32 97.01 38.69 97.89 50.34 98.76 55.56 99.64 61.78 100.51 51.59 101.39 58.56 102.26 62.02 103.14 65.05 104.01 66.01" id="img-59fa39fe-38"/>
      </g>
    </g>
  </g>
</g>
  <g class="guide ylabels" font-size="2.82" font-family="'PT Sans Caption','Helvetica Neue','Helvetica',sans-serif" fill="#6C606B" id="img-59fa39fe-39">
    <text x="13.54" y="81.83" text-anchor="end" dy="0.35em" id="img-59fa39fe-40">0</text>
    <text x="13.54" y="56.89" text-anchor="end" dy="0.35em" id="img-59fa39fe-41">1</text>
    <text x="13.54" y="31.94" text-anchor="end" dy="0.35em" id="img-59fa39fe-42">2</text>
    <text x="13.54" y="7" text-anchor="end" dy="0.35em" id="img-59fa39fe-43">3</text>
  </g>
  <g font-size="3.88" font-family="'PT Sans','Helvetica Neue','Helvetica',sans-serif" fill="#564A55" stroke="#000000" stroke-opacity="0.000" id="img-59fa39fe-44">
    <text x="9.11" y="44.42" text-anchor="end" dy="0.35em" id="img-59fa39fe-45">Y</text>
  </g>
</g>
<defs>
  <clipPath id="img-59fa39fe-17">
  <path d="M14.54,5 L 106.01 5 106.01 83.83 14.54 83.83" />
</clipPath>
</defs>
</svg>
