<?xml version="1.0" encoding="UTF-8"?>
<svg xmlns="http://www.w3.org/2000/svg"
     xmlns:xlink="http://www.w3.org/1999/xlink"
     xmlns:gadfly="http://www.gadflyjl.org/ns"
     version="1.2"
     width="152.4mm" height="101.6mm" viewBox="0 0 152.4 101.6"
     stroke="none"
     fill="#000000"
     stroke-width="0.3"
     font-size="3.88"
>
<g class="plotroot xscalable yscalable" id="img-6edc3bff-1">
  <g font-size="3.88" font-family="'PT Sans','Helvetica Neue','Helvetica',sans-serif" fill="#564A55" stroke="#000000" stroke-opacity="0.000" id="img-6edc3bff-2">
    <text x="68.54" y="89.99" text-anchor="middle" dy="0.6em">X</text>
  </g>
  <g class="guide xlabels" font-size="2.82" font-family="'PT Sans Caption','Helvetica Neue','Helvetica',sans-serif" fill="#6C606B" id="img-6edc3bff-3">
    <text x="18.51" y="83.32" text-anchor="middle" dy="0.6em">0</text>
    <text x="68.54" y="83.32" text-anchor="middle" dy="0.6em">50</text>
    <text x="118.58" y="83.32" text-anchor="middle" dy="0.6em">100</text>
  </g>
  <g class="guide colorkey" id="img-6edc3bff-4">
    <g fill="#4C404B" font-size="2.82" font-family="'PT Sans','Helvetica Neue','Helvetica',sans-serif" id="img-6edc3bff-5">
      <text x="124.39" y="43.66" dy="0.35em" id="img-6edc3bff-6" class="color_Source_1">Source 1</text>
      <text x="124.39" y="47.28" dy="0.35em" id="img-6edc3bff-7" class="color_Source_2">Source 2</text>
    </g>
    <g stroke="#000000" stroke-opacity="0.000" id="img-6edc3bff-8">
      <rect x="121.58" y="42.75" width="1.81" height="1.81" id="img-6edc3bff-9" class="color_Source_1" fill="#00BFFF"/>
      <rect x="121.58" y="46.38" width="1.81" height="1.81" id="img-6edc3bff-10" class="color_Source_2" fill="#D4CA3A"/>
    </g>
    <g fill="#362A35" font-size="3.88" font-family="'PT Sans','Helvetica Neue','Helvetica',sans-serif" stroke="#000000" stroke-opacity="0.000" id="img-6edc3bff-11">
      <text x="121.58" y="39.84" id="img-6edc3bff-12">Original sources</text>
    </g>
  </g>
<g clip-path="url(#img-6edc3bff-13)">
  <g id="img-6edc3bff-14">
    <g pointer-events="visible" opacity="1" fill="#000000" fill-opacity="0.000" stroke="#000000" stroke-opacity="0.000" class="guide background" id="img-6edc3bff-15">
      <rect x="16.51" y="5" width="104.07" height="77.32" id="img-6edc3bff-16"/>
    </g>
    <g class="guide ygridlines xfixed" stroke-dasharray="0.5,0.5" stroke-width="0.2" stroke="#D0D0E0" id="img-6edc3bff-17">
      <path fill="none" d="M16.51,80.32 L 120.58 80.32" id="img-6edc3bff-18"/>
      <path fill="none" d="M16.51,61.99 L 120.58 61.99" id="img-6edc3bff-19"/>
      <path fill="none" d="M16.51,43.66 L 120.58 43.66" id="img-6edc3bff-20"/>
      <path fill="none" d="M16.51,25.33 L 120.58 25.33" id="img-6edc3bff-21"/>
      <path fill="none" d="M16.51,7 L 120.58 7" id="img-6edc3bff-22"/>
    </g>
    <g class="guide xgridlines yfixed" stroke-dasharray="0.5,0.5" stroke-width="0.2" stroke="#D0D0E0" id="img-6edc3bff-23">
      <path fill="none" d="M18.51,5 L 18.51 82.32" id="img-6edc3bff-24"/>
      <path fill="none" d="M68.54,5 L 68.54 82.32" id="img-6edc3bff-25"/>
      <path fill="none" d="M118.58,5 L 118.58 82.32" id="img-6edc3bff-26"/>
    </g>
    <g class="plotpanel" id="img-6edc3bff-27">
      <g stroke-width="0.3" fill="#000000" fill-opacity="0.000" class="geometry color_Source_2" stroke-dasharray="none" stroke="#D4CA3A" id="img-6edc3bff-28">
        <path fill="none" d="M19.51,40 L 20.51 36.37 21.51 32.82 22.51 29.38 23.51 26.08 24.51 22.96 25.51 20.04 26.52 17.36 27.52 14.94 28.52 12.81 29.52 10.99 30.52 9.49 31.52 8.34 32.52 7.53 33.52 7.09 34.52 7.02 35.52 7.31 36.52 7.96 37.52 8.97 38.52 10.32 39.52 12.01 40.53 14.02 41.53 16.32 42.53 18.9 43.53 21.72 44.53 24.76 45.53 27.99 46.53 31.38 47.53 34.89 48.53 38.48 49.53 42.13 50.53 45.8 51.53 49.44 52.53 53.02 53.53 56.52 54.53 59.88 55.54 63.08 56.54 66.09 57.54 68.87 58.54 71.4 59.54 73.65 60.54 75.61 61.54 77.24 62.54 78.54 63.54 79.49 64.54 80.08 65.54 80.31 66.54 80.17 67.54 79.67 68.54 78.81 69.54 77.6 70.55 76.04 71.55 74.17 72.55 71.99 73.55 69.52 74.55 66.8 75.55 63.84 76.55 60.69 77.55 57.36 78.55 53.9 79.55 50.34 80.55 46.7 81.55 43.04 82.55 39.39 83.55 35.77 84.56 32.24 85.56 28.82 86.56 25.54 87.56 22.45 88.56 19.57 89.56 16.94 90.56 14.56 91.56 12.48 92.56 10.71 93.56 9.27 94.56 8.18 95.56 7.43 96.56 7.05 97.56 7.04 98.56 7.39 99.57 8.1 100.57 9.17 101.57 10.59 102.57 12.33 103.57 14.39 104.57 16.74 105.57 19.35 106.57 22.22 107.57 25.29 108.57 28.55 109.57 31.96 110.57 35.49 111.57 39.1 112.57 42.75 113.57 46.41 114.58 50.05 115.58 53.62 116.58 57.09 117.58 60.43 118.58 63.6" id="img-6edc3bff-29"/>
      </g>
      <g stroke-width="0.3" fill="#000000" fill-opacity="0.000" class="geometry color_Source_1" stroke-dasharray="none" stroke="#00BFFF" id="img-6edc3bff-30">
        <path fill="none" d="M19.51,13.98 L 20.51 20.29 21.51 26 22.51 31.17 23.51 35.85 24.51 40.08 25.51 43.91 26.52 47.37 27.52 50.51 28.52 53.34 29.52 55.91 30.52 58.23 31.52 60.33 32.52 62.24 33.52 63.96 34.52 65.51 35.52 66.92 36.52 68.2 37.52 69.35 38.52 70.39 39.52 71.34 40.53 72.19 41.53 72.96 42.53 73.66 43.53 74.3 44.53 74.87 45.53 75.39 46.53 75.86 47.53 76.28 48.53 76.66 49.53 77.01 50.53 77.33 51.53 77.61 52.53 77.87 53.53 78.1 54.53 78.31 55.54 78.5 56.54 78.67 57.54 78.83 58.54 78.97 59.54 79.1 60.54 79.22 61.54 79.32 62.54 79.41 63.54 79.5 64.54 79.58 65.54 79.65 66.54 79.71 67.54 79.77 68.54 79.82 69.54 79.87 70.55 79.91 71.55 79.95 72.55 79.98 73.55 80.02 74.55 80.04 75.55 80.07 76.55 80.09 77.55 80.11 78.55 80.13 79.55 80.15 80.55 80.17 81.55 80.18 82.55 80.19 83.55 80.2 84.56 80.22 85.56 80.22 86.56 80.23 87.56 80.24 88.56 80.25 89.56 80.25 90.56 80.26 91.56 80.27 92.56 80.27 93.56 80.27 94.56 80.28 95.56 80.28 96.56 80.28 97.56 80.29 98.56 80.29 99.57 80.29 100.57 80.29 101.57 80.3 102.57 80.3 103.57 80.3 104.57 80.3 105.57 80.3 106.57 80.3 107.57 80.31 108.57 80.31 109.57 80.31 110.57 80.31 111.57 80.31 112.57 80.31 113.57 80.31 114.58 80.31 115.58 80.31 116.58 80.31 117.58 80.31 118.58 80.31" id="img-6edc3bff-31"/>
      </g>
    </g>
  </g>
</g>
  <g class="guide ylabels" font-size="2.82" font-family="'PT Sans Caption','Helvetica Neue','Helvetica',sans-serif" fill="#6C606B" id="img-6edc3bff-32">
    <text x="15.51" y="80.32" text-anchor="end" dy="0.35em" id="img-6edc3bff-33">0</text>
    <text x="15.51" y="61.99" text-anchor="end" dy="0.35em" id="img-6edc3bff-34">5</text>
    <text x="15.51" y="43.66" text-anchor="end" dy="0.35em" id="img-6edc3bff-35">10</text>
    <text x="15.51" y="25.33" text-anchor="end" dy="0.35em" id="img-6edc3bff-36">15</text>
    <text x="15.51" y="7" text-anchor="end" dy="0.35em" id="img-6edc3bff-37">20</text>
  </g>
  <g font-size="3.88" font-family="'PT Sans','Helvetica Neue','Helvetica',sans-serif" fill="#564A55" stroke="#000000" stroke-opacity="0.000" id="img-6edc3bff-38">
    <text x="9.16" y="43.66" text-anchor="end" dy="0.35em" id="img-6edc3bff-39">Y</text>
  </g>
</g>
<defs>
  <clipPath id="img-6edc3bff-13">
  <path d="M16.51,5 L 120.58 5 120.58 82.32 16.51 82.32" />
</clipPath>
</defs>
</svg>
