<?xml version="1.0" encoding="UTF-8"?>
<svg xmlns="http://www.w3.org/2000/svg"
     xmlns:xlink="http://www.w3.org/1999/xlink"
     xmlns:gadfly="http://www.gadflyjl.org/ns"
     version="1.2"
     width="152.4mm" height="101.6mm" viewBox="0 0 152.4 101.6"
     stroke="none"
     fill="#000000"
     stroke-width="0.3"
     font-size="3.88"
>
<g class="plotroot xscalable yscalable" id="img-8f33c98e-1">
  <g font-size="3.88" font-family="'PT Sans','Helvetica Neue','Helvetica',sans-serif" fill="#564A55" stroke="#000000" stroke-opacity="0.000" id="img-8f33c98e-2">
    <text x="66.11" y="89.99" text-anchor="middle" dy="0.6em">X</text>
  </g>
  <g class="guide xlabels" font-size="2.82" font-family="'PT Sans Caption','Helvetica Neue','Helvetica',sans-serif" fill="#6C606B" id="img-8f33c98e-3">
    <text x="19.18" y="83.32" text-anchor="middle" dy="0.6em">0</text>
    <text x="66.11" y="83.32" text-anchor="middle" dy="0.6em">50</text>
    <text x="113.03" y="83.32" text-anchor="middle" dy="0.6em">100</text>
  </g>
  <g class="guide colorkey" id="img-8f33c98e-4">
    <g fill="#4C404B" font-size="2.82" font-family="'PT Sans','Helvetica Neue','Helvetica',sans-serif" id="img-8f33c98e-5">
      <text x="118.85" y="41.84" dy="0.35em" id="img-8f33c98e-6" class="color_Signal_1">Signal 1</text>
      <text x="118.85" y="45.47" dy="0.35em" id="img-8f33c98e-7" class="color_Signal_2">Signal 2</text>
      <text x="118.85" y="49.1" dy="0.35em" id="img-8f33c98e-8" class="color_Signal_3">Signal 3</text>
    </g>
    <g stroke="#000000" stroke-opacity="0.000" id="img-8f33c98e-9">
      <rect x="116.03" y="40.94" width="1.81" height="1.81" id="img-8f33c98e-10" class="color_Signal_1" fill="#00BFFF"/>
      <rect x="116.03" y="44.56" width="1.81" height="1.81" id="img-8f33c98e-11" class="color_Signal_2" fill="#D4CA3A"/>
      <rect x="116.03" y="48.19" width="1.81" height="1.81" id="img-8f33c98e-12" class="color_Signal_3" fill="#FF6DAE"/>
    </g>
    <g fill="#362A35" font-size="3.88" font-family="'PT Sans','Helvetica Neue','Helvetica',sans-serif" stroke="#000000" stroke-opacity="0.000" id="img-8f33c98e-13">
      <text x="116.03" y="38.02" id="img-8f33c98e-14">Reproduced signals</text>
    </g>
  </g>
<g clip-path="url(#img-8f33c98e-15)">
  <g id="img-8f33c98e-16">
    <g pointer-events="visible" opacity="1" fill="#000000" fill-opacity="0.000" stroke="#000000" stroke-opacity="0.000" class="guide background" id="img-8f33c98e-17">
      <rect x="17.18" y="5" width="97.85" height="77.32" id="img-8f33c98e-18"/>
    </g>
    <g class="guide ygridlines xfixed" stroke-dasharray="0.5,0.5" stroke-width="0.2" stroke="#D0D0E0" id="img-8f33c98e-19">
      <path fill="none" d="M17.18,43.66 L 115.03 43.66" id="img-8f33c98e-20"/>
    </g>
    <g class="guide xgridlines yfixed" stroke-dasharray="0.5,0.5" stroke-width="0.2" stroke="#D0D0E0" id="img-8f33c98e-21">
      <path fill="none" d="M19.18,5 L 19.18 82.32" id="img-8f33c98e-22"/>
      <path fill="none" d="M66.11,5 L 66.11 82.32" id="img-8f33c98e-23"/>
      <path fill="none" d="M113.03,5 L 113.03 82.32" id="img-8f33c98e-24"/>
    </g>
    <g class="plotpanel" id="img-8f33c98e-25">
      <g stroke-width="0.3" fill="#000000" fill-opacity="0.000" class="geometry color_Signal_3" stroke-dasharray="none" stroke="#FF6DAE" id="img-8f33c98e-26">
        <path fill="none" d="M20.12,43.66 L 21.06 43.66 22 43.66 22.94 43.66 23.88 43.66 24.81 43.66 25.75 43.66 26.69 43.66 27.63 43.66 28.57 43.66 29.51 43.66 30.45 43.66 31.38 43.66 32.32 43.66 33.26 43.66 34.2 43.66 35.14 43.66 36.08 43.66 37.01 43.66 37.95 43.66 38.89 43.66 39.83 43.66 40.77 43.66 41.71 43.66 42.65 43.66 43.58 43.66 44.52 43.66 45.46 43.66 46.4 43.66 47.34 43.66 48.28 43.66 49.22 43.66 50.15 43.66 51.09 43.66 52.03 43.66 52.97 43.66 53.91 43.66 54.85 43.66 55.78 43.66 56.72 43.66 57.66 43.66 58.6 43.66 59.54 43.66 60.48 43.66 61.42 43.66 62.35 43.66 63.29 43.66 64.23 43.66 65.17 43.66 66.11 43.66 67.05 43.66 67.98 43.66 68.92 43.66 69.86 43.66 70.8 43.66 71.74 43.66 72.68 43.66 73.62 43.66 74.55 43.66 75.49 43.66 76.43 43.66 77.37 43.66 78.31 43.66 79.25 43.66 80.19 43.66 81.12 43.66 82.06 43.66 83 43.66 83.94 43.66 84.88 43.66 85.82 43.66 86.75 43.66 87.69 43.66 88.63 43.66 89.57 43.66 90.51 43.66 91.45 43.66 92.39 43.66 93.32 43.66 94.26 43.66 95.2 43.66 96.14 43.66 97.08 43.66 98.02 43.66 98.96 43.66 99.89 43.66 100.83 43.66 101.77 43.66 102.71 43.66 103.65 43.66 104.59 43.66 105.52 43.66 106.46 43.66 107.4 43.66 108.34 43.66 109.28 43.66 110.22 43.66 111.16 43.66 112.09 43.66 113.03 43.66" id="img-8f33c98e-27"/>
      </g>
      <g stroke-width="0.3" fill="#000000" fill-opacity="0.000" class="geometry color_Signal_2" stroke-dasharray="none" stroke="#D4CA3A" id="img-8f33c98e-28">
        <path fill="none" d="M20.12,43.66 L 21.06 43.66 22 43.66 22.94 43.66 23.88 43.66 24.81 43.66 25.75 43.66 26.69 43.66 27.63 43.66 28.57 43.66 29.51 43.66 30.45 43.66 31.38 43.66 32.32 43.66 33.26 43.66 34.2 43.66 35.14 43.66 36.08 43.66 37.01 43.66 37.95 43.66 38.89 43.66 39.83 43.66 40.77 43.66 41.71 43.66 42.65 43.66 43.58 43.66 44.52 43.66 45.46 43.66 46.4 43.66 47.34 43.66 48.28 43.66 49.22 43.66 50.15 43.66 51.09 43.66 52.03 43.66 52.97 43.66 53.91 43.66 54.85 43.66 55.78 43.66 56.72 43.66 57.66 43.66 58.6 43.66 59.54 43.66 60.48 43.66 61.42 43.66 62.35 43.66 63.29 43.66 64.23 43.66 65.17 43.66 66.11 43.66 67.05 43.66 67.98 43.66 68.92 43.66 69.86 43.66 70.8 43.66 71.74 43.66 72.68 43.66 73.62 43.66 74.55 43.66 75.49 43.66 76.43 43.66 77.37 43.66 78.31 43.66 79.25 43.66 80.19 43.66 81.12 43.66 82.06 43.66 83 43.66 83.94 43.66 84.88 43.66 85.82 43.66 86.75 43.66 87.69 43.66 88.63 43.66 89.57 43.66 90.51 43.66 91.45 43.66 92.39 43.66 93.32 43.66 94.26 43.66 95.2 43.66 96.14 43.66 97.08 43.66 98.02 43.66 98.96 43.66 99.89 43.66 100.83 43.66 101.77 43.66 102.71 43.66 103.65 43.66 104.59 43.66 105.52 43.66 106.46 43.66 107.4 43.66 108.34 43.66 109.28 43.66 110.22 43.66 111.16 43.66 112.09 43.66 113.03 43.66" id="img-8f33c98e-29"/>
      </g>
      <g stroke-width="0.3" fill="#000000" fill-opacity="0.000" class="geometry color_Signal_1" stroke-dasharray="none" stroke="#00BFFF" id="img-8f33c98e-30">
        <path fill="none" d="M20.12,43.66 L 21.06 43.66 22 43.66 22.94 43.66 23.88 43.66 24.81 43.66 25.75 43.66 26.69 43.66 27.63 43.66 28.57 43.66 29.51 43.66 30.45 43.66 31.38 43.66 32.32 43.66 33.26 43.66 34.2 43.66 35.14 43.66 36.08 43.66 37.01 43.66 37.95 43.66 38.89 43.66 39.83 43.66 40.77 43.66 41.71 43.66 42.65 43.66 43.58 43.66 44.52 43.66 45.46 43.66 46.4 43.66 47.34 43.66 48.28 43.66 49.22 43.66 50.15 43.66 51.09 43.66 52.03 43.66 52.97 43.66 53.91 43.66 54.85 43.66 55.78 43.66 56.72 43.66 57.66 43.66 58.6 43.66 59.54 43.66 60.48 43.66 61.42 43.66 62.35 43.66 63.29 43.66 64.23 43.66 65.17 43.66 66.11 43.66 67.05 43.66 67.98 43.66 68.92 43.66 69.86 43.66 70.8 43.66 71.74 43.66 72.68 43.66 73.62 43.66 74.55 43.66 75.49 43.66 76.43 43.66 77.37 43.66 78.31 43.66 79.25 43.66 80.19 43.66 81.12 43.66 82.06 43.66 83 43.66 83.94 43.66 84.88 43.66 85.82 43.66 86.75 43.66 87.69 43.66 88.63 43.66 89.57 43.66 90.51 43.66 91.45 43.66 92.39 43.66 93.32 43.66 94.26 43.66 95.2 43.66 96.14 43.66 97.08 43.66 98.02 43.66 98.96 43.66 99.89 43.66 100.83 43.66 101.77 43.66 102.71 43.66 103.65 43.66 104.59 43.66 105.52 43.66 106.46 43.66 107.4 43.66 108.34 43.66 109.28 43.66 110.22 43.66 111.16 43.66 112.09 43.66 113.03 43.66" id="img-8f33c98e-31"/>
      </g>
    </g>
  </g>
</g>
  <g class="guide ylabels" font-size="2.82" font-family="'PT Sans Caption','Helvetica Neue','Helvetica',sans-serif" fill="#6C606B" id="img-8f33c98e-32">
    <text x="16.18" y="43.66" text-anchor="end" dy="0.35em" id="img-8f33c98e-33">0.5</text>
  </g>
  <g font-size="3.88" font-family="'PT Sans','Helvetica Neue','Helvetica',sans-serif" fill="#564A55" stroke="#000000" stroke-opacity="0.000" id="img-8f33c98e-34">
    <text x="9.16" y="43.66" text-anchor="end" dy="0.35em" id="img-8f33c98e-35">Y</text>
  </g>
</g>
<defs>
  <clipPath id="img-8f33c98e-15">
  <path d="M17.18,5 L 115.03 5 115.03 82.32 17.18 82.32" />
</clipPath>
</defs>
</svg>
