<?xml version="1.0" encoding="UTF-8"?>
<svg xmlns="http://www.w3.org/2000/svg"
     xmlns:xlink="http://www.w3.org/1999/xlink"
     xmlns:gadfly="http://www.gadflyjl.org/ns"
     version="1.2"
     width="152.4mm" height="101.6mm" viewBox="0 0 152.4 101.6"
     stroke="none"
     fill="#000000"
     stroke-width="0.3"
     font-size="3.88"
>
<g class="plotroot xscalable yscalable" id="img-8f33c98e-1">
  <g font-size="3.88" font-family="'PT Sans','Helvetica Neue','Helvetica',sans-serif" fill="#564A55" stroke="#000000" stroke-opacity="0.000" id="img-8f33c98e-2">
    <text x="66.61" y="89.99" text-anchor="middle" dy="0.6em">X</text>
  </g>
  <g class="guide xlabels" font-size="2.82" font-family="'PT Sans Caption','Helvetica Neue','Helvetica',sans-serif" fill="#6C606B" id="img-8f33c98e-3">
    <text x="20.18" y="83.32" text-anchor="middle" dy="0.6em">0</text>
    <text x="66.61" y="83.32" text-anchor="middle" dy="0.6em">50</text>
    <text x="113.03" y="83.32" text-anchor="middle" dy="0.6em">100</text>
  </g>
  <g class="guide colorkey" id="img-8f33c98e-4">
    <g fill="#4C404B" font-size="2.82" font-family="'PT Sans','Helvetica Neue','Helvetica',sans-serif" id="img-8f33c98e-5">
      <text x="118.85" y="41.84" dy="0.35em" id="img-8f33c98e-6" class="color_Signal_1">Signal 1</text>
      <text x="118.85" y="45.47" dy="0.35em" id="img-8f33c98e-7" class="color_Signal_2">Signal 2</text>
      <text x="118.85" y="49.1" dy="0.35em" id="img-8f33c98e-8" class="color_Signal_3">Signal 3</text>
    </g>
    <g stroke="#000000" stroke-opacity="0.000" id="img-8f33c98e-9">
      <rect x="116.03" y="40.94" width="1.81" height="1.81" id="img-8f33c98e-10" fill="#00BFFF" class="color_Signal_1"/>
      <rect x="116.03" y="44.56" width="1.81" height="1.81" id="img-8f33c98e-11" fill="#D4CA3A" class="color_Signal_2"/>
      <rect x="116.03" y="48.19" width="1.81" height="1.81" id="img-8f33c98e-12" fill="#FF6DAE" class="color_Signal_3"/>
    </g>
    <g fill="#362A35" font-size="3.88" font-family="'PT Sans','Helvetica Neue','Helvetica',sans-serif" stroke="#000000" stroke-opacity="0.000" id="img-8f33c98e-13">
      <text x="116.03" y="38.02" id="img-8f33c98e-14">Reproduced signals</text>
    </g>
  </g>
<g clip-path="url(#img-8f33c98e-15)">
  <g id="img-8f33c98e-16">
    <g pointer-events="visible" opacity="1" fill="#000000" fill-opacity="0.000" stroke="#000000" stroke-opacity="0.000" class="guide background" id="img-8f33c98e-17">
      <rect x="18.18" y="5" width="96.85" height="77.32" id="img-8f33c98e-18"/>
    </g>
    <g class="guide ygridlines xfixed" stroke-dasharray="0.5,0.5" stroke-width="0.2" stroke="#D0D0E0" id="img-8f33c98e-19">
      <path fill="none" d="M18.18,80.32 L 115.03 80.32" id="img-8f33c98e-20"/>
      <path fill="none" d="M18.18,55.88 L 115.03 55.88" id="img-8f33c98e-21"/>
      <path fill="none" d="M18.18,31.44 L 115.03 31.44" id="img-8f33c98e-22"/>
      <path fill="none" d="M18.18,7 L 115.03 7" id="img-8f33c98e-23"/>
    </g>
    <g class="guide xgridlines yfixed" stroke-dasharray="0.5,0.5" stroke-width="0.2" stroke="#D0D0E0" id="img-8f33c98e-24">
      <path fill="none" d="M20.18,5 L 20.18 82.32" id="img-8f33c98e-25"/>
      <path fill="none" d="M66.61,5 L 66.61 82.32" id="img-8f33c98e-26"/>
      <path fill="none" d="M113.03,5 L 113.03 82.32" id="img-8f33c98e-27"/>
    </g>
    <g class="plotpanel" id="img-8f33c98e-28">
      <g stroke-width="0.3" fill="#000000" fill-opacity="0.000" class="geometry color_Signal_3" stroke-dasharray="none" stroke="#FF6DAE" id="img-8f33c98e-29">
        <path fill="none" d="M21.11,62.63 L 22.04 63.23 22.97 63.73 23.9 64.13 24.83 64.46 25.75 64.73 26.68 64.96 27.61 65.16 28.54 65.33 29.47 65.5 30.4 65.88 31.33 65.83 32.25 66.01 33.18 66.2 34.11 66.42 35.04 66.65 35.97 66.93 36.9 67.24 37.82 67.58 38.75 67.96 39.68 68.38 40.61 68.9 41.54 69.41 42.47 70.13 43.4 73.82 44.32 68 45.25 69.65 46.18 55.23 47.11 72.33 48.04 72.14 48.97 72.63 49.9 73.21 50.82 73.74 51.75 74.45 52.68 74.65 53.61 75.55 54.54 73.26 55.47 76.64 56.39 77.86 57.32 78.18 58.25 78.54 59.18 78.84 60.11 79.05 61.04 79.19 61.97 79.17 62.89 79.45 63.82 79.64 64.75 79.44 65.68 79.46 66.61 79.25 67.54 78.53 68.46 35.12 69.39 78.65 70.32 78.38 71.25 78 72.18 76.33 73.11 76.08 74.04 75.5 74.96 75.66 75.89 74.65 76.82 74.4 77.75 73.69 78.68 73.16 79.61 72.69 80.54 72.28 81.46 72.47 82.39 72.55 83.32 72.5 84.25 69.68 85.18 68.78 86.11 61.65 87.03 71.36 87.96 70.02 88.89 69.84 89.82 69.71 90.75 69.34 91.68 69.21 92.61 69.13 93.53 69.09 94.46 69.18 95.39 69.32 96.32 69.5 97.25 69.81 98.18 70.35 99.11 70.88 100.03 79.74 100.96 70.75 101.89 69.66 102.82 68.2 103.75 76.05 104.68 71.93 105.6 72.96 106.53 72.68 107.46 73.15 108.39 73.8 109.32 74.39 110.25 74.57 111.18 75.1 112.1 76.12 113.03 75.88" id="img-8f33c98e-30"/>
      </g>
      <g stroke-width="0.3" fill="#000000" fill-opacity="0.000" class="geometry color_Signal_2" stroke-dasharray="none" stroke="#D4CA3A" id="img-8f33c98e-31">
        <path fill="none" d="M21.11,61.34 L 22.04 62.08 22.97 62.7 23.9 63.21 24.83 63.63 25.75 63.98 26.68 64.28 27.61 64.54 28.54 64.76 29.47 64.97 30.4 65.39 31.33 65.36 32.25 65.57 33.18 65.79 34.11 66.03 35.04 66.28 35.97 66.58 36.9 66.9 37.82 67.26 38.75 67.65 39.68 68.09 40.61 68.62 41.54 69.14 42.47 69.89 43.4 73.64 44.32 67.79 45.25 69.41 46.18 54.62 47.11 72.14 48.04 71.94 48.97 72.44 49.9 73.03 50.82 73.57 51.75 74.28 52.68 74.48 53.61 75.38 54.54 71.36 55.47 76.47 56.39 77.82 57.32 78.14 58.25 78.51 59.18 78.81 60.11 79.03 61.04 79.17 61.97 79.13 62.89 79.43 63.82 79.63 64.75 79.42 65.68 79.45 66.61 79.23 67.54 78.33 68.46 21.48 69.39 78.63 70.32 78.35 71.25 77.95 72.18 75.76 73.11 75.53 74.04 74.82 74.96 75.49 75.89 74.5 76.82 74.25 77.75 73.54 78.68 73 79.61 72.52 80.54 72.1 81.46 72.3 82.39 72.38 83.32 72.33 84.25 69.47 85.18 68.56 86.11 61.31 87.03 71.18 87.96 69.82 88.89 69.63 89.82 69.49 90.75 69.12 91.68 68.99 92.61 68.91 93.53 68.87 94.46 68.96 95.39 69.1 96.32 69.28 97.25 69.6 98.18 70.15 99.11 70.69 100.03 79.7 100.96 70.55 101.89 69.44 102.82 67.98 103.75 75.94 104.68 71.76 105.6 72.8 106.53 72.51 107.46 72.99 108.39 73.65 109.32 74.24 110.25 74.42 111.18 74.94 112.1 75.9 113.03 75.17" id="img-8f33c98e-32"/>
      </g>
      <g stroke-width="0.3" fill="#000000" fill-opacity="0.000" class="geometry color_Signal_1" stroke-dasharray="none" stroke="#00BFFF" id="img-8f33c98e-33">
        <path fill="none" d="M21.11,57.11 L 22.04 57.6 22.97 57.99 23.9 58.29 24.83 58.53 25.75 58.71 26.68 58.86 27.61 58.99 28.54 59.11 29.47 59.24 30.4 59.7 31.33 59.54 32.25 59.73 33.18 59.96 34.11 60.22 35.04 60.53 35.97 60.9 36.9 61.32 37.82 61.8 38.75 62.33 39.68 62.94 40.61 63.69 41.54 64.43 42.47 65.48 43.4 70.92 44.32 62.12 45.25 64.76 46.18 43.78 47.11 68.7 48.04 68.41 48.97 69.13 49.9 69.98 50.82 70.78 51.75 71.83 52.68 72.14 53.61 73.56 54.54 75.13 55.47 75.21 56.39 76.7 57.32 77.16 58.25 77.7 59.18 78.14 60.11 78.45 61.04 78.65 61.97 78.66 62.89 79.04 63.82 79.33 64.75 79.02 65.68 79.06 66.61 78.74 67.54 78.17 68.46 51.43 69.39 77.86 70.32 77.46 71.25 76.91 72.18 75.93 73.11 75.43 74.04 74.95 74.96 73.7 75.89 72.09 76.82 71.72 77.75 70.65 78.68 69.86 79.61 69.16 80.54 68.54 81.46 68.82 82.39 68.94 83.32 68.87 84.25 64.7 85.18 63.34 86.11 52.8 87.03 67.17 87.96 65.2 88.89 64.92 89.82 64.72 90.75 64.18 91.68 63.98 92.61 63.87 93.53 63.81 94.46 63.94 95.39 64.15 96.32 64.42 97.25 64.88 98.18 65.68 99.11 66.46 100.03 79.55 100.96 66.27 101.89 64.66 102.82 62.46 103.75 74.1 104.68 68.03 105.6 69.54 106.53 69.14 107.46 69.85 108.39 70.82 109.32 71.69 110.25 71.97 111.18 72.82 112.1 74.54 113.03 75.62" id="img-8f33c98e-34"/>
      </g>
    </g>
  </g>
</g>
  <g class="guide ylabels" font-size="2.82" font-family="'PT Sans Caption','Helvetica Neue','Helvetica',sans-serif" fill="#6C606B" id="img-8f33c98e-35">
    <text x="17.18" y="80.32" text-anchor="end" dy="0.35em" id="img-8f33c98e-36">0</text>
    <text x="17.18" y="55.88" text-anchor="end" dy="0.35em" id="img-8f33c98e-37">50</text>
    <text x="17.18" y="31.44" text-anchor="end" dy="0.35em" id="img-8f33c98e-38">100</text>
    <text x="17.18" y="7" text-anchor="end" dy="0.35em" id="img-8f33c98e-39">150</text>
  </g>
  <g font-size="3.88" font-family="'PT Sans','Helvetica Neue','Helvetica',sans-serif" fill="#564A55" stroke="#000000" stroke-opacity="0.000" id="img-8f33c98e-40">
    <text x="9.16" y="43.66" text-anchor="end" dy="0.35em" id="img-8f33c98e-41">Y</text>
  </g>
</g>
<defs>
  <clipPath id="img-8f33c98e-15">
  <path d="M18.18,5 L 115.03 5 115.03 82.32 18.18 82.32" />
</clipPath>
</defs>
</svg>
