<?xml version="1.0" encoding="UTF-8"?>
<svg xmlns="http://www.w3.org/2000/svg"
     xmlns:xlink="http://www.w3.org/1999/xlink"
     xmlns:gadfly="http://www.gadflyjl.org/ns"
     version="1.2"
     width="152.4mm" height="101.6mm" viewBox="0 0 152.4 101.6"
     stroke="none"
     fill="#000000"
     stroke-width="0.3"
     font-size="3.88"
>
<g class="plotroot xscalable yscalable" id="img-ee172b2b-1">
  <g font-size="3.88" font-family="'PT Sans','Helvetica Neue','Helvetica',sans-serif" fill="#564A55" stroke="#000000" stroke-opacity="0.000" id="img-ee172b2b-2">
    <text x="68.09" y="89.99" text-anchor="middle" dy="0.6em">X</text>
  </g>
  <g class="guide xlabels" font-size="2.82" font-family="'PT Sans Caption','Helvetica Neue','Helvetica',sans-serif" fill="#6C606B" id="img-ee172b2b-3">
    <text x="19.18" y="83.32" text-anchor="middle" dy="0.6em">0</text>
    <text x="68.09" y="83.32" text-anchor="middle" dy="0.6em">50</text>
    <text x="116.99" y="83.32" text-anchor="middle" dy="0.6em">100</text>
  </g>
  <g class="guide colorkey" id="img-ee172b2b-4">
    <g fill="#4C404B" font-size="2.82" font-family="'PT Sans','Helvetica Neue','Helvetica',sans-serif" id="img-ee172b2b-5">
      <text x="122.81" y="43.66" dy="0.35em" id="img-ee172b2b-6" class="color_Source_1">Source 1</text>
      <text x="122.81" y="47.28" dy="0.35em" id="img-ee172b2b-7" class="color_Source_2">Source 2</text>
    </g>
    <g stroke="#000000" stroke-opacity="0.000" id="img-ee172b2b-8">
      <rect x="119.99" y="42.75" width="1.81" height="1.81" id="img-ee172b2b-9" fill="#00BFFF" class="color_Source_1"/>
      <rect x="119.99" y="46.38" width="1.81" height="1.81" id="img-ee172b2b-10" fill="#D4CA3A" class="color_Source_2"/>
    </g>
    <g fill="#362A35" font-size="3.88" font-family="'PT Sans','Helvetica Neue','Helvetica',sans-serif" stroke="#000000" stroke-opacity="0.000" id="img-ee172b2b-11">
      <text x="119.99" y="39.84" id="img-ee172b2b-12">Unmixed sources</text>
    </g>
  </g>
<g clip-path="url(#img-ee172b2b-13)">
  <g id="img-ee172b2b-14">
    <g pointer-events="visible" opacity="1" fill="#000000" fill-opacity="0.000" stroke="#000000" stroke-opacity="0.000" class="guide background" id="img-ee172b2b-15">
      <rect x="17.18" y="5" width="101.81" height="77.32" id="img-ee172b2b-16"/>
    </g>
    <g class="guide ygridlines xfixed" stroke-dasharray="0.5,0.5" stroke-width="0.2" stroke="#D0D0E0" id="img-ee172b2b-17">
      <path fill="none" d="M17.18,80.32 L 118.99 80.32" id="img-ee172b2b-18"/>
      <path fill="none" d="M17.18,68.1 L 118.99 68.1" id="img-ee172b2b-19"/>
      <path fill="none" d="M17.18,55.88 L 118.99 55.88" id="img-ee172b2b-20"/>
      <path fill="none" d="M17.18,43.66 L 118.99 43.66" id="img-ee172b2b-21"/>
      <path fill="none" d="M17.18,31.44 L 118.99 31.44" id="img-ee172b2b-22"/>
      <path fill="none" d="M17.18,19.22 L 118.99 19.22" id="img-ee172b2b-23"/>
      <path fill="none" d="M17.18,7 L 118.99 7" id="img-ee172b2b-24"/>
    </g>
    <g class="guide xgridlines yfixed" stroke-dasharray="0.5,0.5" stroke-width="0.2" stroke="#D0D0E0" id="img-ee172b2b-25">
      <path fill="none" d="M19.18,5 L 19.18 82.32" id="img-ee172b2b-26"/>
      <path fill="none" d="M68.09,5 L 68.09 82.32" id="img-ee172b2b-27"/>
      <path fill="none" d="M116.99,5 L 116.99 82.32" id="img-ee172b2b-28"/>
    </g>
    <g class="plotpanel" id="img-ee172b2b-29">
      <g stroke-width="0.3" fill="#000000" fill-opacity="0.000" class="geometry color_Source_2" stroke-dasharray="none" stroke="#D4CA3A" id="img-ee172b2b-30">
        <path fill="none" d="M20.16,74.66 L 21.14 75.43 22.12 76.09 23.1 76.66 24.07 77.15 25.05 77.57 26.03 77.94 27.01 78.25 27.99 78.51 28.96 78.74 29.94 78.93 30.92 79.1 31.9 79.24 32.88 79.36 33.85 79.46 34.83 79.55 35.81 79.62 36.79 79.68 37.77 79.74 38.75 79.78 39.72 79.82 40.7 79.85 41.68 79.88 42.66 79.9 43.64 79.92 44.61 80.31 45.59 79.95 46.57 79.3 47.55 79.97 48.53 79.98 49.5 79.98 50.48 80 51.46 79.98 52.44 79.96 53.42 79.93 54.39 79.78 55.37 70.19 56.35 79.68 57.33 80.3 58.31 80.31 59.29 80.3 60.26 80.3 61.24 80.3 62.22 80.31 63.2 80.24 64.18 80.31 65.15 80.31 66.13 80.31 67.11 80.31 68.09 80.31 69.07 79.35 70.04 7.01 71.02 80.31 72 80.31 72.98 80.28 73.96 77.42 74.93 77.64 75.91 76.93 76.89 79.8 77.87 80.02 78.85 80.05 79.83 80.08 80.8 80.09 81.78 80.1 82.76 80.11 83.74 80.14 84.72 80.12 85.69 80.13 86.67 80.13 87.65 80.19 88.63 80.21 89.61 80.15 90.58 80.15 91.56 80.15 92.54 80.15 93.52 80.16 94.5 80.16 95.47 80.16 96.45 80.16 97.43 80.16 98.41 80.16 99.39 80.15 100.36 80.15 101.34 80.15 102.32 80.15 103.3 80.14 104.28 80.15 105.26 80.13 106.23 80.24 107.21 80.13 108.19 80.12 109.17 80.14 110.15 80.11 111.12 80.1 112.1 80.08 113.08 80.05 114.06 80.02 115.04 79.91 116.01 79.49 116.99 76.71" id="img-ee172b2b-31"/>
      </g>
      <g stroke-width="0.3" fill="#000000" fill-opacity="0.000" class="geometry color_Source_1" stroke-dasharray="none" stroke="#00BFFF" id="img-ee172b2b-32">
        <path fill="none" d="M20.16,79.49 L 21.14 79.5 22.12 79.51 23.1 79.52 24.07 79.52 25.05 79.52 26.03 79.52 27.01 79.52 27.99 79.52 28.96 79.53 29.94 79.54 30.92 79.53 31.9 79.54 32.88 79.55 33.85 79.56 34.83 79.57 35.81 79.58 36.79 79.6 37.77 79.61 38.75 79.63 39.72 79.66 40.7 79.68 41.68 79.71 42.66 79.75 43.64 79.96 44.61 79.62 45.59 79.72 46.57 78.93 47.55 79.87 48.53 79.86 49.5 79.89 50.48 79.92 51.46 79.95 52.44 79.99 53.42 80.01 54.39 80.06 55.37 80.24 56.35 80.13 57.33 80.18 58.31 80.19 59.29 80.22 60.26 80.23 61.24 80.24 62.22 80.25 63.2 80.25 64.18 80.27 65.15 80.28 66.13 80.27 67.11 80.27 68.09 80.25 69.07 80.24 70.04 80.1 71.02 80.22 72 80.21 72.98 80.18 73.96 80.18 74.93 80.16 75.91 80.15 76.89 80.07 77.87 80 78.85 79.99 79.83 79.95 80.8 79.92 81.78 79.89 82.76 79.87 83.74 79.88 84.72 79.88 85.69 79.88 86.67 79.72 87.65 79.67 88.63 79.26 89.61 79.81 90.58 79.74 91.56 79.73 92.54 79.72 93.52 79.7 94.5 79.69 95.47 79.69 96.45 79.68 97.43 79.69 98.41 79.7 99.39 79.71 100.36 79.73 101.34 79.76 102.32 79.79 103.3 80.29 104.28 79.78 105.26 79.72 106.23 79.63 107.21 80.08 108.19 79.85 109.17 79.9 110.15 79.89 111.12 79.92 112.1 79.95 113.08 79.99 114.06 80 115.04 80.03 116.01 80.1 116.99 80.18" id="img-ee172b2b-33"/>
      </g>
    </g>
  </g>
</g>
  <g class="guide ylabels" font-size="2.82" font-family="'PT Sans Caption','Helvetica Neue','Helvetica',sans-serif" fill="#6C606B" id="img-ee172b2b-34">
    <text x="16.18" y="80.32" text-anchor="end" dy="0.35em" id="img-ee172b2b-35">0.0</text>
    <text x="16.18" y="68.1" text-anchor="end" dy="0.35em" id="img-ee172b2b-36">0.1</text>
    <text x="16.18" y="55.88" text-anchor="end" dy="0.35em" id="img-ee172b2b-37">0.2</text>
    <text x="16.18" y="43.66" text-anchor="end" dy="0.35em" id="img-ee172b2b-38">0.3</text>
    <text x="16.18" y="31.44" text-anchor="end" dy="0.35em" id="img-ee172b2b-39">0.4</text>
    <text x="16.18" y="19.22" text-anchor="end" dy="0.35em" id="img-ee172b2b-40">0.5</text>
    <text x="16.18" y="7" text-anchor="end" dy="0.35em" id="img-ee172b2b-41">0.6</text>
  </g>
  <g font-size="3.88" font-family="'PT Sans','Helvetica Neue','Helvetica',sans-serif" fill="#564A55" stroke="#000000" stroke-opacity="0.000" id="img-ee172b2b-42">
    <text x="9.16" y="43.66" text-anchor="end" dy="0.35em" id="img-ee172b2b-43">Y</text>
  </g>
</g>
<defs>
  <clipPath id="img-ee172b2b-13">
  <path d="M17.18,5 L 118.99 5 118.99 82.32 17.18 82.32" />
</clipPath>
</defs>
</svg>
