<?xml version="1.0" encoding="UTF-8"?>
<svg xmlns="http://www.w3.org/2000/svg"
     xmlns:xlink="http://www.w3.org/1999/xlink"
     xmlns:gadfly="http://www.gadflyjl.org/ns"
     version="1.2"
     width="152.4mm" height="101.6mm" viewBox="0 0 152.4 101.6"
     stroke="none"
     fill="#000000"
     stroke-width="0.3"
     font-size="3.88"
>
<g class="plotroot xscalable yscalable" id="img-ee172b2b-1">
  <g font-size="3.88" font-family="'PT Sans','Helvetica Neue','Helvetica',sans-serif" fill="#564A55" stroke="#000000" stroke-opacity="0.000" id="img-ee172b2b-2">
    <text x="68.09" y="89.99" text-anchor="middle" dy="0.6em">X</text>
  </g>
  <g class="guide xlabels" font-size="2.82" font-family="'PT Sans Caption','Helvetica Neue','Helvetica',sans-serif" fill="#6C606B" id="img-ee172b2b-3">
    <text x="19.18" y="83.32" text-anchor="middle" dy="0.6em">0</text>
    <text x="68.09" y="83.32" text-anchor="middle" dy="0.6em">50</text>
    <text x="116.99" y="83.32" text-anchor="middle" dy="0.6em">100</text>
  </g>
  <g class="guide colorkey" id="img-ee172b2b-4">
    <g fill="#4C404B" font-size="2.82" font-family="'PT Sans','Helvetica Neue','Helvetica',sans-serif" id="img-ee172b2b-5">
      <text x="122.81" y="43.66" dy="0.35em" id="img-ee172b2b-6" class="color_Source_1">Source 1</text>
      <text x="122.81" y="47.28" dy="0.35em" id="img-ee172b2b-7" class="color_Source_2">Source 2</text>
    </g>
    <g stroke="#000000" stroke-opacity="0.000" id="img-ee172b2b-8">
      <rect x="119.99" y="42.75" width="1.81" height="1.81" id="img-ee172b2b-9" class="color_Source_1" fill="#00BFFF"/>
      <rect x="119.99" y="46.38" width="1.81" height="1.81" id="img-ee172b2b-10" class="color_Source_2" fill="#D4CA3A"/>
    </g>
    <g fill="#362A35" font-size="3.88" font-family="'PT Sans','Helvetica Neue','Helvetica',sans-serif" stroke="#000000" stroke-opacity="0.000" id="img-ee172b2b-11">
      <text x="119.99" y="39.84" id="img-ee172b2b-12">Unmixed sources</text>
    </g>
  </g>
<g clip-path="url(#img-ee172b2b-13)">
  <g id="img-ee172b2b-14">
    <g pointer-events="visible" opacity="1" fill="#000000" fill-opacity="0.000" stroke="#000000" stroke-opacity="0.000" class="guide background" id="img-ee172b2b-15">
      <rect x="17.18" y="5" width="101.81" height="77.32" id="img-ee172b2b-16"/>
    </g>
    <g class="guide ygridlines xfixed" stroke-dasharray="0.5,0.5" stroke-width="0.2" stroke="#D0D0E0" id="img-ee172b2b-17">
      <path fill="none" d="M17.18,43.66 L 118.99 43.66" id="img-ee172b2b-18"/>
    </g>
    <g class="guide xgridlines yfixed" stroke-dasharray="0.5,0.5" stroke-width="0.2" stroke="#D0D0E0" id="img-ee172b2b-19">
      <path fill="none" d="M19.18,5 L 19.18 82.32" id="img-ee172b2b-20"/>
      <path fill="none" d="M68.09,5 L 68.09 82.32" id="img-ee172b2b-21"/>
      <path fill="none" d="M116.99,5 L 116.99 82.32" id="img-ee172b2b-22"/>
    </g>
    <g class="plotpanel" id="img-ee172b2b-23">
      <g stroke-width="0.3" fill="#000000" fill-opacity="0.000" class="geometry color_Source_2" stroke-dasharray="none" stroke="#D4CA3A" id="img-ee172b2b-24">
        <path fill="none" d="M20.16,43.66 L 21.14 43.66 22.12 43.66 23.1 43.66 24.07 43.66 25.05 43.66 26.03 43.66 27.01 43.66 27.99 43.66 28.96 43.66 29.94 43.66 30.92 43.66 31.9 43.66 32.88 43.66 33.85 43.66 34.83 43.66 35.81 43.66 36.79 43.66 37.77 43.66 38.75 43.66 39.72 43.66 40.7 43.66 41.68 43.66 42.66 43.66 43.64 43.66 44.61 43.66 45.59 43.66 46.57 43.66 47.55 43.66 48.53 43.66 49.5 43.66 50.48 43.66 51.46 43.66 52.44 43.66 53.42 43.66 54.39 43.66 55.37 43.66 56.35 43.66 57.33 43.66 58.31 43.66 59.29 43.66 60.26 43.66 61.24 43.66 62.22 43.66 63.2 43.66 64.18 43.66 65.15 43.66 66.13 43.66 67.11 43.66 68.09 43.66 69.07 43.66 70.04 43.66 71.02 43.66 72 43.66 72.98 43.66 73.96 43.66 74.93 43.66 75.91 43.66 76.89 43.66 77.87 43.66 78.85 43.66 79.83 43.66 80.8 43.66 81.78 43.66 82.76 43.66 83.74 43.66 84.72 43.66 85.69 43.66 86.67 43.66 87.65 43.66 88.63 43.66 89.61 43.66 90.58 43.66 91.56 43.66 92.54 43.66 93.52 43.66 94.5 43.66 95.47 43.66 96.45 43.66 97.43 43.66 98.41 43.66 99.39 43.66 100.36 43.66 101.34 43.66 102.32 43.66 103.3 43.66 104.28 43.66 105.26 43.66 106.23 43.66 107.21 43.66 108.19 43.66 109.17 43.66 110.15 43.66 111.12 43.66 112.1 43.66 113.08 43.66 114.06 43.66 115.04 43.66 116.01 43.66 116.99 43.66" id="img-ee172b2b-25"/>
      </g>
      <g stroke-width="0.3" fill="#000000" fill-opacity="0.000" class="geometry color_Source_1" stroke-dasharray="none" stroke="#00BFFF" id="img-ee172b2b-26">
        <path fill="none" d="M20.16,43.66 L 21.14 43.66 22.12 43.66 23.1 43.66 24.07 43.66 25.05 43.66 26.03 43.66 27.01 43.66 27.99 43.66 28.96 43.66 29.94 43.66 30.92 43.66 31.9 43.66 32.88 43.66 33.85 43.66 34.83 43.66 35.81 43.66 36.79 43.66 37.77 43.66 38.75 43.66 39.72 43.66 40.7 43.66 41.68 43.66 42.66 43.66 43.64 43.66 44.61 43.66 45.59 43.66 46.57 43.66 47.55 43.66 48.53 43.66 49.5 43.66 50.48 43.66 51.46 43.66 52.44 43.66 53.42 43.66 54.39 43.66 55.37 43.66 56.35 43.66 57.33 43.66 58.31 43.66 59.29 43.66 60.26 43.66 61.24 43.66 62.22 43.66 63.2 43.66 64.18 43.66 65.15 43.66 66.13 43.66 67.11 43.66 68.09 43.66 69.07 43.66 70.04 43.66 71.02 43.66 72 43.66 72.98 43.66 73.96 43.66 74.93 43.66 75.91 43.66 76.89 43.66 77.87 43.66 78.85 43.66 79.83 43.66 80.8 43.66 81.78 43.66 82.76 43.66 83.74 43.66 84.72 43.66 85.69 43.66 86.67 43.66 87.65 43.66 88.63 43.66 89.61 43.66 90.58 43.66 91.56 43.66 92.54 43.66 93.52 43.66 94.5 43.66 95.47 43.66 96.45 43.66 97.43 43.66 98.41 43.66 99.39 43.66 100.36 43.66 101.34 43.66 102.32 43.66 103.3 43.66 104.28 43.66 105.26 43.66 106.23 43.66 107.21 43.66 108.19 43.66 109.17 43.66 110.15 43.66 111.12 43.66 112.1 43.66 113.08 43.66 114.06 43.66 115.04 43.66 116.01 43.66 116.99 43.66" id="img-ee172b2b-27"/>
      </g>
    </g>
  </g>
</g>
  <g class="guide ylabels" font-size="2.82" font-family="'PT Sans Caption','Helvetica Neue','Helvetica',sans-serif" fill="#6C606B" id="img-ee172b2b-28">
    <text x="16.18" y="43.66" text-anchor="end" dy="0.35em" id="img-ee172b2b-29">0.5</text>
  </g>
  <g font-size="3.88" font-family="'PT Sans','Helvetica Neue','Helvetica',sans-serif" fill="#564A55" stroke="#000000" stroke-opacity="0.000" id="img-ee172b2b-30">
    <text x="9.16" y="43.66" text-anchor="end" dy="0.35em" id="img-ee172b2b-31">Y</text>
  </g>
</g>
<defs>
  <clipPath id="img-ee172b2b-13">
  <path d="M17.18,5 L 118.99 5 118.99 82.32 17.18 82.32" />
</clipPath>
</defs>
</svg>
