<?xml version="1.0" encoding="UTF-8"?>
<svg xmlns="http://www.w3.org/2000/svg"
     xmlns:xlink="http://www.w3.org/1999/xlink"
     xmlns:gadfly="http://www.gadflyjl.org/ns"
     version="1.2"
     width="152.4mm" height="101.6mm" viewBox="0 0 152.4 101.6"
     stroke="none"
     fill="#000000"
     stroke-width="0.3"
     font-size="3.88"
>
<g class="plotroot xscalable yscalable" id="img-15069ec6-1">
  <g font-size="3.88" font-family="'PT Sans','Helvetica Neue','Helvetica',sans-serif" fill="#564A55" stroke="#000000" stroke-opacity="0.000" id="img-15069ec6-2">
    <text x="68.09" y="89.99" text-anchor="middle" dy="0.6em">X</text>
  </g>
  <g class="guide xlabels" font-size="2.82" font-family="'PT Sans Caption','Helvetica Neue','Helvetica',sans-serif" fill="#6C606B" id="img-15069ec6-3">
    <text x="19.18" y="83.32" text-anchor="middle" dy="0.6em">0</text>
    <text x="68.09" y="83.32" text-anchor="middle" dy="0.6em">50</text>
    <text x="116.99" y="83.32" text-anchor="middle" dy="0.6em">100</text>
  </g>
  <g class="guide colorkey" id="img-15069ec6-4">
    <g fill="#4C404B" font-size="2.82" font-family="'PT Sans','Helvetica Neue','Helvetica',sans-serif" id="img-15069ec6-5">
      <text x="122.81" y="41.84" dy="0.35em" id="img-15069ec6-6" class="color_Source_1">Source 1</text>
      <text x="122.81" y="45.47" dy="0.35em" id="img-15069ec6-7" class="color_Source_2">Source 2</text>
      <text x="122.81" y="49.1" dy="0.35em" id="img-15069ec6-8" class="color_Source_3">Source 3</text>
    </g>
    <g stroke="#000000" stroke-opacity="0.000" id="img-15069ec6-9">
      <rect x="119.99" y="40.94" width="1.81" height="1.81" id="img-15069ec6-10" fill="#00BFFF" class="color_Source_1"/>
      <rect x="119.99" y="44.56" width="1.81" height="1.81" id="img-15069ec6-11" fill="#D4CA3A" class="color_Source_2"/>
      <rect x="119.99" y="48.19" width="1.81" height="1.81" id="img-15069ec6-12" fill="#FF6DAE" class="color_Source_3"/>
    </g>
    <g fill="#362A35" font-size="3.88" font-family="'PT Sans','Helvetica Neue','Helvetica',sans-serif" stroke="#000000" stroke-opacity="0.000" id="img-15069ec6-13">
      <text x="119.99" y="38.02" id="img-15069ec6-14">Unmixed sources</text>
    </g>
  </g>
<g clip-path="url(#img-15069ec6-15)">
  <g id="img-15069ec6-16">
    <g pointer-events="visible" opacity="1" fill="#000000" fill-opacity="0.000" stroke="#000000" stroke-opacity="0.000" class="guide background" id="img-15069ec6-17">
      <rect x="17.18" y="5" width="101.81" height="77.32" id="img-15069ec6-18"/>
    </g>
    <g class="guide ygridlines xfixed" stroke-dasharray="0.5,0.5" stroke-width="0.2" stroke="#D0D0E0" id="img-15069ec6-19">
      <path fill="none" d="M17.18,80.32 L 118.99 80.32" id="img-15069ec6-20"/>
      <path fill="none" d="M17.18,61.99 L 118.99 61.99" id="img-15069ec6-21"/>
      <path fill="none" d="M17.18,43.66 L 118.99 43.66" id="img-15069ec6-22"/>
      <path fill="none" d="M17.18,25.33 L 118.99 25.33" id="img-15069ec6-23"/>
      <path fill="none" d="M17.18,7 L 118.99 7" id="img-15069ec6-24"/>
    </g>
    <g class="guide xgridlines yfixed" stroke-dasharray="0.5,0.5" stroke-width="0.2" stroke="#D0D0E0" id="img-15069ec6-25">
      <path fill="none" d="M19.18,5 L 19.18 82.32" id="img-15069ec6-26"/>
      <path fill="none" d="M68.09,5 L 68.09 82.32" id="img-15069ec6-27"/>
      <path fill="none" d="M116.99,5 L 116.99 82.32" id="img-15069ec6-28"/>
    </g>
    <g class="plotpanel" id="img-15069ec6-29">
      <g stroke-width="0.3" fill="#000000" fill-opacity="0.000" class="geometry color_Source_3" stroke-dasharray="none" stroke="#FF6DAE" id="img-15069ec6-30">
        <path fill="none" d="M20.16,43.63 L 21.14 63.34 22.12 63.78 23.1 59.5 24.07 78.76 25.05 62.96 26.03 75.43 27.01 17.47 27.99 19.74 28.96 65.82 29.94 57.26 30.92 60.68 31.9 16.68 32.88 56 33.85 74.6 34.83 21.2 35.81 69.53 36.79 59.75 37.77 79.67 38.75 55.13 39.72 24.03 40.7 21.66 41.68 49.18 42.66 64.84 43.64 78.89 44.61 66.66 45.59 74.35 46.57 17.88 47.55 41.05 48.53 38.83 49.5 65.26 50.48 65.4 51.46 58.46 52.44 37.44 53.42 32.38 54.39 65.4 55.37 44.91 56.35 76.77 57.33 79.26 58.31 55.87 59.29 51.48 60.26 53.24 61.24 21.94 62.22 59.69 63.2 75.28 64.18 10.02 65.15 51.15 66.13 63.68 67.11 26.42 68.09 52.32 69.07 38.6 70.04 24.22 71.02 66.2 72 32.79 72.98 20.14 73.96 56.29 74.93 13.52 75.91 30.15 76.89 53.8 77.87 31.12 78.85 46.5 79.83 68.75 80.8 49.65 81.78 21.22 82.76 23.52 83.74 51.14 84.72 72.71 85.69 9.27 86.67 18.59 87.65 29.54 88.63 37.89 89.61 17.02 90.58 34.68 91.56 19.15 92.54 39.66 93.52 16.09 94.5 30.69 95.47 26.9 96.45 71.08 97.43 8.29 98.41 61.29 99.39 31.48 100.36 75.92 101.34 64.85 102.32 10.76 103.3 78.7 104.28 80.19 105.26 23.41 106.23 38.92 107.21 11.3 108.19 35.47 109.17 14.23 110.15 38.58 111.12 43.07 112.1 50.31 113.08 10.45 114.06 22.44 115.04 26.71 116.01 32.75 116.99 36.08" id="img-15069ec6-31"/>
      </g>
      <g stroke-width="0.3" fill="#000000" fill-opacity="0.000" class="geometry color_Source_2" stroke-dasharray="none" stroke="#D4CA3A" id="img-15069ec6-32">
        <path fill="none" d="M20.16,36.95 L 21.14 27.89 22.12 20.57 23.1 15.62 24.07 13.35 25.05 14.18 26.03 17.82 27.01 24.29 27.99 32.55 28.96 41.92 29.94 51.91 30.92 61.39 31.9 69.73 32.88 75.71 33.85 79.17 34.83 79.98 35.81 77.44 36.79 72.36 37.77 64.87 38.75 55.9 39.72 46.13 40.7 36.29 41.68 27.28 42.66 20.03 43.64 15.16 44.61 13.18 45.59 14.1 46.57 18.16 47.55 24.47 48.53 32.84 49.5 42.35 50.48 52.32 51.46 61.79 52.44 69.96 53.42 75.98 54.39 79.24 55.37 79.78 56.35 77.15 57.33 71.89 58.31 64.46 59.29 55.36 60.26 45.46 61.24 35.77 62.22 26.81 63.2 19.69 64.18 15.28 65.15 13.27 66.13 14.36 67.11 18.51 68.09 24.95 69.07 33.47 70.04 43.18 71.02 53 72 62.53 72.98 70.58 73.96 76.32 74.93 79.71 75.91 79.95 76.89 77.2 77.87 71.9 78.85 64.23 79.83 54.97 80.8 45.13 81.78 35.47 82.76 26.72 83.74 19.69 84.72 15.1 85.69 13.66 86.67 14.92 87.65 19.05 88.63 25.68 89.61 34.32 90.58 43.95 91.56 53.97 92.54 63.25 93.52 71.23 94.5 76.92 95.47 80 96.45 79.96 97.43 77.37 98.41 71.65 99.39 64.03 100.36 54.62 101.34 44.72 102.32 35.19 103.3 26.27 104.28 19.45 105.26 15.3 106.23 13.72 107.21 15.28 108.19 19.5 109.17 26.35 110.15 34.9 111.12 44.6 112.1 54.52 113.08 63.95 114.06 71.69 115.04 77.26 116.01 80.14 116.99 80.07" id="img-15069ec6-33"/>
      </g>
      <g stroke-width="0.3" fill="#000000" fill-opacity="0.000" class="geometry color_Source_1" stroke-dasharray="none" stroke="#00BFFF" id="img-15069ec6-34">
        <path fill="none" d="M20.16,46.58 L 21.14 45.01 22.12 43.36 23.1 41.72 24.07 40.27 25.05 38.68 26.03 37.31 27.01 35.61 27.99 34.3 28.96 33.29 29.94 32.01 30.92 30.84 31.9 29.42 32.88 28.5 33.85 27.47 34.83 26.06 35.81 25.23 36.79 24.11 37.77 23.18 38.75 22.04 39.72 20.92 40.7 20.03 41.68 19.4 42.66 18.79 43.64 18.27 44.61 17.72 45.59 17.39 46.57 16.82 47.55 16.8 48.53 16.75 49.5 16.95 50.48 17.09 51.46 17.26 52.44 17.41 53.42 17.7 54.39 18.25 55.37 18.53 56.35 19.15 57.33 19.64 58.31 20.03 59.29 20.57 60.26 21.21 61.24 21.73 62.22 22.72 63.2 23.68 64.18 24.26 65.15 25.55 66.13 26.76 67.11 27.79 68.09 29.25 69.07 30.56 70.04 31.93 71.02 33.66 72 35 72.98 36.47 73.96 38.21 74.93 39.51 75.91 41.12 76.89 42.75 77.87 44.1 78.85 45.65 79.83 47.22 80.8 48.55 81.78 49.83 82.76 51.3 83.74 52.92 84.72 54.52 85.69 55.67 86.67 57.25 87.65 58.85 88.63 60.44 89.61 61.85 90.58 63.47 91.56 64.86 92.54 66.41 93.52 67.65 94.5 69.02 95.47 70.2 96.45 71.57 97.43 72.23 98.41 73.45 99.39 74.12 100.36 75.12 101.34 75.73 102.32 76.04 103.3 76.97 104.28 77.48 105.26 77.63 106.23 78.14 107.21 78.37 108.19 78.86 109.17 79.04 110.15 79.43 111.12 79.64 112.1 79.79 113.08 79.58 114.06 79.58 115.04 79.42 116.01 79.16 116.99 78.77" id="img-15069ec6-35"/>
      </g>
    </g>
  </g>
</g>
  <g class="guide ylabels" font-size="2.82" font-family="'PT Sans Caption','Helvetica Neue','Helvetica',sans-serif" fill="#6C606B" id="img-15069ec6-36">
    <text x="16.18" y="80.32" text-anchor="end" dy="0.35em" id="img-15069ec6-37">0.0</text>
    <text x="16.18" y="61.99" text-anchor="end" dy="0.35em" id="img-15069ec6-38">0.2</text>
    <text x="16.18" y="43.66" text-anchor="end" dy="0.35em" id="img-15069ec6-39">0.4</text>
    <text x="16.18" y="25.33" text-anchor="end" dy="0.35em" id="img-15069ec6-40">0.6</text>
    <text x="16.18" y="7" text-anchor="end" dy="0.35em" id="img-15069ec6-41">0.8</text>
  </g>
  <g font-size="3.88" font-family="'PT Sans','Helvetica Neue','Helvetica',sans-serif" fill="#564A55" stroke="#000000" stroke-opacity="0.000" id="img-15069ec6-42">
    <text x="9.16" y="43.66" text-anchor="end" dy="0.35em" id="img-15069ec6-43">Y</text>
  </g>
</g>
<defs>
  <clipPath id="img-15069ec6-15">
  <path d="M17.18,5 L 118.99 5 118.99 82.32 17.18 82.32" />
</clipPath>
</defs>
</svg>
