<?xml version="1.0" encoding="UTF-8"?>
<svg xmlns="http://www.w3.org/2000/svg"
     xmlns:xlink="http://www.w3.org/1999/xlink"
     xmlns:gadfly="http://www.gadflyjl.org/ns"
     version="1.2"
     width="152.4mm" height="101.6mm" viewBox="0 0 152.4 101.6"
     stroke="none"
     fill="#000000"
     stroke-width="0.3"
     font-size="3.88"
>
<g class="plotroot xscalable yscalable" id="img-ad81fe11-1">
  <g font-size="3.88" font-family="'PT Sans','Helvetica Neue','Helvetica',sans-serif" fill="#564A55" stroke="#000000" stroke-opacity="0.000" id="img-ad81fe11-2">
    <text x="69.34" y="89.99" text-anchor="middle" dy="0.6em">X</text>
  </g>
  <g class="guide xlabels" font-size="2.82" font-family="'PT Sans Caption','Helvetica Neue','Helvetica',sans-serif" fill="#6C606B" id="img-ad81fe11-3">
    <text x="19.18" y="83.32" text-anchor="middle" dy="0.6em">0</text>
    <text x="69.34" y="83.32" text-anchor="middle" dy="0.6em">50</text>
    <text x="119.49" y="83.32" text-anchor="middle" dy="0.6em">100</text>
  </g>
  <g class="guide colorkey" id="img-ad81fe11-4">
    <g fill="#4C404B" font-size="2.82" font-family="'PT Sans','Helvetica Neue','Helvetica',sans-serif" id="img-ad81fe11-5">
      <text x="125.31" y="41.84" dy="0.35em" id="img-ad81fe11-6" class="color_Signal_1">Signal 1</text>
      <text x="125.31" y="45.47" dy="0.35em" id="img-ad81fe11-7" class="color_Signal_2">Signal 2</text>
      <text x="125.31" y="49.1" dy="0.35em" id="img-ad81fe11-8" class="color_Signal_3">Signal 3</text>
    </g>
    <g stroke="#000000" stroke-opacity="0.000" id="img-ad81fe11-9">
      <rect x="122.49" y="40.94" width="1.81" height="1.81" id="img-ad81fe11-10" class="color_Signal_1" fill="#00BFFF"/>
      <rect x="122.49" y="44.56" width="1.81" height="1.81" id="img-ad81fe11-11" class="color_Signal_2" fill="#D4CA3A"/>
      <rect x="122.49" y="48.19" width="1.81" height="1.81" id="img-ad81fe11-12" class="color_Signal_3" fill="#FF6DAE"/>
    </g>
    <g fill="#362A35" font-size="3.88" font-family="'PT Sans','Helvetica Neue','Helvetica',sans-serif" stroke="#000000" stroke-opacity="0.000" id="img-ad81fe11-13">
      <text x="122.49" y="38.02" id="img-ad81fe11-14">Original signals</text>
    </g>
  </g>
<g clip-path="url(#img-ad81fe11-15)">
  <g id="img-ad81fe11-16">
    <g pointer-events="visible" opacity="1" fill="#000000" fill-opacity="0.000" stroke="#000000" stroke-opacity="0.000" class="guide background" id="img-ad81fe11-17">
      <rect x="17.18" y="5" width="104.31" height="77.32" id="img-ad81fe11-18"/>
    </g>
    <g class="guide ygridlines xfixed" stroke-dasharray="0.5,0.5" stroke-width="0.2" stroke="#D0D0E0" id="img-ad81fe11-19">
      <path fill="none" d="M17.18,80.31 L 121.49 80.31" id="img-ad81fe11-20"/>
      <path fill="none" d="M17.18,43.66 L 121.49 43.66" id="img-ad81fe11-21"/>
      <path fill="none" d="M17.18,7 L 121.49 7" id="img-ad81fe11-22"/>
    </g>
    <g class="guide xgridlines yfixed" stroke-dasharray="0.5,0.5" stroke-width="0.2" stroke="#D0D0E0" id="img-ad81fe11-23">
      <path fill="none" d="M19.18,5 L 19.18 82.32" id="img-ad81fe11-24"/>
      <path fill="none" d="M69.34,5 L 69.34 82.32" id="img-ad81fe11-25"/>
      <path fill="none" d="M119.49,5 L 119.49 82.32" id="img-ad81fe11-26"/>
    </g>
    <g class="plotpanel" id="img-ad81fe11-27">
      <g stroke-width="0.3" fill="#000000" fill-opacity="0.000" class="geometry color_Signal_3" stroke-dasharray="none" stroke="#FF6DAE" id="img-ad81fe11-28">
        <path fill="none" d="M20.19,42.3 L 21.19 62.03 22.19 62.37 23.2 57.99 24.2 77.32 25.2 61.4 26.21 73.95 27.21 15.62 28.21 17.96 29.21 64.42 30.22 55.86 31.22 59.36 32.22 15.12 33.23 54.73 34.23 73.47 35.23 19.69 36.24 68.3 37.24 58.39 38.24 78.36 39.25 53.55 40.25 22.13 41.25 19.64 42.26 47.24 43.26 62.94 44.26 77.02 45.26 64.68 46.27 72.42 47.27 15.6 48.27 38.98 49.28 36.82 50.28 63.52 51.28 63.75 52.29 56.85 53.29 35.77 54.29 30.73 55.3 64.02 56.3 43.41 57.3 75.46 58.3 77.93 59.31 54.33 60.31 49.84 61.31 51.53 62.32 19.94 63.32 57.89 64.32 73.54 65.33 7.82 66.33 49.23 67.33 61.88 68.34 24.43 69.34 50.58 70.34 36.88 71.35 22.51 72.35 64.91 73.35 31.39 74.35 18.75 75.36 55.23 76.36 12.23 77.36 29.01 78.37 52.83 79.37 29.97 80.37 45.42 81.38 67.76 82.38 48.48 83.38 19.79 84.39 22.06 85.39 49.83 86.39 71.54 87.4 7.69 88.4 17.12 89.4 28.2 90.4 36.7 91.41 15.8 92.41 33.7 93.41 18.19 94.42 38.95 95.42 15.32 96.42 30.1 97.43 26.33 98.43 70.84 99.43 7.61 100.44 60.95 101.44 30.88 102.44 75.55 103.45 64.33 104.45 9.79 105.45 78.13 106.45 79.58 107.46 22.39 108.46 37.99 109.46 10.2 110.47 34.59 111.47 13.28 112.47 37.87 113.48 42.49 114.48 49.86 115.48 9.82 116.49 21.96 117.49 26.3 118.49 32.41 119.49 35.75" id="img-ad81fe11-29"/>
      </g>
      <g stroke-width="0.3" fill="#000000" fill-opacity="0.000" class="geometry color_Signal_2" stroke-dasharray="none" stroke="#D4CA3A" id="img-ad81fe11-30">
        <path fill="none" d="M20.19,32.82 L 21.19 22.96 22.19 14.94 23.2 9.49 24.2 7.09 25.2 7.96 26.21 12.01 27.21 18.9 28.21 27.99 29.21 38.48 30.22 49.44 31.22 59.88 32.22 68.87 33.23 75.61 34.23 79.49 35.23 80.17 36.24 77.6 37.24 71.99 38.24 63.84 39.25 53.9 40.25 43.04 41.25 32.24 42.26 22.45 43.26 14.56 44.26 9.27 45.26 7.05 46.27 8.1 47.27 12.33 48.27 19.35 49.28 28.55 50.28 39.1 51.28 50.05 52.29 60.43 53.29 69.31 54.29 75.9 55.3 79.62 56.3 80.12 57.3 77.36 58.3 71.59 59.31 63.33 60.31 53.31 61.31 42.42 62.32 31.65 63.32 21.95 64.32 14.19 65.33 9.06 66.33 7.03 67.33 8.26 68.34 12.65 69.34 19.82 70.34 29.11 71.35 39.71 72.35 50.65 73.35 60.98 74.35 69.75 75.36 76.19 76.36 79.73 77.36 80.05 78.37 77.11 79.37 71.19 80.37 62.8 81.38 52.71 82.38 41.81 83.38 31.07 84.39 21.46 85.39 13.83 86.39 8.86 87.4 7.01 88.4 8.42 89.4 12.99 90.4 20.29 91.41 29.68 92.41 40.32 93.41 51.26 94.42 61.52 95.42 70.18 96.42 76.47 97.43 79.84 98.43 79.97 99.43 76.85 100.44 70.78 101.44 62.28 102.44 52.11 103.45 41.19 104.45 30.5 105.45 20.97 106.45 13.48 107.46 8.68 108.46 7 109.46 8.6 110.47 13.33 111.47 20.77 112.47 30.25 113.48 40.94 114.48 51.86 115.48 62.05 116.49 70.6 117.49 76.74 118.49 79.93 119.49 79.88" id="img-ad81fe11-31"/>
      </g>
      <g stroke-width="0.3" fill="#000000" fill-opacity="0.000" class="geometry color_Signal_1" stroke-dasharray="none" stroke="#00BFFF" id="img-ad81fe11-32">
        <path fill="none" d="M20.19,41.83 L 21.19 40 22.19 38.18 23.2 36.37 24.2 34.59 25.2 32.82 26.21 31.09 27.21 29.38 28.21 27.71 29.21 26.08 30.22 24.5 31.22 22.96 32.22 21.47 33.23 20.04 34.23 18.67 35.23 17.36 36.24 16.12 37.24 14.94 38.24 13.84 39.25 12.81 40.25 11.86 41.25 10.99 42.26 10.2 43.26 9.49 44.26 8.87 45.26 8.34 46.27 7.89 47.27 7.53 48.27 7.27 49.28 7.09 50.28 7.01 51.28 7.02 52.29 7.11 53.29 7.31 54.29 7.59 55.3 7.96 56.3 8.42 57.3 8.97 58.3 9.6 59.31 10.32 60.31 11.13 61.31 12.01 62.32 12.98 63.32 14.02 64.32 15.14 65.33 16.32 66.33 17.58 67.33 18.9 68.34 20.28 69.34 21.72 70.34 23.21 71.35 24.76 72.35 26.35 73.35 27.99 74.35 29.67 75.36 31.38 76.36 33.12 77.36 34.89 78.37 36.68 79.37 38.48 80.37 40.3 81.38 42.13 82.38 43.97 83.38 45.8 84.39 47.62 85.39 49.44 86.39 51.24 87.4 53.02 88.4 54.78 89.4 56.52 90.4 58.22 91.41 59.88 92.41 61.5 93.41 63.08 94.42 64.61 95.42 66.09 96.42 67.51 97.43 68.87 98.43 70.17 99.43 71.4 100.44 72.56 101.44 73.65 102.44 74.67 103.45 75.61 104.45 76.47 105.45 77.24 106.45 77.93 107.46 78.54 108.46 79.06 109.46 79.49 110.47 79.83 111.47 80.08 112.47 80.24 113.48 80.31 114.48 80.29 115.48 80.17 116.49 79.97 117.49 79.67 118.49 79.29 119.49 78.81" id="img-ad81fe11-33"/>
      </g>
    </g>
  </g>
</g>
  <g class="guide ylabels" font-size="2.82" font-family="'PT Sans Caption','Helvetica Neue','Helvetica',sans-serif" fill="#6C606B" id="img-ad81fe11-34">
    <text x="16.18" y="80.31" text-anchor="end" dy="0.35em" id="img-ad81fe11-35">0.0</text>
    <text x="16.18" y="43.66" text-anchor="end" dy="0.35em" id="img-ad81fe11-36">0.5</text>
    <text x="16.18" y="7" text-anchor="end" dy="0.35em" id="img-ad81fe11-37">1.0</text>
  </g>
  <g font-size="3.88" font-family="'PT Sans','Helvetica Neue','Helvetica',sans-serif" fill="#564A55" stroke="#000000" stroke-opacity="0.000" id="img-ad81fe11-38">
    <text x="9.16" y="43.66" text-anchor="end" dy="0.35em" id="img-ad81fe11-39">Y</text>
  </g>
</g>
<defs>
  <clipPath id="img-ad81fe11-15">
  <path d="M17.18,5 L 121.49 5 121.49 82.32 17.18 82.32" />
</clipPath>
</defs>
</svg>
