<?xml version="1.0" encoding="UTF-8"?>
<svg xmlns="http://www.w3.org/2000/svg"
     xmlns:xlink="http://www.w3.org/1999/xlink"
     xmlns:gadfly="http://www.gadflyjl.org/ns"
     version="1.2"
     width="152.4mm" height="101.6mm" viewBox="0 0 152.4 101.6"
     stroke="none"
     fill="#000000"
     stroke-width="0.3"
     font-size="3.88"
>
<g class="plotroot xscalable yscalable" id="img-c776ffa8-1">
  <g font-size="3.88" font-family="'PT Sans','Helvetica Neue','Helvetica',sans-serif" fill="#564A55" stroke="#000000" stroke-opacity="0.000" id="img-c776ffa8-2">
    <text x="65.77" y="89.99" text-anchor="middle" dy="0.6em">X</text>
  </g>
  <g class="guide xlabels" font-size="2.82" font-family="'PT Sans Caption','Helvetica Neue','Helvetica',sans-serif" fill="#6C606B" id="img-c776ffa8-3">
    <text x="18.51" y="83.32" text-anchor="middle" dy="0.6em">0</text>
    <text x="65.77" y="83.32" text-anchor="middle" dy="0.6em">50</text>
    <text x="113.03" y="83.32" text-anchor="middle" dy="0.6em">100</text>
  </g>
  <g class="guide colorkey" id="img-c776ffa8-4">
    <g fill="#4C404B" font-size="2.82" font-family="'PT Sans','Helvetica Neue','Helvetica',sans-serif" id="img-c776ffa8-5">
      <text x="118.85" y="41.84" dy="0.35em" id="img-c776ffa8-6" class="color_Signal_1">Signal 1</text>
      <text x="118.85" y="45.47" dy="0.35em" id="img-c776ffa8-7" class="color_Signal_2">Signal 2</text>
      <text x="118.85" y="49.1" dy="0.35em" id="img-c776ffa8-8" class="color_Signal_3">Signal 3</text>
    </g>
    <g stroke="#000000" stroke-opacity="0.000" id="img-c776ffa8-9">
      <rect x="116.03" y="40.94" width="1.81" height="1.81" id="img-c776ffa8-10" class="color_Signal_1" fill="#00BFFF"/>
      <rect x="116.03" y="44.56" width="1.81" height="1.81" id="img-c776ffa8-11" class="color_Signal_2" fill="#D4CA3A"/>
      <rect x="116.03" y="48.19" width="1.81" height="1.81" id="img-c776ffa8-12" class="color_Signal_3" fill="#FF6DAE"/>
    </g>
    <g fill="#362A35" font-size="3.88" font-family="'PT Sans','Helvetica Neue','Helvetica',sans-serif" stroke="#000000" stroke-opacity="0.000" id="img-c776ffa8-13">
      <text x="116.03" y="38.02" id="img-c776ffa8-14">Reproduced signals</text>
    </g>
  </g>
<g clip-path="url(#img-c776ffa8-15)">
  <g id="img-c776ffa8-16">
    <g pointer-events="visible" opacity="1" fill="#000000" fill-opacity="0.000" stroke="#000000" stroke-opacity="0.000" class="guide background" id="img-c776ffa8-17">
      <rect x="16.51" y="5" width="98.52" height="77.32" id="img-c776ffa8-18"/>
    </g>
    <g class="guide ygridlines xfixed" stroke-dasharray="0.5,0.5" stroke-width="0.2" stroke="#D0D0E0" id="img-c776ffa8-19">
      <path fill="none" d="M16.51,80.31 L 115.03 80.31" id="img-c776ffa8-20"/>
      <path fill="none" d="M16.51,68.1 L 115.03 68.1" id="img-c776ffa8-21"/>
      <path fill="none" d="M16.51,55.88 L 115.03 55.88" id="img-c776ffa8-22"/>
      <path fill="none" d="M16.51,43.66 L 115.03 43.66" id="img-c776ffa8-23"/>
      <path fill="none" d="M16.51,31.44 L 115.03 31.44" id="img-c776ffa8-24"/>
      <path fill="none" d="M16.51,19.22 L 115.03 19.22" id="img-c776ffa8-25"/>
      <path fill="none" d="M16.51,7 L 115.03 7" id="img-c776ffa8-26"/>
    </g>
    <g class="guide xgridlines yfixed" stroke-dasharray="0.5,0.5" stroke-width="0.2" stroke="#D0D0E0" id="img-c776ffa8-27">
      <path fill="none" d="M18.51,5 L 18.51 82.32" id="img-c776ffa8-28"/>
      <path fill="none" d="M65.77,5 L 65.77 82.32" id="img-c776ffa8-29"/>
      <path fill="none" d="M113.03,5 L 113.03 82.32" id="img-c776ffa8-30"/>
    </g>
    <g class="plotpanel" id="img-c776ffa8-31">
      <g stroke-width="0.3" fill="#000000" fill-opacity="0.000" class="geometry color_Signal_3" stroke-dasharray="none" stroke="#FF6DAE" id="img-c776ffa8-32">
        <path fill="none" d="M19.46,11.87 L 20.4 14.11 21.35 15.99 22.29 17.57 23.24 18.9 24.18 20.03 25.13 21 26.07 21.86 27.02 22.65 27.96 23.38 28.91 24.11 29.85 24.84 30.8 25.61 31.74 26.44 32.69 27.34 33.63 28.33 34.58 29.41 35.52 30.6 36.47 31.89 37.41 33.3 38.36 34.82 39.3 36.45 40.25 38.18 41.2 40.01 42.14 41.92 43.09 43.91 44.03 45.97 44.98 48.08 45.92 50.22 46.87 52.38 47.81 54.55 48.76 56.7 49.7 58.82 50.65 60.89 51.59 62.9 52.54 64.82 53.48 66.65 54.43 68.36 55.37 69.94 56.32 71.38 57.26 72.66 58.21 73.01 59.15 73.01 60.1 73.01 61.05 73.01 61.99 73.01 62.94 73.01 63.88 73.01 64.83 73.01 65.77 73.01 66.72 73.01 67.66 73.01 68.61 73.01 69.55 72.35 70.5 71.06 71.44 69.64 72.39 68.09 73.33 66.43 74.28 64.68 75.22 62.85 76.17 60.97 77.11 59.05 78.06 57.12 79 55.18 79.95 53.27 80.89 51.4 81.84 49.59 82.79 47.86 83.73 46.23 84.68 44.7 85.62 43.31 86.57 42.05 87.51 40.95 88.46 40.01 89.4 39.25 90.35 38.67 91.29 38.28 92.24 38.08 93.18 38.08 94.13 38.26 95.07 38.64 96.02 39.21 96.96 39.96 97.91 40.89 98.85 41.98 99.8 43.23 100.74 44.62 101.69 46.14 102.64 47.78 103.58 49.51 104.53 51.32 105.47 53.19 106.42 55.11 107.36 57.05 108.31 58.99 109.25 60.92 110.2 62.82 111.14 64.66 112.09 66.43 113.03 68.12" id="img-c776ffa8-33"/>
      </g>
      <g stroke-width="0.3" fill="#000000" fill-opacity="0.000" class="geometry color_Signal_2" stroke-dasharray="none" stroke="#D4CA3A" id="img-c776ffa8-34">
        <path fill="none" d="M19.46,23.76 L 20.4 25.83 21.35 27.57 22.29 29.03 23.24 30.26 24.18 31.31 25.13 32.21 26.07 33 27.02 33.73 27.96 34.41 28.91 35.08 29.85 35.76 30.8 36.47 31.74 37.24 32.69 38.07 33.63 38.98 34.58 39.98 35.52 41.08 36.47 42.28 37.41 43.58 38.36 44.99 39.3 46.49 40.25 48.1 41.2 49.79 42.14 51.56 43.09 53.4 44.03 55.3 44.98 57.25 45.92 59.24 46.87 61.24 47.81 63.24 48.76 65.23 49.7 67.19 50.65 69.11 51.59 70.97 52.54 72.75 53.48 74.43 54.43 76.02 55.37 77.48 56.32 78.81 57.26 79.99 58.21 80.31 59.15 80.31 60.1 80.31 61.05 80.31 61.99 80.31 62.94 80.31 63.88 80.31 64.83 80.31 65.77 80.31 66.72 80.31 67.66 80.31 68.61 80.31 69.55 79.71 70.5 78.52 71.44 77.2 72.39 75.77 73.33 74.23 74.28 72.61 75.22 70.92 76.17 69.18 77.11 67.41 78.06 65.62 79 63.83 79.95 62.06 80.89 60.33 81.84 58.66 82.79 57.06 83.73 55.54 84.68 54.13 85.62 52.84 86.57 51.68 87.51 50.66 88.46 49.8 89.4 49.09 90.35 48.55 91.29 48.19 92.24 48.01 93.18 48 94.13 48.18 95.07 48.53 96.02 49.05 96.96 49.75 97.91 50.61 98.85 51.62 99.8 52.77 100.74 54.06 101.69 55.46 102.64 56.98 103.58 58.58 104.53 60.25 105.47 61.98 106.42 63.76 107.36 65.55 108.31 67.35 109.25 69.14 110.2 70.89 111.14 72.6 112.09 74.24 113.03 75.79" id="img-c776ffa8-35"/>
      </g>
      <g stroke-width="0.3" fill="#000000" fill-opacity="0.000" class="geometry color_Signal_1" stroke-dasharray="none" stroke="#00BFFF" id="img-c776ffa8-36">
        <path fill="none" d="M19.46,41.36 L 20.4 42.69 21.35 43.81 22.29 44.75 23.24 45.54 24.18 46.22 25.13 46.8 26.07 47.31 27.02 47.78 27.96 48.22 28.91 48.65 29.85 49.09 30.8 49.55 31.74 50.04 32.69 50.58 33.63 51.16 34.58 51.81 35.52 52.52 36.47 53.29 37.41 54.13 38.36 55.03 39.3 56 40.25 57.03 41.2 58.12 42.14 59.26 43.09 60.45 44.03 61.68 44.98 62.93 45.92 64.21 46.87 65.5 47.81 66.79 48.76 68.07 49.7 69.34 50.65 70.57 51.59 71.77 52.54 72.91 53.48 74 54.43 75.02 55.37 75.96 56.32 76.82 57.26 77.58 58.21 77.79 59.15 77.79 60.1 77.79 61.05 77.79 61.99 77.79 62.94 77.79 63.88 77.79 64.83 77.79 65.77 77.79 66.72 77.79 67.66 77.79 68.61 77.79 69.55 77.4 70.5 76.63 71.44 75.78 72.39 74.86 73.33 73.87 74.28 72.83 75.22 71.74 76.17 70.62 77.11 69.47 78.06 68.32 79 67.17 79.95 66.03 80.89 64.92 81.84 63.84 82.79 62.81 83.73 61.83 84.68 60.92 85.62 60.09 86.57 59.34 87.51 58.69 88.46 58.13 89.4 57.67 90.35 57.33 91.29 57.1 92.24 56.98 93.18 56.97 94.13 57.09 95.07 57.31 96.02 57.65 96.96 58.1 97.91 58.65 98.85 59.3 99.8 60.05 100.74 60.88 101.69 61.78 102.64 62.75 103.58 63.79 104.53 64.86 105.47 65.98 106.42 67.12 107.36 68.28 108.31 69.44 109.25 70.59 110.2 71.72 111.14 72.82 112.09 73.87 113.03 74.88" id="img-c776ffa8-37"/>
      </g>
    </g>
  </g>
</g>
  <g class="guide ylabels" font-size="2.82" font-family="'PT Sans Caption','Helvetica Neue','Helvetica',sans-serif" fill="#6C606B" id="img-c776ffa8-38">
    <text x="15.51" y="80.31" text-anchor="end" dy="0.35em" id="img-c776ffa8-39">0</text>
    <text x="15.51" y="68.1" text-anchor="end" dy="0.35em" id="img-c776ffa8-40">10</text>
    <text x="15.51" y="55.88" text-anchor="end" dy="0.35em" id="img-c776ffa8-41">20</text>
    <text x="15.51" y="43.66" text-anchor="end" dy="0.35em" id="img-c776ffa8-42">30</text>
    <text x="15.51" y="31.44" text-anchor="end" dy="0.35em" id="img-c776ffa8-43">40</text>
    <text x="15.51" y="19.22" text-anchor="end" dy="0.35em" id="img-c776ffa8-44">50</text>
    <text x="15.51" y="7" text-anchor="end" dy="0.35em" id="img-c776ffa8-45">60</text>
  </g>
  <g font-size="3.88" font-family="'PT Sans','Helvetica Neue','Helvetica',sans-serif" fill="#564A55" stroke="#000000" stroke-opacity="0.000" id="img-c776ffa8-46">
    <text x="9.16" y="43.66" text-anchor="end" dy="0.35em" id="img-c776ffa8-47">Y</text>
  </g>
</g>
<defs>
  <clipPath id="img-c776ffa8-15">
  <path d="M16.51,5 L 115.03 5 115.03 82.32 16.51 82.32" />
</clipPath>
</defs>
</svg>
