<?xml version="1.0" encoding="UTF-8"?>
<svg xmlns="http://www.w3.org/2000/svg"
     xmlns:xlink="http://www.w3.org/1999/xlink"
     xmlns:gadfly="http://www.gadflyjl.org/ns"
     version="1.2"
     width="152.4mm" height="101.6mm" viewBox="0 0 152.4 101.6"
     stroke="none"
     fill="#000000"
     stroke-width="0.3"
     font-size="3.88"
>
<g class="plotroot xscalable yscalable" id="img-0a58b146-1">
  <g font-size="3.88" font-family="'PT Sans','Helvetica Neue','Helvetica',sans-serif" fill="#564A55" stroke="#000000" stroke-opacity="0.000" id="img-0a58b146-2">
    <text x="68.09" y="89.99" text-anchor="middle" dy="0.6em">X</text>
  </g>
  <g class="guide xlabels" font-size="2.82" font-family="'PT Sans Caption','Helvetica Neue','Helvetica',sans-serif" fill="#6C606B" id="img-0a58b146-3">
    <text x="19.18" y="83.32" text-anchor="middle" dy="0.6em">0</text>
    <text x="68.09" y="83.32" text-anchor="middle" dy="0.6em">50</text>
    <text x="116.99" y="83.32" text-anchor="middle" dy="0.6em">100</text>
  </g>
  <g class="guide colorkey" id="img-0a58b146-4">
    <g fill="#4C404B" font-size="2.82" font-family="'PT Sans','Helvetica Neue','Helvetica',sans-serif" id="img-0a58b146-5">
      <text x="122.81" y="43.66" dy="0.35em" id="img-0a58b146-6" class="color_Source_1">Source 1</text>
      <text x="122.81" y="47.28" dy="0.35em" id="img-0a58b146-7" class="color_Source_2">Source 2</text>
    </g>
    <g stroke="#000000" stroke-opacity="0.000" id="img-0a58b146-8">
      <rect x="119.99" y="42.75" width="1.81" height="1.81" id="img-0a58b146-9" class="color_Source_1" fill="#00BFFF"/>
      <rect x="119.99" y="46.38" width="1.81" height="1.81" id="img-0a58b146-10" class="color_Source_2" fill="#D4CA3A"/>
    </g>
    <g fill="#362A35" font-size="3.88" font-family="'PT Sans','Helvetica Neue','Helvetica',sans-serif" stroke="#000000" stroke-opacity="0.000" id="img-0a58b146-11">
      <text x="119.99" y="39.84" id="img-0a58b146-12">Unmixed sources</text>
    </g>
  </g>
<g clip-path="url(#img-0a58b146-13)">
  <g id="img-0a58b146-14">
    <g pointer-events="visible" opacity="1" fill="#000000" fill-opacity="0.000" stroke="#000000" stroke-opacity="0.000" class="guide background" id="img-0a58b146-15">
      <rect x="17.18" y="5" width="101.81" height="77.32" id="img-0a58b146-16"/>
    </g>
    <g class="guide ygridlines xfixed" stroke-dasharray="0.5,0.5" stroke-width="0.2" stroke="#D0D0E0" id="img-0a58b146-17">
      <path fill="none" d="M17.18,80.32 L 118.99 80.32" id="img-0a58b146-18"/>
      <path fill="none" d="M17.18,55.88 L 118.99 55.88" id="img-0a58b146-19"/>
      <path fill="none" d="M17.18,31.44 L 118.99 31.44" id="img-0a58b146-20"/>
      <path fill="none" d="M17.18,7 L 118.99 7" id="img-0a58b146-21"/>
    </g>
    <g class="guide xgridlines yfixed" stroke-dasharray="0.5,0.5" stroke-width="0.2" stroke="#D0D0E0" id="img-0a58b146-22">
      <path fill="none" d="M19.18,5 L 19.18 82.32" id="img-0a58b146-23"/>
      <path fill="none" d="M68.09,5 L 68.09 82.32" id="img-0a58b146-24"/>
      <path fill="none" d="M116.99,5 L 116.99 82.32" id="img-0a58b146-25"/>
    </g>
    <g class="plotpanel" id="img-0a58b146-26">
      <g stroke-width="0.3" fill="#000000" fill-opacity="0.000" class="geometry color_Source_2" stroke-dasharray="none" stroke="#D4CA3A" id="img-0a58b146-27">
        <path fill="none" d="M20.16,80.31 L 21.14 78.53 22.12 77.02 23.1 75.76 24.07 74.7 25.05 73.79 26.03 73.01 27.01 72.33 27.99 71.7 28.96 71.11 29.94 70.53 30.92 69.94 31.9 69.33 32.88 68.67 33.85 67.95 34.83 67.16 35.81 66.29 36.79 65.35 37.77 64.31 38.75 63.18 39.72 61.97 40.7 60.67 41.68 59.28 42.66 57.82 43.64 56.29 44.61 54.7 45.59 53.05 46.57 51.37 47.55 49.66 48.53 47.93 49.5 46.2 50.48 44.48 51.46 42.78 52.44 41.12 53.42 39.52 54.39 37.98 55.37 36.52 56.35 35.15 57.33 33.89 58.31 32.74 59.29 31.72 60.26 31.44 61.24 31.44 62.22 31.44 63.2 31.44 64.18 31.44 65.15 31.44 66.13 31.44 67.11 31.44 68.09 31.44 69.07 31.44 70.04 31.44 71.02 31.44 72 31.96 72.98 32.99 73.96 34.13 74.93 35.37 75.91 36.7 76.89 38.1 77.87 39.56 78.85 41.06 79.83 42.59 80.8 44.14 81.78 45.69 82.76 47.21 83.74 48.71 84.72 50.15 85.69 51.54 86.67 52.85 87.65 54.07 88.63 55.18 89.61 56.19 90.58 57.07 91.56 57.81 92.54 58.42 93.52 58.89 94.5 59.2 95.47 59.36 96.45 59.36 97.43 59.21 98.41 58.91 99.39 58.46 100.36 57.85 101.34 57.11 102.32 56.24 103.3 55.24 104.28 54.13 105.26 52.91 106.23 51.61 107.21 50.23 108.19 48.78 109.17 47.28 110.15 45.75 111.12 44.2 112.1 42.64 113.08 41.1 114.06 39.58 115.04 38.11 116.01 36.69 116.99 35.35" id="img-0a58b146-28"/>
      </g>
      <g stroke-width="0.3" fill="#000000" fill-opacity="0.000" class="geometry color_Source_1" stroke-dasharray="none" stroke="#00BFFF" id="img-0a58b146-29">
        <path fill="none" d="M20.16,31.44 L 21.14 33.23 22.12 34.73 23.1 35.99 24.07 37.06 25.05 37.96 26.03 38.74 27.01 39.43 27.99 40.05 28.96 40.64 29.94 41.22 30.92 41.81 31.9 42.43 32.88 43.09 33.85 43.81 34.83 44.59 35.81 45.46 36.79 46.41 37.77 47.44 38.75 48.57 39.72 49.78 40.7 51.09 41.68 52.47 42.66 53.93 43.64 55.46 44.61 57.06 45.59 58.7 46.57 60.38 47.55 62.1 48.53 63.83 49.5 65.56 50.48 67.28 51.46 68.97 52.44 70.63 53.42 72.24 54.39 73.77 55.37 75.23 56.35 76.6 57.33 77.86 58.31 79.01 59.29 80.04 60.26 80.32 61.24 80.32 62.22 80.32 63.2 80.32 64.18 80.32 65.15 80.32 66.13 80.32 67.11 80.32 68.09 80.32 69.07 80.32 70.04 80.32 71.02 80.32 72 79.79 72.98 78.76 73.96 77.62 74.93 76.38 75.91 75.06 76.89 73.66 77.87 72.2 78.85 70.69 79.83 69.16 80.8 67.61 81.78 66.07 82.76 64.54 83.74 63.05 84.72 61.6 85.69 60.21 86.67 58.91 87.65 57.69 88.63 56.57 89.61 55.57 90.58 54.69 91.56 53.94 92.54 53.33 93.52 52.87 94.5 52.55 95.47 52.39 96.45 52.39 97.43 52.54 98.41 52.84 99.39 53.3 100.36 53.9 101.34 54.64 102.32 55.51 103.3 56.51 104.28 57.62 105.26 58.84 106.23 60.14 107.21 61.53 108.19 62.98 109.17 64.47 110.15 66 111.12 67.56 112.1 69.11 113.08 70.65 114.06 72.17 115.04 73.64 116.01 75.06 116.99 76.41" id="img-0a58b146-30"/>
      </g>
    </g>
  </g>
</g>
  <g class="guide ylabels" font-size="2.82" font-family="'PT Sans Caption','Helvetica Neue','Helvetica',sans-serif" fill="#6C606B" id="img-0a58b146-31">
    <text x="16.18" y="80.32" text-anchor="end" dy="0.35em" id="img-0a58b146-32">0.0</text>
    <text x="16.18" y="55.88" text-anchor="end" dy="0.35em" id="img-0a58b146-33">0.5</text>
    <text x="16.18" y="31.44" text-anchor="end" dy="0.35em" id="img-0a58b146-34">1.0</text>
    <text x="16.18" y="7" text-anchor="end" dy="0.35em" id="img-0a58b146-35">1.5</text>
  </g>
  <g font-size="3.88" font-family="'PT Sans','Helvetica Neue','Helvetica',sans-serif" fill="#564A55" stroke="#000000" stroke-opacity="0.000" id="img-0a58b146-36">
    <text x="9.16" y="43.66" text-anchor="end" dy="0.35em" id="img-0a58b146-37">Y</text>
  </g>
</g>
<defs>
  <clipPath id="img-0a58b146-13">
  <path d="M17.18,5 L 118.99 5 118.99 82.32 17.18 82.32" />
</clipPath>
</defs>
</svg>
