<?xml version="1.0" encoding="UTF-8"?>
<svg xmlns="http://www.w3.org/2000/svg"
     xmlns:xlink="http://www.w3.org/1999/xlink"
     xmlns:gadfly="http://www.gadflyjl.org/ns"
     version="1.2"
     width="152.4mm" height="101.6mm" viewBox="0 0 152.4 101.6"
     stroke="none"
     fill="#000000"
     stroke-width="0.3"
     font-size="3.88"
>
<g class="plotroot xscalable yscalable" id="img-0ef873d2-1">
  <g font-size="3.88" font-family="'PT Sans','Helvetica Neue','Helvetica',sans-serif" fill="#564A55" stroke="#000000" stroke-opacity="0.000" id="img-0ef873d2-2">
    <text x="65.07" y="90.88" text-anchor="middle" dy="0.6em">X</text>
  </g>
  <g class="guide xlabels" font-size="2.82" font-family="'PT Sans Caption','Helvetica Neue','Helvetica',sans-serif" fill="#6C606B" id="img-0ef873d2-3">
    <text x="16.54" y="84.83" text-anchor="middle" dy="0.6em">0</text>
    <text x="65.07" y="84.83" text-anchor="middle" dy="0.6em">50</text>
    <text x="113.61" y="84.83" text-anchor="middle" dy="0.6em">100</text>
  </g>
  <g class="guide colorkey" id="img-0ef873d2-4">
    <g fill="#4C404B" font-size="2.82" font-family="'PT Sans','Helvetica Neue','Helvetica',sans-serif" id="img-0ef873d2-5">
      <text x="119.13" y="41.37" dy="0.35em" id="img-0ef873d2-6" class="color_Observation_1">Observation 1</text>
      <text x="119.13" y="44.42" dy="0.35em" id="img-0ef873d2-7" class="color_Observation_2">Observation 2</text>
      <text x="119.13" y="47.46" dy="0.35em" id="img-0ef873d2-8" class="color_Observation_3">Observation 3</text>
      <text x="119.13" y="50.5" dy="0.35em" id="img-0ef873d2-9" class="color_Observation_4">Observation 4</text>
    </g>
    <g stroke="#000000" stroke-opacity="0.000" id="img-0ef873d2-10">
      <rect x="116.61" y="40.61" width="1.52" height="1.52" id="img-0ef873d2-11" fill="#00BFFF" class="color_Observation_1"/>
      <rect x="116.61" y="43.66" width="1.52" height="1.52" id="img-0ef873d2-12" fill="#D4CA3A" class="color_Observation_2"/>
      <rect x="116.61" y="46.7" width="1.52" height="1.52" id="img-0ef873d2-13" fill="#FF6DAE" class="color_Observation_3"/>
      <rect x="116.61" y="49.74" width="1.52" height="1.52" id="img-0ef873d2-14" fill="#00B78D" class="color_Observation_4"/>
    </g>
    <g fill="#362A35" font-size="3.88" font-family="'PT Sans','Helvetica Neue','Helvetica',sans-serif" stroke="#000000" stroke-opacity="0.000" id="img-0ef873d2-15">
      <text x="116.61" y="37.73" id="img-0ef873d2-16">Mixed observations</text>
    </g>
  </g>
<g clip-path="url(#img-0ef873d2-17)">
  <g id="img-0ef873d2-18">
    <g pointer-events="visible" opacity="1" fill="#000000" fill-opacity="0.000" stroke="#000000" stroke-opacity="0.000" class="guide background" id="img-0ef873d2-19">
      <rect x="14.54" y="5" width="101.07" height="78.83" id="img-0ef873d2-20"/>
    </g>
    <g class="guide ygridlines xfixed" stroke-dasharray="0.5,0.5" stroke-width="0.2" stroke="#D0D0E0" id="img-0ef873d2-21">
      <path fill="none" d="M14.54,81.83 L 115.61 81.83" id="img-0ef873d2-22"/>
      <path fill="none" d="M14.54,56.89 L 115.61 56.89" id="img-0ef873d2-23"/>
      <path fill="none" d="M14.54,31.94 L 115.61 31.94" id="img-0ef873d2-24"/>
      <path fill="none" d="M14.54,7 L 115.61 7" id="img-0ef873d2-25"/>
    </g>
    <g class="guide xgridlines yfixed" stroke-dasharray="0.5,0.5" stroke-width="0.2" stroke="#D0D0E0" id="img-0ef873d2-26">
      <path fill="none" d="M16.54,5 L 16.54 83.83" id="img-0ef873d2-27"/>
      <path fill="none" d="M65.07,5 L 65.07 83.83" id="img-0ef873d2-28"/>
      <path fill="none" d="M113.61,5 L 113.61 83.83" id="img-0ef873d2-29"/>
    </g>
    <g class="plotpanel" id="img-0ef873d2-30">
      <g stroke-width="0.71" fill="#000000" fill-opacity="0.000" class="geometry color_Observation_4" stroke-dasharray="none" stroke="#00B78D" id="img-0ef873d2-31">
        <path fill="none" d="M17.51,36.42 L 18.48 29.09 19.45 23.01 20.42 18.69 21.39 16.45 22.36 16.44 23.33 18.61 24.3 22.71 25.27 28.33 26.25 34.92 27.22 41.83 28.19 48.41 29.16 54.03 30.13 58.12 31.1 60.3 32.07 60.32 33.04 58.14 34.01 53.92 34.98 48.01 35.95 40.89 36.92 33.18 37.89 25.53 38.86 18.6 39.84 12.99 40.81 9.18 41.78 7.49 42.75 8.05 43.72 10.81 44.69 15.5 45.66 21.7 46.63 28.84 47.6 36.3 48.57 43.4 49.54 49.51 50.51 54.09 51.48 56.74 52.45 57.24 53.43 55.55 54.4 51.84 55.37 46.46 56.34 39.92 57.31 32.81 58.28 25.81 59.25 19.56 60.22 14.66 61.19 11.58 62.16 10.62 63.13 11.9 64.1 15.37 65.07 20.73 66.04 27.56 67.02 35.3 67.99 43.29 68.96 50.87 69.93 57.41 70.9 62.38 71.87 65.38 72.84 66.19 73.81 64.81 74.78 61.39 75.75 56.31 76.72 50.06 77.69 43.26 78.66 36.58 79.63 30.66 80.61 26.09 81.58 23.32 82.55 22.66 83.52 24.23 84.49 27.92 85.46 33.47 86.43 40.43 87.4 48.22 88.37 56.2 89.34 63.7 90.31 70.1 91.28 74.86 92.25 77.61 93.23 78.14 94.2 76.45 95.17 72.71 96.14 67.29 97.11 60.72 98.08 53.61 99.05 46.62 100.02 40.41 100.99 35.54 101.96 32.48 102.93 31.52 103.9 32.75 104.87 36.09 105.84 41.24 106.82 47.74 107.79 55.04 108.76 62.46 109.73 69.36 110.7 75.11 111.67 79.18 112.64 81.22 113.61 81.02" id="img-0ef873d2-32"/>
      </g>
      <g stroke-width="0.71" fill="#000000" fill-opacity="0.000" class="geometry color_Observation_3" stroke-dasharray="none" stroke="#FF6DAE" id="img-0ef873d2-33">
        <path fill="none" d="M17.51,42.87 L 18.48 55.67 19.45 55.29 20.42 51.69 21.39 64.24 22.36 52.8 23.33 60.75 24.3 20.48 25.27 21.5 26.25 52.56 27.22 46.2 28.19 48.06 29.16 17.45 30.13 43.92 31.1 56.21 32.07 19.16 33.04 51.82 34.01 44.67 34.98 57.89 35.95 40.66 36.92 18.95 37.89 16.96 38.86 35.47 39.84 45.91 40.81 55.29 41.78 46.71 42.75 51.82 43.72 13.03 44.69 28.86 45.66 27.32 46.63 45.47 47.6 45.63 48.57 40.96 49.54 26.68 50.51 23.35 51.48 46.13 52.45 32.26 53.43 54.26 54.4 56.15 55.37 40.34 56.34 37.56 57.31 39.01 58.28 17.84 59.25 44.02 60.22 55.05 61.19 10.73 62.16 39.34 63.13 48.39 64.1 23.38 65.07 41.67 66.04 32.85 67.02 23.6 67.99 52.99 68.96 30.74 69.93 22.71 70.9 48.11 71.87 19.44 72.84 31.46 73.81 48.28 74.78 33.34 75.75 44.47 76.72 60.3 77.69 47.8 78.66 28.91 79.63 31.07 80.61 50.59 81.58 65.97 82.55 23.13 83.52 30.14 84.49 38.28 85.46 44.64 86.43 30.98 87.4 43.71 88.37 33.69 89.34 48.34 90.31 32.76 91.28 43.3 92.25 41.2 93.23 71.93 94.2 29.33 95.17 66.02 96.14 45.93 97.11 76.67 98.08 69.36 99.05 32.54 100.02 79.3 100.99 80.52 101.96 41.81 102.93 52.61 103.9 33.85 104.87 50.56 105.84 36.14 106.82 52.93 107.79 56.09 108.76 61.1 109.73 33.82 110.7 42.01 111.67 44.86 112.64 48.88 113.61 50.99" id="img-0ef873d2-34"/>
      </g>
      <g stroke-width="0.71" fill="#000000" fill-opacity="0.000" class="geometry color_Observation_2" stroke-dasharray="none" stroke="#D4CA3A" id="img-0ef873d2-35">
        <path fill="none" d="M17.51,36.58 L 18.48 36.58 19.45 31.24 20.42 26.04 21.39 30.99 22.36 26.16 23.33 33.19 24.3 18.03 25.27 25.01 26.25 47.96 27.22 52.5 28.19 60.8 29.16 51.86 30.13 69.93 31.1 78.95 32.07 61.11 33.04 75.9 34.01 68.71 34.98 69.96 35.95 54.75 36.92 36.67 37.89 28.47 38.86 31.21 39.84 31.18 40.81 32.37 41.78 26.66 42.75 30.01 43.72 13.55 44.69 26.29 45.66 31.81 46.63 48.07 47.6 55.6 48.57 60.32 49.54 59.19 50.51 61.96 51.48 75.82 52.45 69.14 53.43 78.17 54.4 75.09 55.37 61.43 56.34 53.09 57.31 46.26 58.28 28.18 59.25 34.49 60.22 34.54 61.19 8.68 62.16 21.39 63.13 26.53 64.1 16.78 65.07 30.55 66.04 32.22 67.02 34.54 67.99 56.41 68.96 52.03 69.93 53.7 70.9 70.49 71.87 58.27 72.84 64.19 73.81 70.3 74.78 58.49 75.75 58.05 76.72 58.78 77.69 44.8 78.66 27.73 79.63 21.96 80.61 26.22 81.58 30.23 82.55 7.24 83.52 11.41 84.49 18.29 85.46 26.15 86.43 25.43 87.4 38.76 88.37 40.92 89.34 54.97 90.31 52.82 91.28 62.13 92.25 63.14 93.23 78.37 94.2 54.74 95.17 68.75 96.14 52.74 97.11 61.02 98.08 49.77 99.05 23.94 100.02 40.71 100.99 36.1 101.96 13.38 102.93 17.55 103.9 9.18 104.87 20.7 105.84 18.51 106.82 33.33 107.79 42.17 108.76 52.11 109.73 45.42 110.7 55.37 111.67 61.03 112.64 65.27 113.61 66.37" id="img-0ef873d2-36"/>
      </g>
      <g stroke-width="0.71" fill="#000000" fill-opacity="0.000" class="geometry color_Observation_1" stroke-dasharray="none" stroke="#00BFFF" id="img-0ef873d2-37">
        <path fill="none" d="M17.51,39.65 L 18.48 42.38 19.45 39.15 20.42 35.19 21.39 40.35 22.36 34.62 23.33 39.68 24.3 21.6 25.27 24.92 26.25 43.74 27.22 44.02 28.19 48.24 29.16 35.74 30.13 51.02 31.1 58.25 32.07 39.74 33.04 54.98 34.01 49.3 34.98 52.95 35.95 40.77 36.92 26.06 37.89 21.24 38.86 27.04 39.84 29.45 40.81 32.23 41.78 27.1 42.75 29.94 43.72 11.92 44.69 22.18 45.66 24.51 46.63 37.15 47.6 40.96 48.57 42.18 49.54 38.09 50.51 38.72 51.48 51.44 52.45 44.75 53.43 54.9 54.4 54 55.37 43.4 56.34 38.74 57.31 35.91 58.28 21.83 59.25 31.79 60.22 34.86 61.19 11.15 62.16 24.98 63.13 30.15 64.1 19.37 65.07 31.2 66.04 30.21 67.02 29.45 67.99 48.14 68.96 40.8 69.93 40.06 70.9 55.25 71.87 42.41 72.84 48.83 73.81 56.54 74.78 47.37 75.75 50.39 76.72 55.18 77.69 45.53 78.66 32.74 79.63 30.86 80.61 38.34 81.58 44.65 82.55 22.9 83.52 27.18 84.49 33.1 85.46 39.05 86.43 35.7 87.4 45.96 88.37 44.95 89.34 56.02 90.31 51.43 91.28 59.08 92.25 59.41 93.23 75.04 94.2 52.89 95.17 69.36 96.14 56.61 97.11 68.7 98.08 61.48 99.05 39.58 100.02 59.85 100.99 58.03 101.96 37.15 102.93 42.06 103.9 33.3 104.87 43.32 105.84 38.69 106.82 50.34 107.79 55.56 108.76 61.78 109.73 51.59 110.7 58.56 111.67 62.02 112.64 65.05 113.61 66.01" id="img-0ef873d2-38"/>
      </g>
    </g>
  </g>
</g>
  <g class="guide ylabels" font-size="2.82" font-family="'PT Sans Caption','Helvetica Neue','Helvetica',sans-serif" fill="#6C606B" id="img-0ef873d2-39">
    <text x="13.54" y="81.83" text-anchor="end" dy="0.35em" id="img-0ef873d2-40">0</text>
    <text x="13.54" y="56.89" text-anchor="end" dy="0.35em" id="img-0ef873d2-41">1</text>
    <text x="13.54" y="31.94" text-anchor="end" dy="0.35em" id="img-0ef873d2-42">2</text>
    <text x="13.54" y="7" text-anchor="end" dy="0.35em" id="img-0ef873d2-43">3</text>
  </g>
  <g font-size="3.88" font-family="'PT Sans','Helvetica Neue','Helvetica',sans-serif" fill="#564A55" stroke="#000000" stroke-opacity="0.000" id="img-0ef873d2-44">
    <text x="9.11" y="44.42" text-anchor="end" dy="0.35em" id="img-0ef873d2-45">Y</text>
  </g>
</g>
<defs>
  <clipPath id="img-0ef873d2-17">
  <path d="M14.54,5 L 115.61 5 115.61 83.83 14.54 83.83" />
</clipPath>
</defs>
</svg>
