<?xml version="1.0" encoding="UTF-8"?>
<svg xmlns="http://www.w3.org/2000/svg"
     xmlns:xlink="http://www.w3.org/1999/xlink"
     xmlns:gadfly="http://www.gadflyjl.org/ns"
     version="1.2"
     width="152.4mm" height="101.6mm" viewBox="0 0 152.4 101.6"
     stroke="none"
     fill="#000000"
     stroke-width="0.3"
     font-size="3.88"
>
<g class="plotroot xscalable yscalable" id="img-9ae60f5a-1">
  <g font-size="3.88" font-family="'PT Sans','Helvetica Neue','Helvetica',sans-serif" fill="#564A55" stroke="#000000" stroke-opacity="0.000" id="img-9ae60f5a-2">
    <text x="60.17" y="89.99" text-anchor="middle" dy="0.6em">X</text>
  </g>
  <g class="guide xlabels" font-size="2.82" font-family="'PT Sans Caption','Helvetica Neue','Helvetica',sans-serif" fill="#6C606B" id="img-9ae60f5a-3">
    <text x="16.84" y="83.32" text-anchor="middle" dy="0.6em">0</text>
    <text x="60.17" y="83.32" text-anchor="middle" dy="0.6em">50</text>
    <text x="103.51" y="83.32" text-anchor="middle" dy="0.6em">100</text>
  </g>
  <g class="guide colorkey" id="img-9ae60f5a-4">
    <g fill="#4C404B" font-size="2.82" font-family="'PT Sans','Helvetica Neue','Helvetica',sans-serif" id="img-9ae60f5a-5">
      <text x="109.32" y="40.03" dy="0.35em" id="img-9ae60f5a-6" class="color_Observation_1">Observation 1</text>
      <text x="109.32" y="43.66" dy="0.35em" id="img-9ae60f5a-7" class="color_Observation_2">Observation 2</text>
      <text x="109.32" y="47.28" dy="0.35em" id="img-9ae60f5a-8" class="color_Observation_3">Observation 3</text>
      <text x="109.32" y="50.91" dy="0.35em" id="img-9ae60f5a-9" class="color_Observation_4">Observation 4</text>
    </g>
    <g stroke="#000000" stroke-opacity="0.000" id="img-9ae60f5a-10">
      <rect x="106.51" y="39.12" width="1.81" height="1.81" id="img-9ae60f5a-11" class="color_Observation_1" fill="#00BFFF"/>
      <rect x="106.51" y="42.75" width="1.81" height="1.81" id="img-9ae60f5a-12" class="color_Observation_2" fill="#D4CA3A"/>
      <rect x="106.51" y="46.38" width="1.81" height="1.81" id="img-9ae60f5a-13" class="color_Observation_3" fill="#FF6DAE"/>
      <rect x="106.51" y="50" width="1.81" height="1.81" id="img-9ae60f5a-14" class="color_Observation_4" fill="#00B78D"/>
    </g>
    <g fill="#362A35" font-size="3.88" font-family="'PT Sans','Helvetica Neue','Helvetica',sans-serif" stroke="#000000" stroke-opacity="0.000" id="img-9ae60f5a-15">
      <text x="106.51" y="36.21" id="img-9ae60f5a-16">Reproduced observations</text>
    </g>
  </g>
<g clip-path="url(#img-9ae60f5a-17)">
  <g id="img-9ae60f5a-18">
    <g pointer-events="visible" opacity="1" fill="#000000" fill-opacity="0.000" stroke="#000000" stroke-opacity="0.000" class="guide background" id="img-9ae60f5a-19">
      <rect x="14.84" y="5" width="90.67" height="77.32" id="img-9ae60f5a-20"/>
    </g>
    <g class="guide ygridlines xfixed" stroke-dasharray="0.5,0.5" stroke-width="0.2" stroke="#D0D0E0" id="img-9ae60f5a-21">
      <path fill="none" d="M14.84,80.32 L 105.51 80.32" id="img-9ae60f5a-22"/>
      <path fill="none" d="M14.84,55.88 L 105.51 55.88" id="img-9ae60f5a-23"/>
      <path fill="none" d="M14.84,31.44 L 105.51 31.44" id="img-9ae60f5a-24"/>
      <path fill="none" d="M14.84,7 L 105.51 7" id="img-9ae60f5a-25"/>
    </g>
    <g class="guide xgridlines yfixed" stroke-dasharray="0.5,0.5" stroke-width="0.2" stroke="#D0D0E0" id="img-9ae60f5a-26">
      <path fill="none" d="M16.84,5 L 16.84 82.32" id="img-9ae60f5a-27"/>
      <path fill="none" d="M60.17,5 L 60.17 82.32" id="img-9ae60f5a-28"/>
      <path fill="none" d="M103.51,5 L 103.51 82.32" id="img-9ae60f5a-29"/>
    </g>
    <g class="plotpanel" id="img-9ae60f5a-30">
      <g stroke-width="0.3" fill="#000000" fill-opacity="0.000" class="geometry color_Observation_4" stroke-dasharray="none" stroke="#00B78D" id="img-9ae60f5a-31">
        <path fill="none" d="M17.7,35.82 L 18.57 28.64 19.44 22.69 20.3 18.45 21.17 16.26 22.04 16.25 22.9 18.37 23.77 22.39 24.64 27.9 25.5 34.35 26.37 41.13 27.24 47.57 28.1 53.07 28.97 57.09 29.84 59.22 30.7 59.24 31.57 57.1 32.44 52.97 33.3 47.18 34.17 40.2 35.04 32.65 35.9 25.15 36.77 18.37 37.64 12.87 38.5 9.14 39.37 7.48 40.24 8.03 41.1 10.73 41.97 15.33 42.84 21.4 43.7 28.4 44.57 35.7 45.44 42.66 46.31 48.64 47.17 53.13 48.04 55.73 48.91 56.22 49.77 54.56 50.64 50.93 51.51 45.66 52.37 39.25 53.24 32.29 54.11 25.43 54.97 19.31 55.84 14.51 56.71 11.48 57.57 10.54 58.44 11.8 59.31 15.2 60.17 20.45 61.04 27.15 61.91 34.73 62.77 42.55 63.64 49.98 64.51 56.39 65.37 61.25 66.24 64.19 67.11 64.99 67.97 63.63 68.84 60.29 69.71 55.3 70.57 49.19 71.44 42.53 72.31 35.98 73.17 30.18 74.04 25.7 74.91 22.99 75.77 22.35 76.64 23.88 77.51 27.5 78.37 32.93 79.24 39.75 80.11 47.38 80.97 55.2 81.84 62.55 82.71 68.81 83.57 73.48 84.44 76.18 85.31 76.7 86.17 75.04 87.04 71.37 87.91 66.07 88.77 59.63 89.64 52.66 90.51 45.82 91.37 39.73 92.24 34.96 93.11 31.96 93.97 31.02 94.84 32.23 95.71 35.5 96.57 40.54 97.44 46.92 98.31 54.06 99.17 61.34 100.04 68.09 100.91 73.72 101.77 77.72 102.64 79.71 103.51 79.52" id="img-9ae60f5a-32"/>
      </g>
      <g stroke-width="0.3" fill="#000000" fill-opacity="0.000" class="geometry color_Observation_3" stroke-dasharray="none" stroke="#FF6DAE" id="img-9ae60f5a-33">
        <path fill="none" d="M17.7,42.14 L 18.57 54.68 19.44 54.31 20.3 50.78 21.17 63.08 22.04 51.87 22.9 59.66 23.77 20.21 24.64 21.21 25.5 51.64 26.37 45.4 27.24 47.23 28.1 17.24 28.97 43.17 29.84 55.21 30.7 18.92 31.57 50.91 32.44 43.91 33.3 56.85 34.17 39.97 35.04 18.71 35.9 16.75 36.77 34.89 37.64 45.12 38.5 54.31 39.37 45.9 40.24 50.91 41.1 12.91 41.97 28.41 42.84 26.91 43.7 44.68 44.57 44.84 45.44 40.27 46.31 26.28 47.17 23.02 48.04 45.34 48.91 31.74 49.77 53.3 50.64 55.16 51.51 39.66 52.37 36.94 53.24 38.36 54.11 17.62 54.97 43.27 55.84 54.07 56.71 10.65 57.57 38.68 58.44 47.55 59.31 23.04 60.17 40.96 61.04 32.33 61.91 23.26 62.77 52.06 63.64 30.25 64.51 22.39 65.37 47.28 66.24 19.19 67.11 30.97 67.97 47.44 68.84 32.81 69.71 43.71 70.57 59.22 71.44 46.97 72.31 28.46 73.17 30.58 74.04 49.7 74.91 64.78 75.77 22.8 76.64 29.67 77.51 37.64 78.37 43.87 79.24 30.49 80.11 42.96 80.97 33.15 81.84 47.5 82.71 32.24 83.57 42.57 84.44 40.51 85.31 70.62 86.17 28.87 87.04 64.82 87.91 45.14 88.77 75.26 89.64 68.09 90.51 32.02 91.37 77.83 92.24 79.03 93.11 41.11 93.97 51.68 94.84 33.3 95.71 49.67 96.57 35.55 97.44 52 98.31 55.1 99.17 60.01 100.04 33.27 100.91 41.29 101.77 44.09 102.64 48.03 103.51 50.1" id="img-9ae60f5a-34"/>
      </g>
      <g stroke-width="0.3" fill="#000000" fill-opacity="0.000" class="geometry color_Observation_2" stroke-dasharray="none" stroke="#D4CA3A" id="img-9ae60f5a-35">
        <path fill="none" d="M17.7,35.98 L 18.57 35.98 19.44 30.75 20.3 25.66 21.17 30.5 22.04 25.77 22.9 32.66 23.77 17.81 24.64 24.65 25.5 47.13 26.37 51.58 27.24 59.71 28.1 50.95 28.97 68.65 29.84 77.49 30.7 60.01 31.57 74.5 32.44 67.45 33.3 68.68 34.17 53.78 35.04 36.07 35.9 28.04 36.77 30.72 37.64 30.69 38.5 31.86 39.37 26.26 40.24 29.54 41.1 13.42 41.97 25.9 42.84 31.31 43.7 47.24 44.57 54.62 45.44 59.24 46.31 58.13 47.17 60.85 48.04 74.42 48.91 67.88 49.77 76.73 50.64 73.7 51.51 60.33 52.37 52.15 53.24 45.46 54.11 27.75 54.97 33.93 55.84 33.98 56.71 8.65 57.57 21.09 58.44 26.13 59.31 16.58 60.17 30.07 61.04 31.7 61.91 33.98 62.77 55.4 63.64 51.11 64.51 52.75 65.37 69.2 66.24 57.23 67.11 63.03 67.97 69.02 68.84 57.45 69.71 57.01 70.57 57.73 71.44 44.03 72.31 27.31 73.17 21.66 74.04 25.83 74.91 29.76 75.77 7.23 76.64 11.32 77.51 18.06 78.37 25.76 79.24 25.05 80.11 38.11 80.97 40.23 81.84 53.99 82.71 51.89 83.57 61.01 84.44 62 85.31 76.92 86.17 53.77 87.04 67.5 87.91 51.81 88.77 59.92 89.64 48.91 90.51 23.59 91.37 40.03 92.24 35.51 93.11 13.25 93.97 17.33 94.84 9.13 95.71 20.42 96.57 18.27 97.44 32.79 98.31 41.45 99.17 51.19 100.04 44.64 100.91 54.39 101.77 59.93 102.64 64.09 103.51 65.17" id="img-9ae60f5a-36"/>
      </g>
      <g stroke-width="0.3" fill="#000000" fill-opacity="0.000" class="geometry color_Observation_1" stroke-dasharray="none" stroke="#00BFFF" id="img-9ae60f5a-37">
        <path fill="none" d="M17.7,38.98 L 18.57 41.66 19.44 38.5 20.3 34.62 21.17 39.67 22.04 34.06 22.9 39.02 23.77 21.3 24.64 24.55 25.5 42.99 26.37 43.26 27.24 47.4 28.1 35.15 28.97 50.13 29.84 57.21 30.7 39.08 31.57 54 32.44 48.44 33.3 52.02 34.17 40.09 35.04 25.68 35.9 20.95 36.77 26.63 37.64 29 38.5 31.72 39.37 26.69 40.24 29.47 41.1 11.82 41.97 21.87 42.84 24.15 43.7 36.54 44.57 40.27 45.44 41.47 46.31 37.46 47.17 38.08 48.04 50.53 48.91 43.98 49.77 53.93 50.64 53.04 51.51 42.66 52.37 38.09 53.24 35.32 54.11 21.53 54.97 31.29 55.84 34.29 56.71 11.07 57.57 24.61 58.44 29.68 59.31 19.12 60.17 30.71 61.04 29.74 61.91 28.99 62.77 47.3 63.64 40.12 64.51 39.39 65.37 54.27 66.24 41.69 67.11 47.98 67.97 55.54 68.84 46.55 69.71 49.51 70.57 54.2 71.44 44.75 72.31 32.22 73.17 30.38 74.04 37.7 74.91 43.88 75.77 22.57 76.64 26.77 77.51 32.57 78.37 38.4 79.24 35.12 80.11 45.17 80.97 44.18 81.84 55.02 82.71 50.53 83.57 58.03 84.44 58.34 85.31 73.66 86.17 51.96 87.04 68.09 87.91 55.6 88.77 67.44 89.64 60.38 90.51 38.92 91.37 58.78 92.24 57 93.11 36.54 93.97 41.35 94.84 32.76 95.71 42.58 96.57 38.04 97.44 49.46 98.31 54.58 99.17 60.67 100.04 50.68 100.91 57.51 101.77 60.9 102.64 63.87 103.51 64.81" id="img-9ae60f5a-38"/>
      </g>
    </g>
  </g>
</g>
  <g class="guide ylabels" font-size="2.82" font-family="'PT Sans Caption','Helvetica Neue','Helvetica',sans-serif" fill="#6C606B" id="img-9ae60f5a-39">
    <text x="13.84" y="80.32" text-anchor="end" dy="0.35em" id="img-9ae60f5a-40">0</text>
    <text x="13.84" y="55.88" text-anchor="end" dy="0.35em" id="img-9ae60f5a-41">1</text>
    <text x="13.84" y="31.44" text-anchor="end" dy="0.35em" id="img-9ae60f5a-42">2</text>
    <text x="13.84" y="7" text-anchor="end" dy="0.35em" id="img-9ae60f5a-43">3</text>
  </g>
  <g font-size="3.88" font-family="'PT Sans','Helvetica Neue','Helvetica',sans-serif" fill="#564A55" stroke="#000000" stroke-opacity="0.000" id="img-9ae60f5a-44">
    <text x="9.16" y="43.66" text-anchor="end" dy="0.35em" id="img-9ae60f5a-45">Y</text>
  </g>
</g>
<defs>
  <clipPath id="img-9ae60f5a-17">
  <path d="M14.84,5 L 105.51 5 105.51 82.32 14.84 82.32" />
</clipPath>
</defs>
</svg>
