<?xml version="1.0" encoding="UTF-8"?>
<svg xmlns="http://www.w3.org/2000/svg"
     xmlns:xlink="http://www.w3.org/1999/xlink"
     xmlns:gadfly="http://www.gadflyjl.org/ns"
     version="1.2"
     width="152.4mm" height="101.6mm" viewBox="0 0 152.4 101.6"
     stroke="none"
     fill="#000000"
     stroke-width="0.3"
     font-size="3.88"
>
<g class="plotroot xscalable yscalable" id="img-ce4ad720-1">
  <g font-size="3.88" font-family="'PT Sans','Helvetica Neue','Helvetica',sans-serif" fill="#564A55" stroke="#000000" stroke-opacity="0.000" id="img-ce4ad720-2">
    <g transform="translate(74.25,90.88)">
      <g class="primitive">
        <text text-anchor="middle" dy="0.6em">X</text>
      </g>
    </g>
  </g>
  <g class="guide xlabels" font-size="2.82" font-family="'PT Sans Caption','Helvetica Neue','Helvetica',sans-serif" fill="#6C606B" id="img-ce4ad720-3">
    <g transform="translate(16.54,84.83)">
      <g class="primitive">
        <text text-anchor="middle" dy="0.6em">0</text>
      </g>
    </g>
    <g transform="translate(74.25,84.83)">
      <g class="primitive">
        <text text-anchor="middle" dy="0.6em">50</text>
      </g>
    </g>
    <g transform="translate(131.96,84.83)">
      <g class="primitive">
        <text text-anchor="middle" dy="0.6em">100</text>
      </g>
    </g>
  </g>
  <g class="guide colorkey" id="img-ce4ad720-4">
    <g fill="#4C404B" font-size="2.82" font-family="'PT Sans','Helvetica Neue','Helvetica',sans-serif" id="img-ce4ad720-5">
      <g transform="translate(137.76,38.16)">
        <g class="primitive">
          <text dy="0.35em">Signal 1</text>
        </g>
      </g>
      <g transform="translate(137.76,41.77)">
        <g class="primitive">
          <text dy="0.35em">Signal 2</text>
        </g>
      </g>
      <g transform="translate(137.76,45.38)">
        <g class="primitive">
          <text dy="0.35em">Signal 3</text>
        </g>
      </g>
      <g transform="translate(137.76,48.98)">
        <g class="primitive">
          <text dy="0.35em">Signal 4</text>
        </g>
      </g>
      <g transform="translate(137.76,52.59)">
        <g class="primitive">
          <text dy="0.35em">Signal 5</text>
        </g>
      </g>
      <g transform="translate(137.76,56.2)">
        <g class="primitive">
          <text dy="0.35em">Signal 6</text>
        </g>
      </g>
      <g transform="translate(137.76,59.81)">
        <g class="primitive">
          <text dy="0.35em">Signal 7</text>
        </g>
      </g>
    </g>
    <g stroke="#000000" stroke-opacity="0.000" id="img-ce4ad720-6">
      <g transform="translate(135.86,38.16)" fill="#FF0000">
        <path d="M-0.9,-0.9 L 0.9 -0.9 0.9 0.9 -0.9 0.9 z" class="primitive"/>
      </g>
      <g transform="translate(135.86,41.77)" fill="#0000FF">
        <path d="M-0.9,-0.9 L 0.9 -0.9 0.9 0.9 -0.9 0.9 z" class="primitive"/>
      </g>
      <g transform="translate(135.86,45.38)" fill="#008000">
        <path d="M-0.9,-0.9 L 0.9 -0.9 0.9 0.9 -0.9 0.9 z" class="primitive"/>
      </g>
      <g transform="translate(135.86,48.98)" fill="#FFA500">
        <path d="M-0.9,-0.9 L 0.9 -0.9 0.9 0.9 -0.9 0.9 z" class="primitive"/>
      </g>
      <g transform="translate(135.86,52.59)" fill="#FF00FF">
        <path d="M-0.9,-0.9 L 0.9 -0.9 0.9 0.9 -0.9 0.9 z" class="primitive"/>
      </g>
      <g transform="translate(135.86,56.2)" fill="#00FFFF">
        <path d="M-0.9,-0.9 L 0.9 -0.9 0.9 0.9 -0.9 0.9 z" class="primitive"/>
      </g>
      <g transform="translate(135.86,59.81)" fill="#A52A2A">
        <path d="M-0.9,-0.9 L 0.9 -0.9 0.9 0.9 -0.9 0.9 z" class="primitive"/>
      </g>
    </g>
    <g fill="#362A35" font-size="3.88" font-family="'PT Sans','Helvetica Neue','Helvetica',sans-serif" stroke="#000000" stroke-opacity="0.000" id="img-ce4ad720-7">
      <g transform="translate(134.96,33.96)">
        <g class="primitive">
          <text>Sources</text>
        </g>
      </g>
    </g>
  </g>
  <g clip-path="url(#img-ce4ad720-8)">
    <g id="img-ce4ad720-9">
      <g pointer-events="visible" opacity="1" fill="#000000" fill-opacity="0.000" stroke="#000000" stroke-opacity="0.000" class="guide background" id="img-ce4ad720-10">
        <g transform="translate(74.25,47.18)">
          <path d="M-59.71,-36.66 L 59.71 -36.66 59.71 36.66 -59.71 36.66 z" class="primitive"/>
        </g>
      </g>
      <g class="guide ygridlines xfixed" stroke-dasharray="0.5,0.5" stroke-width="0.2" stroke="#D0D0E0" id="img-ce4ad720-11">
        <g transform="translate(74.25,47.18)">
          <path fill="none" d="M-59.71,0 L 59.71 0" class="primitive"/>
        </g>
      </g>
      <g class="guide xgridlines yfixed" stroke-dasharray="0.5,0.5" stroke-width="0.2" stroke="#D0D0E0" id="img-ce4ad720-12">
        <g transform="translate(16.54,47.18)">
          <path fill="none" d="M0,-36.66 L 0 36.66" class="primitive"/>
        </g>
        <g transform="translate(74.25,47.18)">
          <path fill="none" d="M0,-36.66 L 0 36.66" class="primitive"/>
        </g>
        <g transform="translate(131.96,47.18)">
          <path fill="none" d="M0,-36.66 L 0 36.66" class="primitive"/>
        </g>
      </g>
      <g class="plotpanel" id="img-ce4ad720-13">
        <metadata>
          <boundingbox value="14.537768554687517mm 10.523643663194449mm 119.41802435980901mm 73.31075575086805mm"/>
          <unitbox value="-1.7328316015574097 1.0577111006317357 103.46566320311481 -2.1154222012634714"/>
        </metadata>
        <g stroke-width="0.71" fill="#000000" fill-opacity="0.000" class="geometry" id="img-ce4ad720-14">
          <g stroke-dasharray="none" stroke="#A52A2A" id="img-ce4ad720-15">
            <g transform="translate(74.82,47.18)">
              <path fill="none" d="M-57.13,0 L -55.98 0 -54.82 0 -53.67 0 -52.52 0 -51.36 0 -50.21 0 -49.05 0 -47.9 0 -46.74 0 -45.59 0 -44.44 0 -43.28 0 -42.13 0 -40.97 0 -39.82 0 -38.67 0 -37.51 0 -36.36 0 -35.2 0 -34.05 0 -32.89 0 -31.74 0 -30.59 0 -29.43 0 -28.28 0 -27.12 0 -25.97 0 -24.81 0 -23.66 0 -22.51 0 -21.35 0 -20.2 0 -19.04 0 -17.89 0 -16.74 0 -15.58 0 -14.43 0 -13.27 0 -12.12 0 -10.96 0 -9.81 0 -8.66 0 -7.5 0 -6.35 0 -5.19 0 -4.04 0 -2.89 0 -1.73 0 -0.58 0 0.58 0 1.73 0 2.89 0 4.04 0 5.19 0 6.35 0 7.5 0 8.66 0 9.81 0 10.96 0 12.12 0 13.27 0 14.43 0 15.58 0 16.74 0 17.89 0 19.04 0 20.2 0 21.35 0 22.51 0 23.66 0 24.81 0 25.97 0 27.12 0 28.28 0 29.43 0 30.59 0 31.74 0 32.89 0 34.05 0 35.2 0 36.36 0 37.51 0 38.67 0 39.82 0 40.97 0 42.13 0 43.28 0 44.44 0 45.59 0 46.74 0 47.9 0 49.05 0 50.21 0 51.36 0 52.52 0 53.67 0 54.82 0 55.98 0 57.13 0" class="primitive"/>
            </g>
          </g>
        </g>
        <g stroke-width="0.71" fill="#000000" fill-opacity="0.000" class="geometry" id="img-ce4ad720-16">
          <g stroke-dasharray="none" stroke="#00FFFF" id="img-ce4ad720-17">
            <g transform="translate(74.82,47.18)">
              <path fill="none" d="M-57.13,0 L -55.98 0 -54.82 0 -53.67 0 -52.52 0 -51.36 0 -50.21 0 -49.05 0 -47.9 0 -46.74 0 -45.59 0 -44.44 0 -43.28 0 -42.13 0 -40.97 0 -39.82 0 -38.67 0 -37.51 0 -36.36 0 -35.2 0 -34.05 0 -32.89 0 -31.74 0 -30.59 0 -29.43 0 -28.28 0 -27.12 0 -25.97 0 -24.81 0 -23.66 0 -22.51 0 -21.35 0 -20.2 0 -19.04 0 -17.89 0 -16.74 0 -15.58 0 -14.43 0 -13.27 0 -12.12 0 -10.96 0 -9.81 0 -8.66 0 -7.5 0 -6.35 0 -5.19 0 -4.04 0 -2.89 0 -1.73 0 -0.58 0 0.58 0 1.73 0 2.89 0 4.04 0 5.19 0 6.35 0 7.5 0 8.66 0 9.81 0 10.96 0 12.12 0 13.27 0 14.43 0 15.58 0 16.74 0 17.89 0 19.04 0 20.2 0 21.35 0 22.51 0 23.66 0 24.81 0 25.97 0 27.12 0 28.28 0 29.43 0 30.59 0 31.74 0 32.89 0 34.05 0 35.2 0 36.36 0 37.51 0 38.67 0 39.82 0 40.97 0 42.13 0 43.28 0 44.44 0 45.59 0 46.74 0 47.9 0 49.05 0 50.21 0 51.36 0 52.52 0 53.67 0 54.82 0 55.98 0 57.13 0" class="primitive"/>
            </g>
          </g>
        </g>
        <g stroke-width="0.71" fill="#000000" fill-opacity="0.000" class="geometry" id="img-ce4ad720-18">
          <g stroke-dasharray="none" stroke="#FF00FF" id="img-ce4ad720-19">
            <g transform="translate(74.82,47.18)">
              <path fill="none" d="M-57.13,0 L -55.98 0 -54.82 0 -53.67 0 -52.52 0 -51.36 0 -50.21 0 -49.05 0 -47.9 0 -46.74 0 -45.59 0 -44.44 0 -43.28 0 -42.13 0 -40.97 0 -39.82 0 -38.67 0 -37.51 0 -36.36 0 -35.2 0 -34.05 0 -32.89 0 -31.74 0 -30.59 0 -29.43 0 -28.28 0 -27.12 0 -25.97 0 -24.81 0 -23.66 0 -22.51 0 -21.35 0 -20.2 0 -19.04 0 -17.89 0 -16.74 0 -15.58 0 -14.43 0 -13.27 0 -12.12 0 -10.96 0 -9.81 0 -8.66 0 -7.5 0 -6.35 0 -5.19 0 -4.04 0 -2.89 0 -1.73 0 -0.58 0 0.58 0 1.73 0 2.89 0 4.04 0 5.19 0 6.35 0 7.5 0 8.66 0 9.81 0 10.96 0 12.12 0 13.27 0 14.43 0 15.58 0 16.74 0 17.89 0 19.04 0 20.2 0 21.35 0 22.51 0 23.66 0 24.81 0 25.97 0 27.12 0 28.28 0 29.43 0 30.59 0 31.74 0 32.89 0 34.05 0 35.2 0 36.36 0 37.51 0 38.67 0 39.82 0 40.97 0 42.13 0 43.28 0 44.44 0 45.59 0 46.74 0 47.9 0 49.05 0 50.21 0 51.36 0 52.52 0 53.67 0 54.82 0 55.98 0 57.13 0" class="primitive"/>
            </g>
          </g>
        </g>
        <g stroke-width="0.71" fill="#000000" fill-opacity="0.000" class="geometry" id="img-ce4ad720-20">
          <g stroke-dasharray="none" stroke="#FFA500" id="img-ce4ad720-21">
            <g transform="translate(74.82,47.18)">
              <path fill="none" d="M-57.13,0 L -55.98 0 -54.82 0 -53.67 0 -52.52 0 -51.36 0 -50.21 0 -49.05 0 -47.9 0 -46.74 0 -45.59 0 -44.44 0 -43.28 0 -42.13 0 -40.97 0 -39.82 0 -38.67 0 -37.51 0 -36.36 0 -35.2 0 -34.05 0 -32.89 0 -31.74 0 -30.59 0 -29.43 0 -28.28 0 -27.12 0 -25.97 0 -24.81 0 -23.66 0 -22.51 0 -21.35 0 -20.2 0 -19.04 0 -17.89 0 -16.74 0 -15.58 0 -14.43 0 -13.27 0 -12.12 0 -10.96 0 -9.81 0 -8.66 0 -7.5 0 -6.35 0 -5.19 0 -4.04 0 -2.89 0 -1.73 0 -0.58 0 0.58 0 1.73 0 2.89 0 4.04 0 5.19 0 6.35 0 7.5 0 8.66 0 9.81 0 10.96 0 12.12 0 13.27 0 14.43 0 15.58 0 16.74 0 17.89 0 19.04 0 20.2 0 21.35 0 22.51 0 23.66 0 24.81 0 25.97 0 27.12 0 28.28 0 29.43 0 30.59 0 31.74 0 32.89 0 34.05 0 35.2 0 36.36 0 37.51 0 38.67 0 39.82 0 40.97 0 42.13 0 43.28 0 44.44 0 45.59 0 46.74 0 47.9 0 49.05 0 50.21 0 51.36 0 52.52 0 53.67 0 54.82 0 55.98 0 57.13 0" class="primitive"/>
            </g>
          </g>
        </g>
        <g stroke-width="0.71" fill="#000000" fill-opacity="0.000" class="geometry" id="img-ce4ad720-22">
          <g stroke-dasharray="none" stroke="#008000" id="img-ce4ad720-23">
            <g transform="translate(74.82,47.18)">
              <path fill="none" d="M-57.13,0 L -55.98 0 -54.82 0 -53.67 0 -52.52 0 -51.36 0 -50.21 0 -49.05 0 -47.9 0 -46.74 0 -45.59 0 -44.44 0 -43.28 0 -42.13 0 -40.97 0 -39.82 0 -38.67 0 -37.51 0 -36.36 0 -35.2 0 -34.05 0 -32.89 0 -31.74 0 -30.59 0 -29.43 0 -28.28 0 -27.12 0 -25.97 0 -24.81 0 -23.66 0 -22.51 0 -21.35 0 -20.2 0 -19.04 0 -17.89 0 -16.74 0 -15.58 0 -14.43 0 -13.27 0 -12.12 0 -10.96 0 -9.81 0 -8.66 0 -7.5 0 -6.35 0 -5.19 0 -4.04 0 -2.89 0 -1.73 0 -0.58 0 0.58 0 1.73 0 2.89 0 4.04 0 5.19 0 6.35 0 7.5 0 8.66 0 9.81 0 10.96 0 12.12 0 13.27 0 14.43 0 15.58 0 16.74 0 17.89 0 19.04 0 20.2 0 21.35 0 22.51 0 23.66 0 24.81 0 25.97 0 27.12 0 28.28 0 29.43 0 30.59 0 31.74 0 32.89 0 34.05 0 35.2 0 36.36 0 37.51 0 38.67 0 39.82 0 40.97 0 42.13 0 43.28 0 44.44 0 45.59 0 46.74 0 47.9 0 49.05 0 50.21 0 51.36 0 52.52 0 53.67 0 54.82 0 55.98 0 57.13 0" class="primitive"/>
            </g>
          </g>
        </g>
        <g stroke-width="0.71" fill="#000000" fill-opacity="0.000" class="geometry" id="img-ce4ad720-24">
          <g stroke-dasharray="none" stroke="#0000FF" id="img-ce4ad720-25">
            <g transform="translate(74.82,47.18)">
              <path fill="none" d="M-57.13,0 L -55.98 0 -54.82 0 -53.67 0 -52.52 0 -51.36 0 -50.21 0 -49.05 0 -47.9 0 -46.74 0 -45.59 0 -44.44 0 -43.28 0 -42.13 0 -40.97 0 -39.82 0 -38.67 0 -37.51 0 -36.36 0 -35.2 0 -34.05 0 -32.89 0 -31.74 0 -30.59 0 -29.43 0 -28.28 0 -27.12 0 -25.97 0 -24.81 0 -23.66 0 -22.51 0 -21.35 0 -20.2 0 -19.04 0 -17.89 0 -16.74 0 -15.58 0 -14.43 0 -13.27 0 -12.12 0 -10.96 0 -9.81 0 -8.66 0 -7.5 0 -6.35 0 -5.19 0 -4.04 0 -2.89 0 -1.73 0 -0.58 0 0.58 0 1.73 0 2.89 0 4.04 0 5.19 0 6.35 0 7.5 0 8.66 0 9.81 0 10.96 0 12.12 0 13.27 0 14.43 0 15.58 0 16.74 0 17.89 0 19.04 0 20.2 0 21.35 0 22.51 0 23.66 0 24.81 0 25.97 0 27.12 0 28.28 0 29.43 0 30.59 0 31.74 0 32.89 0 34.05 0 35.2 0 36.36 0 37.51 0 38.67 0 39.82 0 40.97 0 42.13 0 43.28 0 44.44 0 45.59 0 46.74 0 47.9 0 49.05 0 50.21 0 51.36 0 52.52 0 53.67 0 54.82 0 55.98 0 57.13 0" class="primitive"/>
            </g>
          </g>
        </g>
        <g stroke-width="0.71" fill="#000000" fill-opacity="0.000" class="geometry" id="img-ce4ad720-26">
          <g stroke-dasharray="none" stroke="#FF0000" id="img-ce4ad720-27">
            <g transform="translate(74.82,47.18)">
              <path fill="none" d="M-57.13,0 L -55.98 0 -54.82 0 -53.67 0 -52.52 0 -51.36 0 -50.21 0 -49.05 0 -47.9 0 -46.74 0 -45.59 0 -44.44 0 -43.28 0 -42.13 0 -40.97 0 -39.82 0 -38.67 0 -37.51 0 -36.36 0 -35.2 0 -34.05 0 -32.89 0 -31.74 0 -30.59 0 -29.43 0 -28.28 0 -27.12 0 -25.97 0 -24.81 0 -23.66 0 -22.51 0 -21.35 0 -20.2 0 -19.04 0 -17.89 0 -16.74 0 -15.58 0 -14.43 0 -13.27 0 -12.12 0 -10.96 0 -9.81 0 -8.66 0 -7.5 0 -6.35 0 -5.19 0 -4.04 0 -2.89 0 -1.73 0 -0.58 0 0.58 0 1.73 0 2.89 0 4.04 0 5.19 0 6.35 0 7.5 0 8.66 0 9.81 0 10.96 0 12.12 0 13.27 0 14.43 0 15.58 0 16.74 0 17.89 0 19.04 0 20.2 0 21.35 0 22.51 0 23.66 0 24.81 0 25.97 0 27.12 0 28.28 0 29.43 0 30.59 0 31.74 0 32.89 0 34.05 0 35.2 0 36.36 0 37.51 0 38.67 0 39.82 0 40.97 0 42.13 0 43.28 0 44.44 0 45.59 0 46.74 0 47.9 0 49.05 0 50.21 0 51.36 0 52.52 0 53.67 0 54.82 0 55.98 0 57.13 0" class="primitive"/>
            </g>
          </g>
        </g>
      </g>
    </g>
  </g>
  <g class="guide ylabels" font-size="2.82" font-family="'PT Sans Caption','Helvetica Neue','Helvetica',sans-serif" fill="#6C606B" id="img-ce4ad720-28">
    <g transform="translate(13.54,47.18)">
      <g class="primitive">
        <text text-anchor="end" dy="0.35em">0</text>
      </g>
    </g>
  </g>
  <g font-size="3.88" font-family="'PT Sans','Helvetica Neue','Helvetica',sans-serif" fill="#564A55" stroke="#000000" stroke-opacity="0.000" id="img-ce4ad720-29">
    <g transform="translate(9.11,47.18)">
      <g class="primitive">
        <text text-anchor="end" dy="0.35em">Y</text>
      </g>
    </g>
  </g>
  <g font-size="3.88" font-family="'PT Sans','Helvetica Neue','Helvetica',sans-serif" fill="#564A55" stroke="#000000" stroke-opacity="0.000" id="img-ce4ad720-30">
    <g transform="translate(74.25,5)">
      <g class="primitive">
        <text text-anchor="middle" dy="0.6em">Reproduced observations</text>
      </g>
    </g>
  </g>
</g>
<defs>
  <clipPath id="img-ce4ad720-8">
    <path d="M14.54,10.52 L 133.96 10.52 133.96 83.83 14.54 83.83" />
  </clipPath>
</defs>
</svg>
