<?xml version="1.0" encoding="UTF-8"?>
<svg xmlns="http://www.w3.org/2000/svg"
     xmlns:xlink="http://www.w3.org/1999/xlink"
     xmlns:gadfly="http://www.gadflyjl.org/ns"
     version="1.2"
     width="152.4mm" height="101.6mm" viewBox="0 0 152.4 101.6"
     stroke="none"
     fill="#000000"
     stroke-width="0.3"
     font-size="3.88"
>
<g class="plotroot xscalable yscalable" id="img-4fcdff77-1">
  <g font-size="3.88" font-family="'PT Sans','Helvetica Neue','Helvetica',sans-serif" fill="#564A55" stroke="#000000" stroke-opacity="0.000" id="img-4fcdff77-2">
    <text x="68.09" y="89.99" text-anchor="middle" dy="0.6em">X</text>
  </g>
  <g class="guide xlabels" font-size="2.82" font-family="'PT Sans Caption','Helvetica Neue','Helvetica',sans-serif" fill="#6C606B" id="img-4fcdff77-3">
    <text x="19.18" y="83.32" text-anchor="middle" dy="0.6em">0</text>
    <text x="68.09" y="83.32" text-anchor="middle" dy="0.6em">50</text>
    <text x="116.99" y="83.32" text-anchor="middle" dy="0.6em">100</text>
  </g>
  <g class="guide colorkey" id="img-4fcdff77-4">
    <g fill="#4C404B" font-size="2.82" font-family="'PT Sans','Helvetica Neue','Helvetica',sans-serif" id="img-4fcdff77-5">
      <text x="122.81" y="43.66" dy="0.35em" id="img-4fcdff77-6" class="color_Source_1">Source 1</text>
      <text x="122.81" y="47.28" dy="0.35em" id="img-4fcdff77-7" class="color_Source_2">Source 2</text>
    </g>
    <g stroke="#000000" stroke-opacity="0.000" id="img-4fcdff77-8">
      <rect x="119.99" y="42.75" width="1.81" height="1.81" id="img-4fcdff77-9" class="color_Source_1" fill="#00BFFF"/>
      <rect x="119.99" y="46.38" width="1.81" height="1.81" id="img-4fcdff77-10" class="color_Source_2" fill="#D4CA3A"/>
    </g>
    <g fill="#362A35" font-size="3.88" font-family="'PT Sans','Helvetica Neue','Helvetica',sans-serif" stroke="#000000" stroke-opacity="0.000" id="img-4fcdff77-11">
      <text x="119.99" y="39.84" id="img-4fcdff77-12">Unmixed sources</text>
    </g>
  </g>
<g clip-path="url(#img-4fcdff77-13)">
  <g id="img-4fcdff77-14">
    <g pointer-events="visible" opacity="1" fill="#000000" fill-opacity="0.000" stroke="#000000" stroke-opacity="0.000" class="guide background" id="img-4fcdff77-15">
      <rect x="17.18" y="5" width="101.81" height="77.32" id="img-4fcdff77-16"/>
    </g>
    <g class="guide ygridlines xfixed" stroke-dasharray="0.5,0.5" stroke-width="0.2" stroke="#D0D0E0" id="img-4fcdff77-17">
      <path fill="none" d="M17.18,80.32 L 118.99 80.32" id="img-4fcdff77-18"/>
      <path fill="none" d="M17.18,61.99 L 118.99 61.99" id="img-4fcdff77-19"/>
      <path fill="none" d="M17.18,43.66 L 118.99 43.66" id="img-4fcdff77-20"/>
      <path fill="none" d="M17.18,25.33 L 118.99 25.33" id="img-4fcdff77-21"/>
      <path fill="none" d="M17.18,7 L 118.99 7" id="img-4fcdff77-22"/>
    </g>
    <g class="guide xgridlines yfixed" stroke-dasharray="0.5,0.5" stroke-width="0.2" stroke="#D0D0E0" id="img-4fcdff77-23">
      <path fill="none" d="M19.18,5 L 19.18 82.32" id="img-4fcdff77-24"/>
      <path fill="none" d="M68.09,5 L 68.09 82.32" id="img-4fcdff77-25"/>
      <path fill="none" d="M116.99,5 L 116.99 82.32" id="img-4fcdff77-26"/>
    </g>
    <g class="plotpanel" id="img-4fcdff77-27">
      <g stroke-width="0.3" fill="#000000" fill-opacity="0.000" class="geometry color_Source_2" stroke-dasharray="none" stroke="#D4CA3A" id="img-4fcdff77-28">
        <path fill="none" d="M20.16,14.99 L 21.14 21.2 22.12 26.82 23.1 31.9 24.07 36.5 25.05 40.66 26.03 44.43 27.01 47.84 27.99 50.92 28.96 53.71 29.94 56.23 30.92 58.52 31.9 60.58 32.88 62.45 33.85 64.15 34.83 65.68 35.81 67.07 36.79 68.32 37.77 69.46 38.75 70.48 39.72 71.41 40.7 72.26 41.68 73.02 42.66 73.71 43.64 74.34 44.61 74.9 45.59 75.42 46.57 75.88 47.55 76.3 48.53 76.68 49.5 77.03 50.48 77.34 51.46 77.62 52.44 77.88 53.42 78.11 54.39 78.32 55.37 78.51 56.35 78.69 57.33 78.84 58.31 78.99 59.29 79.11 60.26 79.23 61.24 79.33 62.22 79.43 63.2 79.51 64.18 79.59 65.15 79.66 66.13 79.72 67.11 79.78 68.09 79.83 69.07 79.87 70.04 79.91 71.02 79.95 72 79.98 72.98 80.01 73.96 80.04 74.93 80.06 75.91 80.08 76.89 80.1 77.87 80.11 78.85 80.12 79.83 80.14 80.8 80.15 81.78 80.16 82.76 80.16 83.74 80.17 84.72 80.18 85.69 80.18 86.67 80.19 87.65 80.19 88.63 80.2 89.61 80.2 90.58 80.2 91.56 80.2 92.54 80.21 93.52 80.21 94.5 80.21 95.47 80.22 96.45 80.22 97.43 80.22 98.41 80.22 99.39 80.23 100.36 80.23 101.34 80.23 102.32 80.24 103.3 80.24 104.28 80.25 105.26 80.25 106.23 80.25 107.21 80.26 108.19 80.26 109.17 80.27 110.15 80.27 111.12 80.27 112.1 80.28 113.08 80.28 114.06 80.29 115.04 80.29 116.01 80.29 116.99 80.3" id="img-4fcdff77-29"/>
      </g>
      <g stroke-width="0.3" fill="#000000" fill-opacity="0.000" class="geometry color_Source_1" stroke-dasharray="none" stroke="#00BFFF" id="img-4fcdff77-30">
        <path fill="none" d="M20.16,68.33 L 21.14 68.25 22.12 68.14 23.1 68 24.07 67.84 25.05 67.68 26.03 67.51 27.01 67.36 27.99 67.22 28.96 67.1 29.94 67.02 30.92 66.96 31.9 66.94 32.88 66.97 33.85 67.04 34.83 67.15 35.81 67.31 36.79 67.52 37.77 67.78 38.75 68.09 39.72 68.44 40.7 68.84 41.68 69.28 42.66 69.75 43.64 70.27 44.61 70.81 45.59 71.38 46.57 71.97 47.55 72.58 48.53 73.19 49.5 73.82 50.48 74.44 51.46 75.06 52.44 75.66 53.42 76.25 54.39 76.82 55.37 77.36 56.35 77.86 57.33 78.33 58.31 78.75 59.29 79.13 60.26 79.46 61.24 79.73 62.22 79.95 63.2 80.11 64.18 80.22 65.15 80.26 66.13 80.24 67.11 80.17 68.09 80.03 69.07 79.83 70.04 79.59 71.02 79.28 72 78.93 72.98 78.53 73.96 78.09 74.93 77.61 75.91 77.1 76.89 76.55 77.87 75.99 78.85 75.41 79.83 74.82 80.8 74.22 81.78 73.63 82.76 73.04 83.74 72.46 84.72 71.91 85.69 71.37 86.67 70.87 87.65 70.4 88.63 69.97 89.61 69.59 90.58 69.25 91.56 68.96 92.54 68.72 93.52 68.55 94.5 68.42 95.47 68.36 96.45 68.36 97.43 68.42 98.41 68.53 99.39 68.71 100.36 68.94 101.34 69.22 102.32 69.56 103.3 69.94 104.28 70.37 105.26 70.84 106.23 71.34 107.21 71.87 108.19 72.43 109.17 73 110.15 73.59 111.12 74.19 112.1 74.78 113.08 75.38 114.06 75.96 115.04 76.53 116.01 77.07 116.99 77.59" id="img-4fcdff77-31"/>
      </g>
    </g>
  </g>
</g>
  <g class="guide ylabels" font-size="2.82" font-family="'PT Sans Caption','Helvetica Neue','Helvetica',sans-serif" fill="#6C606B" id="img-4fcdff77-32">
    <text x="16.18" y="80.32" text-anchor="end" dy="0.35em" id="img-4fcdff77-33">0.0</text>
    <text x="16.18" y="61.99" text-anchor="end" dy="0.35em" id="img-4fcdff77-34">0.2</text>
    <text x="16.18" y="43.66" text-anchor="end" dy="0.35em" id="img-4fcdff77-35">0.4</text>
    <text x="16.18" y="25.33" text-anchor="end" dy="0.35em" id="img-4fcdff77-36">0.6</text>
    <text x="16.18" y="7" text-anchor="end" dy="0.35em" id="img-4fcdff77-37">0.8</text>
  </g>
  <g font-size="3.88" font-family="'PT Sans','Helvetica Neue','Helvetica',sans-serif" fill="#564A55" stroke="#000000" stroke-opacity="0.000" id="img-4fcdff77-38">
    <text x="9.16" y="43.66" text-anchor="end" dy="0.35em" id="img-4fcdff77-39">Y</text>
  </g>
</g>
<defs>
  <clipPath id="img-4fcdff77-13">
  <path d="M17.18,5 L 118.99 5 118.99 82.32 17.18 82.32" />
</clipPath>
</defs>
</svg>
