<?xml version="1.0" encoding="UTF-8"?>
<svg xmlns="http://www.w3.org/2000/svg"
     xmlns:xlink="http://www.w3.org/1999/xlink"
     xmlns:gadfly="http://www.gadflyjl.org/ns"
     version="1.2"
     width="152.4mm" height="101.6mm" viewBox="0 0 152.4 101.6"
     stroke="none"
     fill="#000000"
     stroke-width="0.3"
     font-size="3.88"
>
<g class="plotroot xscalable yscalable" id="img-107530bd-1">
  <g font-size="3.88" font-family="'PT Sans','Helvetica Neue','Helvetica',sans-serif" fill="#564A55" stroke="#000000" stroke-opacity="0.000" id="img-107530bd-2">
    <text x="68.88" y="89.99" text-anchor="middle" dy="0.6em">X</text>
  </g>
  <g class="guide xlabels" font-size="2.82" font-family="'PT Sans Caption','Helvetica Neue','Helvetica',sans-serif" fill="#6C606B" id="img-107530bd-3">
    <text x="19.18" y="83.32" text-anchor="middle" dy="0.6em">0</text>
    <text x="68.88" y="83.32" text-anchor="middle" dy="0.6em">50</text>
    <text x="118.58" y="83.32" text-anchor="middle" dy="0.6em">100</text>
  </g>
  <g class="guide colorkey" id="img-107530bd-4">
    <g fill="#4C404B" font-size="2.82" font-family="'PT Sans','Helvetica Neue','Helvetica',sans-serif" id="img-107530bd-5">
      <text x="124.39" y="41.84" dy="0.35em" id="img-107530bd-6" class="color_Source_1">Source 1</text>
      <text x="124.39" y="45.47" dy="0.35em" id="img-107530bd-7" class="color_Source_2">Source 2</text>
      <text x="124.39" y="49.1" dy="0.35em" id="img-107530bd-8" class="color_Source_3">Source 3</text>
    </g>
    <g stroke="#000000" stroke-opacity="0.000" id="img-107530bd-9">
      <rect x="121.58" y="40.94" width="1.81" height="1.81" id="img-107530bd-10" fill="#00BFFF" class="color_Source_1"/>
      <rect x="121.58" y="44.56" width="1.81" height="1.81" id="img-107530bd-11" fill="#D4CA3A" class="color_Source_2"/>
      <rect x="121.58" y="48.19" width="1.81" height="1.81" id="img-107530bd-12" fill="#FF6DAE" class="color_Source_3"/>
    </g>
    <g fill="#362A35" font-size="3.88" font-family="'PT Sans','Helvetica Neue','Helvetica',sans-serif" stroke="#000000" stroke-opacity="0.000" id="img-107530bd-13">
      <text x="121.58" y="38.02" id="img-107530bd-14">Original sources</text>
    </g>
  </g>
<g clip-path="url(#img-107530bd-15)">
  <g id="img-107530bd-16">
    <g pointer-events="visible" opacity="1" fill="#000000" fill-opacity="0.000" stroke="#000000" stroke-opacity="0.000" class="guide background" id="img-107530bd-17">
      <rect x="17.18" y="5" width="103.39" height="77.32" id="img-107530bd-18"/>
    </g>
    <g class="guide ygridlines xfixed" stroke-dasharray="0.5,0.5" stroke-width="0.2" stroke="#D0D0E0" id="img-107530bd-19">
      <path fill="none" d="M17.18,80.31 L 120.58 80.31" id="img-107530bd-20"/>
      <path fill="none" d="M17.18,43.66 L 120.58 43.66" id="img-107530bd-21"/>
      <path fill="none" d="M17.18,7 L 120.58 7" id="img-107530bd-22"/>
    </g>
    <g class="guide xgridlines yfixed" stroke-dasharray="0.5,0.5" stroke-width="0.2" stroke="#D0D0E0" id="img-107530bd-23">
      <path fill="none" d="M19.18,5 L 19.18 82.32" id="img-107530bd-24"/>
      <path fill="none" d="M68.88,5 L 68.88 82.32" id="img-107530bd-25"/>
      <path fill="none" d="M118.58,5 L 118.58 82.32" id="img-107530bd-26"/>
    </g>
    <g class="plotpanel" id="img-107530bd-27">
      <g stroke-width="0.3" fill="#000000" fill-opacity="0.000" class="geometry color_Source_3" stroke-dasharray="none" stroke="#FF6DAE" id="img-107530bd-28">
        <path fill="none" d="M20.18,36.37 L 21.17 29.38 22.17 22.96 23.16 17.36 24.15 12.81 25.15 9.49 26.14 7.53 27.13 7.02 28.13 7.96 29.12 10.32 30.12 14.02 31.11 18.9 32.1 24.76 33.1 31.38 34.09 38.48 35.09 45.8 36.08 53.02 37.07 59.88 38.07 66.09 39.06 71.4 40.06 75.61 41.05 78.54 42.04 80.08 43.04 80.17 44.03 78.81 45.03 76.04 46.02 71.99 47.01 66.8 48.01 60.69 49 53.9 50 46.7 50.99 39.39 51.98 32.24 52.98 25.54 53.97 19.57 54.97 14.56 55.96 10.71 56.95 8.18 57.95 7.05 58.94 7.39 59.94 9.17 60.93 12.33 61.92 16.74 62.92 22.22 63.91 28.55 64.91 35.49 65.9 42.75 66.89 50.05 67.89 57.09 68.88 63.6 69.87 69.31 70.87 74 71.86 77.48 72.86 79.62 73.85 80.31 74.84 79.55 75.84 77.36 76.83 73.82 77.83 69.08 78.82 63.33 79.81 56.79 80.81 49.73 81.8 42.42 82.8 35.17 83.79 28.26 84.78 21.95 85.78 16.52 86.77 12.16 87.77 9.06 88.76 7.34 89.75 7.07 90.75 8.26 91.74 10.86 92.74 14.76 93.73 19.82 94.72 25.83 95.72 32.55 96.71 39.71 97.71 47.03 98.7 54.21 99.69 60.98 100.69 67.05 101.68 72.19 102.68 76.19 103.67 78.9 104.66 80.2 105.66 80.05 106.65 78.44 107.64 75.45 108.64 71.19 109.63 65.83 110.63 59.59 111.62 52.71 112.61 45.47 113.61 38.16 114.6 31.07 115.6 24.48 116.59 18.66 117.58 13.83 118.58 10.19" id="img-107530bd-29"/>
      </g>
      <g stroke-width="0.3" fill="#000000" fill-opacity="0.000" class="geometry color_Source_2" stroke-dasharray="none" stroke="#D4CA3A" id="img-107530bd-30">
        <path fill="none" d="M20.18,32.82 L 21.17 22.96 22.17 14.94 23.16 9.49 24.15 7.09 25.15 7.96 26.14 12.01 27.13 18.9 28.13 27.99 29.12 38.48 30.12 49.44 31.11 59.88 32.1 68.87 33.1 75.61 34.09 79.49 35.09 80.17 36.08 77.6 37.07 71.99 38.07 63.84 39.06 53.9 40.06 43.04 41.05 32.24 42.04 22.45 43.04 14.56 44.03 9.27 45.03 7.05 46.02 8.1 47.01 12.33 48.01 19.35 49 28.55 50 39.1 50.99 50.05 51.98 60.43 52.98 69.31 53.97 75.9 54.97 79.62 55.96 80.12 56.95 77.36 57.95 71.59 58.94 63.33 59.94 53.31 60.93 42.42 61.92 31.65 62.92 21.95 63.91 14.19 64.91 9.06 65.9 7.03 66.89 8.26 67.89 12.65 68.88 19.82 69.87 29.11 70.87 39.71 71.86 50.65 72.86 60.98 73.85 69.75 74.84 76.19 75.84 79.73 76.83 80.05 77.83 77.11 78.82 71.19 79.81 62.8 80.81 52.71 81.8 41.81 82.8 31.07 83.79 21.46 84.78 13.83 85.78 8.86 86.77 7.01 87.77 8.42 88.76 12.99 89.75 20.29 90.75 29.68 91.74 40.32 92.74 51.26 93.73 61.52 94.72 70.18 95.72 76.47 96.71 79.84 97.71 79.97 98.7 76.85 99.69 70.78 100.69 62.28 101.68 52.11 102.68 41.19 103.67 30.5 104.66 20.97 105.66 13.48 106.65 8.68 107.64 7 108.64 8.6 109.63 13.33 110.63 20.77 111.62 30.25 112.61 40.94 113.61 51.86 114.6 62.05 115.6 70.6 116.59 76.74 117.58 79.93 118.58 79.88" id="img-107530bd-31"/>
      </g>
      <g stroke-width="0.3" fill="#000000" fill-opacity="0.000" class="geometry color_Source_1" stroke-dasharray="none" stroke="#00BFFF" id="img-107530bd-32">
        <path fill="none" d="M20.18,41.83 L 21.17 40 22.17 38.18 23.16 36.37 24.15 34.59 25.15 32.82 26.14 31.09 27.13 29.38 28.13 27.71 29.12 26.08 30.12 24.5 31.11 22.96 32.1 21.47 33.1 20.04 34.09 18.67 35.09 17.36 36.08 16.12 37.07 14.94 38.07 13.84 39.06 12.81 40.06 11.86 41.05 10.99 42.04 10.2 43.04 9.49 44.03 8.87 45.03 8.34 46.02 7.89 47.01 7.53 48.01 7.27 49 7.09 50 7.01 50.99 7.02 51.98 7.11 52.98 7.31 53.97 7.59 54.97 7.96 55.96 8.42 56.95 8.97 57.95 9.6 58.94 10.32 59.94 11.13 60.93 12.01 61.92 12.98 62.92 14.02 63.91 15.14 64.91 16.32 65.9 17.58 66.89 18.9 67.89 20.28 68.88 21.72 69.87 23.21 70.87 24.76 71.86 26.35 72.86 27.99 73.85 29.67 74.84 31.38 75.84 33.12 76.83 34.89 77.83 36.68 78.82 38.48 79.81 40.3 80.81 42.13 81.8 43.97 82.8 45.8 83.79 47.62 84.78 49.44 85.78 51.24 86.77 53.02 87.77 54.78 88.76 56.52 89.75 58.22 90.75 59.88 91.74 61.5 92.74 63.08 93.73 64.61 94.72 66.09 95.72 67.51 96.71 68.87 97.71 70.17 98.7 71.4 99.69 72.56 100.69 73.65 101.68 74.67 102.68 75.61 103.67 76.47 104.66 77.24 105.66 77.93 106.65 78.54 107.64 79.06 108.64 79.49 109.63 79.83 110.63 80.08 111.62 80.24 112.61 80.31 113.61 80.29 114.6 80.17 115.6 79.97 116.59 79.67 117.58 79.29 118.58 78.81" id="img-107530bd-33"/>
      </g>
    </g>
  </g>
</g>
  <g class="guide ylabels" font-size="2.82" font-family="'PT Sans Caption','Helvetica Neue','Helvetica',sans-serif" fill="#6C606B" id="img-107530bd-34">
    <text x="16.18" y="80.31" text-anchor="end" dy="0.35em" id="img-107530bd-35">0.0</text>
    <text x="16.18" y="43.66" text-anchor="end" dy="0.35em" id="img-107530bd-36">0.5</text>
    <text x="16.18" y="7" text-anchor="end" dy="0.35em" id="img-107530bd-37">1.0</text>
  </g>
  <g font-size="3.88" font-family="'PT Sans','Helvetica Neue','Helvetica',sans-serif" fill="#564A55" stroke="#000000" stroke-opacity="0.000" id="img-107530bd-38">
    <text x="9.16" y="43.66" text-anchor="end" dy="0.35em" id="img-107530bd-39">Y</text>
  </g>
</g>
<defs>
  <clipPath id="img-107530bd-15">
  <path d="M17.18,5 L 120.58 5 120.58 82.32 17.18 82.32" />
</clipPath>
</defs>
</svg>
