<?xml version="1.0" encoding="UTF-8"?>
<svg xmlns="http://www.w3.org/2000/svg"
     xmlns:xlink="http://www.w3.org/1999/xlink"
     xmlns:gadfly="http://www.gadflyjl.org/ns"
     version="1.2"
     width="152.4mm" height="101.6mm" viewBox="0 0 152.4 101.6"
     stroke="none"
     fill="#000000"
     stroke-width="0.3"
     font-size="3.88"
>
<g class="plotroot xscalable yscalable" id="img-cc7d55d1-1">
  <g font-size="3.88" font-family="'PT Sans','Helvetica Neue','Helvetica',sans-serif" fill="#564A55" stroke="#000000" stroke-opacity="0.000" id="img-cc7d55d1-2">
    <text x="64.93" y="89.99" text-anchor="middle" dy="0.6em">X</text>
  </g>
  <g class="guide xlabels" font-size="2.82" font-family="'PT Sans Caption','Helvetica Neue','Helvetica',sans-serif" fill="#6C606B" id="img-cc7d55d1-3">
    <text x="16.84" y="83.32" text-anchor="middle" dy="0.6em">0</text>
    <text x="64.93" y="83.32" text-anchor="middle" dy="0.6em">50</text>
    <text x="113.03" y="83.32" text-anchor="middle" dy="0.6em">100</text>
  </g>
  <g class="guide colorkey" id="img-cc7d55d1-4">
    <g fill="#4C404B" font-size="2.82" font-family="'PT Sans','Helvetica Neue','Helvetica',sans-serif" id="img-cc7d55d1-5">
      <text x="118.85" y="41.84" dy="0.35em" id="img-cc7d55d1-6" class="color_Signal_1">Signal 1</text>
      <text x="118.85" y="45.47" dy="0.35em" id="img-cc7d55d1-7" class="color_Signal_2">Signal 2</text>
      <text x="118.85" y="49.1" dy="0.35em" id="img-cc7d55d1-8" class="color_Signal_3">Signal 3</text>
    </g>
    <g stroke="#000000" stroke-opacity="0.000" id="img-cc7d55d1-9">
      <rect x="116.03" y="40.94" width="1.81" height="1.81" id="img-cc7d55d1-10" class="color_Signal_1" fill="#00BFFF"/>
      <rect x="116.03" y="44.56" width="1.81" height="1.81" id="img-cc7d55d1-11" class="color_Signal_2" fill="#D4CA3A"/>
      <rect x="116.03" y="48.19" width="1.81" height="1.81" id="img-cc7d55d1-12" class="color_Signal_3" fill="#FF6DAE"/>
    </g>
    <g fill="#362A35" font-size="3.88" font-family="'PT Sans','Helvetica Neue','Helvetica',sans-serif" stroke="#000000" stroke-opacity="0.000" id="img-cc7d55d1-13">
      <text x="116.03" y="38.02" id="img-cc7d55d1-14">Reproduced signals</text>
    </g>
  </g>
<g clip-path="url(#img-cc7d55d1-15)">
  <g id="img-cc7d55d1-16">
    <g pointer-events="visible" opacity="1" fill="#000000" fill-opacity="0.000" stroke="#000000" stroke-opacity="0.000" class="guide background" id="img-cc7d55d1-17">
      <rect x="14.84" y="5" width="100.2" height="77.32" id="img-cc7d55d1-18"/>
    </g>
    <g class="guide ygridlines xfixed" stroke-dasharray="0.5,0.5" stroke-width="0.2" stroke="#D0D0E0" id="img-cc7d55d1-19">
      <path fill="none" d="M14.84,80.31 L 115.03 80.31" id="img-cc7d55d1-20"/>
      <path fill="none" d="M14.84,61.99 L 115.03 61.99" id="img-cc7d55d1-21"/>
      <path fill="none" d="M14.84,43.66 L 115.03 43.66" id="img-cc7d55d1-22"/>
      <path fill="none" d="M14.84,25.33 L 115.03 25.33" id="img-cc7d55d1-23"/>
      <path fill="none" d="M14.84,7 L 115.03 7" id="img-cc7d55d1-24"/>
    </g>
    <g class="guide xgridlines yfixed" stroke-dasharray="0.5,0.5" stroke-width="0.2" stroke="#D0D0E0" id="img-cc7d55d1-25">
      <path fill="none" d="M16.84,5 L 16.84 82.32" id="img-cc7d55d1-26"/>
      <path fill="none" d="M64.93,5 L 64.93 82.32" id="img-cc7d55d1-27"/>
      <path fill="none" d="M113.03,5 L 113.03 82.32" id="img-cc7d55d1-28"/>
    </g>
    <g class="plotpanel" id="img-cc7d55d1-29">
      <g stroke-width="0.3" fill="#000000" fill-opacity="0.000" class="geometry color_Signal_3" stroke-dasharray="none" stroke="#FF6DAE" id="img-cc7d55d1-30">
        <path fill="none" d="M17.8,45.32 L 18.76 39.92 19.72 35.48 20.68 32.34 21.65 30.72 22.61 30.73 23.57 32.35 24.53 35.42 25.49 39.67 26.46 44.76 27.42 50.26 28.38 55.58 29.34 59.82 30.3 61.8 31.27 61.42 32.23 60.74 33.19 60.84 34.15 59.66 35.11 55.93 36.08 50.41 37.04 44.26 38 38.27 38.96 32.96 39.92 28.73 40.89 25.88 41.85 24.63 42.81 25.06 43.77 27.14 44.73 30.71 45.7 35.49 46.66 41.14 47.62 47.19 48.58 52.92 49.54 57.09 50.51 58.28 51.47 57.03 52.43 56.88 53.39 58.49 54.35 58.33 55.32 55.01 56.28 49.77 57.24 43.95 58.2 38.38 59.16 33.54 60.12 29.8 61.09 27.46 62.05 26.72 63.01 27.64 63.97 30.18 64.93 34.15 65.9 39.26 66.86 45.12 67.82 51.29 68.78 57.15 69.74 61.89 70.71 64.73 71.67 65.85 72.63 66.36 73.59 66.27 74.55 64.4 75.52 60.6 76.48 55.67 77.44 50.4 78.4 45.35 79.36 40.98 80.33 37.64 81.29 35.65 82.25 35.19 83.21 36.33 84.17 39 85.14 43 86.1 48.03 87.06 53.72 88.02 59.65 88.98 65.36 89.95 70.28 90.91 73.8 91.87 75.62 92.83 76.08 93.79 75.12 94.76 72.31 95.72 67.96 96.68 62.79 97.64 57.35 98.6 52.03 99.57 47.04 100.53 42.5 101.49 38.73 102.45 36.75 103.41 37.66 104.37 41.24 105.34 46.29 106.3 51.91 107.26 57.75 108.22 63.61 109.18 69.23 110.15 74.19 111.11 77.77 112.07 79.28 113.03 79.08" id="img-cc7d55d1-31"/>
      </g>
      <g stroke-width="0.3" fill="#000000" fill-opacity="0.000" class="geometry color_Signal_2" stroke-dasharray="none" stroke="#D4CA3A" id="img-cc7d55d1-32">
        <path fill="none" d="M17.8,39.66 L 18.76 36.4 19.72 33.52 20.68 31.11 21.65 29.2 22.61 27.87 23.57 27.15 24.53 27.05 25.49 27.53 26.46 28.47 27.42 29.69 28.38 30.94 29.34 31.88 30.3 32.1 31.27 31.43 32.23 30.43 33.19 29.39 34.15 27.71 35.11 25.13 36.08 22.01 37.04 18.74 38 15.61 38.96 12.82 39.92 10.56 40.89 8.94 41.85 8.05 42.81 7.93 43.77 8.56 44.73 9.9 45.7 11.83 46.66 14.19 47.62 16.8 48.58 19.38 49.54 21.55 50.51 22.78 51.47 23.07 52.43 23.38 53.39 23.92 54.35 23.69 55.32 22.43 56.28 20.63 57.24 18.72 58.2 16.99 59.16 15.65 60.12 14.85 61.09 14.72 62.05 15.3 63.01 16.6 63.97 18.58 64.93 21.17 65.9 24.27 66.86 27.73 67.82 31.36 68.78 34.93 69.74 38.12 70.71 40.63 71.67 42.41 72.63 43.77 73.59 44.74 74.55 44.99 75.52 44.56 76.48 43.81 77.44 43.05 78.4 42.56 79.36 42.52 80.33 43 81.29 43.99 82.25 45.4 83.21 47.12 84.17 49.14 85.14 51.45 86.1 54.07 87.06 56.97 88.02 60.05 88.98 63.16 89.95 66.07 90.91 68.49 91.87 70.23 92.83 71.35 93.79 71.77 94.76 71.34 95.72 70.25 96.68 68.76 97.64 66.88 98.6 64.1 99.57 59.36 100.53 51.57 101.49 41.74 102.45 34.79 103.41 35.8 104.37 43.88 105.34 53.67 106.3 61.49 107.26 66.92 108.22 70.79 109.18 73.84 110.15 76.36 111.11 78.21 112.07 78.95 113.03 78.58" id="img-cc7d55d1-33"/>
      </g>
      <g stroke-width="0.3" fill="#000000" fill-opacity="0.000" class="geometry color_Signal_1" stroke-dasharray="none" stroke="#00BFFF" id="img-cc7d55d1-34">
        <path fill="none" d="M17.8,58.13 L 18.76 55.3 19.72 52.93 20.68 51.18 21.65 50.15 22.61 49.89 23.57 50.41 24.53 51.63 25.49 53.46 26.46 55.71 27.42 58.18 28.38 60.58 29.34 62.49 30.3 63.34 31.27 63.05 32.23 62.58 33.19 62.42 34.15 61.61 35.11 59.58 36.08 56.73 37.04 53.59 38 50.55 38.96 47.84 39.92 45.68 40.89 44.2 41.85 43.52 42.81 43.67 43.77 44.64 44.73 46.35 45.7 48.68 46.66 51.43 47.62 54.4 48.58 57.23 49.54 59.35 50.51 60.08 51.47 59.63 52.43 59.63 53.39 60.39 54.35 60.28 55.32 58.68 56.28 56.2 57.24 53.46 58.2 50.86 59.16 48.63 60.12 46.96 61.09 45.98 62.05 45.79 63.01 46.42 63.97 47.84 64.93 49.96 65.9 52.65 66.86 55.71 67.82 58.92 68.78 62 69.74 64.55 70.71 66.2 71.67 67 72.63 67.48 73.59 67.63 74.55 66.92 75.52 65.3 76.48 63.15 77.44 60.86 78.4 58.71 79.36 56.92 80.33 55.67 81.29 55.05 82.25 55.14 83.21 55.94 84.17 57.42 85.14 59.5 86.1 62.05 87.06 64.93 88.02 67.95 88.98 70.88 89.95 73.45 90.91 75.35 91.87 76.43 92.83 76.83 93.79 76.53 94.76 75.3 95.72 73.32 96.68 70.93 97.64 68.35 98.6 65.65 99.57 62.69 100.53 59.32 101.49 55.86 102.45 53.69 103.41 54.26 104.37 57.3 105.34 61.27 106.3 65.09 107.26 68.52 108.22 71.66 109.18 74.54 110.15 77.05 111.11 78.87 112.07 79.63 113.03 79.47" id="img-cc7d55d1-35"/>
      </g>
    </g>
  </g>
</g>
  <g class="guide ylabels" font-size="2.82" font-family="'PT Sans Caption','Helvetica Neue','Helvetica',sans-serif" fill="#6C606B" id="img-cc7d55d1-36">
    <text x="13.84" y="80.31" text-anchor="end" dy="0.35em" id="img-cc7d55d1-37">0</text>
    <text x="13.84" y="61.99" text-anchor="end" dy="0.35em" id="img-cc7d55d1-38">2</text>
    <text x="13.84" y="43.66" text-anchor="end" dy="0.35em" id="img-cc7d55d1-39">4</text>
    <text x="13.84" y="25.33" text-anchor="end" dy="0.35em" id="img-cc7d55d1-40">6</text>
    <text x="13.84" y="7" text-anchor="end" dy="0.35em" id="img-cc7d55d1-41">8</text>
  </g>
  <g font-size="3.88" font-family="'PT Sans','Helvetica Neue','Helvetica',sans-serif" fill="#564A55" stroke="#000000" stroke-opacity="0.000" id="img-cc7d55d1-42">
    <text x="9.16" y="43.66" text-anchor="end" dy="0.35em" id="img-cc7d55d1-43">Y</text>
  </g>
</g>
<defs>
  <clipPath id="img-cc7d55d1-15">
  <path d="M14.84,5 L 115.03 5 115.03 82.32 14.84 82.32" />
</clipPath>
</defs>
</svg>
