<?xml version="1.0" encoding="UTF-8"?>
<svg xmlns="http://www.w3.org/2000/svg"
     xmlns:xlink="http://www.w3.org/1999/xlink"
     xmlns:gadfly="http://www.gadflyjl.org/ns"
     version="1.2"
     width="152.4mm" height="101.6mm" viewBox="0 0 152.4 101.6"
     stroke="none"
     fill="#000000"
     stroke-width="0.3"
     font-size="3.88"
>
<g class="plotroot xscalable yscalable" id="img-399eba2e-1">
  <g font-size="3.88" font-family="'PT Sans','Helvetica Neue','Helvetica',sans-serif" fill="#564A55" stroke="#000000" stroke-opacity="0.000" id="img-399eba2e-2">
    <text x="66.94" y="89.99" text-anchor="middle" dy="0.6em">X</text>
  </g>
  <g class="guide xlabels" font-size="2.82" font-family="'PT Sans Caption','Helvetica Neue','Helvetica',sans-serif" fill="#6C606B" id="img-399eba2e-3">
    <text x="20.86" y="83.32" text-anchor="middle" dy="0.6em">0</text>
    <text x="66.94" y="83.32" text-anchor="middle" dy="0.6em">50</text>
    <text x="113.03" y="83.32" text-anchor="middle" dy="0.6em">100</text>
  </g>
  <g class="guide colorkey" id="img-399eba2e-4">
    <g fill="#4C404B" font-size="2.82" font-family="'PT Sans','Helvetica Neue','Helvetica',sans-serif" id="img-399eba2e-5">
      <text x="118.85" y="41.84" dy="0.35em" id="img-399eba2e-6" class="color_Signal_1">Signal 1</text>
      <text x="118.85" y="45.47" dy="0.35em" id="img-399eba2e-7" class="color_Signal_2">Signal 2</text>
      <text x="118.85" y="49.1" dy="0.35em" id="img-399eba2e-8" class="color_Signal_3">Signal 3</text>
    </g>
    <g stroke="#000000" stroke-opacity="0.000" id="img-399eba2e-9">
      <rect x="116.03" y="40.94" width="1.81" height="1.81" id="img-399eba2e-10" class="color_Signal_1" fill="#00BFFF"/>
      <rect x="116.03" y="44.56" width="1.81" height="1.81" id="img-399eba2e-11" class="color_Signal_2" fill="#D4CA3A"/>
      <rect x="116.03" y="48.19" width="1.81" height="1.81" id="img-399eba2e-12" class="color_Signal_3" fill="#FF6DAE"/>
    </g>
    <g fill="#362A35" font-size="3.88" font-family="'PT Sans','Helvetica Neue','Helvetica',sans-serif" stroke="#000000" stroke-opacity="0.000" id="img-399eba2e-13">
      <text x="116.03" y="38.02" id="img-399eba2e-14">Reproduced signals</text>
    </g>
  </g>
<g clip-path="url(#img-399eba2e-15)">
  <g id="img-399eba2e-16">
    <g pointer-events="visible" opacity="1" fill="#000000" fill-opacity="0.000" stroke="#000000" stroke-opacity="0.000" class="guide background" id="img-399eba2e-17">
      <rect x="18.86" y="5" width="96.18" height="77.32" id="img-399eba2e-18"/>
    </g>
    <g class="guide ygridlines xfixed" stroke-dasharray="0.5,0.5" stroke-width="0.2" stroke="#D0D0E0" id="img-399eba2e-19">
      <path fill="none" d="M18.86,80.32 L 115.03 80.32" id="img-399eba2e-20"/>
      <path fill="none" d="M18.86,61.99 L 115.03 61.99" id="img-399eba2e-21"/>
      <path fill="none" d="M18.86,43.66 L 115.03 43.66" id="img-399eba2e-22"/>
      <path fill="none" d="M18.86,25.33 L 115.03 25.33" id="img-399eba2e-23"/>
      <path fill="none" d="M18.86,7 L 115.03 7" id="img-399eba2e-24"/>
    </g>
    <g class="guide xgridlines yfixed" stroke-dasharray="0.5,0.5" stroke-width="0.2" stroke="#D0D0E0" id="img-399eba2e-25">
      <path fill="none" d="M20.86,5 L 20.86 82.32" id="img-399eba2e-26"/>
      <path fill="none" d="M66.94,5 L 66.94 82.32" id="img-399eba2e-27"/>
      <path fill="none" d="M113.03,5 L 113.03 82.32" id="img-399eba2e-28"/>
    </g>
    <g class="plotpanel" id="img-399eba2e-29">
      <g stroke-width="0.3" fill="#000000" fill-opacity="0.000" class="geometry color_Signal_3" stroke-dasharray="none" stroke="#FF6DAE" id="img-399eba2e-30">
        <path fill="none" d="M21.78,55.87 L 22.7 53.15 23.62 50.84 24.54 49.08 25.47 47.98 26.39 47.6 27.31 47.91 28.23 48.85 29.15 50.27 30.07 52 31 53.85 31.92 55.6 32.84 57.06 33.76 58.05 34.68 58.44 35.6 58.17 36.53 57.21 37.45 55.62 38.37 53.51 39.29 51.04 40.21 48.39 41.14 45.78 42.06 43.41 42.98 41.48 43.9 40.14 44.82 39.49 45.74 39.57 46.67 40.37 47.59 41.8 48.51 43.72 49.43 45.97 50.35 48.33 51.27 50.6 52.2 52.58 53.12 54.09 54.04 55.01 54.96 55.27 55.88 54.85 56.81 53.81 57.73 52.26 58.65 50.36 59.57 48.3 60.49 46.29 61.41 44.54 62.34 43.23 63.26 42.51 64.18 42.47 65.1 43.16 66.02 44.56 66.94 46.57 67.87 49.05 68.79 51.84 69.71 54.71 70.63 57.47 71.55 59.9 72.48 61.84 73.4 63.17 74.32 63.81 75.24 63.75 76.16 63.06 77.08 61.84 78.01 60.26 78.93 58.5 79.85 56.78 80.77 55.29 81.69 54.24 82.61 53.75 83.54 53.92 84.46 54.8 85.38 56.34 86.3 58.47 87.22 61.03 88.15 63.84 89.07 66.71 89.99 69.42 90.91 71.76 91.83 73.58 92.75 74.74 93.68 75.19 94.6 74.92 95.52 73.98 96.44 72.5 97.36 70.64 98.28 68.59 99.21 66.56 100.13 64.76 101.05 63.37 101.97 62.53 102.89 62.34 103.81 62.82 104.74 63.95 105.66 65.64 106.58 67.73 107.5 70.06 108.42 72.4 109.35 74.56 110.27 76.34 111.19 77.57 112.11 77.7 113.03 77.7" id="img-399eba2e-31"/>
      </g>
      <g stroke-width="0.3" fill="#000000" fill-opacity="0.000" class="geometry color_Signal_2" stroke-dasharray="none" stroke="#D4CA3A" id="img-399eba2e-32">
        <path fill="none" d="M21.78,46.03 L 22.7 41.77 23.62 38.13 24.54 35.37 25.47 33.65 26.39 33.05 27.31 33.54 28.23 35.01 29.15 37.24 30.07 39.96 31 42.86 31.92 45.62 32.84 47.9 33.76 49.46 34.68 50.08 35.6 49.64 36.53 48.14 37.45 45.65 38.37 42.33 39.29 38.44 40.21 34.29 41.14 30.19 42.06 26.48 42.98 23.45 43.9 21.34 44.82 20.32 45.74 20.45 46.67 21.7 47.59 23.94 48.51 26.96 49.43 30.49 50.35 34.2 51.27 37.76 52.2 40.87 53.12 43.24 54.04 44.68 54.96 45.09 55.88 44.43 56.81 42.8 57.73 40.37 58.65 37.39 59.57 34.16 60.49 31 61.41 28.25 62.34 26.19 63.26 25.05 64.18 25 65.1 26.09 66.02 28.27 66.94 31.43 67.87 35.33 68.79 39.7 69.71 44.22 70.63 48.54 71.55 52.36 72.48 55.41 73.4 57.49 74.32 58.49 75.24 58.41 76.16 57.32 77.08 55.41 78.01 52.92 78.93 50.16 79.85 47.46 80.77 45.13 81.69 43.47 82.61 42.7 83.54 42.98 84.46 44.35 85.38 46.78 86.3 50.11 87.22 54.13 88.15 58.55 89.07 63.06 89.99 67.3 90.91 70.99 91.83 73.84 92.75 75.67 93.68 76.37 94.6 75.94 95.52 74.47 96.44 72.15 97.36 69.23 98.28 66.01 99.21 62.82 100.13 59.99 101.05 57.81 101.97 56.49 102.89 56.19 103.81 56.95 104.74 58.72 105.66 61.37 106.58 64.66 107.5 68.31 108.42 71.99 109.35 75.38 110.27 78.17 111.19 80.1 112.11 80.32 113.03 80.32" id="img-399eba2e-33"/>
      </g>
      <g stroke-width="0.3" fill="#000000" fill-opacity="0.000" class="geometry color_Signal_1" stroke-dasharray="none" stroke="#00BFFF" id="img-399eba2e-34">
        <path fill="none" d="M21.78,63.68 L 22.7 61.74 23.62 60.09 24.54 58.83 25.47 58.05 26.39 57.77 27.31 58 28.23 58.66 29.15 59.68 30.07 60.92 31 62.24 31.92 63.49 32.84 64.53 33.76 65.24 34.68 65.52 35.6 65.33 36.53 64.64 37.45 63.51 38.37 62 39.29 60.23 40.21 58.34 41.14 56.47 42.06 54.78 42.98 53.4 43.9 52.44 44.82 51.98 45.74 52.04 46.67 52.61 47.59 53.63 48.51 55 49.43 56.61 50.35 58.3 51.27 59.92 52.2 61.33 53.12 62.41 54.04 63.07 54.96 63.25 55.88 62.95 56.81 62.21 57.73 61.11 58.65 59.75 59.57 58.28 60.49 56.84 61.41 55.59 62.34 54.65 63.26 54.13 64.18 54.11 65.1 54.6 66.02 55.6 66.94 57.04 67.87 58.81 68.79 60.8 69.71 62.86 70.63 64.82 71.55 66.56 72.48 67.95 73.4 68.9 74.32 69.36 75.24 69.32 76.16 68.82 77.08 67.95 78.01 66.82 78.93 65.56 79.85 64.33 80.77 63.27 81.69 62.52 82.61 62.17 83.54 62.29 84.46 62.92 85.38 64.02 86.3 65.54 87.22 67.37 88.15 69.38 89.07 71.43 89.99 73.37 90.91 75.04 91.83 76.34 92.75 77.17 93.68 77.49 94.6 77.3 95.52 76.63 96.44 75.57 97.36 74.24 98.28 72.78 99.21 71.33 100.13 70.04 101.05 69.04 101.97 68.44 102.89 68.31 103.81 68.65 104.74 69.46 105.66 70.66 106.58 72.16 107.5 73.82 108.42 75.5 109.35 77.04 110.27 78.31 111.19 79.19 112.11 79.29 113.03 79.29" id="img-399eba2e-35"/>
      </g>
    </g>
  </g>
</g>
  <g class="guide ylabels" font-size="2.82" font-family="'PT Sans Caption','Helvetica Neue','Helvetica',sans-serif" fill="#6C606B" id="img-399eba2e-36">
    <text x="17.86" y="80.32" text-anchor="end" dy="0.35em" id="img-399eba2e-37">0.0</text>
    <text x="17.86" y="61.99" text-anchor="end" dy="0.35em" id="img-399eba2e-38">2.5</text>
    <text x="17.86" y="43.66" text-anchor="end" dy="0.35em" id="img-399eba2e-39">5.0</text>
    <text x="17.86" y="25.33" text-anchor="end" dy="0.35em" id="img-399eba2e-40">7.5</text>
    <text x="17.86" y="7" text-anchor="end" dy="0.35em" id="img-399eba2e-41">10.0</text>
  </g>
  <g font-size="3.88" font-family="'PT Sans','Helvetica Neue','Helvetica',sans-serif" fill="#564A55" stroke="#000000" stroke-opacity="0.000" id="img-399eba2e-42">
    <text x="9.16" y="43.66" text-anchor="end" dy="0.35em" id="img-399eba2e-43">Y</text>
  </g>
</g>
<defs>
  <clipPath id="img-399eba2e-15">
  <path d="M18.86,5 L 115.03 5 115.03 82.32 18.86 82.32" />
</clipPath>
</defs>
</svg>
