<?xml version="1.0" encoding="UTF-8"?>
<svg xmlns="http://www.w3.org/2000/svg"
     xmlns:xlink="http://www.w3.org/1999/xlink"
     xmlns:gadfly="http://www.gadflyjl.org/ns"
     version="1.2"
     width="152.4mm" height="101.6mm" viewBox="0 0 152.4 101.6"
     stroke="none"
     fill="#000000"
     stroke-width="0.3"
     font-size="3.88"
>
<g class="plotroot xscalable yscalable" id="img-97718aae-1">
  <g font-size="3.88" font-family="'PT Sans','Helvetica Neue','Helvetica',sans-serif" fill="#564A55" stroke="#000000" stroke-opacity="0.000" id="img-97718aae-2">
    <text x="69.74" y="89.99" text-anchor="middle" dy="0.6em">X</text>
  </g>
  <g class="guide xlabels" font-size="2.82" font-family="'PT Sans Caption','Helvetica Neue','Helvetica',sans-serif" fill="#6C606B" id="img-97718aae-3">
    <text x="16.84" y="83.32" text-anchor="middle" dy="0.6em">0</text>
    <text x="69.74" y="83.32" text-anchor="middle" dy="0.6em">50</text>
    <text x="122.64" y="83.32" text-anchor="middle" dy="0.6em">100</text>
  </g>
  <g class="guide colorkey" id="img-97718aae-4">
    <g fill="#4C404B" font-size="2.82" font-family="'PT Sans','Helvetica Neue','Helvetica',sans-serif" id="img-97718aae-5">
      <text x="128.45" y="40.03" dy="0.35em" id="img-97718aae-6" class="color_Signal_1">Signal 1</text>
      <text x="128.45" y="43.66" dy="0.35em" id="img-97718aae-7" class="color_Signal_2">Signal 2</text>
      <text x="128.45" y="47.28" dy="0.35em" id="img-97718aae-8" class="color_Signal_3">Signal 3</text>
      <text x="128.45" y="50.91" dy="0.35em" id="img-97718aae-9" class="color_Signal_4">Signal 4</text>
    </g>
    <g stroke="#000000" stroke-opacity="0.000" id="img-97718aae-10">
      <rect x="125.64" y="39.12" width="1.81" height="1.81" id="img-97718aae-11" fill="#00BFFF" class="color_Signal_1"/>
      <rect x="125.64" y="42.75" width="1.81" height="1.81" id="img-97718aae-12" fill="#D4CA3A" class="color_Signal_2"/>
      <rect x="125.64" y="46.38" width="1.81" height="1.81" id="img-97718aae-13" fill="#FF6DAE" class="color_Signal_3"/>
      <rect x="125.64" y="50" width="1.81" height="1.81" id="img-97718aae-14" fill="#00B78D" class="color_Signal_4"/>
    </g>
    <g fill="#362A35" font-size="3.88" font-family="'PT Sans','Helvetica Neue','Helvetica',sans-serif" stroke="#000000" stroke-opacity="0.000" id="img-97718aae-15">
      <text x="125.64" y="36.21" id="img-97718aae-16">Mixed signals</text>
    </g>
  </g>
<g clip-path="url(#img-97718aae-17)">
  <g id="img-97718aae-18">
    <g pointer-events="visible" opacity="1" fill="#000000" fill-opacity="0.000" stroke="#000000" stroke-opacity="0.000" class="guide background" id="img-97718aae-19">
      <rect x="14.84" y="5" width="109.8" height="77.32" id="img-97718aae-20"/>
    </g>
    <g class="guide ygridlines xfixed" stroke-dasharray="0.5,0.5" stroke-width="0.2" stroke="#D0D0E0" id="img-97718aae-21">
      <path fill="none" d="M14.84,80.32 L 124.64 80.32" id="img-97718aae-22"/>
      <path fill="none" d="M14.84,55.88 L 124.64 55.88" id="img-97718aae-23"/>
      <path fill="none" d="M14.84,31.44 L 124.64 31.44" id="img-97718aae-24"/>
      <path fill="none" d="M14.84,7 L 124.64 7" id="img-97718aae-25"/>
    </g>
    <g class="guide xgridlines yfixed" stroke-dasharray="0.5,0.5" stroke-width="0.2" stroke="#D0D0E0" id="img-97718aae-26">
      <path fill="none" d="M16.84,5 L 16.84 82.32" id="img-97718aae-27"/>
      <path fill="none" d="M69.74,5 L 69.74 82.32" id="img-97718aae-28"/>
      <path fill="none" d="M122.64,5 L 122.64 82.32" id="img-97718aae-29"/>
    </g>
    <g class="plotpanel" id="img-97718aae-30">
      <g stroke-width="0.3" fill="#000000" fill-opacity="0.000" class="geometry color_Signal_4" stroke-dasharray="none" stroke="#00B78D" id="img-97718aae-31">
        <path fill="none" d="M17.89,35.82 L 18.95 28.64 20.01 22.69 21.07 18.45 22.13 16.26 23.18 16.25 24.24 18.37 25.3 22.39 26.36 27.9 27.42 34.35 28.47 41.13 29.53 47.57 30.59 53.07 31.65 57.09 32.71 59.22 33.77 59.24 34.82 57.1 35.88 52.97 36.94 47.18 38 40.2 39.06 32.65 40.11 25.15 41.17 18.37 42.23 12.87 43.29 9.14 44.35 7.48 45.4 8.03 46.46 10.73 47.52 15.33 48.58 21.4 49.64 28.4 50.69 35.7 51.75 42.66 52.81 48.64 53.87 53.13 54.93 55.73 55.98 56.22 57.04 54.56 58.1 50.93 59.16 45.66 60.22 39.25 61.27 32.29 62.33 25.43 63.39 19.31 64.45 14.51 65.51 11.48 66.56 10.54 67.62 11.8 68.68 15.2 69.74 20.45 70.8 27.15 71.85 34.73 72.91 42.55 73.97 49.98 75.03 56.39 76.09 61.25 77.14 64.19 78.2 64.99 79.26 63.63 80.32 60.29 81.38 55.3 82.43 49.19 83.49 42.53 84.55 35.98 85.61 30.18 86.67 25.7 87.72 22.99 88.78 22.35 89.84 23.88 90.9 27.5 91.96 32.93 93.01 39.75 94.07 47.38 95.13 55.2 96.19 62.55 97.25 68.81 98.3 73.48 99.36 76.18 100.42 76.7 101.48 75.04 102.54 71.37 103.59 66.07 104.65 59.63 105.71 52.66 106.77 45.82 107.83 39.73 108.88 34.96 109.94 31.96 111 31.02 112.06 32.23 113.12 35.5 114.17 40.54 115.23 46.92 116.29 54.06 117.35 61.34 118.41 68.09 119.47 73.72 120.52 77.72 121.58 79.71 122.64 79.52" id="img-97718aae-32"/>
      </g>
      <g stroke-width="0.3" fill="#000000" fill-opacity="0.000" class="geometry color_Signal_3" stroke-dasharray="none" stroke="#FF6DAE" id="img-97718aae-33">
        <path fill="none" d="M17.89,38.19 L 18.95 32.92 20.01 28.03 21.07 23.7 22.13 20.07 23.18 17.27 24.24 15.38 25.3 14.47 26.36 14.54 27.42 15.58 28.47 17.51 29.53 20.25 30.59 23.66 31.65 27.6 32.71 31.88 33.77 36.32 34.82 40.72 35.88 44.9 36.94 48.67 38 51.87 39.06 54.36 40.11 56.02 41.17 56.79 42.23 56.61 43.29 55.5 44.35 53.47 45.4 50.62 46.46 47.04 47.52 42.88 48.58 38.3 49.64 33.47 50.69 28.6 51.75 23.86 52.81 19.46 53.87 15.58 54.93 12.36 55.98 9.95 57.04 8.44 58.1 7.9 59.16 8.37 60.22 9.82 61.27 12.22 62.33 15.48 63.39 19.48 64.45 24.08 65.51 29.1 66.56 34.36 67.62 39.66 68.68 44.82 69.74 49.64 70.8 53.95 71.85 57.59 72.91 60.44 73.97 62.41 75.03 63.43 76.09 63.49 77.14 62.61 78.2 60.84 79.26 58.28 80.32 55.05 81.38 51.29 82.43 47.2 83.49 42.94 84.55 38.71 85.61 34.71 86.67 31.12 87.72 28.09 88.78 25.78 89.84 24.3 90.9 23.73 91.96 24.12 93.01 25.47 94.07 27.74 95.13 30.87 96.19 34.75 97.25 39.25 98.3 44.2 99.36 49.43 100.42 54.74 101.48 59.94 102.54 64.84 103.59 69.25 104.65 73.02 105.71 76 106.77 78.09 107.83 79.21 108.88 79.34 109.94 78.47 111 76.65 112.06 73.95 113.12 70.5 114.17 66.42 115.23 61.89 116.29 57.09 117.35 52.21 118.41 47.44 119.47 42.98 120.52 39 121.58 35.65 122.64 33.06" id="img-97718aae-34"/>
      </g>
      <g stroke-width="0.3" fill="#000000" fill-opacity="0.000" class="geometry color_Signal_2" stroke-dasharray="none" stroke="#D4CA3A" id="img-97718aae-35">
        <path fill="none" d="M17.89,34.01 L 18.95 25.1 20.01 17.61 21.07 12.11 22.13 9 23.18 8.47 24.24 10.52 25.3 14.94 26.36 21.31 27.42 29.1 28.47 37.63 29.53 46.22 30.59 54.17 31.65 60.86 32.71 65.82 33.77 68.72 34.82 69.41 35.88 67.95 36.94 64.59 38 59.73 39.06 53.9 40.11 47.67 41.17 41.66 42.23 36.43 43.29 32.45 44.35 30.05 45.4 29.4 46.46 30.49 47.52 33.13 48.58 37 49.64 41.63 50.69 46.49 51.75 51.03 52.81 54.72 53.87 57.13 54.93 57.93 55.98 56.98 57.04 54.3 58.1 50.08 59.16 44.68 60.22 38.6 61.27 32.39 62.33 26.68 63.39 22.04 64.45 18.98 65.51 17.87 66.56 18.93 67.62 22.19 68.68 27.47 69.74 34.41 70.8 42.51 71.85 51.14 72.91 59.6 73.97 67.19 75.03 73.27 76.09 77.31 77.14 78.94 78.2 77.97 79.26 74.43 80.32 68.57 81.38 60.8 82.43 51.72 83.49 42.01 84.55 32.44 85.61 23.73 86.67 16.54 87.72 11.42 88.78 8.73 89.84 8.64 90.9 11.11 91.96 15.88 93.01 22.54 94.07 30.5 95.13 39.09 96.19 47.62 97.25 55.4 98.3 61.83 99.36 66.46 100.42 68.99 101.48 69.31 102.54 67.51 103.59 63.87 104.65 58.8 105.71 52.86 106.77 46.63 107.83 40.72 108.88 35.67 109.94 31.93 111 29.82 112.06 29.46 113.12 30.83 114.17 33.71 115.23 37.74 116.29 42.45 117.35 47.29 118.41 51.73 119.47 55.23 120.52 57.38 121.58 57.9 122.64 56.65" id="img-97718aae-36"/>
      </g>
      <g stroke-width="0.3" fill="#000000" fill-opacity="0.000" class="geometry color_Signal_1" stroke-dasharray="none" stroke="#00BFFF" id="img-97718aae-37">
        <path fill="none" d="M17.89,37.01 L 18.95 30.78 20.01 25.36 21.07 21.08 22.13 18.16 23.18 16.76 24.24 16.88 25.3 18.43 26.36 21.22 27.42 24.96 28.47 29.32 29.53 33.91 30.59 38.37 31.65 42.34 32.71 45.55 33.77 47.78 34.82 48.91 35.88 48.94 36.94 47.92 38 46.04 39.06 43.5 40.11 40.59 41.17 37.58 42.23 34.74 43.29 32.32 44.35 30.48 45.4 29.33 46.46 28.89 47.52 29.1 48.58 29.85 49.64 30.94 50.69 32.15 51.75 33.26 52.81 34.05 53.87 34.36 54.93 34.05 55.98 33.08 57.04 31.5 58.1 29.42 59.16 27.01 60.22 24.54 61.27 22.26 62.33 20.46 63.39 19.4 64.45 19.29 65.51 20.29 66.56 22.45 67.62 25.73 68.68 30.01 69.74 35.05 70.8 40.55 71.85 46.16 72.91 51.5 73.97 56.19 75.03 59.91 76.09 62.37 77.14 63.4 78.2 62.92 79.26 60.96 80.32 57.67 81.38 53.3 82.43 48.19 83.49 42.73 84.55 37.35 85.61 32.45 86.67 28.41 87.72 25.54 88.78 24.07 89.84 24.09 90.9 25.62 91.96 28.53 93.01 32.61 94.07 37.56 95.13 43.03 96.19 48.65 97.25 54.03 98.3 58.84 99.36 62.8 100.42 65.72 101.48 67.49 102.54 68.1 103.59 67.66 104.65 66.32 105.71 64.33 106.77 61.95 107.83 59.47 108.88 57.15 109.94 55.22 111 53.84 112.06 53.09 113.12 53 114.17 53.48 115.23 54.4 116.29 55.57 117.35 56.77 118.41 57.77 119.47 58.35 120.52 58.36 121.58 57.68 122.64 56.29" id="img-97718aae-38"/>
      </g>
    </g>
  </g>
</g>
  <g class="guide ylabels" font-size="2.82" font-family="'PT Sans Caption','Helvetica Neue','Helvetica',sans-serif" fill="#6C606B" id="img-97718aae-39">
    <text x="13.84" y="80.32" text-anchor="end" dy="0.35em" id="img-97718aae-40">0</text>
    <text x="13.84" y="55.88" text-anchor="end" dy="0.35em" id="img-97718aae-41">1</text>
    <text x="13.84" y="31.44" text-anchor="end" dy="0.35em" id="img-97718aae-42">2</text>
    <text x="13.84" y="7" text-anchor="end" dy="0.35em" id="img-97718aae-43">3</text>
  </g>
  <g font-size="3.88" font-family="'PT Sans','Helvetica Neue','Helvetica',sans-serif" fill="#564A55" stroke="#000000" stroke-opacity="0.000" id="img-97718aae-44">
    <text x="9.16" y="43.66" text-anchor="end" dy="0.35em" id="img-97718aae-45">Y</text>
  </g>
</g>
<defs>
  <clipPath id="img-97718aae-17">
  <path d="M14.84,5 L 124.64 5 124.64 82.32 14.84 82.32" />
</clipPath>
</defs>
</svg>
