<?xml version="1.0" encoding="UTF-8"?>
<svg xmlns="http://www.w3.org/2000/svg"
     xmlns:xlink="http://www.w3.org/1999/xlink"
     xmlns:gadfly="http://www.gadflyjl.org/ns"
     version="1.2"
     width="152.4mm" height="101.6mm" viewBox="0 0 152.4 101.6"
     stroke="none"
     fill="#000000"
     stroke-width="0.3"
     font-size="3.88"
>
<g class="plotroot xscalable yscalable" id="img-2af9ac47-1">
  <g font-size="3.88" font-family="'PT Sans','Helvetica Neue','Helvetica',sans-serif" fill="#564A55" stroke="#000000" stroke-opacity="0.000" id="img-2af9ac47-2">
    <text x="64.93" y="89.99" text-anchor="middle" dy="0.6em">X</text>
  </g>
  <g class="guide xlabels" font-size="2.82" font-family="'PT Sans Caption','Helvetica Neue','Helvetica',sans-serif" fill="#6C606B" id="img-2af9ac47-3">
    <text x="16.84" y="83.32" text-anchor="middle" dy="0.6em">0</text>
    <text x="64.93" y="83.32" text-anchor="middle" dy="0.6em">50</text>
    <text x="113.03" y="83.32" text-anchor="middle" dy="0.6em">100</text>
  </g>
  <g class="guide colorkey" id="img-2af9ac47-4">
    <g fill="#4C404B" font-size="2.82" font-family="'PT Sans','Helvetica Neue','Helvetica',sans-serif" id="img-2af9ac47-5">
      <text x="118.85" y="41.84" dy="0.35em" id="img-2af9ac47-6" class="color_Signal_1">Signal 1</text>
      <text x="118.85" y="45.47" dy="0.35em" id="img-2af9ac47-7" class="color_Signal_2">Signal 2</text>
      <text x="118.85" y="49.1" dy="0.35em" id="img-2af9ac47-8" class="color_Signal_3">Signal 3</text>
    </g>
    <g stroke="#000000" stroke-opacity="0.000" id="img-2af9ac47-9">
      <rect x="116.03" y="40.94" width="1.81" height="1.81" id="img-2af9ac47-10" fill="#00BFFF" class="color_Signal_1"/>
      <rect x="116.03" y="44.56" width="1.81" height="1.81" id="img-2af9ac47-11" fill="#D4CA3A" class="color_Signal_2"/>
      <rect x="116.03" y="48.19" width="1.81" height="1.81" id="img-2af9ac47-12" fill="#FF6DAE" class="color_Signal_3"/>
    </g>
    <g fill="#362A35" font-size="3.88" font-family="'PT Sans','Helvetica Neue','Helvetica',sans-serif" stroke="#000000" stroke-opacity="0.000" id="img-2af9ac47-13">
      <text x="116.03" y="38.02" id="img-2af9ac47-14">Reproduced signals</text>
    </g>
  </g>
<g clip-path="url(#img-2af9ac47-15)">
  <g id="img-2af9ac47-16">
    <g pointer-events="visible" opacity="1" fill="#000000" fill-opacity="0.000" stroke="#000000" stroke-opacity="0.000" class="guide background" id="img-2af9ac47-17">
      <rect x="14.84" y="5" width="100.2" height="77.32" id="img-2af9ac47-18"/>
    </g>
    <g class="guide ygridlines xfixed" stroke-dasharray="0.5,0.5" stroke-width="0.2" stroke="#D0D0E0" id="img-2af9ac47-19">
      <path fill="none" d="M14.84,80.31 L 115.03 80.31" id="img-2af9ac47-20"/>
      <path fill="none" d="M14.84,61.99 L 115.03 61.99" id="img-2af9ac47-21"/>
      <path fill="none" d="M14.84,43.66 L 115.03 43.66" id="img-2af9ac47-22"/>
      <path fill="none" d="M14.84,25.33 L 115.03 25.33" id="img-2af9ac47-23"/>
      <path fill="none" d="M14.84,7 L 115.03 7" id="img-2af9ac47-24"/>
    </g>
    <g class="guide xgridlines yfixed" stroke-dasharray="0.5,0.5" stroke-width="0.2" stroke="#D0D0E0" id="img-2af9ac47-25">
      <path fill="none" d="M16.84,5 L 16.84 82.32" id="img-2af9ac47-26"/>
      <path fill="none" d="M64.93,5 L 64.93 82.32" id="img-2af9ac47-27"/>
      <path fill="none" d="M113.03,5 L 113.03 82.32" id="img-2af9ac47-28"/>
    </g>
    <g class="plotpanel" id="img-2af9ac47-29">
      <g stroke-width="0.3" fill="#000000" fill-opacity="0.000" class="geometry color_Signal_3" stroke-dasharray="none" stroke="#FF6DAE" id="img-2af9ac47-30">
        <path fill="none" d="M17.8,46.47 L 18.76 40.98 19.72 36.45 20.68 33.24 21.65 31.59 22.61 31.61 23.57 33.27 24.53 36.37 25.49 40.62 26.46 45.65 27.42 51.04 28.38 56.41 29.34 61.37 30.3 65.46 31.27 67.98 32.23 68.28 33.19 66.16 34.15 62.03 35.11 56.68 36.08 50.74 37.04 44.64 38 38.77 38.96 33.54 39.92 29.33 40.89 26.49 41.85 25.23 42.81 25.65 43.77 27.71 44.73 31.23 45.7 35.91 46.66 41.39 47.62 47.27 48.58 53.17 49.54 58.74 50.51 63.44 51.47 66.42 52.43 66.9 53.39 64.78 54.35 60.72 55.32 55.61 56.28 50.02 57.24 44.35 58.2 38.95 59.16 34.21 60.12 30.52 61.09 28.2 62.05 27.47 63.01 28.42 63.97 30.99 64.93 34.99 65.9 40.12 66.86 45.97 67.82 52.13 68.78 58.16 69.74 63.63 70.71 67.99 71.67 70.6 72.63 71.11 73.59 69.58 74.55 66.33 75.52 61.94 76.48 56.9 77.44 51.62 78.4 46.51 79.36 42 80.33 38.5 81.29 36.35 82.25 35.78 83.21 36.91 84.17 39.66 85.14 43.83 86.1 49.07 87.06 54.94 88.02 60.98 88.98 66.71 89.95 71.66 90.91 75.34 91.87 77.33 92.83 77.65 93.79 76.37 94.76 73.44 95.72 69.21 96.68 64.17 97.64 58.79 98.6 53.54 99.57 48.99 100.53 45.7 101.49 43.93 102.45 43.5 103.41 44.41 104.37 46.64 105.34 50.1 106.3 54.69 107.26 60.02 108.22 65.54 109.18 70.74 110.15 75.17 111.11 78.3 112.07 79.66 113.03 79.52" id="img-2af9ac47-31"/>
      </g>
      <g stroke-width="0.3" fill="#000000" fill-opacity="0.000" class="geometry color_Signal_2" stroke-dasharray="none" stroke="#D4CA3A" id="img-2af9ac47-32">
        <path fill="none" d="M17.8,39.88 L 18.76 36.19 19.72 32.92 20.68 30.25 21.65 28.3 22.61 27.12 23.57 26.71 24.53 27.02 25.49 27.91 26.46 29.18 27.42 30.61 28.38 31.97 29.34 33.04 30.3 33.67 31.27 33.69 32.23 32.9 33.19 31.25 34.15 28.91 35.11 26.07 36.08 22.89 37.04 19.55 38 16.28 38.96 13.3 39.92 10.85 40.89 9.09 41.85 8.15 42.81 8.07 43.77 8.83 44.73 10.34 45.7 12.45 46.66 14.94 47.62 17.6 48.58 20.17 49.54 22.49 50.51 24.38 51.47 25.69 52.43 26.18 53.39 25.81 54.35 24.79 55.32 23.29 56.28 21.48 57.24 19.52 58.2 17.64 59.16 16.07 60.12 15.03 61.09 14.69 62.05 15.16 63.01 16.46 63.97 18.57 64.93 21.39 65.9 24.76 66.86 28.48 67.82 32.31 68.78 36.02 69.74 39.42 70.71 42.34 71.67 44.58 72.63 45.99 73.59 46.55 74.55 46.41 75.52 45.75 76.48 44.74 77.44 43.61 78.4 42.58 79.36 41.89 80.33 41.73 81.29 42.24 82.25 43.43 83.21 45.25 84.17 47.63 85.14 50.49 86.1 53.71 87.06 57.18 88.02 60.69 88.98 64.07 89.95 67.1 90.91 69.63 91.87 71.45 92.83 72.47 93.79 72.7 94.76 72.25 95.72 71.37 96.68 70.33 97.64 69.4 98.6 68.79 99.57 68.21 100.53 66.02 101.49 59.12 102.45 50.08 103.41 50.36 104.37 59.29 105.34 66.62 106.3 70.32 107.26 72.47 108.22 74.28 109.18 76.01 110.15 77.58 111.11 78.77 112.07 79.27 113.03 78.95" id="img-2af9ac47-33"/>
      </g>
      <g stroke-width="0.3" fill="#000000" fill-opacity="0.000" class="geometry color_Signal_1" stroke-dasharray="none" stroke="#00BFFF" id="img-2af9ac47-34">
        <path fill="none" d="M17.8,58.81 L 18.76 55.92 19.72 53.49 20.68 51.69 21.65 50.65 22.61 50.41 23.57 50.97 24.53 52.23 25.49 54.06 26.46 56.27 27.42 58.65 28.38 61.01 29.34 63.16 30.3 64.87 31.27 65.85 32.23 65.8 33.19 64.64 34.15 62.55 35.11 59.89 36.08 56.93 37.04 53.88 38 50.93 38.96 48.28 39.92 46.15 40.89 44.68 41.85 44 42.81 44.14 43.77 45.1 44.73 46.77 45.7 49.02 46.66 51.66 47.62 54.49 48.58 57.31 49.54 59.94 50.51 62.16 51.47 63.58 52.43 63.87 53.39 62.97 54.35 61.19 55.32 58.9 56.28 56.36 57.24 53.76 58.2 51.28 59.16 49.12 60.12 47.48 61.09 46.51 62.05 46.32 63.01 46.96 63.97 48.39 64.93 50.53 65.9 53.21 66.86 56.25 67.82 59.43 68.78 62.53 69.74 65.36 70.71 67.65 71.67 69.13 72.63 69.62 73.59 69.14 74.55 67.86 75.52 66.02 76.48 63.86 77.44 61.58 78.4 59.39 79.36 57.5 80.33 56.11 81.29 55.39 82.25 55.41 83.21 56.23 84.17 57.79 85.14 60 86.1 62.69 87.06 65.69 88.02 68.75 88.98 71.67 89.95 74.22 90.91 76.17 91.87 77.31 92.83 77.65 93.79 77.21 94.76 75.98 95.72 74.16 96.68 71.99 97.64 69.72 98.6 67.56 99.57 65.68 100.53 63.95 101.49 61.83 102.45 59.79 103.41 60.2 104.37 62.92 105.34 65.78 106.3 68.32 107.26 70.83 108.22 73.34 109.18 75.72 110.15 77.76 111.11 79.22 112.07 79.84 113.03 79.72" id="img-2af9ac47-35"/>
      </g>
    </g>
  </g>
</g>
  <g class="guide ylabels" font-size="2.82" font-family="'PT Sans Caption','Helvetica Neue','Helvetica',sans-serif" fill="#6C606B" id="img-2af9ac47-36">
    <text x="13.84" y="80.31" text-anchor="end" dy="0.35em" id="img-2af9ac47-37">0</text>
    <text x="13.84" y="61.99" text-anchor="end" dy="0.35em" id="img-2af9ac47-38">2</text>
    <text x="13.84" y="43.66" text-anchor="end" dy="0.35em" id="img-2af9ac47-39">4</text>
    <text x="13.84" y="25.33" text-anchor="end" dy="0.35em" id="img-2af9ac47-40">6</text>
    <text x="13.84" y="7" text-anchor="end" dy="0.35em" id="img-2af9ac47-41">8</text>
  </g>
  <g font-size="3.88" font-family="'PT Sans','Helvetica Neue','Helvetica',sans-serif" fill="#564A55" stroke="#000000" stroke-opacity="0.000" id="img-2af9ac47-42">
    <text x="9.16" y="43.66" text-anchor="end" dy="0.35em" id="img-2af9ac47-43">Y</text>
  </g>
</g>
<defs>
  <clipPath id="img-2af9ac47-15">
  <path d="M14.84,5 L 115.03 5 115.03 82.32 14.84 82.32" />
</clipPath>
</defs>
</svg>
