<?xml version="1.0" encoding="UTF-8"?>
<svg xmlns="http://www.w3.org/2000/svg"
     xmlns:xlink="http://www.w3.org/1999/xlink"
     xmlns:gadfly="http://www.gadflyjl.org/ns"
     version="1.2"
     width="152.4mm" height="101.6mm" viewBox="0 0 152.4 101.6"
     stroke="none"
     fill="#000000"
     stroke-width="0.3"
     font-size="3.88"
>
<g class="plotroot xscalable yscalable" id="img-ba2e154a-1">
  <g font-size="3.88" font-family="'PT Sans','Helvetica Neue','Helvetica',sans-serif" fill="#564A55" stroke="#000000" stroke-opacity="0.000" id="img-ba2e154a-2">
    <text x="69.74" y="89.99" text-anchor="middle" dy="0.6em">X</text>
  </g>
  <g class="guide xlabels" font-size="2.82" font-family="'PT Sans Caption','Helvetica Neue','Helvetica',sans-serif" fill="#6C606B" id="img-ba2e154a-3">
    <text x="16.84" y="83.32" text-anchor="middle" dy="0.6em">0</text>
    <text x="69.74" y="83.32" text-anchor="middle" dy="0.6em">50</text>
    <text x="122.64" y="83.32" text-anchor="middle" dy="0.6em">100</text>
  </g>
  <g class="guide colorkey" id="img-ba2e154a-4">
    <g fill="#4C404B" font-size="2.82" font-family="'PT Sans','Helvetica Neue','Helvetica',sans-serif" id="img-ba2e154a-5">
      <text x="128.45" y="41.84" dy="0.35em" id="img-ba2e154a-6" class="color_Signal_1">Signal 1</text>
      <text x="128.45" y="45.47" dy="0.35em" id="img-ba2e154a-7" class="color_Signal_2">Signal 2</text>
      <text x="128.45" y="49.1" dy="0.35em" id="img-ba2e154a-8" class="color_Signal_3">Signal 3</text>
    </g>
    <g stroke="#000000" stroke-opacity="0.000" id="img-ba2e154a-9">
      <rect x="125.64" y="40.94" width="1.81" height="1.81" id="img-ba2e154a-10" class="color_Signal_1" fill="#00BFFF"/>
      <rect x="125.64" y="44.56" width="1.81" height="1.81" id="img-ba2e154a-11" class="color_Signal_2" fill="#D4CA3A"/>
      <rect x="125.64" y="48.19" width="1.81" height="1.81" id="img-ba2e154a-12" class="color_Signal_3" fill="#FF6DAE"/>
    </g>
    <g fill="#362A35" font-size="3.88" font-family="'PT Sans','Helvetica Neue','Helvetica',sans-serif" stroke="#000000" stroke-opacity="0.000" id="img-ba2e154a-13">
      <text x="125.64" y="38.02" id="img-ba2e154a-14">Mixed signals</text>
    </g>
  </g>
<g clip-path="url(#img-ba2e154a-15)">
  <g id="img-ba2e154a-16">
    <g pointer-events="visible" opacity="1" fill="#000000" fill-opacity="0.000" stroke="#000000" stroke-opacity="0.000" class="guide background" id="img-ba2e154a-17">
      <rect x="14.84" y="5" width="109.8" height="77.32" id="img-ba2e154a-18"/>
    </g>
    <g class="guide ygridlines xfixed" stroke-dasharray="0.5,0.5" stroke-width="0.2" stroke="#D0D0E0" id="img-ba2e154a-19">
      <path fill="none" d="M14.84,80.31 L 124.64 80.31" id="img-ba2e154a-20"/>
      <path fill="none" d="M14.84,61.99 L 124.64 61.99" id="img-ba2e154a-21"/>
      <path fill="none" d="M14.84,43.66 L 124.64 43.66" id="img-ba2e154a-22"/>
      <path fill="none" d="M14.84,25.33 L 124.64 25.33" id="img-ba2e154a-23"/>
      <path fill="none" d="M14.84,7 L 124.64 7" id="img-ba2e154a-24"/>
    </g>
    <g class="guide xgridlines yfixed" stroke-dasharray="0.5,0.5" stroke-width="0.2" stroke="#D0D0E0" id="img-ba2e154a-25">
      <path fill="none" d="M16.84,5 L 16.84 82.32" id="img-ba2e154a-26"/>
      <path fill="none" d="M69.74,5 L 69.74 82.32" id="img-ba2e154a-27"/>
      <path fill="none" d="M122.64,5 L 122.64 82.32" id="img-ba2e154a-28"/>
    </g>
    <g class="plotpanel" id="img-ba2e154a-29">
      <g stroke-width="0.3" fill="#000000" fill-opacity="0.000" class="geometry color_Signal_3" stroke-dasharray="none" stroke="#FF6DAE" id="img-ba2e154a-30">
        <path fill="none" d="M17.89,46.95 L 18.95 41.56 20.01 37.09 21.07 33.92 22.13 32.27 23.18 32.26 24.24 33.86 25.3 36.87 26.36 41 27.42 45.84 28.47 50.92 29.53 55.76 30.59 59.88 31.65 62.89 32.71 64.49 33.77 64.51 34.82 62.91 35.88 59.81 36.94 55.46 38 50.23 39.06 44.56 40.11 38.94 41.17 33.85 42.23 29.73 43.29 26.93 44.35 25.69 45.4 26.1 46.46 28.13 47.52 31.57 48.58 36.13 49.64 41.38 50.69 46.86 51.75 52.07 52.81 56.56 53.87 59.93 54.93 61.88 55.98 62.24 57.04 61 58.1 58.27 59.16 54.32 60.22 49.51 61.27 44.29 62.33 39.15 63.39 34.56 64.45 30.96 65.51 28.69 66.56 27.99 67.62 28.93 68.68 31.48 69.74 35.42 70.8 40.44 71.85 46.12 72.91 51.99 73.97 57.56 75.03 62.37 76.09 66.02 77.14 68.22 78.2 68.82 79.26 67.8 80.32 65.29 81.38 61.56 82.43 56.97 83.49 51.97 84.55 47.06 85.61 42.71 86.67 39.35 87.72 37.32 88.78 36.84 89.84 37.99 90.9 40.7 91.96 44.78 93.01 49.89 94.07 55.61 95.13 61.48 96.19 66.99 97.25 71.69 98.3 75.19 99.36 77.21 100.42 77.6 101.48 76.36 102.54 73.61 103.59 69.63 104.65 64.8 105.71 59.58 106.77 54.44 107.83 49.88 108.88 46.3 109.94 44.05 111 43.34 112.06 44.25 113.12 46.7 114.17 50.48 115.23 55.27 116.29 60.62 117.35 66.08 118.41 71.15 119.47 75.37 120.52 78.37 121.58 79.86 122.64 79.72" id="img-ba2e154a-31"/>
      </g>
      <g stroke-width="0.3" fill="#000000" fill-opacity="0.000" class="geometry color_Signal_2" stroke-dasharray="none" stroke="#D4CA3A" id="img-ba2e154a-32">
        <path fill="none" d="M17.89,39.58 L 18.95 35.74 20.01 32.37 21.07 29.65 22.13 27.71 23.18 26.61 24.24 26.32 25.3 26.76 26.36 27.78 27.42 29.18 28.47 30.73 29.53 32.19 30.59 33.32 31.65 33.93 32.71 33.88 33.77 33.06 34.82 31.49 35.88 29.2 36.94 26.34 38 23.08 39.06 19.66 40.11 16.3 41.17 13.26 42.23 10.76 43.29 8.97 44.35 8.02 45.4 7.94 46.46 8.73 47.52 10.29 48.58 12.46 49.64 15.03 50.69 17.77 51.75 20.44 52.81 22.81 53.87 24.67 54.93 25.87 55.98 26.34 57.04 26.07 58.1 25.1 59.16 23.58 60.22 21.67 61.27 19.62 62.33 17.65 63.39 16 64.45 14.9 65.51 14.51 66.56 14.94 67.62 16.24 68.68 18.37 69.74 21.24 70.8 24.69 71.85 28.5 72.91 32.43 73.97 36.24 75.03 39.69 76.09 42.58 77.14 44.77 78.2 46.18 79.26 46.79 80.32 46.66 81.38 45.93 82.43 44.78 83.49 43.43 84.55 42.12 85.61 41.08 86.67 40.54 87.72 40.65 88.78 41.52 89.84 43.19 90.9 45.63 91.96 48.73 93.01 52.33 94.07 56.21 95.13 60.12 96.19 63.84 97.25 67.11 98.3 69.75 99.36 71.61 100.42 72.62 101.48 72.76 102.54 72.12 103.59 70.81 104.65 69.03 105.71 67 106.77 64.97 107.83 63.17 108.88 61.82 109.94 61.07 111 61.05 112.06 61.77 113.12 63.21 114.17 65.26 115.23 67.75 116.29 70.47 117.35 73.18 118.41 75.64 119.47 77.63 120.52 78.94 121.58 79.45 122.64 79.08" id="img-ba2e154a-33"/>
      </g>
      <g stroke-width="0.3" fill="#000000" fill-opacity="0.000" class="geometry color_Signal_1" stroke-dasharray="none" stroke="#00BFFF" id="img-ba2e154a-34">
        <path fill="none" d="M17.89,58.82 L 18.95 55.9 20.01 53.44 21.07 51.62 22.13 50.58 23.18 50.35 24.24 50.93 25.3 52.23 26.36 54.08 27.42 56.3 28.47 58.64 29.53 60.87 30.59 62.74 31.65 64.07 32.71 64.7 33.77 64.54 34.82 63.59 35.88 61.89 36.94 59.58 38 56.84 39.06 53.88 40.11 50.96 41.17 48.32 42.23 46.17 43.29 44.69 44.35 44 45.4 44.16 46.46 45.12 47.52 46.81 48.58 49.07 49.64 51.68 50.69 54.42 51.75 57.04 52.81 59.31 53.87 61.03 54.93 62.05 55.98 62.29 57.04 61.74 58.1 60.46 59.16 58.57 60.22 56.27 61.27 53.77 62.33 51.32 63.39 49.15 64.45 47.49 65.51 46.5 66.56 46.31 67.62 46.95 68.68 48.39 69.74 50.54 70.8 53.24 71.85 56.27 72.91 59.41 73.97 62.4 75.03 65.01 76.09 67.05 77.14 68.37 78.2 68.89 79.26 68.6 80.32 67.58 81.38 65.93 82.43 63.87 83.49 61.6 84.55 59.37 85.61 57.43 86.67 55.98 87.72 55.18 88.78 55.17 89.84 55.96 90.9 57.53 91.96 59.78 93.01 62.55 94.07 65.61 95.13 68.74 96.19 71.69 97.25 74.22 98.3 76.15 99.36 77.33 100.42 77.69 101.48 77.22 102.54 75.99 103.59 74.14 104.65 71.85 105.71 69.36 106.77 66.9 107.83 64.71 108.88 63.01 109.94 61.96 111 61.67 112.06 62.18 113.12 63.45 114.17 65.37 115.23 67.78 116.29 70.47 117.35 73.19 118.41 75.71 119.47 77.8 120.52 79.26 121.58 79.96 122.64 79.83" id="img-ba2e154a-35"/>
      </g>
    </g>
  </g>
</g>
  <g class="guide ylabels" font-size="2.82" font-family="'PT Sans Caption','Helvetica Neue','Helvetica',sans-serif" fill="#6C606B" id="img-ba2e154a-36">
    <text x="13.84" y="80.31" text-anchor="end" dy="0.35em" id="img-ba2e154a-37">0</text>
    <text x="13.84" y="61.99" text-anchor="end" dy="0.35em" id="img-ba2e154a-38">2</text>
    <text x="13.84" y="43.66" text-anchor="end" dy="0.35em" id="img-ba2e154a-39">4</text>
    <text x="13.84" y="25.33" text-anchor="end" dy="0.35em" id="img-ba2e154a-40">6</text>
    <text x="13.84" y="7" text-anchor="end" dy="0.35em" id="img-ba2e154a-41">8</text>
  </g>
  <g font-size="3.88" font-family="'PT Sans','Helvetica Neue','Helvetica',sans-serif" fill="#564A55" stroke="#000000" stroke-opacity="0.000" id="img-ba2e154a-42">
    <text x="9.16" y="43.66" text-anchor="end" dy="0.35em" id="img-ba2e154a-43">Y</text>
  </g>
</g>
<defs>
  <clipPath id="img-ba2e154a-15">
  <path d="M14.84,5 L 124.64 5 124.64 82.32 14.84 82.32" />
</clipPath>
</defs>
</svg>
