<?xml version="1.0" encoding="UTF-8"?>
<svg xmlns="http://www.w3.org/2000/svg"
     xmlns:xlink="http://www.w3.org/1999/xlink"
     xmlns:gadfly="http://www.gadflyjl.org/ns"
     version="1.2"
     width="203.2mm" height="101.6mm" viewBox="0 0 203.2 101.6"
     stroke="none"
     fill="#000000"
     stroke-width="0.3"
     font-size="3.88"
>
<g class="plotroot xscalable yscalable" id="img-97718aae-1">
  <g font-size="3.88" font-family="'PT Sans','Helvetica Neue','Helvetica',sans-serif" fill="#564A55" stroke="#000000" stroke-opacity="0.000" id="img-97718aae-2">
    <text x="90.47" y="90.88" text-anchor="middle" dy="0.6em">X</text>
  </g>
  <g class="guide xlabels" font-size="2.82" font-family="'PT Sans Caption','Helvetica Neue','Helvetica',sans-serif" fill="#6C606B" id="img-97718aae-3">
    <text x="16.54" y="84.83" text-anchor="middle" dy="0.6em">0</text>
    <text x="90.47" y="84.83" text-anchor="middle" dy="0.6em">50</text>
    <text x="164.41" y="84.83" text-anchor="middle" dy="0.6em">100</text>
  </g>
  <g class="guide colorkey" id="img-97718aae-4">
    <g fill="#4C404B" font-size="2.82" font-family="'PT Sans','Helvetica Neue','Helvetica',sans-serif" id="img-97718aae-5">
      <text x="169.93" y="41.37" dy="0.35em" id="img-97718aae-6" class="color_Observation_1">Observation 1</text>
      <text x="169.93" y="44.42" dy="0.35em" id="img-97718aae-7" class="color_Observation_2">Observation 2</text>
      <text x="169.93" y="47.46" dy="0.35em" id="img-97718aae-8" class="color_Observation_3">Observation 3</text>
      <text x="169.93" y="50.5" dy="0.35em" id="img-97718aae-9" class="color_Observation_4">Observation 4</text>
    </g>
    <g stroke="#000000" stroke-opacity="0.000" id="img-97718aae-10">
      <rect x="167.41" y="40.61" width="1.52" height="1.52" id="img-97718aae-11" fill="#00BFFF" class="color_Observation_1"/>
      <rect x="167.41" y="43.66" width="1.52" height="1.52" id="img-97718aae-12" fill="#D4CA3A" class="color_Observation_2"/>
      <rect x="167.41" y="46.7" width="1.52" height="1.52" id="img-97718aae-13" fill="#FF6DAE" class="color_Observation_3"/>
      <rect x="167.41" y="49.74" width="1.52" height="1.52" id="img-97718aae-14" fill="#00B78D" class="color_Observation_4"/>
    </g>
    <g fill="#362A35" font-size="3.88" font-family="'PT Sans','Helvetica Neue','Helvetica',sans-serif" stroke="#000000" stroke-opacity="0.000" id="img-97718aae-15">
      <text x="167.41" y="37.73" id="img-97718aae-16">Mixed observations</text>
    </g>
  </g>
<g clip-path="url(#img-97718aae-17)">
  <g id="img-97718aae-18">
    <g pointer-events="visible" opacity="1" fill="#000000" fill-opacity="0.000" stroke="#000000" stroke-opacity="0.000" class="guide background" id="img-97718aae-19">
      <rect x="14.54" y="5" width="151.87" height="78.83" id="img-97718aae-20"/>
    </g>
    <g class="guide ygridlines xfixed" stroke-dasharray="0.5,0.5" stroke-width="0.2" stroke="#D0D0E0" id="img-97718aae-21">
      <path fill="none" d="M14.54,81.83 L 166.41 81.83" id="img-97718aae-22"/>
      <path fill="none" d="M14.54,56.89 L 166.41 56.89" id="img-97718aae-23"/>
      <path fill="none" d="M14.54,31.94 L 166.41 31.94" id="img-97718aae-24"/>
      <path fill="none" d="M14.54,7 L 166.41 7" id="img-97718aae-25"/>
    </g>
    <g class="guide xgridlines yfixed" stroke-dasharray="0.5,0.5" stroke-width="0.2" stroke="#D0D0E0" id="img-97718aae-26">
      <path fill="none" d="M16.54,5 L 16.54 83.83" id="img-97718aae-27"/>
      <path fill="none" d="M90.47,5 L 90.47 83.83" id="img-97718aae-28"/>
      <path fill="none" d="M164.41,5 L 164.41 83.83" id="img-97718aae-29"/>
    </g>
    <g class="plotpanel" id="img-97718aae-30">
      <g stroke-width="0.71" fill="#000000" fill-opacity="0.000" class="geometry color_Observation_4" stroke-dasharray="none" stroke="#00B78D" id="img-97718aae-31">
        <path fill="none" d="M18.02,36.42 L 19.5 29.09 20.97 23.01 22.45 18.69 23.93 16.45 25.41 16.44 26.89 18.61 28.37 22.71 29.85 28.33 31.33 34.92 32.8 41.83 34.28 48.41 35.76 54.03 37.24 58.12 38.72 60.3 40.2 60.32 41.68 58.14 43.15 53.92 44.63 48.01 46.11 40.89 47.59 33.18 49.07 25.53 50.55 18.6 52.03 12.99 53.51 9.18 54.98 7.49 56.46 8.05 57.94 10.81 59.42 15.5 60.9 21.7 62.38 28.84 63.86 36.3 65.34 43.4 66.81 49.51 68.29 54.09 69.77 56.74 71.25 57.24 72.73 55.55 74.21 51.84 75.69 46.46 77.17 39.92 78.64 32.81 80.12 25.81 81.6 19.56 83.08 14.66 84.56 11.58 86.04 10.62 87.52 11.9 89 15.37 90.47 20.73 91.95 27.56 93.43 35.3 94.91 43.29 96.39 50.87 97.87 57.41 99.35 62.38 100.83 65.38 102.3 66.19 103.78 64.81 105.26 61.39 106.74 56.31 108.22 50.06 109.7 43.26 111.18 36.58 112.65 30.66 114.13 26.09 115.61 23.32 117.09 22.66 118.57 24.23 120.05 27.92 121.53 33.47 123.01 40.43 124.48 48.22 125.96 56.2 127.44 63.7 128.92 70.1 130.4 74.86 131.88 77.61 133.36 78.14 134.84 76.45 136.31 72.71 137.79 67.29 139.27 60.72 140.75 53.61 142.23 46.62 143.71 40.41 145.19 35.54 146.67 32.48 148.14 31.52 149.62 32.75 151.1 36.09 152.58 41.24 154.06 47.74 155.54 55.04 157.02 62.46 158.5 69.36 159.97 75.11 161.45 79.18 162.93 81.22 164.41 81.02" id="img-97718aae-32"/>
      </g>
      <g stroke-width="0.71" fill="#000000" fill-opacity="0.000" class="geometry color_Observation_3" stroke-dasharray="none" stroke="#FF6DAE" id="img-97718aae-33">
        <path fill="none" d="M18.02,38.84 L 19.5 33.46 20.97 28.47 22.45 24.05 23.93 20.34 25.41 17.48 26.89 15.56 28.37 14.63 29.85 14.7 31.33 15.76 32.8 17.73 34.28 20.53 35.76 24.01 37.24 28.03 38.72 32.4 40.2 36.93 41.68 41.42 43.15 45.69 44.63 49.53 46.11 52.8 47.59 55.34 49.07 57.04 50.55 57.82 52.03 57.64 53.51 56.5 54.98 54.44 56.46 51.52 57.94 47.87 59.42 43.63 60.9 38.95 62.38 34.02 63.86 29.04 65.34 24.21 66.81 19.72 68.29 15.76 69.77 12.47 71.25 10.01 72.73 8.47 74.21 7.92 75.69 8.4 77.17 9.88 78.64 12.33 80.12 15.66 81.6 19.74 83.08 24.43 84.56 29.56 86.04 34.93 87.52 40.34 89 45.6 90.47 50.52 91.95 54.92 93.43 58.64 94.91 61.55 96.39 63.56 97.87 64.6 99.35 64.66 100.83 63.76 102.3 61.96 103.78 59.34 105.26 56.04 106.74 52.21 108.22 48.03 109.7 43.68 111.18 39.37 112.65 35.29 114.13 31.62 115.61 28.53 117.09 26.17 118.57 24.66 120.05 24.08 121.53 24.48 123.01 25.85 124.48 28.17 125.96 31.36 127.44 35.32 128.92 39.92 130.4 44.97 131.88 50.31 133.36 55.73 134.84 61.04 136.31 66.04 137.79 70.54 139.27 74.38 140.75 77.43 142.23 79.56 143.71 80.71 145.19 80.84 146.67 79.95 148.14 78.09 149.62 75.34 151.1 71.81 152.58 67.65 154.06 63.03 155.54 58.12 157.02 53.14 158.5 48.28 159.97 43.72 161.45 39.66 162.93 36.24 164.41 33.6" id="img-97718aae-34"/>
      </g>
      <g stroke-width="0.71" fill="#000000" fill-opacity="0.000" class="geometry color_Observation_2" stroke-dasharray="none" stroke="#D4CA3A" id="img-97718aae-35">
        <path fill="none" d="M18.02,34.57 L 19.5 25.48 20.97 17.83 22.45 12.22 23.93 9.04 25.41 8.5 26.89 10.59 28.37 15.1 29.85 21.61 31.33 29.56 32.8 38.27 34.28 47.03 35.76 55.14 37.24 61.98 38.72 67.04 40.2 69.99 41.68 70.7 43.15 69.21 44.63 65.79 46.11 60.83 47.59 54.87 49.07 48.51 50.55 42.38 52.03 37.04 53.51 32.98 54.98 30.53 56.46 29.86 57.94 30.97 59.42 33.67 60.9 37.62 62.38 42.35 63.86 47.31 65.34 51.94 66.81 55.71 68.29 58.17 69.77 58.99 71.25 58.02 72.73 55.28 74.21 50.97 75.69 45.46 77.17 39.25 78.64 32.92 80.12 27.09 81.6 22.35 83.08 19.23 84.56 18.1 86.04 19.18 87.52 22.5 89 27.89 90.47 34.98 91.95 43.25 93.43 52.05 94.91 60.69 96.39 68.44 97.87 74.64 99.35 78.77 100.83 80.43 102.3 79.44 103.78 75.83 105.26 69.84 106.74 61.91 108.22 52.64 109.7 42.74 111.18 32.97 112.65 24.07 114.13 16.74 115.61 11.51 117.09 8.76 118.57 8.67 120.05 11.19 121.53 16.07 123.01 22.86 124.48 30.99 125.96 39.76 127.44 48.46 128.92 56.4 130.4 62.97 131.88 67.69 133.36 70.27 134.84 70.6 136.31 68.76 137.79 65.05 139.27 59.88 140.75 53.81 142.23 47.45 143.71 41.41 145.19 36.26 146.67 32.45 148.14 30.29 149.62 29.93 151.1 31.32 152.58 34.26 154.06 38.38 155.54 43.18 157.02 48.13 158.5 52.65 159.97 56.23 161.45 58.43 162.93 58.95 164.41 57.68" id="img-97718aae-36"/>
      </g>
      <g stroke-width="0.71" fill="#000000" fill-opacity="0.000" class="geometry color_Observation_1" stroke-dasharray="none" stroke="#00BFFF" id="img-97718aae-37">
        <path fill="none" d="M18.02,37.63 L 19.5 31.27 20.97 25.74 22.45 21.37 23.93 18.4 25.41 16.96 26.89 17.08 28.37 18.67 29.85 21.52 31.33 25.34 32.8 29.78 34.28 34.47 35.76 39.02 37.24 43.07 38.72 46.35 40.2 48.62 41.68 49.78 43.15 49.8 44.63 48.77 46.11 46.85 47.59 44.26 49.07 41.28 50.55 38.21 52.03 35.32 53.51 32.84 54.98 30.96 56.46 29.79 57.94 29.34 59.42 29.56 60.9 30.32 62.38 31.43 63.86 32.67 65.34 33.8 66.81 34.62 68.29 34.92 69.77 34.61 71.25 33.62 72.73 32.01 74.21 29.88 75.69 27.43 77.17 24.9 78.64 22.57 80.12 20.73 81.6 19.65 83.08 19.55 84.56 20.57 86.04 22.77 87.52 26.12 89 30.49 90.47 35.63 91.95 41.24 93.43 46.97 94.91 52.42 96.39 57.21 97.87 61.01 99.35 63.52 100.83 64.57 102.3 64.08 103.78 62.07 105.26 58.72 106.74 54.26 108.22 49.04 109.7 43.47 111.18 37.98 112.65 32.97 114.13 28.85 115.61 25.93 117.09 24.42 118.57 24.45 120.05 26 121.53 28.97 123.01 33.14 124.48 38.19 125.96 43.78 127.44 49.51 128.92 55.01 130.4 59.92 131.88 63.96 133.36 66.94 134.84 68.74 136.31 69.37 137.79 68.92 139.27 67.55 140.75 65.52 142.23 63.09 143.71 60.56 145.19 58.19 146.67 56.22 148.14 54.81 149.62 54.05 151.1 53.95 152.58 54.44 154.06 55.39 155.54 56.58 157.02 57.8 158.5 58.82 159.97 59.42 161.45 59.42 162.93 58.73 164.41 57.31" id="img-97718aae-38"/>
      </g>
    </g>
  </g>
</g>
  <g class="guide ylabels" font-size="2.82" font-family="'PT Sans Caption','Helvetica Neue','Helvetica',sans-serif" fill="#6C606B" id="img-97718aae-39">
    <text x="13.54" y="81.83" text-anchor="end" dy="0.35em" id="img-97718aae-40">0</text>
    <text x="13.54" y="56.89" text-anchor="end" dy="0.35em" id="img-97718aae-41">1</text>
    <text x="13.54" y="31.94" text-anchor="end" dy="0.35em" id="img-97718aae-42">2</text>
    <text x="13.54" y="7" text-anchor="end" dy="0.35em" id="img-97718aae-43">3</text>
  </g>
  <g font-size="3.88" font-family="'PT Sans','Helvetica Neue','Helvetica',sans-serif" fill="#564A55" stroke="#000000" stroke-opacity="0.000" id="img-97718aae-44">
    <text x="9.11" y="44.42" text-anchor="end" dy="0.35em" id="img-97718aae-45">Y</text>
  </g>
</g>
<defs>
  <clipPath id="img-97718aae-17">
  <path d="M14.54,5 L 166.41 5 166.41 83.83 14.54 83.83" />
</clipPath>
</defs>
</svg>
