<?xml version="1.0" encoding="UTF-8"?>
<svg xmlns="http://www.w3.org/2000/svg"
     xmlns:xlink="http://www.w3.org/1999/xlink"
     xmlns:gadfly="http://www.gadflyjl.org/ns"
     version="1.2"
     width="203.2mm" height="101.6mm" viewBox="0 0 203.2 101.6"
     stroke="none"
     fill="#000000"
     stroke-width="0.3"
     font-size="3.88"
>
<g class="plotroot xscalable yscalable" id="img-ee1e8667-1">
  <g font-size="3.88" font-family="'PT Sans','Helvetica Neue','Helvetica',sans-serif" fill="#564A55" stroke="#000000" stroke-opacity="0.000" id="img-ee1e8667-2">
    <g transform="translate(96.29,90.88)">
      <g class="primitive">
        <text text-anchor="middle" dy="0.6em">X</text>
      </g>
    </g>
  </g>
  <g class="guide xlabels" font-size="2.82" font-family="'PT Sans Caption','Helvetica Neue','Helvetica',sans-serif" fill="#6C606B" id="img-ee1e8667-3">
    <g transform="translate(16.54,84.83)">
      <g class="primitive">
        <text text-anchor="middle" dy="0.6em">0</text>
      </g>
    </g>
    <g transform="translate(96.29,84.83)">
      <g class="primitive">
        <text text-anchor="middle" dy="0.6em">50</text>
      </g>
    </g>
    <g transform="translate(176.04,84.83)">
      <g class="primitive">
        <text text-anchor="middle" dy="0.6em">100</text>
      </g>
    </g>
  </g>
  <g class="guide colorkey" id="img-ee1e8667-4">
    <g fill="#4C404B" font-size="2.82" font-family="'PT Sans','Helvetica Neue','Helvetica',sans-serif" id="img-ee1e8667-5">
      <g transform="translate(181.56,44.14)">
        <g class="primitive">
          <text dy="0.35em">Observation 1</text>
        </g>
      </g>
      <g transform="translate(181.56,47.18)">
        <g class="primitive">
          <text dy="0.35em">Observation 2</text>
        </g>
      </g>
      <g transform="translate(181.56,50.22)">
        <g class="primitive">
          <text dy="0.35em">Observation 3</text>
        </g>
      </g>
      <g transform="translate(181.56,53.27)">
        <g class="primitive">
          <text dy="0.35em">Observation 4</text>
        </g>
      </g>
    </g>
    <g stroke="#000000" stroke-opacity="0.000" id="img-ee1e8667-6">
      <g transform="translate(179.8,44.14)" fill="#FF0000">
        <path d="M-0.76,-0.76 L 0.76 -0.76 0.76 0.76 -0.76 0.76 z" class="primitive"/>
      </g>
      <g transform="translate(179.8,47.18)" fill="#0000FF">
        <path d="M-0.76,-0.76 L 0.76 -0.76 0.76 0.76 -0.76 0.76 z" class="primitive"/>
      </g>
      <g transform="translate(179.8,50.22)" fill="#008000">
        <path d="M-0.76,-0.76 L 0.76 -0.76 0.76 0.76 -0.76 0.76 z" class="primitive"/>
      </g>
      <g transform="translate(179.8,53.27)" fill="#FFA500">
        <path d="M-0.76,-0.76 L 0.76 -0.76 0.76 0.76 -0.76 0.76 z" class="primitive"/>
      </g>
    </g>
    <g fill="#362A35" font-size="3.88" font-family="'PT Sans','Helvetica Neue','Helvetica',sans-serif" stroke="#000000" stroke-opacity="0.000" id="img-ee1e8667-7">
      <g transform="translate(179.04,40.5)">
        <g class="primitive">
          <text>Sources</text>
        </g>
      </g>
    </g>
  </g>
  <g clip-path="url(#img-ee1e8667-8)">
    <g id="img-ee1e8667-9">
      <g pointer-events="visible" opacity="1" fill="#000000" fill-opacity="0.000" stroke="#000000" stroke-opacity="0.000" class="guide background" id="img-ee1e8667-10">
        <g transform="translate(96.29,47.18)">
          <path d="M-81.75,-36.66 L 81.75 -36.66 81.75 36.66 -81.75 36.66 z" class="primitive"/>
        </g>
      </g>
      <g class="guide ygridlines xfixed" stroke-dasharray="0.5,0.5" stroke-width="0.2" stroke="#D0D0E0" id="img-ee1e8667-11">
        <g transform="translate(96.29,81.83)">
          <path fill="none" d="M-81.75,0 L 81.75 0" class="primitive"/>
        </g>
        <g transform="translate(96.29,58.73)">
          <path fill="none" d="M-81.75,0 L 81.75 0" class="primitive"/>
        </g>
        <g transform="translate(96.29,35.63)">
          <path fill="none" d="M-81.75,0 L 81.75 0" class="primitive"/>
        </g>
        <g transform="translate(96.29,12.52)">
          <path fill="none" d="M-81.75,0 L 81.75 0" class="primitive"/>
        </g>
      </g>
      <g class="guide xgridlines yfixed" stroke-dasharray="0.5,0.5" stroke-width="0.2" stroke="#D0D0E0" id="img-ee1e8667-12">
        <g transform="translate(16.54,47.18)">
          <path fill="none" d="M0,-36.66 L 0 36.66" class="primitive"/>
        </g>
        <g transform="translate(96.29,47.18)">
          <path fill="none" d="M0,-36.66 L 0 36.66" class="primitive"/>
        </g>
        <g transform="translate(176.04,47.18)">
          <path fill="none" d="M0,-36.66 L 0 36.66" class="primitive"/>
        </g>
      </g>
      <g class="plotpanel" id="img-ee1e8667-13">
        <metadata>
          <boundingbox value="14.537768554687489mm 10.523643663194449mm 163.50060492621526mm 73.31075575086805mm"/>
          <unitbox value="-1.2539137396533366 3.0865666509476037 102.50782747930667 -3.173133301895207"/>
        </metadata>
        <g stroke-width="0.71" fill="#000000" fill-opacity="0.000" class="geometry" id="img-ee1e8667-14">
          <g stroke-dasharray="none" stroke="#FFA500" id="img-ee1e8667-15">
            <g transform="translate(97.09,45.05)">
              <path fill="none" d="M-78.95,-5.27 L -77.36 -12.07 -75.76 -17.69 -74.17 -21.7 -72.57 -23.77 -70.98 -23.78 -69.38 -21.77 -67.79 -17.97 -66.19 -12.77 -64.6 -6.67 -63 -0.26 -61.41 5.83 -59.81 11.03 -58.22 14.83 -56.62 16.84 -55.03 16.86 -53.43 14.84 -51.84 10.94 -50.24 5.46 -48.65 -1.13 -47.05 -8.28 -45.46 -15.36 -43.86 -21.78 -42.27 -26.97 -40.67 -30.5 -39.08 -32.07 -37.48 -31.55 -35.89 -29 -34.29 -24.65 -32.7 -18.91 -31.1 -12.29 -29.51 -5.39 -27.91 1.19 -26.32 6.85 -24.72 11.09 -23.13 13.55 -21.53 14 -19.94 12.44 -18.34 9 -16.75 4.02 -15.15 -2.04 -13.56 -8.62 -11.96 -15.1 -10.37 -20.89 -8.77 -25.43 -7.18 -28.29 -5.58 -29.17 -3.99 -27.98 -2.39 -24.78 -0.8 -19.81 0.8 -13.48 2.39 -6.31 3.99 1.09 5.58 8.11 7.18 14.17 8.77 18.77 10.37 21.55 11.96 22.3 13.56 21.02 15.15 17.85 16.75 13.14 18.34 7.36 19.94 1.06 21.53 -5.13 23.13 -10.61 24.72 -14.84 26.32 -17.41 27.91 -18.02 29.51 -16.57 31.1 -13.15 32.7 -8.01 34.29 -1.56 35.89 5.65 37.48 13.04 39.08 19.99 40.67 25.91 42.27 30.33 43.86 32.88 45.46 33.37 47.05 31.8 48.65 28.33 50.24 23.32 51.84 17.23 53.43 10.65 55.03 4.17 56.62 -1.58 58.22 -6.09 59.81 -8.92 61.41 -9.82 63 -8.67 64.6 -5.58 66.19 -0.81 67.79 5.21 69.38 11.97 70.98 18.84 72.57 25.23 74.17 30.56 75.76 34.33 77.36 36.22 78.95 36.04" class="primitive"/>
            </g>
          </g>
        </g>
        <g stroke-width="0.71" fill="#000000" fill-opacity="0.000" class="geometry" id="img-ee1e8667-16">
          <g stroke-dasharray="none" stroke="#008000" id="img-ee1e8667-17">
            <g transform="translate(97.09,44.79)">
              <path fill="none" d="M-78.95,-2.78 L -77.36 -7.76 -75.76 -12.39 -74.17 -16.48 -72.57 -19.91 -70.98 -22.56 -69.38 -24.34 -67.79 -25.21 -66.19 -25.14 -64.6 -24.16 -63 -22.33 -61.41 -19.74 -59.81 -16.51 -58.22 -12.8 -56.62 -8.75 -55.03 -4.55 -53.43 -0.39 -51.84 3.56 -50.24 7.13 -48.65 10.15 -47.05 12.5 -45.46 14.08 -43.86 14.8 -42.27 14.63 -40.67 13.58 -39.08 11.67 -37.48 8.97 -35.89 5.59 -34.29 1.65 -32.7 -2.68 -31.1 -7.24 -29.51 -11.85 -27.91 -16.33 -26.32 -20.49 -24.72 -24.16 -23.13 -27.2 -21.53 -29.48 -19.94 -30.91 -18.34 -31.41 -16.75 -30.98 -15.15 -29.6 -13.56 -27.33 -11.96 -24.25 -10.37 -20.47 -8.77 -16.12 -7.18 -11.38 -5.58 -6.4 -3.99 -1.39 -2.39 3.49 -0.8 8.04 0.8 12.11 2.39 15.56 3.99 18.25 5.58 20.11 7.18 21.08 8.77 21.14 10.37 20.31 11.96 18.63 13.56 16.21 15.15 13.15 16.75 9.61 18.34 5.73 19.94 1.71 21.53 -2.29 23.13 -6.07 24.72 -9.47 26.32 -12.33 27.91 -14.51 29.51 -15.91 31.1 -16.45 32.7 -16.08 34.29 -14.81 35.89 -12.66 37.48 -9.7 39.08 -6.04 40.67 -1.78 42.27 2.9 43.86 7.84 45.46 12.86 47.05 17.78 48.65 22.41 50.24 26.58 51.84 30.14 53.43 32.96 55.03 34.94 56.62 36 58.22 36.12 59.81 35.3 61.41 33.58 63 31.03 64.6 27.76 66.19 23.91 67.79 19.62 69.38 15.08 70.98 10.47 72.57 5.96 74.17 1.74 75.76 -2.02 77.36 -5.19 78.95 -7.63" class="primitive"/>
            </g>
          </g>
        </g>
        <g stroke-width="0.71" fill="#000000" fill-opacity="0.000" class="geometry" id="img-ee1e8667-18">
          <g stroke-dasharray="none" stroke="#0000FF" id="img-ee1e8667-19">
            <g transform="translate(97.09,46.25)">
              <path fill="none" d="M-78.95,-8.2 L -77.36 -16.62 -75.76 -23.69 -74.17 -28.89 -72.57 -31.84 -70.98 -32.34 -69.38 -30.4 -67.79 -26.23 -66.19 -20.2 -64.6 -12.84 -63 -4.77 -61.41 3.35 -59.81 10.86 -58.22 17.19 -56.62 21.88 -55.03 24.62 -53.43 25.27 -51.84 23.89 -50.24 20.72 -48.65 16.12 -47.05 10.61 -45.46 4.72 -43.86 -0.96 -42.27 -5.9 -40.67 -9.67 -39.08 -11.94 -37.48 -12.56 -35.89 -11.53 -34.29 -9.02 -32.7 -5.37 -31.1 -0.99 -29.51 3.61 -27.91 7.9 -26.32 11.39 -24.72 13.66 -23.13 14.42 -21.53 13.52 -19.94 10.98 -18.34 7 -16.75 1.89 -15.15 -3.86 -13.56 -9.72 -11.96 -15.12 -10.37 -19.51 -8.77 -22.41 -7.18 -23.45 -5.58 -22.45 -3.99 -19.37 -2.39 -14.38 -0.8 -7.81 0.8 -0.16 2.39 8 3.99 16 5.58 23.17 7.18 28.92 8.77 32.74 10.37 34.28 11.96 33.36 13.56 30.02 15.15 24.47 16.75 17.13 18.34 8.54 19.94 -0.63 21.53 -9.68 23.13 -17.92 24.72 -24.71 26.32 -29.56 27.91 -32.1 29.51 -32.18 31.1 -29.85 32.7 -25.33 34.29 -19.04 35.89 -11.51 37.48 -3.39 39.08 4.67 40.67 12.02 42.27 18.11 43.86 22.48 45.46 24.87 47.05 25.17 48.65 23.47 50.24 20.03 51.84 15.25 53.43 9.63 55.03 3.74 56.62 -1.86 58.22 -6.63 59.81 -10.16 61.41 -12.16 63 -12.49 64.6 -11.2 66.19 -8.48 67.79 -4.67 69.38 -0.22 70.98 4.36 72.57 8.55 74.17 11.86 75.76 13.9 77.36 14.39 78.95 13.21" class="primitive"/>
            </g>
          </g>
        </g>
        <g stroke-width="0.71" fill="#000000" fill-opacity="0.000" class="geometry" id="img-ee1e8667-20">
          <g stroke-dasharray="none" stroke="#FF0000" id="img-ee1e8667-21">
            <g transform="translate(97.09,44.92)">
              <path fill="none" d="M-78.95,-4.03 L -77.36 -9.92 -75.76 -15.04 -74.17 -19.09 -72.57 -21.84 -70.98 -23.17 -69.38 -23.06 -67.79 -21.59 -66.19 -18.95 -64.6 -15.41 -63 -11.3 -61.41 -6.95 -59.81 -2.74 -58.22 1.02 -56.62 4.05 -55.03 6.15 -53.43 7.23 -51.84 7.25 -50.24 6.29 -48.65 4.51 -47.05 2.11 -45.46 -0.64 -43.86 -3.49 -42.27 -6.17 -40.67 -8.46 -39.08 -10.2 -37.48 -11.29 -35.89 -11.7 -34.29 -11.5 -32.7 -10.8 -31.1 -9.77 -29.51 -8.62 -27.91 -7.57 -26.32 -6.82 -24.72 -6.54 -23.13 -6.83 -21.53 -7.74 -19.94 -9.23 -18.34 -11.2 -16.75 -13.48 -15.15 -15.82 -13.56 -17.97 -11.96 -19.68 -10.37 -20.68 -8.77 -20.78 -7.18 -19.83 -5.58 -17.79 -3.99 -14.69 -2.39 -10.64 -0.8 -5.88 0.8 -0.68 2.39 4.62 3.99 9.67 5.58 14.11 7.18 17.62 8.77 19.95 10.37 20.93 11.96 20.47 13.56 18.61 15.15 15.5 16.75 11.37 18.34 6.54 19.94 1.39 21.53 -3.71 23.13 -8.34 24.72 -12.16 26.32 -14.87 27.91 -16.26 29.51 -16.24 31.1 -14.8 32.7 -12.05 34.29 -8.19 35.89 -3.51 37.48 1.67 39.08 6.98 40.67 12.07 42.27 16.61 43.86 20.36 45.46 23.12 47.05 24.79 48.65 25.37 50.24 24.95 51.84 23.69 53.43 21.8 55.03 19.56 56.62 17.21 58.22 15.02 59.81 13.19 61.41 11.88 63 11.18 64.6 11.09 66.19 11.55 67.79 12.42 69.38 13.52 70.98 14.66 72.57 15.6 74.17 16.15 75.76 16.16 77.36 15.52 78.95 14.2" class="primitive"/>
            </g>
          </g>
        </g>
      </g>
    </g>
  </g>
  <g class="guide ylabels" font-size="2.82" font-family="'PT Sans Caption','Helvetica Neue','Helvetica',sans-serif" fill="#6C606B" id="img-ee1e8667-22">
    <g transform="translate(13.54,81.83)">
      <g class="primitive">
        <text text-anchor="end" dy="0.35em">0</text>
      </g>
    </g>
    <g transform="translate(13.54,58.73)">
      <g class="primitive">
        <text text-anchor="end" dy="0.35em">1</text>
      </g>
    </g>
    <g transform="translate(13.54,35.63)">
      <g class="primitive">
        <text text-anchor="end" dy="0.35em">2</text>
      </g>
    </g>
    <g transform="translate(13.54,12.52)">
      <g class="primitive">
        <text text-anchor="end" dy="0.35em">3</text>
      </g>
    </g>
  </g>
  <g font-size="3.88" font-family="'PT Sans','Helvetica Neue','Helvetica',sans-serif" fill="#564A55" stroke="#000000" stroke-opacity="0.000" id="img-ee1e8667-23">
    <g transform="translate(9.11,47.18)">
      <g class="primitive">
        <text text-anchor="end" dy="0.35em">Y</text>
      </g>
    </g>
  </g>
  <g font-size="3.88" font-family="'PT Sans','Helvetica Neue','Helvetica',sans-serif" fill="#564A55" stroke="#000000" stroke-opacity="0.000" id="img-ee1e8667-24">
    <g transform="translate(96.29,5)">
      <g class="primitive">
        <text text-anchor="middle" dy="0.6em">Reproduced observations</text>
      </g>
    </g>
  </g>
</g>
<defs>
  <clipPath id="img-ee1e8667-8">
    <path d="M14.54,10.52 L 178.04 10.52 178.04 83.83 14.54 83.83" />
  </clipPath>
</defs>
</svg>
