<?xml version="1.0" encoding="UTF-8"?>
<svg xmlns="http://www.w3.org/2000/svg"
     xmlns:xlink="http://www.w3.org/1999/xlink"
     xmlns:gadfly="http://www.gadflyjl.org/ns"
     version="1.2"
     width="152.4mm" height="101.6mm" viewBox="0 0 152.4 101.6"
     stroke="none"
     fill="#000000"
     stroke-width="0.3"
     font-size="3.88"
>
<g class="plotroot xscalable yscalable" id="img-3c8d3feb-1">
  <g font-size="3.88" font-family="'PT Sans','Helvetica Neue','Helvetica',sans-serif" fill="#564A55" stroke="#000000" stroke-opacity="0.000" id="img-3c8d3feb-2">
    <text x="60.27" y="90.88" text-anchor="middle" dy="0.6em">X</text>
  </g>
  <g class="guide xlabels" font-size="2.82" font-family="'PT Sans Caption','Helvetica Neue','Helvetica',sans-serif" fill="#6C606B" id="img-3c8d3feb-3">
    <text x="16.54" y="84.83" text-anchor="middle" dy="0.6em">0</text>
    <text x="60.27" y="84.83" text-anchor="middle" dy="0.6em">50</text>
    <text x="104.01" y="84.83" text-anchor="middle" dy="0.6em">100</text>
  </g>
  <g class="guide colorkey" id="img-3c8d3feb-4">
    <g fill="#4C404B" font-size="2.82" font-family="'PT Sans','Helvetica Neue','Helvetica',sans-serif" id="img-3c8d3feb-5">
      <text x="109.53" y="41.37" dy="0.35em" id="img-3c8d3feb-6" class="color_Observation_1">Observation 1</text>
      <text x="109.53" y="44.42" dy="0.35em" id="img-3c8d3feb-7" class="color_Observation_2">Observation 2</text>
      <text x="109.53" y="47.46" dy="0.35em" id="img-3c8d3feb-8" class="color_Observation_3">Observation 3</text>
      <text x="109.53" y="50.5" dy="0.35em" id="img-3c8d3feb-9" class="color_Observation_4">Observation 4</text>
    </g>
    <g stroke="#000000" stroke-opacity="0.000" id="img-3c8d3feb-10">
      <rect x="107.01" y="40.61" width="1.52" height="1.52" id="img-3c8d3feb-11" fill="#00BFFF" class="color_Observation_1"/>
      <rect x="107.01" y="43.66" width="1.52" height="1.52" id="img-3c8d3feb-12" fill="#D4CA3A" class="color_Observation_2"/>
      <rect x="107.01" y="46.7" width="1.52" height="1.52" id="img-3c8d3feb-13" fill="#FF6DAE" class="color_Observation_3"/>
      <rect x="107.01" y="49.74" width="1.52" height="1.52" id="img-3c8d3feb-14" fill="#00B78D" class="color_Observation_4"/>
    </g>
    <g fill="#362A35" font-size="3.88" font-family="'PT Sans','Helvetica Neue','Helvetica',sans-serif" stroke="#000000" stroke-opacity="0.000" id="img-3c8d3feb-15">
      <text x="107.01" y="38.09" id="img-3c8d3feb-16">Reproduced observations</text>
    </g>
  </g>
<g clip-path="url(#img-3c8d3feb-17)">
  <g id="img-3c8d3feb-18">
    <g pointer-events="visible" opacity="1" fill="#000000" fill-opacity="0.000" stroke="#000000" stroke-opacity="0.000" class="guide background" id="img-3c8d3feb-19">
      <rect x="14.54" y="5" width="91.47" height="78.83" id="img-3c8d3feb-20"/>
    </g>
    <g class="guide ygridlines xfixed" stroke-dasharray="0.5,0.5" stroke-width="0.2" stroke="#D0D0E0" id="img-3c8d3feb-21">
      <path fill="none" d="M14.54,81.83 L 106.01 81.83" id="img-3c8d3feb-22"/>
      <path fill="none" d="M14.54,56.89 L 106.01 56.89" id="img-3c8d3feb-23"/>
      <path fill="none" d="M14.54,31.94 L 106.01 31.94" id="img-3c8d3feb-24"/>
      <path fill="none" d="M14.54,7 L 106.01 7" id="img-3c8d3feb-25"/>
    </g>
    <g class="guide xgridlines yfixed" stroke-dasharray="0.5,0.5" stroke-width="0.2" stroke="#D0D0E0" id="img-3c8d3feb-26">
      <path fill="none" d="M16.54,5 L 16.54 83.83" id="img-3c8d3feb-27"/>
      <path fill="none" d="M60.27,5 L 60.27 83.83" id="img-3c8d3feb-28"/>
      <path fill="none" d="M104.01,5 L 104.01 83.83" id="img-3c8d3feb-29"/>
    </g>
    <g class="plotpanel" id="img-3c8d3feb-30">
      <g stroke-width="0.71" fill="#000000" fill-opacity="0.000" class="geometry color_Observation_4" stroke-dasharray="none" stroke="#00B78D" id="img-3c8d3feb-31">
        <path fill="none" d="M17.41,36.42 L 18.29 29.09 19.16 23.01 20.04 18.69 20.91 16.45 21.79 16.44 22.66 18.61 23.54 22.71 24.41 28.33 25.28 34.92 26.16 41.83 27.03 48.41 27.91 54.03 28.78 58.12 29.66 60.3 30.53 60.32 31.41 58.14 32.28 53.92 33.16 48.01 34.03 40.89 34.91 33.18 35.78 25.53 36.66 18.6 37.53 12.99 38.41 9.18 39.28 7.49 40.16 8.05 41.03 10.81 41.9 15.5 42.78 21.7 43.65 28.84 44.53 36.3 45.4 43.4 46.28 49.51 47.15 54.09 48.03 56.74 48.9 57.24 49.78 55.55 50.65 51.84 51.53 46.46 52.4 39.92 53.28 32.81 54.15 25.81 55.03 19.56 55.9 14.66 56.77 11.58 57.65 10.62 58.52 11.9 59.4 15.37 60.27 20.73 61.15 27.56 62.02 35.3 62.9 43.29 63.77 50.87 64.65 57.41 65.52 62.38 66.4 65.38 67.27 66.19 68.15 64.81 69.02 61.39 69.9 56.31 70.77 50.06 71.65 43.26 72.52 36.58 73.39 30.66 74.27 26.09 75.14 23.32 76.02 22.66 76.89 24.23 77.77 27.92 78.64 33.47 79.52 40.43 80.39 48.22 81.27 56.2 82.14 63.7 83.02 70.1 83.89 74.86 84.77 77.61 85.64 78.14 86.52 76.45 87.39 72.71 88.26 67.29 89.14 60.72 90.01 53.61 90.89 46.62 91.76 40.41 92.64 35.54 93.51 32.48 94.39 31.52 95.26 32.75 96.14 36.09 97.01 41.24 97.89 47.74 98.76 55.04 99.64 62.46 100.51 69.36 101.39 75.11 102.26 79.18 103.14 81.22 104.01 81.02" id="img-3c8d3feb-32"/>
      </g>
      <g stroke-width="0.71" fill="#000000" fill-opacity="0.000" class="geometry color_Observation_3" stroke-dasharray="none" stroke="#FF6DAE" id="img-3c8d3feb-33">
        <path fill="none" d="M17.41,38.84 L 18.29 33.46 19.16 28.47 20.04 24.05 20.91 20.34 21.79 17.48 22.66 15.56 23.54 14.63 24.41 14.7 25.28 15.76 26.16 17.73 27.03 20.53 27.91 24.01 28.78 28.03 29.66 32.4 30.53 36.93 31.41 41.42 32.28 45.69 33.16 49.53 34.03 52.8 34.91 55.34 35.78 57.04 36.66 57.82 37.53 57.64 38.41 56.5 39.28 54.44 40.16 51.52 41.03 47.87 41.9 43.63 42.78 38.95 43.65 34.02 44.53 29.04 45.4 24.21 46.28 19.72 47.15 15.76 48.03 12.47 48.9 10.01 49.78 8.47 50.65 7.92 51.53 8.4 52.4 9.88 53.28 12.33 54.15 15.66 55.03 19.74 55.9 24.43 56.77 29.56 57.65 34.93 58.52 40.34 59.4 45.6 60.27 50.52 61.15 54.92 62.02 58.64 62.9 61.55 63.77 63.56 64.65 64.6 65.52 64.66 66.4 63.76 67.27 61.96 68.15 59.34 69.02 56.04 69.9 52.21 70.77 48.03 71.65 43.68 72.52 39.37 73.39 35.29 74.27 31.62 75.14 28.53 76.02 26.17 76.89 24.66 77.77 24.08 78.64 24.48 79.52 25.85 80.39 28.17 81.27 31.36 82.14 35.32 83.02 39.92 83.89 44.97 84.77 50.31 85.64 55.73 86.52 61.04 87.39 66.04 88.26 70.54 89.14 74.38 90.01 77.43 90.89 79.56 91.76 80.71 92.64 80.84 93.51 79.95 94.39 78.09 95.26 75.34 96.14 71.81 97.01 67.65 97.89 63.03 98.76 58.12 99.64 53.14 100.51 48.28 101.39 43.72 102.26 39.66 103.14 36.24 104.01 33.6" id="img-3c8d3feb-34"/>
      </g>
      <g stroke-width="0.71" fill="#000000" fill-opacity="0.000" class="geometry color_Observation_2" stroke-dasharray="none" stroke="#D4CA3A" id="img-3c8d3feb-35">
        <path fill="none" d="M17.41,34.57 L 18.29 25.48 19.16 17.83 20.04 12.22 20.91 9.04 21.79 8.5 22.66 10.59 23.54 15.1 24.41 21.61 25.28 29.56 26.16 38.27 27.03 47.03 27.91 55.14 28.78 61.98 29.66 67.04 30.53 69.99 31.41 70.7 32.28 69.21 33.16 65.79 34.03 60.83 34.91 54.87 35.78 48.51 36.66 42.38 37.53 37.04 38.41 32.98 39.28 30.53 40.16 29.86 41.03 30.97 41.9 33.67 42.78 37.62 43.65 42.35 44.53 47.31 45.4 51.94 46.28 55.71 47.15 58.17 48.03 58.99 48.9 58.02 49.78 55.28 50.65 50.97 51.53 45.46 52.4 39.25 53.28 32.92 54.15 27.09 55.03 22.35 55.9 19.23 56.77 18.1 57.65 19.18 58.52 22.5 59.4 27.89 60.27 34.98 61.15 43.25 62.02 52.05 62.9 60.69 63.77 68.44 64.65 74.64 65.52 78.77 66.4 80.43 67.27 79.44 68.15 75.83 69.02 69.84 69.9 61.91 70.77 52.64 71.65 42.74 72.52 32.97 73.39 24.07 74.27 16.74 75.14 11.51 76.02 8.76 76.89 8.67 77.77 11.19 78.64 16.07 79.52 22.86 80.39 30.99 81.27 39.76 82.14 48.46 83.02 56.4 83.89 62.97 84.77 67.69 85.64 70.27 86.52 70.6 87.39 68.76 88.26 65.05 89.14 59.88 90.01 53.81 90.89 47.45 91.76 41.41 92.64 36.26 93.51 32.45 94.39 30.29 95.26 29.93 96.14 31.32 97.01 34.26 97.89 38.38 98.76 43.18 99.64 48.13 100.51 52.65 101.39 56.23 102.26 58.43 103.14 58.95 104.01 57.68" id="img-3c8d3feb-36"/>
      </g>
      <g stroke-width="0.71" fill="#000000" fill-opacity="0.000" class="geometry color_Observation_1" stroke-dasharray="none" stroke="#00BFFF" id="img-3c8d3feb-37">
        <path fill="none" d="M17.41,37.63 L 18.29 31.27 19.16 25.74 20.04 21.37 20.91 18.4 21.79 16.96 22.66 17.08 23.54 18.67 24.41 21.52 25.28 25.34 26.16 29.78 27.03 34.47 27.91 39.02 28.78 43.07 29.66 46.35 30.53 48.62 31.41 49.78 32.28 49.8 33.16 48.77 34.03 46.85 34.91 44.26 35.78 41.28 36.66 38.21 37.53 35.32 38.41 32.84 39.28 30.96 40.16 29.79 41.03 29.34 41.9 29.56 42.78 30.32 43.65 31.43 44.53 32.67 45.4 33.8 46.28 34.62 47.15 34.92 48.03 34.61 48.9 33.62 49.78 32.01 50.65 29.88 51.53 27.43 52.4 24.9 53.28 22.57 54.15 20.73 55.03 19.65 55.9 19.55 56.77 20.57 57.65 22.77 58.52 26.12 59.4 30.49 60.27 35.63 61.15 41.24 62.02 46.97 62.9 52.42 63.77 57.21 64.65 61.01 65.52 63.52 66.4 64.57 67.27 64.08 68.15 62.07 69.02 58.72 69.9 54.26 70.77 49.04 71.65 43.47 72.52 37.98 73.39 32.97 74.27 28.85 75.14 25.93 76.02 24.42 76.89 24.45 77.77 26 78.64 28.97 79.52 33.14 80.39 38.19 81.27 43.78 82.14 49.51 83.02 55.01 83.89 59.92 84.77 63.96 85.64 66.94 86.52 68.74 87.39 69.37 88.26 68.92 89.14 67.55 90.01 65.52 90.89 63.09 91.76 60.56 92.64 58.19 93.51 56.22 94.39 54.81 95.26 54.05 96.14 53.95 97.01 54.44 97.89 55.39 98.76 56.58 99.64 57.8 100.51 58.82 101.39 59.42 102.26 59.42 103.14 58.73 104.01 57.31" id="img-3c8d3feb-38"/>
      </g>
    </g>
  </g>
</g>
  <g class="guide ylabels" font-size="2.82" font-family="'PT Sans Caption','Helvetica Neue','Helvetica',sans-serif" fill="#6C606B" id="img-3c8d3feb-39">
    <text x="13.54" y="81.83" text-anchor="end" dy="0.35em" id="img-3c8d3feb-40">0</text>
    <text x="13.54" y="56.89" text-anchor="end" dy="0.35em" id="img-3c8d3feb-41">1</text>
    <text x="13.54" y="31.94" text-anchor="end" dy="0.35em" id="img-3c8d3feb-42">2</text>
    <text x="13.54" y="7" text-anchor="end" dy="0.35em" id="img-3c8d3feb-43">3</text>
  </g>
  <g font-size="3.88" font-family="'PT Sans','Helvetica Neue','Helvetica',sans-serif" fill="#564A55" stroke="#000000" stroke-opacity="0.000" id="img-3c8d3feb-44">
    <text x="9.11" y="44.42" text-anchor="end" dy="0.35em" id="img-3c8d3feb-45">Y</text>
  </g>
</g>
<defs>
  <clipPath id="img-3c8d3feb-17">
  <path d="M14.54,5 L 106.01 5 106.01 83.83 14.54 83.83" />
</clipPath>
</defs>
</svg>
