<?xml version="1.0" encoding="UTF-8"?>
<svg xmlns="http://www.w3.org/2000/svg"
     xmlns:xlink="http://www.w3.org/1999/xlink"
     xmlns:gadfly="http://www.gadflyjl.org/ns"
     version="1.2"
     width="152.4mm" height="101.6mm" viewBox="0 0 152.4 101.6"
     stroke="none"
     fill="#000000"
     stroke-width="0.3"
     font-size="3.88"
>
<g class="plotroot xscalable yscalable" id="img-97718aae-1">
  <g font-size="3.88" font-family="'PT Sans','Helvetica Neue','Helvetica',sans-serif" fill="#564A55" stroke="#000000" stroke-opacity="0.000" id="img-97718aae-2">
    <text x="65.07" y="90.88" text-anchor="middle" dy="0.6em">X</text>
  </g>
  <g class="guide xlabels" font-size="2.82" font-family="'PT Sans Caption','Helvetica Neue','Helvetica',sans-serif" fill="#6C606B" id="img-97718aae-3">
    <text x="16.54" y="84.83" text-anchor="middle" dy="0.6em">0</text>
    <text x="65.07" y="84.83" text-anchor="middle" dy="0.6em">50</text>
    <text x="113.61" y="84.83" text-anchor="middle" dy="0.6em">100</text>
  </g>
  <g class="guide colorkey" id="img-97718aae-4">
    <g fill="#4C404B" font-size="2.82" font-family="'PT Sans','Helvetica Neue','Helvetica',sans-serif" id="img-97718aae-5">
      <text x="119.13" y="41.37" dy="0.35em" id="img-97718aae-6" class="color_Observation_1">Observation 1</text>
      <text x="119.13" y="44.42" dy="0.35em" id="img-97718aae-7" class="color_Observation_2">Observation 2</text>
      <text x="119.13" y="47.46" dy="0.35em" id="img-97718aae-8" class="color_Observation_3">Observation 3</text>
      <text x="119.13" y="50.5" dy="0.35em" id="img-97718aae-9" class="color_Observation_4">Observation 4</text>
    </g>
    <g stroke="#000000" stroke-opacity="0.000" id="img-97718aae-10">
      <rect x="116.61" y="40.61" width="1.52" height="1.52" id="img-97718aae-11" fill="#00BFFF" class="color_Observation_1"/>
      <rect x="116.61" y="43.66" width="1.52" height="1.52" id="img-97718aae-12" fill="#D4CA3A" class="color_Observation_2"/>
      <rect x="116.61" y="46.7" width="1.52" height="1.52" id="img-97718aae-13" fill="#FF6DAE" class="color_Observation_3"/>
      <rect x="116.61" y="49.74" width="1.52" height="1.52" id="img-97718aae-14" fill="#00B78D" class="color_Observation_4"/>
    </g>
    <g fill="#362A35" font-size="3.88" font-family="'PT Sans','Helvetica Neue','Helvetica',sans-serif" stroke="#000000" stroke-opacity="0.000" id="img-97718aae-15">
      <text x="116.61" y="37.73" id="img-97718aae-16">Mixed observations</text>
    </g>
  </g>
<g clip-path="url(#img-97718aae-17)">
  <g id="img-97718aae-18">
    <g pointer-events="visible" opacity="1" fill="#000000" fill-opacity="0.000" stroke="#000000" stroke-opacity="0.000" class="guide background" id="img-97718aae-19">
      <rect x="14.54" y="5" width="101.07" height="78.83" id="img-97718aae-20"/>
    </g>
    <g class="guide ygridlines xfixed" stroke-dasharray="0.5,0.5" stroke-width="0.2" stroke="#D0D0E0" id="img-97718aae-21">
      <path fill="none" d="M14.54,81.83 L 115.61 81.83" id="img-97718aae-22"/>
      <path fill="none" d="M14.54,56.89 L 115.61 56.89" id="img-97718aae-23"/>
      <path fill="none" d="M14.54,31.94 L 115.61 31.94" id="img-97718aae-24"/>
      <path fill="none" d="M14.54,7 L 115.61 7" id="img-97718aae-25"/>
    </g>
    <g class="guide xgridlines yfixed" stroke-dasharray="0.5,0.5" stroke-width="0.2" stroke="#D0D0E0" id="img-97718aae-26">
      <path fill="none" d="M16.54,5 L 16.54 83.83" id="img-97718aae-27"/>
      <path fill="none" d="M65.07,5 L 65.07 83.83" id="img-97718aae-28"/>
      <path fill="none" d="M113.61,5 L 113.61 83.83" id="img-97718aae-29"/>
    </g>
    <g class="plotpanel" id="img-97718aae-30">
      <g stroke-width="0.71" fill="#000000" fill-opacity="0.000" class="geometry color_Observation_4" stroke-dasharray="none" stroke="#00B78D" id="img-97718aae-31">
        <path fill="none" d="M17.51,36.42 L 18.48 29.09 19.45 23.01 20.42 18.69 21.39 16.45 22.36 16.44 23.33 18.61 24.3 22.71 25.27 28.33 26.25 34.92 27.22 41.83 28.19 48.41 29.16 54.03 30.13 58.12 31.1 60.3 32.07 60.32 33.04 58.14 34.01 53.92 34.98 48.01 35.95 40.89 36.92 33.18 37.89 25.53 38.86 18.6 39.84 12.99 40.81 9.18 41.78 7.49 42.75 8.05 43.72 10.81 44.69 15.5 45.66 21.7 46.63 28.84 47.6 36.3 48.57 43.4 49.54 49.51 50.51 54.09 51.48 56.74 52.45 57.24 53.43 55.55 54.4 51.84 55.37 46.46 56.34 39.92 57.31 32.81 58.28 25.81 59.25 19.56 60.22 14.66 61.19 11.58 62.16 10.62 63.13 11.9 64.1 15.37 65.07 20.73 66.04 27.56 67.02 35.3 67.99 43.29 68.96 50.87 69.93 57.41 70.9 62.38 71.87 65.38 72.84 66.19 73.81 64.81 74.78 61.39 75.75 56.31 76.72 50.06 77.69 43.26 78.66 36.58 79.63 30.66 80.61 26.09 81.58 23.32 82.55 22.66 83.52 24.23 84.49 27.92 85.46 33.47 86.43 40.43 87.4 48.22 88.37 56.2 89.34 63.7 90.31 70.1 91.28 74.86 92.25 77.61 93.23 78.14 94.2 76.45 95.17 72.71 96.14 67.29 97.11 60.72 98.08 53.61 99.05 46.62 100.02 40.41 100.99 35.54 101.96 32.48 102.93 31.52 103.9 32.75 104.87 36.09 105.84 41.24 106.82 47.74 107.79 55.04 108.76 62.46 109.73 69.36 110.7 75.11 111.67 79.18 112.64 81.22 113.61 81.02" id="img-97718aae-32"/>
      </g>
      <g stroke-width="0.71" fill="#000000" fill-opacity="0.000" class="geometry color_Observation_3" stroke-dasharray="none" stroke="#FF6DAE" id="img-97718aae-33">
        <path fill="none" d="M17.51,38.84 L 18.48 33.46 19.45 28.47 20.42 24.05 21.39 20.34 22.36 17.48 23.33 15.56 24.3 14.63 25.27 14.7 26.25 15.76 27.22 17.73 28.19 20.53 29.16 24.01 30.13 28.03 31.1 32.4 32.07 36.93 33.04 41.42 34.01 45.69 34.98 49.53 35.95 52.8 36.92 55.34 37.89 57.04 38.86 57.82 39.84 57.64 40.81 56.5 41.78 54.44 42.75 51.52 43.72 47.87 44.69 43.63 45.66 38.95 46.63 34.02 47.6 29.04 48.57 24.21 49.54 19.72 50.51 15.76 51.48 12.47 52.45 10.01 53.43 8.47 54.4 7.92 55.37 8.4 56.34 9.88 57.31 12.33 58.28 15.66 59.25 19.74 60.22 24.43 61.19 29.56 62.16 34.93 63.13 40.34 64.1 45.6 65.07 50.52 66.04 54.92 67.02 58.64 67.99 61.55 68.96 63.56 69.93 64.6 70.9 64.66 71.87 63.76 72.84 61.96 73.81 59.34 74.78 56.04 75.75 52.21 76.72 48.03 77.69 43.68 78.66 39.37 79.63 35.29 80.61 31.62 81.58 28.53 82.55 26.17 83.52 24.66 84.49 24.08 85.46 24.48 86.43 25.85 87.4 28.17 88.37 31.36 89.34 35.32 90.31 39.92 91.28 44.97 92.25 50.31 93.23 55.73 94.2 61.04 95.17 66.04 96.14 70.54 97.11 74.38 98.08 77.43 99.05 79.56 100.02 80.71 100.99 80.84 101.96 79.95 102.93 78.09 103.9 75.34 104.87 71.81 105.84 67.65 106.82 63.03 107.79 58.12 108.76 53.14 109.73 48.28 110.7 43.72 111.67 39.66 112.64 36.24 113.61 33.6" id="img-97718aae-34"/>
      </g>
      <g stroke-width="0.71" fill="#000000" fill-opacity="0.000" class="geometry color_Observation_2" stroke-dasharray="none" stroke="#D4CA3A" id="img-97718aae-35">
        <path fill="none" d="M17.51,34.57 L 18.48 25.48 19.45 17.83 20.42 12.22 21.39 9.04 22.36 8.5 23.33 10.59 24.3 15.1 25.27 21.61 26.25 29.56 27.22 38.27 28.19 47.03 29.16 55.14 30.13 61.98 31.1 67.04 32.07 69.99 33.04 70.7 34.01 69.21 34.98 65.79 35.95 60.83 36.92 54.87 37.89 48.51 38.86 42.38 39.84 37.04 40.81 32.98 41.78 30.53 42.75 29.86 43.72 30.97 44.69 33.67 45.66 37.62 46.63 42.35 47.6 47.31 48.57 51.94 49.54 55.71 50.51 58.17 51.48 58.99 52.45 58.02 53.43 55.28 54.4 50.97 55.37 45.46 56.34 39.25 57.31 32.92 58.28 27.09 59.25 22.35 60.22 19.23 61.19 18.1 62.16 19.18 63.13 22.5 64.1 27.89 65.07 34.98 66.04 43.25 67.02 52.05 67.99 60.69 68.96 68.44 69.93 74.64 70.9 78.77 71.87 80.43 72.84 79.44 73.81 75.83 74.78 69.84 75.75 61.91 76.72 52.64 77.69 42.74 78.66 32.97 79.63 24.07 80.61 16.74 81.58 11.51 82.55 8.76 83.52 8.67 84.49 11.19 85.46 16.07 86.43 22.86 87.4 30.99 88.37 39.76 89.34 48.46 90.31 56.4 91.28 62.97 92.25 67.69 93.23 70.27 94.2 70.6 95.17 68.76 96.14 65.05 97.11 59.88 98.08 53.81 99.05 47.45 100.02 41.41 100.99 36.26 101.96 32.45 102.93 30.29 103.9 29.93 104.87 31.32 105.84 34.26 106.82 38.38 107.79 43.18 108.76 48.13 109.73 52.65 110.7 56.23 111.67 58.43 112.64 58.95 113.61 57.68" id="img-97718aae-36"/>
      </g>
      <g stroke-width="0.71" fill="#000000" fill-opacity="0.000" class="geometry color_Observation_1" stroke-dasharray="none" stroke="#00BFFF" id="img-97718aae-37">
        <path fill="none" d="M17.51,37.63 L 18.48 31.27 19.45 25.74 20.42 21.37 21.39 18.4 22.36 16.96 23.33 17.08 24.3 18.67 25.27 21.52 26.25 25.34 27.22 29.78 28.19 34.47 29.16 39.02 30.13 43.07 31.1 46.35 32.07 48.62 33.04 49.78 34.01 49.8 34.98 48.77 35.95 46.85 36.92 44.26 37.89 41.28 38.86 38.21 39.84 35.32 40.81 32.84 41.78 30.96 42.75 29.79 43.72 29.34 44.69 29.56 45.66 30.32 46.63 31.43 47.6 32.67 48.57 33.8 49.54 34.62 50.51 34.92 51.48 34.61 52.45 33.62 53.43 32.01 54.4 29.88 55.37 27.43 56.34 24.9 57.31 22.57 58.28 20.73 59.25 19.65 60.22 19.55 61.19 20.57 62.16 22.77 63.13 26.12 64.1 30.49 65.07 35.63 66.04 41.24 67.02 46.97 67.99 52.42 68.96 57.21 69.93 61.01 70.9 63.52 71.87 64.57 72.84 64.08 73.81 62.07 74.78 58.72 75.75 54.26 76.72 49.04 77.69 43.47 78.66 37.98 79.63 32.97 80.61 28.85 81.58 25.93 82.55 24.42 83.52 24.45 84.49 26 85.46 28.97 86.43 33.14 87.4 38.19 88.37 43.78 89.34 49.51 90.31 55.01 91.28 59.92 92.25 63.96 93.23 66.94 94.2 68.74 95.17 69.37 96.14 68.92 97.11 67.55 98.08 65.52 99.05 63.09 100.02 60.56 100.99 58.19 101.96 56.22 102.93 54.81 103.9 54.05 104.87 53.95 105.84 54.44 106.82 55.39 107.79 56.58 108.76 57.8 109.73 58.82 110.7 59.42 111.67 59.42 112.64 58.73 113.61 57.31" id="img-97718aae-38"/>
      </g>
    </g>
  </g>
</g>
  <g class="guide ylabels" font-size="2.82" font-family="'PT Sans Caption','Helvetica Neue','Helvetica',sans-serif" fill="#6C606B" id="img-97718aae-39">
    <text x="13.54" y="81.83" text-anchor="end" dy="0.35em" id="img-97718aae-40">0</text>
    <text x="13.54" y="56.89" text-anchor="end" dy="0.35em" id="img-97718aae-41">1</text>
    <text x="13.54" y="31.94" text-anchor="end" dy="0.35em" id="img-97718aae-42">2</text>
    <text x="13.54" y="7" text-anchor="end" dy="0.35em" id="img-97718aae-43">3</text>
  </g>
  <g font-size="3.88" font-family="'PT Sans','Helvetica Neue','Helvetica',sans-serif" fill="#564A55" stroke="#000000" stroke-opacity="0.000" id="img-97718aae-44">
    <text x="9.11" y="44.42" text-anchor="end" dy="0.35em" id="img-97718aae-45">Y</text>
  </g>
</g>
<defs>
  <clipPath id="img-97718aae-17">
  <path d="M14.54,5 L 115.61 5 115.61 83.83 14.54 83.83" />
</clipPath>
</defs>
</svg>
