<?xml version="1.0" encoding="UTF-8"?>
<svg xmlns="http://www.w3.org/2000/svg"
     xmlns:xlink="http://www.w3.org/1999/xlink"
     xmlns:gadfly="http://www.gadflyjl.org/ns"
     version="1.2"
     width="152.4mm" height="101.6mm" viewBox="0 0 152.4 101.6"
     stroke="none"
     fill="#000000"
     stroke-width="0.3"
     font-size="3.88"
>
<g class="plotroot xscalable yscalable" id="img-adf770d6-1">
  <g font-size="3.88" font-family="'PT Sans','Helvetica Neue','Helvetica',sans-serif" fill="#564A55" stroke="#000000" stroke-opacity="0.000" id="img-adf770d6-2">
    <text x="68.88" y="89.99" text-anchor="middle" dy="0.6em">X</text>
  </g>
  <g class="guide xlabels" font-size="2.82" font-family="'PT Sans Caption','Helvetica Neue','Helvetica',sans-serif" fill="#6C606B" id="img-adf770d6-3">
    <text x="19.18" y="83.32" text-anchor="middle" dy="0.6em">0</text>
    <text x="68.88" y="83.32" text-anchor="middle" dy="0.6em">50</text>
    <text x="118.58" y="83.32" text-anchor="middle" dy="0.6em">100</text>
  </g>
  <g class="guide colorkey" id="img-adf770d6-4">
    <g fill="#4C404B" font-size="2.82" font-family="'PT Sans','Helvetica Neue','Helvetica',sans-serif" id="img-adf770d6-5">
      <text x="124.39" y="43.66" dy="0.35em" id="img-adf770d6-6" class="color_Source_1">Source 1</text>
      <text x="124.39" y="47.28" dy="0.35em" id="img-adf770d6-7" class="color_Source_2">Source 2</text>
    </g>
    <g stroke="#000000" stroke-opacity="0.000" id="img-adf770d6-8">
      <rect x="121.58" y="42.75" width="1.81" height="1.81" id="img-adf770d6-9" class="color_Source_1" fill="#00BFFF"/>
      <rect x="121.58" y="46.38" width="1.81" height="1.81" id="img-adf770d6-10" class="color_Source_2" fill="#D4CA3A"/>
    </g>
    <g fill="#362A35" font-size="3.88" font-family="'PT Sans','Helvetica Neue','Helvetica',sans-serif" stroke="#000000" stroke-opacity="0.000" id="img-adf770d6-11">
      <text x="121.58" y="39.84" id="img-adf770d6-12">Original sources</text>
    </g>
  </g>
<g clip-path="url(#img-adf770d6-13)">
  <g id="img-adf770d6-14">
    <g pointer-events="visible" opacity="1" fill="#000000" fill-opacity="0.000" stroke="#000000" stroke-opacity="0.000" class="guide background" id="img-adf770d6-15">
      <rect x="17.18" y="5" width="103.39" height="77.32" id="img-adf770d6-16"/>
    </g>
    <g class="guide ygridlines xfixed" stroke-dasharray="0.5,0.5" stroke-width="0.2" stroke="#D0D0E0" id="img-adf770d6-17">
      <path fill="none" d="M17.18,80.31 L 120.58 80.31" id="img-adf770d6-18"/>
      <path fill="none" d="M17.18,61.99 L 120.58 61.99" id="img-adf770d6-19"/>
      <path fill="none" d="M17.18,43.66 L 120.58 43.66" id="img-adf770d6-20"/>
      <path fill="none" d="M17.18,25.33 L 120.58 25.33" id="img-adf770d6-21"/>
      <path fill="none" d="M17.18,7 L 120.58 7" id="img-adf770d6-22"/>
    </g>
    <g class="guide xgridlines yfixed" stroke-dasharray="0.5,0.5" stroke-width="0.2" stroke="#D0D0E0" id="img-adf770d6-23">
      <path fill="none" d="M19.18,5 L 19.18 82.32" id="img-adf770d6-24"/>
      <path fill="none" d="M68.88,5 L 68.88 82.32" id="img-adf770d6-25"/>
      <path fill="none" d="M118.58,5 L 118.58 82.32" id="img-adf770d6-26"/>
    </g>
    <g class="plotpanel" id="img-adf770d6-27">
      <g stroke-width="0.3" fill="#000000" fill-opacity="0.000" class="geometry color_Source_2" stroke-dasharray="none" stroke="#D4CA3A" id="img-adf770d6-28">
        <path fill="none" d="M20.18,32.82 L 21.17 22.96 22.17 14.94 23.16 9.49 24.15 7.09 25.15 7.96 26.14 12.01 27.13 18.9 28.13 27.99 29.12 38.48 30.12 49.44 31.11 59.88 32.1 68.87 33.1 75.61 34.09 79.49 35.09 80.17 36.08 77.6 37.07 71.99 38.07 63.84 39.06 53.9 40.06 43.04 41.05 32.24 42.04 22.45 43.04 14.56 44.03 9.27 45.03 7.05 46.02 8.1 47.01 12.33 48.01 19.35 49 28.55 50 39.1 50.99 50.05 51.98 60.43 52.98 69.31 53.97 75.9 54.97 79.62 55.96 80.12 56.95 77.36 57.95 71.59 58.94 63.33 59.94 53.31 60.93 42.42 61.92 31.65 62.92 21.95 63.91 14.19 64.91 9.06 65.9 7.03 66.89 8.26 67.89 12.65 68.88 19.82 69.87 29.11 70.87 39.71 71.86 50.65 72.86 60.98 73.85 69.75 74.84 76.19 75.84 79.73 76.83 80.05 77.83 77.11 78.82 71.19 79.81 62.8 80.81 52.71 81.8 41.81 82.8 31.07 83.79 21.46 84.78 13.83 85.78 8.86 86.77 7.01 87.77 8.42 88.76 12.99 89.75 20.29 90.75 29.68 91.74 40.32 92.74 51.26 93.73 61.52 94.72 70.18 95.72 76.47 96.71 79.84 97.71 79.97 98.7 76.85 99.69 70.78 100.69 62.28 101.68 52.11 102.68 41.19 103.67 30.5 104.66 20.97 105.66 13.48 106.65 8.68 107.64 7 108.64 8.6 109.63 13.33 110.63 20.77 111.62 30.25 112.61 40.94 113.61 51.86 114.6 62.05 115.6 70.6 116.59 76.74 117.58 79.93 118.58 79.88" id="img-adf770d6-29"/>
      </g>
      <g stroke-width="0.3" fill="#000000" fill-opacity="0.000" class="geometry color_Source_1" stroke-dasharray="none" stroke="#00BFFF" id="img-adf770d6-30">
        <path fill="none" d="M20.18,41.83 L 21.17 40 22.17 38.18 23.16 36.37 24.15 34.59 25.15 32.82 26.14 31.09 27.13 29.38 28.13 27.71 29.12 26.08 30.12 24.5 31.11 22.96 32.1 21.47 33.1 20.04 34.09 18.67 35.09 17.36 36.08 16.12 37.07 14.94 38.07 13.84 39.06 12.81 40.06 11.86 41.05 10.99 42.04 10.2 43.04 9.49 44.03 8.87 45.03 8.34 46.02 7.89 47.01 7.53 48.01 7.27 49 7.09 50 7.01 50.99 7.02 51.98 7.11 52.98 7.31 53.97 7.59 54.97 7.96 55.96 8.42 56.95 8.97 57.95 9.6 58.94 10.32 59.94 11.13 60.93 12.01 61.92 12.98 62.92 14.02 63.91 15.14 64.91 16.32 65.9 17.58 66.89 18.9 67.89 20.28 68.88 21.72 69.87 23.21 70.87 24.76 71.86 26.35 72.86 27.99 73.85 29.67 74.84 31.38 75.84 33.12 76.83 34.89 77.83 36.68 78.82 38.48 79.81 40.3 80.81 42.13 81.8 43.97 82.8 45.8 83.79 47.62 84.78 49.44 85.78 51.24 86.77 53.02 87.77 54.78 88.76 56.52 89.75 58.22 90.75 59.88 91.74 61.5 92.74 63.08 93.73 64.61 94.72 66.09 95.72 67.51 96.71 68.87 97.71 70.17 98.7 71.4 99.69 72.56 100.69 73.65 101.68 74.67 102.68 75.61 103.67 76.47 104.66 77.24 105.66 77.93 106.65 78.54 107.64 79.06 108.64 79.49 109.63 79.83 110.63 80.08 111.62 80.24 112.61 80.31 113.61 80.29 114.6 80.17 115.6 79.97 116.59 79.67 117.58 79.29 118.58 78.81" id="img-adf770d6-31"/>
      </g>
    </g>
  </g>
</g>
  <g class="guide ylabels" font-size="2.82" font-family="'PT Sans Caption','Helvetica Neue','Helvetica',sans-serif" fill="#6C606B" id="img-adf770d6-32">
    <text x="16.18" y="80.31" text-anchor="end" dy="0.35em" id="img-adf770d6-33">0.0</text>
    <text x="16.18" y="61.99" text-anchor="end" dy="0.35em" id="img-adf770d6-34">0.5</text>
    <text x="16.18" y="43.66" text-anchor="end" dy="0.35em" id="img-adf770d6-35">1.0</text>
    <text x="16.18" y="25.33" text-anchor="end" dy="0.35em" id="img-adf770d6-36">1.5</text>
    <text x="16.18" y="7" text-anchor="end" dy="0.35em" id="img-adf770d6-37">2.0</text>
  </g>
  <g font-size="3.88" font-family="'PT Sans','Helvetica Neue','Helvetica',sans-serif" fill="#564A55" stroke="#000000" stroke-opacity="0.000" id="img-adf770d6-38">
    <text x="9.16" y="43.66" text-anchor="end" dy="0.35em" id="img-adf770d6-39">Y</text>
  </g>
</g>
<defs>
  <clipPath id="img-adf770d6-13">
  <path d="M17.18,5 L 120.58 5 120.58 82.32 17.18 82.32" />
</clipPath>
</defs>
</svg>
