<?xml version="1.0" encoding="UTF-8"?>
<svg xmlns="http://www.w3.org/2000/svg"
     xmlns:xlink="http://www.w3.org/1999/xlink"
     xmlns:gadfly="http://www.gadflyjl.org/ns"
     version="1.2"
     width="152.4mm" height="101.6mm" viewBox="0 0 152.4 101.6"
     stroke="none"
     fill="#000000"
     stroke-width="0.3"
     font-size="3.88"
>
<g class="plotroot xscalable yscalable" id="img-396547cf-1">
  <g font-size="3.88" font-family="'PT Sans','Helvetica Neue','Helvetica',sans-serif" fill="#564A55" stroke="#000000" stroke-opacity="0.000" id="img-396547cf-2">
    <text x="64.93" y="89.99" text-anchor="middle" dy="0.6em">X</text>
  </g>
  <g class="guide xlabels" font-size="2.82" font-family="'PT Sans Caption','Helvetica Neue','Helvetica',sans-serif" fill="#6C606B" id="img-396547cf-3">
    <text x="16.84" y="83.32" text-anchor="middle" dy="0.6em">0</text>
    <text x="64.93" y="83.32" text-anchor="middle" dy="0.6em">50</text>
    <text x="113.03" y="83.32" text-anchor="middle" dy="0.6em">100</text>
  </g>
  <g class="guide colorkey" id="img-396547cf-4">
    <g fill="#4C404B" font-size="2.82" font-family="'PT Sans','Helvetica Neue','Helvetica',sans-serif" id="img-396547cf-5">
      <text x="118.85" y="40.03" dy="0.35em" id="img-396547cf-6" class="color_Signal_1">Signal 1</text>
      <text x="118.85" y="43.66" dy="0.35em" id="img-396547cf-7" class="color_Signal_2">Signal 2</text>
      <text x="118.85" y="47.28" dy="0.35em" id="img-396547cf-8" class="color_Signal_3">Signal 3</text>
      <text x="118.85" y="50.91" dy="0.35em" id="img-396547cf-9" class="color_Signal_4">Signal 4</text>
    </g>
    <g stroke="#000000" stroke-opacity="0.000" id="img-396547cf-10">
      <rect x="116.03" y="39.12" width="1.81" height="1.81" id="img-396547cf-11" fill="#00BFFF" class="color_Signal_1"/>
      <rect x="116.03" y="42.75" width="1.81" height="1.81" id="img-396547cf-12" fill="#D4CA3A" class="color_Signal_2"/>
      <rect x="116.03" y="46.38" width="1.81" height="1.81" id="img-396547cf-13" fill="#FF6DAE" class="color_Signal_3"/>
      <rect x="116.03" y="50" width="1.81" height="1.81" id="img-396547cf-14" fill="#00B78D" class="color_Signal_4"/>
    </g>
    <g fill="#362A35" font-size="3.88" font-family="'PT Sans','Helvetica Neue','Helvetica',sans-serif" stroke="#000000" stroke-opacity="0.000" id="img-396547cf-15">
      <text x="116.03" y="36.21" id="img-396547cf-16">Reproduced signals</text>
    </g>
  </g>
<g clip-path="url(#img-396547cf-17)">
  <g id="img-396547cf-18">
    <g pointer-events="visible" opacity="1" fill="#000000" fill-opacity="0.000" stroke="#000000" stroke-opacity="0.000" class="guide background" id="img-396547cf-19">
      <rect x="14.84" y="5" width="100.2" height="77.32" id="img-396547cf-20"/>
    </g>
    <g class="guide ygridlines xfixed" stroke-dasharray="0.5,0.5" stroke-width="0.2" stroke="#D0D0E0" id="img-396547cf-21">
      <path fill="none" d="M14.84,80.32 L 115.03 80.32" id="img-396547cf-22"/>
      <path fill="none" d="M14.84,55.88 L 115.03 55.88" id="img-396547cf-23"/>
      <path fill="none" d="M14.84,31.44 L 115.03 31.44" id="img-396547cf-24"/>
      <path fill="none" d="M14.84,7 L 115.03 7" id="img-396547cf-25"/>
    </g>
    <g class="guide xgridlines yfixed" stroke-dasharray="0.5,0.5" stroke-width="0.2" stroke="#D0D0E0" id="img-396547cf-26">
      <path fill="none" d="M16.84,5 L 16.84 82.32" id="img-396547cf-27"/>
      <path fill="none" d="M64.93,5 L 64.93 82.32" id="img-396547cf-28"/>
      <path fill="none" d="M113.03,5 L 113.03 82.32" id="img-396547cf-29"/>
    </g>
    <g class="plotpanel" id="img-396547cf-30">
      <g stroke-width="0.3" fill="#000000" fill-opacity="0.000" class="geometry color_Signal_4" stroke-dasharray="none" stroke="#00B78D" id="img-396547cf-31">
        <path fill="none" d="M17.8,35.82 L 18.76 28.64 19.72 22.69 20.68 18.45 21.65 16.25 22.61 16.24 23.57 18.37 24.53 22.39 25.49 27.9 26.46 34.35 27.42 41.13 28.38 47.57 29.34 53.07 30.3 57.09 31.27 59.22 32.23 59.24 33.19 57.11 34.15 52.98 35.11 47.18 36.08 40.21 37.04 32.65 38 25.16 38.96 18.37 39.92 12.88 40.89 9.14 41.85 7.48 42.81 8.04 43.77 10.73 44.73 15.33 45.7 21.4 46.66 28.4 47.62 35.71 48.58 42.66 49.54 48.65 50.51 53.14 51.47 55.73 52.43 56.22 53.39 54.56 54.35 50.93 55.32 45.66 56.28 39.25 57.24 32.29 58.2 25.43 59.16 19.31 60.12 14.51 61.09 11.48 62.05 10.54 63.01 11.81 63.97 15.2 64.93 20.45 65.9 27.15 66.86 34.73 67.82 42.56 68.78 49.98 69.74 56.39 70.71 61.21 71.67 64.29 72.63 64.97 73.59 63.64 74.55 60.29 75.52 55.31 76.48 49.19 77.44 42.53 78.4 35.98 79.36 30.18 80.33 25.7 81.29 22.99 82.25 22.34 83.21 23.87 84.17 27.49 85.14 32.93 86.1 39.74 87.06 47.38 88.02 55.19 88.98 62.54 89.95 68.81 90.91 73.48 91.87 76.18 92.83 76.7 93.79 75.04 94.76 71.37 95.72 66.07 96.68 59.63 97.64 52.66 98.6 45.82 99.57 39.75 100.53 35.04 101.49 31.87 102.45 31.02 103.41 32.23 104.37 35.49 105.34 40.54 106.3 46.91 107.26 54.06 108.22 61.33 109.18 68.09 110.15 73.72 111.11 77.72 112.07 79.71 113.03 79.52" id="img-396547cf-32"/>
      </g>
      <g stroke-width="0.3" fill="#000000" fill-opacity="0.000" class="geometry color_Signal_3" stroke-dasharray="none" stroke="#FF6DAE" id="img-396547cf-33">
        <path fill="none" d="M17.8,38.19 L 18.76 32.92 19.72 28.03 20.68 23.7 21.65 20.07 22.61 17.27 23.57 15.38 24.53 14.47 25.49 14.54 26.46 15.58 27.42 17.51 28.38 20.25 29.34 23.67 30.3 27.6 31.27 31.88 32.23 36.32 33.19 40.73 34.15 44.91 35.11 48.68 36.08 51.88 37.04 54.36 38 56.03 38.96 56.79 39.92 56.62 40.89 55.5 41.85 53.48 42.81 50.62 43.77 47.05 44.73 42.88 45.7 38.3 46.66 33.47 47.62 28.6 48.58 23.87 49.54 19.47 50.51 15.58 51.47 12.37 52.43 9.95 53.39 8.44 54.35 7.91 55.32 8.37 56.28 9.83 57.24 12.23 58.2 15.48 59.16 19.48 60.12 24.08 61.09 29.1 62.05 34.36 63.01 39.66 63.97 44.82 64.93 49.64 65.9 53.95 66.86 57.59 67.82 60.44 68.78 62.41 69.74 63.44 70.71 63.51 71.67 62.6 72.63 60.85 73.59 58.28 74.55 55.05 75.52 51.3 76.48 47.2 77.44 42.94 78.4 38.71 79.36 34.71 80.33 31.11 81.29 28.09 82.25 25.78 83.21 24.3 84.17 23.73 85.14 24.11 86.1 25.46 87.06 27.73 88.02 30.86 88.98 34.75 89.95 39.24 90.91 44.2 91.87 49.43 92.83 54.74 93.79 59.94 94.76 64.84 95.72 69.25 96.68 73.01 97.64 76 98.6 78.09 99.57 79.12 100.53 78.98 101.49 78.88 102.45 76.65 103.41 73.95 104.37 70.49 105.34 66.42 106.3 61.88 107.26 57.08 108.22 52.2 109.18 47.44 110.15 42.97 111.11 38.99 112.07 35.64 113.03 33.06" id="img-396547cf-34"/>
      </g>
      <g stroke-width="0.3" fill="#000000" fill-opacity="0.000" class="geometry color_Signal_2" stroke-dasharray="none" stroke="#D4CA3A" id="img-396547cf-35">
        <path fill="none" d="M17.8,34.01 L 18.76 25.1 19.72 17.61 20.68 12.11 21.65 9 22.61 8.47 23.57 10.52 24.53 14.94 25.49 21.31 26.46 29.1 27.42 37.63 28.38 46.22 29.34 54.17 30.3 60.86 31.27 65.82 32.23 68.72 33.19 69.41 34.15 67.95 35.11 64.59 36.08 59.73 37.04 53.9 38 47.67 38.96 41.66 39.92 36.43 40.89 32.45 41.85 30.05 42.81 29.4 43.77 30.49 44.73 33.13 45.7 37 46.66 41.63 47.62 46.49 48.58 51.03 49.54 54.72 50.51 57.13 51.47 57.93 52.43 56.98 53.39 54.3 54.35 50.08 55.32 44.68 56.28 38.6 57.24 32.39 58.2 26.68 59.16 22.04 60.12 18.98 61.09 17.87 62.05 18.93 63.01 22.19 63.97 27.47 64.93 34.41 65.9 42.51 66.86 51.14 67.82 59.6 68.78 67.19 69.74 73.27 70.71 77.73 71.67 78.15 72.63 78.24 73.59 74.43 74.55 68.57 75.52 60.8 76.48 51.72 77.44 42.01 78.4 32.44 79.36 23.73 80.33 16.54 81.29 11.42 82.25 8.73 83.21 8.64 84.17 11.11 85.14 15.88 86.1 22.54 87.06 30.5 88.02 39.09 88.98 47.62 89.95 55.4 90.91 61.83 91.87 66.46 92.83 68.99 93.79 69.31 94.76 67.51 95.72 63.87 96.68 58.8 97.64 52.86 98.6 46.63 99.57 40.72 100.53 35.67 101.49 31.93 102.45 29.82 103.41 29.46 104.37 30.83 105.34 33.71 106.3 37.74 107.26 42.45 108.22 47.29 109.18 51.73 110.15 55.23 111.11 57.38 112.07 57.9 113.03 56.65" id="img-396547cf-36"/>
      </g>
      <g stroke-width="0.3" fill="#000000" fill-opacity="0.000" class="geometry color_Signal_1" stroke-dasharray="none" stroke="#00BFFF" id="img-396547cf-37">
        <path fill="none" d="M17.8,37.01 L 18.76 30.78 19.72 25.37 20.68 21.08 21.65 18.17 22.61 16.76 23.57 16.88 24.53 18.44 25.49 21.22 26.46 24.97 27.42 29.32 28.38 33.91 29.34 38.36 30.3 42.34 31.27 45.54 32.23 47.77 33.19 48.9 34.15 48.93 35.11 47.91 36.08 46.03 37.04 43.49 38 40.58 38.96 37.57 39.92 34.74 40.89 32.31 41.85 30.47 42.81 29.32 43.77 28.88 44.73 29.1 45.7 29.84 46.66 30.93 47.62 32.14 48.58 33.25 49.54 34.05 50.51 34.35 51.47 34.04 52.43 33.08 53.39 31.49 54.35 29.41 55.32 27.01 56.28 24.53 57.24 22.25 58.2 20.46 59.16 19.4 60.12 19.29 61.09 20.29 62.05 22.45 63.01 25.73 63.97 30.01 64.93 35.04 65.9 40.54 66.86 46.15 67.82 51.49 68.78 56.19 69.74 59.9 70.71 62.35 71.67 63.43 72.63 62.9 73.59 60.95 74.55 57.66 75.52 53.3 76.48 48.19 77.44 42.73 78.4 37.35 79.36 32.45 80.33 28.42 81.29 25.55 82.25 24.08 83.21 24.1 84.17 25.63 85.14 28.54 86.1 32.62 87.06 37.57 88.02 43.04 88.98 48.65 89.95 54.04 90.91 58.85 91.87 62.81 92.83 65.72 93.79 67.49 94.76 68.11 95.72 67.66 96.68 66.33 97.64 64.34 98.6 61.96 99.57 59.44 100.53 57.02 101.49 55.39 102.45 53.84 103.41 53.1 104.37 53.01 105.34 53.49 106.3 54.41 107.26 55.58 108.22 56.78 109.18 57.77 110.15 58.36 111.11 58.37 112.07 57.69 113.03 56.3" id="img-396547cf-38"/>
      </g>
    </g>
  </g>
</g>
  <g class="guide ylabels" font-size="2.82" font-family="'PT Sans Caption','Helvetica Neue','Helvetica',sans-serif" fill="#6C606B" id="img-396547cf-39">
    <text x="13.84" y="80.32" text-anchor="end" dy="0.35em" id="img-396547cf-40">0</text>
    <text x="13.84" y="55.88" text-anchor="end" dy="0.35em" id="img-396547cf-41">1</text>
    <text x="13.84" y="31.44" text-anchor="end" dy="0.35em" id="img-396547cf-42">2</text>
    <text x="13.84" y="7" text-anchor="end" dy="0.35em" id="img-396547cf-43">3</text>
  </g>
  <g font-size="3.88" font-family="'PT Sans','Helvetica Neue','Helvetica',sans-serif" fill="#564A55" stroke="#000000" stroke-opacity="0.000" id="img-396547cf-44">
    <text x="9.16" y="43.66" text-anchor="end" dy="0.35em" id="img-396547cf-45">Y</text>
  </g>
</g>
<defs>
  <clipPath id="img-396547cf-17">
  <path d="M14.84,5 L 115.03 5 115.03 82.32 14.84 82.32" />
</clipPath>
</defs>
</svg>
