<?xml version="1.0" encoding="UTF-8"?>
<svg xmlns="http://www.w3.org/2000/svg"
     xmlns:xlink="http://www.w3.org/1999/xlink"
     xmlns:gadfly="http://www.gadflyjl.org/ns"
     version="1.2"
     width="152.4mm" height="101.6mm" viewBox="0 0 152.4 101.6"
     stroke="none"
     fill="#000000"
     stroke-width="0.3"
     font-size="3.88"
>
<g class="plotroot xscalable yscalable" id="img-59061e9d-1">
  <g font-size="3.88" font-family="'PT Sans','Helvetica Neue','Helvetica',sans-serif" fill="#564A55" stroke="#000000" stroke-opacity="0.000" id="img-59061e9d-2">
    <text x="68.92" y="89.99" text-anchor="middle" dy="0.6em">X</text>
  </g>
  <g class="guide xlabels" font-size="2.82" font-family="'PT Sans Caption','Helvetica Neue','Helvetica',sans-serif" fill="#6C606B" id="img-59061e9d-3">
    <text x="20.86" y="83.32" text-anchor="middle" dy="0.6em">0</text>
    <text x="68.92" y="83.32" text-anchor="middle" dy="0.6em">50</text>
    <text x="116.99" y="83.32" text-anchor="middle" dy="0.6em">100</text>
  </g>
  <g class="guide colorkey" id="img-59061e9d-4">
    <g fill="#4C404B" font-size="2.82" font-family="'PT Sans','Helvetica Neue','Helvetica',sans-serif" id="img-59061e9d-5">
      <text x="122.81" y="43.66" dy="0.35em" id="img-59061e9d-6" class="color_Source_1">Source 1</text>
      <text x="122.81" y="47.28" dy="0.35em" id="img-59061e9d-7" class="color_Source_2">Source 2</text>
    </g>
    <g stroke="#000000" stroke-opacity="0.000" id="img-59061e9d-8">
      <rect x="119.99" y="42.75" width="1.81" height="1.81" id="img-59061e9d-9" class="color_Source_1" fill="#00BFFF"/>
      <rect x="119.99" y="46.38" width="1.81" height="1.81" id="img-59061e9d-10" class="color_Source_2" fill="#D4CA3A"/>
    </g>
    <g fill="#362A35" font-size="3.88" font-family="'PT Sans','Helvetica Neue','Helvetica',sans-serif" stroke="#000000" stroke-opacity="0.000" id="img-59061e9d-11">
      <text x="119.99" y="39.84" id="img-59061e9d-12">Unmixed sources</text>
    </g>
  </g>
<g clip-path="url(#img-59061e9d-13)">
  <g id="img-59061e9d-14">
    <g pointer-events="visible" opacity="1" fill="#000000" fill-opacity="0.000" stroke="#000000" stroke-opacity="0.000" class="guide background" id="img-59061e9d-15">
      <rect x="18.86" y="5" width="100.14" height="77.32" id="img-59061e9d-16"/>
    </g>
    <g class="guide ygridlines xfixed" stroke-dasharray="0.5,0.5" stroke-width="0.2" stroke="#D0D0E0" id="img-59061e9d-17">
      <path fill="none" d="M18.86,80.32 L 118.99 80.32" id="img-59061e9d-18"/>
      <path fill="none" d="M18.86,55.88 L 118.99 55.88" id="img-59061e9d-19"/>
      <path fill="none" d="M18.86,31.44 L 118.99 31.44" id="img-59061e9d-20"/>
      <path fill="none" d="M18.86,7 L 118.99 7" id="img-59061e9d-21"/>
    </g>
    <g class="guide xgridlines yfixed" stroke-dasharray="0.5,0.5" stroke-width="0.2" stroke="#D0D0E0" id="img-59061e9d-22">
      <path fill="none" d="M20.86,5 L 20.86 82.32" id="img-59061e9d-23"/>
      <path fill="none" d="M68.92,5 L 68.92 82.32" id="img-59061e9d-24"/>
      <path fill="none" d="M116.99,5 L 116.99 82.32" id="img-59061e9d-25"/>
    </g>
    <g class="plotpanel" id="img-59061e9d-26">
      <g stroke-width="0.3" fill="#000000" fill-opacity="0.000" class="geometry color_Source_2" stroke-dasharray="none" stroke="#D4CA3A" id="img-59061e9d-27">
        <path fill="none" d="M21.82,53.44 L 22.78 47.7 23.74 43.09 24.7 40.02 25.66 38.78 26.62 39.51 27.59 42.12 28.55 46.41 29.51 52.02 30.47 58.54 31.43 65.49 32.39 72.18 33.35 77.52 34.32 80.15 35.28 79.96 36.24 79.56 37.2 80.25 38.16 79.51 39.12 75.71 40.08 69.74 41.05 62.97 42.01 56.36 42.97 50.5 43.93 45.85 44.89 42.78 45.85 41.52 46.81 42.18 47.77 44.72 48.74 48.93 49.7 54.52 50.66 61.06 51.62 68.04 52.58 74.58 53.54 79.2 54.5 80.18 55.47 78.32 56.43 77.95 57.39 79.88 58.35 79.78 59.31 75.86 60.27 69.58 61.23 62.57 62.2 55.78 63.16 49.81 64.12 45.07 65.08 41.92 66.04 40.58 67 41.18 67.96 43.64 68.92 47.75 69.89 53.16 70.85 59.44 71.81 66.03 72.77 72.24 73.73 77.1 74.69 79.7 75.65 80.3 76.62 80.3 77.58 79.66 78.54 76.95 79.5 71.94 80.46 65.53 81.42 58.65 82.38 51.95 83.34 45.94 84.31 41.08 85.27 37.81 86.23 36.44 87.19 37.1 88.15 39.72 89.11 44.02 90.07 49.58 91.04 55.91 92 62.48 92.96 68.72 93.92 73.97 94.88 77.54 95.84 79.14 96.8 79.19 97.77 77.65 98.73 74 99.69 68.57 100.65 62.21 101.61 55.71 102.57 49.82 103.53 45.43 104.49 43.27 105.46 43.25 106.42 44.18 107.38 44.89 108.34 45.58 109.3 47.39 110.26 51.03 111.22 56.23 112.19 62.28 113.15 68.43 114.11 73.95 115.07 77.92 116.03 79.61 116.99 79.53" id="img-59061e9d-28"/>
      </g>
      <g stroke-width="0.3" fill="#000000" fill-opacity="0.000" class="geometry color_Source_1" stroke-dasharray="none" stroke="#00BFFF" id="img-59061e9d-29">
        <path fill="none" d="M21.82,53.03 L 22.78 52.8 23.74 52.34 24.7 51.52 25.66 50.23 26.62 48.46 27.59 46.29 28.55 43.86 29.51 41.3 30.47 38.72 31.43 36.19 32.39 33.84 33.35 31.9 34.32 30.7 35.28 30.11 36.24 29.29 37.2 27.84 38.16 26.51 39.12 25.93 40.08 25.97 41.05 26.28 42.01 26.65 42.97 26.97 43.93 27.16 44.89 27.16 45.85 26.93 46.81 26.45 47.77 25.72 48.74 24.8 49.7 23.75 50.66 22.62 51.62 21.51 52.58 20.61 53.54 20.33 54.5 21.07 55.47 22.38 56.43 22.91 57.39 22.41 58.35 22.22 59.31 23.06 60.27 24.62 61.23 26.47 62.2 28.38 63.16 30.25 64.12 32.02 65.08 33.6 66.04 34.92 67 35.93 67.96 36.63 68.92 37.07 69.89 37.31 70.85 37.47 71.81 37.62 72.77 37.92 73.73 38.57 74.69 39.73 75.65 41.24 76.62 42.65 77.58 43.99 78.54 45.72 79.5 48.02 80.46 50.72 81.42 53.69 82.38 56.84 83.34 60.06 84.31 63.21 85.27 66.01 86.23 68.21 87.19 69.63 88.15 70.27 89.11 70.31 90.07 69.99 91.04 69.53 92 69.13 92.96 68.95 93.92 69.08 94.88 69.63 95.84 70.56 96.8 71.68 97.77 72.95 98.73 74.5 99.69 76.33 100.65 78.26 101.61 79.86 102.57 80.2 103.53 77.71 104.49 70.85 105.46 60.73 106.42 53.05 107.38 53.71 108.34 61.66 109.3 70.77 110.26 76.86 111.22 79.62 112.19 80.31 113.15 80.11 114.11 79.71 115.07 79.45 116.03 79.29 116.99 78.96" id="img-59061e9d-30"/>
      </g>
    </g>
  </g>
</g>
  <g class="guide ylabels" font-size="2.82" font-family="'PT Sans Caption','Helvetica Neue','Helvetica',sans-serif" fill="#6C606B" id="img-59061e9d-31">
    <text x="17.86" y="80.32" text-anchor="end" dy="0.35em" id="img-59061e9d-32">0.00</text>
    <text x="17.86" y="55.88" text-anchor="end" dy="0.35em" id="img-59061e9d-33">0.05</text>
    <text x="17.86" y="31.44" text-anchor="end" dy="0.35em" id="img-59061e9d-34">0.10</text>
    <text x="17.86" y="7" text-anchor="end" dy="0.35em" id="img-59061e9d-35">0.15</text>
  </g>
  <g font-size="3.88" font-family="'PT Sans','Helvetica Neue','Helvetica',sans-serif" fill="#564A55" stroke="#000000" stroke-opacity="0.000" id="img-59061e9d-36">
    <text x="9.16" y="43.66" text-anchor="end" dy="0.35em" id="img-59061e9d-37">Y</text>
  </g>
</g>
<defs>
  <clipPath id="img-59061e9d-13">
  <path d="M18.86,5 L 118.99 5 118.99 82.32 18.86 82.32" />
</clipPath>
</defs>
</svg>
