<?xml version="1.0" encoding="UTF-8"?>
<svg xmlns="http://www.w3.org/2000/svg"
     xmlns:xlink="http://www.w3.org/1999/xlink"
     xmlns:gadfly="http://www.gadflyjl.org/ns"
     version="1.2"
     width="152.4mm" height="304.8mm" viewBox="0 0 152.4 304.8"
     stroke="none"
     fill="#000000"
     stroke-width="0.3"
     font-size="3.88"
>
<g class="plotroot xscalable yscalable" id="img-648e56c7-1">
  <g font-size="4.94" font-family="'PT Sans','Helvetica Neue','Helvetica',sans-serif" fill="#564A55" stroke="#000000" stroke-opacity="0.000" id="img-648e56c7-2">
    <text x="76.69" y="292.17" text-anchor="middle" dy="0.6em">Time [a]</text>
  </g>
  <g class="guide xlabels" font-size="4.23" font-family="'PT Sans Caption','Helvetica Neue','Helvetica',sans-serif" fill="#6C606B" id="img-648e56c7-3">
    <text x="32.22" y="285.09" text-anchor="middle" dy="0.6em">0</text>
    <text x="50.01" y="285.09" text-anchor="middle" dy="0.6em">10</text>
    <text x="67.8" y="285.09" text-anchor="middle" dy="0.6em">20</text>
    <text x="85.59" y="285.09" text-anchor="middle" dy="0.6em">30</text>
    <text x="103.38" y="285.09" text-anchor="middle" dy="0.6em">40</text>
    <text x="121.17" y="285.09" text-anchor="middle" dy="0.6em">50</text>
  </g>
  <g class="guide colorkey" id="img-648e56c7-4">
    <g fill="#4C404B" font-size="4.23" font-family="'PT Sans','Helvetica Neue','Helvetica',sans-serif" id="img-648e56c7-5">
      <text x="127.87" y="256.15" dy="0.35em" id="img-648e56c7-6" class="color_v">v</text>
      <text x="127.87" y="261.55" dy="0.35em" id="img-648e56c7-7" class="color_t0">t<tspan style="dominant-baseline:inherit" dy="1.7225" font-size="83.3333%">0</tspan><tspan style="dominant-baseline:inherit" dy="-1.4355"></tspan></text>
      <text x="127.87" y="266.94" dy="0.35em" id="img-648e56c7-8" class="color_t1">t<tspan style="dominant-baseline:inherit" dy="1.7225" font-size="83.3333%">1</tspan><tspan style="dominant-baseline:inherit" dy="-1.4355"></tspan></text>
    </g>
    <g stroke="#000000" stroke-opacity="0.000" id="img-648e56c7-9">
      <rect x="124.17" y="254.8" width="2.7" height="2.7" id="img-648e56c7-10" class="color_v" fill="#00BFFF"/>
      <rect x="124.17" y="260.2" width="2.7" height="2.7" id="img-648e56c7-11" class="color_t0" fill="#D4CA3A"/>
      <rect x="124.17" y="265.59" width="2.7" height="2.7" id="img-648e56c7-12" class="color_t1" fill="#FF6DAE"/>
    </g>
    <g fill="#362A35" font-size="5.64" font-family="'PT Sans','Helvetica Neue','Helvetica',sans-serif" stroke="#000000" stroke-opacity="0.000" id="img-648e56c7-13">
      <text x="124.17" y="251.07" id="img-648e56c7-14">parameter</text>
    </g>
  </g>
<g clip-path="url(#img-648e56c7-15)">
  <g id="img-648e56c7-16">
    <g pointer-events="visible" opacity="1" fill="#000000" fill-opacity="0.000" stroke="#000000" stroke-opacity="0.000" class="guide background" id="img-648e56c7-17">
      <rect x="30.22" y="233.6" width="92.95" height="50.49" id="img-648e56c7-18"/>
    </g>
    <g class="guide ygridlines xfixed" stroke-dasharray="0.5,0.5" stroke-width="0.2" stroke="#D0D0E0" id="img-648e56c7-19">
      <path fill="none" d="M30.22,282.09 L 123.17 282.09" id="img-648e56c7-20"/>
      <path fill="none" d="M30.22,270.47 L 123.17 270.47" id="img-648e56c7-21"/>
      <path fill="none" d="M30.22,258.85 L 123.17 258.85" id="img-648e56c7-22"/>
      <path fill="none" d="M30.22,247.22 L 123.17 247.22" id="img-648e56c7-23"/>
      <path fill="none" d="M30.22,235.6 L 123.17 235.6" id="img-648e56c7-24"/>
    </g>
    <g class="guide xgridlines yfixed" stroke-dasharray="0.5,0.5" stroke-width="0.2" stroke="#D0D0E0" id="img-648e56c7-25">
      <path fill="none" d="M32.22,233.6 L 32.22 284.09" id="img-648e56c7-26"/>
      <path fill="none" d="M50.01,233.6 L 50.01 284.09" id="img-648e56c7-27"/>
      <path fill="none" d="M67.8,233.6 L 67.8 284.09" id="img-648e56c7-28"/>
      <path fill="none" d="M85.59,233.6 L 85.59 284.09" id="img-648e56c7-29"/>
      <path fill="none" d="M103.38,233.6 L 103.38 284.09" id="img-648e56c7-30"/>
      <path fill="none" d="M121.17,233.6 L 121.17 284.09" id="img-648e56c7-31"/>
    </g>
    <g class="plotpanel" id="img-648e56c7-32">
      <g stroke-width="0.3" fill="#000000" fill-opacity="0.000" stroke-dasharray="none" id="img-648e56c7-33">
        <path fill="none" d="M33.99,282.09 L 35.77 282.09 37.55 282.09 39.33 282.09 41.11 282.08 42.89 282.04 44.67 281.91 46.45 281.64 48.23 281.18 50.01 280.53 51.79 279.69 53.56 278.65 55.34 277.46 57.12 276.21 58.9 275.02 60.68 273.98 62.46 273.07 64.24 272.28 66.02 271.54 67.8 270.83 69.58 270.1 71.35 269.34 73.13 268.54 74.91 267.69 76.69 266.77 78.47 265.8 80.25 264.77 82.03 263.7 83.81 262.56 85.59 261.37 87.37 260.12 89.15 258.85 90.92 257.55 92.7 256.21 94.48 254.85 96.26 253.47 98.04 252.11 99.82 250.76 101.6 249.43 103.38 248.12 105.16 246.85 106.94 245.66 108.72 244.53 110.49 243.53 112.27 242.72 114.05 242.16 115.83 241.89 117.61 241.89 119.39 242.15 121.17 242.66" id="img-648e56c7-34" class="geometry color_v" stroke="#00BFFF"/>
        <path fill="none" d="M33.99,282.09 L 35.77 282.09 37.55 282.09 39.33 282.09 41.11 282.07 42.89 281.95 44.67 281.67 46.45 281.19 48.23 280.49 50.01 279.68 51.79 278.89 53.56 278.26 55.34 277.95 57.12 277.98 58.9 278.26 60.68 278.66 62.46 279.1 64.24 279.52 66.02 279.87 67.8 280.14 69.58 280.35 71.35 280.55 73.13 280.75 74.91 280.91 76.69 281.02 78.47 281.1 80.25 281.2 82.03 281.3 83.81 281.39 85.59 281.44 87.37 281.48 89.15 281.52 90.92 281.58 92.7 281.63 94.48 281.66 96.26 281.68 98.04 281.7 99.82 281.73 101.6 281.76 103.38 281.78 105.16 281.79 106.94 281.8 108.72 281.82 110.49 281.83 112.27 281.84 114.05 281.86 115.83 281.86 117.61 281.87 119.39 281.88 121.17 281.89" id="img-648e56c7-35" class="geometry color_t0" stroke="#D4CA3A"/>
        <path fill="none" d="M33.99,282.09 L 35.77 282.09 37.55 282.09 39.33 282.09 41.11 282.09 42.89 282.09 44.67 282.09 46.45 282.09 48.23 282.09 50.01 282.09 51.79 282.08 53.56 282.03 55.34 281.92 57.12 281.69 58.9 281.31 60.68 280.74 62.46 280 64.24 279.1 66.02 278.08 67.8 276.96 69.58 275.76 71.35 274.51 73.13 273.22 74.91 271.92 76.69 270.59 78.47 269.27 80.25 267.99 82.03 266.75 83.81 265.56 85.59 264.47 87.37 263.45 89.15 262.54 90.92 261.78 92.7 261.13 94.48 260.64 96.26 260.34 98.04 260.19 99.82 260.26 101.6 260.55 103.38 261.05 105.16 261.79 106.94 262.8 108.72 264.05 110.49 265.48 112.27 267 114.05 268.48 115.83 269.83 117.61 271.03 119.39 272.07 121.17 272.97" id="img-648e56c7-36" class="geometry color_t1" stroke="#FF6DAE"/>
      </g>
    </g>
  </g>
</g>
  <g class="guide ylabels" font-size="4.23" font-family="'PT Sans Caption','Helvetica Neue','Helvetica',sans-serif" fill="#6C606B" id="img-648e56c7-37">
    <text x="29.22" y="282.09" text-anchor="end" dy="0.35em" id="img-648e56c7-38">0</text>
    <text x="29.22" y="270.47" text-anchor="end" dy="0.35em" id="img-648e56c7-39">5.0×10³</text>
    <text x="29.22" y="258.85" text-anchor="end" dy="0.35em" id="img-648e56c7-40">1.0×10⁴</text>
    <text x="29.22" y="247.22" text-anchor="end" dy="0.35em" id="img-648e56c7-41">1.5×10⁴</text>
    <text x="29.22" y="235.6" text-anchor="end" dy="0.35em" id="img-648e56c7-42">2.0×10⁴</text>
  </g>
  <g font-size="4.94" font-family="'PT Sans','Helvetica Neue','Helvetica',sans-serif" fill="#564A55" stroke="#000000" stroke-opacity="0.000" id="img-648e56c7-43">
    <text x="9.25" y="256.85" text-anchor="middle" dy="0.35em" transform="rotate(-90, 9.25, 258.85)" id="img-648e56c7-44">Output Variance</text>
  </g>
</g>
<g class="plotroot xscalable yscalable" id="img-648e56c7-45">
  <g font-size="4.94" font-family="'PT Sans','Helvetica Neue','Helvetica',sans-serif" fill="#564A55" stroke="#000000" stroke-opacity="0.000" id="img-648e56c7-46">
    <text x="71.7" y="215.97" text-anchor="middle" dy="0.6em" id="img-648e56c7-47">Time [a]</text>
  </g>
  <g class="guide xlabels" font-size="4.23" font-family="'PT Sans Caption','Helvetica Neue','Helvetica',sans-serif" fill="#6C606B" id="img-648e56c7-48">
    <text x="22.22" y="208.89" text-anchor="middle" dy="0.6em" id="img-648e56c7-49">0</text>
    <text x="42.01" y="208.89" text-anchor="middle" dy="0.6em" id="img-648e56c7-50">10</text>
    <text x="61.8" y="208.89" text-anchor="middle" dy="0.6em" id="img-648e56c7-51">20</text>
    <text x="81.59" y="208.89" text-anchor="middle" dy="0.6em" id="img-648e56c7-52">30</text>
    <text x="101.38" y="208.89" text-anchor="middle" dy="0.6em" id="img-648e56c7-53">40</text>
    <text x="121.17" y="208.89" text-anchor="middle" dy="0.6em" id="img-648e56c7-54">50</text>
  </g>
  <g class="guide colorkey" id="img-648e56c7-55">
    <g fill="#4C404B" font-size="4.23" font-family="'PT Sans','Helvetica Neue','Helvetica',sans-serif" id="img-648e56c7-56">
      <text x="127.87" y="179.95" dy="0.35em" id="img-648e56c7-57" class="color_v">v</text>
      <text x="127.87" y="185.35" dy="0.35em" id="img-648e56c7-58" class="color_t0">t<tspan style="dominant-baseline:inherit" dy="1.7225" font-size="83.3333%">0</tspan><tspan style="dominant-baseline:inherit" dy="-1.4355"></tspan></text>
      <text x="127.87" y="190.74" dy="0.35em" id="img-648e56c7-59" class="color_t1">t<tspan style="dominant-baseline:inherit" dy="1.7225" font-size="83.3333%">1</tspan><tspan style="dominant-baseline:inherit" dy="-1.4355"></tspan></text>
    </g>
    <g stroke="#000000" stroke-opacity="0.000" id="img-648e56c7-60">
      <rect x="124.17" y="178.6" width="2.7" height="2.7" id="img-648e56c7-61" class="color_v" fill="#00BFFF"/>
      <rect x="124.17" y="184" width="2.7" height="2.7" id="img-648e56c7-62" class="color_t0" fill="#D4CA3A"/>
      <rect x="124.17" y="189.39" width="2.7" height="2.7" id="img-648e56c7-63" class="color_t1" fill="#FF6DAE"/>
    </g>
    <g fill="#362A35" font-size="5.64" font-family="'PT Sans','Helvetica Neue','Helvetica',sans-serif" stroke="#000000" stroke-opacity="0.000" id="img-648e56c7-64">
      <text x="124.17" y="174.87" id="img-648e56c7-65">parameter</text>
    </g>
  </g>
<g clip-path="url(#img-648e56c7-66)">
  <g id="img-648e56c7-67">
    <g pointer-events="visible" opacity="1" fill="#000000" fill-opacity="0.000" stroke="#000000" stroke-opacity="0.000" class="guide background" id="img-648e56c7-68">
      <rect x="20.22" y="157.4" width="102.94" height="50.49" id="img-648e56c7-69"/>
    </g>
    <g class="guide ygridlines xfixed" stroke-dasharray="0.5,0.5" stroke-width="0.2" stroke="#D0D0E0" id="img-648e56c7-70">
      <path fill="none" d="M20.22,205.89 L 123.17 205.89" id="img-648e56c7-71"/>
      <path fill="none" d="M20.22,182.65 L 123.17 182.65" id="img-648e56c7-72"/>
      <path fill="none" d="M20.22,159.4 L 123.17 159.4" id="img-648e56c7-73"/>
    </g>
    <g class="guide xgridlines yfixed" stroke-dasharray="0.5,0.5" stroke-width="0.2" stroke="#D0D0E0" id="img-648e56c7-74">
      <path fill="none" d="M22.22,157.4 L 22.22 207.89" id="img-648e56c7-75"/>
      <path fill="none" d="M42.01,157.4 L 42.01 207.89" id="img-648e56c7-76"/>
      <path fill="none" d="M61.8,157.4 L 61.8 207.89" id="img-648e56c7-77"/>
      <path fill="none" d="M81.59,157.4 L 81.59 207.89" id="img-648e56c7-78"/>
      <path fill="none" d="M101.38,157.4 L 101.38 207.89" id="img-648e56c7-79"/>
      <path fill="none" d="M121.17,157.4 L 121.17 207.89" id="img-648e56c7-80"/>
    </g>
    <g class="plotpanel" id="img-648e56c7-81">
      <g stroke-width="0.71" fill="#000000" fill-opacity="0.000" stroke-dasharray="none" id="img-648e56c7-82">
        <path fill="none" d="M24.2,204.99 L 26.18 204.63 28.16 203.59 30.14 202.3 32.12 200.89 34.1 199.4 36.08 197.86 38.06 196.26 40.03 194.61 42.01 192.88 43.99 191.02 45.97 188.92 47.95 186.63 49.93 184.5 51.91 182.97 53.89 182.15 55.87 181.93 57.84 182.09 59.82 182.47 61.8 182.96 63.78 183.48 65.76 184 67.74 184.47 69.72 184.87 71.7 185.19 73.68 185.44 75.65 185.63 77.63 185.75 79.61 185.8 81.59 185.78 83.57 185.71 85.55 185.6 87.53 185.46 89.51 185.27 91.49 185.05 93.46 184.8 95.44 184.56 97.42 184.29 99.4 184.02 101.38 183.72 103.36 183.42 105.34 183.12 107.32 182.8 109.3 182.49 111.27 182.25 113.25 182.1 115.23 182.05 117.21 182.1 119.19 182.23 121.17 182.45" id="img-648e56c7-83" class="geometry color_v" stroke="#00BFFF"/>
        <path fill="none" d="M24.2,204.12 L 26.18 201.49 28.16 197.98 30.14 194.36 32.12 191.33 34.1 189.23 36.08 187.72 38.06 186.68 40.03 186.05 42.01 185.85 43.99 186.17 45.97 187.12 47.95 188.8 49.93 191.07 51.91 193.53 53.89 195.84 55.87 197.87 57.84 199.56 59.82 200.88 61.8 201.86 63.78 202.61 65.76 203.24 67.74 203.78 69.72 204.19 71.7 204.48 73.68 204.69 75.65 204.88 77.63 205.05 79.61 205.18 81.59 205.26 83.57 205.32 85.55 205.38 87.53 205.44 89.51 205.49 91.49 205.53 93.46 205.55 95.44 205.58 97.42 205.61 99.4 205.63 101.38 205.65 103.36 205.67 105.34 205.68 107.32 205.69 109.3 205.71 111.27 205.72 113.25 205.73 115.23 205.74 117.21 205.75 119.19 205.76 121.17 205.77" id="img-648e56c7-84" class="geometry color_t0" stroke="#D4CA3A"/>
        <path fill="none" d="M24.2,205.02 L 26.18 205.28 28.16 205.71 30.14 205.87 32.12 205.89 34.1 205.89 36.08 205.89 38.06 205.89 40.03 205.89 42.01 205.85 43.99 205.74 45.97 205.45 47.95 204.85 49.93 203.9 51.91 202.68 53.89 201.34 55.87 200.09 57.84 198.98 59.82 197.97 61.8 197.02 63.78 196.12 65.76 195.26 67.74 194.43 69.72 193.66 71.7 192.94 73.68 192.29 75.65 191.73 77.63 191.25 79.61 190.86 81.59 190.56 83.57 190.34 85.55 190.2 87.53 190.15 89.51 190.18 91.49 190.29 93.46 190.48 95.44 190.74 97.42 191.1 99.4 191.55 101.38 192.07 103.36 192.7 105.34 193.45 107.32 194.29 109.3 195.21 111.27 196.15 113.25 197.05 115.23 197.86 117.21 198.56 119.19 199.17 121.17 199.69" id="img-648e56c7-85" class="geometry color_t1" stroke="#FF6DAE"/>
      </g>
    </g>
  </g>
</g>
  <g class="guide ylabels" font-size="4.23" font-family="'PT Sans Caption','Helvetica Neue','Helvetica',sans-serif" fill="#6C606B" id="img-648e56c7-86">
    <text x="19.22" y="205.89" text-anchor="end" dy="0.35em" id="img-648e56c7-87">0.0</text>
    <text x="19.22" y="182.65" text-anchor="end" dy="0.35em" id="img-648e56c7-88">0.5</text>
    <text x="19.22" y="159.4" text-anchor="end" dy="0.35em" id="img-648e56c7-89">1.0</text>
  </g>
  <g font-size="4.94" font-family="'PT Sans','Helvetica Neue','Helvetica',sans-serif" fill="#564A55" stroke="#000000" stroke-opacity="0.000" id="img-648e56c7-90">
    <text x="8.78" y="180.65" text-anchor="middle" dy="0.35em" transform="rotate(-90, 8.78, 182.65)" id="img-648e56c7-91">Main Effect</text>
  </g>
</g>
<g class="plotroot xscalable yscalable" id="img-648e56c7-92">
  <g font-size="4.94" font-family="'PT Sans','Helvetica Neue','Helvetica',sans-serif" fill="#564A55" stroke="#000000" stroke-opacity="0.000" id="img-648e56c7-93">
    <text x="71.69" y="139.77" text-anchor="middle" dy="0.6em" id="img-648e56c7-94">Time [a]</text>
  </g>
  <g class="guide xlabels" font-size="4.23" font-family="'PT Sans Caption','Helvetica Neue','Helvetica',sans-serif" fill="#6C606B" id="img-648e56c7-95">
    <text x="22.21" y="132.69" text-anchor="middle" dy="0.6em" id="img-648e56c7-96">0</text>
    <text x="42.01" y="132.69" text-anchor="middle" dy="0.6em" id="img-648e56c7-97">10</text>
    <text x="61.8" y="132.69" text-anchor="middle" dy="0.6em" id="img-648e56c7-98">20</text>
    <text x="81.59" y="132.69" text-anchor="middle" dy="0.6em" id="img-648e56c7-99">30</text>
    <text x="101.38" y="132.69" text-anchor="middle" dy="0.6em" id="img-648e56c7-100">40</text>
    <text x="121.17" y="132.69" text-anchor="middle" dy="0.6em" id="img-648e56c7-101">50</text>
  </g>
  <g class="guide colorkey" id="img-648e56c7-102">
    <g fill="#4C404B" font-size="4.23" font-family="'PT Sans','Helvetica Neue','Helvetica',sans-serif" id="img-648e56c7-103">
      <text x="127.87" y="103.75" dy="0.35em" id="img-648e56c7-104" class="color_v">v</text>
      <text x="127.87" y="109.15" dy="0.35em" id="img-648e56c7-105" class="color_t0">t<tspan style="dominant-baseline:inherit" dy="1.7225" font-size="83.3333%">0</tspan><tspan style="dominant-baseline:inherit" dy="-1.4355"></tspan></text>
      <text x="127.87" y="114.54" dy="0.35em" id="img-648e56c7-106" class="color_t1">t<tspan style="dominant-baseline:inherit" dy="1.7225" font-size="83.3333%">1</tspan><tspan style="dominant-baseline:inherit" dy="-1.4355"></tspan></text>
    </g>
    <g stroke="#000000" stroke-opacity="0.000" id="img-648e56c7-107">
      <rect x="124.17" y="102.4" width="2.7" height="2.7" id="img-648e56c7-108" class="color_v" fill="#00BFFF"/>
      <rect x="124.17" y="107.8" width="2.7" height="2.7" id="img-648e56c7-109" class="color_t0" fill="#D4CA3A"/>
      <rect x="124.17" y="113.19" width="2.7" height="2.7" id="img-648e56c7-110" class="color_t1" fill="#FF6DAE"/>
    </g>
    <g fill="#362A35" font-size="5.64" font-family="'PT Sans','Helvetica Neue','Helvetica',sans-serif" stroke="#000000" stroke-opacity="0.000" id="img-648e56c7-111">
      <text x="124.17" y="98.67" id="img-648e56c7-112">parameter</text>
    </g>
  </g>
<g clip-path="url(#img-648e56c7-113)">
  <g id="img-648e56c7-114">
    <g pointer-events="visible" opacity="1" fill="#000000" fill-opacity="0.000" stroke="#000000" stroke-opacity="0.000" class="guide background" id="img-648e56c7-115">
      <rect x="20.21" y="81.2" width="102.95" height="50.49" id="img-648e56c7-116"/>
    </g>
    <g class="guide ygridlines xfixed" stroke-dasharray="0.5,0.5" stroke-width="0.2" stroke="#D0D0E0" id="img-648e56c7-117">
      <path fill="none" d="M20.21,129.69 L 123.17 129.69" id="img-648e56c7-118"/>
      <path fill="none" d="M20.21,106.45 L 123.17 106.45" id="img-648e56c7-119"/>
      <path fill="none" d="M20.21,83.2 L 123.17 83.2" id="img-648e56c7-120"/>
    </g>
    <g class="guide xgridlines yfixed" stroke-dasharray="0.5,0.5" stroke-width="0.2" stroke="#D0D0E0" id="img-648e56c7-121">
      <path fill="none" d="M22.21,81.2 L 22.21 131.69" id="img-648e56c7-122"/>
      <path fill="none" d="M42.01,81.2 L 42.01 131.69" id="img-648e56c7-123"/>
      <path fill="none" d="M61.8,81.2 L 61.8 131.69" id="img-648e56c7-124"/>
      <path fill="none" d="M81.59,81.2 L 81.59 131.69" id="img-648e56c7-125"/>
      <path fill="none" d="M101.38,81.2 L 101.38 131.69" id="img-648e56c7-126"/>
      <path fill="none" d="M121.17,81.2 L 121.17 131.69" id="img-648e56c7-127"/>
    </g>
    <g class="plotpanel" id="img-648e56c7-128">
      <g stroke-width="0.71" fill="#000000" fill-opacity="0.000" stroke-dasharray="none" id="img-648e56c7-129">
        <path fill="none" d="M24.19,87.68 L 26.17 90.56 28.15 93.76 30.13 96.28 32.11 98.4 34.09 100.16 36.07 101.54 38.05 102.52 40.03 103.12 42.01 103.35 43.98 103.11 45.96 102.31 47.94 101 49.92 99.41 51.9 98.01 53.88 97.08 55.86 96.7 57.84 96.77 59.82 97.14 61.8 97.69 63.78 98.31 65.75 98.93 67.73 99.5 69.71 99.99 71.69 100.4 73.67 100.72 75.65 100.96 77.63 101.13 79.61 101.21 81.59 101.21 83.57 101.14 85.55 101.02 87.52 100.84 89.5 100.58 91.48 100.24 93.46 99.82 95.44 99.34 97.42 98.79 99.4 98.15 101.38 97.41 103.36 96.58 105.34 95.69 107.32 94.69 109.29 93.63 111.27 92.58 113.25 91.61 115.23 90.76 117.21 90.03 119.19 89.4 121.17 88.87" id="img-648e56c7-130" class="geometry color_v" stroke="#00BFFF"/>
        <path fill="none" d="M24.19,84.99 L 26.17 85.56 28.15 86.22 30.13 87.12 32.11 88.38 34.09 89.8 36.07 91.31 38.05 92.88 40.03 94.51 42.01 96.25 43.98 98.2 45.96 100.57 47.94 103.51 49.92 106.84 51.9 110.12 53.88 113.04 55.86 115.51 57.84 117.55 59.82 119.21 61.8 120.6 63.78 121.81 65.75 122.87 67.73 123.79 69.71 124.58 71.69 125.25 73.67 125.8 75.65 126.25 77.63 126.62 79.61 126.93 81.59 127.18 83.57 127.38 85.55 127.54 87.52 127.68 89.5 127.79 91.48 127.89 93.46 127.98 95.44 128.05 97.42 128.11 99.4 128.16 101.38 128.22 103.36 128.28 105.34 128.32 107.32 128.35 109.29 128.38 111.27 128.41 113.25 128.45 115.23 128.48 117.21 128.52 119.19 128.56 121.17 128.6" id="img-648e56c7-131" class="geometry color_t0" stroke="#D4CA3A"/>
        <path fill="none" d="M24.19,88.3 L 26.17 100.46 28.15 114.29 30.13 124.39 32.11 128.68 34.09 129.55 36.07 129.63 38.05 129.64 40.03 129.58 42.01 129.28 43.98 128.69 45.96 127.87 47.94 126.72 49.92 125.27 51.9 123.69 53.88 122.07 55.86 120.57 57.84 119.24 59.82 118.03 61.8 116.88 63.78 115.81 65.75 114.76 67.73 113.75 69.71 112.8 71.69 111.91 73.67 111.08 75.65 110.34 77.63 109.66 79.61 109.07 81.59 108.56 83.57 108.12 85.55 107.76 87.52 107.48 89.5 107.25 91.48 107.1 93.46 107.02 95.44 107 97.42 107.04 99.4 107.16 101.38 107.34 103.36 107.59 105.34 107.93 107.32 108.34 109.29 108.79 111.27 109.27 113.25 109.72 115.23 110.13 117.21 110.49 119.19 110.79 121.17 111.06" id="img-648e56c7-132" class="geometry color_t1" stroke="#FF6DAE"/>
      </g>
    </g>
  </g>
</g>
  <g class="guide ylabels" font-size="4.23" font-family="'PT Sans Caption','Helvetica Neue','Helvetica',sans-serif" fill="#6C606B" id="img-648e56c7-133">
    <text x="19.21" y="129.69" text-anchor="end" dy="0.35em" id="img-648e56c7-134">0.0</text>
    <text x="19.21" y="106.45" text-anchor="end" dy="0.35em" id="img-648e56c7-135">0.5</text>
    <text x="19.21" y="83.2" text-anchor="end" dy="0.35em" id="img-648e56c7-136">1.0</text>
  </g>
  <g font-size="4.94" font-family="'PT Sans','Helvetica Neue','Helvetica',sans-serif" fill="#564A55" stroke="#000000" stroke-opacity="0.000" id="img-648e56c7-137">
    <text x="8.77" y="104.45" text-anchor="middle" dy="0.35em" transform="rotate(-90, 8.77, 106.45)" id="img-648e56c7-138">Total Effect</text>
  </g>
</g>
<g class="plotroot xscalable yscalable" id="img-648e56c7-139">
  <g font-size="3.88" font-family="'PT Sans','Helvetica Neue','Helvetica',sans-serif" fill="#564A55" stroke="#000000" stroke-opacity="0.000" id="img-648e56c7-140">
    <text x="83.45" y="64.56" text-anchor="middle" dy="0.6em" id="img-648e56c7-141">Time [a]</text>
  </g>
  <g class="guide xlabels" font-size="2.82" font-family="'PT Sans Caption','Helvetica Neue','Helvetica',sans-serif" fill="#6C606B" id="img-648e56c7-142">
    <text x="21.51" y="58.51" text-anchor="middle" dy="0.6em" id="img-648e56c7-143">0</text>
    <text x="46.29" y="58.51" text-anchor="middle" dy="0.6em" id="img-648e56c7-144">10</text>
    <text x="71.07" y="58.51" text-anchor="middle" dy="0.6em" id="img-648e56c7-145">20</text>
    <text x="95.84" y="58.51" text-anchor="middle" dy="0.6em" id="img-648e56c7-146">30</text>
    <text x="120.62" y="58.51" text-anchor="middle" dy="0.6em" id="img-648e56c7-147">40</text>
    <text x="145.4" y="58.51" text-anchor="middle" dy="0.6em" id="img-648e56c7-148">50</text>
  </g>
<g clip-path="url(#img-648e56c7-149)">
  <g id="img-648e56c7-150">
    <g pointer-events="visible" opacity="1" fill="#000000" fill-opacity="0.000" stroke="#000000" stroke-opacity="0.000" class="guide background" id="img-648e56c7-151">
      <rect x="19.51" y="5" width="127.89" height="52.51" id="img-648e56c7-152"/>
    </g>
    <g class="guide ygridlines xfixed" stroke-dasharray="0.5,0.5" stroke-width="0.2" stroke="#D0D0E0" id="img-648e56c7-153">
      <path fill="none" d="M19.51,55.51 L 147.4 55.51" id="img-648e56c7-154"/>
      <path fill="none" d="M19.51,43.38 L 147.4 43.38" id="img-648e56c7-155"/>
      <path fill="none" d="M19.51,31.26 L 147.4 31.26" id="img-648e56c7-156"/>
      <path fill="none" d="M19.51,19.13 L 147.4 19.13" id="img-648e56c7-157"/>
      <path fill="none" d="M19.51,7 L 147.4 7" id="img-648e56c7-158"/>
    </g>
    <g class="guide xgridlines yfixed" stroke-dasharray="0.5,0.5" stroke-width="0.2" stroke="#D0D0E0" id="img-648e56c7-159">
      <path fill="none" d="M21.51,5 L 21.51 57.51" id="img-648e56c7-160"/>
      <path fill="none" d="M46.29,5 L 46.29 57.51" id="img-648e56c7-161"/>
      <path fill="none" d="M71.07,5 L 71.07 57.51" id="img-648e56c7-162"/>
      <path fill="none" d="M95.84,5 L 95.84 57.51" id="img-648e56c7-163"/>
      <path fill="none" d="M120.62,5 L 120.62 57.51" id="img-648e56c7-164"/>
      <path fill="none" d="M145.4,5 L 145.4 57.51" id="img-648e56c7-165"/>
    </g>
    <g class="plotpanel" id="img-648e56c7-166">
      <g stroke-width="0.3" fill="#000000" fill-opacity="0.000" class="geometry" stroke-dasharray="none" stroke="#00BFFF" id="img-648e56c7-167">
        <path fill="none" d="M23.99,55.51 L 26.47 55.51 28.94 55.51 31.42 55.51 33.9 55.51 36.38 55.51 38.85 55.51 41.33 55.51 43.81 55.51 46.29 55.51 48.77 55.51 51.24 55.51 53.72 55.51 56.2 55.51 58.68 55.5 61.15 55.48 63.63 55.43 66.11 55.32 68.59 55.1 71.07 54.73 73.54 54.15 76.02 53.3 78.5 52.13 80.98 50.61 83.45 48.71 85.93 46.43 88.41 43.79 90.89 40.83 93.37 37.63 95.84 34.27 98.32 30.85 100.8 27.47 103.28 24.24 105.76 21.23 108.23 18.53 110.71 16.19 113.19 14.24 115.67 12.72 118.14 11.61 120.62 10.93 123.1 10.64 125.58 10.72 128.06 11.14 130.53 11.85 133.01 12.82 135.49 14.02 137.97 15.39 140.44 16.91 142.92 18.53 145.4 20.24" id="img-648e56c7-168"/>
      </g>
    </g>
  </g>
</g>
  <g class="guide ylabels" font-size="2.82" font-family="'PT Sans Caption','Helvetica Neue','Helvetica',sans-serif" fill="#6C606B" id="img-648e56c7-169">
    <text x="18.51" y="55.51" text-anchor="end" dy="0.35em" id="img-648e56c7-170">0</text>
    <text x="18.51" y="43.38" text-anchor="end" dy="0.35em" id="img-648e56c7-171">100</text>
    <text x="18.51" y="31.26" text-anchor="end" dy="0.35em" id="img-648e56c7-172">200</text>
    <text x="18.51" y="19.13" text-anchor="end" dy="0.35em" id="img-648e56c7-173">300</text>
    <text x="18.51" y="7" text-anchor="end" dy="0.35em" id="img-648e56c7-174">400</text>
  </g>
  <g font-size="3.88" font-family="'PT Sans','Helvetica Neue','Helvetica',sans-serif" fill="#564A55" stroke="#000000" stroke-opacity="0.000" id="img-648e56c7-175">
    <text x="8.83" y="29.26" text-anchor="middle" dy="0.35em" transform="rotate(-90, 8.83, 31.26)" id="img-648e56c7-176">Concentration [ppb]</text>
  </g>
</g>
<defs>
  <clipPath id="img-648e56c7-66">
  <path d="M20.22,157.4 L 123.17 157.4 123.17 207.89 20.22 207.89" />
</clipPath>
  <clipPath id="img-648e56c7-149">
  <path d="M19.51,5 L 147.4 5 147.4 57.51 19.51 57.51" />
</clipPath>
  <clipPath id="img-648e56c7-15">
  <path d="M30.22,233.6 L 123.17 233.6 123.17 284.09 30.22 284.09" />
</clipPath>
  <clipPath id="img-648e56c7-113">
  <path d="M20.21,81.2 L 123.17 81.2 123.17 131.69 20.21 131.69" />
</clipPath>
</defs>
</svg>
