<?xml version="1.0" encoding="UTF-8"?>
<svg xmlns="http://www.w3.org/2000/svg"
     xmlns:xlink="http://www.w3.org/1999/xlink"
     xmlns:gadfly="http://www.gadflyjl.org/ns"
     version="1.2"
     width="152.4mm" height="101.6mm" viewBox="0 0 152.4 101.6"
     stroke="none"
     fill="#000000"
     stroke-width="0.3"
     font-size="3.88"
>
<g class="plotroot xscalable yscalable" id="img-7632ea38-1">
  <g font-size="3.88" font-family="'PT Sans','Helvetica Neue','Helvetica',sans-serif" fill="#564A55" stroke="#000000" stroke-opacity="0.000" id="img-7632ea38-2">
    <text x="74.22" y="89.99" text-anchor="middle" dy="0.6em">x [m]</text>
  </g>
  <g class="guide xlabels" font-size="2.82" font-family="'PT Sans Caption','Helvetica Neue','Helvetica',sans-serif" fill="#6C606B" id="img-7632ea38-3">
    <text x="17.28" y="83.32" text-anchor="middle" dy="0.6em">0</text>
    <text x="40.06" y="83.32" text-anchor="middle" dy="0.6em">500</text>
    <text x="62.83" y="83.32" text-anchor="middle" dy="0.6em">1000</text>
    <text x="85.6" y="83.32" text-anchor="middle" dy="0.6em">1500</text>
    <text x="108.37" y="83.32" text-anchor="middle" dy="0.6em">2000</text>
    <text x="131.15" y="83.32" text-anchor="middle" dy="0.6em">2500</text>
  </g>
  <g class="guide colorkey" id="img-7632ea38-4">
    <g class="color_Wells" id="img-7632ea38-5">
      <g fill="#4C404B" font-size="2.82" font-family="'PT Sans','Helvetica Neue','Helvetica',sans-serif" id="img-7632ea38-6">
        <text x="136.96" y="45.47" dy="0.35em">Wells</text>
      </g>
      <g fill="#00BFFF" stroke="#000000" stroke-opacity="0.000" id="img-7632ea38-7">
        <rect x="134.15" y="44.56" width="1.81" height="1.81"/>
      </g>
    </g>
    <g fill="#362A35" font-size="3.88" font-family="'PT Sans','Helvetica Neue','Helvetica',sans-serif" stroke="#000000" stroke-opacity="0.000" id="img-7632ea38-8">
      <text x="134.15" y="41.65">category</text>
    </g>
  </g>
<g clip-path="url(#img-7632ea38-9)">
  <g id="img-7632ea38-10">
    <g pointer-events="visible" opacity="1" fill="#000000" fill-opacity="0.000" stroke="#000000" stroke-opacity="0.000" class="guide background" id="img-7632ea38-11">
      <rect x="15.28" y="5" width="117.86" height="77.32"/>
    </g>
    <g class="guide xgridlines yfixed" stroke-dasharray="0.5,0.5" stroke-width="0.2" stroke="#D0D0E0" id="img-7632ea38-12">
      <path fill="none" d="M17.28,5 L 17.28 82.32"/>
      <path fill="none" d="M40.06,5 L 40.06 82.32"/>
      <path fill="none" d="M62.83,5 L 62.83 82.32"/>
      <path fill="none" d="M85.6,5 L 85.6 82.32"/>
      <path fill="none" d="M108.37,5 L 108.37 82.32"/>
      <path fill="none" d="M131.15,5 L 131.15 82.32"/>
    </g>
    <g class="guide ygridlines xfixed" stroke-dasharray="0.5,0.5" stroke-width="0.2" stroke="#D0D0E0" id="img-7632ea38-13">
      <path fill="none" d="M15.28,80.31 L 133.15 80.31"/>
      <path fill="none" d="M15.28,55.88 L 133.15 55.88"/>
      <path fill="none" d="M15.28,31.44 L 133.15 31.44"/>
      <path fill="none" d="M15.28,7 L 133.15 7"/>
    </g>
    <g class="plotpanel" id="img-7632ea38-14">
      <g class="geometry" stroke="#000000" stroke-opacity="0.000" fill="#4C404B" font-size="2.82" font-family="'PT Sans Caption','Helvetica Neue','Helvetica',sans-serif" id="img-7632ea38-15">
        <text x="50.92" y="30.83" text-anchor="middle" dy="0.35em" visibility="visible">w1a</text>
        <text x="55.03" y="35.94" text-anchor="middle" dy="0.35em" visibility="visible">w2a</text>
        <text x="63.91" y="31.55" text-anchor="middle" dy="0.35em" visibility="visible">w3a</text>
        <text x="66.85" y="26.81" text-anchor="middle" dy="0.35em" visibility="visible">w4a</text>
        <text x="65.02" y="38.61" text-anchor="middle" dy="0.35em" visibility="visible">w5a</text>
        <text x="75.33" y="45.51" text-anchor="middle" dy="0.35em" visibility="visible">w6a</text>
        <text x="76.15" y="23.63" text-anchor="middle" dy="0.35em" visibility="visible">w7a</text>
        <text x="75.61" y="28.56" text-anchor="middle" dy="0.35em" visibility="visible">w8a</text>
        <text x="77.36" y="40.18" text-anchor="middle" dy="0.35em" visibility="visible">w9a</text>
        <text x="84.68" y="28.89" text-anchor="middle" dy="0.35em" visibility="visible">w10a</text>
        <text x="87.78" y="50.88" text-anchor="middle" dy="0.35em" visibility="visible">w11a</text>
        <text x="83.01" y="18.64" text-anchor="middle" dy="0.35em" visibility="visible">w12a</text>
        <text x="95.2" y="32.58" text-anchor="middle" dy="0.35em" visibility="visible">w13a</text>
        <text x="95.26" y="39.66" text-anchor="middle" dy="0.35em" visibility="visible">w14a</text>
        <text x="101.67" y="53.62" text-anchor="middle" dy="0.35em" visibility="visible">w15a</text>
        <text x="102.17" y="27.13" text-anchor="middle" dy="0.35em" visibility="visible">w16a</text>
        <text x="106.22" y="38" text-anchor="middle" dy="0.35em" visibility="visible">w17a</text>
        <text x="110.78" y="46.41" text-anchor="middle" dy="0.35em" visibility="visible">w18a</text>
        <text x="113.65" y="19.41" text-anchor="middle" dy="0.35em" visibility="visible">w19a</text>
        <text x="116.77" y="34.8" text-anchor="middle" dy="0.35em" visibility="visible">w20a</text>
      </g>
      <g class="geometry" id="img-7632ea38-16">
        <g stroke-width="0.3" id="img-7632ea38-17">
          <use xlink:href="#img-7632ea38-18" x="54.77" y="31.49" class="color_Wells" stroke="#FFFFFF" fill="#00BFFF"/>
          <use xlink:href="#img-7632ea38-18" x="57.36" y="38.28" class="color_Wells" stroke="#FFFFFF" fill="#00BFFF"/>
          <use xlink:href="#img-7632ea38-18" x="61.69" y="33.88" class="color_Wells" stroke="#FFFFFF" fill="#00BFFF"/>
          <use xlink:href="#img-7632ea38-18" x="63.01" y="26.5" class="color_Wells" stroke="#FFFFFF" fill="#00BFFF"/>
          <use xlink:href="#img-7632ea38-18" x="67.66" y="36.28" class="color_Wells" stroke="#FFFFFF" fill="#00BFFF"/>
          <use xlink:href="#img-7632ea38-18" x="71.48" y="43.17" class="color_Wells" stroke="#FFFFFF" fill="#00BFFF"/>
          <use xlink:href="#img-7632ea38-18" x="72.3" y="24.06" class="color_Wells" stroke="#FFFFFF" fill="#00BFFF"/>
          <use xlink:href="#img-7632ea38-18" x="73.08" y="30.9" class="color_Wells" stroke="#FFFFFF" fill="#00BFFF"/>
          <use xlink:href="#img-7632ea38-18" x="75.22" y="37.84" class="color_Wells" stroke="#FFFFFF" fill="#00BFFF"/>
          <use xlink:href="#img-7632ea38-18" x="80" y="29.78" class="color_Wells" stroke="#FFFFFF" fill="#00BFFF"/>
          <use xlink:href="#img-7632ea38-18" x="83.1" y="48.55" class="color_Wells" stroke="#FFFFFF" fill="#00BFFF"/>
          <use xlink:href="#img-7632ea38-18" x="86.24" y="20.98" class="color_Wells" stroke="#FFFFFF" fill="#00BFFF"/>
          <use xlink:href="#img-7632ea38-18" x="90.52" y="31.88" class="color_Wells" stroke="#FFFFFF" fill="#00BFFF"/>
          <use xlink:href="#img-7632ea38-18" x="92.8" y="42" class="color_Wells" stroke="#FFFFFF" fill="#00BFFF"/>
          <use xlink:href="#img-7632ea38-18" x="96.99" y="51.28" class="color_Wells" stroke="#FFFFFF" fill="#00BFFF"/>
          <use xlink:href="#img-7632ea38-18" x="97.49" y="24.79" class="color_Wells" stroke="#FFFFFF" fill="#00BFFF"/>
          <use xlink:href="#img-7632ea38-18" x="101.54" y="37.89" class="color_Wells" stroke="#FFFFFF" fill="#00BFFF"/>
          <use xlink:href="#img-7632ea38-18" x="106.1" y="45.86" class="color_Wells" stroke="#FFFFFF" fill="#00BFFF"/>
          <use xlink:href="#img-7632ea38-18" x="108.97" y="17.07" class="color_Wells" stroke="#FFFFFF" fill="#00BFFF"/>
          <use xlink:href="#img-7632ea38-18" x="113.52" y="32.46" class="color_Wells" stroke="#FFFFFF" fill="#00BFFF"/>
        </g>
      </g>
    </g>
    <g class="geometry" id="img-7632ea38-19">
      <g stroke="#FFA500" opacity="0.2" fill="#FFA500" id="img-7632ea38-20">
        <rect x="57.14" y="27.77" width="11.39" height="12.22"/>
      </g>
    </g>
  </g>
</g>
  <g class="guide ylabels" font-size="2.82" font-family="'PT Sans Caption','Helvetica Neue','Helvetica',sans-serif" fill="#6C606B" id="img-7632ea38-21">
    <text x="14.28" y="178.07" text-anchor="middle" transform="rotate(-90, 14.28, 80.31)" gadfly:scale="1.0" visibility="hidden">-1500</text>
    <text x="14.28" y="153.63" text-anchor="middle" transform="rotate(-90, 14.28, 55.88)" gadfly:scale="1.0" visibility="hidden">-1000</text>
    <text x="14.28" y="129.19" text-anchor="middle" transform="rotate(-90, 14.28, 31.44)" gadfly:scale="1.0" visibility="hidden">-500</text>
    <text x="14.28" y="104.75" text-anchor="middle" transform="rotate(-90, 14.28, 7)" gadfly:scale="1.0" visibility="hidden">0</text>
    <text x="14.28" y="80.31" text-anchor="middle" transform="rotate(-90, 14.28, 80.31)" gadfly:scale="1.0" visibility="visible">500</text>
    <text x="14.28" y="55.88" text-anchor="middle" transform="rotate(-90, 14.28, 55.88)" gadfly:scale="1.0" visibility="visible">1000</text>
    <text x="14.28" y="31.44" text-anchor="middle" transform="rotate(-90, 14.28, 31.44)" gadfly:scale="1.0" visibility="visible">1500</text>
    <text x="14.28" y="7" text-anchor="middle" transform="rotate(-90, 14.28, 7)" gadfly:scale="1.0" visibility="visible">2000</text>
    <text x="14.28" y="-17.44" text-anchor="middle" transform="rotate(-90, 14.28, 80.31)" gadfly:scale="1.0" visibility="hidden">2500</text>
    <text x="14.28" y="-41.88" text-anchor="middle" transform="rotate(-90, 14.28, 55.88)" gadfly:scale="1.0" visibility="hidden">3000</text>
    <text x="14.28" y="-66.32" text-anchor="middle" transform="rotate(-90, 14.28, 31.44)" gadfly:scale="1.0" visibility="hidden">3500</text>
    <text x="14.28" y="-90.75" text-anchor="middle" transform="rotate(-90, 14.28, 7)" gadfly:scale="1.0" visibility="hidden">4000</text>
    <text x="14.28" y="153.63" text-anchor="middle" transform="rotate(-90, 14.28, 80.31)" gadfly:scale="10.0" visibility="hidden">-1000</text>
    <text x="14.28" y="151.19" text-anchor="middle" transform="rotate(-90, 14.28, 55.88)" gadfly:scale="10.0" visibility="hidden">-950</text>
    <text x="14.28" y="148.74" text-anchor="middle" transform="rotate(-90, 14.28, 31.44)" gadfly:scale="10.0" visibility="hidden">-900</text>
    <text x="14.28" y="146.3" text-anchor="middle" transform="rotate(-90, 14.28, 7)" gadfly:scale="10.0" visibility="hidden">-850</text>
    <text x="14.28" y="143.85" text-anchor="middle" transform="rotate(-90, 14.28, 80.31)" gadfly:scale="10.0" visibility="hidden">-800</text>
    <text x="14.28" y="141.41" text-anchor="middle" transform="rotate(-90, 14.28, 55.88)" gadfly:scale="10.0" visibility="hidden">-750</text>
    <text x="14.28" y="138.97" text-anchor="middle" transform="rotate(-90, 14.28, 31.44)" gadfly:scale="10.0" visibility="hidden">-700</text>
    <text x="14.28" y="136.52" text-anchor="middle" transform="rotate(-90, 14.28, 7)" gadfly:scale="10.0" visibility="hidden">-650</text>
    <text x="14.28" y="134.08" text-anchor="middle" transform="rotate(-90, 14.28, 80.31)" gadfly:scale="10.0" visibility="hidden">-600</text>
    <text x="14.28" y="131.64" text-anchor="middle" transform="rotate(-90, 14.28, 55.88)" gadfly:scale="10.0" visibility="hidden">-550</text>
    <text x="14.28" y="129.19" text-anchor="middle" transform="rotate(-90, 14.28, 31.44)" gadfly:scale="10.0" visibility="hidden">-500</text>
    <text x="14.28" y="126.75" text-anchor="middle" transform="rotate(-90, 14.28, 7)" gadfly:scale="10.0" visibility="hidden">-450</text>
    <text x="14.28" y="124.3" text-anchor="middle" transform="rotate(-90, 14.28, 80.31)" gadfly:scale="10.0" visibility="hidden">-400</text>
    <text x="14.28" y="121.86" text-anchor="middle" transform="rotate(-90, 14.28, 55.88)" gadfly:scale="10.0" visibility="hidden">-350</text>
    <text x="14.28" y="119.42" text-anchor="middle" transform="rotate(-90, 14.28, 31.44)" gadfly:scale="10.0" visibility="hidden">-300</text>
    <text x="14.28" y="116.97" text-anchor="middle" transform="rotate(-90, 14.28, 7)" gadfly:scale="10.0" visibility="hidden">-250</text>
    <text x="14.28" y="114.53" text-anchor="middle" transform="rotate(-90, 14.28, 80.31)" gadfly:scale="10.0" visibility="hidden">-200</text>
    <text x="14.28" y="112.08" text-anchor="middle" transform="rotate(-90, 14.28, 55.88)" gadfly:scale="10.0" visibility="hidden">-150</text>
    <text x="14.28" y="109.64" text-anchor="middle" transform="rotate(-90, 14.28, 31.44)" gadfly:scale="10.0" visibility="hidden">-100</text>
    <text x="14.28" y="107.2" text-anchor="middle" transform="rotate(-90, 14.28, 7)" gadfly:scale="10.0" visibility="hidden">-50</text>
    <text x="14.28" y="104.75" text-anchor="middle" transform="rotate(-90, 14.28, 80.31)" gadfly:scale="10.0" visibility="hidden">0</text>
    <text x="14.28" y="102.31" text-anchor="middle" transform="rotate(-90, 14.28, 55.88)" gadfly:scale="10.0" visibility="hidden">50</text>
    <text x="14.28" y="99.87" text-anchor="middle" transform="rotate(-90, 14.28, 31.44)" gadfly:scale="10.0" visibility="hidden">100</text>
    <text x="14.28" y="97.42" text-anchor="middle" transform="rotate(-90, 14.28, 7)" gadfly:scale="10.0" visibility="hidden">150</text>
    <text x="14.28" y="94.98" text-anchor="middle" transform="rotate(-90, 14.28, 80.31)" gadfly:scale="10.0" visibility="hidden">200</text>
    <text x="14.28" y="92.53" text-anchor="middle" transform="rotate(-90, 14.28, 55.88)" gadfly:scale="10.0" visibility="hidden">250</text>
    <text x="14.28" y="90.09" text-anchor="middle" transform="rotate(-90, 14.28, 31.44)" gadfly:scale="10.0" visibility="hidden">300</text>
    <text x="14.28" y="87.65" text-anchor="middle" transform="rotate(-90, 14.28, 7)" gadfly:scale="10.0" visibility="hidden">350</text>
    <text x="14.28" y="85.2" text-anchor="middle" transform="rotate(-90, 14.28, 80.31)" gadfly:scale="10.0" visibility="hidden">400</text>
    <text x="14.28" y="82.76" text-anchor="middle" transform="rotate(-90, 14.28, 55.88)" gadfly:scale="10.0" visibility="hidden">450</text>
    <text x="14.28" y="80.31" text-anchor="middle" transform="rotate(-90, 14.28, 31.44)" gadfly:scale="10.0" visibility="hidden">500</text>
    <text x="14.28" y="77.87" text-anchor="middle" transform="rotate(-90, 14.28, 7)" gadfly:scale="10.0" visibility="hidden">550</text>
    <text x="14.28" y="75.43" text-anchor="middle" transform="rotate(-90, 14.28, 80.31)" gadfly:scale="10.0" visibility="hidden">600</text>
    <text x="14.28" y="72.98" text-anchor="middle" transform="rotate(-90, 14.28, 55.88)" gadfly:scale="10.0" visibility="hidden">650</text>
    <text x="14.28" y="70.54" text-anchor="middle" transform="rotate(-90, 14.28, 31.44)" gadfly:scale="10.0" visibility="hidden">700</text>
    <text x="14.28" y="68.1" text-anchor="middle" transform="rotate(-90, 14.28, 7)" gadfly:scale="10.0" visibility="hidden">750</text>
    <text x="14.28" y="65.65" text-anchor="middle" transform="rotate(-90, 14.28, 80.31)" gadfly:scale="10.0" visibility="hidden">800</text>
    <text x="14.28" y="63.21" text-anchor="middle" transform="rotate(-90, 14.28, 55.88)" gadfly:scale="10.0" visibility="hidden">850</text>
    <text x="14.28" y="60.76" text-anchor="middle" transform="rotate(-90, 14.28, 31.44)" gadfly:scale="10.0" visibility="hidden">900</text>
    <text x="14.28" y="58.32" text-anchor="middle" transform="rotate(-90, 14.28, 7)" gadfly:scale="10.0" visibility="hidden">950</text>
    <text x="14.28" y="55.88" text-anchor="middle" transform="rotate(-90, 14.28, 80.31)" gadfly:scale="10.0" visibility="hidden">1000</text>
    <text x="14.28" y="53.43" text-anchor="middle" transform="rotate(-90, 14.28, 55.88)" gadfly:scale="10.0" visibility="hidden">1050</text>
    <text x="14.28" y="50.99" text-anchor="middle" transform="rotate(-90, 14.28, 31.44)" gadfly:scale="10.0" visibility="hidden">1100</text>
    <text x="14.28" y="48.55" text-anchor="middle" transform="rotate(-90, 14.28, 7)" gadfly:scale="10.0" visibility="hidden">1150</text>
    <text x="14.28" y="46.1" text-anchor="middle" transform="rotate(-90, 14.28, 80.31)" gadfly:scale="10.0" visibility="hidden">1200</text>
    <text x="14.28" y="43.66" text-anchor="middle" transform="rotate(-90, 14.28, 55.88)" gadfly:scale="10.0" visibility="hidden">1250</text>
    <text x="14.28" y="41.21" text-anchor="middle" transform="rotate(-90, 14.28, 31.44)" gadfly:scale="10.0" visibility="hidden">1300</text>
    <text x="14.28" y="38.77" text-anchor="middle" transform="rotate(-90, 14.28, 7)" gadfly:scale="10.0" visibility="hidden">1350</text>
    <text x="14.28" y="36.33" text-anchor="middle" transform="rotate(-90, 14.28, 80.31)" gadfly:scale="10.0" visibility="hidden">1400</text>
    <text x="14.28" y="33.88" text-anchor="middle" transform="rotate(-90, 14.28, 55.88)" gadfly:scale="10.0" visibility="hidden">1450</text>
    <text x="14.28" y="31.44" text-anchor="middle" transform="rotate(-90, 14.28, 31.44)" gadfly:scale="10.0" visibility="hidden">1500</text>
    <text x="14.28" y="28.99" text-anchor="middle" transform="rotate(-90, 14.28, 7)" gadfly:scale="10.0" visibility="hidden">1550</text>
    <text x="14.28" y="26.55" text-anchor="middle" transform="rotate(-90, 14.28, 80.31)" gadfly:scale="10.0" visibility="hidden">1600</text>
    <text x="14.28" y="24.11" text-anchor="middle" transform="rotate(-90, 14.28, 55.88)" gadfly:scale="10.0" visibility="hidden">1650</text>
    <text x="14.28" y="21.66" text-anchor="middle" transform="rotate(-90, 14.28, 31.44)" gadfly:scale="10.0" visibility="hidden">1700</text>
    <text x="14.28" y="19.22" text-anchor="middle" transform="rotate(-90, 14.28, 7)" gadfly:scale="10.0" visibility="hidden">1750</text>
    <text x="14.28" y="16.78" text-anchor="middle" transform="rotate(-90, 14.28, 80.31)" gadfly:scale="10.0" visibility="hidden">1800</text>
    <text x="14.28" y="14.33" text-anchor="middle" transform="rotate(-90, 14.28, 55.88)" gadfly:scale="10.0" visibility="hidden">1850</text>
    <text x="14.28" y="11.89" text-anchor="middle" transform="rotate(-90, 14.28, 31.44)" gadfly:scale="10.0" visibility="hidden">1900</text>
    <text x="14.28" y="9.44" text-anchor="middle" transform="rotate(-90, 14.28, 7)" gadfly:scale="10.0" visibility="hidden">1950</text>
    <text x="14.28" y="7" text-anchor="middle" transform="rotate(-90, 14.28, 80.31)" gadfly:scale="10.0" visibility="hidden">2000</text>
    <text x="14.28" y="4.56" text-anchor="middle" transform="rotate(-90, 14.28, 55.88)" gadfly:scale="10.0" visibility="hidden">2050</text>
    <text x="14.28" y="2.11" text-anchor="middle" transform="rotate(-90, 14.28, 31.44)" gadfly:scale="10.0" visibility="hidden">2100</text>
    <text x="14.28" y="-0.33" text-anchor="middle" transform="rotate(-90, 14.28, 7)" gadfly:scale="10.0" visibility="hidden">2150</text>
    <text x="14.28" y="-2.78" text-anchor="middle" transform="rotate(-90, 14.28, 80.31)" gadfly:scale="10.0" visibility="hidden">2200</text>
    <text x="14.28" y="-5.22" text-anchor="middle" transform="rotate(-90, 14.28, 55.88)" gadfly:scale="10.0" visibility="hidden">2250</text>
    <text x="14.28" y="-7.66" text-anchor="middle" transform="rotate(-90, 14.28, 31.44)" gadfly:scale="10.0" visibility="hidden">2300</text>
    <text x="14.28" y="-10.11" text-anchor="middle" transform="rotate(-90, 14.28, 7)" gadfly:scale="10.0" visibility="hidden">2350</text>
    <text x="14.28" y="-12.55" text-anchor="middle" transform="rotate(-90, 14.28, 80.31)" gadfly:scale="10.0" visibility="hidden">2400</text>
    <text x="14.28" y="-14.99" text-anchor="middle" transform="rotate(-90, 14.28, 55.88)" gadfly:scale="10.0" visibility="hidden">2450</text>
    <text x="14.28" y="-17.44" text-anchor="middle" transform="rotate(-90, 14.28, 31.44)" gadfly:scale="10.0" visibility="hidden">2500</text>
    <text x="14.28" y="-19.88" text-anchor="middle" transform="rotate(-90, 14.28, 7)" gadfly:scale="10.0" visibility="hidden">2550</text>
    <text x="14.28" y="-22.33" text-anchor="middle" transform="rotate(-90, 14.28, 80.31)" gadfly:scale="10.0" visibility="hidden">2600</text>
    <text x="14.28" y="-24.77" text-anchor="middle" transform="rotate(-90, 14.28, 55.88)" gadfly:scale="10.0" visibility="hidden">2650</text>
    <text x="14.28" y="-27.21" text-anchor="middle" transform="rotate(-90, 14.28, 31.44)" gadfly:scale="10.0" visibility="hidden">2700</text>
    <text x="14.28" y="-29.66" text-anchor="middle" transform="rotate(-90, 14.28, 7)" gadfly:scale="10.0" visibility="hidden">2750</text>
    <text x="14.28" y="-32.1" text-anchor="middle" transform="rotate(-90, 14.28, 80.31)" gadfly:scale="10.0" visibility="hidden">2800</text>
    <text x="14.28" y="-34.55" text-anchor="middle" transform="rotate(-90, 14.28, 55.88)" gadfly:scale="10.0" visibility="hidden">2850</text>
    <text x="14.28" y="-36.99" text-anchor="middle" transform="rotate(-90, 14.28, 31.44)" gadfly:scale="10.0" visibility="hidden">2900</text>
    <text x="14.28" y="-39.43" text-anchor="middle" transform="rotate(-90, 14.28, 7)" gadfly:scale="10.0" visibility="hidden">2950</text>
    <text x="14.28" y="-41.88" text-anchor="middle" transform="rotate(-90, 14.28, 80.31)" gadfly:scale="10.0" visibility="hidden">3000</text>
    <text x="14.28" y="-44.32" text-anchor="middle" transform="rotate(-90, 14.28, 55.88)" gadfly:scale="10.0" visibility="hidden">3050</text>
    <text x="14.28" y="-46.76" text-anchor="middle" transform="rotate(-90, 14.28, 31.44)" gadfly:scale="10.0" visibility="hidden">3100</text>
    <text x="14.28" y="-49.21" text-anchor="middle" transform="rotate(-90, 14.28, 7)" gadfly:scale="10.0" visibility="hidden">3150</text>
    <text x="14.28" y="-51.65" text-anchor="middle" transform="rotate(-90, 14.28, 80.31)" gadfly:scale="10.0" visibility="hidden">3200</text>
    <text x="14.28" y="-54.1" text-anchor="middle" transform="rotate(-90, 14.28, 55.88)" gadfly:scale="10.0" visibility="hidden">3250</text>
    <text x="14.28" y="-56.54" text-anchor="middle" transform="rotate(-90, 14.28, 31.44)" gadfly:scale="10.0" visibility="hidden">3300</text>
    <text x="14.28" y="-58.98" text-anchor="middle" transform="rotate(-90, 14.28, 7)" gadfly:scale="10.0" visibility="hidden">3350</text>
    <text x="14.28" y="-61.43" text-anchor="middle" transform="rotate(-90, 14.28, 80.31)" gadfly:scale="10.0" visibility="hidden">3400</text>
    <text x="14.28" y="-63.87" text-anchor="middle" transform="rotate(-90, 14.28, 55.88)" gadfly:scale="10.0" visibility="hidden">3450</text>
    <text x="14.28" y="-66.32" text-anchor="middle" transform="rotate(-90, 14.28, 31.44)" gadfly:scale="10.0" visibility="hidden">3500</text>
    <text x="14.28" y="202.51" text-anchor="middle" transform="rotate(-90, 14.28, 7)" gadfly:scale="0.5" visibility="hidden">-2000</text>
    <text x="14.28" y="104.75" text-anchor="middle" transform="rotate(-90, 14.28, 80.31)" gadfly:scale="0.5" visibility="hidden">0</text>
    <text x="14.28" y="7" text-anchor="middle" transform="rotate(-90, 14.28, 55.88)" gadfly:scale="0.5" visibility="hidden">2000</text>
    <text x="14.28" y="-90.75" text-anchor="middle" transform="rotate(-90, 14.28, 31.44)" gadfly:scale="0.5" visibility="hidden">4000</text>
    <text x="14.28" y="153.63" text-anchor="middle" transform="rotate(-90, 14.28, 7)" gadfly:scale="5.0" visibility="hidden">-1000</text>
    <text x="14.28" y="148.74" text-anchor="middle" transform="rotate(-90, 14.28, 80.31)" gadfly:scale="5.0" visibility="hidden">-900</text>
    <text x="14.28" y="143.85" text-anchor="middle" transform="rotate(-90, 14.28, 55.88)" gadfly:scale="5.0" visibility="hidden">-800</text>
    <text x="14.28" y="138.97" text-anchor="middle" transform="rotate(-90, 14.28, 31.44)" gadfly:scale="5.0" visibility="hidden">-700</text>
    <text x="14.28" y="134.08" text-anchor="middle" transform="rotate(-90, 14.28, 7)" gadfly:scale="5.0" visibility="hidden">-600</text>
    <text x="14.28" y="129.19" text-anchor="middle" transform="rotate(-90, 14.28, 80.31)" gadfly:scale="5.0" visibility="hidden">-500</text>
    <text x="14.28" y="124.3" text-anchor="middle" transform="rotate(-90, 14.28, 55.88)" gadfly:scale="5.0" visibility="hidden">-400</text>
    <text x="14.28" y="119.42" text-anchor="middle" transform="rotate(-90, 14.28, 31.44)" gadfly:scale="5.0" visibility="hidden">-300</text>
    <text x="14.28" y="114.53" text-anchor="middle" transform="rotate(-90, 14.28, 7)" gadfly:scale="5.0" visibility="hidden">-200</text>
    <text x="14.28" y="109.64" text-anchor="middle" transform="rotate(-90, 14.28, 80.31)" gadfly:scale="5.0" visibility="hidden">-100</text>
    <text x="14.28" y="104.75" text-anchor="middle" transform="rotate(-90, 14.28, 55.88)" gadfly:scale="5.0" visibility="hidden">0</text>
    <text x="14.28" y="99.87" text-anchor="middle" transform="rotate(-90, 14.28, 31.44)" gadfly:scale="5.0" visibility="hidden">100</text>
    <text x="14.28" y="94.98" text-anchor="middle" transform="rotate(-90, 14.28, 7)" gadfly:scale="5.0" visibility="hidden">200</text>
    <text x="14.28" y="90.09" text-anchor="middle" transform="rotate(-90, 14.28, 80.31)" gadfly:scale="5.0" visibility="hidden">300</text>
    <text x="14.28" y="85.2" text-anchor="middle" transform="rotate(-90, 14.28, 55.88)" gadfly:scale="5.0" visibility="hidden">400</text>
    <text x="14.28" y="80.31" text-anchor="middle" transform="rotate(-90, 14.28, 31.44)" gadfly:scale="5.0" visibility="hidden">500</text>
    <text x="14.28" y="75.43" text-anchor="middle" transform="rotate(-90, 14.28, 7)" gadfly:scale="5.0" visibility="hidden">600</text>
    <text x="14.28" y="70.54" text-anchor="middle" transform="rotate(-90, 14.28, 80.31)" gadfly:scale="5.0" visibility="hidden">700</text>
    <text x="14.28" y="65.65" text-anchor="middle" transform="rotate(-90, 14.28, 55.88)" gadfly:scale="5.0" visibility="hidden">800</text>
    <text x="14.28" y="60.76" text-anchor="middle" transform="rotate(-90, 14.28, 31.44)" gadfly:scale="5.0" visibility="hidden">900</text>
    <text x="14.28" y="55.88" text-anchor="middle" transform="rotate(-90, 14.28, 7)" gadfly:scale="5.0" visibility="hidden">1000</text>
    <text x="14.28" y="50.99" text-anchor="middle" transform="rotate(-90, 14.28, 80.31)" gadfly:scale="5.0" visibility="hidden">1100</text>
    <text x="14.28" y="46.1" text-anchor="middle" transform="rotate(-90, 14.28, 55.88)" gadfly:scale="5.0" visibility="hidden">1200</text>
    <text x="14.28" y="41.21" text-anchor="middle" transform="rotate(-90, 14.28, 31.44)" gadfly:scale="5.0" visibility="hidden">1300</text>
    <text x="14.28" y="36.33" text-anchor="middle" transform="rotate(-90, 14.28, 7)" gadfly:scale="5.0" visibility="hidden">1400</text>
    <text x="14.28" y="31.44" text-anchor="middle" transform="rotate(-90, 14.28, 80.31)" gadfly:scale="5.0" visibility="hidden">1500</text>
    <text x="14.28" y="26.55" text-anchor="middle" transform="rotate(-90, 14.28, 55.88)" gadfly:scale="5.0" visibility="hidden">1600</text>
    <text x="14.28" y="21.66" text-anchor="middle" transform="rotate(-90, 14.28, 31.44)" gadfly:scale="5.0" visibility="hidden">1700</text>
    <text x="14.28" y="16.78" text-anchor="middle" transform="rotate(-90, 14.28, 7)" gadfly:scale="5.0" visibility="hidden">1800</text>
    <text x="14.28" y="11.89" text-anchor="middle" transform="rotate(-90, 14.28, 80.31)" gadfly:scale="5.0" visibility="hidden">1900</text>
    <text x="14.28" y="7" text-anchor="middle" transform="rotate(-90, 14.28, 55.88)" gadfly:scale="5.0" visibility="hidden">2000</text>
    <text x="14.28" y="2.11" text-anchor="middle" transform="rotate(-90, 14.28, 31.44)" gadfly:scale="5.0" visibility="hidden">2100</text>
    <text x="14.28" y="-2.78" text-anchor="middle" transform="rotate(-90, 14.28, 7)" gadfly:scale="5.0" visibility="hidden">2200</text>
    <text x="14.28" y="-7.66" text-anchor="middle" transform="rotate(-90, 14.28, 80.31)" gadfly:scale="5.0" visibility="hidden">2300</text>
    <text x="14.28" y="-12.55" text-anchor="middle" transform="rotate(-90, 14.28, 55.88)" gadfly:scale="5.0" visibility="hidden">2400</text>
    <text x="14.28" y="-17.44" text-anchor="middle" transform="rotate(-90, 14.28, 31.44)" gadfly:scale="5.0" visibility="hidden">2500</text>
    <text x="14.28" y="-22.33" text-anchor="middle" transform="rotate(-90, 14.28, 7)" gadfly:scale="5.0" visibility="hidden">2600</text>
    <text x="14.28" y="-27.21" text-anchor="middle" transform="rotate(-90, 14.28, 80.31)" gadfly:scale="5.0" visibility="hidden">2700</text>
    <text x="14.28" y="-32.1" text-anchor="middle" transform="rotate(-90, 14.28, 55.88)" gadfly:scale="5.0" visibility="hidden">2800</text>
    <text x="14.28" y="-36.99" text-anchor="middle" transform="rotate(-90, 14.28, 31.44)" gadfly:scale="5.0" visibility="hidden">2900</text>
    <text x="14.28" y="-41.88" text-anchor="middle" transform="rotate(-90, 14.28, 7)" gadfly:scale="5.0" visibility="hidden">3000</text>
    <text x="14.28" y="-46.76" text-anchor="middle" transform="rotate(-90, 14.28, 80.31)" gadfly:scale="5.0" visibility="hidden">3100</text>
    <text x="14.28" y="-51.65" text-anchor="middle" transform="rotate(-90, 14.28, 55.88)" gadfly:scale="5.0" visibility="hidden">3200</text>
    <text x="14.28" y="-56.54" text-anchor="middle" transform="rotate(-90, 14.28, 31.44)" gadfly:scale="5.0" visibility="hidden">3300</text>
    <text x="14.28" y="-61.43" text-anchor="middle" transform="rotate(-90, 14.28, 7)" gadfly:scale="5.0" visibility="hidden">3400</text>
    <text x="14.28" y="-66.32" text-anchor="middle" transform="rotate(-90, 14.28, 80.31)" gadfly:scale="5.0" visibility="hidden">3500</text>
  </g>
  <g class="guide ylabels" font-size="2.82" font-family="'PT Sans Caption','Helvetica Neue','Helvetica',sans-serif" fill="#6C606B" id="img-7632ea38-22">
    <text x="14.28" y="80.31" text-anchor="middle" transform="rotate(-90, 14.28, 80.31)">500</text>
    <text x="14.28" y="55.88" text-anchor="middle" transform="rotate(-90, 14.28, 55.88)">1000</text>
    <text x="14.28" y="31.44" text-anchor="middle" transform="rotate(-90, 14.28, 31.44)">1500</text>
    <text x="14.28" y="7" text-anchor="middle" transform="rotate(-90, 14.28, 7)">2000</text>
  </g>
  <g font-size="3.88" font-family="'PT Sans','Helvetica Neue','Helvetica',sans-serif" fill="#564A55" stroke="#000000" stroke-opacity="0.000" id="img-7632ea38-23">
    <text x="8.81" y="41.66" text-anchor="middle" dy="0.35em" transform="rotate(-90, 8.81, 43.66)">y [m]</text>
  </g>
</g>
<defs>
  <clipPath id="img-7632ea38-9">
  <path d="M15.28,5 L 133.15 5 133.15 82.32 15.28 82.32" />
</clipPath>
  <g id="img-7632ea38-18">
    <circle cx="0" cy="0" r="0.9"/>
  </g>
</defs>
</svg>
