<?xml version="1.0" encoding="UTF-8"?>
<svg xmlns="http://www.w3.org/2000/svg"
     xmlns:xlink="http://www.w3.org/1999/xlink"
     xmlns:gadfly="http://www.gadflyjl.org/ns"
     version="1.2"
     width="152.4mm" height="203.2mm" viewBox="0 0 152.4 203.2"
     stroke="none"
     fill="#000000"
     stroke-width="0.3"
     font-size="3.88"
>
<g class="plotroot xscalable yscalable" id="img-ec801d89-1">
  <g font-size="3.88" font-family="'PT Sans','Helvetica Neue','Helvetica',sans-serif" fill="#564A55" stroke="#000000" stroke-opacity="0.000" id="img-ec801d89-2">
    <text x="83.45" y="191.56" text-anchor="middle" dy="0.6em">Time [a]</text>
  </g>
  <g class="guide xlabels" font-size="2.82" font-family="'PT Sans Caption','Helvetica Neue','Helvetica',sans-serif" fill="#6C606B" id="img-ec801d89-3">
    <text x="21.51" y="185.51" text-anchor="middle" dy="0.6em">0</text>
    <text x="46.29" y="185.51" text-anchor="middle" dy="0.6em">10</text>
    <text x="71.07" y="185.51" text-anchor="middle" dy="0.6em">20</text>
    <text x="95.84" y="185.51" text-anchor="middle" dy="0.6em">30</text>
    <text x="120.62" y="185.51" text-anchor="middle" dy="0.6em">40</text>
    <text x="145.4" y="185.51" text-anchor="middle" dy="0.6em">50</text>
  </g>
<g clip-path="url(#img-ec801d89-4)">
  <g id="img-ec801d89-5">
    <g pointer-events="visible" opacity="1" fill="#000000" fill-opacity="0.000" stroke="#000000" stroke-opacity="0.000" class="guide background" id="img-ec801d89-6">
      <rect x="19.51" y="111.41" width="127.89" height="73.1"/>
    </g>
    <g class="guide ygridlines xfixed" stroke-dasharray="0.5,0.5" stroke-width="0.2" stroke="#D0D0E0" id="img-ec801d89-7">
      <path fill="none" d="M19.51,182.51 L 147.4 182.51"/>
      <path fill="none" d="M19.51,165.24 L 147.4 165.24"/>
      <path fill="none" d="M19.51,147.96 L 147.4 147.96"/>
      <path fill="none" d="M19.51,130.68 L 147.4 130.68"/>
      <path fill="none" d="M19.51,113.41 L 147.4 113.41"/>
    </g>
    <g class="guide xgridlines yfixed" stroke-dasharray="0.5,0.5" stroke-width="0.2" stroke="#D0D0E0" id="img-ec801d89-8">
      <path fill="none" d="M21.51,111.41 L 21.51 184.51"/>
      <path fill="none" d="M46.29,111.41 L 46.29 184.51"/>
      <path fill="none" d="M71.07,111.41 L 71.07 184.51"/>
      <path fill="none" d="M95.84,111.41 L 95.84 184.51"/>
      <path fill="none" d="M120.62,111.41 L 120.62 184.51"/>
      <path fill="none" d="M145.4,111.41 L 145.4 184.51"/>
    </g>
    <g class="plotpanel" id="img-ec801d89-9">
      <g stroke-width="0.71" fill="#000000" fill-opacity="0.000" class="geometry" stroke-dasharray="none" stroke="#0000FF" id="img-ec801d89-10">
        <path fill="none" d="M23.99,182.51 L 26.47 182.51 28.94 182.51 31.42 182.51 33.9 182.51 36.38 182.51 38.85 182.51 41.33 182.51 43.81 182.51 46.29 182.51 48.77 182.51 51.24 182.51 53.72 182.51 56.2 182.5 58.68 182.48 61.15 182.43 63.63 182.3 66.11 182.04 68.59 181.6 71.07 180.9 73.54 179.87 76.02 178.44 78.5 176.56 80.98 174.2 83.45 171.33 85.93 167.96 88.41 164.13 90.89 159.89 93.37 155.32 95.84 150.55 98.32 145.7 100.8 140.9 103.28 136.28 105.76 131.98 108.23 128.09 110.71 124.69 113.19 121.86 115.67 119.62 118.14 117.98 120.62 116.95 123.1 116.5 125.58 116.58 128.06 117.16 130.53 118.19 133.01 119.6 135.49 121.35 137.97 123.36 140.44 125.6 142.92 128 145.4 130.53"/>
      </g>
      <g class="geometry" id="img-ec801d89-11">
        <g class="color_RGBA{Float32}(1.0f0,0.0f0,0.0f0,1.0f0)" stroke="#FFFFFF" stroke-width="0.3" fill="#FF0000" id="img-ec801d89-12">
          <use xlink:href="#img-ec801d89-13" x="23.99" y="182.51"/>
          <use xlink:href="#img-ec801d89-13" x="26.47" y="182.51"/>
          <use xlink:href="#img-ec801d89-13" x="28.94" y="182.51"/>
          <use xlink:href="#img-ec801d89-13" x="31.42" y="182.51"/>
          <use xlink:href="#img-ec801d89-13" x="33.9" y="182.51"/>
          <use xlink:href="#img-ec801d89-13" x="36.38" y="182.51"/>
          <use xlink:href="#img-ec801d89-13" x="38.85" y="182.51"/>
          <use xlink:href="#img-ec801d89-13" x="41.33" y="182.51"/>
          <use xlink:href="#img-ec801d89-13" x="43.81" y="182.51"/>
          <use xlink:href="#img-ec801d89-13" x="46.29" y="182.51"/>
          <use xlink:href="#img-ec801d89-13" x="48.77" y="182.51"/>
          <use xlink:href="#img-ec801d89-13" x="51.24" y="182.51"/>
          <use xlink:href="#img-ec801d89-13" x="53.72" y="182.51"/>
          <use xlink:href="#img-ec801d89-13" x="56.2" y="182.51"/>
          <use xlink:href="#img-ec801d89-13" x="58.68" y="182.5"/>
          <use xlink:href="#img-ec801d89-13" x="61.15" y="182.47"/>
          <use xlink:href="#img-ec801d89-13" x="63.63" y="182.4"/>
          <use xlink:href="#img-ec801d89-13" x="66.11" y="182.24"/>
          <use xlink:href="#img-ec801d89-13" x="68.59" y="181.93"/>
          <use xlink:href="#img-ec801d89-13" x="71.07" y="181.4"/>
          <use xlink:href="#img-ec801d89-13" x="73.54" y="180.57"/>
          <use xlink:href="#img-ec801d89-13" x="76.02" y="179.36"/>
          <use xlink:href="#img-ec801d89-13" x="78.5" y="177.7"/>
          <use xlink:href="#img-ec801d89-13" x="80.98" y="175.53"/>
          <use xlink:href="#img-ec801d89-13" x="83.45" y="172.82"/>
          <use xlink:href="#img-ec801d89-13" x="85.93" y="169.57"/>
          <use xlink:href="#img-ec801d89-13" x="88.41" y="165.81"/>
          <use xlink:href="#img-ec801d89-13" x="90.89" y="161.6"/>
          <use xlink:href="#img-ec801d89-13" x="93.37" y="157.04"/>
          <use xlink:href="#img-ec801d89-13" x="95.84" y="152.25"/>
          <use xlink:href="#img-ec801d89-13" x="98.32" y="147.38"/>
          <use xlink:href="#img-ec801d89-13" x="100.8" y="142.57"/>
          <use xlink:href="#img-ec801d89-13" x="103.28" y="137.96"/>
          <use xlink:href="#img-ec801d89-13" x="105.76" y="133.68"/>
          <use xlink:href="#img-ec801d89-13" x="108.23" y="129.83"/>
          <use xlink:href="#img-ec801d89-13" x="110.71" y="126.49"/>
          <use xlink:href="#img-ec801d89-13" x="113.19" y="123.72"/>
          <use xlink:href="#img-ec801d89-13" x="115.67" y="121.55"/>
          <use xlink:href="#img-ec801d89-13" x="118.14" y="119.98"/>
          <use xlink:href="#img-ec801d89-13" x="120.62" y="119.01"/>
          <use xlink:href="#img-ec801d89-13" x="123.1" y="118.59"/>
          <use xlink:href="#img-ec801d89-13" x="125.58" y="118.71"/>
          <use xlink:href="#img-ec801d89-13" x="128.06" y="119.3"/>
          <use xlink:href="#img-ec801d89-13" x="130.53" y="120.32"/>
          <use xlink:href="#img-ec801d89-13" x="133.01" y="121.71"/>
          <use xlink:href="#img-ec801d89-13" x="135.49" y="123.4"/>
          <use xlink:href="#img-ec801d89-13" x="137.97" y="125.36"/>
          <use xlink:href="#img-ec801d89-13" x="140.44" y="127.52"/>
          <use xlink:href="#img-ec801d89-13" x="142.92" y="129.84"/>
          <use xlink:href="#img-ec801d89-13" x="145.4" y="132.27"/>
        </g>
      </g>
    </g>
  </g>
</g>
  <g class="guide ylabels" font-size="2.82" font-family="'PT Sans Caption','Helvetica Neue','Helvetica',sans-serif" fill="#6C606B" id="img-ec801d89-14">
    <text x="18.51" y="182.51" text-anchor="end" dy="0.35em">0</text>
    <text x="18.51" y="165.24" text-anchor="end" dy="0.35em">100</text>
    <text x="18.51" y="147.96" text-anchor="end" dy="0.35em">200</text>
    <text x="18.51" y="130.68" text-anchor="end" dy="0.35em">300</text>
    <text x="18.51" y="113.41" text-anchor="end" dy="0.35em">400</text>
  </g>
  <g font-size="3.88" font-family="'PT Sans','Helvetica Neue','Helvetica',sans-serif" fill="#564A55" stroke="#000000" stroke-opacity="0.000" id="img-ec801d89-15">
    <text x="8.83" y="145.96" text-anchor="middle" dy="0.35em" transform="rotate(-90, 8.83, 147.96)">Concentration [ppb]</text>
  </g>
  <g font-size="3.88" font-family="'PT Sans','Helvetica Neue','Helvetica',sans-serif" fill="#564A55" stroke="#000000" stroke-opacity="0.000" id="img-ec801d89-16">
    <text x="83.45" y="106.6" text-anchor="middle" dy="0.6em">w20a</text>
  </g>
</g>
<g class="plotroot xscalable yscalable" id="img-ec801d89-17">
  <g font-size="3.88" font-family="'PT Sans','Helvetica Neue','Helvetica',sans-serif" fill="#564A55" stroke="#000000" stroke-opacity="0.000" id="img-ec801d89-18">
    <text x="84.22" y="89.96" text-anchor="middle" dy="0.6em">Time [a]</text>
  </g>
  <g class="guide xlabels" font-size="2.82" font-family="'PT Sans Caption','Helvetica Neue','Helvetica',sans-serif" fill="#6C606B" id="img-ec801d89-19">
    <text x="23.04" y="83.91" text-anchor="middle" dy="0.6em">0</text>
    <text x="47.51" y="83.91" text-anchor="middle" dy="0.6em">10</text>
    <text x="71.98" y="83.91" text-anchor="middle" dy="0.6em">20</text>
    <text x="96.45" y="83.91" text-anchor="middle" dy="0.6em">30</text>
    <text x="120.93" y="83.91" text-anchor="middle" dy="0.6em">40</text>
    <text x="145.4" y="83.91" text-anchor="middle" dy="0.6em">50</text>
  </g>
<g clip-path="url(#img-ec801d89-20)">
  <g id="img-ec801d89-21">
    <g pointer-events="visible" opacity="1" fill="#000000" fill-opacity="0.000" stroke="#000000" stroke-opacity="0.000" class="guide background" id="img-ec801d89-22">
      <rect x="21.04" y="9.81" width="126.36" height="73.1"/>
    </g>
    <g class="guide ygridlines xfixed" stroke-dasharray="0.5,0.5" stroke-width="0.2" stroke="#D0D0E0" id="img-ec801d89-23">
      <path fill="none" d="M21.04,80.91 L 147.4 80.91"/>
      <path fill="none" d="M21.04,46.36 L 147.4 46.36"/>
      <path fill="none" d="M21.04,11.81 L 147.4 11.81"/>
    </g>
    <g class="guide xgridlines yfixed" stroke-dasharray="0.5,0.5" stroke-width="0.2" stroke="#D0D0E0" id="img-ec801d89-24">
      <path fill="none" d="M23.04,9.81 L 23.04 82.91"/>
      <path fill="none" d="M47.51,9.81 L 47.51 82.91"/>
      <path fill="none" d="M71.98,9.81 L 71.98 82.91"/>
      <path fill="none" d="M96.45,9.81 L 96.45 82.91"/>
      <path fill="none" d="M120.93,9.81 L 120.93 82.91"/>
      <path fill="none" d="M145.4,9.81 L 145.4 82.91"/>
    </g>
    <g class="plotpanel" id="img-ec801d89-25">
      <g stroke-width="0.71" fill="#000000" fill-opacity="0.000" class="geometry" stroke-dasharray="none" stroke="#0000FF" id="img-ec801d89-26">
        <path fill="none" d="M25.48,80.91 L 27.93 80.91 30.38 80.91 32.83 80.91 35.27 80.91 37.72 80.91 40.17 80.91 42.61 80.91 45.06 80.85 47.51 80.56 49.96 79.79 52.4 78.3 54.85 75.96 57.3 72.74 59.75 68.71 62.19 64.02 64.64 58.81 67.09 53.27 69.53 47.54 71.98 41.78 74.43 36.2 76.88 31.11 79.32 26.83 81.77 23.61 84.22 21.57 86.67 20.7 89.11 20.92 91.56 22.06 94.01 23.96 96.45 26.43 98.9 29.31 101.35 32.46 103.8 35.74 106.24 39.07 108.69 42.37 111.14 45.58 113.59 48.65 116.03 51.57 118.48 54.3 120.93 56.85 123.37 59.2 125.82 61.37 128.27 63.35 130.72 65.16 133.16 66.81 135.61 68.29 138.06 69.64 140.51 70.85 142.95 71.94 145.4 72.92"/>
      </g>
      <g class="geometry" id="img-ec801d89-27">
        <g class="color_RGBA{Float32}(1.0f0,0.0f0,0.0f0,1.0f0)" stroke="#FFFFFF" stroke-width="0.3" fill="#FF0000" id="img-ec801d89-28">
          <use xlink:href="#img-ec801d89-29" x="25.48" y="80.91"/>
          <use xlink:href="#img-ec801d89-29" x="27.93" y="80.91"/>
          <use xlink:href="#img-ec801d89-29" x="30.38" y="80.91"/>
          <use xlink:href="#img-ec801d89-29" x="32.83" y="80.91"/>
          <use xlink:href="#img-ec801d89-29" x="35.27" y="80.91"/>
          <use xlink:href="#img-ec801d89-29" x="37.72" y="80.91"/>
          <use xlink:href="#img-ec801d89-29" x="40.17" y="80.91"/>
          <use xlink:href="#img-ec801d89-29" x="42.61" y="80.91"/>
          <use xlink:href="#img-ec801d89-29" x="45.06" y="80.9"/>
          <use xlink:href="#img-ec801d89-29" x="47.51" y="80.77"/>
          <use xlink:href="#img-ec801d89-29" x="49.96" y="80.28"/>
          <use xlink:href="#img-ec801d89-29" x="52.4" y="79.09"/>
          <use xlink:href="#img-ec801d89-29" x="54.85" y="76.93"/>
          <use xlink:href="#img-ec801d89-29" x="57.3" y="73.67"/>
          <use xlink:href="#img-ec801d89-29" x="59.75" y="69.34"/>
          <use xlink:href="#img-ec801d89-29" x="62.19" y="64.07"/>
          <use xlink:href="#img-ec801d89-29" x="64.64" y="58.07"/>
          <use xlink:href="#img-ec801d89-29" x="67.09" y="51.55"/>
          <use xlink:href="#img-ec801d89-29" x="69.53" y="44.74"/>
          <use xlink:href="#img-ec801d89-29" x="71.98" y="37.93"/>
          <use xlink:href="#img-ec801d89-29" x="74.43" y="31.52"/>
          <use xlink:href="#img-ec801d89-29" x="76.88" y="25.98"/>
          <use xlink:href="#img-ec801d89-29" x="79.32" y="21.66"/>
          <use xlink:href="#img-ec801d89-29" x="81.77" y="18.76"/>
          <use xlink:href="#img-ec801d89-29" x="84.22" y="17.3"/>
          <use xlink:href="#img-ec801d89-29" x="86.67" y="17.16"/>
          <use xlink:href="#img-ec801d89-29" x="89.11" y="18.16"/>
          <use xlink:href="#img-ec801d89-29" x="91.56" y="20.06"/>
          <use xlink:href="#img-ec801d89-29" x="94.01" y="22.65"/>
          <use xlink:href="#img-ec801d89-29" x="96.45" y="25.72"/>
          <use xlink:href="#img-ec801d89-29" x="98.9" y="29.1"/>
          <use xlink:href="#img-ec801d89-29" x="101.35" y="32.65"/>
          <use xlink:href="#img-ec801d89-29" x="103.8" y="36.24"/>
          <use xlink:href="#img-ec801d89-29" x="106.24" y="39.8"/>
          <use xlink:href="#img-ec801d89-29" x="108.69" y="43.25"/>
          <use xlink:href="#img-ec801d89-29" x="111.14" y="46.55"/>
          <use xlink:href="#img-ec801d89-29" x="113.59" y="49.68"/>
          <use xlink:href="#img-ec801d89-29" x="116.03" y="52.6"/>
          <use xlink:href="#img-ec801d89-29" x="118.48" y="55.32"/>
          <use xlink:href="#img-ec801d89-29" x="120.93" y="57.84"/>
          <use xlink:href="#img-ec801d89-29" x="123.37" y="60.14"/>
          <use xlink:href="#img-ec801d89-29" x="125.82" y="62.25"/>
          <use xlink:href="#img-ec801d89-29" x="128.27" y="64.18"/>
          <use xlink:href="#img-ec801d89-29" x="130.72" y="65.92"/>
          <use xlink:href="#img-ec801d89-29" x="133.16" y="67.5"/>
          <use xlink:href="#img-ec801d89-29" x="135.61" y="68.92"/>
          <use xlink:href="#img-ec801d89-29" x="138.06" y="70.2"/>
          <use xlink:href="#img-ec801d89-29" x="140.51" y="71.36"/>
          <use xlink:href="#img-ec801d89-29" x="142.95" y="72.39"/>
          <use xlink:href="#img-ec801d89-29" x="145.4" y="73.32"/>
        </g>
      </g>
    </g>
  </g>
</g>
  <g class="guide ylabels" font-size="2.82" font-family="'PT Sans Caption','Helvetica Neue','Helvetica',sans-serif" fill="#6C606B" id="img-ec801d89-30">
    <text x="20.04" y="80.91" text-anchor="end" dy="0.35em">0</text>
    <text x="20.04" y="46.36" text-anchor="end" dy="0.35em">500</text>
    <text x="20.04" y="11.81" text-anchor="end" dy="0.35em">1000</text>
  </g>
  <g font-size="3.88" font-family="'PT Sans','Helvetica Neue','Helvetica',sans-serif" fill="#564A55" stroke="#000000" stroke-opacity="0.000" id="img-ec801d89-31">
    <text x="8.83" y="44.36" text-anchor="middle" dy="0.35em" transform="rotate(-90, 8.83, 46.36)">Concentration [ppb]</text>
  </g>
  <g font-size="3.88" font-family="'PT Sans','Helvetica Neue','Helvetica',sans-serif" fill="#564A55" stroke="#000000" stroke-opacity="0.000" id="img-ec801d89-32">
    <text x="84.22" y="5" text-anchor="middle" dy="0.6em">w13a</text>
  </g>
</g>
<defs>
  <clipPath id="img-ec801d89-4">
  <path d="M19.51,111.41 L 147.4 111.41 147.4 184.51 19.51 184.51" />
</clipPath>
  <clipPath id="img-ec801d89-20">
  <path d="M21.04,9.81 L 147.4 9.81 147.4 82.91 21.04 82.91" />
</clipPath>
  <g id="img-ec801d89-13">
    <circle cx="0" cy="0" r="1.41"/>
  </g>
  <g id="img-ec801d89-29">
    <circle cx="0" cy="0" r="1.41"/>
  </g>
</defs>
</svg>
