<?xml version="1.0" encoding="UTF-8"?>
<svg xmlns="http://www.w3.org/2000/svg"
     xmlns:xlink="http://www.w3.org/1999/xlink"
     xmlns:gadfly="http://www.gadflyjl.org/ns"
     version="1.2"
     width="203.2mm" height="101.6mm" viewBox="0 0 203.2 101.6"
     stroke="none"
     fill="#000000"
     stroke-width="0.3"
     font-size="3.88"
>
<defs>
  <marker id="arrow" markerWidth="15" markerHeight="7" refX="5" refY="3.5" orient="auto" markerUnits="strokeWidth">
    <path d="M0,0 L15,3.5 L0,7 z" stroke="context-stroke" fill="context-stroke"/>
  </marker>
</defs>
<g class="plotroot xscalable yscalable" id="img-5b3d7d89-1">
  <g font-size="4.94" font-family="'PT Sans','Helvetica Neue','Helvetica',sans-serif" fill="#564A55" stroke="#000000" stroke-opacity="0.000" id="img-5b3d7d89-2">
    <g transform="translate(109.67,90.04)">
      <g class="primitive">
        <text text-anchor="middle" dy="0.6em">Time</text>
      </g>
    </g>
  </g>
  <g class="guide xlabels" font-size="4.23" font-family="'PT Sans Caption','Helvetica Neue','Helvetica',sans-serif" fill="#6C606B" id="img-5b3d7d89-3">
    <g transform="translate(30.75,82.97)">
      <g class="primitive">
        <text text-anchor="middle" dy="0.6em">0</text>
      </g>
    </g>
    <g transform="translate(62.32,82.97)">
      <g class="primitive">
        <text text-anchor="middle" dy="0.6em">10</text>
      </g>
    </g>
    <g transform="translate(93.88,82.97)">
      <g class="primitive">
        <text text-anchor="middle" dy="0.6em">20</text>
      </g>
    </g>
    <g transform="translate(125.45,82.97)">
      <g class="primitive">
        <text text-anchor="middle" dy="0.6em">30</text>
      </g>
    </g>
    <g transform="translate(157.02,82.97)">
      <g class="primitive">
        <text text-anchor="middle" dy="0.6em">40</text>
      </g>
    </g>
    <g transform="translate(188.59,82.97)">
      <g class="primitive">
        <text text-anchor="middle" dy="0.6em">50</text>
      </g>
    </g>
  </g>
  <g class="guide colorkey" id="img-5b3d7d89-4">
    <g fill="#4C404B" font-size="2.82" font-family="'PT Sans','Helvetica Neue','Helvetica',sans-serif" id="img-5b3d7d89-5">
      <g transform="translate(196.09,39.73)" id="img-5b3d7d89-6">
        <g class="primitive">
          <text dy="0.35em">v</text>
        </g>
      </g>
      <g transform="translate(196.09,44.24)" id="img-5b3d7d89-7">
        <g class="primitive">
          <text dy="0.35em">t<tspan dy="0.4em" font-size="83.3333%">0</tspan></text>
        </g>
      </g>
      <g transform="translate(196.09,48.74)" id="img-5b3d7d89-8">
        <g class="primitive">
          <text dy="0.35em">t<tspan dy="0.4em" font-size="83.3333%">1</tspan></text>
        </g>
      </g>
    </g>
    <g stroke-width="0" id="img-5b3d7d89-9">
      <g stroke="#000000" stroke-opacity="0.000" fill-opacity="1" fill="#008000" id="img-5b3d7d89-10">
        <g transform="translate(192.84,48.74)" id="img-5b3d7d89-11">
          <circle cx="0" cy="0" r="0.9" class="primitive"/>
        </g>
      </g>
      <g stroke="#000000" stroke-opacity="0.000" fill-opacity="1" fill="#0000FF" id="img-5b3d7d89-12">
        <g transform="translate(192.84,44.24)" id="img-5b3d7d89-13">
          <circle cx="0" cy="0" r="0.9" class="primitive"/>
        </g>
      </g>
      <g stroke="#000000" stroke-opacity="0.000" fill-opacity="1" fill="#FF0000" id="img-5b3d7d89-14">
        <g transform="translate(192.84,39.73)" id="img-5b3d7d89-15">
          <circle cx="0" cy="0" r="0.9" class="primitive"/>
        </g>
      </g>
    </g>
    <g fill="#362A35" font-size="3.88" font-family="'PT Sans','Helvetica Neue','Helvetica',sans-serif" stroke="#000000" stroke-opacity="0.000" id="img-5b3d7d89-16">
      <g transform="translate(191.59,35.98)" id="img-5b3d7d89-17">
        <g class="primitive">
          <text dy="-0em"></text>
        </g>
      </g>
    </g>
  </g>
  <g clip-path="url(#img-5b3d7d89-18)">
    <g id="img-5b3d7d89-19">
      <g pointer-events="visible" stroke-width="0.3" fill="#000000" fill-opacity="0.000" stroke="#000000" stroke-opacity="0.000" class="guide background" id="img-5b3d7d89-20">
        <g transform="translate(109.67,43.49)" id="img-5b3d7d89-21">
          <path d="M-80.92,-38.49 L80.92,-38.49 80.92,38.49 -80.92,38.49  z" class="primitive"/>
        </g>
      </g>
      <g class="guide ygridlines xfixed" stroke-dasharray="0.5,0.5" stroke-width="0.2" stroke="#D0D0E0" id="img-5b3d7d89-22">
        <g transform="translate(109.67,79.97)" id="img-5b3d7d89-23">
          <path fill="none" d="M-80.92,0 L80.92,0 " class="primitive"/>
        </g>
        <g transform="translate(109.67,55.65)" id="img-5b3d7d89-24">
          <path fill="none" d="M-80.92,0 L80.92,0 " class="primitive"/>
        </g>
        <g transform="translate(109.67,31.32)" id="img-5b3d7d89-25">
          <path fill="none" d="M-80.92,0 L80.92,0 " class="primitive"/>
        </g>
        <g transform="translate(109.67,7)" id="img-5b3d7d89-26">
          <path fill="none" d="M-80.92,0 L80.92,0 " class="primitive"/>
        </g>
      </g>
      <g class="guide xgridlines yfixed" stroke-dasharray="0.5,0.5" stroke-width="0.2" stroke="#D0D0E0" id="img-5b3d7d89-27">
        <g transform="translate(30.75,43.49)" id="img-5b3d7d89-28">
          <path fill="none" d="M0,-38.49 L0,38.49 " class="primitive"/>
        </g>
        <g transform="translate(62.32,43.49)" id="img-5b3d7d89-29">
          <path fill="none" d="M0,-38.49 L0,38.49 " class="primitive"/>
        </g>
        <g transform="translate(93.88,43.49)" id="img-5b3d7d89-30">
          <path fill="none" d="M0,-38.49 L0,38.49 " class="primitive"/>
        </g>
        <g transform="translate(125.45,43.49)" id="img-5b3d7d89-31">
          <path fill="none" d="M0,-38.49 L0,38.49 " class="primitive"/>
        </g>
        <g transform="translate(157.02,43.49)" id="img-5b3d7d89-32">
          <path fill="none" d="M0,-38.49 L0,38.49 " class="primitive"/>
        </g>
        <g transform="translate(188.59,43.49)" id="img-5b3d7d89-33">
          <path fill="none" d="M0,-38.49 L0,38.49 " class="primitive"/>
        </g>
      </g>
      <g class="plotpanel" id="img-5b3d7d89-34">
        <metadata>
          <boundingbox value="28.74982096354165mm 5.0mm 161.8377739800347mm 76.97060275607639mm"/>
          <unitbox value="-0.6335619001611694 154111.24464742094 51.26712380032233 -158222.48929484191"/>
        </metadata>
        <g stroke-width="0.71" fill="#000000" fill-opacity="0.000" class="geometry" id="img-5b3d7d89-35">
          <g class="color_RGBA{N0f8}(0.0,0.502,0.0,1.0)" stroke-dasharray="none" stroke="#008000" id="img-5b3d7d89-36">
            <g transform="translate(112.73,79.97)" id="img-5b3d7d89-37">
              <path fill="none" d="M-78.83,0 L-78.83,0 -75.67,0 -75.67,0 -72.51,0 -72.51,0 -69.36,0 -69.36,0 -66.2,0 -66.2,0 -63.04,0 -63.04,0 -59.89,0 -59.89,0 -56.73,0 -56.73,0 -53.57,0 -53.57,0 -50.42,0 -50.42,0 -47.26,0 -47.26,0 -44.1,0 -44.1,0 -40.94,0 -40.94,0 -37.79,0 -37.79,0 -34.63,0 -34.63,0 -31.47,0 -31.47,0 -28.32,0 -28.32,0 -25.16,0 -25.16,0 -22,0 -22,0 -18.85,0 -18.85,0 -15.69,0 -15.69,0 -12.53,0 -12.53,0 -9.38,0 -9.38,0 -6.22,0 -6.22,0 -3.06,0 -3.06,0 0.09,0 0.09,0 3.25,0 3.25,0 6.41,0 6.41,0 9.56,0 9.56,0 12.72,0 12.72,0 15.88,0 15.88,0 19.03,0 19.03,0 22.19,0 22.19,0 25.35,0 25.35,0 28.5,0 28.5,0 31.66,0 31.66,0 34.82,0 34.82,0 37.97,0 37.97,0 41.13,0 41.13,0 44.29,0 44.29,0 47.44,0 47.44,0 50.6,0 50.6,0 53.76,0 53.76,0 56.91,-0 56.91,0 60.07,-0 60.07,0 63.23,-0 63.23,0 66.38,-0 66.38,0 69.54,-0 69.54,0 72.7,-0 72.7,0 74.28,0 74.28,0 75.85,-0 75.85,0 " class="primitive"/>
            </g>
          </g>
        </g>
        <g stroke-width="0.71" fill="#000000" fill-opacity="0.000" class="geometry" id="img-5b3d7d89-38">
          <g class="color_RGBA{N0f8}(0.0,0.0,1.0,1.0)" stroke-dasharray="none" stroke="#0000FF" id="img-5b3d7d89-39">
            <g transform="translate(112.73,79.97)" id="img-5b3d7d89-40">
              <path fill="none" d="M-78.83,0 L-78.83,0 -75.67,0 -75.67,0 -72.51,0 -72.51,0 -69.36,0 -69.36,0 -66.2,0 -66.2,0 -63.04,0 -63.04,0 -59.89,0 -59.89,0 -56.73,0 -56.73,0 -53.57,0 -53.57,0 -50.42,0 -50.42,0 -47.26,0 -47.26,0 -44.1,0 -44.1,0 -40.94,0 -40.94,0 -37.79,0 -37.79,0 -34.63,0 -34.63,0 -31.47,0 -31.47,0 -28.32,0 -28.32,0 -25.16,0 -25.16,0 -22,0 -22,0 -18.85,0 -18.85,0 -15.69,0 -15.69,0 -12.53,0 -12.53,0 -9.38,0 -9.38,0 -6.22,0 -6.22,0 -3.06,0 -3.06,0 0.09,0 0.09,0 3.25,0 3.25,0 6.41,0 6.41,0 9.56,0 9.56,0 12.72,0 12.72,0 15.88,0 15.88,0 19.03,0 19.03,0 22.19,0 22.19,0 25.35,0 25.35,0 28.5,0 28.5,0 31.66,0 31.66,0 34.82,0 34.82,0 37.97,0 37.97,0 41.13,0 41.13,0 44.29,0 44.29,0 47.44,0 47.44,0 50.6,0 50.6,0 53.76,0 53.76,0 56.91,0 56.91,0 60.07,-0 60.07,0 63.23,-0 63.23,0 66.38,-0 66.38,0 69.54,-0 69.54,0 72.7,-0 72.7,0 74.28,0 74.28,0 75.85,-0 75.85,0 " class="primitive"/>
            </g>
          </g>
        </g>
        <g stroke-width="0.71" fill="#000000" fill-opacity="0.000" class="geometry" id="img-5b3d7d89-41">
          <g class="color_RGBA{N0f8}(1.0,0.0,0.0,1.0)" stroke-dasharray="none" stroke="#FF0000" id="img-5b3d7d89-42">
            <g transform="translate(112.73,70.75)" id="img-5b3d7d89-43">
              <path fill="none" d="M-78.83,9.22 L-78.83,9.22 -75.67,9.22 -75.67,9.22 -72.51,9.22 -72.51,9.22 -69.36,9.22 -69.36,9.22 -66.2,9.22 -66.2,9.22 -63.04,9.22 -63.04,9.22 -59.89,9.22 -59.89,9.22 -56.73,9.18 -56.73,9.22 -53.57,8.96 -53.57,9.22 -50.42,8.19 -50.42,9.22 -47.26,6.45 -47.26,9.22 -44.1,3.45 -44.1,9.22 -40.94,-0.76 -40.94,9.22 -37.79,-6.24 -37.79,9.22 -34.63,-13.15 -34.63,9.2 -31.47,-21.47 -31.47,9.15 -28.32,-30.45 -28.32,9.06 -25.16,-38.62 -25.16,8.87 -22,-44.7 -22,8.53 -18.85,-48.24 -18.85,7.97 -15.69,-49.57 -15.69,7.12 -12.53,-49.41 -12.53,5.94 -9.38,-48.38 -9.38,4.44 -6.22,-46.03 -6.22,2.67 -3.06,-41.23 -3.06,0.73 0.09,-34.04 0.09,-1.24 3.25,-25.65 3.25,-3.09 6.41,-17.45 6.41,-4.67 9.56,-10.34 9.56,-5.81 12.72,-4.68 12.72,-6.38 15.88,-0.42 15.88,-6.33 19.03,2.65 19.03,-5.68 22.19,4.79 22.19,-4.54 25.35,6.27 25.35,-3.07 28.5,7.26 28.5,-1.44 31.66,7.92 31.66,0.21 34.82,8.36 34.82,1.78 37.97,8.65 37.97,3.19 41.13,8.84 41.13,4.41 44.29,8.97 44.29,5.44 47.44,9.05 47.44,6.28 50.6,9.11 50.6,6.95 53.76,9.15 53.76,7.48 56.91,9.17 56.91,7.9 60.07,9.19 60.07,8.22 63.23,9.2 63.23,8.47 66.38,9.21 66.38,8.65 69.54,9.21 69.54,8.8 72.7,9.21 72.7,8.9 74.28,9.22 74.28,9.22 75.85,9.22 75.85,8.98 " class="primitive"/>
            </g>
          </g>
        </g>
      </g>
    </g>
  </g>
  <g class="guide ylabels" font-size="4.23" font-family="'PT Sans Caption','Helvetica Neue','Helvetica',sans-serif" fill="#6C606B" id="img-5b3d7d89-44">
    <g transform="translate(27.75,79.97)" id="img-5b3d7d89-45">
      <g class="primitive">
        <text text-anchor="end" dy="0.35em">0</text>
      </g>
    </g>
    <g transform="translate(27.75,55.65)" id="img-5b3d7d89-46">
      <g class="primitive">
        <text text-anchor="end" dy="0.35em">5.0×10⁴</text>
      </g>
    </g>
    <g transform="translate(27.75,31.32)" id="img-5b3d7d89-47">
      <g class="primitive">
        <text text-anchor="end" dy="0.35em">1.0×10⁵</text>
      </g>
    </g>
    <g transform="translate(27.75,7)" id="img-5b3d7d89-48">
      <g class="primitive">
        <text text-anchor="end" dy="0.35em">1.5×10⁵</text>
      </g>
    </g>
  </g>
  <g font-size="4.94" font-family="'PT Sans','Helvetica Neue','Helvetica',sans-serif" fill="#564A55" stroke="#000000" stroke-opacity="0.000" id="img-5b3d7d89-49">
    <g transform="translate(8.78,41.49)" id="img-5b3d7d89-50">
      <g class="primitive">
        <text text-anchor="middle" dy="0.35em" transform="rotate(-90,0, 2)">Variance</text>
      </g>
    </g>
  </g>
</g>
<defs>
  <clipPath id="img-5b3d7d89-18">
    <path d="M28.75,5 L190.59,5 190.59,81.97 28.75,81.97 " />
  </clipPath>
</defs>
</svg>
