<?xml version="1.0" encoding="UTF-8"?>
<svg xmlns="http://www.w3.org/2000/svg"
     xmlns:xlink="http://www.w3.org/1999/xlink"
     xmlns:gadfly="http://www.gadflyjl.org/ns"
     version="1.2"
     width="203.2mm" height="101.6mm" viewBox="0 0 203.2 101.6"
     stroke="none"
     fill="#000000"
     stroke-width="0.3"
     font-size="3.88"
>
<defs>
  <marker id="arrow" markerWidth="15" markerHeight="7" refX="5" refY="3.5" orient="auto" markerUnits="strokeWidth">
    <path d="M0,0 L15,3.5 L0,7 z" stroke="context-stroke" fill="context-stroke"/>
  </marker>
</defs>
<g class="plotroot xscalable yscalable" id="img-284c3cbc-1">
  <g font-size="4.94" font-family="'PT Sans','Helvetica Neue','Helvetica',sans-serif" fill="#564A55" stroke="#000000" stroke-opacity="0.000" id="img-284c3cbc-2">
    <g transform="translate(110.85,90.04)">
      <g class="primitive">
        <text text-anchor="middle" dy="0.6em">Time</text>
      </g>
    </g>
  </g>
  <g class="guide xlabels" font-size="4.23" font-family="'PT Sans Caption','Helvetica Neue','Helvetica',sans-serif" fill="#6C606B" id="img-284c3cbc-3">
    <g transform="translate(33.21,82.97)">
      <g class="primitive">
        <text text-anchor="middle" dy="0.6em">0</text>
      </g>
    </g>
    <g transform="translate(64.27,82.97)">
      <g class="primitive">
        <text text-anchor="middle" dy="0.6em">10</text>
      </g>
    </g>
    <g transform="translate(95.32,82.97)">
      <g class="primitive">
        <text text-anchor="middle" dy="0.6em">20</text>
      </g>
    </g>
    <g transform="translate(126.38,82.97)">
      <g class="primitive">
        <text text-anchor="middle" dy="0.6em">30</text>
      </g>
    </g>
    <g transform="translate(157.43,82.97)">
      <g class="primitive">
        <text text-anchor="middle" dy="0.6em">40</text>
      </g>
    </g>
    <g transform="translate(188.49,82.97)">
      <g class="primitive">
        <text text-anchor="middle" dy="0.6em">50</text>
      </g>
    </g>
  </g>
  <g class="guide colorkey" id="img-284c3cbc-4">
    <g fill="#4C404B" font-size="2.82" font-family="'PT Sans','Helvetica Neue','Helvetica',sans-serif" id="img-284c3cbc-5">
      <g transform="translate(195.99,39.73)" id="img-284c3cbc-6">
        <g class="primitive">
          <text dy="0.35em">v</text>
        </g>
      </g>
      <g transform="translate(195.99,44.24)" id="img-284c3cbc-7">
        <g class="primitive">
          <text dy="0.35em">t<tspan dy="0.4em" font-size="83.3333%">0</tspan></text>
        </g>
      </g>
      <g transform="translate(195.99,48.74)" id="img-284c3cbc-8">
        <g class="primitive">
          <text dy="0.35em">t<tspan dy="0.4em" font-size="83.3333%">1</tspan></text>
        </g>
      </g>
    </g>
    <g stroke-width="0" id="img-284c3cbc-9">
      <g stroke="#000000" stroke-opacity="0.000" fill-opacity="1" fill="#008000" id="img-284c3cbc-10">
        <g transform="translate(192.74,48.74)" id="img-284c3cbc-11">
          <circle cx="0" cy="0" r="0.9" class="primitive"/>
        </g>
      </g>
      <g stroke="#000000" stroke-opacity="0.000" fill-opacity="1" fill="#0000FF" id="img-284c3cbc-12">
        <g transform="translate(192.74,44.24)" id="img-284c3cbc-13">
          <circle cx="0" cy="0" r="0.9" class="primitive"/>
        </g>
      </g>
      <g stroke="#000000" stroke-opacity="0.000" fill-opacity="1" fill="#FF0000" id="img-284c3cbc-14">
        <g transform="translate(192.74,39.73)" id="img-284c3cbc-15">
          <circle cx="0" cy="0" r="0.9" class="primitive"/>
        </g>
      </g>
    </g>
    <g fill="#362A35" font-size="3.88" font-family="'PT Sans','Helvetica Neue','Helvetica',sans-serif" stroke="#000000" stroke-opacity="0.000" id="img-284c3cbc-16">
      <g transform="translate(191.49,35.98)" id="img-284c3cbc-17">
        <g class="primitive">
          <text dy="-0em"></text>
        </g>
      </g>
    </g>
  </g>
  <g clip-path="url(#img-284c3cbc-18)">
    <g id="img-284c3cbc-19">
      <g pointer-events="visible" stroke-width="0.3" fill="#000000" fill-opacity="0.000" stroke="#000000" stroke-opacity="0.000" class="guide background" id="img-284c3cbc-20">
        <g transform="translate(110.85,43.49)" id="img-284c3cbc-21">
          <path d="M-79.64,-38.49 L79.64,-38.49 79.64,38.49 -79.64,38.49  z" class="primitive"/>
        </g>
      </g>
      <g class="guide ygridlines xfixed" stroke-dasharray="0.5,0.5" stroke-width="0.2" stroke="#D0D0E0" id="img-284c3cbc-22">
        <g transform="translate(110.85,79.97)" id="img-284c3cbc-23">
          <path fill="none" d="M-79.64,0 L79.64,0 " class="primitive"/>
        </g>
        <g transform="translate(110.85,55.65)" id="img-284c3cbc-24">
          <path fill="none" d="M-79.64,0 L79.64,0 " class="primitive"/>
        </g>
        <g transform="translate(110.85,31.32)" id="img-284c3cbc-25">
          <path fill="none" d="M-79.64,0 L79.64,0 " class="primitive"/>
        </g>
        <g transform="translate(110.85,7)" id="img-284c3cbc-26">
          <path fill="none" d="M-79.64,0 L79.64,0 " class="primitive"/>
        </g>
      </g>
      <g class="guide xgridlines yfixed" stroke-dasharray="0.5,0.5" stroke-width="0.2" stroke="#D0D0E0" id="img-284c3cbc-27">
        <g transform="translate(33.21,43.49)" id="img-284c3cbc-28">
          <path fill="none" d="M0,-38.49 L0,38.49 " class="primitive"/>
        </g>
        <g transform="translate(64.27,43.49)" id="img-284c3cbc-29">
          <path fill="none" d="M0,-38.49 L0,38.49 " class="primitive"/>
        </g>
        <g transform="translate(95.32,43.49)" id="img-284c3cbc-30">
          <path fill="none" d="M0,-38.49 L0,38.49 " class="primitive"/>
        </g>
        <g transform="translate(126.38,43.49)" id="img-284c3cbc-31">
          <path fill="none" d="M0,-38.49 L0,38.49 " class="primitive"/>
        </g>
        <g transform="translate(157.43,43.49)" id="img-284c3cbc-32">
          <path fill="none" d="M0,-38.49 L0,38.49 " class="primitive"/>
        </g>
        <g transform="translate(188.49,43.49)" id="img-284c3cbc-33">
          <path fill="none" d="M0,-38.49 L0,38.49 " class="primitive"/>
        </g>
      </g>
      <g class="plotpanel" id="img-284c3cbc-34">
        <metadata>
          <boundingbox value="31.213408745659706mm 5.0mm 159.27255588107636mm 76.97060275607639mm"/>
          <unitbox value="-0.6440288139301981 154111.24464742094 51.2880576278604 -158222.48929484191"/>
        </metadata>
        <g stroke-width="0.71" fill="#000000" fill-opacity="0.000" class="geometry" id="img-284c3cbc-35">
          <g class="color_RGBA{N0f8}(0.0,0.502,0.0,1.0)" stroke-dasharray="none" stroke="#008000" id="img-284c3cbc-36">
            <g transform="translate(113.86,79.97)" id="img-284c3cbc-37">
              <path fill="none" d="M-77.54,0 L-77.54,0 -74.44,0 -74.44,0 -71.33,0 -71.33,0 -68.23,0 -68.23,0 -65.12,0 -65.12,0 -62.02,0 -62.02,0 -58.91,0 -58.91,0 -55.81,0 -55.81,0 -52.7,0 -52.7,0 -49.6,0 -49.6,0 -46.49,0 -46.49,0 -43.38,0 -43.38,0 -40.28,0 -40.28,0 -37.17,0 -37.17,0 -34.07,0 -34.07,0 -30.96,0 -30.96,0 -27.86,0 -27.86,0 -24.75,0 -24.75,0 -21.65,0 -21.65,0 -18.54,0 -18.54,0 -15.44,0 -15.44,0 -12.33,0 -12.33,0 -9.23,0 -9.23,0 -6.12,0 -6.12,0 -3.01,0 -3.01,0 0.09,0 0.09,0 3.2,0 3.2,0 6.3,0 6.3,0 9.41,0 9.41,0 12.51,0 12.51,0 15.62,0 15.62,0 18.72,0 18.72,0 21.83,0 21.83,0 24.93,0 24.93,0 28.04,0 28.04,0 31.15,0 31.15,0 34.25,0 34.25,0 37.36,0 37.36,0 40.46,0 40.46,0 43.57,0 43.57,0 46.67,0 46.67,0 49.78,0 49.78,0 52.88,0 52.88,0 55.99,-0 55.99,0 59.09,-0 59.09,0 62.2,-0 62.2,0 65.31,-0 65.31,0 68.41,-0 68.41,0 71.52,-0 71.52,0 73.07,0 73.07,0 74.62,-0 74.62,0 " class="primitive"/>
            </g>
          </g>
        </g>
        <g stroke-width="0.71" fill="#000000" fill-opacity="0.000" class="geometry" id="img-284c3cbc-38">
          <g class="color_RGBA{N0f8}(0.0,0.0,1.0,1.0)" stroke-dasharray="none" stroke="#0000FF" id="img-284c3cbc-39">
            <g transform="translate(113.86,79.97)" id="img-284c3cbc-40">
              <path fill="none" d="M-77.54,0 L-77.54,0 -74.44,0 -74.44,0 -71.33,0 -71.33,0 -68.23,0 -68.23,0 -65.12,0 -65.12,0 -62.02,0 -62.02,0 -58.91,0 -58.91,0 -55.81,0 -55.81,0 -52.7,0 -52.7,0 -49.6,0 -49.6,0 -46.49,0 -46.49,0 -43.38,0 -43.38,0 -40.28,0 -40.28,0 -37.17,0 -37.17,0 -34.07,0 -34.07,0 -30.96,0 -30.96,0 -27.86,0 -27.86,0 -24.75,0 -24.75,0 -21.65,0 -21.65,0 -18.54,0 -18.54,0 -15.44,0 -15.44,0 -12.33,0 -12.33,0 -9.23,0 -9.23,0 -6.12,0 -6.12,0 -3.01,0 -3.01,0 0.09,0 0.09,0 3.2,0 3.2,0 6.3,0 6.3,0 9.41,0 9.41,0 12.51,0 12.51,0 15.62,0 15.62,0 18.72,0 18.72,0 21.83,0 21.83,0 24.93,0 24.93,0 28.04,0 28.04,0 31.15,0 31.15,0 34.25,0 34.25,0 37.36,0 37.36,0 40.46,0 40.46,0 43.57,0 43.57,0 46.67,0 46.67,0 49.78,0 49.78,0 52.88,0 52.88,0 55.99,0 55.99,0 59.09,-0 59.09,0 62.2,-0 62.2,0 65.31,-0 65.31,0 68.41,-0 68.41,0 71.52,-0 71.52,0 73.07,0 73.07,0 74.62,-0 74.62,0 " class="primitive"/>
            </g>
          </g>
        </g>
        <g stroke-width="0.71" fill="#000000" fill-opacity="0.000" class="geometry" id="img-284c3cbc-41">
          <g class="color_RGBA{N0f8}(1.0,0.0,0.0,1.0)" stroke-dasharray="none" stroke="#FF0000" id="img-284c3cbc-42">
            <g transform="translate(113.86,70.75)" id="img-284c3cbc-43">
              <path fill="none" d="M-77.54,9.22 L-77.54,9.22 -74.44,9.22 -74.44,9.22 -71.33,9.22 -71.33,9.22 -68.23,9.22 -68.23,9.22 -65.12,9.22 -65.12,9.22 -62.02,9.22 -62.02,9.22 -58.91,9.22 -58.91,9.22 -55.81,9.18 -55.81,9.22 -52.7,8.96 -52.7,9.22 -49.6,8.19 -49.6,9.22 -46.49,6.45 -46.49,9.22 -43.38,3.45 -43.38,9.22 -40.28,-0.76 -40.28,9.22 -37.17,-6.24 -37.17,9.22 -34.07,-13.15 -34.07,9.2 -30.96,-21.47 -30.96,9.15 -27.86,-30.45 -27.86,9.06 -24.75,-38.62 -24.75,8.87 -21.65,-44.7 -21.65,8.53 -18.54,-48.24 -18.54,7.97 -15.44,-49.57 -15.44,7.12 -12.33,-49.41 -12.33,5.94 -9.23,-48.38 -9.23,4.44 -6.12,-46.03 -6.12,2.67 -3.01,-41.23 -3.01,0.73 0.09,-34.04 0.09,-1.24 3.2,-25.65 3.2,-3.09 6.3,-17.45 6.3,-4.67 9.41,-10.34 9.41,-5.81 12.51,-4.68 12.51,-6.38 15.62,-0.42 15.62,-6.33 18.72,2.65 18.72,-5.68 21.83,4.79 21.83,-4.54 24.93,6.27 24.93,-3.07 28.04,7.26 28.04,-1.44 31.15,7.92 31.15,0.21 34.25,8.36 34.25,1.78 37.36,8.65 37.36,3.19 40.46,8.84 40.46,4.41 43.57,8.97 43.57,5.44 46.67,9.05 46.67,6.28 49.78,9.11 49.78,6.95 52.88,9.15 52.88,7.48 55.99,9.17 55.99,7.9 59.09,9.19 59.09,8.22 62.2,9.2 62.2,8.47 65.31,9.21 65.31,8.65 68.41,9.21 68.41,8.8 71.52,9.21 71.52,8.9 73.07,9.22 73.07,9.22 74.62,9.22 74.62,8.98 " class="primitive"/>
            </g>
          </g>
        </g>
      </g>
    </g>
  </g>
  <g class="guide ylabels" font-size="4.23" font-family="'PT Sans Caption','Helvetica Neue','Helvetica',sans-serif" fill="#6C606B" id="img-284c3cbc-44">
    <g transform="translate(30.21,79.97)" id="img-284c3cbc-45">
      <g class="primitive">
        <text text-anchor="end" dy="0.35em">0</text>
      </g>
    </g>
    <g transform="translate(30.21,55.65)" id="img-284c3cbc-46">
      <g class="primitive">
        <text text-anchor="end" dy="0.35em">5.00×10⁴</text>
      </g>
    </g>
    <g transform="translate(30.21,31.32)" id="img-284c3cbc-47">
      <g class="primitive">
        <text text-anchor="end" dy="0.35em">1.00×10⁵</text>
      </g>
    </g>
    <g transform="translate(30.21,7)" id="img-284c3cbc-48">
      <g class="primitive">
        <text text-anchor="end" dy="0.35em">1.50×10⁵</text>
      </g>
    </g>
  </g>
  <g font-size="4.94" font-family="'PT Sans','Helvetica Neue','Helvetica',sans-serif" fill="#564A55" stroke="#000000" stroke-opacity="0.000" id="img-284c3cbc-49">
    <g transform="translate(8.78,41.49)" id="img-284c3cbc-50">
      <g class="primitive">
        <text text-anchor="middle" dy="0.35em" transform="rotate(-90,0, 2)">Variance</text>
      </g>
    </g>
  </g>
</g>
<defs>
  <clipPath id="img-284c3cbc-18">
    <path d="M31.21,5 L190.49,5 190.49,81.97 31.21,81.97 " />
  </clipPath>
</defs>
</svg>
