<?xml version="1.0" encoding="UTF-8"?>
<svg xmlns="http://www.w3.org/2000/svg"
     xmlns:xlink="http://www.w3.org/1999/xlink"
     xmlns:gadfly="http://www.gadflyjl.org/ns"
     version="1.2"
     width="152.4mm" height="101.6mm" viewBox="0 0 152.4 101.6"
     stroke="none"
     fill="#000000"
     stroke-width="0.3"
     font-size="3.88"
>
<g class="plotroot xscalable yscalable" id="img-11254db3-1">
  <g font-size="3.88" font-family="'PT Sans','Helvetica Neue','Helvetica',sans-serif" fill="#564A55" stroke="#000000" stroke-opacity="0.000" id="img-11254db3-2">
    <text x="82.49" y="90.81" text-anchor="middle" dy="0.6em">time</text>
  </g>
  <g class="guide xlabels" font-size="2.82" font-family="'PT Sans Caption','Helvetica Neue','Helvetica',sans-serif" fill="#6C606B" id="img-11254db3-3">
    <text x="19.58" y="84.76" text-anchor="middle" dy="0.6em">0</text>
    <text x="44.74" y="84.76" text-anchor="middle" dy="0.6em">10</text>
    <text x="69.91" y="84.76" text-anchor="middle" dy="0.6em">20</text>
    <text x="95.07" y="84.76" text-anchor="middle" dy="0.6em">30</text>
    <text x="120.24" y="84.76" text-anchor="middle" dy="0.6em">40</text>
    <text x="145.4" y="84.76" text-anchor="middle" dy="0.6em">50</text>
  </g>
<g clip-path="url(#img-11254db3-4)">
  <g id="img-11254db3-5">
    <g pointer-events="visible" opacity="1" fill="#000000" fill-opacity="0.000" stroke="#000000" stroke-opacity="0.000" class="guide background" id="img-11254db3-6">
      <rect x="17.58" y="9.81" width="129.82" height="73.95"/>
    </g>
    <g class="guide ygridlines xfixed" stroke-dasharray="0.5,0.5" stroke-width="0.2" stroke="#D0D0E0" id="img-11254db3-7">
      <path fill="none" d="M17.58,81.76 L 147.4 81.76"/>
      <path fill="none" d="M17.58,64.27 L 147.4 64.27"/>
      <path fill="none" d="M17.58,46.78 L 147.4 46.78"/>
      <path fill="none" d="M17.58,29.3 L 147.4 29.3"/>
      <path fill="none" d="M17.58,11.81 L 147.4 11.81"/>
    </g>
    <g class="guide xgridlines yfixed" stroke-dasharray="0.5,0.5" stroke-width="0.2" stroke="#D0D0E0" id="img-11254db3-8">
      <path fill="none" d="M19.58,9.81 L 19.58 83.76"/>
      <path fill="none" d="M44.74,9.81 L 44.74 83.76"/>
      <path fill="none" d="M69.91,9.81 L 69.91 83.76"/>
      <path fill="none" d="M95.07,9.81 L 95.07 83.76"/>
      <path fill="none" d="M120.24,9.81 L 120.24 83.76"/>
      <path fill="none" d="M145.4,9.81 L 145.4 83.76"/>
    </g>
    <g class="plotpanel" id="img-11254db3-9">
      <g class="geometry" id="img-11254db3-10">
        <g class="color_RGBA{Float32}(1.0f0,0.0f0,0.0f0,1.0f0)" stroke="#FFFFFF" stroke-width="0" fill="#FF0000" id="img-11254db3-11">
          <use xlink:href="#img-11254db3-12" x="22.1" y="81.76"/>
          <use xlink:href="#img-11254db3-12" x="24.61" y="81.76"/>
          <use xlink:href="#img-11254db3-12" x="27.13" y="81.76"/>
          <use xlink:href="#img-11254db3-12" x="29.65" y="81.76"/>
          <use xlink:href="#img-11254db3-12" x="32.16" y="81.76"/>
          <use xlink:href="#img-11254db3-12" x="34.68" y="81.76"/>
          <use xlink:href="#img-11254db3-12" x="37.2" y="81.76"/>
          <use xlink:href="#img-11254db3-12" x="39.71" y="81.76"/>
          <use xlink:href="#img-11254db3-12" x="42.23" y="81.76"/>
          <use xlink:href="#img-11254db3-12" x="44.74" y="81.76"/>
          <use xlink:href="#img-11254db3-12" x="47.26" y="81.76"/>
          <use xlink:href="#img-11254db3-12" x="49.78" y="81.76"/>
          <use xlink:href="#img-11254db3-12" x="52.29" y="81.76"/>
          <use xlink:href="#img-11254db3-12" x="54.81" y="81.75"/>
          <use xlink:href="#img-11254db3-12" x="57.33" y="81.75"/>
          <use xlink:href="#img-11254db3-12" x="59.84" y="81.72"/>
          <use xlink:href="#img-11254db3-12" x="62.36" y="81.64"/>
          <use xlink:href="#img-11254db3-12" x="64.88" y="81.48"/>
          <use xlink:href="#img-11254db3-12" x="67.39" y="81.17"/>
          <use xlink:href="#img-11254db3-12" x="69.91" y="80.63"/>
          <use xlink:href="#img-11254db3-12" x="72.42" y="79.79"/>
          <use xlink:href="#img-11254db3-12" x="74.94" y="78.57"/>
          <use xlink:href="#img-11254db3-12" x="77.46" y="76.88"/>
          <use xlink:href="#img-11254db3-12" x="79.97" y="74.69"/>
          <use xlink:href="#img-11254db3-12" x="82.49" y="71.95"/>
          <use xlink:href="#img-11254db3-12" x="85.01" y="68.66"/>
          <use xlink:href="#img-11254db3-12" x="87.52" y="64.85"/>
          <use xlink:href="#img-11254db3-12" x="90.04" y="60.59"/>
          <use xlink:href="#img-11254db3-12" x="92.56" y="55.97"/>
          <use xlink:href="#img-11254db3-12" x="95.07" y="51.13"/>
          <use xlink:href="#img-11254db3-12" x="97.59" y="46.2"/>
          <use xlink:href="#img-11254db3-12" x="100.1" y="41.33"/>
          <use xlink:href="#img-11254db3-12" x="102.62" y="36.66"/>
          <use xlink:href="#img-11254db3-12" x="105.14" y="32.33"/>
          <use xlink:href="#img-11254db3-12" x="107.65" y="28.43"/>
          <use xlink:href="#img-11254db3-12" x="110.17" y="25.06"/>
          <use xlink:href="#img-11254db3-12" x="112.69" y="22.25"/>
          <use xlink:href="#img-11254db3-12" x="115.2" y="20.05"/>
          <use xlink:href="#img-11254db3-12" x="117.72" y="18.46"/>
          <use xlink:href="#img-11254db3-12" x="120.24" y="17.47"/>
          <use xlink:href="#img-11254db3-12" x="122.75" y="17.06"/>
          <use xlink:href="#img-11254db3-12" x="125.27" y="17.17"/>
          <use xlink:href="#img-11254db3-12" x="127.79" y="17.77"/>
          <use xlink:href="#img-11254db3-12" x="130.3" y="18.8"/>
          <use xlink:href="#img-11254db3-12" x="132.82" y="20.21"/>
          <use xlink:href="#img-11254db3-12" x="135.33" y="21.93"/>
          <use xlink:href="#img-11254db3-12" x="137.85" y="23.91"/>
          <use xlink:href="#img-11254db3-12" x="140.37" y="26.09"/>
          <use xlink:href="#img-11254db3-12" x="142.88" y="28.44"/>
          <use xlink:href="#img-11254db3-12" x="145.4" y="30.9"/>
        </g>
      </g>
      <g stroke-width="1.06" fill="#000000" fill-opacity="0.000" class="geometry" stroke-dasharray="none" stroke="#0000FF" id="img-11254db3-13">
        <path fill="none" d="M22.1,81.76 L 24.61 81.76 27.13 81.76 29.65 81.76 32.16 81.76 34.68 81.76 37.2 81.76 39.71 81.76 42.23 81.76 44.74 81.76 47.26 81.75 49.78 81.72 52.29 81.63 54.81 81.41 57.33 80.95 59.84 80.13 62.36 78.84 64.88 76.97 67.39 74.47 69.91 71.31 72.42 67.5 74.94 63.09 77.46 58.19 79.97 52.92 82.49 47.46 85.01 42.02 87.52 36.82 90.04 32.07 92.56 27.95 95.07 24.6 97.59 22.11 100.1 20.49 102.62 19.75 105.14 19.83 107.65 20.64 110.17 22.1 112.69 24.09 115.2 26.52 117.72 29.26 120.24 32.23 122.75 35.35 125.27 38.53 127.79 41.72 130.3 44.85 132.82 47.9 135.33 50.82 137.85 53.61 140.37 56.23 142.88 58.68 145.4 60.96"/>
      </g>
    </g>
  </g>
</g>
  <g class="guide ylabels" font-size="2.82" font-family="'PT Sans Caption','Helvetica Neue','Helvetica',sans-serif" fill="#6C606B" id="img-11254db3-14">
    <text x="16.58" y="81.76" text-anchor="end" dy="0.35em">0</text>
    <text x="16.58" y="64.27" text-anchor="end" dy="0.35em">100</text>
    <text x="16.58" y="46.78" text-anchor="end" dy="0.35em">200</text>
    <text x="16.58" y="29.3" text-anchor="end" dy="0.35em">300</text>
    <text x="16.58" y="11.81" text-anchor="end" dy="0.35em">400</text>
  </g>
  <g font-size="3.88" font-family="'PT Sans','Helvetica Neue','Helvetica',sans-serif" fill="#564A55" stroke="#000000" stroke-opacity="0.000" id="img-11254db3-15">
    <text x="8.73" y="46.78" text-anchor="end" dy="0.35em">y</text>
  </g>
  <g font-size="3.88" font-family="'PT Sans','Helvetica Neue','Helvetica',sans-serif" fill="#564A55" stroke="#000000" stroke-opacity="0.000" id="img-11254db3-16">
    <text x="82.49" y="5" text-anchor="middle" dy="0.6em">w20</text>
  </g>
</g>
<defs>
  <clipPath id="img-11254db3-4">
  <path d="M17.58,9.81 L 147.4 9.81 147.4 83.76 17.58 83.76" />
</clipPath>
  <g id="img-11254db3-12">
    <circle cx="0" cy="0" r="1.41"/>
  </g>
</defs>
</svg>
