<?xml version="1.0" encoding="UTF-8"?>
<svg xmlns="http://www.w3.org/2000/svg"
     xmlns:xlink="http://www.w3.org/1999/xlink"
     xmlns:gadfly="http://www.gadflyjl.org/ns"
     version="1.2"
     width="152.4mm" height="304.8mm" viewBox="0 0 152.4 304.8"
     stroke="none"
     fill="#000000"
     stroke-width="0.3"
     font-size="3.88"
>
<g class="plotroot xscalable yscalable" id="img-ffdd34f9-1">
  <g font-size="4.94" font-family="'PT Sans','Helvetica Neue','Helvetica',sans-serif" fill="#564A55" stroke="#000000" stroke-opacity="0.000" id="img-ffdd34f9-2">
    <text x="76.66" y="292.17" text-anchor="middle" dy="0.6em">Time [a]</text>
  </g>
  <g class="guide xlabels" font-size="4.23" font-family="'PT Sans Caption','Helvetica Neue','Helvetica',sans-serif" fill="#6C606B" id="img-ffdd34f9-3">
    <text x="32.15" y="285.09" text-anchor="middle" dy="0.6em">0</text>
    <text x="49.96" y="285.09" text-anchor="middle" dy="0.6em">10</text>
    <text x="67.76" y="285.09" text-anchor="middle" dy="0.6em">20</text>
    <text x="85.56" y="285.09" text-anchor="middle" dy="0.6em">30</text>
    <text x="103.37" y="285.09" text-anchor="middle" dy="0.6em">40</text>
    <text x="121.17" y="285.09" text-anchor="middle" dy="0.6em">50</text>
  </g>
  <g class="guide colorkey" id="img-ffdd34f9-4">
    <g fill="#4C404B" font-size="4.23" font-family="'PT Sans','Helvetica Neue','Helvetica',sans-serif" id="img-ffdd34f9-5">
      <text x="127.87" y="256.15" dy="0.35em" id="img-ffdd34f9-6" class="color_v">v</text>
      <text x="127.87" y="261.55" dy="0.35em" id="img-ffdd34f9-7" class="color_t0">t<tspan style="dominant-baseline:inherit" dy="1.7225" font-size="83.3333%">0</tspan><tspan style="dominant-baseline:inherit" dy="-1.4355"></tspan></text>
      <text x="127.87" y="266.94" dy="0.35em" id="img-ffdd34f9-8" class="color_t1">t<tspan style="dominant-baseline:inherit" dy="1.7225" font-size="83.3333%">1</tspan><tspan style="dominant-baseline:inherit" dy="-1.4355"></tspan></text>
    </g>
    <g stroke="#000000" stroke-opacity="0.000" id="img-ffdd34f9-9">
      <rect x="124.17" y="254.8" width="2.7" height="2.7" id="img-ffdd34f9-10" class="color_v" fill="#00BFFF"/>
      <rect x="124.17" y="260.2" width="2.7" height="2.7" id="img-ffdd34f9-11" class="color_t0" fill="#D4CA3A"/>
      <rect x="124.17" y="265.59" width="2.7" height="2.7" id="img-ffdd34f9-12" class="color_t1" fill="#FF6DAE"/>
    </g>
    <g fill="#362A35" font-size="5.64" font-family="'PT Sans','Helvetica Neue','Helvetica',sans-serif" stroke="#000000" stroke-opacity="0.000" id="img-ffdd34f9-13">
      <text x="124.17" y="251.07" id="img-ffdd34f9-14">parameter</text>
    </g>
  </g>
<g clip-path="url(#img-ffdd34f9-15)">
  <g id="img-ffdd34f9-16">
    <g pointer-events="visible" opacity="1" fill="#000000" fill-opacity="0.000" stroke="#000000" stroke-opacity="0.000" class="guide background" id="img-ffdd34f9-17">
      <rect x="30.15" y="233.6" width="93.02" height="50.49" id="img-ffdd34f9-18"/>
    </g>
    <g class="guide ygridlines xfixed" stroke-dasharray="0.5,0.5" stroke-width="0.2" stroke="#D0D0E0" id="img-ffdd34f9-19">
      <path fill="none" d="M30.15,282.09 L 123.17 282.09" id="img-ffdd34f9-20"/>
      <path fill="none" d="M30.15,272.8 L 123.17 272.8" id="img-ffdd34f9-21"/>
      <path fill="none" d="M30.15,263.5 L 123.17 263.5" id="img-ffdd34f9-22"/>
      <path fill="none" d="M30.15,254.2 L 123.17 254.2" id="img-ffdd34f9-23"/>
      <path fill="none" d="M30.15,244.9 L 123.17 244.9" id="img-ffdd34f9-24"/>
      <path fill="none" d="M30.15,235.6 L 123.17 235.6" id="img-ffdd34f9-25"/>
    </g>
    <g class="guide xgridlines yfixed" stroke-dasharray="0.5,0.5" stroke-width="0.2" stroke="#D0D0E0" id="img-ffdd34f9-26">
      <path fill="none" d="M32.15,233.6 L 32.15 284.09" id="img-ffdd34f9-27"/>
      <path fill="none" d="M49.96,233.6 L 49.96 284.09" id="img-ffdd34f9-28"/>
      <path fill="none" d="M67.76,233.6 L 67.76 284.09" id="img-ffdd34f9-29"/>
      <path fill="none" d="M85.56,233.6 L 85.56 284.09" id="img-ffdd34f9-30"/>
      <path fill="none" d="M103.37,233.6 L 103.37 284.09" id="img-ffdd34f9-31"/>
      <path fill="none" d="M121.17,233.6 L 121.17 284.09" id="img-ffdd34f9-32"/>
    </g>
    <g class="plotpanel" id="img-ffdd34f9-33">
      <g stroke-width="0.3" fill="#000000" fill-opacity="0.000" stroke-dasharray="none" id="img-ffdd34f9-34">
        <path fill="none" d="M33.93,282.09 L 35.71 282.09 37.49 282.09 39.27 282.06 41.05 281.99 42.83 281.88 44.61 281.69 46.39 281.43 48.17 281.09 49.96 280.68 51.74 280.21 53.52 279.65 55.3 279 57.08 278.28 58.86 277.5 60.64 276.65 62.42 275.72 64.2 274.7 65.98 273.6 67.76 272.43 69.54 271.21 71.32 269.93 73.1 268.6 74.88 267.25 76.66 265.89 78.44 264.51 80.22 263.11 82 261.68 83.78 260.25 85.56 258.8 87.34 257.36 89.12 255.95 90.9 254.6 92.68 253.33 94.46 252.13 96.24 250.99 98.02 249.92 99.8 248.93 101.58 248.06 103.37 247.34 105.15 246.8 106.93 246.43 108.71 246.21 110.49 246.12 112.27 246.13 114.05 246.22 115.83 246.4 117.61 246.64 119.39 246.94 121.17 247.28" id="img-ffdd34f9-35" class="geometry color_v" stroke="#00BFFF"/>
        <path fill="none" d="M33.93,282.09 L 35.71 282.09 37.49 282.09 39.27 282.06 41.05 282 42.83 281.89 44.61 281.72 46.39 281.5 48.17 281.21 49.96 280.85 51.74 280.41 53.52 279.9 55.3 279.34 57.08 278.74 58.86 278.11 60.64 277.43 62.42 276.7 64.2 275.91 65.98 275.06 67.76 274.16 69.54 273.2 71.32 272.19 73.1 271.13 74.88 270.04 76.66 268.93 78.44 267.79 80.22 266.61 82 265.4 83.78 264.13 85.56 262.78 87.34 261.37 89.12 259.94 90.9 258.48 92.68 257.01 94.46 255.53 96.24 254.06 98.02 252.63 99.8 251.26 101.58 249.96 103.37 248.76 105.15 247.67 106.93 246.7 108.71 245.83 110.49 245.07 112.27 244.39 114.05 243.8 115.83 243.28 117.61 242.83 119.39 242.42 121.17 242.06" id="img-ffdd34f9-36" class="geometry color_t0" stroke="#D4CA3A"/>
        <path fill="none" d="M33.93,282.09 L 35.71 282.09 37.49 282.09 39.27 282.07 41.05 282 42.83 281.89 44.61 281.73 46.39 281.49 48.17 281.16 49.96 280.74 51.74 280.26 53.52 279.71 55.3 279.09 57.08 278.4 58.86 277.64 60.64 276.85 62.42 275.99 64.2 275.1 65.98 274.17 67.76 273.2 69.54 272.2 71.32 271.15 73.1 270.05 74.88 268.9 76.66 267.72 78.44 266.54 80.22 265.38 82 264.25 83.78 263.11 85.56 261.96 87.34 260.81 89.12 259.67 90.9 258.58 92.68 257.52 94.46 256.47 96.24 255.45 98.02 254.46 99.8 253.5 101.58 252.59 103.37 251.74 105.15 250.96 106.93 250.27 108.71 249.65 110.49 249.09 112.27 248.57 114.05 248.07 115.83 247.59 117.61 247.12 119.39 246.67 121.17 246.22" id="img-ffdd34f9-37" class="geometry color_t1" stroke="#FF6DAE"/>
      </g>
    </g>
  </g>
</g>
  <g class="guide ylabels" font-size="4.23" font-family="'PT Sans Caption','Helvetica Neue','Helvetica',sans-serif" fill="#6C606B" id="img-ffdd34f9-38">
    <text x="29.15" y="282.09" text-anchor="end" dy="0.35em" id="img-ffdd34f9-39">0</text>
    <text x="29.15" y="272.8" text-anchor="end" dy="0.35em" id="img-ffdd34f9-40">5.0×10⁴</text>
    <text x="29.15" y="263.5" text-anchor="end" dy="0.35em" id="img-ffdd34f9-41">1.0×10⁵</text>
    <text x="29.15" y="254.2" text-anchor="end" dy="0.35em" id="img-ffdd34f9-42">1.5×10⁵</text>
    <text x="29.15" y="244.9" text-anchor="end" dy="0.35em" id="img-ffdd34f9-43">2.0×10⁵</text>
    <text x="29.15" y="235.6" text-anchor="end" dy="0.35em" id="img-ffdd34f9-44">2.5×10⁵</text>
  </g>
  <g font-size="4.94" font-family="'PT Sans','Helvetica Neue','Helvetica',sans-serif" fill="#564A55" stroke="#000000" stroke-opacity="0.000" id="img-ffdd34f9-45">
    <text x="9.25" y="256.85" text-anchor="middle" dy="0.35em" transform="rotate(-90, 9.25, 258.85)" id="img-ffdd34f9-46">Output Variance</text>
  </g>
</g>
<g class="plotroot xscalable yscalable" id="img-ffdd34f9-47">
  <g font-size="4.94" font-family="'PT Sans','Helvetica Neue','Helvetica',sans-serif" fill="#564A55" stroke="#000000" stroke-opacity="0.000" id="img-ffdd34f9-48">
    <text x="71.7" y="215.97" text-anchor="middle" dy="0.6em" id="img-ffdd34f9-49">Time [a]</text>
  </g>
  <g class="guide xlabels" font-size="4.23" font-family="'PT Sans Caption','Helvetica Neue','Helvetica',sans-serif" fill="#6C606B" id="img-ffdd34f9-50">
    <text x="22.22" y="208.89" text-anchor="middle" dy="0.6em" id="img-ffdd34f9-51">0</text>
    <text x="42.01" y="208.89" text-anchor="middle" dy="0.6em" id="img-ffdd34f9-52">10</text>
    <text x="61.8" y="208.89" text-anchor="middle" dy="0.6em" id="img-ffdd34f9-53">20</text>
    <text x="81.59" y="208.89" text-anchor="middle" dy="0.6em" id="img-ffdd34f9-54">30</text>
    <text x="101.38" y="208.89" text-anchor="middle" dy="0.6em" id="img-ffdd34f9-55">40</text>
    <text x="121.17" y="208.89" text-anchor="middle" dy="0.6em" id="img-ffdd34f9-56">50</text>
  </g>
  <g class="guide colorkey" id="img-ffdd34f9-57">
    <g fill="#4C404B" font-size="4.23" font-family="'PT Sans','Helvetica Neue','Helvetica',sans-serif" id="img-ffdd34f9-58">
      <text x="127.87" y="179.95" dy="0.35em" id="img-ffdd34f9-59" class="color_v">v</text>
      <text x="127.87" y="185.35" dy="0.35em" id="img-ffdd34f9-60" class="color_t0">t<tspan style="dominant-baseline:inherit" dy="1.7225" font-size="83.3333%">0</tspan><tspan style="dominant-baseline:inherit" dy="-1.4355"></tspan></text>
      <text x="127.87" y="190.74" dy="0.35em" id="img-ffdd34f9-61" class="color_t1">t<tspan style="dominant-baseline:inherit" dy="1.7225" font-size="83.3333%">1</tspan><tspan style="dominant-baseline:inherit" dy="-1.4355"></tspan></text>
    </g>
    <g stroke="#000000" stroke-opacity="0.000" id="img-ffdd34f9-62">
      <rect x="124.17" y="178.6" width="2.7" height="2.7" id="img-ffdd34f9-63" class="color_v" fill="#00BFFF"/>
      <rect x="124.17" y="184" width="2.7" height="2.7" id="img-ffdd34f9-64" class="color_t0" fill="#D4CA3A"/>
      <rect x="124.17" y="189.39" width="2.7" height="2.7" id="img-ffdd34f9-65" class="color_t1" fill="#FF6DAE"/>
    </g>
    <g fill="#362A35" font-size="5.64" font-family="'PT Sans','Helvetica Neue','Helvetica',sans-serif" stroke="#000000" stroke-opacity="0.000" id="img-ffdd34f9-66">
      <text x="124.17" y="174.87" id="img-ffdd34f9-67">parameter</text>
    </g>
  </g>
<g clip-path="url(#img-ffdd34f9-68)">
  <g id="img-ffdd34f9-69">
    <g pointer-events="visible" opacity="1" fill="#000000" fill-opacity="0.000" stroke="#000000" stroke-opacity="0.000" class="guide background" id="img-ffdd34f9-70">
      <rect x="20.22" y="157.4" width="102.94" height="50.49" id="img-ffdd34f9-71"/>
    </g>
    <g class="guide ygridlines xfixed" stroke-dasharray="0.5,0.5" stroke-width="0.2" stroke="#D0D0E0" id="img-ffdd34f9-72">
      <path fill="none" d="M20.22,205.89 L 123.17 205.89" id="img-ffdd34f9-73"/>
      <path fill="none" d="M20.22,182.65 L 123.17 182.65" id="img-ffdd34f9-74"/>
      <path fill="none" d="M20.22,159.4 L 123.17 159.4" id="img-ffdd34f9-75"/>
    </g>
    <g class="guide xgridlines yfixed" stroke-dasharray="0.5,0.5" stroke-width="0.2" stroke="#D0D0E0" id="img-ffdd34f9-76">
      <path fill="none" d="M22.22,157.4 L 22.22 207.89" id="img-ffdd34f9-77"/>
      <path fill="none" d="M42.01,157.4 L 42.01 207.89" id="img-ffdd34f9-78"/>
      <path fill="none" d="M61.8,157.4 L 61.8 207.89" id="img-ffdd34f9-79"/>
      <path fill="none" d="M81.59,157.4 L 81.59 207.89" id="img-ffdd34f9-80"/>
      <path fill="none" d="M101.38,157.4 L 101.38 207.89" id="img-ffdd34f9-81"/>
      <path fill="none" d="M121.17,157.4 L 121.17 207.89" id="img-ffdd34f9-82"/>
    </g>
    <g class="plotpanel" id="img-ffdd34f9-83">
      <g stroke-width="0.71" fill="#000000" fill-opacity="0.000" stroke-dasharray="none" id="img-ffdd34f9-84">
        <path fill="none" d="M24.2,181.25 L 26.18 153.66 28.16 183.76 30.14 194.97 32.12 198.14 34.1 195.87 36.08 191.77 38.06 188.06 40.03 184.79 42.01 181.6 43.99 178.47 45.97 175.61 47.95 173.32 49.93 171.67 51.91 170.5 53.89 169.6 55.87 168.76 57.84 167.93 59.82 167.15 61.8 166.44 63.78 165.83 65.76 165.32 67.74 164.93 69.72 164.65 71.7 164.51 73.68 164.51 75.65 164.61 77.63 164.79 79.61 165.06 81.59 165.48 83.57 166.06 85.55 166.74 87.53 167.51 89.51 168.34 91.49 169.21 93.46 170.08 95.44 170.92 97.42 171.71 99.4 172.44 101.38 173.08 103.36 173.64 105.34 174.11 107.32 174.53 109.3 174.92 111.27 175.3 113.25 175.66 115.23 176.01 117.21 176.35 119.19 176.67 121.17 176.98" id="img-ffdd34f9-85" class="geometry color_v" stroke="#00BFFF"/>
        <path fill="none" d="M24.2,205.84 L 26.18 204.16 28.16 198.03 30.14 196.36 32.12 196.16 34.1 195.68 36.08 196.07 38.06 197.38 40.03 198.69 42.01 199.63 43.99 200.4 45.97 201.31 47.95 202.29 49.93 203.12 51.91 203.73 53.89 204.18 55.87 204.54 57.84 204.82 59.82 205.04 61.8 205.22 63.78 205.36 65.76 205.47 67.74 205.56 69.72 205.63 71.7 205.68 73.68 205.72 75.65 205.74 77.63 205.75 79.61 205.75 81.59 205.75 83.57 205.73 85.55 205.72 87.53 205.7 89.51 205.68 91.49 205.67 93.46 205.66 95.44 205.66 97.42 205.65 99.4 205.64 101.38 205.63 103.36 205.63 105.34 205.62 107.32 205.61 109.3 205.61 111.27 205.6 113.25 205.59 115.23 205.58 117.21 205.58 119.19 205.57 121.17 205.56" id="img-ffdd34f9-86" class="geometry color_t0" stroke="#D4CA3A"/>
        <path fill="none" d="M24.2,205.89 L 26.18 205.89 28.16 205.89 30.14 205.89 32.12 205.89 34.1 205.89 36.08 205.89 38.06 205.85 40.03 205.83 42.01 205.85 43.99 205.65 45.97 205.47 47.95 205.31 49.93 205.1 51.91 204.86 53.89 204.61 55.87 204.36 57.84 204.17 59.82 204.06 61.8 204.03 63.78 204.03 65.76 204 67.74 203.94 69.72 203.86 71.7 203.76 73.68 203.67 75.65 203.62 77.63 203.56 79.61 203.53 81.59 203.54 83.57 203.53 85.55 203.5 87.53 203.5 89.51 203.53 91.49 203.59 93.46 203.63 95.44 203.65 97.42 203.64 99.4 203.61 101.38 203.57 103.36 203.51 105.34 203.46 107.32 203.41 109.3 203.36 111.27 203.3 113.25 203.25 115.23 203.21 117.21 203.18 119.19 203.17 121.17 203.17" id="img-ffdd34f9-87" class="geometry color_t1" stroke="#FF6DAE"/>
      </g>
    </g>
  </g>
</g>
  <g class="guide ylabels" font-size="4.23" font-family="'PT Sans Caption','Helvetica Neue','Helvetica',sans-serif" fill="#6C606B" id="img-ffdd34f9-88">
    <text x="19.22" y="205.89" text-anchor="end" dy="0.35em" id="img-ffdd34f9-89">0.0</text>
    <text x="19.22" y="182.65" text-anchor="end" dy="0.35em" id="img-ffdd34f9-90">0.5</text>
    <text x="19.22" y="159.4" text-anchor="end" dy="0.35em" id="img-ffdd34f9-91">1.0</text>
  </g>
  <g font-size="4.94" font-family="'PT Sans','Helvetica Neue','Helvetica',sans-serif" fill="#564A55" stroke="#000000" stroke-opacity="0.000" id="img-ffdd34f9-92">
    <text x="8.78" y="180.65" text-anchor="middle" dy="0.35em" transform="rotate(-90, 8.78, 182.65)" id="img-ffdd34f9-93">Main Effect</text>
  </g>
</g>
<g class="plotroot xscalable yscalable" id="img-ffdd34f9-94">
  <g font-size="4.94" font-family="'PT Sans','Helvetica Neue','Helvetica',sans-serif" fill="#564A55" stroke="#000000" stroke-opacity="0.000" id="img-ffdd34f9-95">
    <text x="71.69" y="139.77" text-anchor="middle" dy="0.6em" id="img-ffdd34f9-96">Time [a]</text>
  </g>
  <g class="guide xlabels" font-size="4.23" font-family="'PT Sans Caption','Helvetica Neue','Helvetica',sans-serif" fill="#6C606B" id="img-ffdd34f9-97">
    <text x="22.21" y="132.69" text-anchor="middle" dy="0.6em" id="img-ffdd34f9-98">0</text>
    <text x="42.01" y="132.69" text-anchor="middle" dy="0.6em" id="img-ffdd34f9-99">10</text>
    <text x="61.8" y="132.69" text-anchor="middle" dy="0.6em" id="img-ffdd34f9-100">20</text>
    <text x="81.59" y="132.69" text-anchor="middle" dy="0.6em" id="img-ffdd34f9-101">30</text>
    <text x="101.38" y="132.69" text-anchor="middle" dy="0.6em" id="img-ffdd34f9-102">40</text>
    <text x="121.17" y="132.69" text-anchor="middle" dy="0.6em" id="img-ffdd34f9-103">50</text>
  </g>
  <g class="guide colorkey" id="img-ffdd34f9-104">
    <g fill="#4C404B" font-size="4.23" font-family="'PT Sans','Helvetica Neue','Helvetica',sans-serif" id="img-ffdd34f9-105">
      <text x="127.87" y="103.75" dy="0.35em" id="img-ffdd34f9-106" class="color_v">v</text>
      <text x="127.87" y="109.15" dy="0.35em" id="img-ffdd34f9-107" class="color_t0">t<tspan style="dominant-baseline:inherit" dy="1.7225" font-size="83.3333%">0</tspan><tspan style="dominant-baseline:inherit" dy="-1.4355"></tspan></text>
      <text x="127.87" y="114.54" dy="0.35em" id="img-ffdd34f9-108" class="color_t1">t<tspan style="dominant-baseline:inherit" dy="1.7225" font-size="83.3333%">1</tspan><tspan style="dominant-baseline:inherit" dy="-1.4355"></tspan></text>
    </g>
    <g stroke="#000000" stroke-opacity="0.000" id="img-ffdd34f9-109">
      <rect x="124.17" y="102.4" width="2.7" height="2.7" id="img-ffdd34f9-110" class="color_v" fill="#00BFFF"/>
      <rect x="124.17" y="107.8" width="2.7" height="2.7" id="img-ffdd34f9-111" class="color_t0" fill="#D4CA3A"/>
      <rect x="124.17" y="113.19" width="2.7" height="2.7" id="img-ffdd34f9-112" class="color_t1" fill="#FF6DAE"/>
    </g>
    <g fill="#362A35" font-size="5.64" font-family="'PT Sans','Helvetica Neue','Helvetica',sans-serif" stroke="#000000" stroke-opacity="0.000" id="img-ffdd34f9-113">
      <text x="124.17" y="98.67" id="img-ffdd34f9-114">parameter</text>
    </g>
  </g>
<g clip-path="url(#img-ffdd34f9-115)">
  <g id="img-ffdd34f9-116">
    <g pointer-events="visible" opacity="1" fill="#000000" fill-opacity="0.000" stroke="#000000" stroke-opacity="0.000" class="guide background" id="img-ffdd34f9-117">
      <rect x="20.21" y="81.2" width="102.95" height="50.49" id="img-ffdd34f9-118"/>
    </g>
    <g class="guide ygridlines xfixed" stroke-dasharray="0.5,0.5" stroke-width="0.2" stroke="#D0D0E0" id="img-ffdd34f9-119">
      <path fill="none" d="M20.21,129.69 L 123.17 129.69" id="img-ffdd34f9-120"/>
      <path fill="none" d="M20.21,106.45 L 123.17 106.45" id="img-ffdd34f9-121"/>
      <path fill="none" d="M20.21,83.2 L 123.17 83.2" id="img-ffdd34f9-122"/>
    </g>
    <g class="guide xgridlines yfixed" stroke-dasharray="0.5,0.5" stroke-width="0.2" stroke="#D0D0E0" id="img-ffdd34f9-123">
      <path fill="none" d="M22.21,81.2 L 22.21 131.69" id="img-ffdd34f9-124"/>
      <path fill="none" d="M42.01,81.2 L 42.01 131.69" id="img-ffdd34f9-125"/>
      <path fill="none" d="M61.8,81.2 L 61.8 131.69" id="img-ffdd34f9-126"/>
      <path fill="none" d="M81.59,81.2 L 81.59 131.69" id="img-ffdd34f9-127"/>
      <path fill="none" d="M101.38,81.2 L 101.38 131.69" id="img-ffdd34f9-128"/>
      <path fill="none" d="M121.17,81.2 L 121.17 131.69" id="img-ffdd34f9-129"/>
    </g>
    <g class="plotpanel" id="img-ffdd34f9-130">
      <g stroke-width="0.71" fill="#000000" fill-opacity="0.000" stroke-dasharray="none" id="img-ffdd34f9-131">
        <path fill="none" d="M24.19,83.2 L 26.17 113.05 28.15 114.61 30.13 116.47 32.11 117.87 34.09 118.66 36.07 118.79 38.05 118.65 40.03 118.47 42.01 118.29 43.98 118.13 45.96 117.92 47.94 117.7 49.92 117.55 51.9 117.46 53.88 117.43 55.86 117.43 57.84 117.41 59.82 117.4 61.8 117.4 63.78 117.41 65.75 117.42 67.73 117.44 69.71 117.46 71.69 117.48 73.67 117.51 75.65 117.53 77.63 117.54 79.61 117.53 81.59 117.51 83.57 117.49 85.55 117.49 87.52 117.5 89.5 117.52 91.48 117.56 93.46 117.59 95.44 117.62 97.42 117.65 99.4 117.67 101.38 117.7 103.36 117.73 105.34 117.76 107.32 117.79 109.29 117.82 111.27 117.84 113.25 117.85 115.23 117.86 117.21 117.86 119.19 117.86 121.17 117.87" id="img-ffdd34f9-132" class="geometry color_v" stroke="#00BFFF"/>
        <path fill="none" d="M24.19,127.41 L 26.17 125.63 28.15 119.32 30.13 117.89 32.11 118.18 34.09 118.81 36.07 119.92 38.05 121.39 40.03 122.71 42.01 123.72 43.98 124.57 45.96 125.39 47.94 126.13 49.92 126.74 51.9 127.22 53.88 127.6 55.86 127.91 57.84 128.17 59.82 128.37 61.8 128.54 63.78 128.67 65.75 128.78 67.73 128.88 69.71 128.96 71.69 129.02 73.67 129.08 75.65 129.13 77.63 129.17 79.61 129.2 81.59 129.24 83.57 129.26 85.55 129.29 87.52 129.31 89.5 129.33 91.48 129.35 93.46 129.36 95.44 129.37 97.42 129.39 99.4 129.39 101.38 129.4 103.36 129.41 105.34 129.41 107.32 129.41 109.29 129.42 111.27 129.42 113.25 129.42 115.23 129.42 117.21 129.42 119.19 129.41 121.17 129.41" id="img-ffdd34f9-133" class="geometry color_t0" stroke="#D4CA3A"/>
        <path fill="none" d="M24.19,129.69 L 26.17 129.69 28.15 129.69 30.13 129.69 32.11 129.69 34.09 129.69 36.07 129.69 38.05 129.68 40.03 129.64 42.01 129.58 43.98 129.52 45.96 129.45 47.94 129.35 49.92 129.23 51.9 129.11 53.88 128.99 55.86 128.85 57.84 128.71 59.82 128.57 61.8 128.45 63.78 128.34 65.75 128.23 67.73 128.11 69.71 127.97 71.69 127.83 73.67 127.68 75.65 127.53 77.63 127.38 79.61 127.22 81.59 127.06 83.57 126.91 85.55 126.78 87.52 126.66 89.5 126.56 91.48 126.46 93.46 126.37 95.44 126.3 97.42 126.23 99.4 126.19 101.38 126.16 103.36 126.15 105.34 126.15 107.32 126.18 109.29 126.22 111.27 126.26 113.25 126.31 115.23 126.35 117.21 126.4 119.19 126.44 121.17 126.49" id="img-ffdd34f9-134" class="geometry color_t1" stroke="#FF6DAE"/>
      </g>
    </g>
  </g>
</g>
  <g class="guide ylabels" font-size="4.23" font-family="'PT Sans Caption','Helvetica Neue','Helvetica',sans-serif" fill="#6C606B" id="img-ffdd34f9-135">
    <text x="19.21" y="129.69" text-anchor="end" dy="0.35em" id="img-ffdd34f9-136">0.0</text>
    <text x="19.21" y="106.45" text-anchor="end" dy="0.35em" id="img-ffdd34f9-137">0.5</text>
    <text x="19.21" y="83.2" text-anchor="end" dy="0.35em" id="img-ffdd34f9-138">1.0</text>
  </g>
  <g font-size="4.94" font-family="'PT Sans','Helvetica Neue','Helvetica',sans-serif" fill="#564A55" stroke="#000000" stroke-opacity="0.000" id="img-ffdd34f9-139">
    <text x="8.77" y="104.45" text-anchor="middle" dy="0.35em" transform="rotate(-90, 8.77, 106.45)" id="img-ffdd34f9-140">Total Effect</text>
  </g>
</g>
<g class="plotroot xscalable yscalable" id="img-ffdd34f9-141">
  <g font-size="3.88" font-family="'PT Sans','Helvetica Neue','Helvetica',sans-serif" fill="#564A55" stroke="#000000" stroke-opacity="0.000" id="img-ffdd34f9-142">
    <text x="84.22" y="64.56" text-anchor="middle" dy="0.6em" id="img-ffdd34f9-143">Time [a]</text>
  </g>
  <g class="guide xlabels" font-size="2.82" font-family="'PT Sans Caption','Helvetica Neue','Helvetica',sans-serif" fill="#6C606B" id="img-ffdd34f9-144">
    <text x="23.04" y="58.51" text-anchor="middle" dy="0.6em" id="img-ffdd34f9-145">0</text>
    <text x="47.51" y="58.51" text-anchor="middle" dy="0.6em" id="img-ffdd34f9-146">10</text>
    <text x="71.98" y="58.51" text-anchor="middle" dy="0.6em" id="img-ffdd34f9-147">20</text>
    <text x="96.45" y="58.51" text-anchor="middle" dy="0.6em" id="img-ffdd34f9-148">30</text>
    <text x="120.93" y="58.51" text-anchor="middle" dy="0.6em" id="img-ffdd34f9-149">40</text>
    <text x="145.4" y="58.51" text-anchor="middle" dy="0.6em" id="img-ffdd34f9-150">50</text>
  </g>
<g clip-path="url(#img-ffdd34f9-151)">
  <g id="img-ffdd34f9-152">
    <g pointer-events="visible" opacity="1" fill="#000000" fill-opacity="0.000" stroke="#000000" stroke-opacity="0.000" class="guide background" id="img-ffdd34f9-153">
      <rect x="21.04" y="5" width="126.36" height="52.51" id="img-ffdd34f9-154"/>
    </g>
    <g class="guide ygridlines xfixed" stroke-dasharray="0.5,0.5" stroke-width="0.2" stroke="#D0D0E0" id="img-ffdd34f9-155">
      <path fill="none" d="M21.04,55.51 L 147.4 55.51" id="img-ffdd34f9-156"/>
      <path fill="none" d="M21.04,31.26 L 147.4 31.26" id="img-ffdd34f9-157"/>
      <path fill="none" d="M21.04,7 L 147.4 7" id="img-ffdd34f9-158"/>
    </g>
    <g class="guide xgridlines yfixed" stroke-dasharray="0.5,0.5" stroke-width="0.2" stroke="#D0D0E0" id="img-ffdd34f9-159">
      <path fill="none" d="M23.04,5 L 23.04 57.51" id="img-ffdd34f9-160"/>
      <path fill="none" d="M47.51,5 L 47.51 57.51" id="img-ffdd34f9-161"/>
      <path fill="none" d="M71.98,5 L 71.98 57.51" id="img-ffdd34f9-162"/>
      <path fill="none" d="M96.45,5 L 96.45 57.51" id="img-ffdd34f9-163"/>
      <path fill="none" d="M120.93,5 L 120.93 57.51" id="img-ffdd34f9-164"/>
      <path fill="none" d="M145.4,5 L 145.4 57.51" id="img-ffdd34f9-165"/>
    </g>
    <g class="plotpanel" id="img-ffdd34f9-166">
      <g stroke-width="0.3" fill="#000000" fill-opacity="0.000" class="geometry" stroke-dasharray="none" stroke="#00BFFF" id="img-ffdd34f9-167">
        <path fill="none" d="M25.48,55.51 L 27.93 55.51 30.38 55.51 32.83 55.51 35.27 55.51 37.72 55.51 40.17 55.51 42.61 55.51 45.06 55.5 47.51 55.41 49.96 55.07 52.4 54.23 54.85 52.72 57.3 50.43 59.75 47.39 62.19 43.69 64.64 39.47 67.09 34.9 69.53 30.12 71.98 25.34 74.43 20.84 76.88 16.95 79.32 13.92 81.77 11.88 84.22 10.86 86.67 10.76 89.11 11.46 91.56 12.79 94.01 14.61 96.45 16.77 98.9 19.14 101.35 21.63 103.8 24.15 106.24 26.65 108.69 29.07 111.14 31.39 113.59 33.58 116.03 35.64 118.48 37.55 120.93 39.31 123.37 40.93 125.82 42.41 128.27 43.76 130.72 44.99 133.16 46.09 135.61 47.09 138.06 47.99 140.51 48.8 142.95 49.53 145.4 50.18" id="img-ffdd34f9-168"/>
      </g>
    </g>
  </g>
</g>
  <g class="guide ylabels" font-size="2.82" font-family="'PT Sans Caption','Helvetica Neue','Helvetica',sans-serif" fill="#6C606B" id="img-ffdd34f9-169">
    <text x="20.04" y="55.51" text-anchor="end" dy="0.35em" id="img-ffdd34f9-170">0</text>
    <text x="20.04" y="31.26" text-anchor="end" dy="0.35em" id="img-ffdd34f9-171">500</text>
    <text x="20.04" y="7" text-anchor="end" dy="0.35em" id="img-ffdd34f9-172">1000</text>
  </g>
  <g font-size="3.88" font-family="'PT Sans','Helvetica Neue','Helvetica',sans-serif" fill="#564A55" stroke="#000000" stroke-opacity="0.000" id="img-ffdd34f9-173">
    <text x="8.83" y="29.26" text-anchor="middle" dy="0.35em" transform="rotate(-90, 8.83, 31.26)" id="img-ffdd34f9-174">Concentration [ppb]</text>
  </g>
</g>
<defs>
  <clipPath id="img-ffdd34f9-115">
  <path d="M20.21,81.2 L 123.17 81.2 123.17 131.69 20.21 131.69" />
</clipPath>
  <clipPath id="img-ffdd34f9-68">
  <path d="M20.22,157.4 L 123.17 157.4 123.17 207.89 20.22 207.89" />
</clipPath>
  <clipPath id="img-ffdd34f9-15">
  <path d="M30.15,233.6 L 123.17 233.6 123.17 284.09 30.15 284.09" />
</clipPath>
  <clipPath id="img-ffdd34f9-151">
  <path d="M21.04,5 L 147.4 5 147.4 57.51 21.04 57.51" />
</clipPath>
</defs>
</svg>
