<?xml version="1.0" encoding="UTF-8"?>
<svg xmlns="http://www.w3.org/2000/svg"
     xmlns:xlink="http://www.w3.org/1999/xlink"
     xmlns:gadfly="http://www.gadflyjl.org/ns"
     version="1.2"
     width="203.2mm" height="101.6mm" viewBox="0 0 203.2 101.6"
     stroke="none"
     fill="#000000"
     stroke-width="0.3"
     font-size="3.88"
>
<g class="plotroot xscalable yscalable" id="img-60525134-1">
  <g font-size="3.88" font-family="'PT Sans','Helvetica Neue','Helvetica',sans-serif" fill="#564A55" stroke="#000000" stroke-opacity="0.000" id="img-60525134-2">
    <g transform="translate(95.73,90.81)">
      <g class="primitive">
        <text text-anchor="middle" dy="0.6em">Time</text>
      </g>
    </g>
  </g>
  <g class="guide xlabels" font-size="2.82" font-family="'PT Sans Caption','Helvetica Neue','Helvetica',sans-serif" fill="#6C606B" id="img-60525134-3">
    <g transform="translate(16.54,84.76)">
      <g class="primitive">
        <text text-anchor="middle" dy="0.6em">0</text>
      </g>
    </g>
    <g transform="translate(95.73,84.76)">
      <g class="primitive">
        <text text-anchor="middle" dy="0.6em">50</text>
      </g>
    </g>
    <g transform="translate(174.93,84.76)">
      <g class="primitive">
        <text text-anchor="middle" dy="0.6em">100</text>
      </g>
    </g>
  </g>
  <g class="guide colorkey" id="img-60525134-4">
    <g fill="#4C404B" font-size="2.82" font-family="'PT Sans','Helvetica Neue','Helvetica',sans-serif" id="img-60525134-5">
      <g transform="translate(180.45,39.55)">
        <g class="primitive">
          <text dy="0.35em">Observation 1</text>
        </g>
      </g>
      <g transform="translate(180.45,42.6)">
        <g class="primitive">
          <text dy="0.35em">Observation 2</text>
        </g>
      </g>
      <g transform="translate(180.45,45.64)">
        <g class="primitive">
          <text dy="0.35em">Observation 3</text>
        </g>
      </g>
      <g transform="translate(180.45,48.69)">
        <g class="primitive">
          <text dy="0.35em">Observation 4</text>
        </g>
      </g>
      <g transform="translate(180.45,51.73)">
        <g class="primitive">
          <text dy="0.35em">Observation 5</text>
        </g>
      </g>
      <g transform="translate(180.45,54.77)">
        <g class="primitive">
          <text dy="0.35em">Observation 6</text>
        </g>
      </g>
      <g transform="translate(180.45,57.82)">
        <g class="primitive">
          <text dy="0.35em">Observation 7</text>
        </g>
      </g>
    </g>
    <g stroke="#000000" stroke-opacity="0.000" id="img-60525134-6">
      <g transform="translate(178.69,39.55)" fill="#FF0000">
        <path d="M-0.76,-0.76 L 0.76 -0.76 0.76 0.76 -0.76 0.76 z" class="primitive"/>
      </g>
      <g transform="translate(178.69,42.6)" fill="#0000FF">
        <path d="M-0.76,-0.76 L 0.76 -0.76 0.76 0.76 -0.76 0.76 z" class="primitive"/>
      </g>
      <g transform="translate(178.69,45.64)" fill="#008000">
        <path d="M-0.76,-0.76 L 0.76 -0.76 0.76 0.76 -0.76 0.76 z" class="primitive"/>
      </g>
      <g transform="translate(178.69,48.69)" fill="#FFA500">
        <path d="M-0.76,-0.76 L 0.76 -0.76 0.76 0.76 -0.76 0.76 z" class="primitive"/>
      </g>
      <g transform="translate(178.69,51.73)" fill="#FF00FF">
        <path d="M-0.76,-0.76 L 0.76 -0.76 0.76 0.76 -0.76 0.76 z" class="primitive"/>
      </g>
      <g transform="translate(178.69,54.77)" fill="#00FFFF">
        <path d="M-0.76,-0.76 L 0.76 -0.76 0.76 0.76 -0.76 0.76 z" class="primitive"/>
      </g>
      <g transform="translate(178.69,57.82)" fill="#A52A2A">
        <path d="M-0.76,-0.76 L 0.76 -0.76 0.76 0.76 -0.76 0.76 z" class="primitive"/>
      </g>
    </g>
    <g fill="#362A35" font-size="3.88" font-family="'PT Sans','Helvetica Neue','Helvetica',sans-serif" stroke="#000000" stroke-opacity="0.000" id="img-60525134-7">
      <g transform="translate(177.93,35.92)">
        <g class="primitive">
          <text>Observations</text>
        </g>
      </g>
    </g>
  </g>
  <g clip-path="url(#img-60525134-8)">
    <g id="img-60525134-9">
      <g pointer-events="visible" opacity="1" fill="#000000" fill-opacity="0.000" stroke="#000000" stroke-opacity="0.000" class="guide background" id="img-60525134-10">
        <g transform="translate(95.73,47.16)">
          <path d="M-81.19,-36.59 L 81.19 -36.59 81.19 36.59 -81.19 36.59 z" class="primitive"/>
        </g>
      </g>
      <g class="guide ygridlines xfixed" stroke-dasharray="0.5,0.5" stroke-width="0.2" stroke="#D0D0E0" id="img-60525134-11">
        <g transform="translate(95.73,81.76)">
          <path fill="none" d="M-81.19,0 L 81.19 0" class="primitive"/>
        </g>
        <g transform="translate(95.73,58.69)">
          <path fill="none" d="M-81.19,0 L 81.19 0" class="primitive"/>
        </g>
        <g transform="translate(95.73,35.63)">
          <path fill="none" d="M-81.19,0 L 81.19 0" class="primitive"/>
        </g>
        <g transform="translate(95.73,12.57)">
          <path fill="none" d="M-81.19,0 L 81.19 0" class="primitive"/>
        </g>
      </g>
      <g class="guide xgridlines yfixed" stroke-dasharray="0.5,0.5" stroke-width="0.2" stroke="#D0D0E0" id="img-60525134-12">
        <g transform="translate(16.54,47.16)">
          <path fill="none" d="M0,-36.59 L 0 36.59" class="primitive"/>
        </g>
        <g transform="translate(95.73,47.16)">
          <path fill="none" d="M0,-36.59 L 0 36.59" class="primitive"/>
        </g>
        <g transform="translate(174.93,47.16)">
          <path fill="none" d="M0,-36.59 L 0 36.59" class="primitive"/>
        </g>
      </g>
      <g class="plotpanel" id="img-60525134-13">
        <metadata>
          <boundingbox value="14.537768554687489mm 10.570152452256949mm 162.38911132812498mm 73.18673231336805mm"/>
          <unitbox value="-1.2627130635620039 3.086721829451695 102.525426127124 -3.1734436589033908"/>
        </metadata>
        <g stroke-width="0.71" fill="#000000" fill-opacity="0.000" class="geometry" id="img-60525134-14">
          <g stroke-dasharray="none" stroke="#A52A2A" id="img-60525134-15">
            <g transform="translate(96.52,52.36)">
              <path fill="none" d="M-78.4,-6.46 L -76.82 -9.56 -75.23 -14.55 -73.65 -18.67 -72.07 -17.14 -70.48 -19.1 -68.9 -14.57 -67.32 -19.42 -65.73 -13.33 -64.15 0.58 -62.56 6.13 -60.98 13.25 -59.4 11.94 -57.81 22.41 -56.23 27.8 -54.64 19.77 -53.06 25.8 -51.48 20.71 -49.89 18.73 -48.31 8.57 -46.72 -3.2 -45.14 -10.39 -43.56 -12.21 -41.97 -14.7 -40.39 -15.81 -38.81 -19.15 -37.22 -17.27 -35.64 -23.55 -34.05 -15.45 -32.47 -10.01 -30.89 0.82 -29.3 7.75 -27.72 13.2 -26.13 15.47 -24.55 18.82 -22.97 26.4 -21.38 23.47 -19.8 26.77 -18.21 23.53 -16.63 14.62 -15.05 7.61 -13.46 1.03 -11.88 -10.71 -10.3 -10.85 -8.71 -13.27 -7.13 -26.83 -5.54 -21.6 -3.96 -18.83 -2.38 -21.96 -0.79 -13.34 0.79 -9.65 2.38 -5.24 3.96 8.31 5.54 9.53 7.13 13.07 8.71 22.86 10.3 18.32 11.88 21.16 13.46 23.06 15.05 15.74 16.63 12.89 18.21 10.06 19.8 0.16 21.38 -11.1 22.97 -16.79 24.55 -17.22 26.13 -16.93 27.72 -28.14 29.3 -25.77 30.89 -21.16 32.47 -15.23 34.05 -12.6 35.64 -3.1 37.22 1.35 38.81 11.06 40.39 12.8 41.97 19.08 43.56 20.6 45.14 27.69 46.72 15.78 48.31 20.35 49.89 10.27 51.48 10.9 53.06 2.27 54.64 -13.04 56.23 -8.28 57.81 -12.77 59.4 -24.78 60.98 -23.38 62.56 -26.75 64.15 -19.94 65.73 -18.61 67.32 -8.77 68.9 -1.33 70.48 6.71 72.07 6.82 73.65 14.11 75.23 18.65 76.82 21.62 78.4 22.11" class="primitive"/>
            </g>
          </g>
        </g>
        <g stroke-width="0.71" fill="#000000" fill-opacity="0.000" class="geometry" id="img-60525134-16">
          <g stroke-dasharray="none" stroke="#00FFFF" id="img-60525134-17">
            <g transform="translate(96.52,58.35)">
              <path fill="none" d="M-78.4,-3.49 L -76.82 -0.39 -75.23 -2.8 -73.65 -5.9 -72.07 -0.57 -70.48 -5.31 -68.9 -0.08 -67.32 -16.26 -65.73 -12.67 -64.15 5.25 -62.56 6 -60.98 10.39 -59.4 -0.7 -57.81 13.88 -56.23 20.99 -54.64 4.29 -53.06 18.77 -51.48 13.89 -49.89 17.61 -48.31 6.68 -46.72 -6.62 -45.14 -10.81 -43.56 -5.2 -41.97 -2.75 -40.39 0.02 -38.81 -4.56 -37.22 -1.79 -35.64 -18.34 -34.05 -8.77 -32.47 -6.56 -30.89 5.16 -29.3 8.67 -27.72 9.77 -26.13 5.93 -24.55 6.42 -22.97 18.06 -21.38 11.73 -19.8 20.95 -18.21 19.91 -16.63 9.89 -15.05 5.32 -13.46 2.43 -11.88 -10.89 -10.3 -2.01 -8.71 0.47 -7.13 -21.81 -5.54 -9.43 -3.96 -5.06 -2.38 -15.46 -0.79 -4.98 0.79 -6.36 2.38 -7.55 3.96 9.23 5.54 1.93 7.13 0.72 8.71 14.22 10.3 1.8 11.88 7.18 13.46 13.75 15.05 4.7 16.63 6.92 18.21 10.77 19.8 1.28 21.38 -11.12 22.97 -13.43 24.55 -7.1 26.13 -1.83 27.72 -22.5 29.3 -19.09 30.89 -14.17 32.47 -9.2 34.05 -12.82 35.64 -3.84 37.22 -5.28 38.81 4.48 40.39 -0.23 41.97 6.4 43.56 6.27 45.14 20.31 46.72 -0.55 48.31 14.31 49.89 2.18 51.48 13.03 53.06 6.07 54.64 -14.45 56.23 4.05 57.81 2.15 59.4 -17.35 60.98 -12.97 62.56 -21.21 64.15 -12.05 65.73 -16.41 67.32 -5.69 68.9 -0.88 70.48 4.87 72.07 -4.52 73.65 1.99 75.23 5.29 76.82 8.21 78.4 9.25" class="primitive"/>
            </g>
          </g>
        </g>
        <g stroke-width="0.71" fill="#000000" fill-opacity="0.000" class="geometry" id="img-60525134-18">
          <g stroke-dasharray="none" stroke="#FF00FF" id="img-60525134-19">
            <g transform="translate(96.52,56.22)">
              <path fill="none" d="M-78.4,-4.34 L -76.82 -10.55 -75.23 -15.59 -73.65 -19.02 -72.07 -20.53 -70.48 -19.98 -68.9 -17.43 -67.32 -13.1 -65.73 -7.38 -64.15 -0.78 -62.56 6.11 -60.98 12.68 -59.4 18.34 -57.81 22.58 -56.23 25.02 -54.64 25.45 -53.06 23.83 -51.48 20.3 -49.89 15.18 -48.31 8.92 -46.72 2.09 -45.14 -4.71 -43.56 -10.86 -41.97 -15.83 -40.39 -19.16 -38.81 -20.55 -37.22 -19.89 -35.64 -17.23 -34.05 -12.81 -32.47 -7.03 -30.89 -0.39 -29.3 6.5 -27.72 13.03 -26.13 18.62 -24.55 22.76 -22.97 25.1 -21.38 25.41 -19.8 23.68 -18.21 20.05 -16.63 14.85 -15.05 8.55 -13.46 1.7 -11.88 -5.08 -10.3 -11.18 -8.71 -16.06 -7.13 -19.29 -5.54 -20.57 -3.96 -19.79 -2.38 -17.03 -0.79 -12.52 0.79 -11.74 2.38 -15.32 3.96 4.54 5.54 -9.51 7.13 16.75 8.71 5.43 10.3 21.54 11.88 20.08 13.46 19.08 15.05 4.93 16.63 -3.86 18.21 6.37 19.8 -9.37 21.38 -21.12 22.97 -29.25 24.55 -16.4 26.13 -20.58 27.72 -40.06 29.3 -35.58 30.89 -16.82 32.47 -12.22 34.05 -6.32 35.64 0.38 37.22 7.26 38.81 13.71 40.39 19.16 41.97 23.12 43.56 25.24 45.14 25.32 46.72 23.36 48.31 19.54 49.89 14.19 51.48 7.79 53.06 0.93 54.64 -5.81 56.23 -11.8 57.81 -16.51 59.4 -19.53 60.98 -20.59 62.56 -19.58 64.15 -16.6 65.73 -11.92 67.32 -5.96 68.9 0.76 70.48 7.64 72.07 14.05 73.65 19.43 75.23 23.29 76.82 25.3 78.4 25.26" class="primitive"/>
            </g>
          </g>
        </g>
        <g stroke-width="0.71" fill="#000000" fill-opacity="0.000" class="geometry" id="img-60525134-20">
          <g stroke-dasharray="none" stroke="#FFA500" id="img-60525134-21">
            <g transform="translate(96.52,66.07)">
              <path fill="none" d="M-78.4,0.75 L -76.82 -2.36 -75.23 -4.88 -73.65 -6.59 -72.07 -7.35 -70.48 -7.08 -68.9 -5.8 -67.32 -3.64 -65.73 -0.77 -64.15 2.53 -62.56 5.97 -60.98 9.26 -59.4 12.08 -57.81 14.2 -56.23 15.43 -54.64 15.64 -53.06 14.83 -51.48 13.06 -49.89 10.5 -48.31 7.38 -46.72 3.96 -45.14 0.56 -43.56 -2.52 -41.97 -5 -40.39 -6.66 -38.81 -7.36 -37.22 -7.03 -35.64 -5.7 -34.05 -3.49 -32.47 -0.6 -30.89 2.72 -29.3 6.16 -27.72 9.43 -26.13 12.22 -24.55 14.3 -22.97 15.47 -21.38 15.62 -19.8 14.75 -18.21 12.94 -16.63 10.34 -15.05 7.19 -13.46 3.77 -11.88 0.38 -10.3 -2.67 -8.71 -5.11 -7.13 -6.73 -5.54 -7.37 -3.96 -6.98 -2.38 -5.6 -0.79 -3.34 0.79 -10.56 2.38 -27.7 3.96 1.68 5.54 -36.15 7.13 8.08 8.71 -20.64 10.3 8.25 11.88 5.02 13.46 5.79 15.05 -16.92 16.63 -26.59 18.21 3.41 19.8 -17.79 21.38 -31.16 22.97 -38.34 24.55 -5.45 26.13 -9.12 27.72 -46.34 29.3 -38.7 30.89 -5.49 32.47 -3.2 34.05 -0.24 35.64 3.1 37.22 6.54 38.81 9.77 40.39 12.5 41.97 14.48 43.56 15.53 45.14 15.58 46.72 14.6 48.31 12.68 49.89 10.01 51.48 6.81 53.06 3.38 54.64 0.01 56.23 -2.98 57.81 -5.34 59.4 -6.85 60.98 -7.38 62.56 -6.87 64.15 -5.39 65.73 -3.05 67.32 -0.06 68.9 3.3 70.48 6.73 72.07 9.94 73.65 12.63 75.23 14.56 76.82 15.56 78.4 15.55" class="primitive"/>
            </g>
          </g>
        </g>
        <g stroke-width="0.71" fill="#000000" fill-opacity="0.000" class="geometry" id="img-60525134-22">
          <g stroke-dasharray="none" stroke="#008000" id="img-60525134-23">
            <g transform="translate(96.52,68.21)">
              <path fill="none" d="M-78.4,1.59 L -76.82 7.8 -75.23 7.91 -73.65 6.53 -72.07 12.61 -70.48 7.6 -68.9 11.55 -67.32 -6.8 -65.73 -6.06 -64.15 8.55 -62.56 5.86 -60.98 6.96 -59.4 -6.96 -57.81 5.5 -56.23 11.4 -54.64 -5.52 -53.06 9.77 -51.48 6.66 -49.89 12.94 -48.31 5.13 -46.72 -4.75 -45.14 -5.54 -43.56 3.15 -41.97 8.09 -40.39 12.52 -38.81 8.63 -37.22 11.07 -35.64 -6.81 -34.05 0.55 -32.47 -0.13 -30.89 8.27 -29.3 8.34 -27.72 6.17 -26.13 -0.46 -24.55 -2.04 -22.97 8.43 -21.38 1.94 -19.8 12.03 -18.21 12.8 -16.63 5.38 -15.05 3.97 -13.46 4.5 -11.88 -5.44 -10.3 6.5 -8.71 11.42 -7.13 -9.25 -5.54 3.77 -3.96 7.75 -2.38 -4.03 -0.79 4.2 0.79 -5.18 2.38 -19.94 3.96 6.37 5.54 -24.72 7.13 -7.95 8.71 -11.85 10.3 -11.49 11.88 -7.88 13.46 0.46 15.05 -17.15 16.63 -15.81 18.21 7.81 19.8 -7.15 21.38 -21.17 22.97 -22.53 24.55 3.85 26.13 9.63 27.72 -28.77 29.3 -22.21 30.89 -2.84 32.47 -0.17 34.05 -6.74 35.64 -1.11 37.22 -5.99 38.81 0.54 40.39 -6.89 41.97 -2.24 43.56 -3.43 45.14 10.57 46.72 -9.32 48.31 7.46 49.89 -2 51.48 12.05 53.06 8.52 54.64 -8.63 56.23 12.86 57.81 13.32 59.4 -4.67 60.98 0.24 62.56 -8.5 64.15 -0.83 65.73 -7.54 67.32 0.2 68.9 1.65 70.48 3.97 72.07 -8.62 73.65 -4.81 75.23 -3.44 76.82 -1.52 78.4 -0.47" class="primitive"/>
            </g>
          </g>
        </g>
        <g stroke-width="0.71" fill="#000000" fill-opacity="0.000" class="geometry" id="img-60525134-24">
          <g stroke-dasharray="none" stroke="#0000FF" id="img-60525134-25">
            <g transform="translate(96.52,68.21)">
              <path fill="none" d="M-78.4,1.59 L -76.82 7.8 -75.23 7.91 -73.65 6.53 -72.07 12.61 -70.48 7.6 -68.9 11.55 -67.32 -6.8 -65.73 -6.06 -64.15 8.55 -62.56 5.86 -60.98 6.96 -59.4 -6.96 -57.81 5.5 -56.23 11.4 -54.64 -5.52 -53.06 9.77 -51.48 6.66 -49.89 12.94 -48.31 5.13 -46.72 -4.75 -45.14 -5.54 -43.56 3.15 -41.97 8.09 -40.39 12.52 -38.81 8.63 -37.22 11.07 -35.64 -6.81 -34.05 0.55 -32.47 -0.13 -30.89 8.27 -29.3 8.34 -27.72 6.17 -26.13 -0.46 -24.55 -2.04 -22.97 8.43 -21.38 1.94 -19.8 12.03 -18.21 12.8 -16.63 5.38 -15.05 3.97 -13.46 4.5 -11.88 -5.44 -10.3 6.5 -8.71 11.42 -7.13 -9.25 -5.54 3.77 -3.96 7.75 -2.38 -4.03 -0.79 4.2 0.79 -5.18 2.38 -19.94 3.96 6.37 5.54 -24.72 7.13 -7.95 8.71 -11.85 10.3 -11.49 11.88 -7.88 13.46 0.46 15.05 -17.15 16.63 -15.81 18.21 7.81 19.8 -7.15 21.38 -21.17 22.97 -22.53 24.55 3.85 26.13 9.63 27.72 -28.77 29.3 -22.21 30.89 -2.84 32.47 -0.17 34.05 -6.74 35.64 -1.11 37.22 -5.99 38.81 0.54 40.39 -6.89 41.97 -2.24 43.56 -3.43 45.14 10.57 46.72 -9.32 48.31 7.46 49.89 -2 51.48 12.05 53.06 8.52 54.64 -8.63 56.23 12.86 57.81 13.32 59.4 -4.67 60.98 0.24 62.56 -8.5 64.15 -0.83 65.73 -7.54 67.32 0.2 68.9 1.65 70.48 3.97 72.07 -8.62 73.65 -4.81 75.23 -3.44 76.82 -1.52 78.4 -0.47" class="primitive"/>
            </g>
          </g>
        </g>
        <g stroke-width="0.71" fill="#000000" fill-opacity="0.000" class="geometry" id="img-60525134-26">
          <g stroke-dasharray="none" stroke="#FF0000" id="img-60525134-27">
            <g transform="translate(96.52,62.21)">
              <path fill="none" d="M-78.4,-1.37 L -76.82 -1.37 -75.23 -3.84 -73.65 -6.25 -72.07 -3.96 -70.48 -6.19 -68.9 -2.94 -67.32 -9.95 -65.73 -6.72 -64.15 3.89 -62.56 5.99 -60.98 9.82 -59.4 5.69 -57.81 14.04 -56.23 18.21 -54.64 9.97 -53.06 16.8 -51.48 13.48 -49.89 14.06 -48.31 7.03 -46.72 -1.33 -45.14 -5.12 -43.56 -3.86 -41.97 -3.87 -40.39 -3.32 -38.81 -5.96 -37.22 -4.41 -35.64 -12.02 -34.05 -6.13 -32.47 -3.58 -30.89 3.94 -29.3 7.42 -27.72 9.6 -26.13 9.08 -24.55 10.36 -22.97 16.76 -21.38 13.68 -19.8 17.85 -18.21 16.43 -16.63 10.11 -15.05 6.26 -13.46 3.1 -11.88 -5.26 -10.3 -2.34 -8.71 -2.32 -7.13 -14.27 -5.54 -8.4 -3.96 -6.02 -2.38 -10.53 -0.79 -4.16 0.79 -8.46 2.38 -17.63 3.96 5.45 5.54 -17.11 7.13 4.4 8.71 -3.21 10.3 5.03 11.88 6.1 13.46 9.77 15.05 -6.11 16.63 -9.84 18.21 7.09 19.8 -8.26 21.38 -21.14 22.97 -25.89 24.55 -6.27 26.13 -5.47 27.72 -34.42 29.3 -28.89 30.89 -9.83 32.47 -6.2 34.05 -6.53 35.64 -0.37 37.22 0.63 38.81 7.13 40.39 6.13 41.97 10.44 43.56 10.9 45.14 17.94 46.72 7.02 48.31 13.5 49.89 6.1 51.48 9.92 53.06 4.72 54.64 -7.22 56.23 0.53 57.81 -1.6 59.4 -12.1 60.98 -10.17 62.56 -14.04 64.15 -8.72 65.73 -9.73 67.32 -2.88 68.9 1.21 70.48 5.8 72.07 2.71 73.65 7.31 75.23 9.93 76.82 11.89 78.4 12.4" class="primitive"/>
            </g>
          </g>
        </g>
      </g>
    </g>
  </g>
  <g class="guide ylabels" font-size="2.82" font-family="'PT Sans Caption','Helvetica Neue','Helvetica',sans-serif" fill="#6C606B" id="img-60525134-28">
    <g transform="translate(13.54,81.76)">
      <g class="primitive">
        <text text-anchor="end" dy="0.35em">0</text>
      </g>
    </g>
    <g transform="translate(13.54,58.69)">
      <g class="primitive">
        <text text-anchor="end" dy="0.35em">1</text>
      </g>
    </g>
    <g transform="translate(13.54,35.63)">
      <g class="primitive">
        <text text-anchor="end" dy="0.35em">2</text>
      </g>
    </g>
    <g transform="translate(13.54,12.57)">
      <g class="primitive">
        <text text-anchor="end" dy="0.35em">3</text>
      </g>
    </g>
  </g>
  <g font-size="3.88" font-family="'PT Sans','Helvetica Neue','Helvetica',sans-serif" fill="#564A55" stroke="#000000" stroke-opacity="0.000" id="img-60525134-29">
    <g transform="translate(9.11,47.16)">
      <g class="primitive">
        <text text-anchor="end" dy="0.35em">Y</text>
      </g>
    </g>
  </g>
  <g font-size="3.88" font-family="'PT Sans','Helvetica Neue','Helvetica',sans-serif" fill="#564A55" stroke="#000000" stroke-opacity="0.000" id="img-60525134-30">
    <g transform="translate(95.73,5)">
      <g class="primitive">
        <text text-anchor="middle" dy="0.6em">Mixed signals</text>
      </g>
    </g>
  </g>
</g>
<defs>
  <clipPath id="img-60525134-8">
    <path d="M14.54,10.57 L 176.93 10.57 176.93 83.76 14.54 83.76" />
  </clipPath>
</defs>
</svg>
