<?xml version="1.0" encoding="UTF-8"?>
<svg xmlns="http://www.w3.org/2000/svg"
     xmlns:xlink="http://www.w3.org/1999/xlink"
     xmlns:gadfly="http://www.gadflyjl.org/ns"
     version="1.2"
     width="152.4mm" height="101.6mm" viewBox="0 0 152.4 101.6"
     stroke="none"
     fill="#000000"
     stroke-width="0.3"
     font-size="3.88"
>
<g class="plotroot xscalable yscalable" id="img-7b17f886-1">
  <g font-size="3.88" font-family="'PT Sans','Helvetica Neue','Helvetica',sans-serif" fill="#564A55" stroke="#000000" stroke-opacity="0.000" id="img-7b17f886-2">
    <text x="60.27" y="90.81" text-anchor="middle" dy="0.6em">Time</text>
  </g>
  <g class="guide xlabels" font-size="2.82" font-family="'PT Sans Caption','Helvetica Neue','Helvetica',sans-serif" fill="#6C606B" id="img-7b17f886-3">
    <text x="16.54" y="84.76" text-anchor="middle" dy="0.6em">0</text>
    <text x="60.27" y="84.76" text-anchor="middle" dy="0.6em">50</text>
    <text x="104.01" y="84.76" text-anchor="middle" dy="0.6em">100</text>
  </g>
  <g class="guide colorkey" id="img-7b17f886-4">
    <g fill="#4C404B" font-size="2.82" font-family="'PT Sans','Helvetica Neue','Helvetica',sans-serif" id="img-7b17f886-5">
      <text x="109.53" y="36.77" dy="0.35em" id="img-7b17f886-6" class="color_Observation_1">Observation 1</text>
      <text x="109.53" y="39.81" dy="0.35em" id="img-7b17f886-7" class="color_Observation_2">Observation 2</text>
      <text x="109.53" y="42.86" dy="0.35em" id="img-7b17f886-8" class="color_Observation_3">Observation 3</text>
      <text x="109.53" y="45.9" dy="0.35em" id="img-7b17f886-9" class="color_Observation_4">Observation 4</text>
      <text x="109.53" y="48.94" dy="0.35em" id="img-7b17f886-10" class="color_Observation_5">Observation 5</text>
      <text x="109.53" y="51.99" dy="0.35em" id="img-7b17f886-11" class="color_Observation_6">Observation 6</text>
      <text x="109.53" y="55.03" dy="0.35em" id="img-7b17f886-12" class="color_Observation_7">Observation 7</text>
    </g>
    <g stroke="#000000" stroke-opacity="0.000" id="img-7b17f886-13">
      <rect x="107.01" y="36.01" width="1.52" height="1.52" id="img-7b17f886-14" fill="#00BFFF" class="color_Observation_1"/>
      <rect x="107.01" y="39.05" width="1.52" height="1.52" id="img-7b17f886-15" fill="#D4CA3A" class="color_Observation_2"/>
      <rect x="107.01" y="42.1" width="1.52" height="1.52" id="img-7b17f886-16" fill="#FF6DAE" class="color_Observation_3"/>
      <rect x="107.01" y="45.14" width="1.52" height="1.52" id="img-7b17f886-17" fill="#00B78D" class="color_Observation_4"/>
      <rect x="107.01" y="48.18" width="1.52" height="1.52" id="img-7b17f886-18" fill="#BEA9FF" class="color_Observation_5"/>
      <rect x="107.01" y="51.23" width="1.52" height="1.52" id="img-7b17f886-19" fill="#FF6765" class="color_Observation_6"/>
      <rect x="107.01" y="54.27" width="1.52" height="1.52" id="img-7b17f886-20" fill="#C6C6C6" class="color_Observation_7"/>
    </g>
    <g fill="#362A35" font-size="3.88" font-family="'PT Sans','Helvetica Neue','Helvetica',sans-serif" stroke="#000000" stroke-opacity="0.000" id="img-7b17f886-21">
      <text x="107.01" y="33.49" id="img-7b17f886-22">Reproduced observations</text>
    </g>
  </g>
<g clip-path="url(#img-7b17f886-23)">
  <g id="img-7b17f886-24">
    <g pointer-events="visible" opacity="1" fill="#000000" fill-opacity="0.000" stroke="#000000" stroke-opacity="0.000" class="guide background" id="img-7b17f886-25">
      <rect x="14.54" y="5" width="91.47" height="78.76" id="img-7b17f886-26"/>
    </g>
    <g class="guide ygridlines xfixed" stroke-dasharray="0.5,0.5" stroke-width="0.2" stroke="#D0D0E0" id="img-7b17f886-27">
      <path fill="none" d="M14.54,81.76 L 106.01 81.76" id="img-7b17f886-28"/>
      <path fill="none" d="M14.54,56.84 L 106.01 56.84" id="img-7b17f886-29"/>
      <path fill="none" d="M14.54,31.92 L 106.01 31.92" id="img-7b17f886-30"/>
      <path fill="none" d="M14.54,7 L 106.01 7" id="img-7b17f886-31"/>
    </g>
    <g class="guide xgridlines yfixed" stroke-dasharray="0.5,0.5" stroke-width="0.2" stroke="#D0D0E0" id="img-7b17f886-32">
      <path fill="none" d="M16.54,5 L 16.54 83.76" id="img-7b17f886-33"/>
      <path fill="none" d="M60.27,5 L 60.27 83.76" id="img-7b17f886-34"/>
      <path fill="none" d="M104.01,5 L 104.01 83.76" id="img-7b17f886-35"/>
    </g>
    <g class="plotpanel" id="img-7b17f886-36">
      <g stroke-width="0.71" fill="#000000" fill-opacity="0.000" class="geometry color_Observation_7" stroke-dasharray="none" stroke="#C6C6C6" id="img-7b17f886-37">
        <path fill="none" d="M17.41,43.01 L 18.29 39.66 19.16 34.27 20.04 29.82 20.91 31.47 21.79 29.36 22.66 34.25 23.54 29.01 24.41 35.59 25.28 50.62 26.16 56.61 27.03 64.3 27.91 62.9 28.78 74.21 29.66 80.03 30.53 71.36 31.41 77.87 32.28 72.37 33.16 70.23 34.03 59.25 34.91 46.53 35.78 38.76 36.66 36.8 37.53 34.11 38.41 32.9 39.28 29.3 40.16 31.33 41.03 24.54 41.9 33.29 42.78 39.18 43.65 50.88 44.53 58.37 45.4 64.25 46.28 66.71 47.15 70.33 48.03 78.51 48.9 75.35 49.78 78.92 50.65 75.42 51.53 65.79 52.4 58.22 53.28 51.11 54.15 38.42 55.03 38.27 55.9 35.66 56.77 21 57.65 26.65 58.52 29.64 59.4 26.26 60.27 35.58 61.15 39.57 62.02 44.33 62.9 58.98 63.77 60.3 64.65 64.11 65.52 74.69 66.4 69.79 67.27 72.85 68.15 74.91 69.02 67 69.9 63.92 70.77 60.86 71.65 50.17 72.52 38 73.39 31.85 74.27 31.38 75.14 31.7 76.02 19.58 76.89 22.15 77.77 27.13 78.64 33.54 79.52 36.37 80.39 46.65 81.27 51.45 82.14 61.95 83.02 63.82 83.89 70.61 84.77 72.26 85.64 79.91 86.52 67.05 87.39 71.98 88.26 61.09 89.14 61.78 90.01 52.45 90.89 35.91 91.76 41.05 92.64 36.2 93.51 23.21 94.39 24.73 95.26 21.09 96.14 28.45 97.01 29.89 97.89 40.51 98.76 48.56 99.64 57.24 100.51 57.36 101.39 65.24 102.26 70.15 103.14 73.35 104.01 73.88" id="img-7b17f886-38"/>
      </g>
      <g stroke-width="0.71" fill="#000000" fill-opacity="0.000" class="geometry color_Observation_6" stroke-dasharray="none" stroke="#FF6765" id="img-7b17f886-39">
        <path fill="none" d="M17.41,52.7 L 18.29 56.05 19.16 53.44 20.04 50.1 20.91 55.85 21.79 50.73 22.66 56.38 23.54 38.89 24.41 42.78 25.28 62.14 26.16 62.95 27.03 67.69 27.91 55.71 28.78 71.46 29.66 79.15 30.53 61.1 31.41 76.75 32.28 71.47 33.16 75.49 34.03 63.68 34.91 49.31 35.78 44.79 36.66 50.85 37.53 53.5 38.41 56.49 39.28 51.54 40.16 54.53 41.03 36.65 41.9 46.99 42.78 49.38 43.65 62.04 44.53 65.84 45.4 67.02 46.28 62.88 47.15 63.41 48.03 75.98 48.9 69.14 49.78 79.1 50.65 77.98 51.53 67.15 52.4 62.22 53.28 59.1 54.15 44.7 55.03 54.3 55.9 56.98 56.77 32.9 57.65 46.28 58.52 51 59.4 39.76 60.27 51.09 61.15 49.59 62.02 48.31 62.9 66.44 63.77 58.55 64.65 57.24 65.52 71.83 66.4 58.42 67.27 64.23 68.15 71.33 69.02 61.54 69.9 63.94 70.77 68.11 71.65 57.85 72.52 44.45 73.39 41.95 74.27 48.8 75.14 54.49 76.02 32.16 76.89 35.84 77.77 41.16 78.64 46.53 79.52 42.62 80.39 52.32 81.27 50.76 82.14 61.31 83.02 56.22 83.89 63.38 84.77 63.24 85.64 78.42 86.52 55.87 87.39 71.93 88.26 58.82 89.14 70.55 90.01 63.03 90.89 40.85 91.76 60.84 92.64 58.79 93.51 37.72 94.39 42.45 95.26 33.55 96.14 43.45 97.01 38.73 97.89 50.32 98.76 55.51 99.64 61.74 100.51 51.59 101.39 58.62 102.26 62.18 103.14 65.34 104.01 66.46" id="img-7b17f886-40"/>
      </g>
      <g stroke-width="0.71" fill="#000000" fill-opacity="0.000" class="geometry color_Observation_5" stroke-dasharray="none" stroke="#BEA9FF" id="img-7b17f886-41">
        <path fill="none" d="M17.41,49.47 L 18.29 42.77 19.16 37.32 20.04 33.61 20.91 31.98 21.79 32.57 22.66 35.33 23.54 40.01 24.41 46.19 25.28 53.32 26.16 60.77 27.03 67.87 27.91 73.98 28.78 78.56 29.66 81.2 30.53 81.66 31.41 79.91 32.28 76.09 33.16 70.56 34.03 63.8 34.91 56.42 35.78 49.07 36.66 42.42 37.53 37.06 38.41 33.46 39.28 31.96 40.16 32.67 41.03 35.54 41.9 40.32 42.78 46.57 43.65 53.74 44.53 61.18 45.4 68.24 46.28 74.28 47.15 78.76 48.03 81.28 48.9 81.62 49.78 79.75 50.65 75.83 51.53 70.21 52.4 63.4 53.28 56 54.15 48.68 55.03 42.08 55.9 36.81 56.77 33.32 57.65 31.94 58.52 32.77 59.4 35.76 60.27 40.63 61.15 41.48 62.02 37.61 62.9 59.07 63.77 43.89 64.65 72.26 65.52 60.03 66.4 77.44 67.27 75.86 68.15 74.78 69.02 59.49 69.9 49.99 70.77 61.05 71.65 44.04 72.52 31.34 73.39 22.56 74.27 36.44 75.14 31.93 76.02 10.88 76.89 15.72 77.77 35.99 78.64 40.95 79.52 47.34 80.39 54.57 81.27 62 82.14 68.98 83.02 74.87 83.89 79.15 84.77 81.43 85.64 81.52 86.52 79.4 87.39 75.27 88.26 69.49 89.14 62.59 90.01 55.16 90.89 47.89 91.76 41.42 92.64 36.32 93.51 33.06 94.39 31.92 95.26 33.01 96.14 36.22 97.01 41.28 97.89 47.73 98.76 54.99 99.64 62.41 100.51 69.34 101.39 75.15 102.26 79.33 103.14 81.49 104.01 81.46" id="img-7b17f886-42"/>
      </g>
      <g stroke-width="0.71" fill="#000000" fill-opacity="0.000" class="geometry color_Observation_4" stroke-dasharray="none" stroke="#00B78D" id="img-7b17f886-43">
        <path fill="none" d="M17.41,65.62 L 18.29 62.26 19.16 59.54 20.04 57.68 20.91 56.87 21.79 57.16 22.66 58.54 23.54 60.88 24.41 63.97 25.28 67.54 26.16 71.26 27.03 74.81 27.91 77.87 28.78 80.16 29.66 81.48 30.53 81.71 31.41 80.83 32.28 78.93 33.16 76.16 34.03 72.78 34.91 69.09 35.78 65.42 36.66 62.09 37.53 59.41 38.41 57.61 39.28 56.86 40.16 57.21 41.03 58.65 41.9 61.04 42.78 64.16 43.65 67.75 44.53 71.47 45.4 75 46.28 78.02 47.15 80.26 48.03 81.52 48.9 81.69 49.78 80.75 50.65 78.79 51.53 75.98 52.4 72.58 53.28 68.88 54.15 65.22 55.03 61.92 55.9 59.28 56.77 57.54 57.65 56.85 58.52 57.27 59.4 58.76 60.27 61.2 61.15 53.4 62.02 34.88 62.9 66.62 63.77 25.74 64.65 73.54 65.52 42.51 66.4 73.72 67.27 70.23 68.15 71.07 69.02 46.53 69.9 36.07 70.77 68.49 71.65 45.59 72.52 31.14 73.39 23.38 74.27 58.92 75.14 54.96 76.02 14.74 76.89 22.99 77.77 58.87 78.64 61.36 79.52 64.55 80.39 68.16 81.27 71.88 82.14 75.37 83.02 78.31 83.89 80.45 84.77 81.59 85.64 81.64 86.52 80.58 87.39 78.51 88.26 75.63 89.14 72.17 90.01 68.46 90.89 64.82 91.76 61.59 92.64 59.04 93.51 57.41 94.39 56.84 95.26 57.38 96.14 58.99 97.01 61.52 97.89 64.74 98.76 68.37 99.64 72.09 100.51 75.55 101.39 78.46 102.26 80.54 103.14 81.63 104.01 81.61" id="img-7b17f886-44"/>
      </g>
      <g stroke-width="0.71" fill="#000000" fill-opacity="0.000" class="geometry color_Observation_3" stroke-dasharray="none" stroke="#FF6DAE" id="img-7b17f886-45">
        <path fill="none" d="M17.41,68.84 L 18.29 75.54 19.16 75.66 20.04 74.17 20.91 80.74 21.79 75.33 22.66 79.59 23.54 59.77 24.41 60.56 25.28 76.35 26.16 73.44 27.03 74.64 27.91 59.6 28.78 73.06 29.66 79.43 30.53 61.15 31.41 77.67 32.28 74.31 33.16 81.09 34.03 72.66 34.91 61.98 35.78 61.13 36.66 70.52 37.53 75.85 38.41 80.64 39.28 76.44 40.16 79.07 41.03 59.76 41.9 67.71 42.78 66.97 43.65 76.05 44.53 76.13 45.4 73.78 46.28 66.62 47.15 64.9 48.03 76.22 48.9 69.21 49.78 80.11 50.65 80.95 51.53 72.93 52.4 71.4 53.28 71.97 54.15 61.24 55.03 74.13 55.9 79.46 56.77 57.12 57.65 71.19 58.52 75.49 59.4 62.76 60.27 71.65 61.15 61.52 62.02 45.57 62.9 73.99 63.77 40.41 64.65 58.52 65.52 54.31 66.4 54.7 67.27 58.6 68.15 67.61 69.02 48.58 69.9 50.03 70.77 75.55 71.65 59.39 72.52 44.24 73.39 42.77 74.27 71.28 75.14 77.52 76.02 36.02 76.89 43.11 77.77 64.04 78.64 66.93 79.52 59.83 80.39 65.91 81.27 60.64 82.14 67.7 83.02 59.66 83.89 64.69 84.77 63.41 85.64 78.54 86.52 57.05 87.39 75.17 88.26 64.96 89.14 80.14 90.01 76.32 90.89 57.79 91.76 81.01 92.64 81.51 93.51 62.07 94.39 67.37 95.26 57.93 96.14 66.22 97.01 58.97 97.89 67.33 98.76 68.9 99.64 71.41 100.51 57.8 101.39 61.92 102.26 63.4 103.14 65.47 104.01 66.61" id="img-7b17f886-46"/>
      </g>
      <g stroke-width="0.71" fill="#000000" fill-opacity="0.000" class="geometry color_Observation_2" stroke-dasharray="none" stroke="#D4CA3A" id="img-7b17f886-47">
        <path fill="none" d="M17.41,68.84 L 18.29 75.54 19.16 75.66 20.04 74.17 20.91 80.74 21.79 75.33 22.66 79.59 23.54 59.77 24.41 60.56 25.28 76.35 26.16 73.44 27.03 74.64 27.91 59.6 28.78 73.06 29.66 79.43 30.53 61.15 31.41 77.67 32.28 74.31 33.16 81.09 34.03 72.66 34.91 61.98 35.78 61.13 36.66 70.52 37.53 75.85 38.41 80.64 39.28 76.44 40.16 79.07 41.03 59.76 41.9 67.71 42.78 66.97 43.65 76.05 44.53 76.13 45.4 73.78 46.28 66.62 47.15 64.9 48.03 76.22 48.9 69.21 49.78 80.11 50.65 80.95 51.53 72.93 52.4 71.4 53.28 71.97 54.15 61.24 55.03 74.13 55.9 79.46 56.77 57.12 57.65 71.19 58.52 75.49 59.4 62.76 60.27 71.65 61.15 61.52 62.02 45.57 62.9 73.99 63.77 40.41 64.65 58.52 65.52 54.31 66.4 54.7 67.27 58.6 68.15 67.61 69.02 48.58 69.9 50.03 70.77 75.55 71.65 59.39 72.52 44.24 73.39 42.77 74.27 71.28 75.14 77.52 76.02 36.02 76.89 43.11 77.77 64.04 78.64 66.93 79.52 59.83 80.39 65.91 81.27 60.64 82.14 67.7 83.02 59.66 83.89 64.69 84.77 63.41 85.64 78.54 86.52 57.05 87.39 75.17 88.26 64.96 89.14 80.14 90.01 76.32 90.89 57.79 91.76 81.01 92.64 81.51 93.51 62.07 94.39 67.37 95.26 57.93 96.14 66.22 97.01 58.97 97.89 67.33 98.76 68.9 99.64 71.41 100.51 57.8 101.39 61.92 102.26 63.4 103.14 65.47 104.01 66.61" id="img-7b17f886-48"/>
      </g>
      <g stroke-width="0.71" fill="#000000" fill-opacity="0.000" class="geometry color_Observation_1" stroke-dasharray="none" stroke="#00BFFF" id="img-7b17f886-49">
        <path fill="none" d="M17.41,59.16 L 18.29 59.15 19.16 56.49 20.04 53.89 20.91 56.36 21.79 53.95 22.66 57.46 23.54 49.89 24.41 53.37 25.28 64.84 26.16 67.11 27.03 71.25 27.91 66.79 28.78 75.81 29.66 80.31 30.53 71.41 31.41 78.79 32.28 75.2 33.16 75.83 34.03 68.23 34.91 59.2 35.78 55.1 36.66 56.47 37.53 56.46 38.41 57.05 39.28 54.2 40.16 55.87 41.03 47.65 41.9 54.01 42.78 56.77 43.65 64.89 44.53 68.66 45.4 71.01 46.28 70.45 47.15 71.83 48.03 78.75 48.9 75.42 49.78 79.93 50.65 78.39 51.53 71.57 52.4 67.4 53.28 63.99 54.15 54.96 55.03 58.11 55.9 58.13 56.77 45.22 57.65 51.56 58.52 54.13 59.4 49.26 60.27 56.14 61.15 51.5 62.02 41.59 62.9 66.53 63.77 42.15 64.65 65.39 65.52 57.17 66.4 66.07 67.27 67.23 68.15 71.2 69.02 54.04 69.9 50.01 70.77 68.3 71.65 51.72 72.52 37.79 73.39 32.67 74.27 53.86 75.14 54.72 76.02 23.45 76.89 29.42 77.77 50.02 78.64 53.94 79.52 53.58 80.39 60.24 81.27 61.32 82.14 68.34 83.02 67.27 83.89 71.92 84.77 72.42 85.64 80.03 86.52 68.22 87.39 75.22 88.26 67.22 89.14 71.36 90.01 65.74 90.89 52.84 91.76 61.22 92.64 58.91 93.51 47.56 94.39 49.65 95.26 45.47 96.14 51.22 97.01 50.13 97.89 57.53 98.76 61.94 99.64 66.91 100.51 63.57 101.39 68.54 102.26 71.36 103.14 73.48 104.01 74.03" id="img-7b17f886-50"/>
      </g>
    </g>
  </g>
</g>
  <g class="guide ylabels" font-size="2.82" font-family="'PT Sans Caption','Helvetica Neue','Helvetica',sans-serif" fill="#6C606B" id="img-7b17f886-51">
    <text x="13.54" y="81.76" text-anchor="end" dy="0.35em" id="img-7b17f886-52">0</text>
    <text x="13.54" y="56.84" text-anchor="end" dy="0.35em" id="img-7b17f886-53">1</text>
    <text x="13.54" y="31.92" text-anchor="end" dy="0.35em" id="img-7b17f886-54">2</text>
    <text x="13.54" y="7" text-anchor="end" dy="0.35em" id="img-7b17f886-55">3</text>
  </g>
  <g font-size="3.88" font-family="'PT Sans','Helvetica Neue','Helvetica',sans-serif" fill="#564A55" stroke="#000000" stroke-opacity="0.000" id="img-7b17f886-56">
    <text x="9.11" y="44.38" text-anchor="end" dy="0.35em" id="img-7b17f886-57">Y</text>
  </g>
</g>
<defs>
  <clipPath id="img-7b17f886-23">
  <path d="M14.54,5 L 106.01 5 106.01 83.76 14.54 83.76" />
</clipPath>
</defs>
</svg>
