<?xml version="1.0" encoding="UTF-8"?>
<svg xmlns="http://www.w3.org/2000/svg"
     xmlns:xlink="http://www.w3.org/1999/xlink"
     xmlns:gadfly="http://www.gadflyjl.org/ns"
     version="1.2"
     width="203.2mm" height="101.6mm" viewBox="0 0 203.2 101.6"
     stroke="none"
     fill="#000000"
     stroke-width="0.3"
     font-size="3.88"
>
<g class="plotroot xscalable yscalable" id="img-d69ff317-1">
  <g font-size="3.88" font-family="'PT Sans','Helvetica Neue','Helvetica',sans-serif" fill="#564A55" stroke="#000000" stroke-opacity="0.000" id="img-d69ff317-2">
    <text x="94.04" y="90.81" text-anchor="middle" dy="0.6em">Time</text>
  </g>
  <g class="guide xlabels" font-size="2.82" font-family="'PT Sans Caption','Helvetica Neue','Helvetica',sans-serif" fill="#6C606B" id="img-d69ff317-3">
    <text x="18.89" y="84.76" text-anchor="middle" dy="0.6em">0</text>
    <text x="94.04" y="84.76" text-anchor="middle" dy="0.6em">50</text>
    <text x="169.19" y="84.76" text-anchor="middle" dy="0.6em">100</text>
  </g>
  <g class="guide colorkey" id="img-d69ff317-4">
    <g fill="#4C404B" font-size="2.82" font-family="'PT Sans','Helvetica Neue','Helvetica',sans-serif" id="img-d69ff317-5">
      <text x="175" y="42.57" dy="0.35em" id="img-d69ff317-6" class="color_Signal_1">Signal 1</text>
      <text x="175" y="46.18" dy="0.35em" id="img-d69ff317-7" class="color_Signal_2">Signal 2</text>
      <text x="175" y="49.79" dy="0.35em" id="img-d69ff317-8" class="color_Signal_3">Signal 3</text>
    </g>
    <g stroke="#000000" stroke-opacity="0.000" id="img-d69ff317-9">
      <rect x="172.19" y="41.67" width="1.8" height="1.8" id="img-d69ff317-10" fill="#00BFFF" class="color_Signal_1"/>
      <rect x="172.19" y="45.28" width="1.8" height="1.8" id="img-d69ff317-11" fill="#D4CA3A" class="color_Signal_2"/>
      <rect x="172.19" y="48.89" width="1.8" height="1.8" id="img-d69ff317-12" fill="#FF6DAE" class="color_Signal_3"/>
    </g>
    <g fill="#362A35" font-size="3.88" font-family="'PT Sans','Helvetica Neue','Helvetica',sans-serif" stroke="#000000" stroke-opacity="0.000" id="img-d69ff317-13">
      <text x="172.19" y="38.75" id="img-d69ff317-14">Unmixed signals</text>
    </g>
  </g>
<g clip-path="url(#img-d69ff317-15)">
  <g id="img-d69ff317-16">
    <g pointer-events="visible" opacity="1" fill="#000000" fill-opacity="0.000" stroke="#000000" stroke-opacity="0.000" class="guide background" id="img-d69ff317-17">
      <rect x="16.89" y="5" width="154.31" height="78.76" id="img-d69ff317-18"/>
    </g>
    <g class="guide ygridlines xfixed" stroke-dasharray="0.5,0.5" stroke-width="0.2" stroke="#D0D0E0" id="img-d69ff317-19">
      <path fill="none" d="M16.89,81.76 L 171.19 81.76" id="img-d69ff317-20"/>
      <path fill="none" d="M16.89,44.38 L 171.19 44.38" id="img-d69ff317-21"/>
      <path fill="none" d="M16.89,7 L 171.19 7" id="img-d69ff317-22"/>
    </g>
    <g class="guide xgridlines yfixed" stroke-dasharray="0.5,0.5" stroke-width="0.2" stroke="#D0D0E0" id="img-d69ff317-23">
      <path fill="none" d="M18.89,5 L 18.89 83.76" id="img-d69ff317-24"/>
      <path fill="none" d="M94.04,5 L 94.04 83.76" id="img-d69ff317-25"/>
      <path fill="none" d="M169.19,5 L 169.19 83.76" id="img-d69ff317-26"/>
    </g>
    <g class="plotpanel" id="img-d69ff317-27">
      <g stroke-width="0.71" fill="#000000" fill-opacity="0.000" class="geometry color_Signal_3" stroke-dasharray="none" stroke="#FF6DAE" id="img-d69ff317-28">
        <path fill="none" d="M20.39,81.23 L 21.89 81.15 23.4 81.07 24.9 81.01 26.4 81 27.9 81 29.41 81.05 30.91 81.06 32.41 81.16 33.92 81.31 35.42 81.42 36.92 81.53 38.43 81.57 39.93 81.68 41.43 81.74 42.93 81.69 44.44 81.72 45.94 81.65 47.44 81.59 48.95 81.46 50.45 81.32 51.95 81.2 53.46 81.13 54.96 81.07 56.46 81.03 57.97 80.99 59.47 81.01 60.97 81 62.47 81.09 63.98 81.18 65.48 81.32 66.98 81.43 68.49 81.53 69.99 81.6 71.49 81.66 73 81.73 74.5 81.72 76 81.72 77.51 81.67 79.01 81.56 80.51 81.45 82.01 81.34 83.52 81.2 85.02 81.14 86.52 81.07 88.03 80.95 89.53 80.97 91.03 81 92.54 81.01 94.04 81.11 95.54 64.93 97.05 32.16 98.55 73.94 100.05 8.1 101.55 74.72 103.06 25.49 104.56 70.04 106.06 64.73 107.57 67.44 109.07 33.91 110.57 22.55 112.08 75.69 113.58 47.05 115.08 30.88 116.58 24.12 118.09 80.7 119.59 77.28 121.09 18.42 122.6 29.98 124.1 81.01 125.6 81.1 127.11 81.17 128.61 81.3 130.11 81.4 131.62 81.52 133.12 81.59 134.62 81.67 136.12 81.7 137.63 81.74 139.13 81.65 140.63 81.64 142.14 81.52 143.64 81.46 145.14 81.34 146.65 81.18 148.15 81.15 149.65 81.07 151.16 80.96 152.66 80.96 154.16 80.95 155.66 81.02 157.17 81.08 158.67 81.2 160.17 81.32 161.68 81.43 163.18 81.5 164.68 81.6 166.19 81.67 167.69 81.7 169.19 81.71" id="img-d69ff317-29"/>
      </g>
      <g stroke-width="0.71" fill="#000000" fill-opacity="0.000" class="geometry color_Signal_2" stroke-dasharray="none" stroke="#D4CA3A" id="img-d69ff317-30">
        <path fill="none" d="M20.39,51.86 L 21.89 67.67 23.4 68.01 24.9 64.56 26.4 80.01 27.9 67.3 29.41 77.27 30.91 30.7 32.41 32.48 33.92 69.44 35.42 62.52 36.92 65.23 38.43 29.87 39.93 61.4 41.43 76.31 42.93 33.42 44.44 72.2 45.94 64.35 47.44 80.34 48.95 60.64 50.45 35.68 51.95 33.78 53.46 55.88 54.96 68.47 56.46 79.75 57.97 69.92 59.47 76.09 60.97 30.74 62.47 49.33 63.98 47.52 65.48 68.72 66.98 68.81 68.49 63.22 69.99 46.33 71.49 42.26 73 68.77 74.5 52.33 76 77.91 77.51 79.93 79.01 61.18 80.51 57.69 82.01 59.13 83.52 34.03 85.02 64.38 86.52 76.93 88.03 24.56 89.53 57.6 91.03 67.68 92.54 37.77 94.04 58.57 95.54 48.02 97.05 37.38 98.55 69.93 100.05 44.94 101.55 32.95 103.06 63.35 104.56 27.79 106.06 41.32 107.57 60.26 109.07 43.01 110.57 55.72 112.08 72.14 113.58 57.65 115.08 35.32 116.58 37.39 118.09 58.03 119.59 75.48 121.09 26.21 122.6 33.4 124.1 40.78 125.6 47.5 127.11 30.75 128.61 44.93 130.11 32.47 131.62 48.93 133.12 30.01 134.62 41.74 136.12 38.71 137.63 74.2 139.13 23.81 140.63 66.39 142.14 42.49 143.64 78.2 145.14 69.35 146.65 25.95 148.15 80.53 149.65 81.75 151.16 36.18 152.66 48.64 154.16 26.47 155.66 45.87 157.17 28.81 158.67 48.34 160.17 51.93 161.68 57.72 163.18 25.7 164.68 35.3 166.19 38.71 167.69 43.56 169.19 46.22" id="img-d69ff317-31"/>
      </g>
      <g stroke-width="0.71" fill="#000000" fill-opacity="0.000" class="geometry color_Signal_1" stroke-dasharray="none" stroke="#00BFFF" id="img-d69ff317-32">
        <path fill="none" d="M20.39,46.76 L 21.89 39.45 23.4 33.53 24.9 29.51 26.4 27.71 27.9 28.37 29.41 31.35 30.91 36.52 32.41 43.23 33.92 50.9 35.42 59 36.92 66.7 38.43 73.41 39.93 78.32 41.43 81.16 42.93 81.75 44.44 79.77 45.94 75.64 47.44 69.6 48.95 62.3 50.45 54.33 51.95 46.36 53.46 39.1 54.96 33.25 56.46 29.32 57.97 27.7 59.47 28.46 60.97 31.67 62.47 36.82 63.98 43.61 65.48 51.36 66.98 59.44 68.49 67.12 69.99 73.71 71.49 78.58 73 81.27 74.5 81.67 76 79.58 77.51 75.32 79.01 69.26 80.51 61.87 82.01 53.83 83.52 45.93 85.02 38.71 86.52 32.96 88.03 29.28 89.53 27.7 91.03 28.6 92.54 31.9 94.04 37.15 95.54 44.02 97.05 51.84 98.55 59.88 100.05 67.51 101.55 74.05 103.06 78.72 104.56 81.43 106.06 81.63 107.57 79.43 109.07 75.07 110.57 68.85 112.08 61.4 113.58 53.36 115.08 45.47 116.58 38.37 118.09 32.73 119.59 29.02 121.09 27.72 122.6 28.76 124.1 32.14 125.6 37.52 127.11 44.48 128.61 52.31 130.11 60.41 131.62 67.95 133.12 74.38 134.62 79 136.12 81.49 137.63 81.51 139.13 79.32 140.63 74.75 142.14 68.52 143.64 60.95 145.14 52.9 146.65 45.09 148.15 37.95 149.65 32.42 151.16 28.97 152.66 27.7 154.16 28.93 155.66 32.38 157.17 37.91 158.67 44.87 160.17 52.75 161.68 60.8 163.18 68.39 164.68 74.68 166.19 79.21 167.69 81.55 169.19 81.5" id="img-d69ff317-33"/>
      </g>
    </g>
  </g>
</g>
  <g class="guide ylabels" font-size="2.82" font-family="'PT Sans Caption','Helvetica Neue','Helvetica',sans-serif" fill="#6C606B" id="img-d69ff317-34">
    <text x="15.89" y="81.76" text-anchor="end" dy="0.35em" id="img-d69ff317-35">0.0</text>
    <text x="15.89" y="44.38" text-anchor="end" dy="0.35em" id="img-d69ff317-36">0.5</text>
    <text x="15.89" y="7" text-anchor="end" dy="0.35em" id="img-d69ff317-37">1.0</text>
  </g>
  <g font-size="3.88" font-family="'PT Sans','Helvetica Neue','Helvetica',sans-serif" fill="#564A55" stroke="#000000" stroke-opacity="0.000" id="img-d69ff317-38">
    <text x="9.11" y="44.38" text-anchor="end" dy="0.35em" id="img-d69ff317-39">Y</text>
  </g>
</g>
<defs>
  <clipPath id="img-d69ff317-15">
  <path d="M16.89,5 L 171.19 5 171.19 83.76 16.89 83.76" />
</clipPath>
</defs>
</svg>
