<?xml version="1.0" encoding="UTF-8"?>
<svg xmlns="http://www.w3.org/2000/svg"
     xmlns:xlink="http://www.w3.org/1999/xlink"
     xmlns:gadfly="http://www.gadflyjl.org/ns"
     version="1.2"
     width="152.4mm" height="101.6mm" viewBox="0 0 152.4 101.6"
     stroke="none"
     fill="#000000"
     stroke-width="0.3"
     font-size="3.88"
>
<g class="plotroot xscalable yscalable" id="img-60525134-1">
  <g font-size="3.88" font-family="'PT Sans','Helvetica Neue','Helvetica',sans-serif" fill="#564A55" stroke="#000000" stroke-opacity="0.000" id="img-60525134-2">
    <text x="64.98" y="89.99" text-anchor="middle" dy="0.6em">X</text>
  </g>
  <g class="guide xlabels" font-size="2.82" font-family="'PT Sans Caption','Helvetica Neue','Helvetica',sans-serif" fill="#6C606B" id="img-60525134-3">
    <text x="16.84" y="83.32" text-anchor="middle" dy="0.6em">0</text>
    <text x="64.98" y="83.32" text-anchor="middle" dy="0.6em">50</text>
    <text x="113.12" y="83.32" text-anchor="middle" dy="0.6em">100</text>
  </g>
  <g class="guide colorkey" id="img-60525134-4">
    <g fill="#4C404B" font-size="2.82" font-family="'PT Sans','Helvetica Neue','Helvetica',sans-serif" id="img-60525134-5">
      <text x="118.93" y="34.59" dy="0.35em" id="img-60525134-6" class="color_Observation_1">Observation 1</text>
      <text x="118.93" y="38.22" dy="0.35em" id="img-60525134-7" class="color_Observation_2">Observation 2</text>
      <text x="118.93" y="41.84" dy="0.35em" id="img-60525134-8" class="color_Observation_3">Observation 3</text>
      <text x="118.93" y="45.47" dy="0.35em" id="img-60525134-9" class="color_Observation_4">Observation 4</text>
      <text x="118.93" y="49.1" dy="0.35em" id="img-60525134-10" class="color_Observation_5">Observation 5</text>
      <text x="118.93" y="52.72" dy="0.35em" id="img-60525134-11" class="color_Observation_6">Observation 6</text>
      <text x="118.93" y="56.35" dy="0.35em" id="img-60525134-12" class="color_Observation_7">Observation 7</text>
    </g>
    <g stroke="#000000" stroke-opacity="0.000" id="img-60525134-13">
      <rect x="116.11" y="33.68" width="1.81" height="1.81" id="img-60525134-14" class="color_Observation_1" fill="#00BFFF"/>
      <rect x="116.11" y="37.31" width="1.81" height="1.81" id="img-60525134-15" class="color_Observation_2" fill="#D4CA3A"/>
      <rect x="116.11" y="40.94" width="1.81" height="1.81" id="img-60525134-16" class="color_Observation_3" fill="#FF6DAE"/>
      <rect x="116.11" y="44.56" width="1.81" height="1.81" id="img-60525134-17" class="color_Observation_4" fill="#00B78D"/>
      <rect x="116.11" y="48.19" width="1.81" height="1.81" id="img-60525134-18" class="color_Observation_5" fill="#BEA9FF"/>
      <rect x="116.11" y="51.82" width="1.81" height="1.81" id="img-60525134-19" class="color_Observation_6" fill="#FF6765"/>
      <rect x="116.11" y="55.44" width="1.81" height="1.81" id="img-60525134-20" class="color_Observation_7" fill="#C6C6C6"/>
    </g>
    <g fill="#362A35" font-size="3.88" font-family="'PT Sans','Helvetica Neue','Helvetica',sans-serif" stroke="#000000" stroke-opacity="0.000" id="img-60525134-21">
      <text x="116.11" y="30.77" id="img-60525134-22">Mixed observations</text>
    </g>
  </g>
<g clip-path="url(#img-60525134-23)">
  <g id="img-60525134-24">
    <g pointer-events="visible" opacity="1" fill="#000000" fill-opacity="0.000" stroke="#000000" stroke-opacity="0.000" class="guide background" id="img-60525134-25">
      <rect x="14.84" y="5" width="100.28" height="77.32" id="img-60525134-26"/>
    </g>
    <g class="guide ygridlines xfixed" stroke-dasharray="0.5,0.5" stroke-width="0.2" stroke="#D0D0E0" id="img-60525134-27">
      <path fill="none" d="M14.84,80.32 L 115.11 80.32" id="img-60525134-28"/>
      <path fill="none" d="M14.84,55.88 L 115.11 55.88" id="img-60525134-29"/>
      <path fill="none" d="M14.84,31.44 L 115.11 31.44" id="img-60525134-30"/>
      <path fill="none" d="M14.84,7 L 115.11 7" id="img-60525134-31"/>
    </g>
    <g class="guide xgridlines yfixed" stroke-dasharray="0.5,0.5" stroke-width="0.2" stroke="#D0D0E0" id="img-60525134-32">
      <path fill="none" d="M16.84,5 L 16.84 82.32" id="img-60525134-33"/>
      <path fill="none" d="M64.98,5 L 64.98 82.32" id="img-60525134-34"/>
      <path fill="none" d="M113.12,5 L 113.12 82.32" id="img-60525134-35"/>
    </g>
    <g class="plotpanel" id="img-60525134-36">
      <g stroke-width="0.3" fill="#000000" fill-opacity="0.000" class="geometry color_Observation_7" stroke-dasharray="none" stroke="#C6C6C6" id="img-60525134-37">
        <path fill="none" d="M17.8,42.32 L 18.76 39.03 19.73 33.74 20.69 29.38 21.65 31 22.61 28.92 23.58 33.72 24.54 28.59 25.5 35.04 26.46 49.78 27.43 55.66 28.39 63.2 29.35 61.82 30.32 72.91 31.28 78.63 32.24 70.12 33.2 76.5 34.17 71.11 35.13 69.01 36.09 58.24 37.06 45.77 38.02 38.15 38.98 36.23 39.94 33.58 40.91 32.4 41.87 28.87 42.83 30.86 43.79 24.21 44.76 32.79 45.72 38.56 46.68 50.04 47.65 57.38 48.61 63.15 49.57 65.56 50.53 69.11 51.5 77.13 52.46 74.03 53.42 77.54 54.39 74.1 55.35 64.66 56.31 57.23 57.27 50.26 58.24 37.81 59.2 37.67 60.16 35.1 61.12 20.73 62.09 26.27 63.05 29.21 64.01 25.89 64.98 35.03 65.94 38.94 66.9 43.61 67.86 57.97 68.83 59.27 69.79 63.01 70.75 73.39 71.72 68.58 72.68 71.58 73.64 73.6 74.6 65.84 75.57 62.82 76.53 59.82 77.49 49.34 78.45 37.4 79.42 31.37 80.38 30.91 81.34 31.22 82.31 19.34 83.27 21.85 84.23 26.74 85.19 33.03 86.16 35.81 87.12 45.88 88.08 50.59 89.05 60.89 90.01 62.72 90.97 69.38 91.93 71 92.9 78.5 93.86 65.89 94.82 70.73 95.78 60.05 96.75 60.72 97.71 51.57 98.67 35.35 99.64 40.39 100.6 35.63 101.56 22.9 102.52 24.38 103.49 20.82 104.45 28.04 105.41 29.44 106.38 39.87 107.34 47.76 108.3 56.27 109.26 56.39 110.23 64.11 111.19 68.93 112.15 72.07 113.12 72.59" id="img-60525134-38"/>
      </g>
      <g stroke-width="0.3" fill="#000000" fill-opacity="0.000" class="geometry color_Observation_6" stroke-dasharray="none" stroke="#FF6765" id="img-60525134-39">
        <path fill="none" d="M17.8,51.81 L 18.76 55.1 19.73 52.54 20.69 49.26 21.65 54.91 22.61 49.89 23.58 55.43 24.54 38.28 25.5 42.09 26.46 61.07 27.43 61.87 28.39 66.52 29.35 54.77 30.32 70.22 31.28 77.76 32.24 60.06 33.2 75.4 34.17 70.23 35.13 74.17 36.09 62.59 37.06 48.49 38.02 44.06 38.98 50 39.94 52.61 40.91 55.54 41.87 50.68 42.83 53.61 43.79 36.08 44.76 46.22 45.72 48.56 46.68 60.98 47.65 64.71 48.61 65.87 49.57 61.8 50.53 62.32 51.5 74.65 52.46 67.95 53.42 77.71 54.39 76.61 55.35 65.99 56.31 61.15 57.27 58.09 58.24 43.97 59.2 53.39 60.16 56.02 61.12 32.4 62.09 45.52 63.05 50.15 64.01 39.13 64.98 50.24 65.94 48.77 66.9 47.51 67.86 65.29 68.83 57.56 69.79 56.27 70.75 70.58 71.72 57.42 72.68 63.12 73.64 70.08 74.6 60.49 75.57 62.85 76.53 66.93 77.49 56.87 78.45 43.73 79.42 41.28 80.38 47.99 81.34 53.57 82.31 31.67 83.27 35.29 84.23 40.5 85.19 45.77 86.16 41.93 87.12 51.44 88.08 49.92 89.05 60.26 90.01 55.27 90.97 62.29 91.93 62.16 92.9 77.04 93.86 54.93 94.82 70.68 95.78 57.82 96.75 69.33 97.71 61.95 98.67 40.2 99.64 59.81 100.6 57.79 101.56 37.13 102.52 41.77 103.49 33.04 104.45 42.75 105.41 38.12 106.38 49.48 107.34 54.58 108.3 60.68 109.26 50.73 110.23 57.62 111.19 61.12 112.15 64.22 113.12 65.31" id="img-60525134-40"/>
      </g>
      <g stroke-width="0.3" fill="#000000" fill-opacity="0.000" class="geometry color_Observation_5" stroke-dasharray="none" stroke="#BEA9FF" id="img-60525134-41">
        <path fill="none" d="M17.8,48.65 L 18.76 42.08 19.73 36.73 20.69 33.1 21.65 31.5 22.61 32.08 23.58 34.78 24.54 39.37 25.5 45.43 26.46 52.43 27.43 59.73 28.39 66.69 29.35 72.68 30.32 77.18 31.28 79.77 32.24 80.22 33.2 78.5 34.17 74.76 35.13 69.33 36.09 62.71 37.06 55.47 38.02 48.26 38.98 41.74 39.94 36.48 40.91 32.95 41.87 31.47 42.83 32.17 43.79 34.99 44.76 39.67 45.72 45.81 46.68 52.84 47.65 60.14 48.61 67.06 49.57 72.98 50.53 77.37 51.5 79.85 52.46 80.18 53.42 78.34 54.39 74.5 55.35 68.99 56.31 62.31 57.27 55.05 58.24 47.87 59.2 41.41 60.16 36.23 61.12 32.81 62.09 31.46 63.05 32.28 64.01 35.21 64.98 39.98 65.94 40.81 66.9 37.02 67.86 58.06 68.83 43.18 69.79 71 70.75 59.01 71.72 76.08 72.68 74.53 73.64 73.47 74.6 58.48 75.57 49.16 76.53 60.01 77.49 43.33 78.45 30.87 79.42 22.26 80.38 35.88 81.34 31.45 82.31 10.8 83.27 15.56 84.23 35.43 85.19 40.3 86.16 46.56 87.12 53.65 88.08 60.94 89.05 67.78 90.01 73.56 90.97 77.75 91.93 80 92.9 80.08 93.86 78.01 94.82 73.96 95.78 68.29 96.75 61.51 97.71 54.23 98.67 47.1 99.64 40.75 100.6 35.76 101.56 32.56 102.52 31.44 103.49 32.5 104.45 35.66 105.41 40.62 106.38 46.94 107.34 54.06 108.3 61.34 109.26 68.14 110.23 73.84 111.19 77.93 112.15 80.06 113.12 80.02" id="img-60525134-42"/>
      </g>
      <g stroke-width="0.3" fill="#000000" fill-opacity="0.000" class="geometry color_Observation_4" stroke-dasharray="none" stroke="#00B78D" id="img-60525134-43">
        <path fill="none" d="M17.8,64.48 L 18.76 61.2 19.73 58.52 20.69 56.71 21.65 55.91 22.61 56.2 23.58 57.55 24.54 59.84 25.5 62.87 26.46 66.37 27.43 70.02 28.39 73.5 29.35 76.5 30.32 78.75 31.28 80.04 32.24 80.27 33.2 79.41 34.17 77.54 35.13 74.82 36.09 71.51 37.06 67.89 38.02 64.29 38.98 61.03 39.94 58.4 40.91 56.63 41.87 55.89 42.83 56.24 43.79 57.65 44.76 59.99 45.72 63.06 46.68 66.58 47.65 70.23 48.61 73.69 49.57 76.65 50.53 78.84 51.5 80.08 52.46 80.25 53.42 79.33 54.39 77.41 55.35 74.65 56.31 71.31 57.27 67.68 58.24 64.09 59.2 60.86 60.16 58.27 61.12 56.56 62.09 55.89 63.05 56.3 64.01 57.76 64.98 60.15 65.94 52.51 66.9 34.34 67.86 65.47 68.83 25.38 69.79 72.26 70.75 41.82 71.72 72.43 72.68 69.01 73.64 69.83 74.6 45.76 75.57 35.51 76.53 67.3 77.49 44.84 78.45 30.67 79.42 23.06 80.38 57.92 81.34 54.03 82.31 14.59 83.27 22.69 84.23 57.87 85.19 60.31 86.16 63.44 87.12 66.98 88.08 70.63 89.05 74.05 90.01 76.94 90.97 79.03 91.93 80.16 92.9 80.2 93.86 79.16 94.82 77.14 95.78 74.3 96.75 70.91 97.71 67.27 98.67 63.71 99.64 60.53 100.6 58.04 101.56 56.44 102.52 55.88 103.49 56.41 104.45 57.99 105.41 60.47 106.38 63.63 107.34 67.19 108.3 70.83 109.26 74.23 110.23 77.08 111.19 79.12 112.15 80.19 113.12 80.17" id="img-60525134-44"/>
      </g>
      <g stroke-width="0.3" fill="#000000" fill-opacity="0.000" class="geometry color_Observation_3" stroke-dasharray="none" stroke="#FF6DAE" id="img-60525134-45">
        <path fill="none" d="M17.8,67.64 L 18.76 74.22 19.73 74.33 20.69 72.87 21.65 79.32 22.61 74.01 23.58 78.19 24.54 58.75 25.5 59.53 26.46 75.02 27.43 72.16 28.39 73.33 29.35 58.58 30.32 71.79 31.28 78.03 32.24 60.11 33.2 76.31 34.17 73.01 35.13 79.66 36.09 71.39 37.06 60.92 38.02 60.09 38.98 69.29 39.94 74.52 40.91 79.22 41.87 75.1 42.83 77.68 43.79 58.74 44.76 66.54 45.72 65.82 46.68 74.72 47.65 74.79 48.61 72.49 49.57 65.47 50.53 63.79 51.5 74.88 52.46 68.01 53.42 78.7 54.39 79.52 55.35 71.65 56.31 70.16 57.27 70.72 58.24 60.19 59.2 72.84 60.16 78.06 61.12 56.15 62.09 69.95 63.05 74.17 64.01 61.69 64.98 70.4 65.94 60.47 66.9 44.83 67.86 72.7 68.83 39.76 69.79 57.53 70.75 53.39 71.72 53.78 72.68 57.61 73.64 66.45 74.6 47.78 75.57 49.2 76.53 74.23 77.49 58.38 78.45 43.53 79.42 42.08 80.38 70.04 81.34 76.16 82.31 35.46 83.27 42.42 84.23 62.94 85.19 65.78 86.16 58.81 87.12 64.78 88.08 59.61 89.05 66.53 90.01 58.65 90.97 63.58 91.93 62.32 92.9 77.16 93.86 56.08 94.82 73.86 95.78 63.84 96.75 78.73 97.71 74.99 98.67 56.81 99.64 79.59 100.6 80.07 101.56 61.01 102.52 66.21 103.49 56.94 104.45 65.07 105.41 57.97 106.38 66.17 107.34 67.71 108.3 70.16 109.26 56.82 110.23 60.86 111.19 62.31 112.15 64.35 113.12 65.46" id="img-60525134-46"/>
      </g>
      <g stroke-width="0.3" fill="#000000" fill-opacity="0.000" class="geometry color_Observation_2" stroke-dasharray="none" stroke="#D4CA3A" id="img-60525134-47">
        <path fill="none" d="M17.8,67.64 L 18.76 74.22 19.73 74.33 20.69 72.87 21.65 79.32 22.61 74.01 23.58 78.19 24.54 58.75 25.5 59.53 26.46 75.02 27.43 72.16 28.39 73.33 29.35 58.58 30.32 71.79 31.28 78.03 32.24 60.11 33.2 76.31 34.17 73.01 35.13 79.66 36.09 71.39 37.06 60.92 38.02 60.09 38.98 69.29 39.94 74.52 40.91 79.22 41.87 75.1 42.83 77.68 43.79 58.74 44.76 66.54 45.72 65.82 46.68 74.72 47.65 74.79 48.61 72.49 49.57 65.47 50.53 63.79 51.5 74.88 52.46 68.01 53.42 78.7 54.39 79.52 55.35 71.65 56.31 70.16 57.27 70.72 58.24 60.19 59.2 72.84 60.16 78.06 61.12 56.15 62.09 69.95 63.05 74.17 64.01 61.69 64.98 70.4 65.94 60.47 66.9 44.83 67.86 72.7 68.83 39.76 69.79 57.53 70.75 53.39 71.72 53.78 72.68 57.61 73.64 66.45 74.6 47.78 75.57 49.2 76.53 74.23 77.49 58.38 78.45 43.53 79.42 42.08 80.38 70.04 81.34 76.16 82.31 35.46 83.27 42.42 84.23 62.94 85.19 65.78 86.16 58.81 87.12 64.78 88.08 59.61 89.05 66.53 90.01 58.65 90.97 63.58 91.93 62.32 92.9 77.16 93.86 56.08 94.82 73.86 95.78 63.84 96.75 78.73 97.71 74.99 98.67 56.81 99.64 79.59 100.6 80.07 101.56 61.01 102.52 66.21 103.49 56.94 104.45 65.07 105.41 57.97 106.38 66.17 107.34 67.71 108.3 70.16 109.26 56.82 110.23 60.86 111.19 62.31 112.15 64.35 113.12 65.46" id="img-60525134-48"/>
      </g>
      <g stroke-width="0.3" fill="#000000" fill-opacity="0.000" class="geometry color_Observation_1" stroke-dasharray="none" stroke="#00BFFF" id="img-60525134-49">
        <path fill="none" d="M17.8,58.15 L 18.76 58.15 19.73 55.53 20.69 52.99 21.65 55.41 22.61 53.04 23.58 56.49 24.54 49.06 25.5 52.48 26.46 63.72 27.43 65.95 28.39 70.01 29.35 65.63 30.32 74.48 31.28 78.9 32.24 70.16 33.2 77.41 34.17 73.88 35.13 74.5 36.09 67.05 37.06 58.19 38.02 54.18 38.98 55.52 39.94 55.5 40.91 56.09 41.87 53.29 42.83 54.93 43.79 46.87 44.76 53.11 45.72 55.81 46.68 63.78 47.65 67.47 48.61 69.78 49.57 69.22 50.53 70.58 51.5 77.37 52.46 74.1 53.42 78.52 54.39 77.01 55.35 70.32 56.31 66.23 57.27 62.89 58.24 54.03 59.2 57.12 60.16 57.15 61.12 44.48 62.09 50.7 63.05 53.22 64.01 48.45 64.98 55.19 65.94 50.64 66.9 40.93 67.86 65.38 68.83 41.47 69.79 64.27 70.75 56.2 71.72 64.93 72.68 66.07 73.64 69.96 74.6 53.13 75.57 49.18 76.53 67.12 77.49 50.85 78.45 37.2 79.42 32.17 80.38 52.96 81.34 53.8 82.31 23.13 83.27 28.99 84.23 49.19 85.19 53.04 86.16 52.68 87.12 59.21 88.08 60.27 89.05 67.15 90.01 66.1 90.97 70.66 91.93 71.16 92.9 78.62 93.86 67.04 94.82 73.91 95.78 66.06 96.75 70.12 97.71 64.61 98.67 51.95 99.64 60.17 100.6 57.91 101.56 46.78 102.52 48.82 103.49 44.72 104.45 50.37 105.41 49.29 106.38 56.55 107.34 60.88 108.3 65.75 109.26 62.48 110.23 67.35 111.19 70.12 112.15 72.2 113.12 72.74" id="img-60525134-50"/>
      </g>
    </g>
  </g>
</g>
  <g class="guide ylabels" font-size="2.82" font-family="'PT Sans Caption','Helvetica Neue','Helvetica',sans-serif" fill="#6C606B" id="img-60525134-51">
    <text x="13.84" y="80.32" text-anchor="end" dy="0.35em" id="img-60525134-52">0</text>
    <text x="13.84" y="55.88" text-anchor="end" dy="0.35em" id="img-60525134-53">1</text>
    <text x="13.84" y="31.44" text-anchor="end" dy="0.35em" id="img-60525134-54">2</text>
    <text x="13.84" y="7" text-anchor="end" dy="0.35em" id="img-60525134-55">3</text>
  </g>
  <g font-size="3.88" font-family="'PT Sans','Helvetica Neue','Helvetica',sans-serif" fill="#564A55" stroke="#000000" stroke-opacity="0.000" id="img-60525134-56">
    <text x="9.16" y="43.66" text-anchor="end" dy="0.35em" id="img-60525134-57">Y</text>
  </g>
</g>
<defs>
  <clipPath id="img-60525134-23">
  <path d="M14.84,5 L 115.11 5 115.11 82.32 14.84 82.32" />
</clipPath>
</defs>
</svg>
