<?xml version="1.0" encoding="UTF-8"?>
<svg xmlns="http://www.w3.org/2000/svg"
     xmlns:xlink="http://www.w3.org/1999/xlink"
     xmlns:gadfly="http://www.gadflyjl.org/ns"
     version="1.2"
     width="152.4mm" height="101.6mm" viewBox="0 0 152.4 101.6"
     stroke="none"
     fill="#000000"
     stroke-width="0.3"
     font-size="3.88"
>
<g class="plotroot xscalable yscalable" id="img-00ae9e7a-1">
  <g font-size="3.88" font-family="'PT Sans','Helvetica Neue','Helvetica',sans-serif" fill="#564A55" stroke="#000000" stroke-opacity="0.000" id="img-00ae9e7a-2">
    <text x="60.17" y="89.99" text-anchor="middle" dy="0.6em">X</text>
  </g>
  <g class="guide xlabels" font-size="2.82" font-family="'PT Sans Caption','Helvetica Neue','Helvetica',sans-serif" fill="#6C606B" id="img-00ae9e7a-3">
    <text x="16.84" y="83.32" text-anchor="middle" dy="0.6em">0</text>
    <text x="60.17" y="83.32" text-anchor="middle" dy="0.6em">50</text>
    <text x="103.51" y="83.32" text-anchor="middle" dy="0.6em">100</text>
  </g>
  <g class="guide colorkey" id="img-00ae9e7a-4">
    <g fill="#4C404B" font-size="2.82" font-family="'PT Sans','Helvetica Neue','Helvetica',sans-serif" id="img-00ae9e7a-5">
      <text x="109.32" y="40.03" dy="0.35em" id="img-00ae9e7a-6" class="color_Signal_1">Signal 1</text>
      <text x="109.32" y="43.66" dy="0.35em" id="img-00ae9e7a-7" class="color_Signal_2">Signal 2</text>
      <text x="109.32" y="47.28" dy="0.35em" id="img-00ae9e7a-8" class="color_Signal_3">Signal 3</text>
      <text x="109.32" y="50.91" dy="0.35em" id="img-00ae9e7a-9" class="color_Signal_4">Signal 4</text>
    </g>
    <g stroke="#000000" stroke-opacity="0.000" id="img-00ae9e7a-10">
      <rect x="106.51" y="39.12" width="1.81" height="1.81" id="img-00ae9e7a-11" class="color_Signal_1" fill="#00BFFF"/>
      <rect x="106.51" y="42.75" width="1.81" height="1.81" id="img-00ae9e7a-12" class="color_Signal_2" fill="#D4CA3A"/>
      <rect x="106.51" y="46.38" width="1.81" height="1.81" id="img-00ae9e7a-13" class="color_Signal_3" fill="#FF6DAE"/>
      <rect x="106.51" y="50" width="1.81" height="1.81" id="img-00ae9e7a-14" class="color_Signal_4" fill="#00B78D"/>
    </g>
    <g fill="#362A35" font-size="3.88" font-family="'PT Sans','Helvetica Neue','Helvetica',sans-serif" stroke="#000000" stroke-opacity="0.000" id="img-00ae9e7a-15">
      <text x="106.51" y="36.21" id="img-00ae9e7a-16">Reproduced observations</text>
    </g>
  </g>
<g clip-path="url(#img-00ae9e7a-17)">
  <g id="img-00ae9e7a-18">
    <g pointer-events="visible" opacity="1" fill="#000000" fill-opacity="0.000" stroke="#000000" stroke-opacity="0.000" class="guide background" id="img-00ae9e7a-19">
      <rect x="14.84" y="5" width="90.67" height="77.32" id="img-00ae9e7a-20"/>
    </g>
    <g class="guide ygridlines xfixed" stroke-dasharray="0.5,0.5" stroke-width="0.2" stroke="#D0D0E0" id="img-00ae9e7a-21">
      <path fill="none" d="M14.84,43.66 L 105.51 43.66" id="img-00ae9e7a-22"/>
    </g>
    <g class="guide xgridlines yfixed" stroke-dasharray="0.5,0.5" stroke-width="0.2" stroke="#D0D0E0" id="img-00ae9e7a-23">
      <path fill="none" d="M16.84,5 L 16.84 82.32" id="img-00ae9e7a-24"/>
      <path fill="none" d="M60.17,5 L 60.17 82.32" id="img-00ae9e7a-25"/>
      <path fill="none" d="M103.51,5 L 103.51 82.32" id="img-00ae9e7a-26"/>
    </g>
    <g class="plotpanel" id="img-00ae9e7a-27">
      <g stroke-width="0.3" fill="#000000" fill-opacity="0.000" class="geometry color_Signal_4" stroke-dasharray="none" stroke="#00B78D" id="img-00ae9e7a-28">
        <path fill="none" d="M17.7,43.66 L 18.57 43.66 19.44 43.66 20.3 43.66 21.17 43.66 22.04 43.66 22.9 43.66 23.77 43.66 24.64 43.66 25.5 43.66 26.37 43.66 27.24 43.66 28.1 43.66 28.97 43.66 29.84 43.66 30.7 43.66 31.57 43.66 32.44 43.66 33.3 43.66 34.17 43.66 35.04 43.66 35.9 43.66 36.77 43.66 37.64 43.66 38.5 43.66 39.37 43.66 40.24 43.66 41.1 43.66 41.97 43.66 42.84 43.66 43.7 43.66 44.57 43.66 45.44 43.66 46.31 43.66 47.17 43.66 48.04 43.66 48.91 43.66 49.77 43.66 50.64 43.66 51.51 43.66 52.37 43.66 53.24 43.66 54.11 43.66 54.97 43.66 55.84 43.66 56.71 43.66 57.57 43.66 58.44 43.66 59.31 43.66 60.17 43.66 61.04 43.66 61.91 43.66 62.77 43.66 63.64 43.66 64.51 43.66 65.37 43.66 66.24 43.66 67.11 43.66 67.97 43.66 68.84 43.66 69.71 43.66 70.57 43.66 71.44 43.66 72.31 43.66 73.17 43.66 74.04 43.66 74.91 43.66 75.77 43.66 76.64 43.66 77.51 43.66 78.37 43.66 79.24 43.66 80.11 43.66 80.97 43.66 81.84 43.66 82.71 43.66 83.57 43.66 84.44 43.66 85.31 43.66 86.17 43.66 87.04 43.66 87.91 43.66 88.77 43.66 89.64 43.66 90.51 43.66 91.37 43.66 92.24 43.66 93.11 43.66 93.97 43.66 94.84 43.66 95.71 43.66 96.57 43.66 97.44 43.66 98.31 43.66 99.17 43.66 100.04 43.66 100.91 43.66 101.77 43.66 102.64 43.66 103.51 43.66" id="img-00ae9e7a-29"/>
      </g>
      <g stroke-width="0.3" fill="#000000" fill-opacity="0.000" class="geometry color_Signal_3" stroke-dasharray="none" stroke="#FF6DAE" id="img-00ae9e7a-30">
        <path fill="none" d="M17.7,43.66 L 18.57 43.66 19.44 43.66 20.3 43.66 21.17 43.66 22.04 43.66 22.9 43.66 23.77 43.66 24.64 43.66 25.5 43.66 26.37 43.66 27.24 43.66 28.1 43.66 28.97 43.66 29.84 43.66 30.7 43.66 31.57 43.66 32.44 43.66 33.3 43.66 34.17 43.66 35.04 43.66 35.9 43.66 36.77 43.66 37.64 43.66 38.5 43.66 39.37 43.66 40.24 43.66 41.1 43.66 41.97 43.66 42.84 43.66 43.7 43.66 44.57 43.66 45.44 43.66 46.31 43.66 47.17 43.66 48.04 43.66 48.91 43.66 49.77 43.66 50.64 43.66 51.51 43.66 52.37 43.66 53.24 43.66 54.11 43.66 54.97 43.66 55.84 43.66 56.71 43.66 57.57 43.66 58.44 43.66 59.31 43.66 60.17 43.66 61.04 43.66 61.91 43.66 62.77 43.66 63.64 43.66 64.51 43.66 65.37 43.66 66.24 43.66 67.11 43.66 67.97 43.66 68.84 43.66 69.71 43.66 70.57 43.66 71.44 43.66 72.31 43.66 73.17 43.66 74.04 43.66 74.91 43.66 75.77 43.66 76.64 43.66 77.51 43.66 78.37 43.66 79.24 43.66 80.11 43.66 80.97 43.66 81.84 43.66 82.71 43.66 83.57 43.66 84.44 43.66 85.31 43.66 86.17 43.66 87.04 43.66 87.91 43.66 88.77 43.66 89.64 43.66 90.51 43.66 91.37 43.66 92.24 43.66 93.11 43.66 93.97 43.66 94.84 43.66 95.71 43.66 96.57 43.66 97.44 43.66 98.31 43.66 99.17 43.66 100.04 43.66 100.91 43.66 101.77 43.66 102.64 43.66 103.51 43.66" id="img-00ae9e7a-31"/>
      </g>
      <g stroke-width="0.3" fill="#000000" fill-opacity="0.000" class="geometry color_Signal_2" stroke-dasharray="none" stroke="#D4CA3A" id="img-00ae9e7a-32">
        <path fill="none" d="M17.7,43.66 L 18.57 43.66 19.44 43.66 20.3 43.66 21.17 43.66 22.04 43.66 22.9 43.66 23.77 43.66 24.64 43.66 25.5 43.66 26.37 43.66 27.24 43.66 28.1 43.66 28.97 43.66 29.84 43.66 30.7 43.66 31.57 43.66 32.44 43.66 33.3 43.66 34.17 43.66 35.04 43.66 35.9 43.66 36.77 43.66 37.64 43.66 38.5 43.66 39.37 43.66 40.24 43.66 41.1 43.66 41.97 43.66 42.84 43.66 43.7 43.66 44.57 43.66 45.44 43.66 46.31 43.66 47.17 43.66 48.04 43.66 48.91 43.66 49.77 43.66 50.64 43.66 51.51 43.66 52.37 43.66 53.24 43.66 54.11 43.66 54.97 43.66 55.84 43.66 56.71 43.66 57.57 43.66 58.44 43.66 59.31 43.66 60.17 43.66 61.04 43.66 61.91 43.66 62.77 43.66 63.64 43.66 64.51 43.66 65.37 43.66 66.24 43.66 67.11 43.66 67.97 43.66 68.84 43.66 69.71 43.66 70.57 43.66 71.44 43.66 72.31 43.66 73.17 43.66 74.04 43.66 74.91 43.66 75.77 43.66 76.64 43.66 77.51 43.66 78.37 43.66 79.24 43.66 80.11 43.66 80.97 43.66 81.84 43.66 82.71 43.66 83.57 43.66 84.44 43.66 85.31 43.66 86.17 43.66 87.04 43.66 87.91 43.66 88.77 43.66 89.64 43.66 90.51 43.66 91.37 43.66 92.24 43.66 93.11 43.66 93.97 43.66 94.84 43.66 95.71 43.66 96.57 43.66 97.44 43.66 98.31 43.66 99.17 43.66 100.04 43.66 100.91 43.66 101.77 43.66 102.64 43.66 103.51 43.66" id="img-00ae9e7a-33"/>
      </g>
      <g stroke-width="0.3" fill="#000000" fill-opacity="0.000" class="geometry color_Signal_1" stroke-dasharray="none" stroke="#00BFFF" id="img-00ae9e7a-34">
        <path fill="none" d="M17.7,43.66 L 18.57 43.66 19.44 43.66 20.3 43.66 21.17 43.66 22.04 43.66 22.9 43.66 23.77 43.66 24.64 43.66 25.5 43.66 26.37 43.66 27.24 43.66 28.1 43.66 28.97 43.66 29.84 43.66 30.7 43.66 31.57 43.66 32.44 43.66 33.3 43.66 34.17 43.66 35.04 43.66 35.9 43.66 36.77 43.66 37.64 43.66 38.5 43.66 39.37 43.66 40.24 43.66 41.1 43.66 41.97 43.66 42.84 43.66 43.7 43.66 44.57 43.66 45.44 43.66 46.31 43.66 47.17 43.66 48.04 43.66 48.91 43.66 49.77 43.66 50.64 43.66 51.51 43.66 52.37 43.66 53.24 43.66 54.11 43.66 54.97 43.66 55.84 43.66 56.71 43.66 57.57 43.66 58.44 43.66 59.31 43.66 60.17 43.66 61.04 43.66 61.91 43.66 62.77 43.66 63.64 43.66 64.51 43.66 65.37 43.66 66.24 43.66 67.11 43.66 67.97 43.66 68.84 43.66 69.71 43.66 70.57 43.66 71.44 43.66 72.31 43.66 73.17 43.66 74.04 43.66 74.91 43.66 75.77 43.66 76.64 43.66 77.51 43.66 78.37 43.66 79.24 43.66 80.11 43.66 80.97 43.66 81.84 43.66 82.71 43.66 83.57 43.66 84.44 43.66 85.31 43.66 86.17 43.66 87.04 43.66 87.91 43.66 88.77 43.66 89.64 43.66 90.51 43.66 91.37 43.66 92.24 43.66 93.11 43.66 93.97 43.66 94.84 43.66 95.71 43.66 96.57 43.66 97.44 43.66 98.31 43.66 99.17 43.66 100.04 43.66 100.91 43.66 101.77 43.66 102.64 43.66 103.51 43.66" id="img-00ae9e7a-35"/>
      </g>
    </g>
  </g>
</g>
  <g class="guide ylabels" font-size="2.82" font-family="'PT Sans Caption','Helvetica Neue','Helvetica',sans-serif" fill="#6C606B" id="img-00ae9e7a-36">
    <text x="13.84" y="43.66" text-anchor="end" dy="0.35em" id="img-00ae9e7a-37">0</text>
  </g>
  <g font-size="3.88" font-family="'PT Sans','Helvetica Neue','Helvetica',sans-serif" fill="#564A55" stroke="#000000" stroke-opacity="0.000" id="img-00ae9e7a-38">
    <text x="9.16" y="43.66" text-anchor="end" dy="0.35em" id="img-00ae9e7a-39">Y</text>
  </g>
</g>
<defs>
  <clipPath id="img-00ae9e7a-17">
  <path d="M14.84,5 L 105.51 5 105.51 82.32 14.84 82.32" />
</clipPath>
</defs>
</svg>
