<?xml version="1.0" encoding="UTF-8"?>
<svg xmlns="http://www.w3.org/2000/svg"
     xmlns:xlink="http://www.w3.org/1999/xlink"
     xmlns:gadfly="http://www.gadflyjl.org/ns"
     version="1.2"
     width="152.4mm" height="101.6mm" viewBox="0 0 152.4 101.6"
     stroke="none"
     fill="#000000"
     stroke-width="0.3"
     font-size="3.88"
>
<g class="plotroot xscalable yscalable" id="img-ad81fe11-1">
  <g font-size="3.88" font-family="'PT Sans','Helvetica Neue','Helvetica',sans-serif" fill="#564A55" stroke="#000000" stroke-opacity="0.000" id="img-ad81fe11-2">
    <text x="69.37" y="90.88" text-anchor="middle" dy="0.6em">X</text>
  </g>
  <g class="guide xlabels" font-size="2.82" font-family="'PT Sans Caption','Helvetica Neue','Helvetica',sans-serif" fill="#6C606B" id="img-ad81fe11-3">
    <text x="18.89" y="84.83" text-anchor="middle" dy="0.6em">0</text>
    <text x="69.37" y="84.83" text-anchor="middle" dy="0.6em">50</text>
    <text x="119.86" y="84.83" text-anchor="middle" dy="0.6em">100</text>
  </g>
  <g class="guide colorkey" id="img-ad81fe11-4">
    <g fill="#4C404B" font-size="2.82" font-family="'PT Sans','Helvetica Neue','Helvetica',sans-serif" id="img-ad81fe11-5">
      <text x="125.67" y="42.61" dy="0.35em" id="img-ad81fe11-6" class="color_Signal_1">Signal 1</text>
      <text x="125.67" y="46.22" dy="0.35em" id="img-ad81fe11-7" class="color_Signal_2">Signal 2</text>
      <text x="125.67" y="49.83" dy="0.35em" id="img-ad81fe11-8" class="color_Signal_3">Signal 3</text>
    </g>
    <g stroke="#000000" stroke-opacity="0.000" id="img-ad81fe11-9">
      <rect x="122.86" y="41.71" width="1.8" height="1.8" id="img-ad81fe11-10" fill="#00BFFF" class="color_Signal_1"/>
      <rect x="122.86" y="45.32" width="1.8" height="1.8" id="img-ad81fe11-11" fill="#D4CA3A" class="color_Signal_2"/>
      <rect x="122.86" y="48.93" width="1.8" height="1.8" id="img-ad81fe11-12" fill="#FF6DAE" class="color_Signal_3"/>
    </g>
    <g fill="#362A35" font-size="3.88" font-family="'PT Sans','Helvetica Neue','Helvetica',sans-serif" stroke="#000000" stroke-opacity="0.000" id="img-ad81fe11-13">
      <text x="122.86" y="38.8" id="img-ad81fe11-14">Original signals</text>
    </g>
  </g>
<g clip-path="url(#img-ad81fe11-15)">
  <g id="img-ad81fe11-16">
    <g pointer-events="visible" opacity="1" fill="#000000" fill-opacity="0.000" stroke="#000000" stroke-opacity="0.000" class="guide background" id="img-ad81fe11-17">
      <rect x="16.89" y="5" width="104.98" height="78.83" id="img-ad81fe11-18"/>
    </g>
    <g class="guide ygridlines xfixed" stroke-dasharray="0.5,0.5" stroke-width="0.2" stroke="#D0D0E0" id="img-ad81fe11-19">
      <path fill="none" d="M16.89,81.83 L 121.86 81.83" id="img-ad81fe11-20"/>
      <path fill="none" d="M16.89,44.42 L 121.86 44.42" id="img-ad81fe11-21"/>
      <path fill="none" d="M16.89,7 L 121.86 7" id="img-ad81fe11-22"/>
    </g>
    <g class="guide xgridlines yfixed" stroke-dasharray="0.5,0.5" stroke-width="0.2" stroke="#D0D0E0" id="img-ad81fe11-23">
      <path fill="none" d="M18.89,5 L 18.89 83.83" id="img-ad81fe11-24"/>
      <path fill="none" d="M69.37,5 L 69.37 83.83" id="img-ad81fe11-25"/>
      <path fill="none" d="M119.86,5 L 119.86 83.83" id="img-ad81fe11-26"/>
    </g>
    <g class="plotpanel" id="img-ad81fe11-27">
      <g stroke-width="0.71" fill="#000000" fill-opacity="0.000" class="geometry color_Signal_3" stroke-dasharray="none" stroke="#FF6DAE" id="img-ad81fe11-28">
        <path fill="none" d="M19.9,43.04 L 20.91 63.17 21.92 63.52 22.92 59.04 23.93 78.78 24.94 62.53 25.95 75.34 26.96 15.8 27.97 18.18 28.98 65.61 29.99 56.87 31 60.45 32.01 15.29 33.02 55.72 34.03 74.85 35.04 19.96 36.05 69.57 37.06 59.46 38.07 79.84 39.08 54.52 40.09 22.44 41.1 19.9 42.11 48.07 43.12 64.1 44.13 78.47 45.14 65.88 46.15 73.78 47.16 15.78 48.17 39.65 49.18 37.44 50.19 64.69 51.2 64.93 52.21 57.88 53.22 36.37 54.23 31.23 55.24 65.21 56.25 44.16 57.26 76.88 58.27 79.4 59.28 55.31 60.29 50.73 61.3 52.45 62.31 20.21 63.32 58.95 64.33 74.92 65.34 7.83 66.34 50.1 67.35 63.02 68.36 24.79 69.37 51.49 70.38 37.5 71.39 22.84 72.4 66.11 73.41 31.89 74.42 18.99 75.43 56.23 76.44 12.34 77.45 29.46 78.46 53.78 79.47 30.45 80.48 46.21 81.49 69.02 82.5 49.34 83.51 20.06 84.52 22.37 85.53 50.72 86.54 72.88 87.55 7.7 88.56 17.33 89.57 28.64 90.58 37.32 91.59 15.98 92.6 34.25 93.61 18.42 94.62 39.61 95.63 15.49 96.64 30.58 97.65 26.73 98.66 72.16 99.67 7.62 100.68 62.06 101.69 31.38 102.7 76.97 103.71 65.52 104.72 9.85 105.73 79.6 106.74 81.08 107.75 22.71 108.75 38.64 109.76 10.27 110.77 35.16 111.78 13.41 112.79 38.51 113.8 43.22 114.81 50.75 115.82 9.88 116.83 22.27 117.84 26.7 118.85 32.93 119.86 36.34" id="img-ad81fe11-29"/>
      </g>
      <g stroke-width="0.71" fill="#000000" fill-opacity="0.000" class="geometry color_Signal_2" stroke-dasharray="none" stroke="#D4CA3A" id="img-ad81fe11-30">
        <path fill="none" d="M19.9,33.36 L 20.91 23.29 21.92 15.11 22.92 9.54 23.93 7.09 24.94 7.98 25.95 12.12 26.96 19.14 27.97 28.43 28.98 39.14 29.99 50.32 31 60.98 32.01 70.15 33.02 77.03 34.03 80.99 35.04 81.69 36.05 79.06 37.06 73.33 38.07 65.02 39.08 54.87 40.09 43.79 41.1 32.76 42.11 22.77 43.12 14.72 44.13 9.32 45.14 7.05 46.15 8.13 47.16 12.44 48.17 19.61 49.18 29 50.19 39.76 51.2 50.94 52.21 61.54 53.22 70.6 54.23 77.33 55.24 81.12 56.25 81.63 57.26 78.82 58.27 72.93 59.28 64.49 60.29 54.27 61.3 43.16 62.31 32.16 63.32 22.26 64.33 14.34 65.34 9.11 66.34 7.03 67.35 8.28 68.36 12.77 69.37 20.09 70.38 29.57 71.39 40.39 72.4 51.56 73.41 62.09 74.42 71.05 75.43 77.63 76.44 81.24 77.45 81.56 78.46 78.56 79.47 72.52 80.48 63.96 81.49 53.66 82.5 42.53 83.51 31.57 84.52 21.76 85.53 13.97 86.54 8.9 87.55 7.01 88.56 8.45 89.57 13.11 90.58 20.57 91.59 30.15 92.6 41.01 93.61 52.18 94.62 62.65 95.63 71.49 96.64 77.91 97.65 81.34 98.66 81.48 99.67 78.3 100.68 72.1 101.69 63.42 102.7 53.05 103.71 41.9 104.72 30.98 105.73 21.26 106.74 13.61 107.75 8.71 108.75 7 109.76 8.63 110.77 13.46 111.78 21.05 112.79 30.74 113.8 41.64 114.81 52.79 115.82 63.19 116.83 71.92 117.84 78.19 118.85 81.44 119.86 81.39" id="img-ad81fe11-31"/>
      </g>
      <g stroke-width="0.71" fill="#000000" fill-opacity="0.000" class="geometry color_Signal_1" stroke-dasharray="none" stroke="#00BFFF" id="img-ad81fe11-32">
        <path fill="none" d="M19.9,42.55 L 20.91 40.68 21.92 38.83 22.92 36.98 23.93 35.16 24.94 33.36 25.95 31.59 26.96 29.85 27.97 28.14 28.98 26.48 29.99 24.86 31 23.29 32.01 21.77 33.02 20.31 34.03 18.91 35.04 17.58 36.05 16.31 37.06 15.11 38.07 13.98 39.08 12.93 40.09 11.96 41.1 11.07 42.11 10.26 43.12 9.54 44.13 8.91 45.14 8.36 46.15 7.91 47.16 7.54 48.17 7.27 49.18 7.09 50.19 7.01 51.2 7.02 52.21 7.12 53.22 7.31 54.23 7.6 55.24 7.98 56.25 8.45 57.26 9.01 58.27 9.66 59.28 10.39 60.29 11.21 61.3 12.12 62.31 13.1 63.32 14.17 64.33 15.3 65.34 16.51 66.34 17.8 67.35 19.14 68.36 20.55 69.37 22.02 70.38 23.55 71.39 25.13 72.4 26.76 73.41 28.43 74.42 30.14 75.43 31.88 76.44 33.66 77.45 35.47 78.46 37.29 79.47 39.14 80.48 40.99 81.49 42.86 82.5 44.73 83.51 46.6 84.52 48.47 85.53 50.32 86.54 52.16 87.55 53.98 88.56 55.77 89.57 57.54 90.58 59.28 91.59 60.98 92.6 62.63 93.61 64.24 94.62 65.8 95.63 67.31 96.64 68.76 97.65 70.15 98.66 71.48 99.67 72.73 100.68 73.92 101.69 75.03 102.7 76.07 103.71 77.03 104.72 77.91 105.73 78.7 106.74 79.4 107.75 80.02 108.75 80.55 109.76 80.99 110.77 81.34 111.78 81.6 112.79 81.76 113.8 81.83 114.81 81.81 115.82 81.69 116.83 81.48 117.84 81.18 118.85 80.78 119.86 80.3" id="img-ad81fe11-33"/>
      </g>
    </g>
  </g>
</g>
  <g class="guide ylabels" font-size="2.82" font-family="'PT Sans Caption','Helvetica Neue','Helvetica',sans-serif" fill="#6C606B" id="img-ad81fe11-34">
    <text x="15.89" y="81.83" text-anchor="end" dy="0.35em" id="img-ad81fe11-35">0.0</text>
    <text x="15.89" y="44.42" text-anchor="end" dy="0.35em" id="img-ad81fe11-36">0.5</text>
    <text x="15.89" y="7" text-anchor="end" dy="0.35em" id="img-ad81fe11-37">1.0</text>
  </g>
  <g font-size="3.88" font-family="'PT Sans','Helvetica Neue','Helvetica',sans-serif" fill="#564A55" stroke="#000000" stroke-opacity="0.000" id="img-ad81fe11-38">
    <text x="9.11" y="44.42" text-anchor="end" dy="0.35em" id="img-ad81fe11-39">Y</text>
  </g>
</g>
<defs>
  <clipPath id="img-ad81fe11-15">
  <path d="M16.89,5 L 121.86 5 121.86 83.83 16.89 83.83" />
</clipPath>
</defs>
</svg>
