<?xml version="1.0" encoding="UTF-8"?>
<svg xmlns="http://www.w3.org/2000/svg"
     xmlns:xlink="http://www.w3.org/1999/xlink"
     xmlns:gadfly="http://www.gadflyjl.org/ns"
     version="1.2"
     width="152.4mm" height="101.6mm" viewBox="0 0 152.4 101.6"
     stroke="none"
     fill="#000000"
     stroke-width="0.3"
     font-size="3.88"
>
<g class="plotroot xscalable yscalable" id="img-0ef873d2-1">
  <g font-size="3.88" font-family="'PT Sans','Helvetica Neue','Helvetica',sans-serif" fill="#564A55" stroke="#000000" stroke-opacity="0.000" id="img-0ef873d2-2">
    <text x="64.98" y="89.99" text-anchor="middle" dy="0.6em">X</text>
  </g>
  <g class="guide xlabels" font-size="2.82" font-family="'PT Sans Caption','Helvetica Neue','Helvetica',sans-serif" fill="#6C606B" id="img-0ef873d2-3">
    <text x="16.84" y="83.32" text-anchor="middle" dy="0.6em">0</text>
    <text x="64.98" y="83.32" text-anchor="middle" dy="0.6em">50</text>
    <text x="113.12" y="83.32" text-anchor="middle" dy="0.6em">100</text>
  </g>
  <g class="guide colorkey" id="img-0ef873d2-4">
    <g fill="#4C404B" font-size="2.82" font-family="'PT Sans','Helvetica Neue','Helvetica',sans-serif" id="img-0ef873d2-5">
      <text x="118.93" y="40.03" dy="0.35em" id="img-0ef873d2-6" class="color_Observation_1">Observation 1</text>
      <text x="118.93" y="43.66" dy="0.35em" id="img-0ef873d2-7" class="color_Observation_2">Observation 2</text>
      <text x="118.93" y="47.28" dy="0.35em" id="img-0ef873d2-8" class="color_Observation_3">Observation 3</text>
      <text x="118.93" y="50.91" dy="0.35em" id="img-0ef873d2-9" class="color_Observation_4">Observation 4</text>
    </g>
    <g stroke="#000000" stroke-opacity="0.000" id="img-0ef873d2-10">
      <rect x="116.11" y="39.12" width="1.81" height="1.81" id="img-0ef873d2-11" class="color_Observation_1" fill="#00BFFF"/>
      <rect x="116.11" y="42.75" width="1.81" height="1.81" id="img-0ef873d2-12" class="color_Observation_2" fill="#D4CA3A"/>
      <rect x="116.11" y="46.38" width="1.81" height="1.81" id="img-0ef873d2-13" class="color_Observation_3" fill="#FF6DAE"/>
      <rect x="116.11" y="50" width="1.81" height="1.81" id="img-0ef873d2-14" class="color_Observation_4" fill="#00B78D"/>
    </g>
    <g fill="#362A35" font-size="3.88" font-family="'PT Sans','Helvetica Neue','Helvetica',sans-serif" stroke="#000000" stroke-opacity="0.000" id="img-0ef873d2-15">
      <text x="116.11" y="36.21" id="img-0ef873d2-16">Mixed observations</text>
    </g>
  </g>
<g clip-path="url(#img-0ef873d2-17)">
  <g id="img-0ef873d2-18">
    <g pointer-events="visible" opacity="1" fill="#000000" fill-opacity="0.000" stroke="#000000" stroke-opacity="0.000" class="guide background" id="img-0ef873d2-19">
      <rect x="14.84" y="5" width="100.28" height="77.32" id="img-0ef873d2-20"/>
    </g>
    <g class="guide ygridlines xfixed" stroke-dasharray="0.5,0.5" stroke-width="0.2" stroke="#D0D0E0" id="img-0ef873d2-21">
      <path fill="none" d="M14.84,80.32 L 115.11 80.32" id="img-0ef873d2-22"/>
      <path fill="none" d="M14.84,55.88 L 115.11 55.88" id="img-0ef873d2-23"/>
      <path fill="none" d="M14.84,31.44 L 115.11 31.44" id="img-0ef873d2-24"/>
      <path fill="none" d="M14.84,7 L 115.11 7" id="img-0ef873d2-25"/>
    </g>
    <g class="guide xgridlines yfixed" stroke-dasharray="0.5,0.5" stroke-width="0.2" stroke="#D0D0E0" id="img-0ef873d2-26">
      <path fill="none" d="M16.84,5 L 16.84 82.32" id="img-0ef873d2-27"/>
      <path fill="none" d="M64.98,5 L 64.98 82.32" id="img-0ef873d2-28"/>
      <path fill="none" d="M113.12,5 L 113.12 82.32" id="img-0ef873d2-29"/>
    </g>
    <g class="plotpanel" id="img-0ef873d2-30">
      <g stroke-width="0.3" fill="#000000" fill-opacity="0.000" class="geometry color_Observation_4" stroke-dasharray="none" stroke="#00B78D" id="img-0ef873d2-31">
        <path fill="none" d="M17.8,35.82 L 18.76 28.64 19.73 22.69 20.69 18.45 21.65 16.26 22.61 16.25 23.58 18.37 24.54 22.39 25.5 27.9 26.46 34.35 27.43 41.13 28.39 47.57 29.35 53.07 30.32 57.09 31.28 59.22 32.24 59.24 33.2 57.1 34.17 52.97 35.13 47.18 36.09 40.2 37.06 32.65 38.02 25.15 38.98 18.37 39.94 12.87 40.91 9.14 41.87 7.48 42.83 8.03 43.79 10.73 44.76 15.33 45.72 21.4 46.68 28.4 47.65 35.7 48.61 42.66 49.57 48.64 50.53 53.13 51.5 55.73 52.46 56.22 53.42 54.56 54.39 50.93 55.35 45.66 56.31 39.25 57.27 32.29 58.24 25.43 59.2 19.31 60.16 14.51 61.12 11.48 62.09 10.54 63.05 11.8 64.01 15.2 64.98 20.45 65.94 27.15 66.9 34.73 67.86 42.55 68.83 49.98 69.79 56.39 70.75 61.25 71.72 64.19 72.68 64.99 73.64 63.63 74.6 60.29 75.57 55.3 76.53 49.19 77.49 42.53 78.45 35.98 79.42 30.18 80.38 25.7 81.34 22.99 82.31 22.35 83.27 23.88 84.23 27.5 85.19 32.93 86.16 39.75 87.12 47.38 88.08 55.2 89.05 62.55 90.01 68.81 90.97 73.48 91.93 76.18 92.9 76.7 93.86 75.04 94.82 71.37 95.78 66.07 96.75 59.63 97.71 52.66 98.67 45.82 99.64 39.73 100.6 34.96 101.56 31.96 102.52 31.02 103.49 32.23 104.45 35.5 105.41 40.54 106.38 46.92 107.34 54.06 108.3 61.34 109.26 68.09 110.23 73.72 111.19 77.72 112.15 79.71 113.12 79.52" id="img-0ef873d2-32"/>
      </g>
      <g stroke-width="0.3" fill="#000000" fill-opacity="0.000" class="geometry color_Observation_3" stroke-dasharray="none" stroke="#FF6DAE" id="img-0ef873d2-33">
        <path fill="none" d="M17.8,42.14 L 18.76 54.68 19.73 54.31 20.69 50.78 21.65 63.08 22.61 51.87 23.58 59.66 24.54 20.21 25.5 21.21 26.46 51.64 27.43 45.4 28.39 47.23 29.35 17.24 30.32 43.17 31.28 55.21 32.24 18.92 33.2 50.91 34.17 43.91 35.13 56.85 36.09 39.97 37.06 18.71 38.02 16.75 38.98 34.89 39.94 45.12 40.91 54.31 41.87 45.9 42.83 50.91 43.79 12.91 44.76 28.41 45.72 26.91 46.68 44.68 47.65 44.84 48.61 40.27 49.57 26.28 50.53 23.02 51.5 45.34 52.46 31.74 53.42 53.3 54.39 55.16 55.35 39.66 56.31 36.94 57.27 38.36 58.24 17.62 59.2 43.27 60.16 54.07 61.12 10.65 62.09 38.68 63.05 47.55 64.01 23.04 64.98 40.96 65.94 32.33 66.9 23.26 67.86 52.06 68.83 30.25 69.79 22.39 70.75 47.28 71.72 19.19 72.68 30.97 73.64 47.44 74.6 32.81 75.57 43.71 76.53 59.22 77.49 46.97 78.45 28.46 79.42 30.58 80.38 49.7 81.34 64.78 82.31 22.8 83.27 29.67 84.23 37.64 85.19 43.87 86.16 30.49 87.12 42.96 88.08 33.15 89.05 47.5 90.01 32.24 90.97 42.57 91.93 40.51 92.9 70.62 93.86 28.87 94.82 64.82 95.78 45.14 96.75 75.26 97.71 68.09 98.67 32.02 99.64 77.83 100.6 79.03 101.56 41.11 102.52 51.68 103.49 33.3 104.45 49.67 105.41 35.55 106.38 52 107.34 55.1 108.3 60.01 109.26 33.27 110.23 41.29 111.19 44.09 112.15 48.03 113.12 50.1" id="img-0ef873d2-34"/>
      </g>
      <g stroke-width="0.3" fill="#000000" fill-opacity="0.000" class="geometry color_Observation_2" stroke-dasharray="none" stroke="#D4CA3A" id="img-0ef873d2-35">
        <path fill="none" d="M17.8,35.98 L 18.76 35.98 19.73 30.75 20.69 25.66 21.65 30.5 22.61 25.77 23.58 32.66 24.54 17.81 25.5 24.65 26.46 47.13 27.43 51.58 28.39 59.71 29.35 50.95 30.32 68.65 31.28 77.49 32.24 60.01 33.2 74.5 34.17 67.45 35.13 68.68 36.09 53.78 37.06 36.07 38.02 28.04 38.98 30.72 39.94 30.69 40.91 31.86 41.87 26.26 42.83 29.54 43.79 13.42 44.76 25.9 45.72 31.31 46.68 47.24 47.65 54.62 48.61 59.24 49.57 58.13 50.53 60.85 51.5 74.42 52.46 67.88 53.42 76.73 54.39 73.7 55.35 60.33 56.31 52.15 57.27 45.46 58.24 27.75 59.2 33.93 60.16 33.98 61.12 8.65 62.09 21.09 63.05 26.13 64.01 16.58 64.98 30.07 65.94 31.7 66.9 33.98 67.86 55.4 68.83 51.11 69.79 52.75 70.75 69.2 71.72 57.23 72.68 63.03 73.64 69.02 74.6 57.45 75.57 57.01 76.53 57.73 77.49 44.03 78.45 27.31 79.42 21.66 80.38 25.83 81.34 29.76 82.31 7.23 83.27 11.32 84.23 18.06 85.19 25.76 86.16 25.05 87.12 38.11 88.08 40.23 89.05 53.99 90.01 51.89 90.97 61.01 91.93 62 92.9 76.92 93.86 53.77 94.82 67.5 95.78 51.81 96.75 59.92 97.71 48.91 98.67 23.59 99.64 40.03 100.6 35.51 101.56 13.25 102.52 17.33 103.49 9.13 104.45 20.42 105.41 18.27 106.38 32.79 107.34 41.45 108.3 51.19 109.26 44.64 110.23 54.39 111.19 59.93 112.15 64.09 113.12 65.17" id="img-0ef873d2-36"/>
      </g>
      <g stroke-width="0.3" fill="#000000" fill-opacity="0.000" class="geometry color_Observation_1" stroke-dasharray="none" stroke="#00BFFF" id="img-0ef873d2-37">
        <path fill="none" d="M17.8,38.98 L 18.76 41.66 19.73 38.5 20.69 34.62 21.65 39.67 22.61 34.06 23.58 39.02 24.54 21.3 25.5 24.55 26.46 42.99 27.43 43.26 28.39 47.4 29.35 35.15 30.32 50.13 31.28 57.21 32.24 39.08 33.2 54 34.17 48.44 35.13 52.02 36.09 40.09 37.06 25.68 38.02 20.95 38.98 26.63 39.94 29 40.91 31.72 41.87 26.69 42.83 29.47 43.79 11.82 44.76 21.87 45.72 24.15 46.68 36.54 47.65 40.27 48.61 41.47 49.57 37.46 50.53 38.08 51.5 50.53 52.46 43.98 53.42 53.93 54.39 53.04 55.35 42.66 56.31 38.09 57.27 35.32 58.24 21.53 59.2 31.29 60.16 34.29 61.12 11.07 62.09 24.61 63.05 29.68 64.01 19.12 64.98 30.71 65.94 29.74 66.9 28.99 67.86 47.3 68.83 40.12 69.79 39.39 70.75 54.27 71.72 41.69 72.68 47.98 73.64 55.54 74.6 46.55 75.57 49.51 76.53 54.2 77.49 44.75 78.45 32.22 79.42 30.38 80.38 37.7 81.34 43.88 82.31 22.57 83.27 26.77 84.23 32.57 85.19 38.4 86.16 35.12 87.12 45.17 88.08 44.18 89.05 55.02 90.01 50.53 90.97 58.03 91.93 58.34 92.9 73.66 93.86 51.96 94.82 68.09 95.78 55.6 96.75 67.44 97.71 60.38 98.67 38.92 99.64 58.78 100.6 57 101.56 36.54 102.52 41.35 103.49 32.76 104.45 42.58 105.41 38.04 106.38 49.46 107.34 54.58 108.3 60.67 109.26 50.68 110.23 57.51 111.19 60.9 112.15 63.87 113.12 64.81" id="img-0ef873d2-38"/>
      </g>
    </g>
  </g>
</g>
  <g class="guide ylabels" font-size="2.82" font-family="'PT Sans Caption','Helvetica Neue','Helvetica',sans-serif" fill="#6C606B" id="img-0ef873d2-39">
    <text x="13.84" y="80.32" text-anchor="end" dy="0.35em" id="img-0ef873d2-40">0</text>
    <text x="13.84" y="55.88" text-anchor="end" dy="0.35em" id="img-0ef873d2-41">1</text>
    <text x="13.84" y="31.44" text-anchor="end" dy="0.35em" id="img-0ef873d2-42">2</text>
    <text x="13.84" y="7" text-anchor="end" dy="0.35em" id="img-0ef873d2-43">3</text>
  </g>
  <g font-size="3.88" font-family="'PT Sans','Helvetica Neue','Helvetica',sans-serif" fill="#564A55" stroke="#000000" stroke-opacity="0.000" id="img-0ef873d2-44">
    <text x="9.16" y="43.66" text-anchor="end" dy="0.35em" id="img-0ef873d2-45">Y</text>
  </g>
</g>
<defs>
  <clipPath id="img-0ef873d2-17">
  <path d="M14.84,5 L 115.11 5 115.11 82.32 14.84 82.32" />
</clipPath>
</defs>
</svg>
