<?xml version="1.0" encoding="UTF-8"?>
<svg xmlns="http://www.w3.org/2000/svg"
     xmlns:xlink="http://www.w3.org/1999/xlink"
     xmlns:gadfly="http://www.gadflyjl.org/ns"
     version="1.2"
     width="152.4mm" height="101.6mm" viewBox="0 0 152.4 101.6"
     stroke="none"
     fill="#000000"
     stroke-width="0.3"
     font-size="3.88"
>
<g class="plotroot xscalable yscalable" id="img-59fa39fe-1">
  <g font-size="3.88" font-family="'PT Sans','Helvetica Neue','Helvetica',sans-serif" fill="#564A55" stroke="#000000" stroke-opacity="0.000" id="img-59fa39fe-2">
    <text x="68.09" y="89.99" text-anchor="middle" dy="0.6em">X</text>
  </g>
  <g class="guide xlabels" font-size="2.82" font-family="'PT Sans Caption','Helvetica Neue','Helvetica',sans-serif" fill="#6C606B" id="img-59fa39fe-3">
    <text x="19.18" y="83.32" text-anchor="middle" dy="0.6em">0</text>
    <text x="68.09" y="83.32" text-anchor="middle" dy="0.6em">50</text>
    <text x="116.99" y="83.32" text-anchor="middle" dy="0.6em">100</text>
  </g>
  <g class="guide colorkey" id="img-59fa39fe-4">
    <g fill="#4C404B" font-size="2.82" font-family="'PT Sans','Helvetica Neue','Helvetica',sans-serif" id="img-59fa39fe-5">
      <text x="122.81" y="41.84" dy="0.35em" id="img-59fa39fe-6" class="color_Source_1">Source 1</text>
      <text x="122.81" y="45.47" dy="0.35em" id="img-59fa39fe-7" class="color_Source_2">Source 2</text>
      <text x="122.81" y="49.1" dy="0.35em" id="img-59fa39fe-8" class="color_Source_3">Source 3</text>
    </g>
    <g stroke="#000000" stroke-opacity="0.000" id="img-59fa39fe-9">
      <rect x="119.99" y="40.94" width="1.81" height="1.81" id="img-59fa39fe-10" fill="#00BFFF" class="color_Source_1"/>
      <rect x="119.99" y="44.56" width="1.81" height="1.81" id="img-59fa39fe-11" fill="#D4CA3A" class="color_Source_2"/>
      <rect x="119.99" y="48.19" width="1.81" height="1.81" id="img-59fa39fe-12" fill="#FF6DAE" class="color_Source_3"/>
    </g>
    <g fill="#362A35" font-size="3.88" font-family="'PT Sans','Helvetica Neue','Helvetica',sans-serif" stroke="#000000" stroke-opacity="0.000" id="img-59fa39fe-13">
      <text x="119.99" y="38.02" id="img-59fa39fe-14">Unmixed sources</text>
    </g>
  </g>
<g clip-path="url(#img-59fa39fe-15)">
  <g id="img-59fa39fe-16">
    <g pointer-events="visible" opacity="1" fill="#000000" fill-opacity="0.000" stroke="#000000" stroke-opacity="0.000" class="guide background" id="img-59fa39fe-17">
      <rect x="17.18" y="5" width="101.81" height="77.32" id="img-59fa39fe-18"/>
    </g>
    <g class="guide ygridlines xfixed" stroke-dasharray="0.5,0.5" stroke-width="0.2" stroke="#D0D0E0" id="img-59fa39fe-19">
      <path fill="none" d="M17.18,80.31 L 118.99 80.31" id="img-59fa39fe-20"/>
      <path fill="none" d="M17.18,65.65 L 118.99 65.65" id="img-59fa39fe-21"/>
      <path fill="none" d="M17.18,50.99 L 118.99 50.99" id="img-59fa39fe-22"/>
      <path fill="none" d="M17.18,36.33 L 118.99 36.33" id="img-59fa39fe-23"/>
      <path fill="none" d="M17.18,21.66 L 118.99 21.66" id="img-59fa39fe-24"/>
      <path fill="none" d="M17.18,7 L 118.99 7" id="img-59fa39fe-25"/>
    </g>
    <g class="guide xgridlines yfixed" stroke-dasharray="0.5,0.5" stroke-width="0.2" stroke="#D0D0E0" id="img-59fa39fe-26">
      <path fill="none" d="M19.18,5 L 19.18 82.32" id="img-59fa39fe-27"/>
      <path fill="none" d="M68.09,5 L 68.09 82.32" id="img-59fa39fe-28"/>
      <path fill="none" d="M116.99,5 L 116.99 82.32" id="img-59fa39fe-29"/>
    </g>
    <g class="plotpanel" id="img-59fa39fe-30">
      <g stroke-width="0.3" fill="#000000" fill-opacity="0.000" class="geometry color_Source_3" stroke-dasharray="none" stroke="#FF6DAE" id="img-59fa39fe-31">
        <path fill="none" d="M20.16,44.1 L 21.14 45.04 22.12 40.86 23.1 36.58 24.07 41.46 25.05 36.98 26.03 43.23 27.01 28.63 27.99 34.39 28.96 54.86 29.94 58.19 30.92 65.05 31.9 56.04 32.88 72.29 33.85 80.31 34.83 63.82 35.81 77.83 36.79 71.69 37.77 73.61 38.75 60.4 39.72 44.6 40.7 37.96 41.68 41.39 42.66 42.08 43.64 43.67 44.61 38.59 45.59 41.62 46.57 25.99 47.55 37.22 48.53 41.55 49.5 55.74 50.48 61.78 51.46 65.25 52.44 63.42 53.42 65.41 54.39 77.93 55.37 71.67 56.35 80.31 57.33 77.88 58.31 65.89 59.29 58.98 60.26 53.54 61.24 37.66 62.22 44.31 63.2 44.98 64.18 21.37 65.15 33.29 66.13 37.9 67.11 28.4 68.09 40.51 69.07 41.18 70.04 42.34 71.02 61.63 72 56.6 72.98 57.31 73.96 72.27 74.93 60.54 75.91 65.94 76.89 71.78 77.87 61.26 78.85 61.49 79.83 62.97 80.8 50.86 81.78 35.87 82.76 31.26 83.74 35.8 84.72 39.88 85.69 18.62 86.67 22.29 87.65 28.2 88.63 34.79 89.61 33.23 90.58 44.61 91.56 45.61 92.54 57.69 93.52 54.88 94.5 62.92 95.47 63.5 96.45 77.57 97.43 55.85 98.41 69.34 99.39 55.16 100.36 63.69 101.34 54.15 102.32 31.06 103.3 47.45 104.28 43.75 105.26 23.06 106.23 27.05 107.21 19.13 108.19 29.39 109.17 26.7 110.15 39.63 111.12 46.91 112.1 55.19 113.08 48.1 114.06 56.6 115.04 61.33 116.01 65.02 116.99 66.06" id="img-59fa39fe-32"/>
      </g>
      <g stroke-width="0.3" fill="#000000" fill-opacity="0.000" class="geometry color_Source_2" stroke-dasharray="none" stroke="#D4CA3A" id="img-59fa39fe-33">
        <path fill="none" d="M20.16,56.92 L 21.14 65.21 22.12 65.13 23.1 62.98 24.07 70.97 25.05 63.74 26.03 68.71 27.01 43.14 27.99 43.63 28.96 63.09 29.94 58.88 30.92 59.88 31.9 40.37 32.88 56.99 33.85 64.7 34.83 41.29 35.81 61.98 36.79 57.59 37.77 66.1 38.75 55.4 39.72 41.89 40.7 40.84 41.68 52.73 42.66 59.48 43.64 65.51 44.61 60.13 45.59 63.35 46.57 38.76 47.55 48.63 48.53 47.49 49.5 58.77 50.48 58.66 51.46 55.52 52.44 46.33 53.42 44.1 54.39 58.43 55.37 49.65 56.35 63.6 57.33 64.9 58.31 55.05 59.29 53.47 60.26 54.58 61.24 41.39 62.22 58.1 63.2 65.21 64.18 37.28 65.15 55.39 66.13 61.08 67.11 45.17 68.09 56.59 69.07 50.83 70.04 44.77 71.02 63.13 72 48.86 72.98 43.61 73.96 59.53 74.93 41.33 75.91 48.9 76.89 59.57 77.87 50.22 78.85 57.39 79.83 67.57 80.8 59.85 81.78 48.09 82.76 49.62 83.74 62.08 84.72 71.88 85.69 44.82 86.67 49.21 87.65 54.25 88.63 58.12 89.61 49.29 90.58 57.13 91.56 50.58 92.54 59.64 93.52 49.62 94.5 56.15 95.47 54.75 96.45 74.16 97.43 47.27 98.41 70.57 99.39 58.02 100.36 77.62 101.34 73.19 102.32 50.11 103.3 80.31 104.28 80.31 105.26 56.36 106.23 63.21 107.21 51.32 108.19 61.79 109.17 52.53 110.15 62.97 111.12 64.77 112.1 67.74 113.08 50.3 114.06 55.32 115.04 57.02 116.01 59.5 116.99 60.84" id="img-59fa39fe-34"/>
      </g>
      <g stroke-width="0.3" fill="#000000" fill-opacity="0.000" class="geometry color_Source_1" stroke-dasharray="none" stroke="#00BFFF" id="img-59fa39fe-35">
        <path fill="none" d="M20.16,69.89 L 21.14 68.2 22.12 66.81 23.1 65.82 24.07 65.3 25.05 65.3 26.03 65.8 27.01 66.74 27.99 68.03 28.96 69.54 29.94 71.13 30.92 72.64 31.9 73.93 32.88 74.87 33.85 75.37 34.83 75.38 35.81 74.87 36.79 73.9 37.77 72.55 38.75 70.91 39.72 69.14 40.7 67.39 41.68 65.8 42.66 64.51 43.64 63.63 44.61 63.24 45.59 63.37 46.57 64.01 47.55 65.08 48.53 66.51 49.5 68.15 50.48 69.86 51.46 71.49 52.44 72.89 53.42 73.94 54.39 74.55 55.37 74.67 56.35 74.27 57.33 73.42 58.31 72.19 59.29 70.69 60.26 69.06 61.24 67.45 62.22 66.02 63.2 64.89 64.18 64.19 65.15 63.96 66.13 64.26 67.11 65.05 68.09 66.28 69.07 67.85 70.04 69.63 71.02 71.46 72 73.21 72.98 74.71 73.96 75.85 74.93 76.54 75.91 76.72 76.89 76.4 77.87 75.62 78.85 74.45 79.83 73.02 80.8 71.46 81.78 69.93 82.76 68.57 83.74 67.52 84.72 66.88 85.69 66.73 86.67 67.09 87.65 67.94 88.63 69.21 89.61 70.81 90.58 72.6 91.56 74.43 92.54 76.15 93.52 77.62 94.5 78.72 95.47 79.35 96.45 79.47 97.43 79.08 98.41 78.22 99.39 76.98 100.36 75.47 101.34 73.84 102.32 72.23 103.3 70.76 104.28 69.72 105.26 68.99 106.23 68.77 107.21 69.05 108.19 69.81 109.17 71 110.15 72.49 111.12 74.16 112.1 75.87 113.08 77.46 114.06 78.77 115.04 79.71 116.01 80.18 116.99 80.13" id="img-59fa39fe-36"/>
      </g>
    </g>
  </g>
</g>
  <g class="guide ylabels" font-size="2.82" font-family="'PT Sans Caption','Helvetica Neue','Helvetica',sans-serif" fill="#6C606B" id="img-59fa39fe-37">
    <text x="16.18" y="80.31" text-anchor="end" dy="0.35em" id="img-59fa39fe-38">0.0</text>
    <text x="16.18" y="65.65" text-anchor="end" dy="0.35em" id="img-59fa39fe-39">0.1</text>
    <text x="16.18" y="50.99" text-anchor="end" dy="0.35em" id="img-59fa39fe-40">0.2</text>
    <text x="16.18" y="36.33" text-anchor="end" dy="0.35em" id="img-59fa39fe-41">0.3</text>
    <text x="16.18" y="21.66" text-anchor="end" dy="0.35em" id="img-59fa39fe-42">0.4</text>
    <text x="16.18" y="7" text-anchor="end" dy="0.35em" id="img-59fa39fe-43">0.5</text>
  </g>
  <g font-size="3.88" font-family="'PT Sans','Helvetica Neue','Helvetica',sans-serif" fill="#564A55" stroke="#000000" stroke-opacity="0.000" id="img-59fa39fe-44">
    <text x="9.16" y="43.66" text-anchor="end" dy="0.35em" id="img-59fa39fe-45">Y</text>
  </g>
</g>
<defs>
  <clipPath id="img-59fa39fe-15">
  <path d="M17.18,5 L 118.99 5 118.99 82.32 17.18 82.32" />
</clipPath>
</defs>
</svg>
