<?xml version="1.0" encoding="UTF-8"?>
<svg xmlns="http://www.w3.org/2000/svg"
     xmlns:xlink="http://www.w3.org/1999/xlink"
     xmlns:gadfly="http://www.gadflyjl.org/ns"
     version="1.2"
     width="203.2mm" height="101.6mm" viewBox="0 0 203.2 101.6"
     stroke="none"
     fill="#000000"
     stroke-width="0.3"
     font-size="3.88"
>
<g class="plotroot xscalable yscalable" id="img-0ef873d2-1">
  <g font-size="3.88" font-family="'PT Sans','Helvetica Neue','Helvetica',sans-serif" fill="#564A55" stroke="#000000" stroke-opacity="0.000" id="img-0ef873d2-2">
    <text x="90.47" y="90.88" text-anchor="middle" dy="0.6em">X</text>
  </g>
  <g class="guide xlabels" font-size="2.82" font-family="'PT Sans Caption','Helvetica Neue','Helvetica',sans-serif" fill="#6C606B" id="img-0ef873d2-3">
    <text x="16.54" y="84.83" text-anchor="middle" dy="0.6em">0</text>
    <text x="90.47" y="84.83" text-anchor="middle" dy="0.6em">50</text>
    <text x="164.41" y="84.83" text-anchor="middle" dy="0.6em">100</text>
  </g>
  <g class="guide colorkey" id="img-0ef873d2-4">
    <g fill="#4C404B" font-size="2.82" font-family="'PT Sans','Helvetica Neue','Helvetica',sans-serif" id="img-0ef873d2-5">
      <text x="169.93" y="41.37" dy="0.35em" id="img-0ef873d2-6" class="color_Observation_1">Observation 1</text>
      <text x="169.93" y="44.42" dy="0.35em" id="img-0ef873d2-7" class="color_Observation_2">Observation 2</text>
      <text x="169.93" y="47.46" dy="0.35em" id="img-0ef873d2-8" class="color_Observation_3">Observation 3</text>
      <text x="169.93" y="50.5" dy="0.35em" id="img-0ef873d2-9" class="color_Observation_4">Observation 4</text>
    </g>
    <g stroke="#000000" stroke-opacity="0.000" id="img-0ef873d2-10">
      <rect x="167.41" y="40.61" width="1.52" height="1.52" id="img-0ef873d2-11" fill="#00BFFF" class="color_Observation_1"/>
      <rect x="167.41" y="43.66" width="1.52" height="1.52" id="img-0ef873d2-12" fill="#D4CA3A" class="color_Observation_2"/>
      <rect x="167.41" y="46.7" width="1.52" height="1.52" id="img-0ef873d2-13" fill="#FF6DAE" class="color_Observation_3"/>
      <rect x="167.41" y="49.74" width="1.52" height="1.52" id="img-0ef873d2-14" fill="#00B78D" class="color_Observation_4"/>
    </g>
    <g fill="#362A35" font-size="3.88" font-family="'PT Sans','Helvetica Neue','Helvetica',sans-serif" stroke="#000000" stroke-opacity="0.000" id="img-0ef873d2-15">
      <text x="167.41" y="37.73" id="img-0ef873d2-16">Mixed observations</text>
    </g>
  </g>
<g clip-path="url(#img-0ef873d2-17)">
  <g id="img-0ef873d2-18">
    <g pointer-events="visible" opacity="1" fill="#000000" fill-opacity="0.000" stroke="#000000" stroke-opacity="0.000" class="guide background" id="img-0ef873d2-19">
      <rect x="14.54" y="5" width="151.87" height="78.83" id="img-0ef873d2-20"/>
    </g>
    <g class="guide ygridlines xfixed" stroke-dasharray="0.5,0.5" stroke-width="0.2" stroke="#D0D0E0" id="img-0ef873d2-21">
      <path fill="none" d="M14.54,81.83 L 166.41 81.83" id="img-0ef873d2-22"/>
      <path fill="none" d="M14.54,56.89 L 166.41 56.89" id="img-0ef873d2-23"/>
      <path fill="none" d="M14.54,31.94 L 166.41 31.94" id="img-0ef873d2-24"/>
      <path fill="none" d="M14.54,7 L 166.41 7" id="img-0ef873d2-25"/>
    </g>
    <g class="guide xgridlines yfixed" stroke-dasharray="0.5,0.5" stroke-width="0.2" stroke="#D0D0E0" id="img-0ef873d2-26">
      <path fill="none" d="M16.54,5 L 16.54 83.83" id="img-0ef873d2-27"/>
      <path fill="none" d="M90.47,5 L 90.47 83.83" id="img-0ef873d2-28"/>
      <path fill="none" d="M164.41,5 L 164.41 83.83" id="img-0ef873d2-29"/>
    </g>
    <g class="plotpanel" id="img-0ef873d2-30">
      <g stroke-width="0.71" fill="#000000" fill-opacity="0.000" class="geometry color_Observation_4" stroke-dasharray="none" stroke="#00B78D" id="img-0ef873d2-31">
        <path fill="none" d="M18.02,36.42 L 19.5 29.09 20.97 23.01 22.45 18.69 23.93 16.45 25.41 16.44 26.89 18.61 28.37 22.71 29.85 28.33 31.33 34.92 32.8 41.83 34.28 48.41 35.76 54.03 37.24 58.12 38.72 60.3 40.2 60.32 41.68 58.14 43.15 53.92 44.63 48.01 46.11 40.89 47.59 33.18 49.07 25.53 50.55 18.6 52.03 12.99 53.51 9.18 54.98 7.49 56.46 8.05 57.94 10.81 59.42 15.5 60.9 21.7 62.38 28.84 63.86 36.3 65.34 43.4 66.81 49.51 68.29 54.09 69.77 56.74 71.25 57.24 72.73 55.55 74.21 51.84 75.69 46.46 77.17 39.92 78.64 32.81 80.12 25.81 81.6 19.56 83.08 14.66 84.56 11.58 86.04 10.62 87.52 11.9 89 15.37 90.47 20.73 91.95 27.56 93.43 35.3 94.91 43.29 96.39 50.87 97.87 57.41 99.35 62.38 100.83 65.38 102.3 66.19 103.78 64.81 105.26 61.39 106.74 56.31 108.22 50.06 109.7 43.26 111.18 36.58 112.65 30.66 114.13 26.09 115.61 23.32 117.09 22.66 118.57 24.23 120.05 27.92 121.53 33.47 123.01 40.43 124.48 48.22 125.96 56.2 127.44 63.7 128.92 70.1 130.4 74.86 131.88 77.61 133.36 78.14 134.84 76.45 136.31 72.71 137.79 67.29 139.27 60.72 140.75 53.61 142.23 46.62 143.71 40.41 145.19 35.54 146.67 32.48 148.14 31.52 149.62 32.75 151.1 36.09 152.58 41.24 154.06 47.74 155.54 55.04 157.02 62.46 158.5 69.36 159.97 75.11 161.45 79.18 162.93 81.22 164.41 81.02" id="img-0ef873d2-32"/>
      </g>
      <g stroke-width="0.71" fill="#000000" fill-opacity="0.000" class="geometry color_Observation_3" stroke-dasharray="none" stroke="#FF6DAE" id="img-0ef873d2-33">
        <path fill="none" d="M18.02,42.87 L 19.5 55.67 20.97 55.29 22.45 51.69 23.93 64.24 25.41 52.8 26.89 60.75 28.37 20.48 29.85 21.5 31.33 52.56 32.8 46.2 34.28 48.06 35.76 17.45 37.24 43.92 38.72 56.21 40.2 19.16 41.68 51.82 43.15 44.67 44.63 57.89 46.11 40.66 47.59 18.95 49.07 16.96 50.55 35.47 52.03 45.91 53.51 55.29 54.98 46.71 56.46 51.82 57.94 13.03 59.42 28.86 60.9 27.32 62.38 45.47 63.86 45.63 65.34 40.96 66.81 26.68 68.29 23.35 69.77 46.13 71.25 32.26 72.73 54.26 74.21 56.15 75.69 40.34 77.17 37.56 78.64 39.01 80.12 17.84 81.6 44.02 83.08 55.05 84.56 10.73 86.04 39.34 87.52 48.39 89 23.38 90.47 41.67 91.95 32.85 93.43 23.6 94.91 52.99 96.39 30.74 97.87 22.71 99.35 48.11 100.83 19.44 102.3 31.46 103.78 48.28 105.26 33.34 106.74 44.47 108.22 60.3 109.7 47.8 111.18 28.91 112.65 31.07 114.13 50.59 115.61 65.97 117.09 23.13 118.57 30.14 120.05 38.28 121.53 44.64 123.01 30.98 124.48 43.71 125.96 33.69 127.44 48.34 128.92 32.76 130.4 43.3 131.88 41.2 133.36 71.93 134.84 29.33 136.31 66.02 137.79 45.93 139.27 76.67 140.75 69.36 142.23 32.54 143.71 79.3 145.19 80.52 146.67 41.81 148.14 52.61 149.62 33.85 151.1 50.56 152.58 36.14 154.06 52.93 155.54 56.09 157.02 61.1 158.5 33.82 159.97 42.01 161.45 44.86 162.93 48.88 164.41 50.99" id="img-0ef873d2-34"/>
      </g>
      <g stroke-width="0.71" fill="#000000" fill-opacity="0.000" class="geometry color_Observation_2" stroke-dasharray="none" stroke="#D4CA3A" id="img-0ef873d2-35">
        <path fill="none" d="M18.02,36.58 L 19.5 36.58 20.97 31.24 22.45 26.04 23.93 30.99 25.41 26.16 26.89 33.19 28.37 18.03 29.85 25.01 31.33 47.96 32.8 52.5 34.28 60.8 35.76 51.86 37.24 69.93 38.72 78.95 40.2 61.11 41.68 75.9 43.15 68.71 44.63 69.96 46.11 54.75 47.59 36.67 49.07 28.47 50.55 31.21 52.03 31.18 53.51 32.37 54.98 26.66 56.46 30.01 57.94 13.55 59.42 26.29 60.9 31.81 62.38 48.07 63.86 55.6 65.34 60.32 66.81 59.19 68.29 61.96 69.77 75.82 71.25 69.14 72.73 78.17 74.21 75.09 75.69 61.43 77.17 53.09 78.64 46.26 80.12 28.18 81.6 34.49 83.08 34.54 84.56 8.68 86.04 21.39 87.52 26.53 89 16.78 90.47 30.55 91.95 32.22 93.43 34.54 94.91 56.41 96.39 52.03 97.87 53.7 99.35 70.49 100.83 58.27 102.3 64.19 103.78 70.3 105.26 58.49 106.74 58.05 108.22 58.78 109.7 44.8 111.18 27.73 112.65 21.96 114.13 26.22 115.61 30.23 117.09 7.24 118.57 11.41 120.05 18.29 121.53 26.15 123.01 25.43 124.48 38.76 125.96 40.92 127.44 54.97 128.92 52.82 130.4 62.13 131.88 63.14 133.36 78.37 134.84 54.74 136.31 68.75 137.79 52.74 139.27 61.02 140.75 49.77 142.23 23.94 143.71 40.71 145.19 36.1 146.67 13.38 148.14 17.55 149.62 9.18 151.1 20.7 152.58 18.51 154.06 33.33 155.54 42.17 157.02 52.11 158.5 45.42 159.97 55.37 161.45 61.03 162.93 65.27 164.41 66.37" id="img-0ef873d2-36"/>
      </g>
      <g stroke-width="0.71" fill="#000000" fill-opacity="0.000" class="geometry color_Observation_1" stroke-dasharray="none" stroke="#00BFFF" id="img-0ef873d2-37">
        <path fill="none" d="M18.02,39.65 L 19.5 42.38 20.97 39.15 22.45 35.19 23.93 40.35 25.41 34.62 26.89 39.68 28.37 21.6 29.85 24.92 31.33 43.74 32.8 44.02 34.28 48.24 35.76 35.74 37.24 51.02 38.72 58.25 40.2 39.74 41.68 54.98 43.15 49.3 44.63 52.95 46.11 40.77 47.59 26.06 49.07 21.24 50.55 27.04 52.03 29.45 53.51 32.23 54.98 27.1 56.46 29.94 57.94 11.92 59.42 22.18 60.9 24.51 62.38 37.15 63.86 40.96 65.34 42.18 66.81 38.09 68.29 38.72 69.77 51.44 71.25 44.75 72.73 54.9 74.21 54 75.69 43.4 77.17 38.74 78.64 35.91 80.12 21.83 81.6 31.79 83.08 34.86 84.56 11.15 86.04 24.98 87.52 30.15 89 19.37 90.47 31.2 91.95 30.21 93.43 29.45 94.91 48.14 96.39 40.8 97.87 40.06 99.35 55.25 100.83 42.41 102.3 48.83 103.78 56.54 105.26 47.37 106.74 50.39 108.22 55.18 109.7 45.53 111.18 32.74 112.65 30.86 114.13 38.34 115.61 44.65 117.09 22.9 118.57 27.18 120.05 33.1 121.53 39.05 123.01 35.7 124.48 45.96 125.96 44.95 127.44 56.02 128.92 51.43 130.4 59.08 131.88 59.41 133.36 75.04 134.84 52.89 136.31 69.36 137.79 56.61 139.27 68.7 140.75 61.48 142.23 39.58 143.71 59.85 145.19 58.03 146.67 37.15 148.14 42.06 149.62 33.3 151.1 43.32 152.58 38.69 154.06 50.34 155.54 55.56 157.02 61.78 158.5 51.59 159.97 58.56 161.45 62.02 162.93 65.05 164.41 66.01" id="img-0ef873d2-38"/>
      </g>
    </g>
  </g>
</g>
  <g class="guide ylabels" font-size="2.82" font-family="'PT Sans Caption','Helvetica Neue','Helvetica',sans-serif" fill="#6C606B" id="img-0ef873d2-39">
    <text x="13.54" y="81.83" text-anchor="end" dy="0.35em" id="img-0ef873d2-40">0</text>
    <text x="13.54" y="56.89" text-anchor="end" dy="0.35em" id="img-0ef873d2-41">1</text>
    <text x="13.54" y="31.94" text-anchor="end" dy="0.35em" id="img-0ef873d2-42">2</text>
    <text x="13.54" y="7" text-anchor="end" dy="0.35em" id="img-0ef873d2-43">3</text>
  </g>
  <g font-size="3.88" font-family="'PT Sans','Helvetica Neue','Helvetica',sans-serif" fill="#564A55" stroke="#000000" stroke-opacity="0.000" id="img-0ef873d2-44">
    <text x="9.11" y="44.42" text-anchor="end" dy="0.35em" id="img-0ef873d2-45">Y</text>
  </g>
</g>
<defs>
  <clipPath id="img-0ef873d2-17">
  <path d="M14.54,5 L 166.41 5 166.41 83.83 14.54 83.83" />
</clipPath>
</defs>
</svg>
