<?xml version="1.0" encoding="UTF-8"?>
<svg xmlns="http://www.w3.org/2000/svg"
     xmlns:xlink="http://www.w3.org/1999/xlink"
     xmlns:gadfly="http://www.gadflyjl.org/ns"
     version="1.2"
     width="152.4mm" height="101.6mm" viewBox="0 0 152.4 101.6"
     stroke="none"
     fill="#000000"
     stroke-width="0.3"
     font-size="3.88"
>
<g class="plotroot xscalable yscalable" id="img-0ef873d2-1">
  <g font-size="3.88" font-family="'PT Sans','Helvetica Neue','Helvetica',sans-serif" fill="#564A55" stroke="#000000" stroke-opacity="0.000" id="img-0ef873d2-2">
    <text x="69.74" y="89.99" text-anchor="middle" dy="0.6em">X</text>
  </g>
  <g class="guide xlabels" font-size="2.82" font-family="'PT Sans Caption','Helvetica Neue','Helvetica',sans-serif" fill="#6C606B" id="img-0ef873d2-3">
    <text x="16.84" y="83.32" text-anchor="middle" dy="0.6em">0</text>
    <text x="69.74" y="83.32" text-anchor="middle" dy="0.6em">50</text>
    <text x="122.64" y="83.32" text-anchor="middle" dy="0.6em">100</text>
  </g>
  <g class="guide colorkey" id="img-0ef873d2-4">
    <g fill="#4C404B" font-size="2.82" font-family="'PT Sans','Helvetica Neue','Helvetica',sans-serif" id="img-0ef873d2-5">
      <text x="128.45" y="40.03" dy="0.35em" id="img-0ef873d2-6" class="color_Signal_1">Signal 1</text>
      <text x="128.45" y="43.66" dy="0.35em" id="img-0ef873d2-7" class="color_Signal_2">Signal 2</text>
      <text x="128.45" y="47.28" dy="0.35em" id="img-0ef873d2-8" class="color_Signal_3">Signal 3</text>
      <text x="128.45" y="50.91" dy="0.35em" id="img-0ef873d2-9" class="color_Signal_4">Signal 4</text>
    </g>
    <g stroke="#000000" stroke-opacity="0.000" id="img-0ef873d2-10">
      <rect x="125.64" y="39.12" width="1.81" height="1.81" id="img-0ef873d2-11" fill="#00BFFF" class="color_Signal_1"/>
      <rect x="125.64" y="42.75" width="1.81" height="1.81" id="img-0ef873d2-12" fill="#D4CA3A" class="color_Signal_2"/>
      <rect x="125.64" y="46.38" width="1.81" height="1.81" id="img-0ef873d2-13" fill="#FF6DAE" class="color_Signal_3"/>
      <rect x="125.64" y="50" width="1.81" height="1.81" id="img-0ef873d2-14" fill="#00B78D" class="color_Signal_4"/>
    </g>
    <g fill="#362A35" font-size="3.88" font-family="'PT Sans','Helvetica Neue','Helvetica',sans-serif" stroke="#000000" stroke-opacity="0.000" id="img-0ef873d2-15">
      <text x="125.64" y="36.21" id="img-0ef873d2-16">Mixed signals</text>
    </g>
  </g>
<g clip-path="url(#img-0ef873d2-17)">
  <g id="img-0ef873d2-18">
    <g pointer-events="visible" opacity="1" fill="#000000" fill-opacity="0.000" stroke="#000000" stroke-opacity="0.000" class="guide background" id="img-0ef873d2-19">
      <rect x="14.84" y="5" width="109.8" height="77.32" id="img-0ef873d2-20"/>
    </g>
    <g class="guide ygridlines xfixed" stroke-dasharray="0.5,0.5" stroke-width="0.2" stroke="#D0D0E0" id="img-0ef873d2-21">
      <path fill="none" d="M14.84,80.32 L 124.64 80.32" id="img-0ef873d2-22"/>
      <path fill="none" d="M14.84,55.88 L 124.64 55.88" id="img-0ef873d2-23"/>
      <path fill="none" d="M14.84,31.44 L 124.64 31.44" id="img-0ef873d2-24"/>
      <path fill="none" d="M14.84,7 L 124.64 7" id="img-0ef873d2-25"/>
    </g>
    <g class="guide xgridlines yfixed" stroke-dasharray="0.5,0.5" stroke-width="0.2" stroke="#D0D0E0" id="img-0ef873d2-26">
      <path fill="none" d="M16.84,5 L 16.84 82.32" id="img-0ef873d2-27"/>
      <path fill="none" d="M69.74,5 L 69.74 82.32" id="img-0ef873d2-28"/>
      <path fill="none" d="M122.64,5 L 122.64 82.32" id="img-0ef873d2-29"/>
    </g>
    <g class="plotpanel" id="img-0ef873d2-30">
      <g stroke-width="0.3" fill="#000000" fill-opacity="0.000" class="geometry color_Signal_4" stroke-dasharray="none" stroke="#00B78D" id="img-0ef873d2-31">
        <path fill="none" d="M17.89,35.82 L 18.95 28.64 20.01 22.69 21.07 18.45 22.13 16.26 23.18 16.25 24.24 18.37 25.3 22.39 26.36 27.9 27.42 34.35 28.47 41.13 29.53 47.57 30.59 53.07 31.65 57.09 32.71 59.22 33.77 59.24 34.82 57.1 35.88 52.97 36.94 47.18 38 40.2 39.06 32.65 40.11 25.15 41.17 18.37 42.23 12.87 43.29 9.14 44.35 7.48 45.4 8.03 46.46 10.73 47.52 15.33 48.58 21.4 49.64 28.4 50.69 35.7 51.75 42.66 52.81 48.64 53.87 53.13 54.93 55.73 55.98 56.22 57.04 54.56 58.1 50.93 59.16 45.66 60.22 39.25 61.27 32.29 62.33 25.43 63.39 19.31 64.45 14.51 65.51 11.48 66.56 10.54 67.62 11.8 68.68 15.2 69.74 20.45 70.8 27.15 71.85 34.73 72.91 42.55 73.97 49.98 75.03 56.39 76.09 61.25 77.14 64.19 78.2 64.99 79.26 63.63 80.32 60.29 81.38 55.3 82.43 49.19 83.49 42.53 84.55 35.98 85.61 30.18 86.67 25.7 87.72 22.99 88.78 22.35 89.84 23.88 90.9 27.5 91.96 32.93 93.01 39.75 94.07 47.38 95.13 55.2 96.19 62.55 97.25 68.81 98.3 73.48 99.36 76.18 100.42 76.7 101.48 75.04 102.54 71.37 103.59 66.07 104.65 59.63 105.71 52.66 106.77 45.82 107.83 39.73 108.88 34.96 109.94 31.96 111 31.02 112.06 32.23 113.12 35.5 114.17 40.54 115.23 46.92 116.29 54.06 117.35 61.34 118.41 68.09 119.47 73.72 120.52 77.72 121.58 79.71 122.64 79.52" id="img-0ef873d2-32"/>
      </g>
      <g stroke-width="0.3" fill="#000000" fill-opacity="0.000" class="geometry color_Signal_3" stroke-dasharray="none" stroke="#FF6DAE" id="img-0ef873d2-33">
        <path fill="none" d="M17.89,42.14 L 18.95 54.68 20.01 54.31 21.07 50.78 22.13 63.08 23.18 51.87 24.24 59.66 25.3 20.21 26.36 21.21 27.42 51.64 28.47 45.4 29.53 47.23 30.59 17.24 31.65 43.17 32.71 55.21 33.77 18.92 34.82 50.91 35.88 43.91 36.94 56.85 38 39.97 39.06 18.71 40.11 16.75 41.17 34.89 42.23 45.12 43.29 54.31 44.35 45.9 45.4 50.91 46.46 12.91 47.52 28.41 48.58 26.91 49.64 44.68 50.69 44.84 51.75 40.27 52.81 26.28 53.87 23.02 54.93 45.34 55.98 31.74 57.04 53.3 58.1 55.16 59.16 39.66 60.22 36.94 61.27 38.36 62.33 17.62 63.39 43.27 64.45 54.07 65.51 10.65 66.56 38.68 67.62 47.55 68.68 23.04 69.74 40.96 70.8 32.33 71.85 23.26 72.91 52.06 73.97 30.25 75.03 22.39 76.09 47.28 77.14 19.19 78.2 30.97 79.26 47.44 80.32 32.81 81.38 43.71 82.43 59.22 83.49 46.97 84.55 28.46 85.61 30.58 86.67 49.7 87.72 64.78 88.78 22.8 89.84 29.67 90.9 37.64 91.96 43.87 93.01 30.49 94.07 42.96 95.13 33.15 96.19 47.5 97.25 32.24 98.3 42.57 99.36 40.51 100.42 70.62 101.48 28.87 102.54 64.82 103.59 45.14 104.65 75.26 105.71 68.09 106.77 32.02 107.83 77.83 108.88 79.03 109.94 41.11 111 51.68 112.06 33.3 113.12 49.67 114.17 35.55 115.23 52 116.29 55.1 117.35 60.01 118.41 33.27 119.47 41.29 120.52 44.09 121.58 48.03 122.64 50.1" id="img-0ef873d2-34"/>
      </g>
      <g stroke-width="0.3" fill="#000000" fill-opacity="0.000" class="geometry color_Signal_2" stroke-dasharray="none" stroke="#D4CA3A" id="img-0ef873d2-35">
        <path fill="none" d="M17.89,35.98 L 18.95 35.98 20.01 30.75 21.07 25.66 22.13 30.5 23.18 25.77 24.24 32.66 25.3 17.81 26.36 24.65 27.42 47.13 28.47 51.58 29.53 59.71 30.59 50.95 31.65 68.65 32.71 77.49 33.77 60.01 34.82 74.5 35.88 67.45 36.94 68.68 38 53.78 39.06 36.07 40.11 28.04 41.17 30.72 42.23 30.69 43.29 31.86 44.35 26.26 45.4 29.54 46.46 13.42 47.52 25.9 48.58 31.31 49.64 47.24 50.69 54.62 51.75 59.24 52.81 58.13 53.87 60.85 54.93 74.42 55.98 67.88 57.04 76.73 58.1 73.7 59.16 60.33 60.22 52.15 61.27 45.46 62.33 27.75 63.39 33.93 64.45 33.98 65.51 8.65 66.56 21.09 67.62 26.13 68.68 16.58 69.74 30.07 70.8 31.7 71.85 33.98 72.91 55.4 73.97 51.11 75.03 52.75 76.09 69.2 77.14 57.23 78.2 63.03 79.26 69.02 80.32 57.45 81.38 57.01 82.43 57.73 83.49 44.03 84.55 27.31 85.61 21.66 86.67 25.83 87.72 29.76 88.78 7.23 89.84 11.32 90.9 18.06 91.96 25.76 93.01 25.05 94.07 38.11 95.13 40.23 96.19 53.99 97.25 51.89 98.3 61.01 99.36 62 100.42 76.92 101.48 53.77 102.54 67.5 103.59 51.81 104.65 59.92 105.71 48.91 106.77 23.59 107.83 40.03 108.88 35.51 109.94 13.25 111 17.33 112.06 9.13 113.12 20.42 114.17 18.27 115.23 32.79 116.29 41.45 117.35 51.19 118.41 44.64 119.47 54.39 120.52 59.93 121.58 64.09 122.64 65.17" id="img-0ef873d2-36"/>
      </g>
      <g stroke-width="0.3" fill="#000000" fill-opacity="0.000" class="geometry color_Signal_1" stroke-dasharray="none" stroke="#00BFFF" id="img-0ef873d2-37">
        <path fill="none" d="M17.89,38.98 L 18.95 41.66 20.01 38.5 21.07 34.62 22.13 39.67 23.18 34.06 24.24 39.02 25.3 21.3 26.36 24.55 27.42 42.99 28.47 43.26 29.53 47.4 30.59 35.15 31.65 50.13 32.71 57.21 33.77 39.08 34.82 54 35.88 48.44 36.94 52.02 38 40.09 39.06 25.68 40.11 20.95 41.17 26.63 42.23 29 43.29 31.72 44.35 26.69 45.4 29.47 46.46 11.82 47.52 21.87 48.58 24.15 49.64 36.54 50.69 40.27 51.75 41.47 52.81 37.46 53.87 38.08 54.93 50.53 55.98 43.98 57.04 53.93 58.1 53.04 59.16 42.66 60.22 38.09 61.27 35.32 62.33 21.53 63.39 31.29 64.45 34.29 65.51 11.07 66.56 24.61 67.62 29.68 68.68 19.12 69.74 30.71 70.8 29.74 71.85 28.99 72.91 47.3 73.97 40.12 75.03 39.39 76.09 54.27 77.14 41.69 78.2 47.98 79.26 55.54 80.32 46.55 81.38 49.51 82.43 54.2 83.49 44.75 84.55 32.22 85.61 30.38 86.67 37.7 87.72 43.88 88.78 22.57 89.84 26.77 90.9 32.57 91.96 38.4 93.01 35.12 94.07 45.17 95.13 44.18 96.19 55.02 97.25 50.53 98.3 58.03 99.36 58.34 100.42 73.66 101.48 51.96 102.54 68.09 103.59 55.6 104.65 67.44 105.71 60.38 106.77 38.92 107.83 58.78 108.88 57 109.94 36.54 111 41.35 112.06 32.76 113.12 42.58 114.17 38.04 115.23 49.46 116.29 54.58 117.35 60.67 118.41 50.68 119.47 57.51 120.52 60.9 121.58 63.87 122.64 64.81" id="img-0ef873d2-38"/>
      </g>
    </g>
  </g>
</g>
  <g class="guide ylabels" font-size="2.82" font-family="'PT Sans Caption','Helvetica Neue','Helvetica',sans-serif" fill="#6C606B" id="img-0ef873d2-39">
    <text x="13.84" y="80.32" text-anchor="end" dy="0.35em" id="img-0ef873d2-40">0</text>
    <text x="13.84" y="55.88" text-anchor="end" dy="0.35em" id="img-0ef873d2-41">1</text>
    <text x="13.84" y="31.44" text-anchor="end" dy="0.35em" id="img-0ef873d2-42">2</text>
    <text x="13.84" y="7" text-anchor="end" dy="0.35em" id="img-0ef873d2-43">3</text>
  </g>
  <g font-size="3.88" font-family="'PT Sans','Helvetica Neue','Helvetica',sans-serif" fill="#564A55" stroke="#000000" stroke-opacity="0.000" id="img-0ef873d2-44">
    <text x="9.16" y="43.66" text-anchor="end" dy="0.35em" id="img-0ef873d2-45">Y</text>
  </g>
</g>
<defs>
  <clipPath id="img-0ef873d2-17">
  <path d="M14.84,5 L 124.64 5 124.64 82.32 14.84 82.32" />
</clipPath>
</defs>
</svg>
