<?xml version="1.0" encoding="UTF-8"?>
<svg xmlns="http://www.w3.org/2000/svg"
     xmlns:xlink="http://www.w3.org/1999/xlink"
     xmlns:gadfly="http://www.gadflyjl.org/ns"
     version="1.2"
     width="203.2mm" height="101.6mm" viewBox="0 0 203.2 101.6"
     stroke="none"
     fill="#000000"
     stroke-width="0.3"
     font-size="3.88"
>
<g class="plotroot xscalable yscalable" id="img-00ae9e7a-1">
  <g font-size="3.88" font-family="'PT Sans','Helvetica Neue','Helvetica',sans-serif" fill="#564A55" stroke="#000000" stroke-opacity="0.000" id="img-00ae9e7a-2">
    <text x="94.07" y="90.88" text-anchor="middle" dy="0.6em">X</text>
  </g>
  <g class="guide xlabels" font-size="2.82" font-family="'PT Sans Caption','Helvetica Neue','Helvetica',sans-serif" fill="#6C606B" id="img-00ae9e7a-3">
    <text x="18.96" y="84.83" text-anchor="middle" dy="0.6em">0</text>
    <text x="94.07" y="84.83" text-anchor="middle" dy="0.6em">50</text>
    <text x="169.19" y="84.83" text-anchor="middle" dy="0.6em">100</text>
  </g>
  <g class="guide colorkey" id="img-00ae9e7a-4">
    <g fill="#4C404B" font-size="2.82" font-family="'PT Sans','Helvetica Neue','Helvetica',sans-serif" id="img-00ae9e7a-5">
      <text x="175" y="42.61" dy="0.35em" id="img-00ae9e7a-6" class="color_Signal_1">Signal 1</text>
      <text x="175" y="46.22" dy="0.35em" id="img-00ae9e7a-7" class="color_Signal_2">Signal 2</text>
      <text x="175" y="49.83" dy="0.35em" id="img-00ae9e7a-8" class="color_Signal_3">Signal 3</text>
    </g>
    <g stroke="#000000" stroke-opacity="0.000" id="img-00ae9e7a-9">
      <rect x="172.19" y="41.71" width="1.8" height="1.8" id="img-00ae9e7a-10" fill="#00BFFF" class="color_Signal_1"/>
      <rect x="172.19" y="45.32" width="1.8" height="1.8" id="img-00ae9e7a-11" fill="#D4CA3A" class="color_Signal_2"/>
      <rect x="172.19" y="48.93" width="1.8" height="1.8" id="img-00ae9e7a-12" fill="#FF6DAE" class="color_Signal_3"/>
    </g>
    <g fill="#362A35" font-size="3.88" font-family="'PT Sans','Helvetica Neue','Helvetica',sans-serif" stroke="#000000" stroke-opacity="0.000" id="img-00ae9e7a-13">
      <text x="172.19" y="38.79" id="img-00ae9e7a-14">Unmixed signals</text>
    </g>
  </g>
<g clip-path="url(#img-00ae9e7a-15)">
  <g id="img-00ae9e7a-16">
    <g pointer-events="visible" opacity="1" fill="#000000" fill-opacity="0.000" stroke="#000000" stroke-opacity="0.000" class="guide background" id="img-00ae9e7a-17">
      <rect x="16.96" y="5" width="154.23" height="78.83" id="img-00ae9e7a-18"/>
    </g>
    <g class="guide ygridlines xfixed" stroke-dasharray="0.5,0.5" stroke-width="0.2" stroke="#D0D0E0" id="img-00ae9e7a-19">
      <path fill="none" d="M16.96,81.83 L 171.19 81.83" id="img-00ae9e7a-20"/>
      <path fill="none" d="M16.96,63.13 L 171.19 63.13" id="img-00ae9e7a-21"/>
      <path fill="none" d="M16.96,44.42 L 171.19 44.42" id="img-00ae9e7a-22"/>
      <path fill="none" d="M16.96,25.71 L 171.19 25.71" id="img-00ae9e7a-23"/>
      <path fill="none" d="M16.96,7 L 171.19 7" id="img-00ae9e7a-24"/>
    </g>
    <g class="guide xgridlines yfixed" stroke-dasharray="0.5,0.5" stroke-width="0.2" stroke="#D0D0E0" id="img-00ae9e7a-25">
      <path fill="none" d="M18.96,5 L 18.96 83.83" id="img-00ae9e7a-26"/>
      <path fill="none" d="M94.07,5 L 94.07 83.83" id="img-00ae9e7a-27"/>
      <path fill="none" d="M169.19,5 L 169.19 83.83" id="img-00ae9e7a-28"/>
    </g>
    <g class="plotpanel" id="img-00ae9e7a-29">
      <g stroke-width="0.71" fill="#000000" fill-opacity="0.000" class="geometry color_Signal_3" stroke-dasharray="none" stroke="#FF6DAE" id="img-00ae9e7a-30">
        <path fill="none" d="M20.46,44.39 L 21.96 64.5 23.46 64.95 24.97 60.59 26.47 80.25 27.97 64.12 29.47 76.84 30.98 17.68 32.48 20 33.98 67.04 35.48 58.3 36.99 61.79 38.49 16.88 39.99 57.01 41.49 76.01 42.99 21.5 44.5 70.82 46 60.85 47.5 81.18 49 56.13 50.51 24.38 52.01 21.97 53.51 50.05 55.01 66.04 56.52 80.38 58.02 67.9 59.52 75.74 61.02 18.1 62.53 41.76 64.03 39.49 65.53 66.47 67.03 66.61 68.53 59.52 70.04 38.07 71.54 32.9 73.04 66.61 74.54 45.7 76.05 78.21 77.55 80.75 79.05 56.89 80.55 52.4 82.06 54.2 83.56 22.25 85.06 60.78 86.56 76.7 88.06 10.09 89.57 52.07 91.07 64.86 92.57 26.82 94.07 53.26 95.58 39.26 97.08 24.57 98.58 67.43 100.08 33.33 101.59 20.41 103.09 57.31 104.59 13.65 106.09 30.63 107.6 54.77 109.1 31.62 110.6 47.32 112.1 70.02 113.6 50.53 115.11 21.51 116.61 23.86 118.11 52.05 119.61 74.07 121.12 9.32 122.62 18.83 124.12 30 125.62 38.53 127.13 17.22 128.63 35.25 130.13 19.41 131.63 40.34 133.14 16.28 134.64 31.18 136.14 27.31 137.64 72.41 139.14 8.32 140.65 62.42 142.15 31.99 143.65 77.34 145.15 66.05 146.66 10.84 148.16 80.18 149.66 81.7 151.16 23.75 152.67 39.58 154.17 11.38 155.67 36.06 157.17 14.38 158.68 39.24 160.18 43.82 161.68 51.21 163.18 10.53 164.68 22.76 166.19 27.11 167.69 33.29 169.19 36.68" id="img-00ae9e7a-31"/>
      </g>
      <g stroke-width="0.71" fill="#000000" fill-opacity="0.000" class="geometry color_Signal_2" stroke-dasharray="none" stroke="#D4CA3A" id="img-00ae9e7a-32">
        <path fill="none" d="M20.46,37.54 L 21.96 28.27 23.46 20.8 24.97 15.73 26.47 13.42 27.97 14.27 29.47 17.98 30.98 24.59 32.48 33.03 33.98 42.6 35.48 52.82 36.99 62.5 38.49 71.02 39.99 77.13 41.49 80.66 42.99 81.49 44.5 78.9 46 73.71 47.5 66.05 49 56.89 50.51 46.9 52.01 36.86 53.51 27.65 55.01 20.24 56.52 15.26 58.02 13.24 59.52 14.19 61.02 18.33 62.53 24.78 64.03 33.34 65.53 43.04 67.03 53.23 68.53 62.91 70.04 71.26 71.54 77.41 73.04 80.74 74.54 81.28 76.05 78.6 77.55 73.23 79.05 65.64 80.55 56.34 82.06 46.22 83.56 36.33 85.06 27.17 86.56 19.9 88.06 15.39 89.57 13.34 91.07 14.45 92.57 18.69 94.07 25.27 95.58 33.97 97.08 43.89 98.58 53.92 100.08 63.66 101.59 71.89 103.09 77.75 104.59 81.22 106.09 81.46 107.6 78.65 109.1 73.24 110.6 65.4 112.1 55.94 113.6 45.88 115.11 36.02 116.61 27.08 118.11 19.89 119.61 15.2 121.12 13.73 122.62 15.03 124.12 19.24 125.62 26.01 127.13 34.84 128.63 44.68 130.13 54.92 131.63 64.4 133.14 72.55 134.64 78.36 136.14 81.51 137.64 81.47 139.14 78.83 140.65 72.98 142.15 65.2 143.65 55.58 145.15 45.47 146.66 35.74 148.16 26.62 149.66 19.65 151.16 15.41 152.67 13.79 154.17 15.39 155.67 19.7 157.17 26.7 158.68 35.43 160.18 45.35 161.68 55.48 163.18 65.11 164.68 73.02 166.19 78.71 167.69 81.65 169.19 81.59" id="img-00ae9e7a-33"/>
      </g>
      <g stroke-width="0.71" fill="#000000" fill-opacity="0.000" class="geometry color_Signal_1" stroke-dasharray="none" stroke="#00BFFF" id="img-00ae9e7a-34">
        <path fill="none" d="M20.46,47.4 L 21.96 45.79 23.46 44.11 24.97 42.44 26.47 40.96 27.97 39.34 29.47 37.94 30.98 36.2 32.48 34.86 33.98 33.83 35.48 32.53 36.99 31.33 38.49 29.89 39.99 28.94 41.49 27.9 42.99 26.45 44.5 25.61 46 24.46 47.5 23.51 49 22.35 50.51 21.21 52.01 20.3 53.51 19.65 55.01 19.03 56.52 18.5 58.02 17.94 59.52 17.61 61.02 17.02 62.53 17.01 64.03 16.95 65.53 17.16 67.03 17.3 68.53 17.47 70.04 17.62 71.54 17.92 73.04 18.48 74.54 18.77 76.05 19.4 77.55 19.9 79.05 20.3 80.55 20.85 82.06 21.51 83.56 22.04 85.06 23.05 86.56 24.02 88.06 24.62 89.57 25.93 91.07 27.17 92.57 28.22 94.07 29.71 95.58 31.05 97.08 32.45 98.58 34.22 100.08 35.58 101.59 37.08 103.09 38.86 104.59 40.18 106.09 41.83 107.6 43.49 109.1 44.87 110.6 46.45 112.1 48.05 113.6 49.41 115.11 50.72 116.61 52.21 118.11 53.87 119.61 55.51 121.12 56.68 122.62 58.29 124.12 59.92 125.62 61.54 127.13 62.99 128.63 64.64 130.13 66.06 131.63 67.64 133.14 68.9 134.64 70.31 136.14 71.51 137.64 72.91 139.14 73.58 140.65 74.83 142.15 75.51 143.65 76.53 145.15 77.16 146.66 77.47 148.16 78.42 149.66 78.94 151.16 79.09 152.67 79.61 154.17 79.85 155.67 80.34 157.17 80.53 158.68 80.93 160.18 81.14 161.68 81.3 163.18 81.09 164.68 81.08 166.19 80.92 167.69 80.66 169.19 80.26" id="img-00ae9e7a-35"/>
      </g>
    </g>
  </g>
</g>
  <g class="guide ylabels" font-size="2.82" font-family="'PT Sans Caption','Helvetica Neue','Helvetica',sans-serif" fill="#6C606B" id="img-00ae9e7a-36">
    <text x="15.96" y="81.83" text-anchor="end" dy="0.35em" id="img-00ae9e7a-37">0.0</text>
    <text x="15.96" y="63.13" text-anchor="end" dy="0.35em" id="img-00ae9e7a-38">0.2</text>
    <text x="15.96" y="44.42" text-anchor="end" dy="0.35em" id="img-00ae9e7a-39">0.4</text>
    <text x="15.96" y="25.71" text-anchor="end" dy="0.35em" id="img-00ae9e7a-40">0.6</text>
    <text x="15.96" y="7" text-anchor="end" dy="0.35em" id="img-00ae9e7a-41">0.8</text>
  </g>
  <g font-size="3.88" font-family="'PT Sans','Helvetica Neue','Helvetica',sans-serif" fill="#564A55" stroke="#000000" stroke-opacity="0.000" id="img-00ae9e7a-42">
    <text x="9.11" y="44.42" text-anchor="end" dy="0.35em" id="img-00ae9e7a-43">Y</text>
  </g>
</g>
<defs>
  <clipPath id="img-00ae9e7a-15">
  <path d="M16.96,5 L 171.19 5 171.19 83.83 16.96 83.83" />
</clipPath>
</defs>
</svg>
