<?xml version="1.0" encoding="UTF-8"?>
<svg xmlns="http://www.w3.org/2000/svg"
     xmlns:xlink="http://www.w3.org/1999/xlink"
     xmlns:gadfly="http://www.gadflyjl.org/ns"
     version="1.2"
     width="203.2mm" height="101.6mm" viewBox="0 0 203.2 101.6"
     stroke="none"
     fill="#000000"
     stroke-width="0.3"
     font-size="3.88"
>
<g class="plotroot xscalable yscalable" id="img-ad81fe11-1">
  <g font-size="3.88" font-family="'PT Sans','Helvetica Neue','Helvetica',sans-serif" fill="#564A55" stroke="#000000" stroke-opacity="0.000" id="img-ad81fe11-2">
    <g transform="translate(100.89,90.88)">
      <g class="primitive">
        <text text-anchor="middle" dy="0.6em">X</text>
      </g>
    </g>
  </g>
  <g class="guide xlabels" font-size="2.82" font-family="'PT Sans Caption','Helvetica Neue','Helvetica',sans-serif" fill="#6C606B" id="img-ad81fe11-3">
    <g transform="translate(18.89,84.83)">
      <g class="primitive">
        <text text-anchor="middle" dy="0.6em">0</text>
      </g>
    </g>
    <g transform="translate(100.89,84.83)">
      <g class="primitive">
        <text text-anchor="middle" dy="0.6em">50</text>
      </g>
    </g>
    <g transform="translate(182.9,84.83)">
      <g class="primitive">
        <text text-anchor="middle" dy="0.6em">100</text>
      </g>
    </g>
  </g>
  <g class="guide colorkey" id="img-ad81fe11-4">
    <g fill="#4C404B" font-size="2.82" font-family="'PT Sans','Helvetica Neue','Helvetica',sans-serif" id="img-ad81fe11-5">
      <g transform="translate(188.71,45.41)">
        <g class="primitive">
          <text dy="0.35em">Signal 1</text>
        </g>
      </g>
      <g transform="translate(188.71,49.01)">
        <g class="primitive">
          <text dy="0.35em">Signal 2</text>
        </g>
      </g>
      <g transform="translate(188.71,52.62)">
        <g class="primitive">
          <text dy="0.35em">Signal 3</text>
        </g>
      </g>
    </g>
    <g stroke="#000000" stroke-opacity="0.000" id="img-ad81fe11-6">
      <g transform="translate(186.8,45.41)" fill="#FF0000">
        <path d="M-0.9,-0.9 L 0.9 -0.9 0.9 0.9 -0.9 0.9 z" class="primitive"/>
      </g>
      <g transform="translate(186.8,49.01)" fill="#0000FF">
        <path d="M-0.9,-0.9 L 0.9 -0.9 0.9 0.9 -0.9 0.9 z" class="primitive"/>
      </g>
      <g transform="translate(186.8,52.62)" fill="#008000">
        <path d="M-0.9,-0.9 L 0.9 -0.9 0.9 0.9 -0.9 0.9 z" class="primitive"/>
      </g>
    </g>
    <g fill="#362A35" font-size="3.88" font-family="'PT Sans','Helvetica Neue','Helvetica',sans-serif" stroke="#000000" stroke-opacity="0.000" id="img-ad81fe11-7">
      <g transform="translate(185.9,41.2)">
        <g class="primitive">
          <text>Sources</text>
        </g>
      </g>
    </g>
  </g>
  <g clip-path="url(#img-ad81fe11-8)">
    <g id="img-ad81fe11-9">
      <g pointer-events="visible" opacity="1" fill="#000000" fill-opacity="0.000" stroke="#000000" stroke-opacity="0.000" class="guide background" id="img-ad81fe11-10">
        <g transform="translate(100.89,47.21)">
          <path d="M-84.01,-36.62 L 84.01 -36.62 84.01 36.62 -84.01 36.62 z" class="primitive"/>
        </g>
      </g>
      <g class="guide ygridlines xfixed" stroke-dasharray="0.5,0.5" stroke-width="0.2" stroke="#D0D0E0" id="img-ad81fe11-11">
        <g transform="translate(100.89,81.83)">
          <path fill="none" d="M-84.01,0 L 84.01 0" class="primitive"/>
        </g>
        <g transform="translate(100.89,47.21)">
          <path fill="none" d="M-84.01,0 L 84.01 0" class="primitive"/>
        </g>
        <g transform="translate(100.89,12.59)">
          <path fill="none" d="M-84.01,0 L 84.01 0" class="primitive"/>
        </g>
      </g>
      <g class="guide xgridlines yfixed" stroke-dasharray="0.5,0.5" stroke-width="0.2" stroke="#D0D0E0" id="img-ad81fe11-12">
        <g transform="translate(18.89,47.21)">
          <path fill="none" d="M0,-36.62 L 0 36.62" class="primitive"/>
        </g>
        <g transform="translate(100.89,47.21)">
          <path fill="none" d="M0,-36.62 L 0 36.62" class="primitive"/>
        </g>
        <g transform="translate(182.9,47.21)">
          <path fill="none" d="M0,-36.62 L 0 36.62" class="primitive"/>
        </g>
      </g>
      <g class="plotpanel" id="img-ad81fe11-13">
        <metadata>
          <boundingbox value="16.885945638020843mm 10.585655381944449mm 168.01660834418402mm 73.24874403211805mm"/>
          <unitbox value="-1.2193887071503509 1.0288813902396898 102.4387774143007 -1.0577627804793799"/>
        </metadata>
        <g stroke-width="0.71" fill="#000000" fill-opacity="0.000" class="geometry" id="img-ad81fe11-14">
          <g stroke-dasharray="none" stroke="#008000" id="img-ad81fe11-15">
            <g transform="translate(101.71,46.98)">
              <path fill="none" d="M-81.19,-1.05 L -79.55 17.58 -77.91 17.91 -76.27 13.77 -74.63 32.03 -72.99 16.99 -71.35 28.84 -69.71 -26.25 -68.07 -24.05 -66.43 19.84 -64.79 11.75 -63.15 15.06 -61.51 -26.73 -59.87 10.69 -58.23 28.39 -56.59 -22.41 -54.95 23.51 -53.31 14.15 -51.67 33.01 -50.03 9.58 -48.38 -20.11 -46.74 -22.46 -45.1 3.61 -43.46 18.44 -41.82 31.75 -40.18 20.09 -38.54 27.4 -36.9 -26.27 -35.26 -4.18 -33.62 -6.23 -31.98 18.99 -30.34 19.21 -28.7 12.69 -27.06 -7.22 -25.42 -11.98 -23.78 19.47 -22.14 -0.01 -20.5 30.27 -18.86 32.6 -17.22 10.31 -15.58 6.07 -13.94 7.67 -12.3 -22.17 -10.66 13.67 -9.02 28.46 -7.38 -33.62 -5.74 5.49 -4.1 17.44 -2.46 -17.93 -0.82 6.77 0.82 -6.17 2.46 -19.74 4.1 20.3 5.74 -11.36 7.38 -23.3 9.02 11.16 10.66 -29.46 12.3 -13.61 13.94 8.89 15.58 -12.7 17.22 1.89 18.86 23 20.5 4.78 22.14 -22.31 23.78 -20.17 25.42 6.06 27.06 26.57 28.7 -33.74 30.34 -24.84 31.98 -14.37 33.62 -6.34 35.26 -26.09 36.9 -9.18 38.54 -23.83 40.18 -4.22 41.82 -26.54 43.46 -12.58 45.1 -16.14 46.74 25.91 48.38 -33.82 50.03 16.56 51.67 -11.84 53.31 30.35 54.95 19.76 56.59 -31.76 58.23 32.79 59.87 34.16 61.51 -19.86 63.15 -5.12 64.79 -31.37 66.43 -8.33 68.07 -28.47 69.71 -5.23 71.35 -0.88 72.99 6.09 74.63 -31.73 76.27 -20.27 77.91 -16.17 79.55 -10.4 81.19 -7.24" class="primitive"/>
            </g>
          </g>
        </g>
        <g stroke-width="0.71" fill="#000000" fill-opacity="0.000" class="geometry" id="img-ad81fe11-16">
          <g stroke-dasharray="none" stroke="#0000FF" id="img-ad81fe11-17">
            <g transform="translate(101.71,46.41)">
              <path fill="none" d="M-81.19,-9.43 L -79.55 -18.75 -77.91 -26.32 -76.27 -31.47 -74.63 -33.74 -72.99 -32.92 -71.35 -29.09 -69.71 -22.59 -68.07 -14 -66.43 -4.09 -64.79 6.26 -63.15 16.12 -61.51 24.61 -59.87 30.98 -58.23 34.64 -56.59 35.29 -54.95 32.85 -53.31 27.55 -51.67 19.86 -50.03 10.47 -48.38 0.22 -46.74 -9.99 -45.1 -19.23 -43.46 -26.68 -41.82 -31.68 -40.18 -33.78 -38.54 -32.78 -36.9 -28.79 -35.26 -22.16 -33.62 -13.47 -31.98 -3.51 -30.34 6.83 -28.7 16.64 -27.06 25.03 -25.42 31.26 -23.78 34.76 -22.14 35.23 -20.5 32.63 -18.86 27.18 -17.22 19.38 -15.58 9.91 -13.94 -0.37 -12.3 -10.54 -10.66 -19.7 -9.02 -27.03 -7.38 -31.88 -5.74 -33.8 -4.1 -32.64 -2.46 -28.49 -0.82 -21.72 0.82 -12.94 2.46 -2.93 4.1 7.41 5.74 17.16 7.38 25.44 9.02 31.53 10.66 34.87 12.3 35.17 13.94 32.4 15.58 26.8 17.22 18.88 18.86 9.35 20.5 -0.95 22.14 -11.09 23.78 -20.17 25.42 -27.38 27.06 -32.07 28.7 -33.82 30.34 -32.48 31.98 -28.17 33.62 -21.27 35.26 -12.4 36.9 -2.35 38.54 7.98 40.18 17.67 41.82 25.85 43.46 31.79 45.1 34.97 46.74 35.09 48.38 32.15 50.03 26.41 51.67 18.38 53.31 8.78 54.95 -1.53 56.59 -11.63 58.23 -20.63 59.87 -27.71 61.51 -32.24 63.15 -33.83 64.79 -32.32 66.43 -27.85 68.07 -20.82 69.71 -11.86 71.35 -1.77 72.99 8.55 74.63 18.17 76.27 26.25 77.91 32.05 79.55 35.06 81.19 35.01" class="primitive"/>
            </g>
          </g>
        </g>
        <g stroke-width="0.71" fill="#000000" fill-opacity="0.000" class="geometry" id="img-ad81fe11-18">
          <g stroke-dasharray="none" stroke="#FF0000" id="img-ad81fe11-19">
            <g transform="translate(101.71,42.42)">
              <path fill="none" d="M-81.19,3.06 L -79.55 1.34 -77.91 -0.38 -76.27 -2.09 -74.63 -3.77 -72.99 -5.44 -71.35 -7.08 -69.71 -8.69 -68.07 -10.27 -66.43 -11.81 -64.79 -13.3 -63.15 -14.76 -61.51 -16.16 -59.87 -17.51 -58.23 -18.81 -56.59 -20.04 -54.95 -21.22 -53.31 -22.33 -51.67 -23.37 -50.03 -24.34 -48.38 -25.24 -46.74 -26.06 -45.1 -26.81 -43.46 -27.48 -41.82 -28.06 -40.18 -28.57 -38.54 -28.99 -36.9 -29.33 -35.26 -29.58 -33.62 -29.74 -31.98 -29.82 -30.34 -29.82 -28.7 -29.72 -27.06 -29.54 -25.42 -29.28 -23.78 -28.93 -22.14 -28.49 -20.5 -27.97 -18.86 -27.37 -17.22 -26.69 -15.58 -25.93 -13.94 -25.09 -12.3 -24.18 -10.66 -23.2 -9.02 -22.15 -7.38 -21.03 -5.74 -19.84 -4.1 -18.59 -2.46 -17.29 -0.82 -15.93 0.82 -14.52 2.46 -13.06 4.1 -11.55 5.74 -10 7.38 -8.42 9.02 -6.81 10.66 -5.16 12.3 -3.49 13.94 -1.8 15.58 -0.09 17.22 1.63 18.86 3.35 20.5 5.08 22.14 6.81 23.78 8.54 25.42 10.26 27.06 11.96 28.7 13.64 30.34 15.3 31.98 16.94 33.62 18.54 35.26 20.12 36.9 21.65 38.54 23.14 40.18 24.58 41.82 25.98 43.46 27.32 45.1 28.61 46.74 29.83 48.38 31 50.03 32.1 51.67 33.13 53.31 34.09 54.95 34.97 56.59 35.78 58.23 36.52 59.87 37.17 61.51 37.74 63.15 38.23 64.79 38.64 66.43 38.96 68.07 39.2 69.71 39.35 71.35 39.42 72.99 39.39 74.63 39.29 76.27 39.09 77.91 38.81 79.55 38.45 81.19 38" class="primitive"/>
            </g>
          </g>
        </g>
      </g>
    </g>
  </g>
  <g class="guide ylabels" font-size="2.82" font-family="'PT Sans Caption','Helvetica Neue','Helvetica',sans-serif" fill="#6C606B" id="img-ad81fe11-20">
    <g transform="translate(15.89,81.83)">
      <g class="primitive">
        <text text-anchor="end" dy="0.35em">0.0</text>
      </g>
    </g>
    <g transform="translate(15.89,47.21)">
      <g class="primitive">
        <text text-anchor="end" dy="0.35em">0.5</text>
      </g>
    </g>
    <g transform="translate(15.89,12.59)">
      <g class="primitive">
        <text text-anchor="end" dy="0.35em">1.0</text>
      </g>
    </g>
  </g>
  <g font-size="3.88" font-family="'PT Sans','Helvetica Neue','Helvetica',sans-serif" fill="#564A55" stroke="#000000" stroke-opacity="0.000" id="img-ad81fe11-21">
    <g transform="translate(9.11,47.21)">
      <g class="primitive">
        <text text-anchor="end" dy="0.35em">Y</text>
      </g>
    </g>
  </g>
  <g font-size="3.88" font-family="'PT Sans','Helvetica Neue','Helvetica',sans-serif" fill="#564A55" stroke="#000000" stroke-opacity="0.000" id="img-ad81fe11-22">
    <g transform="translate(100.89,5)">
      <g class="primitive">
        <text text-anchor="middle" dy="0.6em">Original signals</text>
      </g>
    </g>
  </g>
</g>
<defs>
  <clipPath id="img-ad81fe11-8">
    <path d="M16.89,10.59 L 184.9 10.59 184.9 83.83 16.89 83.83" />
  </clipPath>
</defs>
</svg>
