<?xml version="1.0" encoding="UTF-8"?>
<svg xmlns="http://www.w3.org/2000/svg"
     xmlns:xlink="http://www.w3.org/1999/xlink"
     xmlns:gadfly="http://www.gadflyjl.org/ns"
     version="1.2"
     width="203.2mm" height="101.6mm" viewBox="0 0 203.2 101.6"
     stroke="none"
     fill="#000000"
     stroke-width="0.3"
     font-size="3.88"
>
<g class="plotroot xscalable yscalable" id="img-ff422800-1">
  <g font-size="3.88" font-family="'PT Sans','Helvetica Neue','Helvetica',sans-serif" fill="#564A55" stroke="#000000" stroke-opacity="0.000" id="img-ff422800-2">
    <g transform="translate(96.29,90.88)">
      <g class="primitive">
        <text text-anchor="middle" dy="0.6em">X</text>
      </g>
    </g>
  </g>
  <g class="guide xlabels" font-size="2.82" font-family="'PT Sans Caption','Helvetica Neue','Helvetica',sans-serif" fill="#6C606B" id="img-ff422800-3">
    <g transform="translate(16.54,84.83)">
      <g class="primitive">
        <text text-anchor="middle" dy="0.6em">0</text>
      </g>
    </g>
    <g transform="translate(96.29,84.83)">
      <g class="primitive">
        <text text-anchor="middle" dy="0.6em">50</text>
      </g>
    </g>
    <g transform="translate(176.04,84.83)">
      <g class="primitive">
        <text text-anchor="middle" dy="0.6em">100</text>
      </g>
    </g>
  </g>
  <g class="guide colorkey" id="img-ff422800-4">
    <g fill="#4C404B" font-size="2.82" font-family="'PT Sans','Helvetica Neue','Helvetica',sans-serif" id="img-ff422800-5">
      <g transform="translate(181.56,44.14)">
        <g class="primitive">
          <text dy="0.35em">Observation 1</text>
        </g>
      </g>
      <g transform="translate(181.56,47.18)">
        <g class="primitive">
          <text dy="0.35em">Observation 2</text>
        </g>
      </g>
      <g transform="translate(181.56,50.22)">
        <g class="primitive">
          <text dy="0.35em">Observation 3</text>
        </g>
      </g>
      <g transform="translate(181.56,53.27)">
        <g class="primitive">
          <text dy="0.35em">Observation 4</text>
        </g>
      </g>
    </g>
    <g stroke="#000000" stroke-opacity="0.000" id="img-ff422800-6">
      <g transform="translate(179.8,44.14)" fill="#FF0000">
        <path d="M-0.76,-0.76 L 0.76 -0.76 0.76 0.76 -0.76 0.76 z" class="primitive"/>
      </g>
      <g transform="translate(179.8,47.18)" fill="#0000FF">
        <path d="M-0.76,-0.76 L 0.76 -0.76 0.76 0.76 -0.76 0.76 z" class="primitive"/>
      </g>
      <g transform="translate(179.8,50.22)" fill="#008000">
        <path d="M-0.76,-0.76 L 0.76 -0.76 0.76 0.76 -0.76 0.76 z" class="primitive"/>
      </g>
      <g transform="translate(179.8,53.27)" fill="#FFA500">
        <path d="M-0.76,-0.76 L 0.76 -0.76 0.76 0.76 -0.76 0.76 z" class="primitive"/>
      </g>
    </g>
    <g fill="#362A35" font-size="3.88" font-family="'PT Sans','Helvetica Neue','Helvetica',sans-serif" stroke="#000000" stroke-opacity="0.000" id="img-ff422800-7">
      <g transform="translate(179.04,40.5)">
        <g class="primitive">
          <text>Sources</text>
        </g>
      </g>
    </g>
  </g>
  <g clip-path="url(#img-ff422800-8)">
    <g id="img-ff422800-9">
      <g pointer-events="visible" opacity="1" fill="#000000" fill-opacity="0.000" stroke="#000000" stroke-opacity="0.000" class="guide background" id="img-ff422800-10">
        <g transform="translate(96.29,47.18)">
          <path d="M-81.75,-36.66 L 81.75 -36.66 81.75 36.66 -81.75 36.66 z" class="primitive"/>
        </g>
      </g>
      <g class="guide ygridlines xfixed" stroke-dasharray="0.5,0.5" stroke-width="0.2" stroke="#D0D0E0" id="img-ff422800-11">
        <g transform="translate(96.29,81.83)">
          <path fill="none" d="M-81.75,0 L 81.75 0" class="primitive"/>
        </g>
        <g transform="translate(96.29,58.73)">
          <path fill="none" d="M-81.75,0 L 81.75 0" class="primitive"/>
        </g>
        <g transform="translate(96.29,35.63)">
          <path fill="none" d="M-81.75,0 L 81.75 0" class="primitive"/>
        </g>
        <g transform="translate(96.29,12.52)">
          <path fill="none" d="M-81.75,0 L 81.75 0" class="primitive"/>
        </g>
      </g>
      <g class="guide xgridlines yfixed" stroke-dasharray="0.5,0.5" stroke-width="0.2" stroke="#D0D0E0" id="img-ff422800-12">
        <g transform="translate(16.54,47.18)">
          <path fill="none" d="M0,-36.66 L 0 36.66" class="primitive"/>
        </g>
        <g transform="translate(96.29,47.18)">
          <path fill="none" d="M0,-36.66 L 0 36.66" class="primitive"/>
        </g>
        <g transform="translate(176.04,47.18)">
          <path fill="none" d="M0,-36.66 L 0 36.66" class="primitive"/>
        </g>
      </g>
      <g class="plotpanel" id="img-ff422800-13">
        <metadata>
          <boundingbox value="14.537768554687489mm 10.523643663194449mm 163.50060492621526mm 73.31075575086805mm"/>
          <unitbox value="-1.2539137396533366 3.0865666509476037 102.50782747930667 -3.173133301895207"/>
        </metadata>
        <g stroke-width="0.71" fill="#000000" fill-opacity="0.000" class="geometry" id="img-ff422800-14">
          <g stroke-dasharray="none" stroke="#FFA500" id="img-ff422800-15">
            <g transform="translate(97.09,45.05)">
              <path fill="none" d="M-78.95,-5.27 L -77.36 -12.07 -75.76 -17.69 -74.17 -21.7 -72.57 -23.77 -70.98 -23.78 -69.38 -21.77 -67.79 -17.97 -66.19 -12.77 -64.6 -6.67 -63 -0.26 -61.41 5.83 -59.81 11.03 -58.22 14.83 -56.62 16.84 -55.03 16.86 -53.43 14.84 -51.84 10.94 -50.24 5.46 -48.65 -1.13 -47.05 -8.28 -45.46 -15.36 -43.86 -21.78 -42.27 -26.97 -40.67 -30.5 -39.08 -32.07 -37.48 -31.55 -35.89 -29 -34.29 -24.65 -32.7 -18.91 -31.1 -12.29 -29.51 -5.39 -27.91 1.19 -26.32 6.85 -24.72 11.09 -23.13 13.55 -21.53 14 -19.94 12.44 -18.34 9 -16.75 4.02 -15.15 -2.04 -13.56 -8.62 -11.96 -15.1 -10.37 -20.89 -8.77 -25.43 -7.18 -28.29 -5.58 -29.17 -3.99 -27.98 -2.39 -24.78 -0.8 -19.81 0.8 -13.48 2.39 -6.31 3.99 1.09 5.58 8.11 7.18 14.17 8.77 18.77 10.37 21.55 11.96 22.3 13.56 21.02 15.15 17.85 16.75 13.14 18.34 7.36 19.94 1.06 21.53 -5.13 23.13 -10.61 24.72 -14.84 26.32 -17.41 27.91 -18.02 29.51 -16.57 31.1 -13.15 32.7 -8.01 34.29 -1.56 35.89 5.65 37.48 13.04 39.08 19.99 40.67 25.91 42.27 30.33 43.86 32.88 45.46 33.37 47.05 31.8 48.65 28.33 50.24 23.32 51.84 17.23 53.43 10.65 55.03 4.17 56.62 -1.58 58.22 -6.09 59.81 -8.92 61.41 -9.82 63 -8.67 64.6 -5.58 66.19 -0.81 67.79 5.21 69.38 11.97 70.98 18.84 72.57 25.23 74.17 30.56 75.76 34.33 77.36 36.22 78.95 36.04" class="primitive"/>
            </g>
          </g>
        </g>
        <g stroke-width="0.71" fill="#000000" fill-opacity="0.000" class="geometry" id="img-ff422800-16">
          <g stroke-dasharray="none" stroke="#008000" id="img-ff422800-17">
            <g transform="translate(97.09,45.43)">
              <path fill="none" d="M-78.95,0.32 L -77.36 12.18 -75.76 11.82 -74.17 8.49 -72.57 20.11 -70.98 9.52 -69.38 16.88 -67.79 -20.41 -66.19 -19.47 -64.6 9.3 -63 3.4 -61.41 5.13 -59.81 -23.22 -58.22 1.29 -56.62 12.67 -55.03 -21.64 -53.43 8.61 -51.84 1.99 -50.24 14.23 -48.65 -1.73 -47.05 -21.84 -45.46 -23.68 -43.86 -6.53 -42.27 3.14 -40.67 11.82 -39.08 3.87 -37.48 8.61 -35.89 -27.32 -34.29 -12.66 -32.7 -14.08 -31.1 2.72 -29.51 2.87 -27.91 -1.45 -26.32 -14.67 -24.72 -17.76 -23.13 3.34 -21.53 -9.51 -19.94 10.87 -18.34 12.62 -16.75 -2.02 -15.15 -4.6 -13.56 -3.26 -11.96 -22.86 -10.37 1.38 -8.77 11.6 -7.18 -29.45 -5.58 -2.95 -3.99 5.44 -2.39 -17.73 -0.8 -0.79 0.8 -8.96 2.39 -17.53 3.99 9.69 5.58 -10.92 7.18 -18.35 8.77 5.18 10.37 -21.38 11.96 -10.24 13.56 5.33 15.15 -8.5 16.75 1.81 18.34 16.46 19.94 4.89 21.53 -12.61 23.13 -10.61 24.72 7.47 26.32 21.72 27.91 -17.96 29.51 -11.47 31.1 -3.94 32.7 1.96 34.29 -10.69 35.89 1.1 37.48 -8.18 39.08 5.39 40.67 -9.04 42.27 0.72 43.86 -1.22 45.46 27.24 47.05 -12.22 48.65 21.76 50.24 3.15 51.84 31.63 53.43 24.85 55.03 -9.25 56.62 34.06 58.22 35.19 59.81 -0.66 61.41 9.34 63 -8.04 64.6 7.44 66.19 -5.92 67.79 9.64 69.38 12.57 70.98 17.21 72.57 -8.07 74.17 -0.48 75.76 2.16 77.36 5.89 78.95 7.84" class="primitive"/>
            </g>
          </g>
        </g>
        <g stroke-width="0.71" fill="#000000" fill-opacity="0.000" class="geometry" id="img-ff422800-18">
          <g stroke-dasharray="none" stroke="#0000FF" id="img-ff422800-19">
            <g transform="translate(97.09,46.57)">
              <path fill="none" d="M-78.95,-6.65 L -77.36 -6.65 -75.76 -11.59 -74.17 -16.41 -72.57 -11.83 -70.98 -16.3 -69.38 -9.79 -67.79 -23.83 -66.19 -17.36 -64.6 3.89 -63 8.1 -61.41 15.78 -59.81 7.51 -58.22 24.24 -56.62 32.59 -55.03 16.07 -53.43 29.76 -51.84 23.11 -50.24 24.27 -48.65 10.18 -47.05 -6.56 -45.46 -14.16 -43.86 -11.63 -42.27 -11.65 -40.67 -10.55 -39.08 -15.84 -37.48 -12.73 -35.89 -27.98 -34.29 -16.18 -32.7 -11.07 -31.1 3.99 -29.51 10.97 -27.91 15.34 -26.32 14.29 -24.72 16.86 -23.13 29.69 -21.53 23.51 -19.94 31.87 -18.34 29.01 -16.75 16.37 -15.15 8.64 -13.56 2.31 -11.96 -14.43 -10.37 -8.58 -8.77 -8.54 -7.18 -32.49 -5.58 -20.72 -3.99 -15.96 -2.39 -24.99 -0.8 -12.23 0.8 -10.69 2.39 -8.54 3.99 11.71 5.58 7.66 7.18 9.21 8.77 24.76 10.37 13.44 11.96 18.93 13.56 24.58 15.15 13.65 16.75 13.23 18.34 13.91 19.94 0.96 21.53 -14.84 23.13 -20.19 24.72 -16.24 26.32 -12.53 27.91 -33.82 29.51 -29.96 31.1 -23.59 32.7 -16.31 34.29 -16.98 35.89 -4.63 37.48 -2.63 39.08 10.38 40.67 8.39 42.27 17.02 43.86 17.95 45.46 32.06 47.05 10.17 48.65 23.15 50.24 8.32 51.84 15.99 53.43 5.57 55.03 -18.36 56.62 -2.82 58.22 -7.09 59.81 -28.14 61.41 -24.28 63 -32.03 64.6 -21.36 66.19 -23.39 67.79 -9.66 69.38 -1.48 70.98 7.73 72.57 1.54 74.17 10.75 75.76 15.99 77.36 19.92 78.95 20.94" class="primitive"/>
            </g>
          </g>
        </g>
        <g stroke-width="0.71" fill="#000000" fill-opacity="0.000" class="geometry" id="img-ff422800-20">
          <g stroke-dasharray="none" stroke="#FF0000" id="img-ff422800-21">
            <g transform="translate(97.09,45.24)">
              <path fill="none" d="M-78.95,-2.48 L -77.36 0.05 -75.76 -2.94 -74.17 -6.6 -72.57 -1.83 -70.98 -7.13 -69.38 -2.44 -67.79 -19.19 -66.19 -16.12 -64.6 1.32 -63 1.57 -61.41 5.48 -59.81 -6.1 -58.22 8.06 -56.62 14.76 -55.03 -2.39 -53.43 11.72 -51.84 6.46 -50.24 9.84 -48.65 -1.43 -47.05 -15.06 -45.46 -19.52 -43.86 -14.15 -42.27 -11.92 -40.67 -9.34 -39.08 -14.1 -37.48 -11.47 -35.89 -28.16 -34.29 -18.66 -32.7 -16.5 -31.1 -4.78 -29.51 -1.26 -27.91 -0.13 -26.32 -3.91 -24.72 -3.34 -23.13 8.44 -21.53 2.25 -19.94 11.65 -18.34 10.81 -16.75 1 -15.15 -3.32 -13.56 -5.94 -11.96 -18.98 -10.37 -9.75 -8.77 -6.91 -7.18 -28.87 -5.58 -16.06 -3.99 -11.27 -2.39 -21.26 -0.8 -10.3 0.8 -11.22 2.39 -11.92 3.99 5.39 5.58 -1.4 7.18 -2.09 8.77 11.97 10.37 0.08 11.96 6.03 13.56 13.17 15.15 4.67 16.75 7.47 18.34 11.91 19.94 2.98 21.53 -8.87 23.13 -10.61 24.72 -3.69 26.32 2.16 27.91 -17.99 29.51 -14.02 31.1 -8.54 32.7 -3.03 34.29 -6.13 35.89 3.37 37.48 2.43 39.08 12.69 40.67 8.44 42.27 15.53 43.86 15.83 45.46 30.3 47.05 9.79 48.65 25.04 50.24 13.24 51.84 24.43 53.43 17.75 55.03 -2.54 56.62 16.24 58.22 14.55 59.81 -4.79 61.41 -0.24 63 -8.36 64.6 0.93 66.19 -3.37 67.79 7.42 69.38 12.27 70.98 18.03 72.57 8.58 74.17 15.04 75.76 18.25 77.36 21.05 78.95 21.94" class="primitive"/>
            </g>
          </g>
        </g>
      </g>
    </g>
  </g>
  <g class="guide ylabels" font-size="2.82" font-family="'PT Sans Caption','Helvetica Neue','Helvetica',sans-serif" fill="#6C606B" id="img-ff422800-22">
    <g transform="translate(13.54,81.83)">
      <g class="primitive">
        <text text-anchor="end" dy="0.35em">0</text>
      </g>
    </g>
    <g transform="translate(13.54,58.73)">
      <g class="primitive">
        <text text-anchor="end" dy="0.35em">1</text>
      </g>
    </g>
    <g transform="translate(13.54,35.63)">
      <g class="primitive">
        <text text-anchor="end" dy="0.35em">2</text>
      </g>
    </g>
    <g transform="translate(13.54,12.52)">
      <g class="primitive">
        <text text-anchor="end" dy="0.35em">3</text>
      </g>
    </g>
  </g>
  <g font-size="3.88" font-family="'PT Sans','Helvetica Neue','Helvetica',sans-serif" fill="#564A55" stroke="#000000" stroke-opacity="0.000" id="img-ff422800-23">
    <g transform="translate(9.11,47.18)">
      <g class="primitive">
        <text text-anchor="end" dy="0.35em">Y</text>
      </g>
    </g>
  </g>
  <g font-size="3.88" font-family="'PT Sans','Helvetica Neue','Helvetica',sans-serif" fill="#564A55" stroke="#000000" stroke-opacity="0.000" id="img-ff422800-24">
    <g transform="translate(96.29,5)">
      <g class="primitive">
        <text text-anchor="middle" dy="0.6em">Reproduced observations</text>
      </g>
    </g>
  </g>
</g>
<defs>
  <clipPath id="img-ff422800-8">
    <path d="M14.54,10.52 L 178.04 10.52 178.04 83.83 14.54 83.83" />
  </clipPath>
</defs>
</svg>
