<?xml version="1.0" encoding="UTF-8"?>
<svg xmlns="http://www.w3.org/2000/svg"
     xmlns:xlink="http://www.w3.org/1999/xlink"
     xmlns:gadfly="http://www.gadflyjl.org/ns"
     version="1.2"
     width="152.4mm" height="101.6mm" viewBox="0 0 152.4 101.6"
     stroke="none"
     fill="#000000"
     stroke-width="0.3"
     font-size="3.88"
>
<g class="plotroot xscalable yscalable" id="img-ff422800-1">
  <g font-size="3.88" font-family="'PT Sans','Helvetica Neue','Helvetica',sans-serif" fill="#564A55" stroke="#000000" stroke-opacity="0.000" id="img-ff422800-2">
    <text x="64.93" y="89.99" text-anchor="middle" dy="0.6em">X</text>
  </g>
  <g class="guide xlabels" font-size="2.82" font-family="'PT Sans Caption','Helvetica Neue','Helvetica',sans-serif" fill="#6C606B" id="img-ff422800-3">
    <text x="16.84" y="83.32" text-anchor="middle" dy="0.6em">0</text>
    <text x="64.93" y="83.32" text-anchor="middle" dy="0.6em">50</text>
    <text x="113.03" y="83.32" text-anchor="middle" dy="0.6em">100</text>
  </g>
  <g class="guide colorkey" id="img-ff422800-4">
    <g fill="#4C404B" font-size="2.82" font-family="'PT Sans','Helvetica Neue','Helvetica',sans-serif" id="img-ff422800-5">
      <text x="118.85" y="40.03" dy="0.35em" id="img-ff422800-6" class="color_Signal_1">Signal 1</text>
      <text x="118.85" y="43.66" dy="0.35em" id="img-ff422800-7" class="color_Signal_2">Signal 2</text>
      <text x="118.85" y="47.28" dy="0.35em" id="img-ff422800-8" class="color_Signal_3">Signal 3</text>
      <text x="118.85" y="50.91" dy="0.35em" id="img-ff422800-9" class="color_Signal_4">Signal 4</text>
    </g>
    <g stroke="#000000" stroke-opacity="0.000" id="img-ff422800-10">
      <rect x="116.03" y="39.12" width="1.81" height="1.81" id="img-ff422800-11" fill="#00BFFF" class="color_Signal_1"/>
      <rect x="116.03" y="42.75" width="1.81" height="1.81" id="img-ff422800-12" fill="#D4CA3A" class="color_Signal_2"/>
      <rect x="116.03" y="46.38" width="1.81" height="1.81" id="img-ff422800-13" fill="#FF6DAE" class="color_Signal_3"/>
      <rect x="116.03" y="50" width="1.81" height="1.81" id="img-ff422800-14" fill="#00B78D" class="color_Signal_4"/>
    </g>
    <g fill="#362A35" font-size="3.88" font-family="'PT Sans','Helvetica Neue','Helvetica',sans-serif" stroke="#000000" stroke-opacity="0.000" id="img-ff422800-15">
      <text x="116.03" y="36.21" id="img-ff422800-16">Reproduced signals</text>
    </g>
  </g>
<g clip-path="url(#img-ff422800-17)">
  <g id="img-ff422800-18">
    <g pointer-events="visible" opacity="1" fill="#000000" fill-opacity="0.000" stroke="#000000" stroke-opacity="0.000" class="guide background" id="img-ff422800-19">
      <rect x="14.84" y="5" width="100.2" height="77.32" id="img-ff422800-20"/>
    </g>
    <g class="guide ygridlines xfixed" stroke-dasharray="0.5,0.5" stroke-width="0.2" stroke="#D0D0E0" id="img-ff422800-21">
      <path fill="none" d="M14.84,80.32 L 115.03 80.32" id="img-ff422800-22"/>
      <path fill="none" d="M14.84,55.88 L 115.03 55.88" id="img-ff422800-23"/>
      <path fill="none" d="M14.84,31.44 L 115.03 31.44" id="img-ff422800-24"/>
      <path fill="none" d="M14.84,7 L 115.03 7" id="img-ff422800-25"/>
    </g>
    <g class="guide xgridlines yfixed" stroke-dasharray="0.5,0.5" stroke-width="0.2" stroke="#D0D0E0" id="img-ff422800-26">
      <path fill="none" d="M16.84,5 L 16.84 82.32" id="img-ff422800-27"/>
      <path fill="none" d="M64.93,5 L 64.93 82.32" id="img-ff422800-28"/>
      <path fill="none" d="M113.03,5 L 113.03 82.32" id="img-ff422800-29"/>
    </g>
    <g class="plotpanel" id="img-ff422800-30">
      <g stroke-width="0.3" fill="#000000" fill-opacity="0.000" class="geometry color_Signal_4" stroke-dasharray="none" stroke="#00B78D" id="img-ff422800-31">
        <path fill="none" d="M17.8,35.82 L 18.76 28.64 19.72 22.69 20.68 18.45 21.65 16.26 22.61 16.25 23.57 18.37 24.53 22.39 25.49 27.9 26.46 34.35 27.42 41.13 28.38 47.57 29.34 53.07 30.3 57.09 31.27 59.22 32.23 59.24 33.19 57.1 34.15 52.97 35.11 47.18 36.08 40.2 37.04 32.65 38 25.15 38.96 18.37 39.92 12.87 40.89 9.14 41.85 7.48 42.81 8.03 43.77 10.73 44.73 15.33 45.7 21.4 46.66 28.4 47.62 35.7 48.58 42.66 49.54 48.64 50.51 53.13 51.47 55.73 52.43 56.22 53.39 54.56 54.35 50.93 55.32 45.66 56.28 39.25 57.24 32.29 58.2 25.43 59.16 19.31 60.12 14.51 61.09 11.48 62.05 10.54 63.01 11.8 63.97 15.2 64.93 20.45 65.9 27.15 66.86 34.73 67.82 42.55 68.78 49.98 69.74 56.39 70.71 61.25 71.67 64.19 72.63 64.99 73.59 63.63 74.55 60.29 75.52 55.3 76.48 49.19 77.44 42.53 78.4 35.98 79.36 30.18 80.33 25.7 81.29 22.99 82.25 22.35 83.21 23.88 84.17 27.5 85.14 32.93 86.1 39.75 87.06 47.38 88.02 55.2 88.98 62.55 89.95 68.81 90.91 73.48 91.87 76.18 92.83 76.7 93.79 75.04 94.76 71.37 95.72 66.07 96.68 59.63 97.64 52.66 98.6 45.82 99.57 39.73 100.53 34.96 101.49 31.96 102.45 31.02 103.41 32.23 104.37 35.5 105.34 40.54 106.3 46.92 107.26 54.06 108.22 61.34 109.18 68.09 110.15 73.72 111.11 77.72 112.07 79.71 113.03 79.52" id="img-ff422800-32"/>
      </g>
      <g stroke-width="0.3" fill="#000000" fill-opacity="0.000" class="geometry color_Signal_3" stroke-dasharray="none" stroke="#FF6DAE" id="img-ff422800-33">
        <path fill="none" d="M17.8,42.14 L 18.76 54.68 19.72 54.31 20.68 50.78 21.65 63.08 22.61 51.87 23.57 59.66 24.53 20.21 25.49 21.21 26.46 51.64 27.42 45.4 28.38 47.23 29.34 17.24 30.3 43.17 31.27 55.21 32.23 18.92 33.19 50.91 34.15 43.91 35.11 56.85 36.08 39.97 37.04 18.71 38 16.75 38.96 34.89 39.92 45.12 40.89 54.31 41.85 45.9 42.81 50.91 43.77 12.91 44.73 28.41 45.7 26.91 46.66 44.68 47.62 44.84 48.58 40.27 49.54 26.28 50.51 23.02 51.47 45.34 52.43 31.74 53.39 53.3 54.35 55.16 55.32 39.66 56.28 36.94 57.24 38.36 58.2 17.62 59.16 43.27 60.12 54.07 61.09 10.65 62.05 38.68 63.01 47.55 63.97 23.04 64.93 40.96 65.9 32.33 66.86 23.26 67.82 52.06 68.78 30.25 69.74 22.39 70.71 47.28 71.67 19.19 72.63 30.97 73.59 47.44 74.55 32.81 75.52 43.71 76.48 59.22 77.44 46.97 78.4 28.46 79.36 30.58 80.33 49.7 81.29 64.78 82.25 22.8 83.21 29.67 84.17 37.64 85.14 43.87 86.1 30.49 87.06 42.96 88.02 33.15 88.98 47.5 89.95 32.24 90.91 42.57 91.87 40.51 92.83 70.62 93.79 28.87 94.76 64.82 95.72 45.14 96.68 75.26 97.64 68.09 98.6 32.02 99.57 77.83 100.53 79.03 101.49 41.11 102.45 51.68 103.41 33.3 104.37 49.67 105.34 35.55 106.3 52 107.26 55.1 108.22 60.01 109.18 33.27 110.15 41.29 111.11 44.09 112.07 48.03 113.03 50.1" id="img-ff422800-34"/>
      </g>
      <g stroke-width="0.3" fill="#000000" fill-opacity="0.000" class="geometry color_Signal_2" stroke-dasharray="none" stroke="#D4CA3A" id="img-ff422800-35">
        <path fill="none" d="M17.8,35.98 L 18.76 35.98 19.72 30.75 20.68 25.66 21.65 30.5 22.61 25.77 23.57 32.66 24.53 17.81 25.49 24.65 26.46 47.13 27.42 51.58 28.38 59.71 29.34 50.95 30.3 68.65 31.27 77.49 32.23 60.01 33.19 74.5 34.15 67.45 35.11 68.68 36.08 53.78 37.04 36.07 38 28.04 38.96 30.72 39.92 30.69 40.89 31.86 41.85 26.26 42.81 29.54 43.77 13.42 44.73 25.9 45.7 31.31 46.66 47.24 47.62 54.62 48.58 59.24 49.54 58.13 50.51 60.85 51.47 74.42 52.43 67.88 53.39 76.73 54.35 73.7 55.32 60.33 56.28 52.15 57.24 45.46 58.2 27.75 59.16 33.93 60.12 33.98 61.09 8.65 62.05 21.09 63.01 26.13 63.97 16.58 64.93 30.07 65.9 31.7 66.86 33.98 67.82 55.4 68.78 51.11 69.74 52.75 70.71 69.2 71.67 57.23 72.63 63.03 73.59 69.02 74.55 57.45 75.52 57.01 76.48 57.73 77.44 44.03 78.4 27.31 79.36 21.66 80.33 25.83 81.29 29.76 82.25 7.23 83.21 11.32 84.17 18.06 85.14 25.76 86.1 25.05 87.06 38.11 88.02 40.23 88.98 53.99 89.95 51.89 90.91 61.01 91.87 62 92.83 76.92 93.79 53.77 94.76 67.5 95.72 51.81 96.68 59.92 97.64 48.91 98.6 23.59 99.57 40.03 100.53 35.51 101.49 13.25 102.45 17.33 103.41 9.13 104.37 20.42 105.34 18.27 106.3 32.79 107.26 41.45 108.22 51.19 109.18 44.64 110.15 54.39 111.11 59.93 112.07 64.09 113.03 65.17" id="img-ff422800-36"/>
      </g>
      <g stroke-width="0.3" fill="#000000" fill-opacity="0.000" class="geometry color_Signal_1" stroke-dasharray="none" stroke="#00BFFF" id="img-ff422800-37">
        <path fill="none" d="M17.8,38.98 L 18.76 41.66 19.72 38.5 20.68 34.62 21.65 39.67 22.61 34.06 23.57 39.02 24.53 21.3 25.49 24.55 26.46 42.99 27.42 43.26 28.38 47.4 29.34 35.15 30.3 50.13 31.27 57.21 32.23 39.08 33.19 54 34.15 48.44 35.11 52.02 36.08 40.09 37.04 25.68 38 20.95 38.96 26.63 39.92 29 40.89 31.72 41.85 26.69 42.81 29.47 43.77 11.82 44.73 21.87 45.7 24.15 46.66 36.54 47.62 40.27 48.58 41.47 49.54 37.46 50.51 38.08 51.47 50.53 52.43 43.98 53.39 53.93 54.35 53.04 55.32 42.66 56.28 38.09 57.24 35.32 58.2 21.53 59.16 31.29 60.12 34.29 61.09 11.07 62.05 24.61 63.01 29.68 63.97 19.12 64.93 30.71 65.9 29.74 66.86 28.99 67.82 47.3 68.78 40.12 69.74 39.39 70.71 54.27 71.67 41.69 72.63 47.98 73.59 55.54 74.55 46.55 75.52 49.51 76.48 54.2 77.44 44.75 78.4 32.22 79.36 30.38 80.33 37.7 81.29 43.88 82.25 22.57 83.21 26.77 84.17 32.57 85.14 38.4 86.1 35.12 87.06 45.17 88.02 44.18 88.98 55.02 89.95 50.53 90.91 58.03 91.87 58.34 92.83 73.66 93.79 51.96 94.76 68.09 95.72 55.6 96.68 67.44 97.64 60.38 98.6 38.92 99.57 58.78 100.53 57 101.49 36.54 102.45 41.35 103.41 32.76 104.37 42.58 105.34 38.04 106.3 49.46 107.26 54.58 108.22 60.67 109.18 50.68 110.15 57.51 111.11 60.9 112.07 63.87 113.03 64.81" id="img-ff422800-38"/>
      </g>
    </g>
  </g>
</g>
  <g class="guide ylabels" font-size="2.82" font-family="'PT Sans Caption','Helvetica Neue','Helvetica',sans-serif" fill="#6C606B" id="img-ff422800-39">
    <text x="13.84" y="80.32" text-anchor="end" dy="0.35em" id="img-ff422800-40">0</text>
    <text x="13.84" y="55.88" text-anchor="end" dy="0.35em" id="img-ff422800-41">1</text>
    <text x="13.84" y="31.44" text-anchor="end" dy="0.35em" id="img-ff422800-42">2</text>
    <text x="13.84" y="7" text-anchor="end" dy="0.35em" id="img-ff422800-43">3</text>
  </g>
  <g font-size="3.88" font-family="'PT Sans','Helvetica Neue','Helvetica',sans-serif" fill="#564A55" stroke="#000000" stroke-opacity="0.000" id="img-ff422800-44">
    <text x="9.16" y="43.66" text-anchor="end" dy="0.35em" id="img-ff422800-45">Y</text>
  </g>
</g>
<defs>
  <clipPath id="img-ff422800-17">
  <path d="M14.84,5 L 115.03 5 115.03 82.32 14.84 82.32" />
</clipPath>
</defs>
</svg>
