<?xml version="1.0" encoding="UTF-8"?>
<svg xmlns="http://www.w3.org/2000/svg"
     xmlns:xlink="http://www.w3.org/1999/xlink"
     xmlns:gadfly="http://www.gadflyjl.org/ns"
     version="1.2"
     width="152.4mm" height="101.6mm" viewBox="0 0 152.4 101.6"
     stroke="none"
     fill="#000000"
     stroke-width="0.3"
     font-size="3.88"
>
<g class="plotroot xscalable yscalable" id="img-59fa39fe-1">
  <g font-size="3.88" font-family="'PT Sans','Helvetica Neue','Helvetica',sans-serif" fill="#564A55" stroke="#000000" stroke-opacity="0.000" id="img-59fa39fe-2">
    <text x="68.55" y="89.99" text-anchor="middle" dy="0.6em">X</text>
  </g>
  <g class="guide xlabels" font-size="2.82" font-family="'PT Sans Caption','Helvetica Neue','Helvetica',sans-serif" fill="#6C606B" id="img-59fa39fe-3">
    <text x="19.18" y="83.32" text-anchor="middle" dy="0.6em">0</text>
    <text x="68.55" y="83.32" text-anchor="middle" dy="0.6em">50</text>
    <text x="117.91" y="83.32" text-anchor="middle" dy="0.6em">100</text>
  </g>
  <g class="guide colorkey" id="img-59fa39fe-4">
    <g fill="#4C404B" font-size="2.82" font-family="'PT Sans','Helvetica Neue','Helvetica',sans-serif" id="img-59fa39fe-5">
      <text x="123.72" y="41.84" dy="0.35em" id="img-59fa39fe-6" class="color_Signal_1">Signal 1</text>
      <text x="123.72" y="45.47" dy="0.35em" id="img-59fa39fe-7" class="color_Signal_2">Signal 2</text>
      <text x="123.72" y="49.1" dy="0.35em" id="img-59fa39fe-8" class="color_Signal_3">Signal 3</text>
    </g>
    <g stroke="#000000" stroke-opacity="0.000" id="img-59fa39fe-9">
      <rect x="120.91" y="40.94" width="1.81" height="1.81" id="img-59fa39fe-10" class="color_Signal_1" fill="#00BFFF"/>
      <rect x="120.91" y="44.56" width="1.81" height="1.81" id="img-59fa39fe-11" class="color_Signal_2" fill="#D4CA3A"/>
      <rect x="120.91" y="48.19" width="1.81" height="1.81" id="img-59fa39fe-12" class="color_Signal_3" fill="#FF6DAE"/>
    </g>
    <g fill="#362A35" font-size="3.88" font-family="'PT Sans','Helvetica Neue','Helvetica',sans-serif" stroke="#000000" stroke-opacity="0.000" id="img-59fa39fe-13">
      <text x="120.91" y="38.02" id="img-59fa39fe-14">Unmixed signals</text>
    </g>
  </g>
<g clip-path="url(#img-59fa39fe-15)">
  <g id="img-59fa39fe-16">
    <g pointer-events="visible" opacity="1" fill="#000000" fill-opacity="0.000" stroke="#000000" stroke-opacity="0.000" class="guide background" id="img-59fa39fe-17">
      <rect x="17.18" y="5" width="102.73" height="77.32" id="img-59fa39fe-18"/>
    </g>
    <g class="guide ygridlines xfixed" stroke-dasharray="0.5,0.5" stroke-width="0.2" stroke="#D0D0E0" id="img-59fa39fe-19">
      <path fill="none" d="M17.18,80.32 L 119.91 80.32" id="img-59fa39fe-20"/>
      <path fill="none" d="M17.18,61.99 L 119.91 61.99" id="img-59fa39fe-21"/>
      <path fill="none" d="M17.18,43.66 L 119.91 43.66" id="img-59fa39fe-22"/>
      <path fill="none" d="M17.18,25.33 L 119.91 25.33" id="img-59fa39fe-23"/>
      <path fill="none" d="M17.18,7 L 119.91 7" id="img-59fa39fe-24"/>
    </g>
    <g class="guide xgridlines yfixed" stroke-dasharray="0.5,0.5" stroke-width="0.2" stroke="#D0D0E0" id="img-59fa39fe-25">
      <path fill="none" d="M19.18,5 L 19.18 82.32" id="img-59fa39fe-26"/>
      <path fill="none" d="M68.55,5 L 68.55 82.32" id="img-59fa39fe-27"/>
      <path fill="none" d="M117.91,5 L 117.91 82.32" id="img-59fa39fe-28"/>
    </g>
    <g class="plotpanel" id="img-59fa39fe-29">
      <g stroke-width="0.3" fill="#000000" fill-opacity="0.000" class="geometry color_Signal_3" stroke-dasharray="none" stroke="#FF6DAE" id="img-59fa39fe-30">
        <path fill="none" d="M20.17,43.63 L 21.16 63.34 22.15 63.78 23.13 59.5 24.12 78.76 25.11 62.96 26.09 75.43 27.08 17.47 28.07 19.74 29.06 65.82 30.04 57.26 31.03 60.68 32.02 16.68 33 56 33.99 74.6 34.98 21.2 35.97 69.53 36.95 59.75 37.94 79.67 38.93 55.13 39.92 24.03 40.9 21.66 41.89 49.18 42.88 64.84 43.86 78.89 44.85 66.66 45.84 74.35 46.83 17.88 47.81 41.05 48.8 38.83 49.79 65.26 50.78 65.4 51.76 58.46 52.75 37.44 53.74 32.38 54.72 65.4 55.71 44.91 56.7 76.77 57.69 79.26 58.67 55.87 59.66 51.48 60.65 53.24 61.64 21.94 62.62 59.69 63.61 75.28 64.6 10.02 65.58 51.15 66.57 63.68 67.56 26.42 68.55 52.32 69.53 38.6 70.52 24.22 71.51 66.2 72.5 32.79 73.48 20.14 74.47 56.29 75.46 13.52 76.44 30.15 77.43 53.8 78.42 31.12 79.41 46.5 80.39 68.75 81.38 49.65 82.37 21.22 83.36 23.52 84.34 51.14 85.33 72.71 86.32 9.27 87.3 18.59 88.29 29.54 89.28 37.89 90.27 17.02 91.25 34.68 92.24 19.15 93.23 39.66 94.21 16.09 95.2 30.69 96.19 26.9 97.18 71.08 98.16 8.29 99.15 61.29 100.14 31.48 101.13 75.92 102.11 64.85 103.1 10.76 104.09 78.7 105.07 80.19 106.06 23.41 107.05 38.92 108.04 11.3 109.02 35.47 110.01 14.24 111 38.58 111.99 43.07 112.97 50.31 113.96 10.45 114.95 22.44 115.93 26.71 116.92 32.75 117.91 36.08" id="img-59fa39fe-31"/>
      </g>
      <g stroke-width="0.3" fill="#000000" fill-opacity="0.000" class="geometry color_Signal_2" stroke-dasharray="none" stroke="#D4CA3A" id="img-59fa39fe-32">
        <path fill="none" d="M20.17,36.92 L 21.16 27.84 22.15 20.52 23.13 15.56 24.12 13.29 25.11 14.12 26.09 17.76 27.08 24.24 28.07 32.5 29.06 41.88 30.04 51.89 31.03 61.38 32.02 69.72 33 75.71 33.99 79.17 34.98 79.98 35.97 77.44 36.95 72.36 37.94 64.86 38.93 55.88 39.92 46.09 40.9 36.25 41.89 27.23 42.88 19.97 43.86 15.1 44.85 13.12 45.84 14.04 46.83 18.1 47.81 24.42 48.8 32.8 49.79 42.31 50.78 52.29 51.76 61.78 52.75 69.95 53.74 75.98 54.72 79.24 55.71 79.78 56.7 77.15 57.69 71.89 58.67 64.45 59.66 55.34 60.65 45.42 61.64 35.73 62.62 26.76 63.61 19.64 64.6 15.22 65.58 13.21 66.57 14.3 67.56 18.45 68.55 24.89 69.53 33.43 70.52 43.14 71.51 52.97 72.5 62.51 73.48 70.57 74.47 76.32 75.46 79.71 76.44 79.95 77.43 77.2 78.42 71.9 79.41 64.21 80.39 54.94 81.38 45.09 82.37 35.43 83.36 26.67 84.34 19.63 85.33 15.04 86.32 13.6 87.3 14.86 88.29 18.99 89.28 25.63 90.27 34.27 91.25 43.91 92.24 53.95 93.23 63.23 94.21 71.22 95.2 76.91 96.19 80 97.18 79.96 98.16 77.37 99.15 71.64 100.14 64.02 101.13 54.59 102.11 44.69 103.1 35.15 104.09 26.23 105.07 19.39 106.06 15.24 107.05 13.66 108.04 15.22 109.02 19.44 110.01 26.3 111 34.85 111.99 44.57 112.97 54.5 113.96 63.93 114.95 71.68 115.93 77.26 116.92 80.14 117.91 80.07" id="img-59fa39fe-33"/>
      </g>
      <g stroke-width="0.3" fill="#000000" fill-opacity="0.000" class="geometry color_Signal_1" stroke-dasharray="none" stroke="#00BFFF" id="img-59fa39fe-34">
        <path fill="none" d="M20.17,46.58 L 21.16 45.01 22.15 43.36 23.13 41.72 24.12 40.27 25.11 38.68 26.09 37.31 27.08 35.61 28.07 34.3 29.06 33.29 30.04 32.01 31.03 30.84 32.02 29.42 33 28.5 33.99 27.47 34.98 26.06 35.97 25.23 36.95 24.11 37.94 23.18 38.93 22.04 39.92 20.92 40.9 20.03 41.89 19.4 42.88 18.79 43.86 18.27 44.85 17.72 45.84 17.39 46.83 16.82 47.81 16.8 48.8 16.75 49.79 16.95 50.78 17.09 51.76 17.26 52.75 17.41 53.74 17.7 54.72 18.25 55.71 18.53 56.7 19.15 57.69 19.64 58.67 20.03 59.66 20.57 60.65 21.21 61.64 21.73 62.62 22.72 63.61 23.68 64.6 24.26 65.58 25.55 66.57 26.76 67.56 27.79 68.55 29.25 69.53 30.56 70.52 31.93 71.51 33.66 72.5 35 73.48 36.47 74.47 38.21 75.46 39.51 76.44 41.12 77.43 42.75 78.42 44.1 79.41 45.65 80.39 47.22 81.38 48.55 82.37 49.83 83.36 51.3 84.34 52.92 85.33 54.52 86.32 55.67 87.3 57.25 88.29 58.85 89.28 60.44 90.27 61.85 91.25 63.47 92.24 64.86 93.23 66.41 94.21 67.65 95.2 69.02 96.19 70.2 97.18 71.57 98.16 72.23 99.15 73.45 100.14 74.12 101.13 75.12 102.11 75.73 103.1 76.04 104.09 76.97 105.07 77.48 106.06 77.63 107.05 78.14 108.04 78.37 109.02 78.86 110.01 79.04 111 79.43 111.99 79.64 112.97 79.79 113.96 79.58 114.95 79.58 115.93 79.42 116.92 79.16 117.91 78.77" id="img-59fa39fe-35"/>
      </g>
    </g>
  </g>
</g>
  <g class="guide ylabels" font-size="2.82" font-family="'PT Sans Caption','Helvetica Neue','Helvetica',sans-serif" fill="#6C606B" id="img-59fa39fe-36">
    <text x="16.18" y="80.32" text-anchor="end" dy="0.35em" id="img-59fa39fe-37">0.0</text>
    <text x="16.18" y="61.99" text-anchor="end" dy="0.35em" id="img-59fa39fe-38">0.2</text>
    <text x="16.18" y="43.66" text-anchor="end" dy="0.35em" id="img-59fa39fe-39">0.4</text>
    <text x="16.18" y="25.33" text-anchor="end" dy="0.35em" id="img-59fa39fe-40">0.6</text>
    <text x="16.18" y="7" text-anchor="end" dy="0.35em" id="img-59fa39fe-41">0.8</text>
  </g>
  <g font-size="3.88" font-family="'PT Sans','Helvetica Neue','Helvetica',sans-serif" fill="#564A55" stroke="#000000" stroke-opacity="0.000" id="img-59fa39fe-42">
    <text x="9.16" y="43.66" text-anchor="end" dy="0.35em" id="img-59fa39fe-43">Y</text>
  </g>
</g>
<defs>
  <clipPath id="img-59fa39fe-15">
  <path d="M17.18,5 L 119.91 5 119.91 82.32 17.18 82.32" />
</clipPath>
</defs>
</svg>
