<?xml version="1.0" encoding="UTF-8"?>
<svg xmlns="http://www.w3.org/2000/svg"
     xmlns:xlink="http://www.w3.org/1999/xlink"
     xmlns:gadfly="http://www.gadflyjl.org/ns"
     version="1.2"
     width="152.4mm" height="101.6mm" viewBox="0 0 152.4 101.6"
     stroke="none"
     fill="#000000"
     stroke-width="0.3"
     font-size="3.88"
>
<g class="plotroot xscalable yscalable" id="img-1af9ea26-1">
  <g font-size="3.88" font-family="'PT Sans','Helvetica Neue','Helvetica',sans-serif" fill="#564A55" stroke="#000000" stroke-opacity="0.000" id="img-1af9ea26-2">
    <g transform="translate(74.25,90.88)">
      <g class="primitive">
        <text text-anchor="middle" dy="0.6em">X</text>
      </g>
    </g>
  </g>
  <g class="guide xlabels" font-size="2.82" font-family="'PT Sans Caption','Helvetica Neue','Helvetica',sans-serif" fill="#6C606B" id="img-1af9ea26-3">
    <g transform="translate(16.54,84.83)">
      <g class="primitive">
        <text text-anchor="middle" dy="0.6em">0</text>
      </g>
    </g>
    <g transform="translate(74.25,84.83)">
      <g class="primitive">
        <text text-anchor="middle" dy="0.6em">50</text>
      </g>
    </g>
    <g transform="translate(131.96,84.83)">
      <g class="primitive">
        <text text-anchor="middle" dy="0.6em">100</text>
      </g>
    </g>
  </g>
  <g class="guide colorkey" id="img-1af9ea26-4">
    <g fill="#4C404B" font-size="2.82" font-family="'PT Sans','Helvetica Neue','Helvetica',sans-serif" id="img-1af9ea26-5">
      <g transform="translate(137.76,38.16)">
        <g class="primitive">
          <text dy="0.35em">Signal 1</text>
        </g>
      </g>
      <g transform="translate(137.76,41.77)">
        <g class="primitive">
          <text dy="0.35em">Signal 2</text>
        </g>
      </g>
      <g transform="translate(137.76,45.38)">
        <g class="primitive">
          <text dy="0.35em">Signal 3</text>
        </g>
      </g>
      <g transform="translate(137.76,48.98)">
        <g class="primitive">
          <text dy="0.35em">Signal 4</text>
        </g>
      </g>
      <g transform="translate(137.76,52.59)">
        <g class="primitive">
          <text dy="0.35em">Signal 5</text>
        </g>
      </g>
      <g transform="translate(137.76,56.2)">
        <g class="primitive">
          <text dy="0.35em">Signal 6</text>
        </g>
      </g>
      <g transform="translate(137.76,59.81)">
        <g class="primitive">
          <text dy="0.35em">Signal 7</text>
        </g>
      </g>
    </g>
    <g stroke="#000000" stroke-opacity="0.000" id="img-1af9ea26-6">
      <g transform="translate(135.86,38.16)" fill="#FF0000">
        <path d="M-0.9,-0.9 L 0.9 -0.9 0.9 0.9 -0.9 0.9 z" class="primitive"/>
      </g>
      <g transform="translate(135.86,41.77)" fill="#0000FF">
        <path d="M-0.9,-0.9 L 0.9 -0.9 0.9 0.9 -0.9 0.9 z" class="primitive"/>
      </g>
      <g transform="translate(135.86,45.38)" fill="#008000">
        <path d="M-0.9,-0.9 L 0.9 -0.9 0.9 0.9 -0.9 0.9 z" class="primitive"/>
      </g>
      <g transform="translate(135.86,48.98)" fill="#FFA500">
        <path d="M-0.9,-0.9 L 0.9 -0.9 0.9 0.9 -0.9 0.9 z" class="primitive"/>
      </g>
      <g transform="translate(135.86,52.59)" fill="#FF00FF">
        <path d="M-0.9,-0.9 L 0.9 -0.9 0.9 0.9 -0.9 0.9 z" class="primitive"/>
      </g>
      <g transform="translate(135.86,56.2)" fill="#00FFFF">
        <path d="M-0.9,-0.9 L 0.9 -0.9 0.9 0.9 -0.9 0.9 z" class="primitive"/>
      </g>
      <g transform="translate(135.86,59.81)" fill="#A52A2A">
        <path d="M-0.9,-0.9 L 0.9 -0.9 0.9 0.9 -0.9 0.9 z" class="primitive"/>
      </g>
    </g>
    <g fill="#362A35" font-size="3.88" font-family="'PT Sans','Helvetica Neue','Helvetica',sans-serif" stroke="#000000" stroke-opacity="0.000" id="img-1af9ea26-7">
      <g transform="translate(134.96,32.55)">
        <g class="primitive">
          <text></text>
        </g>
      </g>
    </g>
  </g>
  <g clip-path="url(#img-1af9ea26-8)">
    <g id="img-1af9ea26-9">
      <g pointer-events="visible" opacity="1" fill="#000000" fill-opacity="0.000" stroke="#000000" stroke-opacity="0.000" class="guide background" id="img-1af9ea26-10">
        <g transform="translate(74.25,47.18)">
          <path d="M-59.71,-36.66 L 59.71 -36.66 59.71 36.66 -59.71 36.66 z" class="primitive"/>
        </g>
      </g>
      <g class="guide ygridlines xfixed" stroke-dasharray="0.5,0.5" stroke-width="0.2" stroke="#D0D0E0" id="img-1af9ea26-11">
        <g transform="translate(74.25,81.83)">
          <path fill="none" d="M-59.71,0 L 59.71 0" class="primitive"/>
        </g>
        <g transform="translate(74.25,58.73)">
          <path fill="none" d="M-59.71,0 L 59.71 0" class="primitive"/>
        </g>
        <g transform="translate(74.25,35.63)">
          <path fill="none" d="M-59.71,0 L 59.71 0" class="primitive"/>
        </g>
        <g transform="translate(74.25,12.52)">
          <path fill="none" d="M-59.71,0 L 59.71 0" class="primitive"/>
        </g>
      </g>
      <g class="guide xgridlines yfixed" stroke-dasharray="0.5,0.5" stroke-width="0.2" stroke="#D0D0E0" id="img-1af9ea26-12">
        <g transform="translate(16.54,47.18)">
          <path fill="none" d="M0,-36.66 L 0 36.66" class="primitive"/>
        </g>
        <g transform="translate(74.25,47.18)">
          <path fill="none" d="M0,-36.66 L 0 36.66" class="primitive"/>
        </g>
        <g transform="translate(131.96,47.18)">
          <path fill="none" d="M0,-36.66 L 0 36.66" class="primitive"/>
        </g>
      </g>
      <g class="plotpanel" id="img-1af9ea26-13">
        <metadata>
          <boundingbox value="14.537768554687517mm 10.523643663194449mm 119.41802435980901mm 73.31075575086805mm"/>
          <unitbox value="-1.7328316015574097 3.0865666509476037 103.46566320311481 -3.173133301895207"/>
        </metadata>
        <g stroke-width="0.71" fill="#000000" fill-opacity="0.000" class="geometry" id="img-1af9ea26-14">
          <g stroke-dasharray="none" stroke="#A52A2A" id="img-1af9ea26-15">
            <g transform="translate(74.82,52.38)">
              <path fill="none" d="M-57.13,-6.47 L -55.98 -9.58 -54.82 -14.58 -53.67 -18.7 -52.52 -17.17 -51.36 -19.13 -50.21 -14.6 -49.05 -19.45 -47.9 -13.35 -46.74 0.58 -45.59 6.14 -44.44 13.27 -43.28 11.96 -42.13 22.45 -40.97 27.85 -39.82 19.81 -38.67 25.84 -37.51 20.75 -36.36 18.76 -35.2 8.59 -34.05 -3.21 -32.89 -10.41 -31.74 -12.23 -30.59 -14.73 -29.43 -15.84 -28.28 -19.19 -27.12 -17.31 -25.97 -23.59 -24.81 -15.48 -23.66 -10.03 -22.51 0.83 -21.35 7.76 -20.2 13.22 -19.04 15.5 -17.89 18.86 -16.74 26.44 -15.58 23.51 -14.43 26.82 -13.27 23.58 -12.12 14.65 -10.96 7.63 -9.81 1.03 -8.66 -10.73 -7.5 -10.87 -6.35 -13.29 -5.19 -26.88 -4.04 -21.64 -2.89 -18.87 -1.73 -22 -0.58 -13.36 0.58 -9.66 1.73 -5.25 2.89 8.33 4.04 9.55 5.19 13.09 6.35 22.9 7.5 18.35 8.66 21.19 9.81 23.1 10.96 15.77 12.12 12.92 13.27 10.07 14.43 0.16 15.58 -11.12 16.74 -16.82 17.89 -17.26 19.04 -16.96 20.2 -28.2 21.35 -25.82 22.51 -21.19 23.66 -15.25 24.81 -12.63 25.97 -3.1 27.12 1.35 28.28 11.08 29.43 12.82 30.59 19.12 31.74 20.64 32.89 27.74 34.05 15.81 35.2 20.39 36.36 10.29 37.51 10.92 38.67 2.28 39.82 -13.06 40.97 -8.3 42.13 -12.8 43.28 -24.83 44.44 -23.43 45.59 -26.8 46.74 -19.97 47.9 -18.64 49.05 -8.79 50.21 -1.33 51.36 6.72 52.52 6.83 53.67 14.13 54.82 18.69 55.98 21.66 57.13 22.15" class="primitive"/>
            </g>
          </g>
        </g>
        <g stroke-width="0.71" fill="#000000" fill-opacity="0.000" class="geometry" id="img-1af9ea26-16">
          <g stroke-dasharray="none" stroke="#00FFFF" id="img-1af9ea26-17">
            <g transform="translate(74.82,58.39)">
              <path fill="none" d="M-57.13,-3.5 L -55.98 -0.39 -54.82 -2.81 -53.67 -5.91 -52.52 -0.57 -51.36 -5.32 -50.21 -0.08 -49.05 -16.29 -47.9 -12.69 -46.74 5.25 -45.59 6.01 -44.44 10.4 -43.28 -0.71 -42.13 13.9 -40.97 21.03 -39.82 4.3 -38.67 18.8 -37.51 13.91 -36.36 17.64 -35.2 6.69 -34.05 -6.64 -32.89 -10.83 -31.74 -5.21 -30.59 -2.75 -29.43 0.02 -28.28 -4.57 -27.12 -1.8 -25.97 -18.37 -24.81 -8.79 -23.66 -6.57 -22.51 5.17 -21.35 8.69 -20.2 9.79 -19.04 5.94 -17.89 6.43 -16.74 18.09 -15.58 11.75 -14.43 20.99 -13.27 19.95 -12.12 9.91 -10.96 5.33 -9.81 2.44 -8.66 -10.91 -7.5 -2.01 -6.35 0.48 -5.19 -21.85 -4.04 -9.44 -2.89 -5.07 -1.73 -15.49 -0.58 -4.99 0.58 -6.37 1.73 -7.56 2.89 9.24 4.04 1.93 5.19 0.72 6.35 14.24 7.5 1.81 8.66 7.19 9.81 13.77 10.96 4.71 12.12 6.93 13.27 10.79 14.43 1.28 15.58 -11.14 16.74 -13.46 17.89 -7.11 19.04 -1.83 20.2 -22.54 21.35 -19.12 22.51 -14.19 23.66 -9.21 24.81 -12.84 25.97 -3.85 27.12 -5.29 28.28 4.49 29.43 -0.23 30.59 6.41 31.74 6.28 32.89 20.35 34.05 -0.56 35.2 14.34 36.36 2.18 37.51 13.06 38.67 6.08 39.82 -14.48 40.97 4.06 42.13 2.14 43.28 -17.38 44.44 -12.99 45.59 -21.25 46.74 -12.07 47.9 -16.44 49.05 -5.7 50.21 -0.88 51.36 4.88 52.52 -4.52 53.67 2 54.82 5.3 55.98 8.23 57.13 9.26" class="primitive"/>
            </g>
          </g>
        </g>
        <g stroke-width="0.71" fill="#000000" fill-opacity="0.000" class="geometry" id="img-1af9ea26-18">
          <g stroke-dasharray="none" stroke="#FF00FF" id="img-1af9ea26-19">
            <g transform="translate(74.82,56.25)">
              <path fill="none" d="M-57.13,-4.35 L -55.98 -10.57 -54.82 -15.62 -53.67 -19.05 -52.52 -20.57 -51.36 -20.02 -50.21 -17.46 -49.05 -13.13 -47.9 -7.39 -46.74 -0.78 -45.59 6.12 -44.44 12.7 -43.28 18.37 -42.13 22.62 -40.97 25.06 -39.82 25.49 -38.67 23.87 -37.51 20.33 -36.36 15.2 -35.2 8.94 -34.05 2.09 -32.89 -4.72 -31.74 -10.88 -30.59 -15.86 -29.43 -19.19 -28.28 -20.59 -27.12 -19.93 -25.97 -17.26 -24.81 -12.84 -23.66 -7.04 -22.51 -0.4 -21.35 6.51 -20.2 13.05 -19.04 18.65 -17.89 22.8 -16.74 25.14 -15.58 25.46 -14.43 23.72 -13.27 20.08 -12.12 14.88 -10.96 8.56 -9.81 1.7 -8.66 -5.09 -7.5 -11.2 -6.35 -16.09 -5.19 -19.32 -4.04 -20.61 -2.89 -19.83 -1.73 -17.06 -0.58 -12.54 0.58 -11.76 1.73 -15.34 2.89 4.55 4.04 -9.52 5.19 16.78 6.35 5.44 7.5 21.58 8.66 20.11 9.81 19.11 10.96 4.94 12.12 -3.87 13.27 6.39 14.43 -9.39 15.58 -21.16 16.74 -29.3 17.89 -16.43 19.04 -20.61 20.2 -40.13 21.35 -35.64 22.51 -16.85 23.66 -12.25 24.81 -6.33 25.97 0.38 27.12 7.27 28.28 13.74 29.43 19.2 30.59 23.16 31.74 25.28 32.89 25.36 34.05 23.4 35.2 19.57 36.36 14.21 37.51 7.81 38.67 0.93 39.82 -5.82 40.97 -11.82 42.13 -16.53 43.28 -19.57 44.44 -20.62 45.59 -19.62 46.74 -16.63 47.9 -11.95 49.05 -5.97 50.21 0.76 51.36 7.65 52.52 14.07 53.67 19.46 54.82 23.33 55.98 25.34 57.13 25.31" class="primitive"/>
            </g>
          </g>
        </g>
        <g stroke-width="0.71" fill="#000000" fill-opacity="0.000" class="geometry" id="img-1af9ea26-20">
          <g stroke-dasharray="none" stroke="#FFA500" id="img-1af9ea26-21">
            <g transform="translate(74.82,66.12)">
              <path fill="none" d="M-57.13,0.75 L -55.98 -2.36 -54.82 -4.89 -53.67 -6.61 -52.52 -7.36 -51.36 -7.09 -50.21 -5.81 -49.05 -3.64 -47.9 -0.78 -46.74 2.53 -45.59 5.98 -44.44 9.27 -43.28 12.11 -42.13 14.23 -40.97 15.45 -39.82 15.67 -38.67 14.86 -37.51 13.09 -36.36 10.52 -35.2 7.39 -34.05 3.97 -32.89 0.56 -31.74 -2.52 -30.59 -5.01 -29.43 -6.67 -28.28 -7.37 -27.12 -7.04 -25.97 -5.71 -24.81 -3.5 -23.66 -0.6 -22.51 2.72 -21.35 6.17 -20.2 9.45 -19.04 12.25 -17.89 14.32 -16.74 15.49 -15.58 15.65 -14.43 14.78 -13.27 12.96 -12.12 10.36 -10.96 7.2 -9.81 3.77 -8.66 0.38 -7.5 -2.68 -6.35 -5.12 -5.19 -6.74 -4.04 -7.38 -2.89 -6.99 -1.73 -5.61 -0.58 -3.35 0.58 -10.58 1.73 -27.75 2.89 1.68 4.04 -36.22 5.19 8.1 6.35 -20.68 7.5 8.26 8.66 5.03 9.81 5.8 10.96 -16.95 12.12 -26.64 13.27 3.41 14.43 -17.82 15.58 -31.22 16.74 -38.41 17.89 -5.46 19.04 -9.13 20.2 -46.42 21.35 -38.77 22.51 -5.5 23.66 -3.2 24.81 -0.24 25.97 3.11 27.12 6.56 28.28 9.79 29.43 12.52 30.59 14.5 31.74 15.56 32.89 15.6 34.05 14.62 35.2 12.71 36.36 10.03 37.51 6.83 38.67 3.38 39.82 0.01 40.97 -2.99 42.13 -5.34 43.28 -6.86 44.44 -7.39 45.59 -6.89 46.74 -5.4 47.9 -3.05 49.05 -0.06 50.21 3.3 51.36 6.75 52.52 9.96 53.67 12.65 54.82 14.59 55.98 15.59 57.13 15.57" class="primitive"/>
            </g>
          </g>
        </g>
        <g stroke-width="0.71" fill="#000000" fill-opacity="0.000" class="geometry" id="img-1af9ea26-22">
          <g stroke-dasharray="none" stroke="#008000" id="img-1af9ea26-23">
            <g transform="translate(74.82,68.26)">
              <path fill="none" d="M-57.13,1.6 L -55.98 7.81 -54.82 7.92 -53.67 6.54 -52.52 12.63 -51.36 7.62 -50.21 11.57 -49.05 -6.81 -47.9 -6.07 -46.74 8.57 -45.59 5.87 -44.44 6.97 -43.28 -6.97 -42.13 5.51 -40.97 11.42 -39.82 -5.53 -38.67 9.79 -37.51 6.67 -36.36 12.96 -35.2 5.14 -34.05 -4.76 -32.89 -5.55 -31.74 3.15 -30.59 8.1 -29.43 12.54 -28.28 8.65 -27.12 11.09 -25.97 -6.82 -24.81 0.55 -23.66 -0.13 -22.51 8.28 -21.35 8.36 -20.2 6.18 -19.04 -0.46 -17.89 -2.05 -16.74 8.44 -15.58 1.94 -14.43 12.05 -13.27 12.83 -12.12 5.39 -10.96 3.97 -9.81 4.51 -8.66 -5.45 -7.5 6.51 -6.35 11.44 -5.19 -9.27 -4.04 3.78 -2.89 7.77 -1.73 -4.04 -0.58 4.21 0.58 -5.19 1.73 -19.97 2.89 6.38 4.04 -24.76 5.19 -7.97 6.35 -11.87 7.5 -11.51 8.66 -7.89 9.81 0.46 10.96 -17.18 12.12 -15.84 13.27 7.82 14.43 -7.16 15.58 -21.2 16.74 -22.57 17.89 3.86 19.04 9.65 20.2 -28.83 21.35 -22.25 22.51 -2.85 23.66 -0.17 24.81 -6.76 25.97 -1.11 27.12 -6 28.28 0.54 29.43 -6.91 30.59 -2.25 31.74 -3.44 32.89 10.59 34.05 -9.33 35.2 7.47 36.36 -2 37.51 12.07 38.67 8.54 39.82 -8.65 40.97 12.89 42.13 13.33 43.28 -4.68 44.44 0.24 45.59 -8.52 46.74 -0.83 47.9 -7.55 49.05 0.2 50.21 1.66 51.36 3.98 52.52 -8.64 53.67 -4.81 54.82 -3.45 55.98 -1.52 57.13 -0.47" class="primitive"/>
            </g>
          </g>
        </g>
        <g stroke-width="0.71" fill="#000000" fill-opacity="0.000" class="geometry" id="img-1af9ea26-24">
          <g stroke-dasharray="none" stroke="#0000FF" id="img-1af9ea26-25">
            <g transform="translate(74.82,68.26)">
              <path fill="none" d="M-57.13,1.6 L -55.98 7.81 -54.82 7.92 -53.67 6.54 -52.52 12.63 -51.36 7.62 -50.21 11.57 -49.05 -6.81 -47.9 -6.07 -46.74 8.57 -45.59 5.87 -44.44 6.97 -43.28 -6.97 -42.13 5.51 -40.97 11.42 -39.82 -5.53 -38.67 9.79 -37.51 6.67 -36.36 12.96 -35.2 5.14 -34.05 -4.76 -32.89 -5.55 -31.74 3.15 -30.59 8.1 -29.43 12.54 -28.28 8.65 -27.12 11.09 -25.97 -6.82 -24.81 0.55 -23.66 -0.13 -22.51 8.28 -21.35 8.36 -20.2 6.18 -19.04 -0.46 -17.89 -2.05 -16.74 8.44 -15.58 1.94 -14.43 12.05 -13.27 12.83 -12.12 5.39 -10.96 3.97 -9.81 4.51 -8.66 -5.45 -7.5 6.51 -6.35 11.44 -5.19 -9.27 -4.04 3.78 -2.89 7.77 -1.73 -4.04 -0.58 4.21 0.58 -5.19 1.73 -19.97 2.89 6.38 4.04 -24.76 5.19 -7.97 6.35 -11.87 7.5 -11.51 8.66 -7.89 9.81 0.46 10.96 -17.18 12.12 -15.84 13.27 7.82 14.43 -7.16 15.58 -21.2 16.74 -22.57 17.89 3.86 19.04 9.65 20.2 -28.83 21.35 -22.25 22.51 -2.85 23.66 -0.17 24.81 -6.76 25.97 -1.11 27.12 -6 28.28 0.54 29.43 -6.91 30.59 -2.25 31.74 -3.44 32.89 10.59 34.05 -9.33 35.2 7.47 36.36 -2 37.51 12.07 38.67 8.54 39.82 -8.65 40.97 12.89 42.13 13.33 43.28 -4.68 44.44 0.24 45.59 -8.52 46.74 -0.83 47.9 -7.55 49.05 0.2 50.21 1.66 51.36 3.98 52.52 -8.64 53.67 -4.81 54.82 -3.45 55.98 -1.52 57.13 -0.47" class="primitive"/>
            </g>
          </g>
        </g>
        <g stroke-width="0.71" fill="#000000" fill-opacity="0.000" class="geometry" id="img-1af9ea26-26">
          <g stroke-dasharray="none" stroke="#FF0000" id="img-1af9ea26-27">
            <g transform="translate(74.82,62.25)">
              <path fill="none" d="M-57.13,-1.37 L -55.98 -1.38 -54.82 -3.85 -53.67 -6.26 -52.52 -3.97 -51.36 -6.2 -50.21 -2.95 -49.05 -9.97 -47.9 -6.73 -46.74 3.89 -45.59 6 -44.44 9.84 -43.28 5.7 -42.13 14.07 -40.97 18.24 -39.82 9.98 -38.67 16.83 -37.51 13.5 -36.36 14.08 -35.2 7.04 -34.05 -1.33 -32.89 -5.13 -31.74 -3.87 -30.59 -3.88 -29.43 -3.33 -28.28 -5.97 -27.12 -4.42 -25.97 -12.04 -24.81 -6.14 -23.66 -3.59 -22.51 3.94 -21.35 7.43 -20.2 9.62 -19.04 9.09 -17.89 10.38 -16.74 16.79 -15.58 13.7 -14.43 17.88 -13.27 16.45 -12.12 10.13 -10.96 6.27 -9.81 3.1 -8.66 -5.27 -7.5 -2.34 -6.35 -2.32 -5.19 -14.3 -4.04 -8.41 -2.89 -6.03 -1.73 -10.55 -0.58 -4.17 0.58 -8.48 1.73 -17.66 2.89 5.46 4.04 -17.14 5.19 4.41 6.35 -3.22 7.5 5.03 8.66 6.11 9.81 9.79 10.96 -6.12 12.12 -9.86 13.27 7.1 14.43 -8.27 15.58 -21.18 16.74 -25.93 17.89 -6.28 19.04 -5.48 20.2 -34.48 21.35 -28.95 22.51 -9.85 23.66 -6.21 24.81 -6.54 25.97 -0.37 27.12 0.63 28.28 7.14 29.43 6.14 30.59 10.46 31.74 10.92 32.89 17.98 34.05 7.03 35.2 13.52 36.36 6.11 37.51 9.94 38.67 4.73 39.82 -7.23 40.97 0.54 42.13 -1.6 43.28 -12.12 44.44 -10.19 45.59 -14.07 46.74 -8.73 47.9 -9.75 49.05 -2.88 50.21 1.21 51.36 5.81 52.52 2.72 53.67 7.32 54.82 9.94 55.98 11.91 57.13 12.42" class="primitive"/>
            </g>
          </g>
        </g>
      </g>
    </g>
  </g>
  <g class="guide ylabels" font-size="2.82" font-family="'PT Sans Caption','Helvetica Neue','Helvetica',sans-serif" fill="#6C606B" id="img-1af9ea26-28">
    <g transform="translate(13.54,81.83)">
      <g class="primitive">
        <text text-anchor="end" dy="0.35em">0</text>
      </g>
    </g>
    <g transform="translate(13.54,58.73)">
      <g class="primitive">
        <text text-anchor="end" dy="0.35em">1</text>
      </g>
    </g>
    <g transform="translate(13.54,35.63)">
      <g class="primitive">
        <text text-anchor="end" dy="0.35em">2</text>
      </g>
    </g>
    <g transform="translate(13.54,12.52)">
      <g class="primitive">
        <text text-anchor="end" dy="0.35em">3</text>
      </g>
    </g>
  </g>
  <g font-size="3.88" font-family="'PT Sans','Helvetica Neue','Helvetica',sans-serif" fill="#564A55" stroke="#000000" stroke-opacity="0.000" id="img-1af9ea26-29">
    <g transform="translate(9.11,47.18)">
      <g class="primitive">
        <text text-anchor="end" dy="0.35em">Y</text>
      </g>
    </g>
  </g>
  <g font-size="3.88" font-family="'PT Sans','Helvetica Neue','Helvetica',sans-serif" fill="#564A55" stroke="#000000" stroke-opacity="0.000" id="img-1af9ea26-30">
    <g transform="translate(74.25,5)">
      <g class="primitive">
        <text text-anchor="middle" dy="0.6em">Reproduced observations</text>
      </g>
    </g>
  </g>
</g>
<defs>
  <clipPath id="img-1af9ea26-8">
    <path d="M14.54,10.52 L 133.96 10.52 133.96 83.83 14.54 83.83" />
  </clipPath>
</defs>
</svg>
