<?xml version="1.0" encoding="UTF-8"?>
<svg xmlns="http://www.w3.org/2000/svg"
     xmlns:xlink="http://www.w3.org/1999/xlink"
     xmlns:gadfly="http://www.gadflyjl.org/ns"
     version="1.2"
     width="152.4mm" height="101.6mm" viewBox="0 0 152.4 101.6"
     stroke="none"
     fill="#000000"
     stroke-width="0.3"
     font-size="3.88"
>
<g class="plotroot xscalable yscalable" id="img-3c8d3feb-1">
  <g font-size="3.88" font-family="'PT Sans','Helvetica Neue','Helvetica',sans-serif" fill="#564A55" stroke="#000000" stroke-opacity="0.000" id="img-3c8d3feb-2">
    <text x="60.17" y="89.99" text-anchor="middle" dy="0.6em">X</text>
  </g>
  <g class="guide xlabels" font-size="2.82" font-family="'PT Sans Caption','Helvetica Neue','Helvetica',sans-serif" fill="#6C606B" id="img-3c8d3feb-3">
    <text x="16.84" y="83.32" text-anchor="middle" dy="0.6em">0</text>
    <text x="60.17" y="83.32" text-anchor="middle" dy="0.6em">50</text>
    <text x="103.51" y="83.32" text-anchor="middle" dy="0.6em">100</text>
  </g>
  <g class="guide colorkey" id="img-3c8d3feb-4">
    <g fill="#4C404B" font-size="2.82" font-family="'PT Sans','Helvetica Neue','Helvetica',sans-serif" id="img-3c8d3feb-5">
      <text x="109.32" y="40.03" dy="0.35em" id="img-3c8d3feb-6" class="color_Observation_1">Observation 1</text>
      <text x="109.32" y="43.66" dy="0.35em" id="img-3c8d3feb-7" class="color_Observation_2">Observation 2</text>
      <text x="109.32" y="47.28" dy="0.35em" id="img-3c8d3feb-8" class="color_Observation_3">Observation 3</text>
      <text x="109.32" y="50.91" dy="0.35em" id="img-3c8d3feb-9" class="color_Observation_4">Observation 4</text>
    </g>
    <g stroke="#000000" stroke-opacity="0.000" id="img-3c8d3feb-10">
      <rect x="106.51" y="39.12" width="1.81" height="1.81" id="img-3c8d3feb-11" class="color_Observation_1" fill="#00BFFF"/>
      <rect x="106.51" y="42.75" width="1.81" height="1.81" id="img-3c8d3feb-12" class="color_Observation_2" fill="#D4CA3A"/>
      <rect x="106.51" y="46.38" width="1.81" height="1.81" id="img-3c8d3feb-13" class="color_Observation_3" fill="#FF6DAE"/>
      <rect x="106.51" y="50" width="1.81" height="1.81" id="img-3c8d3feb-14" class="color_Observation_4" fill="#00B78D"/>
    </g>
    <g fill="#362A35" font-size="3.88" font-family="'PT Sans','Helvetica Neue','Helvetica',sans-serif" stroke="#000000" stroke-opacity="0.000" id="img-3c8d3feb-15">
      <text x="106.51" y="36.21" id="img-3c8d3feb-16">Reproduced observations</text>
    </g>
  </g>
<g clip-path="url(#img-3c8d3feb-17)">
  <g id="img-3c8d3feb-18">
    <g pointer-events="visible" opacity="1" fill="#000000" fill-opacity="0.000" stroke="#000000" stroke-opacity="0.000" class="guide background" id="img-3c8d3feb-19">
      <rect x="14.84" y="5" width="90.67" height="77.32" id="img-3c8d3feb-20"/>
    </g>
    <g class="guide ygridlines xfixed" stroke-dasharray="0.5,0.5" stroke-width="0.2" stroke="#D0D0E0" id="img-3c8d3feb-21">
      <path fill="none" d="M14.84,80.32 L 105.51 80.32" id="img-3c8d3feb-22"/>
      <path fill="none" d="M14.84,55.88 L 105.51 55.88" id="img-3c8d3feb-23"/>
      <path fill="none" d="M14.84,31.44 L 105.51 31.44" id="img-3c8d3feb-24"/>
      <path fill="none" d="M14.84,7 L 105.51 7" id="img-3c8d3feb-25"/>
    </g>
    <g class="guide xgridlines yfixed" stroke-dasharray="0.5,0.5" stroke-width="0.2" stroke="#D0D0E0" id="img-3c8d3feb-26">
      <path fill="none" d="M16.84,5 L 16.84 82.32" id="img-3c8d3feb-27"/>
      <path fill="none" d="M60.17,5 L 60.17 82.32" id="img-3c8d3feb-28"/>
      <path fill="none" d="M103.51,5 L 103.51 82.32" id="img-3c8d3feb-29"/>
    </g>
    <g class="plotpanel" id="img-3c8d3feb-30">
      <g stroke-width="0.3" fill="#000000" fill-opacity="0.000" class="geometry color_Observation_4" stroke-dasharray="none" stroke="#00B78D" id="img-3c8d3feb-31">
        <path fill="none" d="M17.7,35.82 L 18.57 28.64 19.44 22.69 20.3 18.45 21.17 16.26 22.04 16.25 22.9 18.37 23.77 22.39 24.64 27.9 25.5 34.35 26.37 41.13 27.24 47.57 28.1 53.07 28.97 57.09 29.84 59.22 30.7 59.24 31.57 57.1 32.44 52.97 33.3 47.18 34.17 40.2 35.04 32.65 35.9 25.15 36.77 18.37 37.64 12.87 38.5 9.14 39.37 7.48 40.24 8.03 41.1 10.73 41.97 15.33 42.84 21.4 43.7 28.4 44.57 35.7 45.44 42.66 46.31 48.64 47.17 53.13 48.04 55.73 48.91 56.22 49.77 54.56 50.64 50.93 51.51 45.66 52.37 39.25 53.24 32.29 54.11 25.43 54.97 19.31 55.84 14.51 56.71 11.48 57.57 10.54 58.44 11.8 59.31 15.2 60.17 20.45 61.04 27.15 61.91 34.73 62.77 42.55 63.64 49.98 64.51 56.39 65.37 61.25 66.24 64.19 67.11 64.99 67.97 63.63 68.84 60.29 69.71 55.3 70.57 49.19 71.44 42.53 72.31 35.98 73.17 30.18 74.04 25.7 74.91 22.99 75.77 22.35 76.64 23.88 77.51 27.5 78.37 32.93 79.24 39.75 80.11 47.38 80.97 55.2 81.84 62.55 82.71 68.81 83.57 73.48 84.44 76.18 85.31 76.7 86.17 75.04 87.04 71.37 87.91 66.07 88.77 59.63 89.64 52.66 90.51 45.82 91.37 39.73 92.24 34.96 93.11 31.96 93.97 31.02 94.84 32.23 95.71 35.5 96.57 40.54 97.44 46.92 98.31 54.06 99.17 61.34 100.04 68.09 100.91 73.72 101.77 77.72 102.64 79.71 103.51 79.52" id="img-3c8d3feb-32"/>
      </g>
      <g stroke-width="0.3" fill="#000000" fill-opacity="0.000" class="geometry color_Observation_3" stroke-dasharray="none" stroke="#FF6DAE" id="img-3c8d3feb-33">
        <path fill="none" d="M17.7,38.19 L 18.57 32.92 19.44 28.03 20.3 23.7 21.17 20.07 22.04 17.27 22.9 15.38 23.77 14.47 24.64 14.54 25.5 15.58 26.37 17.51 27.24 20.25 28.1 23.66 28.97 27.6 29.84 31.88 30.7 36.32 31.57 40.72 32.44 44.9 33.3 48.67 34.17 51.87 35.04 54.36 35.9 56.02 36.77 56.79 37.64 56.61 38.5 55.5 39.37 53.47 40.24 50.62 41.1 47.04 41.97 42.88 42.84 38.3 43.7 33.47 44.57 28.6 45.44 23.86 46.31 19.46 47.17 15.58 48.04 12.36 48.91 9.95 49.77 8.44 50.64 7.9 51.51 8.37 52.37 9.82 53.24 12.22 54.11 15.48 54.97 19.48 55.84 24.08 56.71 29.1 57.57 34.36 58.44 39.66 59.31 44.82 60.17 49.64 61.04 53.95 61.91 57.59 62.77 60.44 63.64 62.41 64.51 63.43 65.37 63.49 66.24 62.61 67.11 60.84 67.97 58.28 68.84 55.05 69.71 51.29 70.57 47.2 71.44 42.94 72.31 38.71 73.17 34.71 74.04 31.12 74.91 28.09 75.77 25.78 76.64 24.3 77.51 23.73 78.37 24.12 79.24 25.47 80.11 27.74 80.97 30.87 81.84 34.75 82.71 39.25 83.57 44.2 84.44 49.43 85.31 54.74 86.17 59.94 87.04 64.84 87.91 69.25 88.77 73.02 89.64 76 90.51 78.09 91.37 79.21 92.24 79.34 93.11 78.47 93.97 76.65 94.84 73.95 95.71 70.5 96.57 66.42 97.44 61.89 98.31 57.09 99.17 52.21 100.04 47.44 100.91 42.98 101.77 39 102.64 35.65 103.51 33.06" id="img-3c8d3feb-34"/>
      </g>
      <g stroke-width="0.3" fill="#000000" fill-opacity="0.000" class="geometry color_Observation_2" stroke-dasharray="none" stroke="#D4CA3A" id="img-3c8d3feb-35">
        <path fill="none" d="M17.7,34.01 L 18.57 25.1 19.44 17.61 20.3 12.11 21.17 9 22.04 8.47 22.9 10.52 23.77 14.94 24.64 21.31 25.5 29.1 26.37 37.63 27.24 46.22 28.1 54.17 28.97 60.86 29.84 65.82 30.7 68.72 31.57 69.41 32.44 67.95 33.3 64.59 34.17 59.73 35.04 53.9 35.9 47.67 36.77 41.66 37.64 36.43 38.5 32.45 39.37 30.05 40.24 29.4 41.1 30.49 41.97 33.13 42.84 37 43.7 41.63 44.57 46.49 45.44 51.03 46.31 54.72 47.17 57.13 48.04 57.93 48.91 56.98 49.77 54.3 50.64 50.08 51.51 44.68 52.37 38.6 53.24 32.39 54.11 26.68 54.97 22.04 55.84 18.98 56.71 17.87 57.57 18.93 58.44 22.19 59.31 27.47 60.17 34.41 61.04 42.51 61.91 51.14 62.77 59.6 63.64 67.19 64.51 73.27 65.37 77.31 66.24 78.94 67.11 77.97 67.97 74.43 68.84 68.57 69.71 60.8 70.57 51.72 71.44 42.01 72.31 32.44 73.17 23.73 74.04 16.54 74.91 11.42 75.77 8.73 76.64 8.64 77.51 11.11 78.37 15.88 79.24 22.54 80.11 30.5 80.97 39.09 81.84 47.62 82.71 55.4 83.57 61.83 84.44 66.46 85.31 68.99 86.17 69.31 87.04 67.51 87.91 63.87 88.77 58.8 89.64 52.86 90.51 46.63 91.37 40.72 92.24 35.67 93.11 31.93 93.97 29.82 94.84 29.46 95.71 30.83 96.57 33.71 97.44 37.74 98.31 42.45 99.17 47.29 100.04 51.73 100.91 55.23 101.77 57.38 102.64 57.9 103.51 56.65" id="img-3c8d3feb-36"/>
      </g>
      <g stroke-width="0.3" fill="#000000" fill-opacity="0.000" class="geometry color_Observation_1" stroke-dasharray="none" stroke="#00BFFF" id="img-3c8d3feb-37">
        <path fill="none" d="M17.7,37.01 L 18.57 30.78 19.44 25.36 20.3 21.08 21.17 18.16 22.04 16.76 22.9 16.88 23.77 18.43 24.64 21.22 25.5 24.96 26.37 29.32 27.24 33.91 28.1 38.37 28.97 42.34 29.84 45.55 30.7 47.78 31.57 48.91 32.44 48.94 33.3 47.92 34.17 46.04 35.04 43.5 35.9 40.59 36.77 37.58 37.64 34.74 38.5 32.32 39.37 30.48 40.24 29.33 41.1 28.89 41.97 29.1 42.84 29.85 43.7 30.94 44.57 32.15 45.44 33.26 46.31 34.05 47.17 34.36 48.04 34.05 48.91 33.08 49.77 31.5 50.64 29.42 51.51 27.01 52.37 24.54 53.24 22.26 54.11 20.46 54.97 19.4 55.84 19.29 56.71 20.29 57.57 22.45 58.44 25.73 59.31 30.01 60.17 35.05 61.04 40.55 61.91 46.16 62.77 51.5 63.64 56.19 64.51 59.91 65.37 62.37 66.24 63.4 67.11 62.92 67.97 60.96 68.84 57.67 69.71 53.3 70.57 48.19 71.44 42.73 72.31 37.35 73.17 32.45 74.04 28.41 74.91 25.54 75.77 24.07 76.64 24.09 77.51 25.62 78.37 28.53 79.24 32.61 80.11 37.56 80.97 43.03 81.84 48.65 82.71 54.03 83.57 58.84 84.44 62.8 85.31 65.72 86.17 67.49 87.04 68.1 87.91 67.66 88.77 66.32 89.64 64.33 90.51 61.95 91.37 59.47 92.24 57.15 93.11 55.22 93.97 53.84 94.84 53.09 95.71 53 96.57 53.48 97.44 54.4 98.31 55.57 99.17 56.77 100.04 57.77 100.91 58.35 101.77 58.36 102.64 57.68 103.51 56.29" id="img-3c8d3feb-38"/>
      </g>
    </g>
  </g>
</g>
  <g class="guide ylabels" font-size="2.82" font-family="'PT Sans Caption','Helvetica Neue','Helvetica',sans-serif" fill="#6C606B" id="img-3c8d3feb-39">
    <text x="13.84" y="80.32" text-anchor="end" dy="0.35em" id="img-3c8d3feb-40">0</text>
    <text x="13.84" y="55.88" text-anchor="end" dy="0.35em" id="img-3c8d3feb-41">1</text>
    <text x="13.84" y="31.44" text-anchor="end" dy="0.35em" id="img-3c8d3feb-42">2</text>
    <text x="13.84" y="7" text-anchor="end" dy="0.35em" id="img-3c8d3feb-43">3</text>
  </g>
  <g font-size="3.88" font-family="'PT Sans','Helvetica Neue','Helvetica',sans-serif" fill="#564A55" stroke="#000000" stroke-opacity="0.000" id="img-3c8d3feb-44">
    <text x="9.16" y="43.66" text-anchor="end" dy="0.35em" id="img-3c8d3feb-45">Y</text>
  </g>
</g>
<defs>
  <clipPath id="img-3c8d3feb-17">
  <path d="M14.84,5 L 105.51 5 105.51 82.32 14.84 82.32" />
</clipPath>
</defs>
</svg>
