<?xml version="1.0" encoding="UTF-8"?>
<svg xmlns="http://www.w3.org/2000/svg"
     xmlns:xlink="http://www.w3.org/1999/xlink"
     xmlns:gadfly="http://www.gadflyjl.org/ns"
     version="1.2"
     width="203.2mm" height="101.6mm" viewBox="0 0 203.2 101.6"
     stroke="none"
     fill="#000000"
     stroke-width="0.3"
     font-size="3.88"
>
<g class="plotroot xscalable yscalable" id="img-107530bd-1">
  <g font-size="3.88" font-family="'PT Sans','Helvetica Neue','Helvetica',sans-serif" fill="#564A55" stroke="#000000" stroke-opacity="0.000" id="img-107530bd-2">
    <g transform="translate(100.89,90.88)">
      <g class="primitive">
        <text text-anchor="middle" dy="0.6em">X</text>
      </g>
    </g>
  </g>
  <g class="guide xlabels" font-size="2.82" font-family="'PT Sans Caption','Helvetica Neue','Helvetica',sans-serif" fill="#6C606B" id="img-107530bd-3">
    <g transform="translate(18.89,84.83)">
      <g class="primitive">
        <text text-anchor="middle" dy="0.6em">0</text>
      </g>
    </g>
    <g transform="translate(100.89,84.83)">
      <g class="primitive">
        <text text-anchor="middle" dy="0.6em">50</text>
      </g>
    </g>
    <g transform="translate(182.9,84.83)">
      <g class="primitive">
        <text text-anchor="middle" dy="0.6em">100</text>
      </g>
    </g>
  </g>
  <g class="guide colorkey" id="img-107530bd-4">
    <g fill="#4C404B" font-size="2.82" font-family="'PT Sans','Helvetica Neue','Helvetica',sans-serif" id="img-107530bd-5">
      <g transform="translate(188.71,45.41)">
        <g class="primitive">
          <text dy="0.35em">Signal 1</text>
        </g>
      </g>
      <g transform="translate(188.71,49.01)">
        <g class="primitive">
          <text dy="0.35em">Signal 2</text>
        </g>
      </g>
      <g transform="translate(188.71,52.62)">
        <g class="primitive">
          <text dy="0.35em">Signal 3</text>
        </g>
      </g>
    </g>
    <g stroke="#000000" stroke-opacity="0.000" id="img-107530bd-6">
      <g transform="translate(186.8,45.41)" fill="#FF0000">
        <path d="M-0.9,-0.9 L 0.9 -0.9 0.9 0.9 -0.9 0.9 z" class="primitive"/>
      </g>
      <g transform="translate(186.8,49.01)" fill="#0000FF">
        <path d="M-0.9,-0.9 L 0.9 -0.9 0.9 0.9 -0.9 0.9 z" class="primitive"/>
      </g>
      <g transform="translate(186.8,52.62)" fill="#008000">
        <path d="M-0.9,-0.9 L 0.9 -0.9 0.9 0.9 -0.9 0.9 z" class="primitive"/>
      </g>
    </g>
    <g fill="#362A35" font-size="3.88" font-family="'PT Sans','Helvetica Neue','Helvetica',sans-serif" stroke="#000000" stroke-opacity="0.000" id="img-107530bd-7">
      <g transform="translate(185.9,41.2)">
        <g class="primitive">
          <text>Sources</text>
        </g>
      </g>
    </g>
  </g>
  <g clip-path="url(#img-107530bd-8)">
    <g id="img-107530bd-9">
      <g pointer-events="visible" opacity="1" fill="#000000" fill-opacity="0.000" stroke="#000000" stroke-opacity="0.000" class="guide background" id="img-107530bd-10">
        <g transform="translate(100.89,47.21)">
          <path d="M-84.01,-36.62 L 84.01 -36.62 84.01 36.62 -84.01 36.62 z" class="primitive"/>
        </g>
      </g>
      <g class="guide ygridlines xfixed" stroke-dasharray="0.5,0.5" stroke-width="0.2" stroke="#D0D0E0" id="img-107530bd-11">
        <g transform="translate(100.89,81.83)">
          <path fill="none" d="M-84.01,0 L 84.01 0" class="primitive"/>
        </g>
        <g transform="translate(100.89,47.21)">
          <path fill="none" d="M-84.01,0 L 84.01 0" class="primitive"/>
        </g>
        <g transform="translate(100.89,12.59)">
          <path fill="none" d="M-84.01,0 L 84.01 0" class="primitive"/>
        </g>
      </g>
      <g class="guide xgridlines yfixed" stroke-dasharray="0.5,0.5" stroke-width="0.2" stroke="#D0D0E0" id="img-107530bd-12">
        <g transform="translate(18.89,47.21)">
          <path fill="none" d="M0,-36.62 L 0 36.62" class="primitive"/>
        </g>
        <g transform="translate(100.89,47.21)">
          <path fill="none" d="M0,-36.62 L 0 36.62" class="primitive"/>
        </g>
        <g transform="translate(182.9,47.21)">
          <path fill="none" d="M0,-36.62 L 0 36.62" class="primitive"/>
        </g>
      </g>
      <g class="plotpanel" id="img-107530bd-13">
        <metadata>
          <boundingbox value="16.885945638020843mm 10.585655381944449mm 168.01660834418402mm 73.24874403211805mm"/>
          <unitbox value="-1.2193887071503509 1.0288813902396898 102.4387774143007 -1.0577627804793799"/>
        </metadata>
        <g stroke-width="0.71" fill="#000000" fill-opacity="0.000" class="geometry" id="img-107530bd-14">
          <g stroke-dasharray="none" stroke="#008000" id="img-107530bd-15">
            <g transform="translate(101.71,46.03)">
              <path fill="none" d="M-81.19,-5.7 L -79.55 -12.3 -77.91 -18.37 -76.27 -23.66 -74.63 -27.96 -72.99 -31.09 -71.35 -32.94 -69.71 -33.43 -68.07 -32.54 -66.43 -30.3 -64.79 -26.81 -63.15 -22.21 -61.51 -16.67 -59.87 -10.42 -58.23 -3.71 -56.59 3.2 -54.95 10.03 -53.31 16.5 -51.67 22.36 -50.03 27.38 -48.38 31.36 -46.74 34.13 -45.1 35.59 -43.46 35.67 -41.82 34.38 -40.18 31.77 -38.54 27.94 -36.9 23.04 -35.26 17.27 -33.62 10.85 -31.98 4.06 -30.34 -2.86 -28.7 -9.61 -27.06 -15.93 -25.42 -21.57 -23.78 -26.3 -22.14 -29.94 -20.5 -32.33 -18.86 -33.39 -17.22 -33.08 -15.58 -31.39 -13.94 -28.41 -12.3 -24.25 -10.66 -19.07 -9.02 -13.09 -7.38 -6.54 -5.74 0.32 -4.1 7.22 -2.46 13.87 -0.82 20.02 0.82 25.41 2.46 29.84 4.1 33.13 5.74 35.14 7.38 35.8 9.02 35.08 10.66 33.01 12.3 29.67 13.94 25.19 15.58 19.76 17.22 13.58 18.86 6.91 20.5 0.02 22.14 -6.84 23.78 -13.37 25.42 -19.32 27.06 -24.46 28.7 -28.57 30.34 -31.5 31.98 -33.12 33.62 -33.38 35.26 -32.26 36.9 -29.8 38.54 -26.11 40.18 -21.34 41.82 -15.66 43.46 -9.32 45.1 -2.55 46.74 4.36 48.38 11.15 50.03 17.54 51.67 23.27 53.31 28.13 54.95 31.91 56.59 34.47 58.23 35.7 59.87 35.55 61.51 34.03 63.15 31.21 64.79 27.18 66.43 22.12 68.07 16.23 69.71 9.73 71.35 2.89 72.99 -4.01 74.63 -10.71 76.27 -16.93 77.91 -22.43 79.55 -26.99 81.19 -30.43" class="primitive"/>
            </g>
          </g>
        </g>
        <g stroke-width="0.71" fill="#000000" fill-opacity="0.000" class="geometry" id="img-107530bd-16">
          <g stroke-dasharray="none" stroke="#0000FF" id="img-107530bd-17">
            <g transform="translate(101.71,46.41)">
              <path fill="none" d="M-81.19,-9.43 L -79.55 -18.75 -77.91 -26.32 -76.27 -31.47 -74.63 -33.74 -72.99 -32.92 -71.35 -29.09 -69.71 -22.59 -68.07 -14 -66.43 -4.09 -64.79 6.26 -63.15 16.12 -61.51 24.61 -59.87 30.98 -58.23 34.64 -56.59 35.29 -54.95 32.85 -53.31 27.55 -51.67 19.86 -50.03 10.47 -48.38 0.22 -46.74 -9.99 -45.1 -19.23 -43.46 -26.68 -41.82 -31.68 -40.18 -33.78 -38.54 -32.78 -36.9 -28.79 -35.26 -22.16 -33.62 -13.47 -31.98 -3.51 -30.34 6.83 -28.7 16.64 -27.06 25.03 -25.42 31.26 -23.78 34.76 -22.14 35.23 -20.5 32.63 -18.86 27.18 -17.22 19.38 -15.58 9.91 -13.94 -0.37 -12.3 -10.54 -10.66 -19.7 -9.02 -27.03 -7.38 -31.88 -5.74 -33.8 -4.1 -32.64 -2.46 -28.49 -0.82 -21.72 0.82 -12.94 2.46 -2.93 4.1 7.41 5.74 17.16 7.38 25.44 9.02 31.53 10.66 34.87 12.3 35.17 13.94 32.4 15.58 26.8 17.22 18.88 18.86 9.35 20.5 -0.95 22.14 -11.09 23.78 -20.17 25.42 -27.38 27.06 -32.07 28.7 -33.82 30.34 -32.48 31.98 -28.17 33.62 -21.27 35.26 -12.4 36.9 -2.35 38.54 7.98 40.18 17.67 41.82 25.85 43.46 31.79 45.1 34.97 46.74 35.09 48.38 32.15 50.03 26.41 51.67 18.38 53.31 8.78 54.95 -1.53 56.59 -11.63 58.23 -20.63 59.87 -27.71 61.51 -32.24 63.15 -33.83 64.79 -32.32 66.43 -27.85 68.07 -20.82 69.71 -11.86 71.35 -1.77 72.99 8.55 74.63 18.17 76.27 26.25 77.91 32.05 79.55 35.06 81.19 35.01" class="primitive"/>
            </g>
          </g>
        </g>
        <g stroke-width="0.71" fill="#000000" fill-opacity="0.000" class="geometry" id="img-107530bd-18">
          <g stroke-dasharray="none" stroke="#FF0000" id="img-107530bd-19">
            <g transform="translate(101.71,42.42)">
              <path fill="none" d="M-81.19,3.06 L -79.55 1.34 -77.91 -0.38 -76.27 -2.09 -74.63 -3.77 -72.99 -5.44 -71.35 -7.08 -69.71 -8.69 -68.07 -10.27 -66.43 -11.81 -64.79 -13.3 -63.15 -14.76 -61.51 -16.16 -59.87 -17.51 -58.23 -18.81 -56.59 -20.04 -54.95 -21.22 -53.31 -22.33 -51.67 -23.37 -50.03 -24.34 -48.38 -25.24 -46.74 -26.06 -45.1 -26.81 -43.46 -27.48 -41.82 -28.06 -40.18 -28.57 -38.54 -28.99 -36.9 -29.33 -35.26 -29.58 -33.62 -29.74 -31.98 -29.82 -30.34 -29.82 -28.7 -29.72 -27.06 -29.54 -25.42 -29.28 -23.78 -28.93 -22.14 -28.49 -20.5 -27.97 -18.86 -27.37 -17.22 -26.69 -15.58 -25.93 -13.94 -25.09 -12.3 -24.18 -10.66 -23.2 -9.02 -22.15 -7.38 -21.03 -5.74 -19.84 -4.1 -18.59 -2.46 -17.29 -0.82 -15.93 0.82 -14.52 2.46 -13.06 4.1 -11.55 5.74 -10 7.38 -8.42 9.02 -6.81 10.66 -5.16 12.3 -3.49 13.94 -1.8 15.58 -0.09 17.22 1.63 18.86 3.35 20.5 5.08 22.14 6.81 23.78 8.54 25.42 10.26 27.06 11.96 28.7 13.64 30.34 15.3 31.98 16.94 33.62 18.54 35.26 20.12 36.9 21.65 38.54 23.14 40.18 24.58 41.82 25.98 43.46 27.32 45.1 28.61 46.74 29.83 48.38 31 50.03 32.1 51.67 33.13 53.31 34.09 54.95 34.97 56.59 35.78 58.23 36.52 59.87 37.17 61.51 37.74 63.15 38.23 64.79 38.64 66.43 38.96 68.07 39.2 69.71 39.35 71.35 39.42 72.99 39.39 74.63 39.29 76.27 39.09 77.91 38.81 79.55 38.45 81.19 38" class="primitive"/>
            </g>
          </g>
        </g>
      </g>
    </g>
  </g>
  <g class="guide ylabels" font-size="2.82" font-family="'PT Sans Caption','Helvetica Neue','Helvetica',sans-serif" fill="#6C606B" id="img-107530bd-20">
    <g transform="translate(15.89,81.83)">
      <g class="primitive">
        <text text-anchor="end" dy="0.35em">0.0</text>
      </g>
    </g>
    <g transform="translate(15.89,47.21)">
      <g class="primitive">
        <text text-anchor="end" dy="0.35em">0.5</text>
      </g>
    </g>
    <g transform="translate(15.89,12.59)">
      <g class="primitive">
        <text text-anchor="end" dy="0.35em">1.0</text>
      </g>
    </g>
  </g>
  <g font-size="3.88" font-family="'PT Sans','Helvetica Neue','Helvetica',sans-serif" fill="#564A55" stroke="#000000" stroke-opacity="0.000" id="img-107530bd-21">
    <g transform="translate(9.11,47.21)">
      <g class="primitive">
        <text text-anchor="end" dy="0.35em">Y</text>
      </g>
    </g>
  </g>
  <g font-size="3.88" font-family="'PT Sans','Helvetica Neue','Helvetica',sans-serif" fill="#564A55" stroke="#000000" stroke-opacity="0.000" id="img-107530bd-22">
    <g transform="translate(100.89,5)">
      <g class="primitive">
        <text text-anchor="middle" dy="0.6em">Original signals</text>
      </g>
    </g>
  </g>
</g>
<defs>
  <clipPath id="img-107530bd-8">
    <path d="M16.89,10.59 L 184.9 10.59 184.9 83.83 16.89 83.83" />
  </clipPath>
</defs>
</svg>
