<?xml version="1.0" encoding="UTF-8"?>
<svg xmlns="http://www.w3.org/2000/svg"
     xmlns:xlink="http://www.w3.org/1999/xlink"
     xmlns:gadfly="http://www.gadflyjl.org/ns"
     version="1.2"
     width="152.4mm" height="101.6mm" viewBox="0 0 152.4 101.6"
     stroke="none"
     fill="#000000"
     stroke-width="0.3"
     font-size="3.88"
>
<g class="plotroot xscalable yscalable" id="img-107530bd-1">
  <g font-size="3.88" font-family="'PT Sans','Helvetica Neue','Helvetica',sans-serif" fill="#564A55" stroke="#000000" stroke-opacity="0.000" id="img-107530bd-2">
    <text x="69.37" y="90.88" text-anchor="middle" dy="0.6em">X</text>
  </g>
  <g class="guide xlabels" font-size="2.82" font-family="'PT Sans Caption','Helvetica Neue','Helvetica',sans-serif" fill="#6C606B" id="img-107530bd-3">
    <text x="18.89" y="84.83" text-anchor="middle" dy="0.6em">0</text>
    <text x="69.37" y="84.83" text-anchor="middle" dy="0.6em">50</text>
    <text x="119.86" y="84.83" text-anchor="middle" dy="0.6em">100</text>
  </g>
  <g class="guide colorkey" id="img-107530bd-4">
    <g fill="#4C404B" font-size="2.82" font-family="'PT Sans','Helvetica Neue','Helvetica',sans-serif" id="img-107530bd-5">
      <text x="125.67" y="42.61" dy="0.35em" id="img-107530bd-6" class="color_Signal_1">Signal 1</text>
      <text x="125.67" y="46.22" dy="0.35em" id="img-107530bd-7" class="color_Signal_2">Signal 2</text>
      <text x="125.67" y="49.83" dy="0.35em" id="img-107530bd-8" class="color_Signal_3">Signal 3</text>
    </g>
    <g stroke="#000000" stroke-opacity="0.000" id="img-107530bd-9">
      <rect x="122.86" y="41.71" width="1.8" height="1.8" id="img-107530bd-10" fill="#00BFFF" class="color_Signal_1"/>
      <rect x="122.86" y="45.32" width="1.8" height="1.8" id="img-107530bd-11" fill="#D4CA3A" class="color_Signal_2"/>
      <rect x="122.86" y="48.93" width="1.8" height="1.8" id="img-107530bd-12" fill="#FF6DAE" class="color_Signal_3"/>
    </g>
    <g fill="#362A35" font-size="3.88" font-family="'PT Sans','Helvetica Neue','Helvetica',sans-serif" stroke="#000000" stroke-opacity="0.000" id="img-107530bd-13">
      <text x="122.86" y="38.8" id="img-107530bd-14">Original signals</text>
    </g>
  </g>
<g clip-path="url(#img-107530bd-15)">
  <g id="img-107530bd-16">
    <g pointer-events="visible" opacity="1" fill="#000000" fill-opacity="0.000" stroke="#000000" stroke-opacity="0.000" class="guide background" id="img-107530bd-17">
      <rect x="16.89" y="5" width="104.98" height="78.83" id="img-107530bd-18"/>
    </g>
    <g class="guide ygridlines xfixed" stroke-dasharray="0.5,0.5" stroke-width="0.2" stroke="#D0D0E0" id="img-107530bd-19">
      <path fill="none" d="M16.89,81.83 L 121.86 81.83" id="img-107530bd-20"/>
      <path fill="none" d="M16.89,44.42 L 121.86 44.42" id="img-107530bd-21"/>
      <path fill="none" d="M16.89,7 L 121.86 7" id="img-107530bd-22"/>
    </g>
    <g class="guide xgridlines yfixed" stroke-dasharray="0.5,0.5" stroke-width="0.2" stroke="#D0D0E0" id="img-107530bd-23">
      <path fill="none" d="M18.89,5 L 18.89 83.83" id="img-107530bd-24"/>
      <path fill="none" d="M69.37,5 L 69.37 83.83" id="img-107530bd-25"/>
      <path fill="none" d="M119.86,5 L 119.86 83.83" id="img-107530bd-26"/>
    </g>
    <g class="plotpanel" id="img-107530bd-27">
      <g stroke-width="0.71" fill="#000000" fill-opacity="0.000" class="geometry color_Signal_3" stroke-dasharray="none" stroke="#FF6DAE" id="img-107530bd-28">
        <path fill="none" d="M19.9,36.98 L 20.91 29.85 21.92 23.29 22.92 17.58 23.93 12.93 24.94 9.54 25.95 7.54 26.96 7.02 27.97 7.98 28.98 10.39 29.99 14.17 31 19.14 32.01 25.13 33.02 31.88 34.03 39.14 35.04 46.6 36.05 53.98 37.06 60.98 38.07 67.31 39.08 72.73 40.09 77.03 41.1 80.02 42.11 81.6 43.12 81.69 44.13 80.3 45.14 77.47 46.15 73.33 47.16 68.04 48.17 61.8 49.18 54.87 50.19 47.53 51.2 40.06 52.21 32.76 53.22 25.93 54.23 19.83 55.24 14.72 56.25 10.79 57.26 8.2 58.27 7.05 59.28 7.4 60.29 9.22 61.3 12.44 62.31 16.94 63.32 22.53 64.33 29 65.34 36.08 66.34 43.49 67.35 50.94 68.36 58.13 69.37 64.77 70.38 70.6 71.39 75.39 72.4 78.94 73.41 81.12 74.42 81.83 75.43 81.06 76.44 78.82 77.45 75.21 78.46 70.37 79.47 64.49 80.48 57.82 81.49 50.61 82.5 43.16 83.51 35.75 84.52 28.7 85.53 22.26 86.54 16.71 87.55 12.27 88.56 9.11 89.57 7.35 90.58 7.07 91.59 8.28 92.6 10.94 93.61 14.92 94.62 20.09 95.63 26.22 96.64 33.08 97.65 40.39 98.66 47.86 99.67 55.19 100.68 62.09 101.69 68.29 102.7 73.54 103.71 77.63 104.72 80.39 105.73 81.72 106.74 81.56 107.75 79.92 108.75 76.87 109.76 72.52 110.77 67.05 111.78 60.68 112.79 53.66 113.8 46.27 114.81 38.81 115.82 31.57 116.83 24.85 117.84 18.9 118.85 13.97 119.86 10.26" id="img-107530bd-29"/>
      </g>
      <g stroke-width="0.71" fill="#000000" fill-opacity="0.000" class="geometry color_Signal_2" stroke-dasharray="none" stroke="#D4CA3A" id="img-107530bd-30">
        <path fill="none" d="M19.9,33.36 L 20.91 23.29 21.92 15.11 22.92 9.54 23.93 7.09 24.94 7.98 25.95 12.12 26.96 19.14 27.97 28.43 28.98 39.14 29.99 50.32 31 60.98 32.01 70.15 33.02 77.03 34.03 80.99 35.04 81.69 36.05 79.06 37.06 73.33 38.07 65.02 39.08 54.87 40.09 43.79 41.1 32.76 42.11 22.77 43.12 14.72 44.13 9.32 45.14 7.05 46.15 8.13 47.16 12.44 48.17 19.61 49.18 29 50.19 39.76 51.2 50.94 52.21 61.54 53.22 70.6 54.23 77.33 55.24 81.12 56.25 81.63 57.26 78.82 58.27 72.93 59.28 64.49 60.29 54.27 61.3 43.16 62.31 32.16 63.32 22.26 64.33 14.34 65.34 9.11 66.34 7.03 67.35 8.28 68.36 12.77 69.37 20.09 70.38 29.57 71.39 40.39 72.4 51.56 73.41 62.09 74.42 71.05 75.43 77.63 76.44 81.24 77.45 81.56 78.46 78.56 79.47 72.52 80.48 63.96 81.49 53.66 82.5 42.53 83.51 31.57 84.52 21.76 85.53 13.97 86.54 8.9 87.55 7.01 88.56 8.45 89.57 13.11 90.58 20.57 91.59 30.15 92.6 41.01 93.61 52.18 94.62 62.65 95.63 71.49 96.64 77.91 97.65 81.34 98.66 81.48 99.67 78.3 100.68 72.1 101.69 63.42 102.7 53.05 103.71 41.9 104.72 30.98 105.73 21.26 106.74 13.61 107.75 8.71 108.75 7 109.76 8.63 110.77 13.46 111.78 21.05 112.79 30.74 113.8 41.64 114.81 52.79 115.82 63.19 116.83 71.92 117.84 78.19 118.85 81.44 119.86 81.39" id="img-107530bd-31"/>
      </g>
      <g stroke-width="0.71" fill="#000000" fill-opacity="0.000" class="geometry color_Signal_1" stroke-dasharray="none" stroke="#00BFFF" id="img-107530bd-32">
        <path fill="none" d="M19.9,42.55 L 20.91 40.68 21.92 38.83 22.92 36.98 23.93 35.16 24.94 33.36 25.95 31.59 26.96 29.85 27.97 28.14 28.98 26.48 29.99 24.86 31 23.29 32.01 21.77 33.02 20.31 34.03 18.91 35.04 17.58 36.05 16.31 37.06 15.11 38.07 13.98 39.08 12.93 40.09 11.96 41.1 11.07 42.11 10.26 43.12 9.54 44.13 8.91 45.14 8.36 46.15 7.91 47.16 7.54 48.17 7.27 49.18 7.09 50.19 7.01 51.2 7.02 52.21 7.12 53.22 7.31 54.23 7.6 55.24 7.98 56.25 8.45 57.26 9.01 58.27 9.66 59.28 10.39 60.29 11.21 61.3 12.12 62.31 13.1 63.32 14.17 64.33 15.3 65.34 16.51 66.34 17.8 67.35 19.14 68.36 20.55 69.37 22.02 70.38 23.55 71.39 25.13 72.4 26.76 73.41 28.43 74.42 30.14 75.43 31.88 76.44 33.66 77.45 35.47 78.46 37.29 79.47 39.14 80.48 40.99 81.49 42.86 82.5 44.73 83.51 46.6 84.52 48.47 85.53 50.32 86.54 52.16 87.55 53.98 88.56 55.77 89.57 57.54 90.58 59.28 91.59 60.98 92.6 62.63 93.61 64.24 94.62 65.8 95.63 67.31 96.64 68.76 97.65 70.15 98.66 71.48 99.67 72.73 100.68 73.92 101.69 75.03 102.7 76.07 103.71 77.03 104.72 77.91 105.73 78.7 106.74 79.4 107.75 80.02 108.75 80.55 109.76 80.99 110.77 81.34 111.78 81.6 112.79 81.76 113.8 81.83 114.81 81.81 115.82 81.69 116.83 81.48 117.84 81.18 118.85 80.78 119.86 80.3" id="img-107530bd-33"/>
      </g>
    </g>
  </g>
</g>
  <g class="guide ylabels" font-size="2.82" font-family="'PT Sans Caption','Helvetica Neue','Helvetica',sans-serif" fill="#6C606B" id="img-107530bd-34">
    <text x="15.89" y="81.83" text-anchor="end" dy="0.35em" id="img-107530bd-35">0.0</text>
    <text x="15.89" y="44.42" text-anchor="end" dy="0.35em" id="img-107530bd-36">0.5</text>
    <text x="15.89" y="7" text-anchor="end" dy="0.35em" id="img-107530bd-37">1.0</text>
  </g>
  <g font-size="3.88" font-family="'PT Sans','Helvetica Neue','Helvetica',sans-serif" fill="#564A55" stroke="#000000" stroke-opacity="0.000" id="img-107530bd-38">
    <text x="9.11" y="44.42" text-anchor="end" dy="0.35em" id="img-107530bd-39">Y</text>
  </g>
</g>
<defs>
  <clipPath id="img-107530bd-15">
  <path d="M16.89,5 L 121.86 5 121.86 83.83 16.89 83.83" />
</clipPath>
</defs>
</svg>
