<?xml version="1.0" encoding="UTF-8"?>
<svg xmlns="http://www.w3.org/2000/svg"
     xmlns:xlink="http://www.w3.org/1999/xlink"
     xmlns:gadfly="http://www.gadflyjl.org/ns"
     version="1.2"
     width="152.4mm" height="101.6mm" viewBox="0 0 152.4 101.6"
     stroke="none"
     fill="#000000"
     stroke-width="0.3"
     font-size="3.88"
>
<g class="plotroot xscalable yscalable" id="img-3ae9910f-1">
  <g font-size="3.88" font-family="'PT Sans','Helvetica Neue','Helvetica',sans-serif" fill="#564A55" stroke="#000000" stroke-opacity="0.000" id="img-3ae9910f-2">
    <text x="68.67" y="90.88" text-anchor="middle" dy="0.6em">X</text>
  </g>
  <g class="guide xlabels" font-size="2.82" font-family="'PT Sans Caption','Helvetica Neue','Helvetica',sans-serif" fill="#6C606B" id="img-3ae9910f-3">
    <text x="18.96" y="84.83" text-anchor="middle" dy="0.6em">0</text>
    <text x="68.67" y="84.83" text-anchor="middle" dy="0.6em">50</text>
    <text x="118.39" y="84.83" text-anchor="middle" dy="0.6em">100</text>
  </g>
  <g class="guide colorkey" id="img-3ae9910f-4">
    <g fill="#4C404B" font-size="2.82" font-family="'PT Sans','Helvetica Neue','Helvetica',sans-serif" id="img-3ae9910f-5">
      <text x="124.2" y="42.61" dy="0.35em" id="img-3ae9910f-6" class="color_Signal_1">Signal 1</text>
      <text x="124.2" y="46.22" dy="0.35em" id="img-3ae9910f-7" class="color_Signal_2">Signal 2</text>
      <text x="124.2" y="49.83" dy="0.35em" id="img-3ae9910f-8" class="color_Signal_3">Signal 3</text>
    </g>
    <g stroke="#000000" stroke-opacity="0.000" id="img-3ae9910f-9">
      <rect x="121.39" y="41.71" width="1.8" height="1.8" id="img-3ae9910f-10" fill="#00BFFF" class="color_Signal_1"/>
      <rect x="121.39" y="45.32" width="1.8" height="1.8" id="img-3ae9910f-11" fill="#D4CA3A" class="color_Signal_2"/>
      <rect x="121.39" y="48.93" width="1.8" height="1.8" id="img-3ae9910f-12" fill="#FF6DAE" class="color_Signal_3"/>
    </g>
    <g fill="#362A35" font-size="3.88" font-family="'PT Sans','Helvetica Neue','Helvetica',sans-serif" stroke="#000000" stroke-opacity="0.000" id="img-3ae9910f-13">
      <text x="121.39" y="38.79" id="img-3ae9910f-14">Unmixed signals</text>
    </g>
  </g>
<g clip-path="url(#img-3ae9910f-15)">
  <g id="img-3ae9910f-16">
    <g pointer-events="visible" opacity="1" fill="#000000" fill-opacity="0.000" stroke="#000000" stroke-opacity="0.000" class="guide background" id="img-3ae9910f-17">
      <rect x="16.96" y="5" width="103.43" height="78.83" id="img-3ae9910f-18"/>
    </g>
    <g class="guide ygridlines xfixed" stroke-dasharray="0.5,0.5" stroke-width="0.2" stroke="#D0D0E0" id="img-3ae9910f-19">
      <path fill="none" d="M16.96,81.83 L 120.39 81.83" id="img-3ae9910f-20"/>
      <path fill="none" d="M16.96,63.13 L 120.39 63.13" id="img-3ae9910f-21"/>
      <path fill="none" d="M16.96,44.42 L 120.39 44.42" id="img-3ae9910f-22"/>
      <path fill="none" d="M16.96,25.71 L 120.39 25.71" id="img-3ae9910f-23"/>
      <path fill="none" d="M16.96,7 L 120.39 7" id="img-3ae9910f-24"/>
    </g>
    <g class="guide xgridlines yfixed" stroke-dasharray="0.5,0.5" stroke-width="0.2" stroke="#D0D0E0" id="img-3ae9910f-25">
      <path fill="none" d="M18.96,5 L 18.96 83.83" id="img-3ae9910f-26"/>
      <path fill="none" d="M68.67,5 L 68.67 83.83" id="img-3ae9910f-27"/>
      <path fill="none" d="M118.39,5 L 118.39 83.83" id="img-3ae9910f-28"/>
    </g>
    <g class="plotpanel" id="img-3ae9910f-29">
      <g stroke-width="0.71" fill="#000000" fill-opacity="0.000" class="geometry color_Signal_3" stroke-dasharray="none" stroke="#FF6DAE" id="img-3ae9910f-30">
        <path fill="none" d="M19.95,35.08 L 20.95 26.02 21.94 18.41 22.93 12.82 23.93 9.67 24.92 9.16 25.92 11.28 26.91 15.81 27.91 22.34 28.9 30.31 29.89 39.04 30.89 47.81 31.88 55.94 32.88 62.78 33.87 67.85 34.87 70.8 35.86 71.51 36.86 70.02 37.85 66.59 38.84 61.63 39.84 55.67 40.83 49.32 41.83 43.19 42.82 37.85 43.82 33.79 44.81 31.35 45.8 30.7 46.8 31.83 47.79 34.55 48.79 38.51 49.78 43.26 50.78 48.24 51.77 52.89 52.76 56.67 53.76 59.14 54.75 59.96 55.75 59 56.74 56.25 57.74 51.94 58.73 46.42 59.73 40.19 60.72 33.83 61.71 27.98 62.71 23.22 63.7 20.06 64.7 18.9 65.69 19.96 66.69 23.25 67.68 28.61 68.67 35.68 69.67 43.92 70.66 52.7 71.66 61.32 72.65 69.05 73.65 75.24 74.64 79.35 75.63 81 76.63 79.99 77.62 76.37 78.62 70.37 79.61 62.42 80.61 53.14 81.6 43.22 82.6 33.43 83.59 24.52 84.58 17.18 85.58 11.93 86.57 9.17 87.57 9.07 88.56 11.57 89.56 16.43 90.55 23.21 91.54 31.32 92.54 40.07 93.53 48.75 94.53 56.66 95.52 63.2 96.52 67.9 97.51 70.45 98.5 70.75 99.5 68.89 100.49 65.14 101.49 59.95 102.48 53.85 103.48 47.48 104.47 41.42 105.47 36.26 106.46 32.44 107.45 30.28 108.45 29.92 109.44 31.32 110.44 34.27 111.43 38.4 112.43 43.23 113.42 48.19 114.41 52.73 115.41 56.33 116.4 58.54 117.4 59.08 118.39 57.82" id="img-3ae9910f-31"/>
      </g>
      <g stroke-width="0.71" fill="#000000" fill-opacity="0.000" class="geometry color_Signal_2" stroke-dasharray="none" stroke="#D4CA3A" id="img-3ae9910f-32">
        <path fill="none" d="M19.95,40.51 L 20.95 35.36 21.94 30.58 22.93 26.33 23.93 22.76 24.92 19.98 25.92 18.09 26.91 17.15 27.91 17.16 28.9 18.11 29.89 19.95 30.89 22.6 31.88 25.91 32.88 29.76 33.87 33.97 34.87 38.35 35.86 42.72 36.86 46.89 37.85 50.67 38.84 53.9 39.84 56.43 40.83 58.15 41.83 58.97 42.82 58.85 43.82 57.78 44.81 55.8 45.8 52.97 46.8 49.4 47.79 45.24 48.79 40.65 49.78 35.81 50.78 30.92 51.77 26.17 52.76 21.76 53.76 17.88 54.75 14.67 55.75 12.28 56.74 10.81 57.74 10.31 58.73 10.83 59.73 12.33 60.72 14.78 61.71 18.07 62.71 22.09 63.7 26.68 64.7 31.68 65.69 36.89 66.69 42.13 67.68 47.2 68.67 51.92 69.67 56.12 70.66 59.65 71.66 62.39 72.65 64.27 73.65 65.23 74.64 65.24 75.63 64.35 76.63 62.6 77.62 60.08 78.62 56.92 79.61 53.27 80.61 49.28 81.6 45.14 82.6 41.03 83.59 37.14 84.58 33.63 85.58 30.67 86.57 28.4 87.57 26.93 88.56 26.34 89.56 26.67 90.55 27.94 91.54 30.11 92.54 33.14 93.53 36.91 94.53 41.3 95.52 46.15 96.52 51.3 97.51 56.55 98.5 61.71 99.5 66.6 100.49 71.01 101.49 74.8 102.48 77.82 103.48 79.96 104.47 81.14 105.47 81.31 106.46 80.48 107.45 78.69 108.45 76.01 109.44 72.56 110.44 68.48 111.43 63.94 112.43 59.12 113.42 54.23 114.41 49.45 115.41 44.98 116.4 41 117.4 37.67 118.39 35.12" id="img-3ae9910f-33"/>
      </g>
      <g stroke-width="0.71" fill="#000000" fill-opacity="0.000" class="geometry color_Signal_1" stroke-dasharray="none" stroke="#00BFFF" id="img-3ae9910f-34">
        <path fill="none" d="M19.95,37.99 L 20.95 30.92 21.94 25.06 22.93 20.9 23.93 18.75 24.92 18.75 25.92 20.86 26.91 24.83 27.91 30.27 28.9 36.63 29.89 43.3 30.89 49.65 31.88 55.05 32.88 58.98 33.87 61.05 34.87 61.02 35.86 58.87 36.86 54.75 37.85 48.99 38.84 42.07 39.84 34.57 40.83 27.15 41.83 20.43 42.82 15 43.82 11.31 44.81 9.69 45.8 10.25 46.8 12.95 47.79 17.52 48.79 23.55 49.78 30.51 50.78 37.77 51.77 44.68 52.76 50.63 53.76 55.1 54.75 57.7 55.75 58.2 56.74 56.57 57.74 52.99 58.73 47.78 59.73 41.44 60.72 34.54 61.71 27.74 62.71 21.67 63.7 16.89 64.7 13.87 65.69 12.91 66.69 14.12 67.68 17.44 68.67 22.61 69.67 29.2 70.66 36.67 71.66 44.39 72.65 51.73 73.65 58.06 74.64 62.88 75.63 65.8 76.63 66.61 77.62 65.3 78.62 62.02 79.61 57.14 80.61 51.13 81.6 44.59 82.6 38.16 83.59 32.47 84.58 28.07 85.58 25.43 86.57 24.82 87.57 26.35 88.56 29.94 89.56 35.32 90.55 42.06 91.54 49.59 92.54 57.3 93.53 64.54 94.53 70.71 95.52 75.3 96.52 77.93 97.51 78.41 98.5 76.73 99.5 73.07 100.49 67.8 101.49 61.42 102.48 54.51 103.48 47.73 104.47 41.71 105.47 37 106.46 34.05 107.45 33.13 108.45 34.35 109.44 37.61 110.44 42.63 111.43 48.96 112.43 56.06 113.42 63.29 114.41 70.01 115.41 75.61 116.4 79.58 117.4 81.58 118.39 81.41" id="img-3ae9910f-35"/>
      </g>
    </g>
  </g>
</g>
  <g class="guide ylabels" font-size="2.82" font-family="'PT Sans Caption','Helvetica Neue','Helvetica',sans-serif" fill="#6C606B" id="img-3ae9910f-36">
    <text x="15.96" y="81.83" text-anchor="end" dy="0.35em" id="img-3ae9910f-37">0.0</text>
    <text x="15.96" y="63.13" text-anchor="end" dy="0.35em" id="img-3ae9910f-38">0.2</text>
    <text x="15.96" y="44.42" text-anchor="end" dy="0.35em" id="img-3ae9910f-39">0.4</text>
    <text x="15.96" y="25.71" text-anchor="end" dy="0.35em" id="img-3ae9910f-40">0.6</text>
    <text x="15.96" y="7" text-anchor="end" dy="0.35em" id="img-3ae9910f-41">0.8</text>
  </g>
  <g font-size="3.88" font-family="'PT Sans','Helvetica Neue','Helvetica',sans-serif" fill="#564A55" stroke="#000000" stroke-opacity="0.000" id="img-3ae9910f-42">
    <text x="9.11" y="44.42" text-anchor="end" dy="0.35em" id="img-3ae9910f-43">Y</text>
  </g>
</g>
<defs>
  <clipPath id="img-3ae9910f-15">
  <path d="M16.96,5 L 120.39 5 120.39 83.83 16.96 83.83" />
</clipPath>
</defs>
</svg>
