<?xml version="1.0" encoding="UTF-8"?>
<svg xmlns="http://www.w3.org/2000/svg"
     xmlns:xlink="http://www.w3.org/1999/xlink"
     xmlns:gadfly="http://www.gadflyjl.org/ns"
     version="1.2"
     width="152.4mm" height="101.6mm" viewBox="0 0 152.4 101.6"
     stroke="none"
     fill="#000000"
     stroke-width="0.3"
     font-size="3.88"
>
<g class="plotroot xscalable yscalable" id="img-97718aae-1">
  <g font-size="3.88" font-family="'PT Sans','Helvetica Neue','Helvetica',sans-serif" fill="#564A55" stroke="#000000" stroke-opacity="0.000" id="img-97718aae-2">
    <text x="64.98" y="89.99" text-anchor="middle" dy="0.6em">X</text>
  </g>
  <g class="guide xlabels" font-size="2.82" font-family="'PT Sans Caption','Helvetica Neue','Helvetica',sans-serif" fill="#6C606B" id="img-97718aae-3">
    <text x="16.84" y="83.32" text-anchor="middle" dy="0.6em">0</text>
    <text x="64.98" y="83.32" text-anchor="middle" dy="0.6em">50</text>
    <text x="113.12" y="83.32" text-anchor="middle" dy="0.6em">100</text>
  </g>
  <g class="guide colorkey" id="img-97718aae-4">
    <g fill="#4C404B" font-size="2.82" font-family="'PT Sans','Helvetica Neue','Helvetica',sans-serif" id="img-97718aae-5">
      <text x="118.93" y="40.03" dy="0.35em" id="img-97718aae-6" class="color_Observation_1">Observation 1</text>
      <text x="118.93" y="43.66" dy="0.35em" id="img-97718aae-7" class="color_Observation_2">Observation 2</text>
      <text x="118.93" y="47.28" dy="0.35em" id="img-97718aae-8" class="color_Observation_3">Observation 3</text>
      <text x="118.93" y="50.91" dy="0.35em" id="img-97718aae-9" class="color_Observation_4">Observation 4</text>
    </g>
    <g stroke="#000000" stroke-opacity="0.000" id="img-97718aae-10">
      <rect x="116.11" y="39.12" width="1.81" height="1.81" id="img-97718aae-11" class="color_Observation_1" fill="#00BFFF"/>
      <rect x="116.11" y="42.75" width="1.81" height="1.81" id="img-97718aae-12" class="color_Observation_2" fill="#D4CA3A"/>
      <rect x="116.11" y="46.38" width="1.81" height="1.81" id="img-97718aae-13" class="color_Observation_3" fill="#FF6DAE"/>
      <rect x="116.11" y="50" width="1.81" height="1.81" id="img-97718aae-14" class="color_Observation_4" fill="#00B78D"/>
    </g>
    <g fill="#362A35" font-size="3.88" font-family="'PT Sans','Helvetica Neue','Helvetica',sans-serif" stroke="#000000" stroke-opacity="0.000" id="img-97718aae-15">
      <text x="116.11" y="36.21" id="img-97718aae-16">Mixed observations</text>
    </g>
  </g>
<g clip-path="url(#img-97718aae-17)">
  <g id="img-97718aae-18">
    <g pointer-events="visible" opacity="1" fill="#000000" fill-opacity="0.000" stroke="#000000" stroke-opacity="0.000" class="guide background" id="img-97718aae-19">
      <rect x="14.84" y="5" width="100.28" height="77.32" id="img-97718aae-20"/>
    </g>
    <g class="guide ygridlines xfixed" stroke-dasharray="0.5,0.5" stroke-width="0.2" stroke="#D0D0E0" id="img-97718aae-21">
      <path fill="none" d="M14.84,80.32 L 115.11 80.32" id="img-97718aae-22"/>
      <path fill="none" d="M14.84,55.88 L 115.11 55.88" id="img-97718aae-23"/>
      <path fill="none" d="M14.84,31.44 L 115.11 31.44" id="img-97718aae-24"/>
      <path fill="none" d="M14.84,7 L 115.11 7" id="img-97718aae-25"/>
    </g>
    <g class="guide xgridlines yfixed" stroke-dasharray="0.5,0.5" stroke-width="0.2" stroke="#D0D0E0" id="img-97718aae-26">
      <path fill="none" d="M16.84,5 L 16.84 82.32" id="img-97718aae-27"/>
      <path fill="none" d="M64.98,5 L 64.98 82.32" id="img-97718aae-28"/>
      <path fill="none" d="M113.12,5 L 113.12 82.32" id="img-97718aae-29"/>
    </g>
    <g class="plotpanel" id="img-97718aae-30">
      <g stroke-width="0.3" fill="#000000" fill-opacity="0.000" class="geometry color_Observation_4" stroke-dasharray="none" stroke="#00B78D" id="img-97718aae-31">
        <path fill="none" d="M17.8,35.82 L 18.76 28.64 19.73 22.69 20.69 18.45 21.65 16.26 22.61 16.25 23.58 18.37 24.54 22.39 25.5 27.9 26.46 34.35 27.43 41.13 28.39 47.57 29.35 53.07 30.32 57.09 31.28 59.22 32.24 59.24 33.2 57.1 34.17 52.97 35.13 47.18 36.09 40.2 37.06 32.65 38.02 25.15 38.98 18.37 39.94 12.87 40.91 9.14 41.87 7.48 42.83 8.03 43.79 10.73 44.76 15.33 45.72 21.4 46.68 28.4 47.65 35.7 48.61 42.66 49.57 48.64 50.53 53.13 51.5 55.73 52.46 56.22 53.42 54.56 54.39 50.93 55.35 45.66 56.31 39.25 57.27 32.29 58.24 25.43 59.2 19.31 60.16 14.51 61.12 11.48 62.09 10.54 63.05 11.8 64.01 15.2 64.98 20.45 65.94 27.15 66.9 34.73 67.86 42.55 68.83 49.98 69.79 56.39 70.75 61.25 71.72 64.19 72.68 64.99 73.64 63.63 74.6 60.29 75.57 55.3 76.53 49.19 77.49 42.53 78.45 35.98 79.42 30.18 80.38 25.7 81.34 22.99 82.31 22.35 83.27 23.88 84.23 27.5 85.19 32.93 86.16 39.75 87.12 47.38 88.08 55.2 89.05 62.55 90.01 68.81 90.97 73.48 91.93 76.18 92.9 76.7 93.86 75.04 94.82 71.37 95.78 66.07 96.75 59.63 97.71 52.66 98.67 45.82 99.64 39.73 100.6 34.96 101.56 31.96 102.52 31.02 103.49 32.23 104.45 35.5 105.41 40.54 106.38 46.92 107.34 54.06 108.3 61.34 109.26 68.09 110.23 73.72 111.19 77.72 112.15 79.71 113.12 79.52" id="img-97718aae-32"/>
      </g>
      <g stroke-width="0.3" fill="#000000" fill-opacity="0.000" class="geometry color_Observation_3" stroke-dasharray="none" stroke="#FF6DAE" id="img-97718aae-33">
        <path fill="none" d="M17.8,38.19 L 18.76 32.92 19.73 28.03 20.69 23.7 21.65 20.07 22.61 17.27 23.58 15.38 24.54 14.47 25.5 14.54 26.46 15.58 27.43 17.51 28.39 20.25 29.35 23.66 30.32 27.6 31.28 31.88 32.24 36.32 33.2 40.72 34.17 44.9 35.13 48.67 36.09 51.87 37.06 54.36 38.02 56.02 38.98 56.79 39.94 56.61 40.91 55.5 41.87 53.47 42.83 50.62 43.79 47.04 44.76 42.88 45.72 38.3 46.68 33.47 47.65 28.6 48.61 23.86 49.57 19.46 50.53 15.58 51.5 12.36 52.46 9.95 53.42 8.44 54.39 7.9 55.35 8.37 56.31 9.82 57.27 12.22 58.24 15.48 59.2 19.48 60.16 24.08 61.12 29.1 62.09 34.36 63.05 39.66 64.01 44.82 64.98 49.64 65.94 53.95 66.9 57.59 67.86 60.44 68.83 62.41 69.79 63.43 70.75 63.49 71.72 62.61 72.68 60.84 73.64 58.28 74.6 55.05 75.57 51.29 76.53 47.2 77.49 42.94 78.45 38.71 79.42 34.71 80.38 31.12 81.34 28.09 82.31 25.78 83.27 24.3 84.23 23.73 85.19 24.12 86.16 25.47 87.12 27.74 88.08 30.87 89.05 34.75 90.01 39.25 90.97 44.2 91.93 49.43 92.9 54.74 93.86 59.94 94.82 64.84 95.78 69.25 96.75 73.02 97.71 76 98.67 78.09 99.64 79.21 100.6 79.34 101.56 78.47 102.52 76.65 103.49 73.95 104.45 70.5 105.41 66.42 106.38 61.89 107.34 57.09 108.3 52.21 109.26 47.44 110.23 42.98 111.19 39 112.15 35.65 113.12 33.06" id="img-97718aae-34"/>
      </g>
      <g stroke-width="0.3" fill="#000000" fill-opacity="0.000" class="geometry color_Observation_2" stroke-dasharray="none" stroke="#D4CA3A" id="img-97718aae-35">
        <path fill="none" d="M17.8,34.01 L 18.76 25.1 19.73 17.61 20.69 12.11 21.65 9 22.61 8.47 23.58 10.52 24.54 14.94 25.5 21.31 26.46 29.1 27.43 37.63 28.39 46.22 29.35 54.17 30.32 60.86 31.28 65.82 32.24 68.72 33.2 69.41 34.17 67.95 35.13 64.59 36.09 59.73 37.06 53.9 38.02 47.67 38.98 41.66 39.94 36.43 40.91 32.45 41.87 30.05 42.83 29.4 43.79 30.49 44.76 33.13 45.72 37 46.68 41.63 47.65 46.49 48.61 51.03 49.57 54.72 50.53 57.13 51.5 57.93 52.46 56.98 53.42 54.3 54.39 50.08 55.35 44.68 56.31 38.6 57.27 32.39 58.24 26.68 59.2 22.04 60.16 18.98 61.12 17.87 62.09 18.93 63.05 22.19 64.01 27.47 64.98 34.41 65.94 42.51 66.9 51.14 67.86 59.6 68.83 67.19 69.79 73.27 70.75 77.31 71.72 78.94 72.68 77.97 73.64 74.43 74.6 68.57 75.57 60.8 76.53 51.72 77.49 42.01 78.45 32.44 79.42 23.73 80.38 16.54 81.34 11.42 82.31 8.73 83.27 8.64 84.23 11.11 85.19 15.88 86.16 22.54 87.12 30.5 88.08 39.09 89.05 47.62 90.01 55.4 90.97 61.83 91.93 66.46 92.9 68.99 93.86 69.31 94.82 67.51 95.78 63.87 96.75 58.8 97.71 52.86 98.67 46.63 99.64 40.72 100.6 35.67 101.56 31.93 102.52 29.82 103.49 29.46 104.45 30.83 105.41 33.71 106.38 37.74 107.34 42.45 108.3 47.29 109.26 51.73 110.23 55.23 111.19 57.38 112.15 57.9 113.12 56.65" id="img-97718aae-36"/>
      </g>
      <g stroke-width="0.3" fill="#000000" fill-opacity="0.000" class="geometry color_Observation_1" stroke-dasharray="none" stroke="#00BFFF" id="img-97718aae-37">
        <path fill="none" d="M17.8,37.01 L 18.76 30.78 19.73 25.36 20.69 21.08 21.65 18.16 22.61 16.76 23.58 16.88 24.54 18.43 25.5 21.22 26.46 24.96 27.43 29.32 28.39 33.91 29.35 38.37 30.32 42.34 31.28 45.55 32.24 47.78 33.2 48.91 34.17 48.94 35.13 47.92 36.09 46.04 37.06 43.5 38.02 40.59 38.98 37.58 39.94 34.74 40.91 32.32 41.87 30.48 42.83 29.33 43.79 28.89 44.76 29.1 45.72 29.85 46.68 30.94 47.65 32.15 48.61 33.26 49.57 34.05 50.53 34.36 51.5 34.05 52.46 33.08 53.42 31.5 54.39 29.42 55.35 27.01 56.31 24.54 57.27 22.26 58.24 20.46 59.2 19.4 60.16 19.29 61.12 20.29 62.09 22.45 63.05 25.73 64.01 30.01 64.98 35.05 65.94 40.55 66.9 46.16 67.86 51.5 68.83 56.19 69.79 59.91 70.75 62.37 71.72 63.4 72.68 62.92 73.64 60.96 74.6 57.67 75.57 53.3 76.53 48.19 77.49 42.73 78.45 37.35 79.42 32.45 80.38 28.41 81.34 25.54 82.31 24.07 83.27 24.09 84.23 25.62 85.19 28.53 86.16 32.61 87.12 37.56 88.08 43.03 89.05 48.65 90.01 54.03 90.97 58.84 91.93 62.8 92.9 65.72 93.86 67.49 94.82 68.1 95.78 67.66 96.75 66.32 97.71 64.33 98.67 61.95 99.64 59.47 100.6 57.15 101.56 55.22 102.52 53.84 103.49 53.09 104.45 53 105.41 53.48 106.38 54.4 107.34 55.57 108.3 56.77 109.26 57.77 110.23 58.35 111.19 58.36 112.15 57.68 113.12 56.29" id="img-97718aae-38"/>
      </g>
    </g>
  </g>
</g>
  <g class="guide ylabels" font-size="2.82" font-family="'PT Sans Caption','Helvetica Neue','Helvetica',sans-serif" fill="#6C606B" id="img-97718aae-39">
    <text x="13.84" y="80.32" text-anchor="end" dy="0.35em" id="img-97718aae-40">0</text>
    <text x="13.84" y="55.88" text-anchor="end" dy="0.35em" id="img-97718aae-41">1</text>
    <text x="13.84" y="31.44" text-anchor="end" dy="0.35em" id="img-97718aae-42">2</text>
    <text x="13.84" y="7" text-anchor="end" dy="0.35em" id="img-97718aae-43">3</text>
  </g>
  <g font-size="3.88" font-family="'PT Sans','Helvetica Neue','Helvetica',sans-serif" fill="#564A55" stroke="#000000" stroke-opacity="0.000" id="img-97718aae-44">
    <text x="9.16" y="43.66" text-anchor="end" dy="0.35em" id="img-97718aae-45">Y</text>
  </g>
</g>
<defs>
  <clipPath id="img-97718aae-17">
  <path d="M14.84,5 L 115.11 5 115.11 82.32 14.84 82.32" />
</clipPath>
</defs>
</svg>
