<?xml version="1.0" encoding="UTF-8"?>
<svg xmlns="http://www.w3.org/2000/svg"
     xmlns:xlink="http://www.w3.org/1999/xlink"
     xmlns:gadfly="http://www.gadflyjl.org/ns"
     version="1.2"
     width="203.2mm" height="101.6mm" viewBox="0 0 203.2 101.6"
     stroke="none"
     fill="#000000"
     stroke-width="0.3"
     font-size="3.88"
>
<g class="plotroot xscalable yscalable" id="img-3ae9910f-1">
  <g font-size="3.88" font-family="'PT Sans','Helvetica Neue','Helvetica',sans-serif" fill="#564A55" stroke="#000000" stroke-opacity="0.000" id="img-3ae9910f-2">
    <text x="94.07" y="90.88" text-anchor="middle" dy="0.6em">X</text>
  </g>
  <g class="guide xlabels" font-size="2.82" font-family="'PT Sans Caption','Helvetica Neue','Helvetica',sans-serif" fill="#6C606B" id="img-3ae9910f-3">
    <text x="18.96" y="84.83" text-anchor="middle" dy="0.6em">0</text>
    <text x="94.07" y="84.83" text-anchor="middle" dy="0.6em">50</text>
    <text x="169.19" y="84.83" text-anchor="middle" dy="0.6em">100</text>
  </g>
  <g class="guide colorkey" id="img-3ae9910f-4">
    <g fill="#4C404B" font-size="2.82" font-family="'PT Sans','Helvetica Neue','Helvetica',sans-serif" id="img-3ae9910f-5">
      <text x="175" y="42.61" dy="0.35em" id="img-3ae9910f-6" class="color_Signal_1">Signal 1</text>
      <text x="175" y="46.22" dy="0.35em" id="img-3ae9910f-7" class="color_Signal_2">Signal 2</text>
      <text x="175" y="49.83" dy="0.35em" id="img-3ae9910f-8" class="color_Signal_3">Signal 3</text>
    </g>
    <g stroke="#000000" stroke-opacity="0.000" id="img-3ae9910f-9">
      <rect x="172.19" y="41.71" width="1.8" height="1.8" id="img-3ae9910f-10" fill="#00BFFF" class="color_Signal_1"/>
      <rect x="172.19" y="45.32" width="1.8" height="1.8" id="img-3ae9910f-11" fill="#D4CA3A" class="color_Signal_2"/>
      <rect x="172.19" y="48.93" width="1.8" height="1.8" id="img-3ae9910f-12" fill="#FF6DAE" class="color_Signal_3"/>
    </g>
    <g fill="#362A35" font-size="3.88" font-family="'PT Sans','Helvetica Neue','Helvetica',sans-serif" stroke="#000000" stroke-opacity="0.000" id="img-3ae9910f-13">
      <text x="172.19" y="38.79" id="img-3ae9910f-14">Unmixed signals</text>
    </g>
  </g>
<g clip-path="url(#img-3ae9910f-15)">
  <g id="img-3ae9910f-16">
    <g pointer-events="visible" opacity="1" fill="#000000" fill-opacity="0.000" stroke="#000000" stroke-opacity="0.000" class="guide background" id="img-3ae9910f-17">
      <rect x="16.96" y="5" width="154.23" height="78.83" id="img-3ae9910f-18"/>
    </g>
    <g class="guide ygridlines xfixed" stroke-dasharray="0.5,0.5" stroke-width="0.2" stroke="#D0D0E0" id="img-3ae9910f-19">
      <path fill="none" d="M16.96,81.83 L 171.19 81.83" id="img-3ae9910f-20"/>
      <path fill="none" d="M16.96,63.13 L 171.19 63.13" id="img-3ae9910f-21"/>
      <path fill="none" d="M16.96,44.42 L 171.19 44.42" id="img-3ae9910f-22"/>
      <path fill="none" d="M16.96,25.71 L 171.19 25.71" id="img-3ae9910f-23"/>
      <path fill="none" d="M16.96,7 L 171.19 7" id="img-3ae9910f-24"/>
    </g>
    <g class="guide xgridlines yfixed" stroke-dasharray="0.5,0.5" stroke-width="0.2" stroke="#D0D0E0" id="img-3ae9910f-25">
      <path fill="none" d="M18.96,5 L 18.96 83.83" id="img-3ae9910f-26"/>
      <path fill="none" d="M94.07,5 L 94.07 83.83" id="img-3ae9910f-27"/>
      <path fill="none" d="M169.19,5 L 169.19 83.83" id="img-3ae9910f-28"/>
    </g>
    <g class="plotpanel" id="img-3ae9910f-29">
      <g stroke-width="0.71" fill="#000000" fill-opacity="0.000" class="geometry color_Signal_3" stroke-dasharray="none" stroke="#FF6DAE" id="img-3ae9910f-30">
        <path fill="none" d="M20.46,35.08 L 21.96 26.02 23.46 18.41 24.97 12.82 26.47 9.67 27.97 9.16 29.47 11.28 30.98 15.81 32.48 22.34 33.98 30.31 35.48 39.04 36.99 47.81 38.49 55.94 39.99 62.78 41.49 67.85 42.99 70.8 44.5 71.51 46 70.02 47.5 66.59 49 61.63 50.51 55.67 52.01 49.32 53.51 43.19 55.01 37.85 56.52 33.79 58.02 31.35 59.52 30.7 61.02 31.83 62.53 34.55 64.03 38.51 65.53 43.26 67.03 48.24 68.53 52.89 70.04 56.67 71.54 59.14 73.04 59.96 74.54 59 76.05 56.25 77.55 51.94 79.05 46.42 80.55 40.19 82.06 33.83 83.56 27.98 85.06 23.22 86.56 20.06 88.06 18.9 89.57 19.96 91.07 23.25 92.57 28.61 94.07 35.68 95.58 43.92 97.08 52.7 98.58 61.32 100.08 69.05 101.59 75.24 103.09 79.35 104.59 81 106.09 79.99 107.6 76.37 109.1 70.37 110.6 62.42 112.1 53.14 113.6 43.22 115.11 33.43 116.61 24.52 118.11 17.18 119.61 11.93 121.12 9.17 122.62 9.07 124.12 11.57 125.62 16.43 127.13 23.21 128.63 31.32 130.13 40.07 131.63 48.75 133.14 56.66 134.64 63.2 136.14 67.9 137.64 70.45 139.14 70.75 140.65 68.89 142.15 65.14 143.65 59.95 145.15 53.85 146.66 47.48 148.16 41.42 149.66 36.26 151.16 32.44 152.67 30.28 154.17 29.92 155.67 31.32 157.17 34.27 158.68 38.4 160.18 43.23 161.68 48.19 163.18 52.73 164.68 56.33 166.19 58.54 167.69 59.08 169.19 57.82" id="img-3ae9910f-31"/>
      </g>
      <g stroke-width="0.71" fill="#000000" fill-opacity="0.000" class="geometry color_Signal_2" stroke-dasharray="none" stroke="#D4CA3A" id="img-3ae9910f-32">
        <path fill="none" d="M20.46,40.51 L 21.96 35.36 23.46 30.58 24.97 26.33 26.47 22.76 27.97 19.98 29.47 18.09 30.98 17.15 32.48 17.16 33.98 18.11 35.48 19.95 36.99 22.6 38.49 25.91 39.99 29.76 41.49 33.97 42.99 38.35 44.5 42.72 46 46.89 47.5 50.67 49 53.9 50.51 56.43 52.01 58.15 53.51 58.97 55.01 58.85 56.52 57.78 58.02 55.8 59.52 52.97 61.02 49.4 62.53 45.24 64.03 40.65 65.53 35.81 67.03 30.92 68.53 26.17 70.04 21.76 71.54 17.88 73.04 14.67 74.54 12.28 76.05 10.81 77.55 10.31 79.05 10.83 80.55 12.33 82.06 14.78 83.56 18.07 85.06 22.09 86.56 26.68 88.06 31.68 89.57 36.89 91.07 42.13 92.57 47.2 94.07 51.92 95.58 56.12 97.08 59.65 98.58 62.39 100.08 64.27 101.59 65.23 103.09 65.24 104.59 64.35 106.09 62.6 107.6 60.08 109.1 56.92 110.6 53.27 112.1 49.28 113.6 45.14 115.11 41.03 116.61 37.14 118.11 33.63 119.61 30.67 121.12 28.4 122.62 26.93 124.12 26.34 125.62 26.67 127.13 27.94 128.63 30.11 130.13 33.14 131.63 36.91 133.14 41.3 134.64 46.15 136.14 51.3 137.64 56.55 139.14 61.71 140.65 66.6 142.15 71.01 143.65 74.8 145.15 77.82 146.66 79.96 148.16 81.14 149.66 81.31 151.16 80.48 152.67 78.69 154.17 76.01 155.67 72.56 157.17 68.48 158.68 63.94 160.18 59.12 161.68 54.23 163.18 49.45 164.68 44.98 166.19 41 167.69 37.67 169.19 35.12" id="img-3ae9910f-33"/>
      </g>
      <g stroke-width="0.71" fill="#000000" fill-opacity="0.000" class="geometry color_Signal_1" stroke-dasharray="none" stroke="#00BFFF" id="img-3ae9910f-34">
        <path fill="none" d="M20.46,37.99 L 21.96 30.92 23.46 25.06 24.97 20.9 26.47 18.75 27.97 18.75 29.47 20.86 30.98 24.83 32.48 30.27 33.98 36.63 35.48 43.3 36.99 49.65 38.49 55.05 39.99 58.98 41.49 61.05 42.99 61.02 44.5 58.87 46 54.75 47.5 48.99 49 42.07 50.51 34.57 52.01 27.15 53.51 20.43 55.01 15 56.52 11.31 58.02 9.69 59.52 10.25 61.02 12.95 62.53 17.52 64.03 23.55 65.53 30.51 67.03 37.77 68.53 44.68 70.04 50.63 71.54 55.1 73.04 57.7 74.54 58.2 76.05 56.57 77.55 52.99 79.05 47.78 80.55 41.44 82.06 34.54 83.56 27.74 85.06 21.67 86.56 16.89 88.06 13.87 89.57 12.91 91.07 14.12 92.57 17.44 94.07 22.61 95.58 29.2 97.08 36.67 98.58 44.39 100.08 51.73 101.59 58.06 103.09 62.88 104.59 65.8 106.09 66.61 107.6 65.3 109.1 62.02 110.6 57.14 112.1 51.13 113.6 44.59 115.11 38.16 116.61 32.47 118.11 28.07 119.61 25.43 121.12 24.82 122.62 26.35 124.12 29.94 125.62 35.32 127.13 42.06 128.63 49.59 130.13 57.3 131.63 64.54 133.14 70.71 134.64 75.3 136.14 77.93 137.64 78.41 139.14 76.73 140.65 73.07 142.15 67.8 143.65 61.42 145.15 54.51 146.66 47.73 148.16 41.71 149.66 37 151.16 34.05 152.67 33.13 154.17 34.35 155.67 37.61 157.17 42.63 158.68 48.96 160.18 56.06 161.68 63.29 163.18 70.01 164.68 75.61 166.19 79.58 167.69 81.58 169.19 81.41" id="img-3ae9910f-35"/>
      </g>
    </g>
  </g>
</g>
  <g class="guide ylabels" font-size="2.82" font-family="'PT Sans Caption','Helvetica Neue','Helvetica',sans-serif" fill="#6C606B" id="img-3ae9910f-36">
    <text x="15.96" y="81.83" text-anchor="end" dy="0.35em" id="img-3ae9910f-37">0.0</text>
    <text x="15.96" y="63.13" text-anchor="end" dy="0.35em" id="img-3ae9910f-38">0.2</text>
    <text x="15.96" y="44.42" text-anchor="end" dy="0.35em" id="img-3ae9910f-39">0.4</text>
    <text x="15.96" y="25.71" text-anchor="end" dy="0.35em" id="img-3ae9910f-40">0.6</text>
    <text x="15.96" y="7" text-anchor="end" dy="0.35em" id="img-3ae9910f-41">0.8</text>
  </g>
  <g font-size="3.88" font-family="'PT Sans','Helvetica Neue','Helvetica',sans-serif" fill="#564A55" stroke="#000000" stroke-opacity="0.000" id="img-3ae9910f-42">
    <text x="9.11" y="44.42" text-anchor="end" dy="0.35em" id="img-3ae9910f-43">Y</text>
  </g>
</g>
<defs>
  <clipPath id="img-3ae9910f-15">
  <path d="M16.96,5 L 171.19 5 171.19 83.83 16.96 83.83" />
</clipPath>
</defs>
</svg>
