<?xml version="1.0" encoding="UTF-8"?>
<svg xmlns="http://www.w3.org/2000/svg"
     xmlns:xlink="http://www.w3.org/1999/xlink"
     xmlns:gadfly="http://www.gadflyjl.org/ns"
     version="1.2"
     width="152.4mm" height="101.6mm" viewBox="0 0 152.4 101.6"
     stroke="none"
     fill="#000000"
     stroke-width="0.3"
     font-size="3.88"
>
<g class="plotroot xscalable yscalable" id="img-107530bd-1">
  <g font-size="3.88" font-family="'PT Sans','Helvetica Neue','Helvetica',sans-serif" fill="#564A55" stroke="#000000" stroke-opacity="0.000" id="img-107530bd-2">
    <text x="69.34" y="89.99" text-anchor="middle" dy="0.6em">X</text>
  </g>
  <g class="guide xlabels" font-size="2.82" font-family="'PT Sans Caption','Helvetica Neue','Helvetica',sans-serif" fill="#6C606B" id="img-107530bd-3">
    <text x="19.18" y="83.32" text-anchor="middle" dy="0.6em">0</text>
    <text x="69.34" y="83.32" text-anchor="middle" dy="0.6em">50</text>
    <text x="119.49" y="83.32" text-anchor="middle" dy="0.6em">100</text>
  </g>
  <g class="guide colorkey" id="img-107530bd-4">
    <g fill="#4C404B" font-size="2.82" font-family="'PT Sans','Helvetica Neue','Helvetica',sans-serif" id="img-107530bd-5">
      <text x="125.31" y="41.84" dy="0.35em" id="img-107530bd-6" class="color_Signal_1">Signal 1</text>
      <text x="125.31" y="45.47" dy="0.35em" id="img-107530bd-7" class="color_Signal_2">Signal 2</text>
      <text x="125.31" y="49.1" dy="0.35em" id="img-107530bd-8" class="color_Signal_3">Signal 3</text>
    </g>
    <g stroke="#000000" stroke-opacity="0.000" id="img-107530bd-9">
      <rect x="122.49" y="40.94" width="1.81" height="1.81" id="img-107530bd-10" class="color_Signal_1" fill="#00BFFF"/>
      <rect x="122.49" y="44.56" width="1.81" height="1.81" id="img-107530bd-11" class="color_Signal_2" fill="#D4CA3A"/>
      <rect x="122.49" y="48.19" width="1.81" height="1.81" id="img-107530bd-12" class="color_Signal_3" fill="#FF6DAE"/>
    </g>
    <g fill="#362A35" font-size="3.88" font-family="'PT Sans','Helvetica Neue','Helvetica',sans-serif" stroke="#000000" stroke-opacity="0.000" id="img-107530bd-13">
      <text x="122.49" y="38.02" id="img-107530bd-14">Original signals</text>
    </g>
  </g>
<g clip-path="url(#img-107530bd-15)">
  <g id="img-107530bd-16">
    <g pointer-events="visible" opacity="1" fill="#000000" fill-opacity="0.000" stroke="#000000" stroke-opacity="0.000" class="guide background" id="img-107530bd-17">
      <rect x="17.18" y="5" width="104.31" height="77.32" id="img-107530bd-18"/>
    </g>
    <g class="guide ygridlines xfixed" stroke-dasharray="0.5,0.5" stroke-width="0.2" stroke="#D0D0E0" id="img-107530bd-19">
      <path fill="none" d="M17.18,80.31 L 121.49 80.31" id="img-107530bd-20"/>
      <path fill="none" d="M17.18,43.66 L 121.49 43.66" id="img-107530bd-21"/>
      <path fill="none" d="M17.18,7 L 121.49 7" id="img-107530bd-22"/>
    </g>
    <g class="guide xgridlines yfixed" stroke-dasharray="0.5,0.5" stroke-width="0.2" stroke="#D0D0E0" id="img-107530bd-23">
      <path fill="none" d="M19.18,5 L 19.18 82.32" id="img-107530bd-24"/>
      <path fill="none" d="M69.34,5 L 69.34 82.32" id="img-107530bd-25"/>
      <path fill="none" d="M119.49,5 L 119.49 82.32" id="img-107530bd-26"/>
    </g>
    <g class="plotpanel" id="img-107530bd-27">
      <g stroke-width="0.3" fill="#000000" fill-opacity="0.000" class="geometry color_Signal_3" stroke-dasharray="none" stroke="#FF6DAE" id="img-107530bd-28">
        <path fill="none" d="M20.19,36.37 L 21.19 29.38 22.19 22.96 23.2 17.36 24.2 12.81 25.2 9.49 26.21 7.53 27.21 7.02 28.21 7.96 29.21 10.32 30.22 14.02 31.22 18.9 32.22 24.76 33.23 31.38 34.23 38.48 35.23 45.8 36.24 53.02 37.24 59.88 38.24 66.09 39.25 71.4 40.25 75.61 41.25 78.54 42.26 80.08 43.26 80.17 44.26 78.81 45.26 76.04 46.27 71.99 47.27 66.8 48.27 60.69 49.28 53.9 50.28 46.7 51.28 39.39 52.29 32.24 53.29 25.54 54.29 19.57 55.3 14.56 56.3 10.71 57.3 8.18 58.3 7.05 59.31 7.39 60.31 9.17 61.31 12.33 62.32 16.74 63.32 22.22 64.32 28.55 65.33 35.49 66.33 42.75 67.33 50.05 68.34 57.09 69.34 63.6 70.34 69.31 71.35 74 72.35 77.48 73.35 79.62 74.35 80.31 75.36 79.55 76.36 77.36 77.36 73.82 78.37 69.08 79.37 63.33 80.37 56.79 81.38 49.73 82.38 42.42 83.38 35.17 84.39 28.26 85.39 21.95 86.39 16.52 87.4 12.16 88.4 9.06 89.4 7.34 90.4 7.07 91.41 8.26 92.41 10.86 93.41 14.76 94.42 19.82 95.42 25.83 96.42 32.55 97.43 39.71 98.43 47.03 99.43 54.21 100.44 60.98 101.44 67.05 102.44 72.19 103.45 76.19 104.45 78.9 105.45 80.2 106.45 80.05 107.46 78.44 108.46 75.45 109.46 71.19 110.47 65.83 111.47 59.59 112.47 52.71 113.48 45.47 114.48 38.16 115.48 31.07 116.49 24.48 117.49 18.66 118.49 13.83 119.49 10.19" id="img-107530bd-29"/>
      </g>
      <g stroke-width="0.3" fill="#000000" fill-opacity="0.000" class="geometry color_Signal_2" stroke-dasharray="none" stroke="#D4CA3A" id="img-107530bd-30">
        <path fill="none" d="M20.19,32.82 L 21.19 22.96 22.19 14.94 23.2 9.49 24.2 7.09 25.2 7.96 26.21 12.01 27.21 18.9 28.21 27.99 29.21 38.48 30.22 49.44 31.22 59.88 32.22 68.87 33.23 75.61 34.23 79.49 35.23 80.17 36.24 77.6 37.24 71.99 38.24 63.84 39.25 53.9 40.25 43.04 41.25 32.24 42.26 22.45 43.26 14.56 44.26 9.27 45.26 7.05 46.27 8.1 47.27 12.33 48.27 19.35 49.28 28.55 50.28 39.1 51.28 50.05 52.29 60.43 53.29 69.31 54.29 75.9 55.3 79.62 56.3 80.12 57.3 77.36 58.3 71.59 59.31 63.33 60.31 53.31 61.31 42.42 62.32 31.65 63.32 21.95 64.32 14.19 65.33 9.06 66.33 7.03 67.33 8.26 68.34 12.65 69.34 19.82 70.34 29.11 71.35 39.71 72.35 50.65 73.35 60.98 74.35 69.75 75.36 76.19 76.36 79.73 77.36 80.05 78.37 77.11 79.37 71.19 80.37 62.8 81.38 52.71 82.38 41.81 83.38 31.07 84.39 21.46 85.39 13.83 86.39 8.86 87.4 7.01 88.4 8.42 89.4 12.99 90.4 20.29 91.41 29.68 92.41 40.32 93.41 51.26 94.42 61.52 95.42 70.18 96.42 76.47 97.43 79.84 98.43 79.97 99.43 76.85 100.44 70.78 101.44 62.28 102.44 52.11 103.45 41.19 104.45 30.5 105.45 20.97 106.45 13.48 107.46 8.68 108.46 7 109.46 8.6 110.47 13.33 111.47 20.77 112.47 30.25 113.48 40.94 114.48 51.86 115.48 62.05 116.49 70.6 117.49 76.74 118.49 79.93 119.49 79.88" id="img-107530bd-31"/>
      </g>
      <g stroke-width="0.3" fill="#000000" fill-opacity="0.000" class="geometry color_Signal_1" stroke-dasharray="none" stroke="#00BFFF" id="img-107530bd-32">
        <path fill="none" d="M20.19,41.83 L 21.19 40 22.19 38.18 23.2 36.37 24.2 34.59 25.2 32.82 26.21 31.09 27.21 29.38 28.21 27.71 29.21 26.08 30.22 24.5 31.22 22.96 32.22 21.47 33.23 20.04 34.23 18.67 35.23 17.36 36.24 16.12 37.24 14.94 38.24 13.84 39.25 12.81 40.25 11.86 41.25 10.99 42.26 10.2 43.26 9.49 44.26 8.87 45.26 8.34 46.27 7.89 47.27 7.53 48.27 7.27 49.28 7.09 50.28 7.01 51.28 7.02 52.29 7.11 53.29 7.31 54.29 7.59 55.3 7.96 56.3 8.42 57.3 8.97 58.3 9.6 59.31 10.32 60.31 11.13 61.31 12.01 62.32 12.98 63.32 14.02 64.32 15.14 65.33 16.32 66.33 17.58 67.33 18.9 68.34 20.28 69.34 21.72 70.34 23.21 71.35 24.76 72.35 26.35 73.35 27.99 74.35 29.67 75.36 31.38 76.36 33.12 77.36 34.89 78.37 36.68 79.37 38.48 80.37 40.3 81.38 42.13 82.38 43.97 83.38 45.8 84.39 47.62 85.39 49.44 86.39 51.24 87.4 53.02 88.4 54.78 89.4 56.52 90.4 58.22 91.41 59.88 92.41 61.5 93.41 63.08 94.42 64.61 95.42 66.09 96.42 67.51 97.43 68.87 98.43 70.17 99.43 71.4 100.44 72.56 101.44 73.65 102.44 74.67 103.45 75.61 104.45 76.47 105.45 77.24 106.45 77.93 107.46 78.54 108.46 79.06 109.46 79.49 110.47 79.83 111.47 80.08 112.47 80.24 113.48 80.31 114.48 80.29 115.48 80.17 116.49 79.97 117.49 79.67 118.49 79.29 119.49 78.81" id="img-107530bd-33"/>
      </g>
    </g>
  </g>
</g>
  <g class="guide ylabels" font-size="2.82" font-family="'PT Sans Caption','Helvetica Neue','Helvetica',sans-serif" fill="#6C606B" id="img-107530bd-34">
    <text x="16.18" y="80.31" text-anchor="end" dy="0.35em" id="img-107530bd-35">0.0</text>
    <text x="16.18" y="43.66" text-anchor="end" dy="0.35em" id="img-107530bd-36">0.5</text>
    <text x="16.18" y="7" text-anchor="end" dy="0.35em" id="img-107530bd-37">1.0</text>
  </g>
  <g font-size="3.88" font-family="'PT Sans','Helvetica Neue','Helvetica',sans-serif" fill="#564A55" stroke="#000000" stroke-opacity="0.000" id="img-107530bd-38">
    <text x="9.16" y="43.66" text-anchor="end" dy="0.35em" id="img-107530bd-39">Y</text>
  </g>
</g>
<defs>
  <clipPath id="img-107530bd-15">
  <path d="M17.18,5 L 121.49 5 121.49 82.32 17.18 82.32" />
</clipPath>
</defs>
</svg>
