<?xml version="1.0" encoding="UTF-8"?>
<svg xmlns="http://www.w3.org/2000/svg"
     xmlns:xlink="http://www.w3.org/1999/xlink"
     xmlns:gadfly="http://www.gadflyjl.org/ns"
     version="1.2"
     width="203.2mm" height="101.6mm" viewBox="0 0 203.2 101.6"
     stroke="none"
     fill="#000000"
     stroke-width="0.3"
     font-size="3.88"
>
<g class="plotroot xscalable yscalable" id="img-3c8d3feb-1">
  <g font-size="3.88" font-family="'PT Sans','Helvetica Neue','Helvetica',sans-serif" fill="#564A55" stroke="#000000" stroke-opacity="0.000" id="img-3c8d3feb-2">
    <text x="85.67" y="90.88" text-anchor="middle" dy="0.6em">X</text>
  </g>
  <g class="guide xlabels" font-size="2.82" font-family="'PT Sans Caption','Helvetica Neue','Helvetica',sans-serif" fill="#6C606B" id="img-3c8d3feb-3">
    <text x="16.54" y="84.83" text-anchor="middle" dy="0.6em">0</text>
    <text x="85.67" y="84.83" text-anchor="middle" dy="0.6em">50</text>
    <text x="154.81" y="84.83" text-anchor="middle" dy="0.6em">100</text>
  </g>
  <g class="guide colorkey" id="img-3c8d3feb-4">
    <g fill="#4C404B" font-size="2.82" font-family="'PT Sans','Helvetica Neue','Helvetica',sans-serif" id="img-3c8d3feb-5">
      <text x="180.32" y="44.42" dy="0.35em" id="img-3c8d3feb-6" class="color_Observation_3">Observation 3</text>
      <text x="180.32" y="47.46" dy="0.35em" id="img-3c8d3feb-7" class="color_Observation_4">Observation 4</text>
    </g>
    <g stroke="#000000" stroke-opacity="0.000" id="img-3c8d3feb-8">
      <rect x="177.8" y="43.66" width="1.52" height="1.52" id="img-3c8d3feb-9" fill="#FF6DAE" class="color_Observation_3"/>
      <rect x="177.8" y="46.7" width="1.52" height="1.52" id="img-3c8d3feb-10" fill="#00B78D" class="color_Observation_4"/>
    </g>
    <g fill="#4C404B" font-size="2.82" font-family="'PT Sans','Helvetica Neue','Helvetica',sans-serif" id="img-3c8d3feb-11">
      <text x="160.33" y="44.42" dy="0.35em" id="img-3c8d3feb-12" class="color_Observation_1">Observation 1</text>
      <text x="160.33" y="47.46" dy="0.35em" id="img-3c8d3feb-13" class="color_Observation_2">Observation 2</text>
    </g>
    <g stroke="#000000" stroke-opacity="0.000" id="img-3c8d3feb-14">
      <rect x="157.81" y="43.66" width="1.52" height="1.52" id="img-3c8d3feb-15" fill="#00BFFF" class="color_Observation_1"/>
      <rect x="157.81" y="46.7" width="1.52" height="1.52" id="img-3c8d3feb-16" fill="#D4CA3A" class="color_Observation_2"/>
    </g>
    <g fill="#362A35" font-size="3.88" font-family="'PT Sans','Helvetica Neue','Helvetica',sans-serif" stroke="#000000" stroke-opacity="0.000" id="img-3c8d3feb-17">
      <text x="157.81" y="41.14" id="img-3c8d3feb-18">Reproduced observations</text>
    </g>
  </g>
<g clip-path="url(#img-3c8d3feb-19)">
  <g id="img-3c8d3feb-20">
    <g pointer-events="visible" opacity="1" fill="#000000" fill-opacity="0.000" stroke="#000000" stroke-opacity="0.000" class="guide background" id="img-3c8d3feb-21">
      <rect x="14.54" y="5" width="142.27" height="78.83" id="img-3c8d3feb-22"/>
    </g>
    <g class="guide ygridlines xfixed" stroke-dasharray="0.5,0.5" stroke-width="0.2" stroke="#D0D0E0" id="img-3c8d3feb-23">
      <path fill="none" d="M14.54,81.83 L 156.81 81.83" id="img-3c8d3feb-24"/>
      <path fill="none" d="M14.54,56.89 L 156.81 56.89" id="img-3c8d3feb-25"/>
      <path fill="none" d="M14.54,31.94 L 156.81 31.94" id="img-3c8d3feb-26"/>
      <path fill="none" d="M14.54,7 L 156.81 7" id="img-3c8d3feb-27"/>
    </g>
    <g class="guide xgridlines yfixed" stroke-dasharray="0.5,0.5" stroke-width="0.2" stroke="#D0D0E0" id="img-3c8d3feb-28">
      <path fill="none" d="M16.54,5 L 16.54 83.83" id="img-3c8d3feb-29"/>
      <path fill="none" d="M85.67,5 L 85.67 83.83" id="img-3c8d3feb-30"/>
      <path fill="none" d="M154.81,5 L 154.81 83.83" id="img-3c8d3feb-31"/>
    </g>
    <g class="plotpanel" id="img-3c8d3feb-32">
      <g stroke-width="0.71" fill="#000000" fill-opacity="0.000" class="geometry color_Observation_4" stroke-dasharray="none" stroke="#00B78D" id="img-3c8d3feb-33">
        <path fill="none" d="M17.92,36.42 L 19.3 29.09 20.69 23.01 22.07 18.69 23.45 16.45 24.83 16.44 26.22 18.61 27.6 22.71 28.98 28.33 30.36 34.92 31.75 41.83 33.13 48.41 34.51 54.03 35.9 58.12 37.28 60.3 38.66 60.32 40.04 58.14 41.43 53.92 42.81 48.01 44.19 40.89 45.57 33.18 46.96 25.53 48.34 18.6 49.72 12.99 51.11 9.18 52.49 7.49 53.87 8.05 55.25 10.81 56.64 15.5 58.02 21.7 59.4 28.84 60.78 36.3 62.17 43.4 63.55 49.51 64.93 54.09 66.32 56.74 67.7 57.24 69.08 55.55 70.46 51.84 71.85 46.46 73.23 39.92 74.61 32.81 75.99 25.81 77.38 19.56 78.76 14.66 80.14 11.58 81.53 10.62 82.91 11.9 84.29 15.37 85.67 20.73 87.06 27.56 88.44 35.3 89.82 43.29 91.2 50.87 92.59 57.41 93.97 62.38 95.35 65.38 96.74 66.19 98.12 64.81 99.5 61.39 100.88 56.31 102.27 50.06 103.65 43.26 105.03 36.58 106.41 30.66 107.8 26.09 109.18 23.32 110.56 22.66 111.95 24.23 113.33 27.92 114.71 33.47 116.09 40.43 117.48 48.22 118.86 56.2 120.24 63.7 121.62 70.1 123.01 74.86 124.39 77.61 125.77 78.14 127.16 76.45 128.54 72.71 129.92 67.29 131.3 60.72 132.69 53.61 134.07 46.62 135.45 40.41 136.83 35.54 138.22 32.48 139.6 31.52 140.98 32.75 142.37 36.09 143.75 41.24 145.13 47.74 146.51 55.04 147.9 62.46 149.28 69.36 150.66 75.11 152.04 79.18 153.43 81.22 154.81 81.02" id="img-3c8d3feb-34"/>
      </g>
      <g stroke-width="0.71" fill="#000000" fill-opacity="0.000" class="geometry color_Observation_3" stroke-dasharray="none" stroke="#FF6DAE" id="img-3c8d3feb-35">
        <path fill="none" d="M17.92,38.84 L 19.3 33.46 20.69 28.47 22.07 24.05 23.45 20.34 24.83 17.48 26.22 15.56 27.6 14.63 28.98 14.7 30.36 15.76 31.75 17.73 33.13 20.53 34.51 24.01 35.9 28.03 37.28 32.4 38.66 36.93 40.04 41.42 41.43 45.69 42.81 49.53 44.19 52.8 45.57 55.34 46.96 57.04 48.34 57.82 49.72 57.64 51.11 56.5 52.49 54.44 53.87 51.52 55.25 47.87 56.64 43.63 58.02 38.95 59.4 34.02 60.78 29.04 62.17 24.21 63.55 19.72 64.93 15.76 66.32 12.47 67.7 10.01 69.08 8.47 70.46 7.92 71.85 8.4 73.23 9.88 74.61 12.33 75.99 15.66 77.38 19.74 78.76 24.43 80.14 29.56 81.53 34.93 82.91 40.34 84.29 45.6 85.67 50.52 87.06 54.92 88.44 58.64 89.82 61.55 91.2 63.56 92.59 64.6 93.97 64.66 95.35 63.76 96.74 61.96 98.12 59.34 99.5 56.04 100.88 52.21 102.27 48.03 103.65 43.68 105.03 39.37 106.41 35.29 107.8 31.62 109.18 28.53 110.56 26.17 111.95 24.66 113.33 24.08 114.71 24.48 116.09 25.85 117.48 28.17 118.86 31.36 120.24 35.32 121.62 39.92 123.01 44.97 124.39 50.31 125.77 55.73 127.16 61.04 128.54 66.04 129.92 70.54 131.3 74.38 132.69 77.43 134.07 79.56 135.45 80.71 136.83 80.84 138.22 79.95 139.6 78.09 140.98 75.34 142.37 71.81 143.75 67.65 145.13 63.03 146.51 58.12 147.9 53.14 149.28 48.28 150.66 43.72 152.04 39.66 153.43 36.24 154.81 33.6" id="img-3c8d3feb-36"/>
      </g>
      <g stroke-width="0.71" fill="#000000" fill-opacity="0.000" class="geometry color_Observation_2" stroke-dasharray="none" stroke="#D4CA3A" id="img-3c8d3feb-37">
        <path fill="none" d="M17.92,34.57 L 19.3 25.48 20.69 17.83 22.07 12.22 23.45 9.04 24.83 8.5 26.22 10.59 27.6 15.1 28.98 21.61 30.36 29.56 31.75 38.27 33.13 47.03 34.51 55.14 35.9 61.98 37.28 67.04 38.66 69.99 40.04 70.7 41.43 69.21 42.81 65.79 44.19 60.83 45.57 54.87 46.96 48.51 48.34 42.38 49.72 37.04 51.11 32.98 52.49 30.53 53.87 29.86 55.25 30.97 56.64 33.67 58.02 37.62 59.4 42.35 60.78 47.31 62.17 51.94 63.55 55.71 64.93 58.17 66.32 58.99 67.7 58.02 69.08 55.28 70.46 50.97 71.85 45.46 73.23 39.25 74.61 32.92 75.99 27.09 77.38 22.35 78.76 19.23 80.14 18.1 81.53 19.18 82.91 22.5 84.29 27.89 85.67 34.98 87.06 43.25 88.44 52.05 89.82 60.69 91.2 68.44 92.59 74.64 93.97 78.77 95.35 80.43 96.74 79.44 98.12 75.83 99.5 69.84 100.88 61.91 102.27 52.64 103.65 42.74 105.03 32.97 106.41 24.07 107.8 16.74 109.18 11.51 110.56 8.76 111.95 8.67 113.33 11.19 114.71 16.07 116.09 22.86 117.48 30.99 118.86 39.76 120.24 48.46 121.62 56.4 123.01 62.97 124.39 67.69 125.77 70.27 127.16 70.6 128.54 68.76 129.92 65.05 131.3 59.88 132.69 53.81 134.07 47.45 135.45 41.41 136.83 36.26 138.22 32.45 139.6 30.29 140.98 29.93 142.37 31.32 143.75 34.26 145.13 38.38 146.51 43.18 147.9 48.13 149.28 52.65 150.66 56.23 152.04 58.43 153.43 58.95 154.81 57.68" id="img-3c8d3feb-38"/>
      </g>
      <g stroke-width="0.71" fill="#000000" fill-opacity="0.000" class="geometry color_Observation_1" stroke-dasharray="none" stroke="#00BFFF" id="img-3c8d3feb-39">
        <path fill="none" d="M17.92,37.63 L 19.3 31.27 20.69 25.74 22.07 21.37 23.45 18.4 24.83 16.96 26.22 17.08 27.6 18.67 28.98 21.52 30.36 25.34 31.75 29.78 33.13 34.47 34.51 39.02 35.9 43.07 37.28 46.35 38.66 48.62 40.04 49.78 41.43 49.8 42.81 48.77 44.19 46.85 45.57 44.26 46.96 41.28 48.34 38.21 49.72 35.32 51.11 32.84 52.49 30.96 53.87 29.79 55.25 29.34 56.64 29.56 58.02 30.32 59.4 31.43 60.78 32.67 62.17 33.8 63.55 34.62 64.93 34.92 66.32 34.61 67.7 33.62 69.08 32.01 70.46 29.88 71.85 27.43 73.23 24.9 74.61 22.57 75.99 20.73 77.38 19.65 78.76 19.55 80.14 20.57 81.53 22.77 82.91 26.12 84.29 30.49 85.67 35.63 87.06 41.24 88.44 46.97 89.82 52.42 91.2 57.21 92.59 61.01 93.97 63.52 95.35 64.57 96.74 64.08 98.12 62.07 99.5 58.72 100.88 54.26 102.27 49.04 103.65 43.47 105.03 37.98 106.41 32.97 107.8 28.85 109.18 25.93 110.56 24.42 111.95 24.45 113.33 26 114.71 28.97 116.09 33.14 117.48 38.19 118.86 43.78 120.24 49.51 121.62 55.01 123.01 59.92 124.39 63.96 125.77 66.94 127.16 68.74 128.54 69.37 129.92 68.92 131.3 67.55 132.69 65.52 134.07 63.09 135.45 60.56 136.83 58.19 138.22 56.22 139.6 54.81 140.98 54.05 142.37 53.95 143.75 54.44 145.13 55.39 146.51 56.58 147.9 57.8 149.28 58.82 150.66 59.42 152.04 59.42 153.43 58.73 154.81 57.31" id="img-3c8d3feb-40"/>
      </g>
    </g>
  </g>
</g>
  <g class="guide ylabels" font-size="2.82" font-family="'PT Sans Caption','Helvetica Neue','Helvetica',sans-serif" fill="#6C606B" id="img-3c8d3feb-41">
    <text x="13.54" y="81.83" text-anchor="end" dy="0.35em" id="img-3c8d3feb-42">0</text>
    <text x="13.54" y="56.89" text-anchor="end" dy="0.35em" id="img-3c8d3feb-43">1</text>
    <text x="13.54" y="31.94" text-anchor="end" dy="0.35em" id="img-3c8d3feb-44">2</text>
    <text x="13.54" y="7" text-anchor="end" dy="0.35em" id="img-3c8d3feb-45">3</text>
  </g>
  <g font-size="3.88" font-family="'PT Sans','Helvetica Neue','Helvetica',sans-serif" fill="#564A55" stroke="#000000" stroke-opacity="0.000" id="img-3c8d3feb-46">
    <text x="9.11" y="44.42" text-anchor="end" dy="0.35em" id="img-3c8d3feb-47">Y</text>
  </g>
</g>
<defs>
  <clipPath id="img-3c8d3feb-19">
  <path d="M14.54,5 L 156.81 5 156.81 83.83 14.54 83.83" />
</clipPath>
</defs>
</svg>
