<?xml version="1.0" encoding="UTF-8"?>
<svg xmlns="http://www.w3.org/2000/svg"
     xmlns:xlink="http://www.w3.org/1999/xlink"
     xmlns:gadfly="http://www.gadflyjl.org/ns"
     version="1.2"
     width="152.4mm" height="152.4mm" viewBox="0 0 152.4 152.4"
     stroke="none"
     fill="#000000"
     stroke-width="0.3"
     font-size="3.88"
>
<g class="plotroot" id="fig-c023884ade92406f94b092b2fdcbbb5c-element-1">
  <g font-size="3.88" font-family="'PT Sans','Helvetica Neue','Helvetica',sans-serif" fill="#564A55" stroke="#000000" stroke-opacity="0.000" id="fig-c023884ade92406f94b092b2fdcbbb5c-element-2">
    <text x="80.77" y="140.79" text-anchor="middle" dy="0.6em">Eigenvectors</text>
  </g>
  <g class="guide xlabels" font-size="2.82" font-family="'PT Sans Caption','Helvetica Neue','Helvetica',sans-serif" fill="#6C606B" id="fig-c023884ade92406f94b092b2fdcbbb5c-element-3">
    <text x="52.47" y="134.11" text-anchor="middle" dy="0.6em">1</text>
    <text x="109.08" y="134.11" text-anchor="middle" dy="0.6em">2</text>
  </g>
  <g class="guide colorkey" id="fig-c023884ade92406f94b092b2fdcbbb5c-element-4">
    <g font-size="2.82" font-family="'PT Sans','Helvetica Neue','Helvetica',sans-serif" fill="#4C404B" id="fig-c023884ade92406f94b092b2fdcbbb5c-element-5">
      <text x="141.7" y="64.98" dy="0.35em">0.5</text>
      <text x="141.7" y="72.77" dy="0.35em">0.0</text>
      <text x="141.7" y="80.56" dy="0.35em">-0.5</text>
      <text x="141.7" y="88.35" dy="0.35em">-1.0</text>
    </g>
    <g shape-rendering="crispEdges" stroke="#000000" stroke-opacity="0.000" id="fig-c023884ade92406f94b092b2fdcbbb5c-element-6">
      <rect x="139.39" y="87.77" width="1.31" height="0.58" fill="#008000"/>
      <rect x="139.39" y="87.19" width="1.31" height="0.58" fill="#208600"/>
      <rect x="139.39" y="86.6" width="1.31" height="0.58" fill="#328D00"/>
      <rect x="139.39" y="86.02" width="1.31" height="0.58" fill="#409300"/>
      <rect x="139.39" y="85.43" width="1.31" height="0.58" fill="#4D9A00"/>
      <rect x="139.39" y="84.85" width="1.31" height="0.58" fill="#5AA000"/>
      <rect x="139.39" y="84.26" width="1.31" height="0.58" fill="#66A700"/>
      <rect x="139.39" y="83.68" width="1.31" height="0.58" fill="#72AD00"/>
      <rect x="139.39" y="83.1" width="1.31" height="0.58" fill="#7DB300"/>
      <rect x="139.39" y="82.51" width="1.31" height="0.58" fill="#88BA00"/>
      <rect x="139.39" y="81.93" width="1.31" height="0.58" fill="#94C000"/>
      <rect x="139.39" y="81.34" width="1.31" height="0.58" fill="#9FC700"/>
      <rect x="139.39" y="80.76" width="1.31" height="0.58" fill="#AACE00"/>
      <rect x="139.39" y="80.17" width="1.31" height="0.58" fill="#B5D400"/>
      <rect x="139.39" y="79.59" width="1.31" height="0.58" fill="#C1DB00"/>
      <rect x="139.39" y="79.01" width="1.31" height="0.58" fill="#CCE100"/>
      <rect x="139.39" y="78.42" width="1.31" height="0.58" fill="#D7E800"/>
      <rect x="139.39" y="77.84" width="1.31" height="0.58" fill="#E2EE00"/>
      <rect x="139.39" y="77.25" width="1.31" height="0.58" fill="#EEF500"/>
      <rect x="139.39" y="76.67" width="1.31" height="0.58" fill="#F9FC00"/>
      <rect x="139.39" y="76.08" width="1.31" height="0.58" fill="#FFFA00"/>
      <rect x="139.39" y="75.5" width="1.31" height="0.58" fill="#FFF100"/>
      <rect x="139.39" y="74.92" width="1.31" height="0.58" fill="#FFE800"/>
      <rect x="139.39" y="74.33" width="1.31" height="0.58" fill="#FFDE00"/>
      <rect x="139.39" y="73.75" width="1.31" height="0.58" fill="#FFD500"/>
      <rect x="139.39" y="73.16" width="1.31" height="0.58" fill="#FFCB00"/>
      <rect x="139.39" y="72.58" width="1.31" height="0.58" fill="#FFC200"/>
      <rect x="139.39" y="71.99" width="1.31" height="0.58" fill="#FFB800"/>
      <rect x="139.39" y="71.41" width="1.31" height="0.58" fill="#FFAE00"/>
      <rect x="139.39" y="70.83" width="1.31" height="0.58" fill="#FFA400"/>
      <rect x="139.39" y="70.24" width="1.31" height="0.58" fill="#FF9A00"/>
      <rect x="139.39" y="69.66" width="1.31" height="0.58" fill="#FF8F00"/>
      <rect x="139.39" y="69.07" width="1.31" height="0.58" fill="#FF8400"/>
      <rect x="139.39" y="68.49" width="1.31" height="0.58" fill="#FF7900"/>
      <rect x="139.39" y="67.9" width="1.31" height="0.58" fill="#FF6D00"/>
      <rect x="139.39" y="67.32" width="1.31" height="0.58" fill="#FF6000"/>
      <rect x="139.39" y="66.74" width="1.31" height="0.58" fill="#FF5200"/>
      <rect x="139.39" y="66.15" width="1.31" height="0.58" fill="#FF4200"/>
      <rect x="139.39" y="65.57" width="1.31" height="0.58" fill="#FF2D00"/>
      <rect x="139.39" y="64.98" width="1.31" height="0.58" fill="#FF0000"/>
      <g stroke="#FFFFFF" stroke-width="0.2" id="fig-c023884ade92406f94b092b2fdcbbb5c-element-7">
        <path fill="none" d="M139.39,64.98 L 140.7 64.98"/>
        <path fill="none" d="M139.39,72.77 L 140.7 72.77"/>
        <path fill="none" d="M139.39,80.56 L 140.7 80.56"/>
        <path fill="none" d="M139.39,88.35 L 140.7 88.35"/>
      </g>
    </g>
    <g fill="#362A35" font-size="3.88" font-family="'PT Sans','Helvetica Neue','Helvetica',sans-serif" stroke="#000000" stroke-opacity="0.000" id="fig-c023884ade92406f94b092b2fdcbbb5c-element-8">
      <text x="139.39" y="60.98">value</text>
    </g>
  </g>
  <g clip-path="url(#fig-c023884ade92406f94b092b2fdcbbb5c-element-10)" id="fig-c023884ade92406f94b092b2fdcbbb5c-element-9">
    <g pointer-events="visible" opacity="1" fill="#000000" fill-opacity="0.000" stroke="#000000" stroke-opacity="0.000" class="guide background" id="fig-c023884ade92406f94b092b2fdcbbb5c-element-11">
      <rect x="24.16" y="5" width="113.23" height="128.11"/>
    </g>
    <g class="guide ygridlines xfixed" stroke-dasharray="0.5,0.5" stroke-width="0.2" stroke="#D0D0E0" id="fig-c023884ade92406f94b092b2fdcbbb5c-element-12">
      <path fill="none" d="M24.16,69.06 L 137.39 69.06"/>
    </g>
    <g class="guide xgridlines yfixed" stroke-dasharray="0.5,0.5" stroke-width="0.2" stroke="#D0D0E0" id="fig-c023884ade92406f94b092b2fdcbbb5c-element-13">
      <path fill="none" d="M80.77,5 L 80.77 133.11"/>
    </g>
    <g class="plotpanel" id="fig-c023884ade92406f94b092b2fdcbbb5c-element-14">
      <g shape-rendering="crispEdges" class="geometry" stroke="#000000" stroke-opacity="0.000" id="fig-c023884ade92406f94b092b2fdcbbb5c-element-15">
        <rect x="24.16" y="5" width="56.66" height="64.11" fill="#208600"/>
        <rect x="24.16" y="69.06" width="56.66" height="64.11" fill="#FF7800"/>
        <rect x="80.77" y="5" width="56.66" height="64.11" fill="#F8FB00"/>
        <rect x="80.77" y="69.06" width="56.66" height="64.11" fill="#208600"/>
      </g>
    </g>
  </g>
  <g class="guide ylabels" font-size="2.82" font-family="'PT Sans Caption','Helvetica Neue','Helvetica',sans-serif" fill="#6C606B" id="fig-c023884ade92406f94b092b2fdcbbb5c-element-16">
    <text x="23.16" y="37.03" text-anchor="end" dy="0.35em">omega</text>
    <text x="23.16" y="101.09" text-anchor="end" dy="0.35em">k</text>
  </g>
  <g font-size="3.88" font-family="'PT Sans','Helvetica Neue','Helvetica',sans-serif" fill="#564A55" stroke="#000000" stroke-opacity="0.000" id="fig-c023884ade92406f94b092b2fdcbbb5c-element-17">
    <text x="8.81" y="67.06" text-anchor="middle" dy="0.35em" transform="rotate(-90, 8.81, 69.06)">Parameters</text>
  </g>
</g>
<defs>
<clipPath id="fig-c023884ade92406f94b092b2fdcbbb5c-element-10">
  <path d="M24.16,5 L 137.39 5 137.39 133.11 24.16 133.11" />
</clipPath
></defs>
</svg>
