<?xml version="1.0" encoding="UTF-8"?>
<svg xmlns="http://www.w3.org/2000/svg"
     xmlns:xlink="http://www.w3.org/1999/xlink"
     xmlns:gadfly="http://www.gadflyjl.org/ns"
     version="1.2"
     width="152.4mm" height="101.6mm" viewBox="0 0 152.4 101.6"
     stroke="none"
     fill="#000000"
     stroke-width="0.3"
     font-size="3.88"
>
<g class="plotroot xscalable yscalable" id="img-de820c82-1">
  <g font-size="3.88" font-family="'PT Sans','Helvetica Neue','Helvetica',sans-serif" fill="#564A55" stroke="#000000" stroke-opacity="0.000" id="img-de820c82-2">
    <text x="78.46" y="89.99" text-anchor="middle" dy="0.6em">x</text>
  </g>
  <g class="guide xlabels" font-size="2.82" font-family="'PT Sans Caption','Helvetica Neue','Helvetica',sans-serif" fill="#6C606B" id="img-de820c82-3">
    <text x="19.94" y="83.32" text-anchor="middle" dy="0.6em">0</text>
    <text x="78.46" y="83.32" text-anchor="middle" dy="0.6em">50</text>
    <text x="136.97" y="83.32" text-anchor="middle" dy="0.6em">100</text>
  </g>
  <g class="guide colorkey" id="img-de820c82-4">
    <g fill="#4C404B" font-size="2.82" font-family="'PT Sans','Helvetica Neue','Helvetica',sans-serif" id="img-de820c82-5">
      <text x="142.79" y="43.66" dy="0.35em">x(t)</text>
      <text x="142.79" y="47.28" dy="0.35em">x'(t)</text>
    </g>
    <g stroke="#000000" stroke-opacity="0.000" id="img-de820c82-6">
      <rect x="139.97" y="42.75" width="1.81" height="1.81" fill="#FFA500"/>
      <rect x="139.97" y="46.38" width="1.81" height="1.81" fill="#0000FF"/>
    </g>
    <g fill="#362A35" font-size="3.88" font-family="'PT Sans','Helvetica Neue','Helvetica',sans-serif" stroke="#000000" stroke-opacity="0.000" id="img-de820c82-7">
      <text x="139.97" y="39.84">ODE</text>
    </g>
  </g>
<g clip-path="url(#img-de820c82-8)">
  <g id="img-de820c82-9">
    <g pointer-events="visible" opacity="1" fill="#000000" fill-opacity="0.000" stroke="#000000" stroke-opacity="0.000" class="guide background" id="img-de820c82-10">
      <rect x="17.94" y="5" width="121.03" height="77.32"/>
    </g>
    <g class="guide ygridlines xfixed" stroke-dasharray="0.5,0.5" stroke-width="0.2" stroke="#D0D0E0" id="img-de820c82-11">
      <path fill="none" d="M17.94,80.32 L 138.97 80.32"/>
      <path fill="none" d="M17.94,55.88 L 138.97 55.88"/>
      <path fill="none" d="M17.94,31.44 L 138.97 31.44"/>
      <path fill="none" d="M17.94,7 L 138.97 7"/>
    </g>
    <g class="guide xgridlines yfixed" stroke-dasharray="0.5,0.5" stroke-width="0.2" stroke="#D0D0E0" id="img-de820c82-12">
      <path fill="none" d="M19.94,5 L 19.94 82.32"/>
      <path fill="none" d="M78.46,5 L 78.46 82.32"/>
      <path fill="none" d="M136.97,5 L 136.97 82.32"/>
    </g>
    <g class="plotpanel" id="img-de820c82-13">
      <g stroke-width="0.3" fill="#000000" fill-opacity="0.000" class="geometry" stroke-dasharray="none" stroke="#0000FF" id="img-de820c82-14">
        <path fill="none" d="M19.94,55.88 L 20.06 56.07 20.17 56.26 20.29 56.45 20.41 56.64 20.52 56.83 20.64 57.01 20.76 57.19 20.88 57.37 20.99 57.55 21.11 57.72 21.23 57.9 21.34 58.07 21.46 58.23 21.58 58.4 21.69 58.56 21.81 58.72 21.93 58.87 22.05 59.03 22.16 59.18 22.28 59.33 22.4 59.47 22.51 59.61 22.63 59.75 22.75 59.89 22.87 60.02 22.98 60.15 23.1 60.28 23.22 60.41 23.33 60.53 23.45 60.65 23.57 60.76 23.68 60.87 23.8 60.98 23.92 61.09 24.04 61.19 24.15 61.29 24.27 61.39 24.39 61.48 24.5 61.57 24.62 61.66 24.74 61.74 24.85 61.82 24.97 61.9 25.09 61.97 25.21 62.05 25.32 62.11 25.44 62.18 25.56 62.24 25.67 62.3 25.79 62.35 25.91 62.41 26.02 62.46 26.14 62.5 26.26 62.55 26.38 62.59 26.49 62.62 26.61 62.66 26.73 62.69 26.84 62.71 26.96 62.74 27.08 62.76 27.2 62.78 27.31 62.8 27.43 62.81 27.55 62.82 27.66 62.83 27.78 62.83 27.9 62.83 28.01 62.83 28.13 62.83 28.25 62.82 28.37 62.81 28.48 62.8 28.6 62.78 28.72 62.77 28.83 62.75 28.95 62.73 29.07 62.7 29.18 62.67 29.3 62.64 29.42 62.61 29.54 62.58 29.65 62.54 29.77 62.5 29.89 62.46 30 62.42 30.12 62.37 30.24 62.32 30.36 62.27 30.47 62.22 30.59 62.17 30.71 62.11 30.82 62.05 30.94 61.99 31.06 61.93 31.17 61.87 31.29 61.8 31.41 61.74 31.53 61.67 31.64 61.6 31.76 61.52 31.88 61.45 31.99 61.38 32.11 61.3 32.23 61.22 32.34 61.14 32.46 61.06 32.58 60.98 32.7 60.9 32.81 60.81 32.93 60.73 33.05 60.64 33.16 60.56 33.28 60.47 33.4 60.38 33.52 60.29 33.63 60.2 33.75 60.11 33.87 60.01 33.98 59.92 34.1 59.83 34.22 59.73 34.33 59.64 34.45 59.54 34.57 59.45 34.69 59.35 34.8 59.25 34.92 59.15 35.04 59.06 35.15 58.96 35.27 58.86 35.39 58.76 35.5 58.66 35.62 58.56 35.74 58.46 35.86 58.37 35.97 58.27 36.09 58.17 36.21 58.07 36.32 57.97 36.44 57.87 36.56 57.77 36.68 57.68 36.79 57.58 36.91 57.48 37.03 57.38 37.14 57.29 37.26 57.19 37.38 57.09 37.49 57 37.61 56.9 37.73 56.81 37.85 56.71 37.96 56.62 38.08 56.53 38.2 56.44 38.31 56.34 38.43 56.25 38.55 56.16 38.66 56.07 38.78 55.99 38.9 55.9 39.02 55.81 39.13 55.73 39.25 55.64 39.37 55.56 39.48 55.47 39.6 55.39 39.72 55.31 39.83 55.23 39.95 55.15 40.07 55.07 40.19 55 40.3 54.92 40.42 54.85 40.54 54.77 40.65 54.7 40.77 54.63 40.89 54.56 41.01 54.49 41.12 54.43 41.24 54.36 41.36 54.29 41.47 54.23 41.59 54.17 41.71 54.11 41.82 54.05 41.94 53.99 42.06 53.93 42.18 53.88 42.29 53.82 42.41 53.77 42.53 53.72 42.64 53.67 42.76 53.62 42.88 53.57 42.99 53.53 43.11 53.48 43.23 53.44 43.35 53.4 43.46 53.36 43.58 53.32 43.7 53.28 43.81 53.24 43.93 53.21 44.05 53.17 44.17 53.14 44.28 53.11 44.4 53.08 44.52 53.05 44.63 53.03 44.75 53 44.87 52.98 44.98 52.96 45.1 52.94 45.22 52.92 45.34 52.9 45.45 52.88 45.57 52.87 45.69 52.85 45.8 52.84 45.92 52.83 46.04 52.82 46.15 52.81 46.27 52.8 46.39 52.8 46.51 52.79 46.62 52.79 46.74 52.79 46.86 52.79 46.97 52.79 47.09 52.79 47.21 52.79 47.33 52.79 47.44 52.8 47.56 52.8 47.68 52.81 47.79 52.82 47.91 52.83 48.03 52.84 48.14 52.85 48.26 52.87 48.38 52.88 48.5 52.9 48.61 52.91 48.73 52.93 48.85 52.95 48.96 52.97 49.08 52.99 49.2 53.01 49.31 53.03 49.43 53.05 49.55 53.08 49.67 53.1 49.78 53.13 49.9 53.15 50.02 53.18 50.13 53.21 50.25 53.24 50.37 53.27 50.49 53.3 50.6 53.33 50.72 53.36 50.84 53.39 50.95 53.42 51.07 53.46 51.19 53.49 51.3 53.53 51.42 53.56 51.54 53.6 51.66 53.64 51.77 53.67 51.89 53.71 52.01 53.75 52.12 53.79 52.24 53.83 52.36 53.87 52.47 53.91 52.59 53.95 52.71 53.99 52.83 54.03 52.94 54.07 53.06 54.11 53.18 54.15 53.29 54.2 53.41 54.24 53.53 54.28 53.65 54.32 53.76 54.37 53.88 54.41 54 54.45 54.11 54.5 54.23 54.54 54.35 54.58 54.46 54.63 54.58 54.67 54.7 54.72 54.82 54.76 54.93 54.8 55.05 54.85 55.17 54.89 55.28 54.94 55.4 54.98 55.52 55.02 55.63 55.07 55.75 55.11 55.87 55.15 55.99 55.2 56.1 55.24 56.22 55.28 56.34 55.33 56.45 55.37 56.57 55.41 56.69 55.45 56.8 55.49 56.92 55.54 57.04 55.58 57.16 55.62 57.27 55.66 57.39 55.7 57.51 55.74 57.62 55.78 57.74 55.82 57.86 55.86 57.98 55.9 58.09 55.93 58.21 55.97 58.33 56.01 58.44 56.05 58.56 56.08 58.68 56.12 58.79 56.15 58.91 56.19 59.03 56.22 59.15 56.26 59.26 56.29 59.38 56.33 59.5 56.36 59.61 56.39 59.73 56.42 59.85 56.45 59.96 56.48 60.08 56.51 60.2 56.54 60.32 56.57 60.43 56.6 60.55 56.63 60.67 56.66 60.78 56.68 60.9 56.71 61.02 56.73 61.14 56.76 61.25 56.78 61.37 56.81 61.49 56.83 61.6 56.85 61.72 56.87 61.84 56.9 61.95 56.92 62.07 56.94 62.19 56.96 62.31 56.97 62.42 56.99 62.54 57.01 62.66 57.03 62.77 57.04 62.89 57.06 63.01 57.07 63.12 57.09 63.24 57.1 63.36 57.12 63.48 57.13 63.59 57.14 63.71 57.15 63.83 57.16 63.94 57.17 64.06 57.18 64.18 57.19 64.3 57.2 64.41 57.21 64.53 57.21 64.65 57.22 64.76 57.22 64.88 57.23 65 57.23 65.11 57.24 65.23 57.24 65.35 57.24 65.47 57.25 65.58 57.25 65.7 57.25 65.82 57.25 65.93 57.25 66.05 57.25 66.17 57.25 66.28 57.25 66.4 57.25 66.52 57.24 66.64 57.24 66.75 57.24 66.87 57.23 66.99 57.23 67.1 57.22 67.22 57.22 67.34 57.21 67.46 57.2 67.57 57.2 67.69 57.19 67.81 57.18 67.92 57.17 68.04 57.16 68.16 57.15 68.27 57.14 68.39 57.13 68.51 57.12 68.63 57.11 68.74 57.1 68.86 57.09 68.98 57.08 69.09 57.07 69.21 57.05 69.33 57.04 69.44 57.03 69.56 57.01 69.68 57 69.8 56.98 69.91 56.97 70.03 56.96 70.15 56.94 70.26 56.92 70.38 56.91 70.5 56.89 70.61 56.88 70.73 56.86 70.85 56.84 70.97 56.83 71.08 56.81 71.2 56.79 71.32 56.77 71.43 56.76 71.55 56.74 71.67 56.72 71.79 56.7 71.9 56.68 72.02 56.67 72.14 56.65 72.25 56.63 72.37 56.61 72.49 56.59 72.6 56.57 72.72 56.55 72.84 56.53 72.96 56.51 73.07 56.49 73.19 56.48 73.31 56.46 73.42 56.44 73.54 56.42 73.66 56.4 73.77 56.38 73.89 56.36 74.01 56.34 74.13 56.32 74.24 56.3 74.36 56.28 74.48 56.26 74.59 56.24 74.71 56.22 74.83 56.2 74.95 56.18 75.06 56.16 75.18 56.15 75.3 56.13 75.41 56.11 75.53 56.09 75.65 56.07 75.76 56.05 75.88 56.03 76 56.01 76.12 56 76.23 55.98 76.35 55.96 76.47 55.94 76.58 55.92 76.7 55.91 76.82 55.89 76.93 55.87 77.05 55.86 77.17 55.84 77.29 55.82 77.4 55.81 77.52 55.79 77.64 55.77 77.75 55.76 77.87 55.74 77.99 55.73 78.11 55.71 78.22 55.7 78.34 55.68 78.46 55.67 78.57 55.65 78.69 55.64 78.81 55.62 78.92 55.61 79.04 55.6 79.16 55.58 79.28 55.57 79.39 55.56 79.51 55.55 79.63 55.53 79.74 55.52 79.86 55.51 79.98 55.5 80.09 55.49 80.21 55.48 80.33 55.47 80.45 55.46 80.56 55.45 80.68 55.44 80.8 55.43 80.91 55.42 81.03 55.41 81.15 55.4 81.27 55.39 81.38 55.38 81.5 55.37 81.62 55.37 81.73 55.36 81.85 55.35 81.97 55.35 82.08 55.34 82.2 55.33 82.32 55.33 82.44 55.32 82.55 55.32 82.67 55.31 82.79 55.31 82.9 55.3 83.02 55.3 83.14 55.29 83.25 55.29 83.37 55.29 83.49 55.28 83.61 55.28 83.72 55.28 83.84 55.28 83.96 55.27 84.07 55.27 84.19 55.27 84.31 55.27 84.42 55.27 84.54 55.27 84.66 55.27 84.78 55.27 84.89 55.27 85.01 55.27 85.13 55.27 85.24 55.27 85.36 55.27 85.48 55.27 85.6 55.27 85.71 55.27 85.83 55.27 85.95 55.28 86.06 55.28 86.18 55.28 86.3 55.28 86.41 55.29 86.53 55.29 86.65 55.29 86.77 55.3 86.88 55.3 87 55.3 87.12 55.31 87.23 55.31 87.35 55.32 87.47 55.32 87.58 55.33 87.7 55.33 87.82 55.34 87.94 55.34 88.05 55.35 88.17 55.35 88.29 55.36 88.4 55.36 88.52 55.37 88.64 55.38 88.76 55.38 88.87 55.39 88.99 55.4 89.11 55.4 89.22 55.41 89.34 55.42 89.46 55.42 89.57 55.43 89.69 55.44 89.81 55.45 89.93 55.45 90.04 55.46 90.16 55.47 90.28 55.48 90.39 55.48 90.51 55.49 90.63 55.5 90.74 55.51 90.86 55.52 90.98 55.52 91.1 55.53 91.21 55.54 91.33 55.55 91.45 55.56 91.56 55.57 91.68 55.57 91.8 55.58 91.92 55.59 92.03 55.6 92.15 55.61 92.27 55.62 92.38 55.63 92.5 55.63 92.62 55.64 92.73 55.65 92.85 55.66 92.97 55.67 93.09 55.68 93.2 55.69 93.32 55.7 93.44 55.7 93.55 55.71 93.67 55.72 93.79 55.73 93.9 55.74 94.02 55.75 94.14 55.76 94.26 55.76 94.37 55.77 94.49 55.78 94.61 55.79 94.72 55.8 94.84 55.81 94.96 55.81 95.08 55.82 95.19 55.83 95.31 55.84 95.43 55.85 95.54 55.85 95.66 55.86 95.78 55.87 95.89 55.88 96.01 55.88 96.13 55.89 96.25 55.9 96.36 55.91 96.48 55.91 96.6 55.92 96.71 55.93 96.83 55.94 96.95 55.94 97.06 55.95 97.18 55.96 97.3 55.96 97.42 55.97 97.53 55.98 97.65 55.98 97.77 55.99 97.88 55.99 98 56 98.12 56.01 98.24 56.01 98.35 56.02 98.47 56.02 98.59 56.03 98.7 56.03 98.82 56.04 98.94 56.04 99.05 56.05 99.17 56.05 99.29 56.06 99.41 56.06 99.52 56.07 99.64 56.07 99.76 56.08 99.87 56.08 99.99 56.08 100.11 56.09 100.22 56.09 100.34 56.1 100.46 56.1 100.58 56.1 100.69 56.11 100.81 56.11 100.93 56.11 101.04 56.11 101.16 56.12 101.28 56.12 101.39 56.12 101.51 56.12 101.63 56.13 101.75 56.13 101.86 56.13 101.98 56.13 102.1 56.14 102.21 56.14 102.33 56.14 102.45 56.14 102.57 56.14 102.68 56.14 102.8 56.14 102.92 56.14 103.03 56.15 103.15 56.15 103.27 56.15 103.38 56.15 103.5 56.15 103.62 56.15 103.74 56.15 103.85 56.15 103.97 56.15 104.09 56.15 104.2 56.15 104.32 56.15 104.44 56.15 104.55 56.15 104.67 56.15 104.79 56.14 104.91 56.14 105.02 56.14 105.14 56.14 105.26 56.14 105.37 56.14 105.49 56.14 105.61 56.14 105.73 56.14 105.84 56.13 105.96 56.13 106.08 56.13 106.19 56.13 106.31 56.13 106.43 56.12 106.54 56.12 106.66 56.12 106.78 56.12 106.9 56.12 107.01 56.11 107.13 56.11 107.25 56.11 107.36 56.11 107.48 56.1 107.6 56.1 107.71 56.1 107.83 56.09 107.95 56.09 108.07 56.09 108.18 56.09 108.3 56.08 108.42 56.08 108.53 56.08 108.65 56.07 108.77 56.07 108.89 56.07 109 56.06 109.12 56.06 109.24 56.06 109.35 56.05 109.47 56.05 109.59 56.05 109.7 56.04 109.82 56.04 109.94 56.03 110.06 56.03 110.17 56.03 110.29 56.02 110.41 56.02 110.52 56.02 110.64 56.01 110.76 56.01 110.87 56 110.99 56 111.11 56 111.23 55.99 111.34 55.99 111.46 55.99 111.58 55.98 111.69 55.98 111.81 55.97 111.93 55.97 112.05 55.97 112.16 55.96 112.28 55.96 112.4 55.95 112.51 55.95 112.63 55.95 112.75 55.94 112.86 55.94 112.98 55.94 113.1 55.93 113.22 55.93 113.33 55.92 113.45 55.92 113.57 55.92 113.68 55.91 113.8 55.91 113.92 55.91 114.03 55.9 114.15 55.9 114.27 55.89 114.39 55.89 114.5 55.89 114.62 55.88 114.74 55.88 114.85 55.88 114.97 55.87 115.09 55.87 115.2 55.87 115.32 55.86 115.44 55.86 115.56 55.86 115.67 55.85 115.79 55.85 115.91 55.85 116.02 55.85 116.14 55.84 116.26 55.84 116.38 55.84 116.49 55.83 116.61 55.83 116.73 55.83 116.84 55.83 116.96 55.82 117.08 55.82 117.19 55.82 117.31 55.81 117.43 55.81 117.55 55.81 117.66 55.81 117.78 55.81 117.9 55.8 118.01 55.8 118.13 55.8 118.25 55.8 118.36 55.79 118.48 55.79 118.6 55.79 118.72 55.79 118.83 55.79 118.95 55.78 119.07 55.78 119.18 55.78 119.3 55.78 119.42 55.78 119.54 55.78 119.65 55.78 119.77 55.77 119.89 55.77 120 55.77 120.12 55.77 120.24 55.77 120.35 55.77 120.47 55.77 120.59 55.77 120.71 55.76 120.82 55.76 120.94 55.76 121.06 55.76 121.17 55.76 121.29 55.76 121.41 55.76 121.52 55.76 121.64 55.76 121.76 55.76 121.88 55.76 121.99 55.76 122.11 55.76 122.23 55.76 122.34 55.76 122.46 55.76 122.58 55.76 122.7 55.76 122.81 55.76 122.93 55.76 123.05 55.76 123.16 55.76 123.28 55.76 123.4 55.76 123.51 55.76 123.63 55.76 123.75 55.76 123.87 55.76 123.98 55.76 124.1 55.76 124.22 55.76 124.33 55.76 124.45 55.76 124.57 55.76 124.68 55.76 124.8 55.76 124.92 55.76 125.04 55.76 125.15 55.76 125.27 55.77 125.39 55.77 125.5 55.77 125.62 55.77 125.74 55.77 125.86 55.77 125.97 55.77 126.09 55.77 126.21 55.77 126.32 55.77 126.44 55.78 126.56 55.78 126.67 55.78 126.79 55.78 126.91 55.78 127.03 55.78 127.14 55.78 127.26 55.79 127.38 55.79 127.49 55.79 127.61 55.79 127.73 55.79 127.84 55.79 127.96 55.79 128.08 55.8 128.2 55.8 128.31 55.8 128.43 55.8 128.55 55.8 128.66 55.8 128.78 55.8 128.9 55.81 129.02 55.81 129.13 55.81 129.25 55.81 129.37 55.81 129.48 55.81 129.6 55.82 129.72 55.82 129.83 55.82 129.95 55.82 130.07 55.82 130.19 55.82 130.3 55.83 130.42 55.83 130.54 55.83 130.65 55.83 130.77 55.83 130.89 55.83 131 55.84 131.12 55.84 131.24 55.84 131.36 55.84 131.47 55.84 131.59 55.85 131.71 55.85 131.82 55.85 131.94 55.85 132.06 55.85 132.17 55.85 132.29 55.86 132.41 55.86 132.53 55.86 132.64 55.86 132.76 55.86 132.88 55.86 132.99 55.87 133.11 55.87 133.23 55.87 133.35 55.87 133.46 55.87 133.58 55.87 133.7 55.87 133.81 55.88 133.93 55.88 134.05 55.88 134.16 55.88 134.28 55.88 134.4 55.88 134.52 55.88 134.63 55.89 134.75 55.89 134.87 55.89 134.98 55.89 135.1 55.89 135.22 55.89 135.33 55.89 135.45 55.9 135.57 55.9 135.69 55.9 135.8 55.9 135.92 55.9 136.04 55.9 136.15 55.9 136.27 55.9 136.39 55.9 136.51 55.91 136.62 55.91 136.74 55.91 136.86 55.91 136.97 55.91"/>
      </g>
      <g stroke-width="0.3" fill="#000000" fill-opacity="0.000" class="geometry" stroke-dasharray="none" stroke="#FFA500" id="img-de820c82-15">
        <path fill="none" d="M19.94,7 L 20.06 7.01 20.17 7.04 20.29 7.09 20.41 7.15 20.52 7.24 20.64 7.34 20.76 7.47 20.88 7.61 20.99 7.77 21.11 7.94 21.23 8.14 21.34 8.35 21.46 8.57 21.58 8.82 21.69 9.08 21.81 9.35 21.93 9.64 22.05 9.95 22.16 10.27 22.28 10.61 22.4 10.96 22.51 11.33 22.63 11.71 22.75 12.11 22.87 12.51 22.98 12.94 23.1 13.37 23.22 13.82 23.33 14.27 23.45 14.75 23.57 15.23 23.68 15.72 23.8 16.23 23.92 16.74 24.04 17.27 24.15 17.81 24.27 18.35 24.39 18.91 24.5 19.47 24.62 20.05 24.74 20.63 24.85 21.22 24.97 21.82 25.09 22.42 25.21 23.04 25.32 23.66 25.44 24.28 25.56 24.92 25.67 25.56 25.79 26.2 25.91 26.85 26.02 27.51 26.14 28.17 26.26 28.83 26.38 29.5 26.49 30.17 26.61 30.85 26.73 31.53 26.84 32.21 26.96 32.9 27.08 33.58 27.2 34.27 27.31 34.96 27.43 35.66 27.55 36.35 27.66 37.05 27.78 37.74 27.9 38.44 28.01 39.13 28.13 39.83 28.25 40.52 28.37 41.22 28.48 41.91 28.6 42.6 28.72 43.29 28.83 43.98 28.95 44.66 29.07 45.35 29.18 46.03 29.3 46.71 29.42 47.38 29.54 48.05 29.65 48.72 29.77 49.39 29.89 50.05 30 50.7 30.12 51.35 30.24 52 30.36 52.64 30.47 53.28 30.59 53.91 30.71 54.54 30.82 55.16 30.94 55.77 31.06 56.38 31.17 56.98 31.29 57.58 31.41 58.17 31.53 58.75 31.64 59.33 31.76 59.89 31.88 60.46 31.99 61.01 32.11 61.56 32.23 62.09 32.34 62.62 32.46 63.15 32.58 63.66 32.7 64.17 32.81 64.67 32.93 65.16 33.05 65.64 33.16 66.11 33.28 66.57 33.4 67.03 33.52 67.47 33.63 67.91 33.75 68.34 33.87 68.76 33.98 69.16 34.1 69.56 34.22 69.95 34.33 70.34 34.45 70.71 34.57 71.07 34.69 71.42 34.8 71.76 34.92 72.09 35.04 72.42 35.15 72.73 35.27 73.03 35.39 73.33 35.5 73.61 35.62 73.88 35.74 74.15 35.86 74.4 35.97 74.65 36.09 74.88 36.21 75.1 36.32 75.32 36.44 75.52 36.56 75.72 36.68 75.9 36.79 76.08 36.91 76.24 37.03 76.4 37.14 76.54 37.26 76.68 37.38 76.81 37.49 76.92 37.61 77.03 37.73 77.13 37.85 77.22 37.96 77.3 38.08 77.37 38.2 77.43 38.31 77.48 38.43 77.52 38.55 77.55 38.66 77.58 38.78 77.59 38.9 77.6 39.02 77.6 39.13 77.59 39.25 77.57 39.37 77.54 39.48 77.5 39.6 77.46 39.72 77.41 39.83 77.34 39.95 77.28 40.07 77.2 40.19 77.12 40.3 77.02 40.42 76.93 40.54 76.82 40.65 76.71 40.77 76.58 40.89 76.46 41.01 76.32 41.12 76.18 41.24 76.03 41.36 75.88 41.47 75.71 41.59 75.55 41.71 75.37 41.82 75.19 41.94 75.01 42.06 74.82 42.18 74.62 42.29 74.42 42.41 74.21 42.53 74 42.64 73.78 42.76 73.55 42.88 73.33 42.99 73.09 43.11 72.86 43.23 72.61 43.35 72.37 43.46 72.12 43.58 71.86 43.7 71.61 43.81 71.34 43.93 71.08 44.05 70.81 44.17 70.54 44.28 70.26 44.4 69.99 44.52 69.71 44.63 69.42 44.75 69.14 44.87 68.85 44.98 68.56 45.1 68.26 45.22 67.97 45.34 67.67 45.45 67.37 45.57 67.07 45.69 66.77 45.8 66.47 45.92 66.16 46.04 65.86 46.15 65.55 46.27 65.25 46.39 64.94 46.51 64.63 46.62 64.32 46.74 64.01 46.86 63.7 46.97 63.39 47.09 63.09 47.21 62.78 47.33 62.47 47.44 62.16 47.56 61.85 47.68 61.55 47.79 61.24 47.91 60.93 48.03 60.63 48.14 60.33 48.26 60.03 48.38 59.73 48.5 59.43 48.61 59.13 48.73 58.83 48.85 58.54 48.96 58.25 49.08 57.96 49.2 57.67 49.31 57.38 49.43 57.1 49.55 56.82 49.67 56.54 49.78 56.26 49.9 55.99 50.02 55.72 50.13 55.45 50.25 55.18 50.37 54.92 50.49 54.66 50.6 54.41 50.72 54.15 50.84 53.9 50.95 53.66 51.07 53.41 51.19 53.17 51.3 52.94 51.42 52.7 51.54 52.47 51.66 52.25 51.77 52.02 51.89 51.81 52.01 51.59 52.12 51.38 52.24 51.17 52.36 50.97 52.47 50.77 52.59 50.58 52.71 50.39 52.83 50.2 52.94 50.02 53.06 49.84 53.18 49.66 53.29 49.49 53.41 49.33 53.53 49.16 53.65 49.01 53.76 48.85 53.88 48.7 54 48.56 54.11 48.42 54.23 48.28 54.35 48.15 54.46 48.03 54.58 47.9 54.7 47.78 54.82 47.67 54.93 47.56 55.05 47.46 55.17 47.36 55.28 47.26 55.4 47.17 55.52 47.08 55.63 47 55.75 46.92 55.87 46.84 55.99 46.77 56.1 46.71 56.22 46.65 56.34 46.59 56.45 46.54 56.57 46.49 56.69 46.44 56.8 46.4 56.92 46.37 57.04 46.33 57.16 46.31 57.27 46.28 57.39 46.26 57.51 46.25 57.62 46.23 57.74 46.23 57.86 46.22 57.98 46.22 58.09 46.23 58.21 46.23 58.33 46.25 58.44 46.26 58.56 46.28 58.68 46.3 58.79 46.33 58.91 46.36 59.03 46.39 59.15 46.43 59.26 46.47 59.38 46.51 59.5 46.56 59.61 46.61 59.73 46.66 59.85 46.72 59.96 46.78 60.08 46.84 60.2 46.9 60.32 46.97 60.43 47.04 60.55 47.12 60.67 47.19 60.78 47.27 60.9 47.35 61.02 47.44 61.14 47.53 61.25 47.61 61.37 47.71 61.49 47.8 61.6 47.9 61.72 48 61.84 48.1 61.95 48.2 62.07 48.3 62.19 48.41 62.31 48.52 62.42 48.63 62.54 48.74 62.66 48.86 62.77 48.97 62.89 49.09 63.01 49.21 63.12 49.33 63.24 49.45 63.36 49.58 63.48 49.7 63.59 49.83 63.71 49.95 63.83 50.08 63.94 50.21 64.06 50.34 64.18 50.47 64.3 50.6 64.41 50.73 64.53 50.87 64.65 51 64.76 51.14 64.88 51.27 65 51.41 65.11 51.54 65.23 51.68 65.35 51.82 65.47 51.95 65.58 52.09 65.7 52.23 65.82 52.36 65.93 52.5 66.05 52.64 66.17 52.78 66.28 52.91 66.4 53.05 66.52 53.19 66.64 53.32 66.75 53.46 66.87 53.6 66.99 53.73 67.1 53.87 67.22 54 67.34 54.13 67.46 54.27 67.57 54.4 67.69 54.53 67.81 54.66 67.92 54.79 68.04 54.92 68.16 55.05 68.27 55.18 68.39 55.3 68.51 55.43 68.63 55.55 68.74 55.67 68.86 55.8 68.98 55.92 69.09 56.04 69.21 56.16 69.33 56.27 69.44 56.39 69.56 56.5 69.68 56.62 69.8 56.73 69.91 56.84 70.03 56.95 70.15 57.05 70.26 57.16 70.38 57.26 70.5 57.36 70.61 57.47 70.73 57.56 70.85 57.66 70.97 57.76 71.08 57.85 71.2 57.94 71.32 58.04 71.43 58.12 71.55 58.21 71.67 58.3 71.79 58.38 71.9 58.46 72.02 58.54 72.14 58.62 72.25 58.7 72.37 58.77 72.49 58.84 72.6 58.91 72.72 58.98 72.84 59.05 72.96 59.11 73.07 59.18 73.19 59.24 73.31 59.3 73.42 59.35 73.54 59.41 73.66 59.46 73.77 59.51 73.89 59.56 74.01 59.61 74.13 59.65 74.24 59.7 74.36 59.74 74.48 59.78 74.59 59.81 74.71 59.85 74.83 59.88 74.95 59.92 75.06 59.94 75.18 59.97 75.3 60 75.41 60.02 75.53 60.04 75.65 60.06 75.76 60.08 75.88 60.1 76 60.11 76.12 60.13 76.23 60.14 76.35 60.15 76.47 60.16 76.58 60.16 76.7 60.16 76.82 60.17 76.93 60.17 77.05 60.17 77.17 60.16 77.29 60.16 77.4 60.15 77.52 60.14 77.64 60.13 77.75 60.12 77.87 60.11 77.99 60.1 78.11 60.08 78.22 60.06 78.34 60.04 78.46 60.02 78.57 60 78.69 59.98 78.81 59.95 78.92 59.93 79.04 59.9 79.16 59.87 79.28 59.84 79.39 59.81 79.51 59.78 79.63 59.74 79.74 59.71 79.86 59.67 79.98 59.64 80.09 59.6 80.21 59.56 80.33 59.52 80.45 59.48 80.56 59.43 80.68 59.39 80.8 59.35 80.91 59.3 81.03 59.25 81.15 59.21 81.27 59.16 81.38 59.11 81.5 59.06 81.62 59.01 81.73 58.96 81.85 58.91 81.97 58.85 82.08 58.8 82.2 58.75 82.32 58.69 82.44 58.64 82.55 58.58 82.67 58.52 82.79 58.47 82.9 58.41 83.02 58.35 83.14 58.29 83.25 58.24 83.37 58.18 83.49 58.12 83.61 58.06 83.72 58 83.84 57.94 83.96 57.88 84.07 57.82 84.19 57.76 84.31 57.7 84.42 57.64 84.54 57.57 84.66 57.51 84.78 57.45 84.89 57.39 85.01 57.33 85.13 57.27 85.24 57.21 85.36 57.15 85.48 57.09 85.6 57.03 85.71 56.97 85.83 56.91 85.95 56.85 86.06 56.79 86.18 56.73 86.3 56.67 86.41 56.61 86.53 56.55 86.65 56.49 86.77 56.43 86.88 56.37 87 56.32 87.12 56.26 87.23 56.2 87.35 56.15 87.47 56.09 87.58 56.03 87.7 55.98 87.82 55.93 87.94 55.87 88.05 55.82 88.17 55.77 88.29 55.71 88.4 55.66 88.52 55.61 88.64 55.56 88.76 55.51 88.87 55.46 88.99 55.41 89.11 55.37 89.22 55.32 89.34 55.27 89.46 55.23 89.57 55.18 89.69 55.14 89.81 55.09 89.93 55.05 90.04 55.01 90.16 54.97 90.28 54.93 90.39 54.89 90.51 54.85 90.63 54.81 90.74 54.77 90.86 54.74 90.98 54.7 91.1 54.67 91.21 54.63 91.33 54.6 91.45 54.57 91.56 54.53 91.68 54.5 91.8 54.47 91.92 54.45 92.03 54.42 92.15 54.39 92.27 54.36 92.38 54.34 92.5 54.31 92.62 54.29 92.73 54.27 92.85 54.24 92.97 54.22 93.09 54.2 93.2 54.18 93.32 54.17 93.44 54.15 93.55 54.13 93.67 54.11 93.79 54.1 93.9 54.09 94.02 54.07 94.14 54.06 94.26 54.05 94.37 54.04 94.49 54.03 94.61 54.02 94.72 54.01 94.84 54 94.96 53.99 95.08 53.99 95.19 53.98 95.31 53.98 95.43 53.98 95.54 53.97 95.66 53.97 95.78 53.97 95.89 53.97 96.01 53.97 96.13 53.97 96.25 53.97 96.36 53.98 96.48 53.98 96.6 53.98 96.71 53.99 96.83 53.99 96.95 54 97.06 54.01 97.18 54.01 97.3 54.02 97.42 54.03 97.53 54.04 97.65 54.05 97.77 54.06 97.88 54.07 98 54.09 98.12 54.1 98.24 54.11 98.35 54.12 98.47 54.14 98.59 54.15 98.7 54.17 98.82 54.19 98.94 54.2 99.05 54.22 99.17 54.24 99.29 54.25 99.41 54.27 99.52 54.29 99.64 54.31 99.76 54.33 99.87 54.35 99.99 54.37 100.11 54.39 100.22 54.41 100.34 54.43 100.46 54.46 100.58 54.48 100.69 54.5 100.81 54.52 100.93 54.55 101.04 54.57 101.16 54.6 101.28 54.62 101.39 54.64 101.51 54.67 101.63 54.69 101.75 54.72 101.86 54.74 101.98 54.77 102.1 54.8 102.21 54.82 102.33 54.85 102.45 54.87 102.57 54.9 102.68 54.93 102.8 54.95 102.92 54.98 103.03 55.01 103.15 55.03 103.27 55.06 103.38 55.09 103.5 55.12 103.62 55.14 103.74 55.17 103.85 55.2 103.97 55.22 104.09 55.25 104.2 55.28 104.32 55.31 104.44 55.33 104.55 55.36 104.67 55.39 104.79 55.41 104.91 55.44 105.02 55.47 105.14 55.49 105.26 55.52 105.37 55.55 105.49 55.57 105.61 55.6 105.73 55.62 105.84 55.65 105.96 55.68 106.08 55.7 106.19 55.73 106.31 55.75 106.43 55.78 106.54 55.8 106.66 55.82 106.78 55.85 106.9 55.87 107.01 55.9 107.13 55.92 107.25 55.94 107.36 55.97 107.48 55.99 107.6 56.01 107.71 56.03 107.83 56.06 107.95 56.08 108.07 56.1 108.18 56.12 108.3 56.14 108.42 56.16 108.53 56.18 108.65 56.2 108.77 56.22 108.89 56.24 109 56.26 109.12 56.28 109.24 56.29 109.35 56.31 109.47 56.33 109.59 56.35 109.7 56.36 109.82 56.38 109.94 56.4 110.06 56.41 110.17 56.43 110.29 56.44 110.41 56.46 110.52 56.47 110.64 56.48 110.76 56.5 110.87 56.51 110.99 56.52 111.11 56.53 111.23 56.55 111.34 56.56 111.46 56.57 111.58 56.58 111.69 56.59 111.81 56.6 111.93 56.61 112.05 56.62 112.16 56.63 112.28 56.64 112.4 56.64 112.51 56.65 112.63 56.66 112.75 56.66 112.86 56.67 112.98 56.68 113.1 56.68 113.22 56.69 113.33 56.69 113.45 56.7 113.57 56.7 113.68 56.71 113.8 56.71 113.92 56.71 114.03 56.72 114.15 56.72 114.27 56.72 114.39 56.72 114.5 56.72 114.62 56.72 114.74 56.72 114.85 56.72 114.97 56.72 115.09 56.72 115.2 56.72 115.32 56.72 115.44 56.72 115.56 56.72 115.67 56.72 115.79 56.71 115.91 56.71 116.02 56.71 116.14 56.71 116.26 56.7 116.38 56.7 116.49 56.69 116.61 56.69 116.73 56.68 116.84 56.68 116.96 56.67 117.08 56.67 117.19 56.66 117.31 56.66 117.43 56.65 117.55 56.64 117.66 56.64 117.78 56.63 117.9 56.62 118.01 56.62 118.13 56.61 118.25 56.6 118.36 56.59 118.48 56.58 118.6 56.57 118.72 56.57 118.83 56.56 118.95 56.55 119.07 56.54 119.18 56.53 119.3 56.52 119.42 56.51 119.54 56.5 119.65 56.49 119.77 56.48 119.89 56.47 120 56.46 120.12 56.45 120.24 56.44 120.35 56.43 120.47 56.42 120.59 56.4 120.71 56.39 120.82 56.38 120.94 56.37 121.06 56.36 121.17 56.35 121.29 56.34 121.41 56.32 121.52 56.31 121.64 56.3 121.76 56.29 121.88 56.28 121.99 56.27 122.11 56.25 122.23 56.24 122.34 56.23 122.46 56.22 122.58 56.21 122.7 56.19 122.81 56.18 122.93 56.17 123.05 56.16 123.16 56.15 123.28 56.13 123.4 56.12 123.51 56.11 123.63 56.1 123.75 56.09 123.87 56.07 123.98 56.06 124.1 56.05 124.22 56.04 124.33 56.03 124.45 56.01 124.57 56 124.68 55.99 124.8 55.98 124.92 55.97 125.04 55.96 125.15 55.95 125.27 55.94 125.39 55.92 125.5 55.91 125.62 55.9 125.74 55.89 125.86 55.88 125.97 55.87 126.09 55.86 126.21 55.85 126.32 55.84 126.44 55.83 126.56 55.82 126.67 55.81 126.79 55.8 126.91 55.79 127.03 55.78 127.14 55.77 127.26 55.76 127.38 55.75 127.49 55.74 127.61 55.73 127.73 55.73 127.84 55.72 127.96 55.71 128.08 55.7 128.2 55.69 128.31 55.69 128.43 55.68 128.55 55.67 128.66 55.66 128.78 55.66 128.9 55.65 129.02 55.64 129.13 55.63 129.25 55.63 129.37 55.62 129.48 55.61 129.6 55.61 129.72 55.6 129.83 55.6 129.95 55.59 130.07 55.59 130.19 55.58 130.3 55.58 130.42 55.57 130.54 55.57 130.65 55.56 130.77 55.56 130.89 55.55 131 55.55 131.12 55.54 131.24 55.54 131.36 55.54 131.47 55.53 131.59 55.53 131.71 55.53 131.82 55.52 131.94 55.52 132.06 55.52 132.17 55.52 132.29 55.51 132.41 55.51 132.53 55.51 132.64 55.51 132.76 55.51 132.88 55.51 132.99 55.5 133.11 55.5 133.23 55.5 133.35 55.5 133.46 55.5 133.58 55.5 133.7 55.5 133.81 55.5 133.93 55.5 134.05 55.5 134.16 55.5 134.28 55.5 134.4 55.5 134.52 55.5 134.63 55.5 134.75 55.5 134.87 55.51 134.98 55.51 135.1 55.51 135.22 55.51 135.33 55.51 135.45 55.51 135.57 55.52 135.69 55.52 135.8 55.52 135.92 55.52 136.04 55.52 136.15 55.53 136.27 55.53 136.39 55.53 136.51 55.53 136.62 55.54 136.74 55.54 136.86 55.54 136.97 55.55"/>
      </g>
    </g>
  </g>
</g>
  <g class="guide ylabels" font-size="2.82" font-family="'PT Sans Caption','Helvetica Neue','Helvetica',sans-serif" fill="#6C606B" id="img-de820c82-16">
    <text x="16.94" y="80.32" text-anchor="end" dy="0.35em">-0.5</text>
    <text x="16.94" y="55.88" text-anchor="end" dy="0.35em">0.0</text>
    <text x="16.94" y="31.44" text-anchor="end" dy="0.35em">0.5</text>
    <text x="16.94" y="7" text-anchor="end" dy="0.35em">1.0</text>
  </g>
  <g font-size="3.88" font-family="'PT Sans','Helvetica Neue','Helvetica',sans-serif" fill="#564A55" stroke="#000000" stroke-opacity="0.000" id="img-de820c82-17">
    <text x="8.81" y="43.66" text-anchor="end" dy="0.35em">y</text>
  </g>
</g>
<defs>
  <clipPath id="img-de820c82-8">
  <path d="M17.94,5 L 138.97 5 138.97 82.32 17.94 82.32" />
</clipPath>
</defs>
</svg>
