<?xml version="1.0" encoding="UTF-8"?>
<svg xmlns="http://www.w3.org/2000/svg"
     xmlns:xlink="http://www.w3.org/1999/xlink"
     xmlns:gadfly="http://www.gadflyjl.org/ns"
     version="1.2"
     width="152.4mm" height="304.8mm" viewBox="0 0 152.4 304.8"
     stroke="none"
     fill="#000000"
     stroke-width="0.3"
     font-size="3.88"
>
<g class="plotroot yscalable" id="fig-608fd63299fb4e949be983334ca77dd2-element-1">
  <g font-size="3.88" font-family="'PT Sans','Helvetica Neue','Helvetica',sans-serif" fill="#564A55" stroke="#000000" stroke-opacity="0.000" id="fig-608fd63299fb4e949be983334ca77dd2-element-2">
    <text x="85.25" y="293.19" text-anchor="middle" dy="0.6em">Eigenvectors</text>
  </g>
  <g class="guide xlabels" font-size="2.82" font-family="'PT Sans Caption','Helvetica Neue','Helvetica',sans-serif" fill="#6C606B" id="fig-608fd63299fb4e949be983334ca77dd2-element-3">
    <text x="54.17" y="286.51" text-anchor="middle" dy="0.6em">1</text>
    <text x="116.32" y="286.51" text-anchor="middle" dy="0.6em">2</text>
  </g>
  <g clip-path="url(#fig-608fd63299fb4e949be983334ca77dd2-element-5)" id="fig-608fd63299fb4e949be983334ca77dd2-element-4">
    <g pointer-events="visible" opacity="1" fill="#000000" fill-opacity="0.000" stroke="#000000" stroke-opacity="0.000" class="guide background" id="fig-608fd63299fb4e949be983334ca77dd2-element-6">
      <rect x="23.09" y="157.4" width="124.31" height="128.11"/>
    </g>
    <g class="guide ygridlines xfixed" stroke-dasharray="0.5,0.5" stroke-width="0.2" stroke="#D0D0E0" id="fig-608fd63299fb4e949be983334ca77dd2-element-7">
      <path fill="none" d="M23.09,283.51 L 147.4 283.51"/>
      <path fill="none" d="M23.09,268 L 147.4 268"/>
      <path fill="none" d="M23.09,252.49 L 147.4 252.49"/>
      <path fill="none" d="M23.09,236.97 L 147.4 236.97"/>
      <path fill="none" d="M23.09,221.46 L 147.4 221.46"/>
      <path fill="none" d="M23.09,205.94 L 147.4 205.94"/>
      <path fill="none" d="M23.09,190.43 L 147.4 190.43"/>
      <path fill="none" d="M23.09,174.91 L 147.4 174.91"/>
      <path fill="none" d="M23.09,159.4 L 147.4 159.4"/>
    </g>
    <g class="guide xgridlines yfixed" stroke-dasharray="0.5,0.5" stroke-width="0.2" stroke="#D0D0E0" id="fig-608fd63299fb4e949be983334ca77dd2-element-8">
      <path fill="none" d="M85.25,157.4 L 85.25 285.51"/>
    </g>
    <g class="plotpanel" id="fig-608fd63299fb4e949be983334ca77dd2-element-9">
      <g class="geometry" id="fig-608fd63299fb4e949be983334ca77dd2-element-10">
        <g class="color_AlphaColorValue{RGB{Float32},Float32}(RGB{Float32}(0.0f0,0.74736935f0,1.0f0),1.0f0)" stroke="#FFFFFF" stroke-width="0.3" fill="#00BFFF" id="fig-608fd63299fb4e949be983334ca77dd2-element-11">
          <circle cx="54.17" cy="277.94" r="3.53"/>
          <circle cx="116.32" cy="171.39" r="3.53"/>
        </g>
      </g>
    </g>
  </g>
  <g class="guide ylabels" font-size="2.82" font-family="'PT Sans Caption','Helvetica Neue','Helvetica',sans-serif" fill="#6C606B" id="fig-608fd63299fb4e949be983334ca77dd2-element-12">
    <text x="22.09" y="283.51" text-anchor="end" dy="0.35em">10<tspan style="dominant-baseline:inherit" dy="-0.6em" font-size="83%">-4.1</tspan><tspan dy="0.498000em"></tspan></text>
    <text x="22.09" y="268" text-anchor="end" dy="0.35em">10<tspan style="dominant-baseline:inherit" dy="-0.6em" font-size="83%">-4.0</tspan><tspan dy="0.498000em"></tspan></text>
    <text x="22.09" y="252.49" text-anchor="end" dy="0.35em">10<tspan style="dominant-baseline:inherit" dy="-0.6em" font-size="83%">-3.9</tspan><tspan dy="0.498000em"></tspan></text>
    <text x="22.09" y="236.97" text-anchor="end" dy="0.35em">10<tspan style="dominant-baseline:inherit" dy="-0.6em" font-size="83%">-3.8</tspan><tspan dy="0.498000em"></tspan></text>
    <text x="22.09" y="221.46" text-anchor="end" dy="0.35em">10<tspan style="dominant-baseline:inherit" dy="-0.6em" font-size="83%">-3.7</tspan><tspan dy="0.498000em"></tspan></text>
    <text x="22.09" y="205.94" text-anchor="end" dy="0.35em">10<tspan style="dominant-baseline:inherit" dy="-0.6em" font-size="83%">-3.6</tspan><tspan dy="0.498000em"></tspan></text>
    <text x="22.09" y="190.43" text-anchor="end" dy="0.35em">10<tspan style="dominant-baseline:inherit" dy="-0.6em" font-size="83%">-3.5</tspan><tspan dy="0.498000em"></tspan></text>
    <text x="22.09" y="174.91" text-anchor="end" dy="0.35em">10<tspan style="dominant-baseline:inherit" dy="-0.6em" font-size="83%">-3.4</tspan><tspan dy="0.498000em"></tspan></text>
    <text x="22.09" y="159.4" text-anchor="end" dy="0.35em">10<tspan style="dominant-baseline:inherit" dy="-0.6em" font-size="83%">-3.3</tspan><tspan dy="0.498000em"></tspan></text>
  </g>
  <g font-size="3.88" font-family="'PT Sans','Helvetica Neue','Helvetica',sans-serif" fill="#564A55" stroke="#000000" stroke-opacity="0.000" id="fig-608fd63299fb4e949be983334ca77dd2-element-13">
    <text x="8.81" y="219.46" text-anchor="middle" dy="0.35em" transform="rotate(-90, 8.81, 221.46)">Eigenvalues</text>
  </g>
</g>
<g class="plotroot" id="fig-608fd63299fb4e949be983334ca77dd2-element-14">
  <g font-size="3.88" font-family="'PT Sans','Helvetica Neue','Helvetica',sans-serif" fill="#564A55" stroke="#000000" stroke-opacity="0.000" id="fig-608fd63299fb4e949be983334ca77dd2-element-15">
    <text x="80.77" y="140.79" text-anchor="middle" dy="0.6em">Eigenvectors</text>
  </g>
  <g class="guide xlabels" font-size="2.82" font-family="'PT Sans Caption','Helvetica Neue','Helvetica',sans-serif" fill="#6C606B" id="fig-608fd63299fb4e949be983334ca77dd2-element-16">
    <text x="52.47" y="134.11" text-anchor="middle" dy="0.6em">1</text>
    <text x="109.08" y="134.11" text-anchor="middle" dy="0.6em">2</text>
  </g>
  <g class="guide colorkey" id="fig-608fd63299fb4e949be983334ca77dd2-element-17">
    <g font-size="2.82" font-family="'PT Sans','Helvetica Neue','Helvetica',sans-serif" fill="#4C404B" id="fig-608fd63299fb4e949be983334ca77dd2-element-18">
      <text x="141.7" y="90.32" dy="0.35em">-1.0</text>
      <text x="141.7" y="69.84" dy="0.35em">0.5</text>
      <text x="141.7" y="83.5" dy="0.35em">-0.5</text>
      <text x="141.7" y="63.01" dy="0.35em">1.0</text>
      <text x="141.7" y="76.67" dy="0.35em">0.0</text>
    </g>
    <g shape-rendering="crispEdges" stroke="#000000" stroke-opacity="0.000" id="fig-608fd63299fb4e949be983334ca77dd2-element-19">
      <rect x="139.39" y="89.64" width="1.31" height="0.68" fill="#008000"/>
      <rect x="139.39" y="88.96" width="1.31" height="0.68" fill="#208600"/>
      <rect x="139.39" y="88.28" width="1.31" height="0.68" fill="#328D00"/>
      <rect x="139.39" y="87.59" width="1.31" height="0.68" fill="#409300"/>
      <rect x="139.39" y="86.91" width="1.31" height="0.68" fill="#4D9A00"/>
      <rect x="139.39" y="86.23" width="1.31" height="0.68" fill="#5AA000"/>
      <rect x="139.39" y="85.55" width="1.31" height="0.68" fill="#66A700"/>
      <rect x="139.39" y="84.86" width="1.31" height="0.68" fill="#72AD00"/>
      <rect x="139.39" y="84.18" width="1.31" height="0.68" fill="#7DB300"/>
      <rect x="139.39" y="83.5" width="1.31" height="0.68" fill="#88BA00"/>
      <rect x="139.39" y="82.81" width="1.31" height="0.68" fill="#94C000"/>
      <rect x="139.39" y="82.13" width="1.31" height="0.68" fill="#9FC700"/>
      <rect x="139.39" y="81.45" width="1.31" height="0.68" fill="#AACE00"/>
      <rect x="139.39" y="80.77" width="1.31" height="0.68" fill="#B5D400"/>
      <rect x="139.39" y="80.08" width="1.31" height="0.68" fill="#C1DB00"/>
      <rect x="139.39" y="79.4" width="1.31" height="0.68" fill="#CCE100"/>
      <rect x="139.39" y="78.72" width="1.31" height="0.68" fill="#D7E800"/>
      <rect x="139.39" y="78.03" width="1.31" height="0.68" fill="#E2EE00"/>
      <rect x="139.39" y="77.35" width="1.31" height="0.68" fill="#EEF500"/>
      <rect x="139.39" y="76.67" width="1.31" height="0.68" fill="#F9FC00"/>
      <rect x="139.39" y="75.99" width="1.31" height="0.68" fill="#FFFA00"/>
      <rect x="139.39" y="75.3" width="1.31" height="0.68" fill="#FFF100"/>
      <rect x="139.39" y="74.62" width="1.31" height="0.68" fill="#FFE800"/>
      <rect x="139.39" y="73.94" width="1.31" height="0.68" fill="#FFDE00"/>
      <rect x="139.39" y="73.26" width="1.31" height="0.68" fill="#FFD500"/>
      <rect x="139.39" y="72.57" width="1.31" height="0.68" fill="#FFCB00"/>
      <rect x="139.39" y="71.89" width="1.31" height="0.68" fill="#FFC200"/>
      <rect x="139.39" y="71.21" width="1.31" height="0.68" fill="#FFB800"/>
      <rect x="139.39" y="70.52" width="1.31" height="0.68" fill="#FFAE00"/>
      <rect x="139.39" y="69.84" width="1.31" height="0.68" fill="#FFA400"/>
      <rect x="139.39" y="69.16" width="1.31" height="0.68" fill="#FF9A00"/>
      <rect x="139.39" y="68.48" width="1.31" height="0.68" fill="#FF8F00"/>
      <rect x="139.39" y="67.79" width="1.31" height="0.68" fill="#FF8400"/>
      <rect x="139.39" y="67.11" width="1.31" height="0.68" fill="#FF7900"/>
      <rect x="139.39" y="66.43" width="1.31" height="0.68" fill="#FF6D00"/>
      <rect x="139.39" y="65.74" width="1.31" height="0.68" fill="#FF6000"/>
      <rect x="139.39" y="65.06" width="1.31" height="0.68" fill="#FF5200"/>
      <rect x="139.39" y="64.38" width="1.31" height="0.68" fill="#FF4200"/>
      <rect x="139.39" y="63.7" width="1.31" height="0.68" fill="#FF2D00"/>
      <rect x="139.39" y="63.01" width="1.31" height="0.68" fill="#FF0000"/>
      <g stroke="#FFFFFF" stroke-width="0.2" id="fig-608fd63299fb4e949be983334ca77dd2-element-20">
        <path fill="none" d="M139.39,90.32 L 140.7 90.32"/>
        <path fill="none" d="M139.39,69.84 L 140.7 69.84"/>
        <path fill="none" d="M139.39,83.5 L 140.7 83.5"/>
        <path fill="none" d="M139.39,63.01 L 140.7 63.01"/>
        <path fill="none" d="M139.39,76.67 L 140.7 76.67"/>
      </g>
    </g>
    <g fill="#362A35" font-size="3.88" font-family="'PT Sans','Helvetica Neue','Helvetica',sans-serif" stroke="#000000" stroke-opacity="0.000" id="fig-608fd63299fb4e949be983334ca77dd2-element-21">
      <text x="139.39" y="59.01">value</text>
    </g>
  </g>
  <g clip-path="url(#fig-608fd63299fb4e949be983334ca77dd2-element-23)" id="fig-608fd63299fb4e949be983334ca77dd2-element-22">
    <g pointer-events="visible" opacity="1" fill="#000000" fill-opacity="0.000" stroke="#000000" stroke-opacity="0.000" class="guide background" id="fig-608fd63299fb4e949be983334ca77dd2-element-24">
      <rect x="24.16" y="5" width="113.23" height="128.11"/>
    </g>
    <g class="guide ygridlines xfixed" stroke-dasharray="0.5,0.5" stroke-width="0.2" stroke="#D0D0E0" id="fig-608fd63299fb4e949be983334ca77dd2-element-25">
      <path fill="none" d="M24.16,69.06 L 137.39 69.06"/>
    </g>
    <g class="guide xgridlines yfixed" stroke-dasharray="0.5,0.5" stroke-width="0.2" stroke="#D0D0E0" id="fig-608fd63299fb4e949be983334ca77dd2-element-26">
      <path fill="none" d="M80.77,5 L 80.77 133.11"/>
    </g>
    <g class="plotpanel" id="fig-608fd63299fb4e949be983334ca77dd2-element-27">
      <g shape-rendering="crispEdges" class="geometry" stroke="#000000" stroke-opacity="0.000" id="fig-608fd63299fb4e949be983334ca77dd2-element-28">
        <rect x="24.16" y="5" width="56.66" height="64.11" fill="#118300"/>
        <rect x="24.16" y="69.06" width="56.66" height="64.11" fill="#FFDA00"/>
        <rect x="80.77" y="5" width="56.66" height="64.11" fill="#FFDA00"/>
        <rect x="80.77" y="69.06" width="56.66" height="64.11" fill="#FF1A00"/>
      </g>
    </g>
  </g>
  <g class="guide ylabels" font-size="2.82" font-family="'PT Sans Caption','Helvetica Neue','Helvetica',sans-serif" fill="#6C606B" id="fig-608fd63299fb4e949be983334ca77dd2-element-29">
    <text x="23.16" y="37.03" text-anchor="end" dy="0.35em">omega</text>
    <text x="23.16" y="101.09" text-anchor="end" dy="0.35em">k</text>
  </g>
  <g font-size="3.88" font-family="'PT Sans','Helvetica Neue','Helvetica',sans-serif" fill="#564A55" stroke="#000000" stroke-opacity="0.000" id="fig-608fd63299fb4e949be983334ca77dd2-element-30">
    <text x="8.81" y="67.06" text-anchor="middle" dy="0.35em" transform="rotate(-90, 8.81, 69.06)">Parameters</text>
  </g>
</g>
<defs>
<clipPath id="fig-608fd63299fb4e949be983334ca77dd2-element-5">
  <path d="M23.09,157.4 L 147.4 157.4 147.4 285.51 23.09 285.51" />
</clipPath
><clipPath id="fig-608fd63299fb4e949be983334ca77dd2-element-23">
  <path d="M24.16,5 L 137.39 5 137.39 133.11 24.16 133.11" />
</clipPath
></defs>
</svg>
