<?xml version="1.0" encoding="UTF-8"?>
<svg xmlns="http://www.w3.org/2000/svg"
     xmlns:xlink="http://www.w3.org/1999/xlink"
     xmlns:gadfly="http://www.gadflyjl.org/ns"
     version="1.2"
     width="152.4mm" height="228.6mm" viewBox="0 0 152.4 228.6"
     stroke="none"
     fill="#000000"
     stroke-width="0.3"
     font-size="3.88"
>
<g class="plotroot xscalable yscalable" id="fig-f7dc5130f90b45e58cc39b0524fdd98c-element-1">
  <g font-size="3.88" font-family="'PT Sans','Helvetica Neue','Helvetica',sans-serif" fill="#564A55" stroke="#000000" stroke-opacity="0.000" id="fig-f7dc5130f90b45e58cc39b0524fdd98c-element-2">
    <text x="83.57" y="216.99" text-anchor="middle" dy="0.6em">x</text>
  </g>
  <g class="guide xlabels" font-size="2.82" font-family="'PT Sans Caption','Helvetica Neue','Helvetica',sans-serif" fill="#6C606B" id="fig-f7dc5130f90b45e58cc39b0524fdd98c-element-3">
    <text x="21.75" y="210.31" text-anchor="middle" dy="0.6em">0</text>
    <text x="83.57" y="210.31" text-anchor="middle" dy="0.6em">50</text>
    <text x="145.4" y="210.31" text-anchor="middle" dy="0.6em">100</text>
  </g>
  <g clip-path="url(#fig-f7dc5130f90b45e58cc39b0524fdd98c-element-5)" id="fig-f7dc5130f90b45e58cc39b0524fdd98c-element-4">
    <g pointer-events="visible" opacity="1" fill="#000000" fill-opacity="0.000" stroke="#000000" stroke-opacity="0.000" class="guide background" id="fig-f7dc5130f90b45e58cc39b0524fdd98c-element-6">
      <rect x="19.75" y="157.4" width="127.65" height="51.91"/>
    </g>
    <g class="guide ygridlines xfixed" stroke-dasharray="0.5,0.5" stroke-width="0.2" stroke="#D0D0E0" id="fig-f7dc5130f90b45e58cc39b0524fdd98c-element-7">
      <path fill="none" d="M19.75,207.31 L 147.4 207.31"/>
      <path fill="none" d="M19.75,191.34 L 147.4 191.34"/>
      <path fill="none" d="M19.75,175.37 L 147.4 175.37"/>
      <path fill="none" d="M19.75,159.4 L 147.4 159.4"/>
    </g>
    <g class="guide xgridlines yfixed" stroke-dasharray="0.5,0.5" stroke-width="0.2" stroke="#D0D0E0" id="fig-f7dc5130f90b45e58cc39b0524fdd98c-element-8">
      <path fill="none" d="M21.75,157.4 L 21.75 209.31"/>
      <path fill="none" d="M83.57,157.4 L 83.57 209.31"/>
      <path fill="none" d="M145.4,157.4 L 145.4 209.31"/>
    </g>
    <g class="plotpanel" id="fig-f7dc5130f90b45e58cc39b0524fdd98c-element-9">
      <g stroke-width="0.3" fill="#000000" fill-opacity="0.000" id="fig-f7dc5130f90b45e58cc39b0524fdd98c-element-10">
        <path fill="none" d="M21.75,159.4 L 21.87 159.4 21.99 159.4 22.12 159.4 22.24 159.4 22.36 159.4 22.49 159.4 22.61 159.4 22.73 159.4 22.86 159.4 22.98 159.41 23.11 159.41 23.23 159.41 23.35 159.41 23.48 159.41 23.6 159.41 23.72 159.41 23.85 159.42 23.97 159.42 24.09 159.42 24.22 159.42 24.34 159.42 24.47 159.42 24.59 159.43 24.71 159.43 24.84 159.43 24.96 159.43 25.08 159.44 25.21 159.44 25.33 159.44 25.45 159.44 25.58 159.45 25.7 159.45 25.83 159.45 25.95 159.46 26.07 159.46 26.2 159.46 26.32 159.46 26.44 159.47 26.57 159.47 26.69 159.48 26.81 159.48 26.94 159.48 27.06 159.49 27.19 159.49 27.31 159.5 27.43 159.5 27.56 159.51 27.68 159.51 27.8 159.52 27.93 159.52 28.05 159.53 28.18 159.54 28.3 159.54 28.42 159.55 28.55 159.56 28.67 159.57 28.79 159.58 28.92 159.59 29.04 159.6 29.16 159.62 29.29 159.63 29.41 159.65 29.54 159.67 29.66 159.68 29.78 159.7 29.91 159.73 30.03 159.75 30.15 159.77 30.28 159.8 30.4 159.83 30.52 159.85 30.65 159.88 30.77 159.92 30.9 159.95 31.02 159.98 31.14 160.01 31.27 160.05 31.39 160.08 31.51 160.11 31.64 160.15 31.76 160.18 31.88 160.21 32.01 160.24 32.13 160.28 32.26 160.31 32.38 160.34 32.5 160.37 32.63 160.39 32.75 160.42 32.87 160.45 33 160.47 33.12 160.5 33.24 160.52 33.37 160.54 33.49 160.56 33.62 160.59 33.74 160.61 33.86 160.63 33.99 160.65 34.11 160.66 34.23 160.68 34.36 160.7 34.48 160.72 34.61 160.74 34.73 160.75 34.85 160.77 34.98 160.78 35.1 160.8 35.22 160.82 35.35 160.83 35.47 160.85 35.59 160.86 35.72 160.88 35.84 160.89 35.97 160.91 36.09 160.92 36.21 160.94 36.34 160.95 36.46 160.97 36.58 160.98 36.71 161 36.83 161.01 36.95 161.03 37.08 161.04 37.2 161.05 37.33 161.07 37.45 161.08 37.57 161.1 37.7 161.11 37.82 161.12 37.94 161.14 38.07 161.15 38.19 161.17 38.31 161.18 38.44 161.19 38.56 161.21 38.69 161.22 38.81 161.23 38.93 161.24 39.06 161.26 39.18 161.27 39.3 161.28 39.43 161.29 39.55 161.3 39.67 161.31 39.8 161.32 39.92 161.33 40.05 161.34 40.17 161.35 40.29 161.36 40.42 161.37 40.54 161.38 40.66 161.39 40.79 161.39 40.91 161.4 41.04 161.41 41.16 161.41 41.28 161.42 41.41 161.42 41.53 161.43 41.65 161.43 41.78 161.43 41.9 161.44 42.02 161.44 42.15 161.44 42.27 161.44 42.4 161.44 42.52 161.44 42.64 161.44 42.77 161.44 42.89 161.43 43.01 161.43 43.14 161.43 43.26 161.43 43.38 161.42 43.51 161.42 43.63 161.41 43.76 161.41 43.88 161.41 44 161.4 44.13 161.4 44.25 161.39 44.37 161.39 44.5 161.38 44.62 161.38 44.74 161.37 44.87 161.37 44.99 161.37 45.12 161.36 45.24 161.36 45.36 161.36 45.49 161.36 45.61 161.36 45.73 161.36 45.86 161.36 45.98 161.36 46.11 161.36 46.23 161.36 46.35 161.36 46.48 161.36 46.6 161.37 46.72 161.37 46.85 161.38 46.97 161.38 47.09 161.39 47.22 161.39 47.34 161.4 47.47 161.41 47.59 161.42 47.71 161.43 47.84 161.44 47.96 161.45 48.08 161.46 48.21 161.47 48.33 161.48 48.45 161.49 48.58 161.5 48.7 161.52 48.83 161.53 48.95 161.54 49.07 161.56 49.2 161.57 49.32 161.59 49.44 161.6 49.57 161.62 49.69 161.64 49.81 161.66 49.94 161.67 50.06 161.69 50.19 161.71 50.31 161.73 50.43 161.75 50.56 161.77 50.68 161.79 50.8 161.81 50.93 161.83 51.05 161.85 51.17 161.88 51.3 161.9 51.42 161.92 51.55 161.95 51.67 161.97 51.79 162 51.92 162.03 52.04 162.05 52.16 162.08 52.29 162.11 52.41 162.14 52.54 162.17 52.66 162.2 52.78 162.23 52.91 162.27 53.03 162.3 53.15 162.34 53.28 162.37 53.4 162.41 53.52 162.45 53.65 162.49 53.77 162.53 53.9 162.57 54.02 162.61 54.14 162.65 54.27 162.7 54.39 162.74 54.51 162.79 54.64 162.84 54.76 162.88 54.88 162.93 55.01 162.99 55.13 163.04 55.26 163.09 55.38 163.14 55.5 163.2 55.63 163.25 55.75 163.31 55.87 163.37 56 163.43 56.12 163.48 56.24 163.54 56.37 163.6 56.49 163.66 56.62 163.72 56.74 163.78 56.86 163.84 56.99 163.9 57.11 163.96 57.23 164.02 57.36 164.08 57.48 164.14 57.6 164.2 57.73 164.25 57.85 164.31 57.98 164.36 58.1 164.42 58.22 164.47 58.35 164.52 58.47 164.57 58.59 164.62 58.72 164.67 58.84 164.72 58.97 164.76 59.09 164.8 59.21 164.85 59.34 164.89 59.46 164.92 59.58 164.96 59.71 164.99 59.83 165.03 59.95 165.06 60.08 165.09 60.2 165.11 60.33 165.14 60.45 165.16 60.57 165.18 60.7 165.2 60.82 165.22 60.94 165.24 61.07 165.25 61.19 165.26 61.31 165.27 61.44 165.28 61.56 165.29 61.69 165.3 61.81 165.3 61.93 165.3 62.06 165.31 62.18 165.31 62.3 165.3 62.43 165.3 62.55 165.3 62.67 165.29 62.8 165.28 62.92 165.28 63.05 165.27 63.17 165.26 63.29 165.24 63.42 165.23 63.54 165.22 63.66 165.2 63.79 165.19 63.91 165.17 64.04 165.15 64.16 165.14 64.28 165.12 64.41 165.1 64.53 165.08 64.65 165.05 64.78 165.03 64.9 165.01 65.02 164.99 65.15 164.96 65.27 164.94 65.4 164.92 65.52 164.89 65.64 164.87 65.77 164.85 65.89 164.82 66.01 164.8 66.14 164.77 66.26 164.75 66.38 164.73 66.51 164.71 66.63 164.69 66.76 164.66 66.88 164.64 67 164.63 67.13 164.61 67.25 164.59 67.37 164.58 67.5 164.56 67.62 164.55 67.74 164.54 67.87 164.53 67.99 164.53 68.12 164.52 68.24 164.52 68.36 164.52 68.49 164.52 68.61 164.53 68.73 164.54 68.86 164.55 68.98 164.56 69.1 164.58 69.23 164.6 69.35 164.62 69.48 164.64 69.6 164.67 69.72 164.7 69.85 164.73 69.97 164.77 70.09 164.81 70.22 164.85 70.34 164.9 70.47 164.94 70.59 164.99 70.71 165.05 70.84 165.1 70.96 165.16 71.08 165.22 71.21 165.28 71.33 165.34 71.45 165.4 71.58 165.47 71.7 165.54 71.83 165.6 71.95 165.67 72.07 165.74 72.2 165.81 72.32 165.88 72.44 165.95 72.57 166.02 72.69 166.09 72.81 166.16 72.94 166.23 73.06 166.3 73.19 166.37 73.31 166.43 73.43 166.5 73.56 166.57 73.68 166.63 73.8 166.69 73.93 166.75 74.05 166.82 74.17 166.87 74.3 166.93 74.42 166.99 74.55 167.04 74.67 167.1 74.79 167.15 74.92 167.2 75.04 167.24 75.16 167.29 75.29 167.33 75.41 167.38 75.53 167.42 75.66 167.46 75.78 167.49 75.91 167.53 76.03 167.56 76.15 167.59 76.28 167.62 76.4 167.65 76.52 167.68 76.65 167.7 76.77 167.72 76.9 167.75 77.02 167.77 77.14 167.78 77.27 167.8 77.39 167.81 77.51 167.83 77.64 167.84 77.76 167.85 77.88 167.86 78.01 167.87 78.13 167.87 78.26 167.88 78.38 167.88 78.5 167.89 78.63 167.89 78.75 167.89 78.87 167.89 79 167.89 79.12 167.89 79.24 167.89 79.37 167.89 79.49 167.88 79.62 167.88 79.74 167.88 79.86 167.88 79.99 167.87 80.11 167.87 80.23 167.87 80.36 167.86 80.48 167.86 80.6 167.86 80.73 167.86 80.85 167.86 80.98 167.86 81.1 167.86 81.22 167.86 81.35 167.87 81.47 167.87 81.59 167.88 81.72 167.89 81.84 167.9 81.96 167.91 82.09 167.93 82.21 167.94 82.34 167.96 82.46 167.98 82.58 168 82.71 168.03 82.83 168.05 82.95 168.08 83.08 168.11 83.2 168.15 83.33 168.18 83.45 168.22 83.57 168.26 83.7 168.3 83.82 168.35 83.94 168.4 84.07 168.45 84.19 168.5 84.31 168.55 84.44 168.6 84.56 168.66 84.69 168.72 84.81 168.77 84.93 168.83 85.06 168.9 85.18 168.96 85.3 169.02 85.43 169.09 85.55 169.15 85.67 169.21 85.8 169.28 85.92 169.35 86.05 169.41 86.17 169.48 86.29 169.54 86.42 169.61 86.54 169.67 86.66 169.74 86.79 169.8 86.91 169.86 87.03 169.93 87.16 169.99 87.28 170.05 87.41 170.11 87.53 170.17 87.65 170.22 87.78 170.28 87.9 170.34 88.02 170.39 88.15 170.44 88.27 170.49 88.4 170.54 88.52 170.59 88.64 170.64 88.77 170.68 88.89 170.72 89.01 170.77 89.14 170.81 89.26 170.84 89.38 170.88 89.51 170.92 89.63 170.95 89.76 170.98 89.88 171.01 90 171.04 90.13 171.07 90.25 171.09 90.37 171.11 90.5 171.13 90.62 171.15 90.74 171.17 90.87 171.19 90.99 171.2 91.12 171.21 91.24 171.22 91.36 171.23 91.49 171.24 91.61 171.24 91.73 171.25 91.86 171.25 91.98 171.25 92.1 171.25 92.23 171.25 92.35 171.24 92.48 171.24 92.6 171.23 92.72 171.22 92.85 171.21 92.97 171.2 93.09 171.19 93.22 171.18 93.34 171.16 93.46 171.15 93.59 171.13 93.71 171.12 93.84 171.1 93.96 171.08 94.08 171.06 94.21 171.04 94.33 171.02 94.45 171 94.58 170.98 94.7 170.96 94.83 170.94 94.95 170.92 95.07 170.9 95.2 170.89 95.32 170.87 95.44 170.85 95.57 170.83 95.69 170.82 95.81 170.8 95.94 170.79 96.06 170.77 96.19 170.76 96.31 170.75 96.43 170.74 96.56 170.74 96.68 170.73 96.8 170.73 96.93 170.72 97.05 170.72 97.17 170.73 97.3 170.73 97.42 170.74 97.55 170.74 97.67 170.75 97.79 170.77 97.92 170.78 98.04 170.8 98.16 170.81 98.29 170.83 98.41 170.86 98.53 170.88 98.66 170.9 98.78 170.93 98.91 170.96 99.03 170.99 99.15 171.02 99.28 171.06 99.4 171.09 99.52 171.13 99.65 171.17 99.77 171.2 99.89 171.24 100.02 171.29 100.14 171.33 100.27 171.37 100.39 171.41 100.51 171.46 100.64 171.5 100.76 171.54 100.88 171.59 101.01 171.63 101.13 171.68 101.26 171.72 101.38 171.77 101.5 171.81 101.63 171.86 101.75 171.9 101.87 171.94 102 171.99 102.12 172.03 102.24 172.07 102.37 172.11 102.49 172.15 102.62 172.19 102.74 172.23 102.86 172.27 102.99 172.31 103.11 172.34 103.23 172.38 103.36 172.41 103.48 172.45 103.6 172.48 103.73 172.51 103.85 172.54 103.98 172.57 104.1 172.6 104.22 172.62 104.35 172.65 104.47 172.67 104.59 172.69 104.72 172.72 104.84 172.74 104.96 172.75 105.09 172.77 105.21 172.79 105.34 172.8 105.46 172.81 105.58 172.83 105.71 172.84 105.83 172.84 105.95 172.85 106.08 172.86 106.2 172.86 106.33 172.87 106.45 172.87 106.57 172.87 106.7 172.87 106.82 172.87 106.94 172.87 107.07 172.87 107.19 172.87 107.31 172.86 107.44 172.86 107.56 172.85 107.69 172.85 107.81 172.84 107.93 172.83 108.06 172.83 108.18 172.82 108.3 172.81 108.43 172.8 108.55 172.79 108.67 172.79 108.8 172.78 108.92 172.77 109.05 172.77 109.17 172.76 109.29 172.75 109.42 172.75 109.54 172.74 109.66 172.74 109.79 172.74 109.91 172.74 110.03 172.73 110.16 172.74 110.28 172.74 110.41 172.74 110.53 172.75 110.65 172.75 110.78 172.76 110.9 172.77 111.02 172.78 111.15 172.79 111.27 172.8 111.39 172.82 111.52 172.84 111.64 172.85 111.77 172.87 111.89 172.9 112.01 172.92 112.14 172.94 112.26 172.97 112.38 173 112.51 173.03 112.63 173.06 112.76 173.09 112.88 173.12 113 173.16 113.13 173.19 113.25 173.23 113.37 173.27 113.5 173.31 113.62 173.35 113.74 173.39 113.87 173.43 113.99 173.47 114.12 173.52 114.24 173.56 114.36 173.61 114.49 173.65 114.61 173.7 114.73 173.75 114.86 173.79 114.98 173.84 115.1 173.89 115.23 173.94 115.35 173.98 115.48 174.03 115.6 174.08 115.72 174.13 115.85 174.18 115.97 174.23 116.09 174.27 116.22 174.32 116.34 174.37 116.46 174.42 116.59 174.46 116.71 174.51 116.84 174.56 116.96 174.6 117.08 174.65 117.21 174.69 117.33 174.74 117.45 174.78 117.58 174.82 117.7 174.87 117.82 174.91 117.95 174.95 118.07 174.99 118.2 175.02 118.32 175.06 118.44 175.1 118.57 175.13 118.69 175.17 118.81 175.2 118.94 175.24 119.06 175.27 119.19 175.3 119.31 175.33 119.43 175.35 119.56 175.38 119.68 175.4 119.8 175.43 119.93 175.45 120.05 175.47 120.17 175.49 120.3 175.51 120.42 175.53 120.55 175.54 120.67 175.55 120.79 175.57 120.92 175.58 121.04 175.59 121.16 175.6 121.29 175.6 121.41 175.61 121.53 175.61 121.66 175.61 121.78 175.61 121.91 175.61 122.03 175.61 122.15 175.61 122.28 175.6 122.4 175.6 122.52 175.59 122.65 175.58 122.77 175.57 122.89 175.56 123.02 175.55 123.14 175.54 123.27 175.53 123.39 175.51 123.51 175.5 123.64 175.48 123.76 175.47 123.88 175.45 124.01 175.44 124.13 175.42 124.25 175.4 124.38 175.38 124.5 175.37 124.63 175.35 124.75 175.33 124.87 175.31 125 175.3 125.12 175.28 125.24 175.26 125.37 175.25 125.49 175.23 125.62 175.21 125.74 175.2 125.86 175.18 125.99 175.17 126.11 175.15 126.23 175.14 126.36 175.13 126.48 175.12 126.6 175.11 126.73 175.1 126.85 175.09 126.98 175.08 127.1 175.07 127.22 175.07 127.35 175.06 127.47 175.06 127.59 175.06 127.72 175.05 127.84 175.05 127.96 175.06 128.09 175.06 128.21 175.06 128.34 175.06 128.46 175.07 128.58 175.08 128.71 175.09 128.83 175.1 128.95 175.11 129.08 175.12 129.2 175.13 129.32 175.15 129.45 175.16 129.57 175.18 129.7 175.2 129.82 175.22 129.94 175.24 130.07 175.27 130.19 175.29 130.31 175.32 130.44 175.34 130.56 175.37 130.69 175.4 130.81 175.44 130.93 175.47 131.06 175.5 131.18 175.54 131.3 175.58 131.43 175.62 131.55 175.66 131.67 175.7 131.8 175.75 131.92 175.79 132.05 175.84 132.17 175.88 132.29 175.93 132.42 175.98 132.54 176.04 132.66 176.09 132.79 176.14 132.91 176.2 133.03 176.26 133.16 176.31 133.28 176.37 133.41 176.43 133.53 176.49 133.65 176.55 133.78 176.62 133.9 176.68 134.02 176.74 134.15 176.8 134.27 176.87 134.39 176.93 134.52 177 134.64 177.06 134.77 177.13 134.89 177.19 135.01 177.26 135.14 177.32 135.26 177.38 135.38 177.45 135.51 177.51 135.63 177.57 135.75 177.63 135.88 177.69 136 177.75 136.13 177.81 136.25 177.86 136.37 177.92 136.5 177.97 136.62 178.02 136.74 178.07 136.87 178.12 136.99 178.16 137.12 178.2 137.24 178.24 137.36 178.28 137.49 178.32 137.61 178.35 137.73 178.38 137.86 178.41 137.98 178.44 138.1 178.46 138.23 178.48 138.35 178.5 138.48 178.51 138.6 178.53 138.72 178.54 138.85 178.54 138.97 178.55 139.09 178.55 139.22 178.55 139.34 178.55 139.46 178.54 139.59 178.53 139.71 178.52 139.84 178.51 139.96 178.49 140.08 178.47 140.21 178.45 140.33 178.43 140.45 178.41 140.58 178.38 140.7 178.35 140.82 178.32 140.95 178.29 141.07 178.26 141.2 178.22 141.32 178.19 141.44 178.15 141.57 178.11 141.69 178.07 141.81 178.03 141.94 177.99 142.06 177.94 142.18 177.9 142.31 177.86 142.43 177.81 142.56 177.77 142.68 177.72 142.8 177.67 142.93 177.63 143.05 177.58 143.17 177.53 143.3 177.49 143.42 177.44 143.55 177.4 143.67 177.35 143.79 177.31 143.92 177.26 144.04 177.22 144.16 177.18 144.29 177.14 144.41 177.1 144.53 177.06 144.66 177.02 144.78 176.98 144.91 176.95 145.03 176.91 145.15 176.88 145.28 176.85 145.4 176.82" class="geometry color_omega" stroke="#00BFFF"/>
        <path fill="none" d="M21.75,159.4 L 21.87 159.4 21.99 159.4 22.12 159.4 22.24 159.4 22.36 159.4 22.49 159.4 22.61 159.4 22.73 159.4 22.86 159.4 22.98 159.4 23.11 159.41 23.23 159.41 23.35 159.41 23.48 159.42 23.6 159.42 23.72 159.43 23.85 159.44 23.97 159.45 24.09 159.46 24.22 159.47 24.34 159.49 24.47 159.51 24.59 159.53 24.71 159.55 24.84 159.58 24.96 159.61 25.08 159.65 25.21 159.7 25.33 159.74 25.45 159.8 25.58 159.86 25.7 159.93 25.83 160.01 25.95 160.09 26.07 160.19 26.2 160.3 26.32 160.42 26.44 160.55 26.57 160.7 26.69 160.86 26.81 161.04 26.94 161.24 27.06 161.46 27.19 161.7 27.31 161.97 27.43 162.26 27.56 162.57 27.68 162.92 27.8 163.3 27.93 163.71 28.05 164.15 28.18 164.64 28.3 165.16 28.42 165.73 28.55 166.34 28.67 166.99 28.79 167.7 28.92 168.44 29.04 169.24 29.16 170.08 29.29 170.97 29.41 171.91 29.54 172.88 29.66 173.9 29.78 174.94 29.91 176.02 30.03 177.11 30.15 178.22 30.28 179.32 30.4 180.42 30.52 181.5 30.65 182.56 30.77 183.57 30.9 184.54 31.02 185.44 31.14 186.28 31.27 187.05 31.39 187.73 31.51 188.32 31.64 188.83 31.76 189.25 31.88 189.58 32.01 189.81 32.13 189.97 32.26 190.04 32.38 190.04 32.5 189.97 32.63 189.83 32.75 189.63 32.87 189.39 33 189.09 33.12 188.75 33.24 188.38 33.37 187.98 33.49 187.55 33.62 187.1 33.74 186.63 33.86 186.15 33.99 185.66 34.11 185.17 34.23 184.66 34.36 184.16 34.48 183.65 34.61 183.15 34.73 182.64 34.85 182.14 34.98 181.65 35.1 181.15 35.22 180.67 35.35 180.19 35.47 179.72 35.59 179.25 35.72 178.79 35.84 178.34 35.97 177.9 36.09 177.46 36.21 177.03 36.34 176.61 36.46 176.2 36.58 175.8 36.71 175.4 36.83 175.02 36.95 174.64 37.08 174.26 37.2 173.9 37.33 173.55 37.45 173.2 37.57 172.86 37.7 172.53 37.82 172.21 37.94 171.89 38.07 171.59 38.19 171.29 38.31 171 38.44 170.73 38.56 170.46 38.69 170.2 38.81 169.95 38.93 169.71 39.06 169.49 39.18 169.27 39.3 169.07 39.43 168.88 39.55 168.7 39.67 168.53 39.8 168.38 39.92 168.24 40.05 168.12 40.17 168.02 40.29 167.93 40.42 167.85 40.54 167.8 40.66 167.76 40.79 167.74 40.91 167.74 41.04 167.76 41.16 167.81 41.28 167.87 41.41 167.96 41.53 168.07 41.65 168.2 41.78 168.35 41.9 168.53 42.02 168.74 42.15 168.97 42.27 169.22 42.4 169.5 42.52 169.8 42.64 170.13 42.77 170.48 42.89 170.85 43.01 171.24 43.14 171.66 43.26 172.1 43.38 172.55 43.51 173.03 43.63 173.52 43.76 174.02 43.88 174.54 44 175.07 44.13 175.62 44.25 176.17 44.37 176.72 44.5 177.28 44.62 177.85 44.74 178.41 44.87 178.97 44.99 179.53 45.12 180.09 45.24 180.64 45.36 181.18 45.49 181.72 45.61 182.24 45.73 182.75 45.86 183.25 45.98 183.73 46.11 184.2 46.23 184.65 46.35 185.09 46.48 185.51 46.6 185.92 46.72 186.3 46.85 186.67 46.97 187.03 47.09 187.36 47.22 187.68 47.34 187.98 47.47 188.26 47.59 188.53 47.71 188.78 47.84 189.01 47.96 189.23 48.08 189.44 48.21 189.62 48.33 189.8 48.45 189.96 48.58 190.11 48.7 190.24 48.83 190.37 48.95 190.48 49.07 190.58 49.2 190.67 49.32 190.75 49.44 190.82 49.57 190.88 49.69 190.94 49.81 190.98 49.94 191.02 50.06 191.05 50.19 191.08 50.31 191.1 50.43 191.11 50.56 191.12 50.68 191.12 50.8 191.11 50.93 191.11 51.05 191.1 51.17 191.08 51.3 191.06 51.42 191.04 51.55 191.02 51.67 191 51.79 190.97 51.92 190.94 52.04 190.91 52.16 190.87 52.29 190.84 52.41 190.81 52.54 190.77 52.66 190.74 52.78 190.7 52.91 190.67 53.03 190.63 53.15 190.6 53.28 190.56 53.4 190.53 53.52 190.5 53.65 190.46 53.77 190.43 53.9 190.41 54.02 190.38 54.14 190.35 54.27 190.33 54.39 190.31 54.51 190.29 54.64 190.27 54.76 190.26 54.88 190.24 55.01 190.23 55.13 190.22 55.26 190.22 55.38 190.21 55.5 190.21 55.63 190.21 55.75 190.22 55.87 190.22 56 190.23 56.12 190.24 56.24 190.25 56.37 190.26 56.49 190.28 56.62 190.3 56.74 190.32 56.86 190.34 56.99 190.36 57.11 190.38 57.23 190.4 57.36 190.43 57.48 190.45 57.6 190.48 57.73 190.51 57.85 190.53 57.98 190.56 58.1 190.58 58.22 190.61 58.35 190.64 58.47 190.66 58.59 190.68 58.72 190.71 58.84 190.73 58.97 190.75 59.09 190.77 59.21 190.79 59.34 190.8 59.46 190.82 59.58 190.83 59.71 190.84 59.83 190.85 59.95 190.86 60.08 190.87 60.2 190.87 60.33 190.87 60.45 190.87 60.57 190.87 60.7 190.87 60.82 190.87 60.94 190.86 61.07 190.86 61.19 190.85 61.31 190.84 61.44 190.83 61.56 190.81 61.69 190.8 61.81 190.78 61.93 190.77 62.06 190.75 62.18 190.73 62.3 190.71 62.43 190.69 62.55 190.67 62.67 190.65 62.8 190.63 62.92 190.6 63.05 190.58 63.17 190.56 63.29 190.53 63.42 190.51 63.54 190.48 63.66 190.46 63.79 190.44 63.91 190.41 64.04 190.39 64.16 190.37 64.28 190.34 64.41 190.32 64.53 190.3 64.65 190.28 64.78 190.26 64.9 190.24 65.02 190.22 65.15 190.2 65.27 190.19 65.4 190.17 65.52 190.16 65.64 190.14 65.77 190.13 65.89 190.12 66.01 190.11 66.14 190.1 66.26 190.1 66.38 190.09 66.51 190.09 66.63 190.09 66.76 190.09 66.88 190.1 67 190.1 67.13 190.11 67.25 190.12 67.37 190.13 67.5 190.14 67.62 190.15 67.74 190.17 67.87 190.19 67.99 190.2 68.12 190.23 68.24 190.25 68.36 190.27 68.49 190.3 68.61 190.33 68.73 190.36 68.86 190.39 68.98 190.42 69.1 190.45 69.23 190.49 69.35 190.52 69.48 190.56 69.6 190.59 69.72 190.63 69.85 190.67 69.97 190.7 70.09 190.74 70.22 190.78 70.34 190.81 70.47 190.85 70.59 190.89 70.71 190.92 70.84 190.95 70.96 190.99 71.08 191.02 71.21 191.05 71.33 191.08 71.45 191.1 71.58 191.13 71.7 191.15 71.83 191.18 71.95 191.2 72.07 191.22 72.2 191.23 72.32 191.25 72.44 191.26 72.57 191.27 72.69 191.28 72.81 191.29 72.94 191.29 73.06 191.3 73.19 191.3 73.31 191.3 73.43 191.3 73.56 191.29 73.68 191.29 73.8 191.28 73.93 191.27 74.05 191.26 74.17 191.25 74.3 191.24 74.42 191.22 74.55 191.21 74.67 191.19 74.79 191.17 74.92 191.15 75.04 191.13 75.16 191.11 75.29 191.09 75.41 191.06 75.53 191.04 75.66 191.01 75.78 190.99 75.91 190.96 76.03 190.94 76.15 190.91 76.28 190.88 76.4 190.85 76.52 190.83 76.65 190.8 76.77 190.77 76.9 190.74 77.02 190.71 77.14 190.68 77.27 190.65 77.39 190.62 77.51 190.6 77.64 190.57 77.76 190.54 77.88 190.51 78.01 190.48 78.13 190.45 78.26 190.42 78.38 190.4 78.5 190.37 78.63 190.34 78.75 190.32 78.87 190.29 79 190.26 79.12 190.24 79.24 190.21 79.37 190.19 79.49 190.17 79.62 190.14 79.74 190.12 79.86 190.1 79.99 190.08 80.11 190.06 80.23 190.04 80.36 190.02 80.48 190 80.6 189.98 80.73 189.97 80.85 189.95 80.98 189.93 81.1 189.92 81.22 189.91 81.35 189.89 81.47 189.88 81.59 189.87 81.72 189.86 81.84 189.85 81.96 189.84 82.09 189.84 82.21 189.83 82.34 189.83 82.46 189.82 82.58 189.82 82.71 189.81 82.83 189.81 82.95 189.81 83.08 189.81 83.2 189.81 83.33 189.81 83.45 189.81 83.57 189.82 83.7 189.82 83.82 189.82 83.94 189.83 84.07 189.83 84.19 189.84 84.31 189.85 84.44 189.85 84.56 189.86 84.69 189.87 84.81 189.88 84.93 189.89 85.06 189.9 85.18 189.91 85.3 189.92 85.43 189.94 85.55 189.95 85.67 189.96 85.8 189.98 85.92 189.99 86.05 190.01 86.17 190.03 86.29 190.04 86.42 190.06 86.54 190.08 86.66 190.1 86.79 190.12 86.91 190.14 87.03 190.16 87.16 190.18 87.28 190.2 87.41 190.23 87.53 190.25 87.65 190.28 87.78 190.3 87.9 190.33 88.02 190.36 88.15 190.39 88.27 190.42 88.4 190.45 88.52 190.49 88.64 190.52 88.77 190.55 88.89 190.59 89.01 190.63 89.14 190.67 89.26 190.71 89.38 190.75 89.51 190.79 89.63 190.84 89.76 190.88 89.88 190.93 90 190.98 90.13 191.03 90.25 191.08 90.37 191.14 90.5 191.19 90.62 191.25 90.74 191.31 90.87 191.37 90.99 191.43 91.12 191.49 91.24 191.56 91.36 191.63 91.49 191.69 91.61 191.76 91.73 191.83 91.86 191.91 91.98 191.98 92.1 192.06 92.23 192.13 92.35 192.21 92.48 192.29 92.6 192.37 92.72 192.46 92.85 192.54 92.97 192.62 93.09 192.71 93.22 192.79 93.34 192.88 93.46 192.97 93.59 193.05 93.71 193.14 93.84 193.23 93.96 193.32 94.08 193.4 94.21 193.49 94.33 193.57 94.45 193.66 94.58 193.74 94.7 193.82 94.83 193.9 94.95 193.98 95.07 194.06 95.2 194.13 95.32 194.2 95.44 194.27 95.57 194.34 95.69 194.4 95.81 194.46 95.94 194.52 96.06 194.57 96.19 194.62 96.31 194.66 96.43 194.7 96.56 194.74 96.68 194.77 96.8 194.79 96.93 194.82 97.05 194.83 97.17 194.84 97.3 194.85 97.42 194.85 97.55 194.85 97.67 194.84 97.79 194.82 97.92 194.8 98.04 194.78 98.16 194.75 98.29 194.71 98.41 194.67 98.53 194.63 98.66 194.58 98.78 194.53 98.91 194.47 99.03 194.41 99.15 194.35 99.28 194.28 99.4 194.21 99.52 194.13 99.65 194.05 99.77 193.97 99.89 193.89 100.02 193.8 100.14 193.71 100.27 193.62 100.39 193.53 100.51 193.43 100.64 193.34 100.76 193.24 100.88 193.14 101.01 193.05 101.13 192.95 101.26 192.85 101.38 192.75 101.5 192.65 101.63 192.55 101.75 192.45 101.87 192.35 102 192.25 102.12 192.15 102.24 192.05 102.37 191.96 102.49 191.86 102.62 191.77 102.74 191.68 102.86 191.59 102.99 191.5 103.11 191.41 103.23 191.33 103.36 191.25 103.48 191.17 103.6 191.09 103.73 191.02 103.85 190.94 103.98 190.87 104.1 190.81 104.22 190.74 104.35 190.68 104.47 190.62 104.59 190.57 104.72 190.51 104.84 190.47 104.96 190.42 105.09 190.38 105.21 190.34 105.34 190.31 105.46 190.28 105.58 190.25 105.71 190.23 105.83 190.21 105.95 190.19 106.08 190.18 106.2 190.17 106.33 190.17 106.45 190.17 106.57 190.17 106.7 190.18 106.82 190.2 106.94 190.21 107.07 190.23 107.19 190.26 107.31 190.29 107.44 190.32 107.56 190.36 107.69 190.4 107.81 190.44 107.93 190.49 108.06 190.54 108.18 190.59 108.3 190.65 108.43 190.7 108.55 190.77 108.67 190.83 108.8 190.9 108.92 190.96 109.05 191.03 109.17 191.11 109.29 191.18 109.42 191.25 109.54 191.33 109.66 191.4 109.79 191.48 109.91 191.55 110.03 191.63 110.16 191.7 110.28 191.78 110.41 191.85 110.53 191.92 110.65 191.99 110.78 192.06 110.9 192.12 111.02 192.19 111.15 192.25 111.27 192.3 111.39 192.36 111.52 192.41 111.64 192.46 111.77 192.5 111.89 192.54 112.01 192.58 112.14 192.61 112.26 192.64 112.38 192.67 112.51 192.69 112.63 192.71 112.76 192.72 112.88 192.73 113 192.73 113.13 192.73 113.25 192.73 113.37 192.72 113.5 192.71 113.62 192.69 113.74 192.67 113.87 192.64 113.99 192.61 114.12 192.58 114.24 192.54 114.36 192.5 114.49 192.46 114.61 192.41 114.73 192.36 114.86 192.31 114.98 192.26 115.1 192.2 115.23 192.13 115.35 192.07 115.48 192 115.6 191.93 115.72 191.86 115.85 191.79 115.97 191.72 116.09 191.64 116.22 191.56 116.34 191.48 116.46 191.4 116.59 191.32 116.71 191.24 116.84 191.16 116.96 191.07 117.08 190.99 117.21 190.91 117.33 190.82 117.45 190.74 117.58 190.66 117.7 190.58 117.82 190.5 117.95 190.42 118.07 190.34 118.2 190.27 118.32 190.19 118.44 190.12 118.57 190.05 118.69 189.98 118.81 189.92 118.94 189.86 119.06 189.8 119.19 189.75 119.31 189.7 119.43 189.65 119.56 189.61 119.68 189.57 119.8 189.53 119.93 189.51 120.05 189.48 120.17 189.46 120.3 189.45 120.42 189.44 120.55 189.44 120.67 189.44 120.79 189.45 120.92 189.46 121.04 189.48 121.16 189.51 121.29 189.54 121.41 189.58 121.53 189.63 121.66 189.68 121.78 189.74 121.91 189.8 122.03 189.88 122.15 189.95 122.28 190.04 122.4 190.13 122.52 190.22 122.65 190.33 122.77 190.43 122.89 190.55 123.02 190.66 123.14 190.79 123.27 190.92 123.39 191.05 123.51 191.19 123.64 191.33 123.76 191.47 123.88 191.62 124.01 191.77 124.13 191.93 124.25 192.08 124.38 192.24 124.5 192.4 124.63 192.56 124.75 192.73 124.87 192.89 125 193.05 125.12 193.22 125.24 193.38 125.37 193.54 125.49 193.71 125.62 193.87 125.74 194.03 125.86 194.18 125.99 194.34 126.11 194.49 126.23 194.64 126.36 194.79 126.48 194.93 126.6 195.07 126.73 195.21 126.85 195.34 126.98 195.47 127.1 195.59 127.22 195.71 127.35 195.83 127.47 195.94 127.59 196.04 127.72 196.14 127.84 196.23 127.96 196.32 128.09 196.41 128.21 196.48 128.34 196.55 128.46 196.62 128.58 196.68 128.71 196.73 128.83 196.78 128.95 196.82 129.08 196.85 129.2 196.88 129.32 196.9 129.45 196.92 129.57 196.93 129.7 196.93 129.82 196.93 129.94 196.92 130.07 196.9 130.19 196.87 130.31 196.84 130.44 196.8 130.56 196.76 130.69 196.71 130.81 196.65 130.93 196.59 131.06 196.52 131.18 196.44 131.3 196.36 131.43 196.27 131.55 196.17 131.67 196.07 131.8 195.96 131.92 195.85 132.05 195.72 132.17 195.6 132.29 195.47 132.42 195.33 132.54 195.19 132.66 195.04 132.79 194.89 132.91 194.73 133.03 194.57 133.16 194.4 133.28 194.23 133.41 194.06 133.53 193.88 133.65 193.7 133.78 193.52 133.9 193.34 134.02 193.15 134.15 192.96 134.27 192.77 134.39 192.58 134.52 192.39 134.64 192.2 134.77 192.01 134.89 191.82 135.01 191.64 135.14 191.45 135.26 191.27 135.38 191.09 135.51 190.91 135.63 190.74 135.75 190.57 135.88 190.4 136 190.24 136.13 190.09 136.25 189.94 136.37 189.8 136.5 189.67 136.62 189.54 136.74 189.42 136.87 189.31 136.99 189.2 137.12 189.11 137.24 189.02 137.36 188.94 137.49 188.87 137.61 188.81 137.73 188.76 137.86 188.72 137.98 188.69 138.1 188.67 138.23 188.66 138.35 188.66 138.48 188.67 138.6 188.69 138.72 188.72 138.85 188.76 138.97 188.81 139.09 188.87 139.22 188.94 139.34 189.01 139.46 189.1 139.59 189.2 139.71 189.3 139.84 189.41 139.96 189.53 140.08 189.66 140.21 189.79 140.33 189.93 140.45 190.08 140.58 190.24 140.7 190.4 140.82 190.57 140.95 190.74 141.07 190.92 141.2 191.1 141.32 191.29 141.44 191.48 141.57 191.67 141.69 191.87 141.81 192.07 141.94 192.28 142.06 192.48 142.18 192.69 142.31 192.9 142.43 193.11 142.56 193.33 142.68 193.54 142.8 193.75 142.93 193.96 143.05 194.17 143.17 194.38 143.3 194.59 143.42 194.8 143.55 195.01 143.67 195.21 143.79 195.41 143.92 195.6 144.04 195.8 144.16 195.99 144.29 196.17 144.41 196.36 144.53 196.53 144.66 196.7 144.78 196.87 144.91 197.03 145.03 197.18 145.15 197.33 145.28 197.47 145.4 197.61" class="geometry color_k" stroke="#D4CA3A"/>
      </g>
    </g>
  </g>
  <g class="guide ylabels" font-size="2.82" font-family="'PT Sans Caption','Helvetica Neue','Helvetica',sans-serif" fill="#6C606B" id="fig-f7dc5130f90b45e58cc39b0524fdd98c-element-11">
    <text x="18.75" y="207.31" text-anchor="end" dy="0.35em">-0.5</text>
    <text x="18.75" y="191.34" text-anchor="end" dy="0.35em">0.0</text>
    <text x="18.75" y="175.37" text-anchor="end" dy="0.35em">0.5</text>
    <text x="18.75" y="159.4" text-anchor="end" dy="0.35em">1.0</text>
  </g>
  <g font-size="3.88" font-family="'PT Sans','Helvetica Neue','Helvetica',sans-serif" fill="#564A55" stroke="#000000" stroke-opacity="0.000" id="fig-f7dc5130f90b45e58cc39b0524fdd98c-element-12">
    <text x="8.81" y="181.36" text-anchor="middle" dy="0.35em" transform="rotate(-90, 8.81, 183.36)">First order senstivity</text>
  </g>
</g>
<g class="plotroot xscalable yscalable" id="fig-f7dc5130f90b45e58cc39b0524fdd98c-element-13">
  <g font-size="3.88" font-family="'PT Sans','Helvetica Neue','Helvetica',sans-serif" fill="#564A55" stroke="#000000" stroke-opacity="0.000" id="fig-f7dc5130f90b45e58cc39b0524fdd98c-element-14">
    <text x="83.57" y="140.79" text-anchor="middle" dy="0.6em">x</text>
  </g>
  <g class="guide xlabels" font-size="2.82" font-family="'PT Sans Caption','Helvetica Neue','Helvetica',sans-serif" fill="#6C606B" id="fig-f7dc5130f90b45e58cc39b0524fdd98c-element-15">
    <text x="21.74" y="134.11" text-anchor="middle" dy="0.6em">0</text>
    <text x="83.57" y="134.11" text-anchor="middle" dy="0.6em">50</text>
    <text x="145.4" y="134.11" text-anchor="middle" dy="0.6em">100</text>
  </g>
  <g clip-path="url(#fig-f7dc5130f90b45e58cc39b0524fdd98c-element-17)" id="fig-f7dc5130f90b45e58cc39b0524fdd98c-element-16">
    <g pointer-events="visible" opacity="1" fill="#000000" fill-opacity="0.000" stroke="#000000" stroke-opacity="0.000" class="guide background" id="fig-f7dc5130f90b45e58cc39b0524fdd98c-element-18">
      <rect x="19.74" y="92.44" width="127.65" height="40.68"/>
    </g>
    <g class="guide ygridlines xfixed" stroke-dasharray="0.5,0.5" stroke-width="0.2" stroke="#D0D0E0" id="fig-f7dc5130f90b45e58cc39b0524fdd98c-element-19">
      <path fill="none" d="M19.74,131.11 L 147.4 131.11"/>
      <path fill="none" d="M19.74,121.95 L 147.4 121.95"/>
      <path fill="none" d="M19.74,112.78 L 147.4 112.78"/>
      <path fill="none" d="M19.74,103.61 L 147.4 103.61"/>
      <path fill="none" d="M19.74,94.44 L 147.4 94.44"/>
    </g>
    <g class="guide xgridlines yfixed" stroke-dasharray="0.5,0.5" stroke-width="0.2" stroke="#D0D0E0" id="fig-f7dc5130f90b45e58cc39b0524fdd98c-element-20">
      <path fill="none" d="M21.74,92.44 L 21.74 133.11"/>
      <path fill="none" d="M83.57,92.44 L 83.57 133.11"/>
      <path fill="none" d="M145.4,92.44 L 145.4 133.11"/>
    </g>
    <g class="plotpanel" id="fig-f7dc5130f90b45e58cc39b0524fdd98c-element-21">
      <g stroke-width="0.3" fill="#000000" fill-opacity="0.000" id="fig-f7dc5130f90b45e58cc39b0524fdd98c-element-22">
        <path fill="none" d="M21.74,121.95 L 21.87 121.95 21.99 121.95 22.12 121.95 22.24 121.95 22.36 121.95 22.49 121.95 22.61 121.95 22.73 121.94 22.86 121.94 22.98 121.94 23.11 121.94 23.23 121.94 23.35 121.94 23.48 121.94 23.6 121.93 23.72 121.93 23.85 121.92 23.97 121.92 24.09 121.91 24.22 121.9 24.34 121.9 24.47 121.88 24.59 121.87 24.71 121.86 24.84 121.84 24.96 121.82 25.08 121.8 25.21 121.78 25.33 121.75 25.45 121.72 25.58 121.68 25.7 121.64 25.83 121.59 25.95 121.54 26.07 121.49 26.2 121.43 26.32 121.36 26.44 121.28 26.57 121.19 26.69 121.1 26.81 120.99 26.94 120.88 27.06 120.75 27.19 120.61 27.31 120.46 27.43 120.29 27.56 120.11 27.68 119.91 27.8 119.69 27.93 119.45 28.05 119.19 28.18 118.91 28.3 118.6 28.42 118.27 28.55 117.92 28.67 117.54 28.79 117.13 28.92 116.69 29.04 116.23 29.16 115.74 29.29 115.22 29.41 114.68 29.54 114.11 29.66 113.52 29.78 112.91 29.91 112.28 30.03 111.65 30.15 111 30.28 110.35 30.4 109.71 30.52 109.08 30.65 108.46 30.77 107.87 30.9 107.31 31.02 106.78 31.14 106.28 31.27 105.84 31.39 105.44 31.51 105.09 31.64 104.79 31.76 104.54 31.88 104.35 32.01 104.2 32.13 104.11 32.26 104.06 32.38 104.06 32.5 104.1 32.63 104.18 32.75 104.29 32.87 104.44 33 104.61 33.12 104.8 33.24 105.02 33.37 105.25 33.49 105.5 33.62 105.76 33.74 106.03 33.86 106.31 33.99 106.6 34.11 106.89 34.23 107.18 34.36 107.47 34.48 107.77 34.61 108.07 34.73 108.36 34.85 108.65 34.98 108.94 35.1 109.23 35.22 109.52 35.35 109.8 35.47 110.08 35.59 110.35 35.72 110.62 35.84 110.89 35.97 111.15 36.09 111.4 36.21 111.66 36.34 111.91 36.46 112.15 36.58 112.39 36.71 112.63 36.83 112.86 36.95 113.08 37.08 113.3 37.2 113.52 37.33 113.74 37.45 113.94 37.57 114.15 37.7 114.35 37.82 114.54 37.94 114.73 38.07 114.92 38.19 115.1 38.31 115.28 38.44 115.45 38.56 115.61 38.69 115.77 38.81 115.93 38.93 116.08 39.06 116.22 39.18 116.36 39.3 116.49 39.43 116.61 39.55 116.73 39.67 116.84 39.8 116.94 39.92 117.04 40.05 117.12 40.17 117.2 40.29 117.27 40.42 117.33 40.54 117.38 40.66 117.41 40.79 117.44 40.91 117.46 41.04 117.47 41.16 117.46 41.28 117.44 41.41 117.41 41.53 117.36 41.65 117.31 41.78 117.24 41.9 117.15 42.02 117.05 42.15 116.94 42.27 116.81 42.4 116.67 42.52 116.51 42.64 116.34 42.77 116.15 42.89 115.96 43.01 115.74 43.14 115.52 43.26 115.28 43.38 115.03 43.51 114.77 43.63 114.5 43.76 114.22 43.88 113.93 44 113.63 44.13 113.33 44.25 113.02 44.37 112.7 44.5 112.38 44.62 112.06 44.74 111.74 44.87 111.42 44.99 111.09 45.12 110.77 45.24 110.45 45.36 110.14 45.49 109.83 45.61 109.52 45.73 109.22 45.86 108.92 45.98 108.64 46.11 108.36 46.23 108.09 46.35 107.82 46.48 107.57 46.6 107.33 46.72 107.09 46.85 106.86 46.97 106.65 47.09 106.44 47.22 106.24 47.34 106.06 47.47 105.88 47.59 105.71 47.71 105.55 47.84 105.4 47.96 105.26 48.08 105.12 48.21 105 48.33 104.88 48.45 104.77 48.58 104.67 48.7 104.57 48.83 104.49 48.95 104.41 49.07 104.33 49.2 104.26 49.32 104.2 49.44 104.14 49.57 104.09 49.69 104.04 49.81 104 49.94 103.96 50.06 103.93 50.19 103.9 50.31 103.87 50.43 103.85 50.56 103.83 50.68 103.82 50.8 103.8 50.93 103.79 51.05 103.78 51.17 103.78 51.3 103.77 51.42 103.77 51.55 103.77 51.67 103.77 51.79 103.78 51.92 103.78 52.04 103.79 52.16 103.79 52.29 103.8 52.41 103.81 52.54 103.81 52.66 103.82 52.78 103.83 52.91 103.84 53.03 103.85 53.15 103.86 53.28 103.87 53.4 103.88 53.52 103.89 53.65 103.9 53.77 103.91 53.9 103.92 54.02 103.93 54.14 103.93 54.27 103.94 54.39 103.95 54.51 103.95 54.64 103.96 54.76 103.96 54.88 103.97 55.01 103.97 55.13 103.97 55.26 103.98 55.38 103.98 55.5 103.98 55.63 103.98 55.75 103.98 55.87 103.98 56 103.98 56.12 103.97 56.24 103.97 56.37 103.97 56.49 103.96 56.62 103.96 56.74 103.96 56.86 103.95 56.99 103.95 57.11 103.95 57.23 103.94 57.36 103.94 57.48 103.94 57.6 103.93 57.73 103.93 57.85 103.93 57.98 103.93 58.1 103.93 58.22 103.93 58.35 103.93 58.47 103.93 58.59 103.93 58.72 103.94 58.84 103.94 58.97 103.95 59.09 103.95 59.21 103.96 59.34 103.97 59.46 103.98 59.58 103.99 59.71 104 59.83 104.01 59.95 104.02 60.08 104.04 60.2 104.05 60.33 104.07 60.45 104.08 60.57 104.1 60.7 104.12 60.82 104.14 60.94 104.16 61.07 104.18 61.19 104.2 61.31 104.22 61.44 104.24 61.56 104.27 61.69 104.29 61.81 104.31 61.93 104.34 62.06 104.36 62.18 104.39 62.3 104.41 62.43 104.44 62.55 104.46 62.67 104.49 62.8 104.51 62.92 104.54 63.05 104.56 63.17 104.59 63.29 104.61 63.42 104.64 63.54 104.66 63.66 104.68 63.79 104.71 63.91 104.73 64.04 104.75 64.16 104.77 64.28 104.79 64.41 104.81 64.53 104.83 64.65 104.85 64.78 104.87 64.9 104.88 65.02 104.9 65.15 104.91 65.27 104.93 65.4 104.94 65.52 104.95 65.64 104.96 65.77 104.97 65.89 104.97 66.01 104.98 66.14 104.98 66.26 104.98 66.38 104.98 66.51 104.98 66.63 104.98 66.76 104.98 66.88 104.97 67 104.96 67.13 104.95 67.25 104.94 67.37 104.93 67.5 104.92 67.62 104.9 67.74 104.88 67.87 104.86 67.99 104.84 68.12 104.82 68.24 104.79 68.36 104.77 68.49 104.74 68.61 104.71 68.73 104.68 68.86 104.65 68.98 104.62 69.1 104.58 69.23 104.55 69.35 104.52 69.48 104.48 69.6 104.45 69.72 104.41 69.85 104.37 69.97 104.34 70.09 104.3 70.22 104.26 70.34 104.23 70.47 104.19 70.59 104.16 70.71 104.13 70.84 104.09 70.96 104.06 71.08 104.03 71.21 104 71.33 103.98 71.45 103.95 71.58 103.93 71.7 103.9 71.83 103.88 71.95 103.86 72.07 103.85 72.2 103.83 72.32 103.82 72.44 103.81 72.57 103.8 72.69 103.79 72.81 103.78 72.94 103.78 73.06 103.78 73.19 103.78 73.31 103.78 73.43 103.79 73.56 103.79 73.68 103.8 73.8 103.81 73.93 103.82 74.05 103.83 74.17 103.85 74.3 103.86 74.42 103.88 74.55 103.9 74.67 103.92 74.79 103.94 74.92 103.96 75.04 103.99 75.16 104.01 75.29 104.04 75.41 104.06 75.53 104.09 75.66 104.12 75.78 104.15 75.91 104.18 76.03 104.21 76.15 104.24 76.28 104.27 76.4 104.3 76.52 104.33 76.65 104.36 76.77 104.4 76.9 104.43 77.02 104.46 77.14 104.49 77.27 104.53 77.39 104.56 77.51 104.59 77.64 104.62 77.76 104.66 77.88 104.69 78.01 104.72 78.13 104.75 78.26 104.78 78.38 104.81 78.5 104.84 78.63 104.87 78.75 104.89 78.87 104.92 79 104.95 79.12 104.97 79.24 104.99 79.37 105.02 79.49 105.04 79.62 105.06 79.74 105.08 79.86 105.09 79.99 105.11 80.11 105.13 80.23 105.14 80.36 105.15 80.48 105.16 80.6 105.17 80.73 105.18 80.85 105.18 80.98 105.18 81.1 105.19 81.22 105.19 81.35 105.18 81.47 105.18 81.59 105.17 81.72 105.17 81.84 105.16 81.96 105.15 82.09 105.13 82.21 105.12 82.34 105.1 82.46 105.08 82.58 105.06 82.71 105.04 82.83 105.02 82.95 105 83.08 104.97 83.2 104.94 83.33 104.92 83.45 104.89 83.57 104.86 83.7 104.83 83.82 104.8 83.94 104.76 84.07 104.73 84.19 104.7 84.31 104.67 84.44 104.63 84.56 104.6 84.69 104.57 84.81 104.53 84.93 104.5 85.06 104.47 85.18 104.44 85.3 104.41 85.43 104.38 85.55 104.35 85.67 104.32 85.8 104.29 85.92 104.26 86.05 104.23 86.17 104.21 86.29 104.18 86.42 104.16 86.54 104.13 86.66 104.11 86.79 104.09 86.91 104.07 87.03 104.05 87.16 104.03 87.28 104.01 87.41 104 87.53 103.98 87.65 103.97 87.78 103.96 87.9 103.95 88.02 103.94 88.15 103.93 88.27 103.92 88.4 103.91 88.52 103.9 88.64 103.9 88.77 103.89 88.89 103.89 89.01 103.88 89.14 103.88 89.26 103.88 89.38 103.88 89.51 103.88 89.63 103.88 89.76 103.88 89.88 103.88 90 103.88 90.13 103.89 90.25 103.89 90.37 103.89 90.5 103.9 90.62 103.9 90.74 103.91 90.87 103.91 90.99 103.92 91.12 103.93 91.24 103.93 91.36 103.94 91.49 103.95 91.61 103.96 91.73 103.96 91.86 103.97 91.98 103.98 92.1 103.99 92.23 104 92.35 104 92.48 104.01 92.6 104.02 92.72 104.03 92.85 104.04 92.97 104.05 93.09 104.06 93.22 104.07 93.34 104.07 93.46 104.08 93.59 104.09 93.71 104.1 93.84 104.11 93.96 104.12 94.08 104.12 94.21 104.13 94.33 104.14 94.45 104.15 94.58 104.15 94.7 104.16 94.83 104.17 94.95 104.17 95.07 104.18 95.2 104.19 95.32 104.19 95.44 104.2 95.57 104.2 95.69 104.21 95.81 104.21 95.94 104.22 96.06 104.22 96.19 104.23 96.31 104.23 96.43 104.24 96.56 104.24 96.68 104.24 96.8 104.25 96.93 104.25 97.05 104.25 97.17 104.26 97.3 104.26 97.42 104.26 97.55 104.26 97.67 104.27 97.79 104.27 97.92 104.27 98.04 104.27 98.16 104.28 98.29 104.28 98.41 104.28 98.53 104.28 98.66 104.29 98.78 104.29 98.91 104.29 99.03 104.29 99.15 104.29 99.28 104.3 99.4 104.3 99.52 104.3 99.65 104.31 99.77 104.31 99.89 104.31 100.02 104.31 100.14 104.32 100.27 104.32 100.39 104.32 100.51 104.33 100.64 104.33 100.76 104.33 100.88 104.34 101.01 104.34 101.13 104.34 101.26 104.35 101.38 104.35 101.5 104.35 101.63 104.36 101.75 104.36 101.87 104.37 102 104.37 102.12 104.37 102.24 104.38 102.37 104.38 102.49 104.38 102.62 104.39 102.74 104.39 102.86 104.39 102.99 104.4 103.11 104.4 103.23 104.4 103.36 104.41 103.48 104.41 103.6 104.41 103.73 104.42 103.85 104.42 103.98 104.42 104.1 104.42 104.22 104.42 104.35 104.43 104.47 104.43 104.59 104.43 104.72 104.43 104.84 104.43 104.96 104.43 105.09 104.43 105.21 104.43 105.34 104.43 105.46 104.43 105.58 104.43 105.71 104.43 105.83 104.43 105.95 104.42 106.08 104.42 106.2 104.42 106.33 104.42 106.45 104.41 106.57 104.41 106.7 104.41 106.82 104.4 106.94 104.4 107.07 104.39 107.19 104.39 107.31 104.38 107.44 104.38 107.56 104.37 107.69 104.37 107.81 104.36 107.93 104.35 108.06 104.34 108.18 104.34 108.3 104.33 108.43 104.32 108.55 104.32 108.67 104.31 108.8 104.3 108.92 104.29 109.05 104.28 109.17 104.27 109.29 104.27 109.42 104.26 109.54 104.25 109.66 104.24 109.79 104.23 109.91 104.22 110.03 104.21 110.16 104.21 110.28 104.2 110.41 104.19 110.53 104.18 110.65 104.17 110.78 104.17 110.9 104.16 111.02 104.15 111.15 104.15 111.27 104.14 111.39 104.13 111.52 104.13 111.64 104.12 111.77 104.11 111.89 104.11 112.01 104.1 112.14 104.1 112.26 104.09 112.38 104.09 112.51 104.08 112.63 104.08 112.76 104.07 112.88 104.07 113 104.06 113.13 104.06 113.25 104.06 113.37 104.05 113.5 104.05 113.62 104.05 113.74 104.04 113.87 104.04 113.99 104.03 114.12 104.03 114.24 104.03 114.36 104.02 114.49 104.02 114.61 104.02 114.73 104.01 114.86 104.01 114.98 104 115.1 104 115.23 103.99 115.35 103.99 115.48 103.98 115.6 103.98 115.72 103.97 115.85 103.97 115.97 103.96 116.09 103.95 116.22 103.95 116.34 103.94 116.46 103.93 116.59 103.92 116.71 103.91 116.84 103.91 116.96 103.9 117.08 103.89 117.21 103.88 117.33 103.86 117.45 103.85 117.58 103.84 117.7 103.83 117.82 103.82 117.95 103.8 118.07 103.79 118.2 103.78 118.32 103.76 118.44 103.75 118.57 103.73 118.69 103.72 118.81 103.7 118.94 103.69 119.06 103.67 119.19 103.65 119.31 103.63 119.43 103.62 119.56 103.6 119.68 103.58 119.8 103.56 119.93 103.55 120.05 103.53 120.17 103.51 120.3 103.49 120.42 103.47 120.55 103.45 120.67 103.43 120.79 103.42 120.92 103.4 121.04 103.38 121.16 103.36 121.29 103.35 121.41 103.33 121.53 103.31 121.66 103.3 121.78 103.28 121.91 103.27 122.03 103.25 122.15 103.24 122.28 103.23 122.4 103.21 122.52 103.2 122.65 103.19 122.77 103.18 122.89 103.17 123.02 103.17 123.14 103.16 123.27 103.15 123.39 103.15 123.51 103.14 123.64 103.14 123.76 103.14 123.88 103.14 124.01 103.14 124.13 103.14 124.25 103.14 124.38 103.14 124.5 103.15 124.63 103.15 124.75 103.16 124.87 103.16 125 103.17 125.12 103.18 125.24 103.19 125.37 103.2 125.49 103.21 125.62 103.22 125.74 103.23 125.86 103.24 125.99 103.25 126.11 103.26 126.23 103.28 126.36 103.29 126.48 103.3 126.6 103.32 126.73 103.33 126.85 103.35 126.98 103.36 127.1 103.37 127.22 103.39 127.35 103.4 127.47 103.41 127.59 103.42 127.72 103.44 127.84 103.45 127.96 103.46 128.09 103.47 128.21 103.48 128.34 103.49 128.46 103.5 128.58 103.51 128.71 103.51 128.83 103.52 128.95 103.52 129.08 103.53 129.2 103.53 129.32 103.53 129.45 103.53 129.57 103.53 129.7 103.53 129.82 103.52 129.94 103.52 130.07 103.51 130.19 103.5 130.31 103.49 130.44 103.48 130.56 103.47 130.69 103.45 130.81 103.43 130.93 103.42 131.06 103.4 131.18 103.37 131.3 103.35 131.43 103.32 131.55 103.3 131.67 103.27 131.8 103.23 131.92 103.2 132.05 103.16 132.17 103.13 132.29 103.09 132.42 103.05 132.54 103 132.66 102.96 132.79 102.91 132.91 102.86 133.03 102.81 133.16 102.76 133.28 102.7 133.41 102.65 133.53 102.59 133.65 102.53 133.78 102.47 133.9 102.41 134.02 102.34 134.15 102.28 134.27 102.21 134.39 102.15 134.52 102.08 134.64 102.01 134.77 101.94 134.89 101.87 135.01 101.8 135.14 101.73 135.26 101.66 135.38 101.59 135.51 101.52 135.63 101.46 135.75 101.39 135.88 101.32 136 101.25 136.13 101.19 136.25 101.12 136.37 101.06 136.5 101 136.62 100.94 136.74 100.88 136.87 100.83 136.99 100.77 137.12 100.72 137.24 100.67 137.36 100.63 137.49 100.58 137.61 100.54 137.73 100.5 137.86 100.47 137.98 100.44 138.1 100.41 138.23 100.38 138.35 100.36 138.48 100.34 138.6 100.33 138.72 100.32 138.85 100.31 138.97 100.3 139.09 100.3 139.22 100.3 139.34 100.31 139.46 100.32 139.59 100.33 139.71 100.34 139.84 100.36 139.96 100.38 140.08 100.41 140.21 100.44 140.33 100.47 140.45 100.5 140.58 100.54 140.7 100.58 140.82 100.62 140.95 100.67 141.07 100.72 141.2 100.77 141.32 100.82 141.44 100.87 141.57 100.93 141.69 100.99 141.81 101.05 141.94 101.11 142.06 101.18 142.18 101.25 142.31 101.31 142.43 101.38 142.56 101.45 142.68 101.52 142.8 101.6 142.93 101.67 143.05 101.75 143.17 101.82 143.3 101.9 143.42 101.97 143.55 102.05 143.67 102.13 143.79 102.2 143.92 102.28 144.04 102.36 144.16 102.43 144.29 102.51 144.41 102.58 144.53 102.66 144.66 102.73 144.78 102.81 144.91 102.88 145.03 102.95 145.15 103.02 145.28 103.09 145.4 103.15" class="geometry color_omega" stroke="#00BFFF"/>
        <path fill="none" d="M21.74,121.95 L 21.87 121.95 21.99 121.95 22.12 121.95 22.24 121.95 22.36 121.95 22.49 121.95 22.61 121.95 22.73 121.95 22.86 121.95 22.98 121.95 23.11 121.95 23.23 121.95 23.35 121.95 23.48 121.95 23.6 121.95 23.72 121.95 23.85 121.95 23.97 121.96 24.09 121.96 24.22 121.96 24.34 121.96 24.47 121.96 24.59 121.96 24.71 121.96 24.84 121.96 24.96 121.97 25.08 121.97 25.21 121.97 25.33 121.97 25.45 121.97 25.58 121.97 25.7 121.97 25.83 121.98 25.95 121.98 26.07 121.98 26.2 121.98 26.32 121.98 26.44 121.98 26.57 121.98 26.69 121.98 26.81 121.99 26.94 121.99 27.06 121.99 27.19 121.99 27.31 121.99 27.43 121.99 27.56 121.99 27.68 121.98 27.8 121.98 27.93 121.98 28.05 121.98 28.18 121.97 28.3 121.97 28.42 121.97 28.55 121.96 28.67 121.95 28.79 121.95 28.92 121.94 29.04 121.93 29.16 121.92 29.29 121.91 29.41 121.9 29.54 121.88 29.66 121.87 29.78 121.85 29.91 121.83 30.03 121.81 30.15 121.79 30.28 121.77 30.4 121.75 30.52 121.73 30.65 121.7 30.77 121.68 30.9 121.65 31.02 121.63 31.14 121.61 31.27 121.58 31.39 121.56 31.51 121.54 31.64 121.52 31.76 121.5 31.88 121.48 32.01 121.46 32.13 121.44 32.26 121.43 32.38 121.41 32.5 121.4 32.63 121.39 32.75 121.38 32.87 121.37 33 121.36 33.12 121.36 33.24 121.35 33.37 121.34 33.49 121.34 33.62 121.34 33.74 121.33 33.86 121.33 33.99 121.33 34.11 121.33 34.23 121.33 34.36 121.33 34.48 121.33 34.61 121.33 34.73 121.33 34.85 121.33 34.98 121.33 35.1 121.33 35.22 121.33 35.35 121.33 35.47 121.33 35.59 121.33 35.72 121.33 35.84 121.33 35.97 121.33 36.09 121.33 36.21 121.33 36.34 121.33 36.46 121.33 36.58 121.33 36.71 121.33 36.83 121.33 36.95 121.32 37.08 121.32 37.2 121.32 37.33 121.32 37.45 121.32 37.57 121.31 37.7 121.31 37.82 121.31 37.94 121.3 38.07 121.3 38.19 121.29 38.31 121.29 38.44 121.28 38.56 121.27 38.69 121.27 38.81 121.26 38.93 121.25 39.06 121.24 39.18 121.23 39.3 121.22 39.43 121.21 39.55 121.2 39.67 121.19 39.8 121.18 39.92 121.16 40.05 121.15 40.17 121.13 40.29 121.12 40.42 121.1 40.54 121.08 40.66 121.06 40.79 121.04 40.91 121.02 41.04 121 41.16 120.98 41.28 120.96 41.41 120.93 41.53 120.91 41.65 120.88 41.78 120.86 41.9 120.83 42.02 120.8 42.15 120.78 42.27 120.75 42.4 120.72 42.52 120.69 42.64 120.65 42.77 120.62 42.89 120.59 43.01 120.56 43.14 120.53 43.26 120.49 43.38 120.46 43.51 120.43 43.63 120.4 43.76 120.37 43.88 120.33 44 120.3 44.13 120.27 44.25 120.24 44.37 120.21 44.5 120.19 44.62 120.16 44.74 120.13 44.87 120.11 44.99 120.08 45.12 120.06 45.24 120.04 45.36 120.02 45.49 120 45.61 119.98 45.73 119.96 45.86 119.95 45.98 119.93 46.11 119.92 46.23 119.91 46.35 119.9 46.48 119.89 46.6 119.88 46.72 119.87 46.85 119.87 46.97 119.86 47.09 119.86 47.22 119.86 47.34 119.86 47.47 119.85 47.59 119.86 47.71 119.86 47.84 119.86 47.96 119.86 48.08 119.86 48.21 119.87 48.33 119.87 48.45 119.88 48.58 119.89 48.7 119.89 48.83 119.9 48.95 119.91 49.07 119.91 49.2 119.92 49.32 119.93 49.44 119.94 49.57 119.95 49.69 119.96 49.81 119.97 49.94 119.98 50.06 119.99 50.19 120 50.31 120.01 50.43 120.02 50.56 120.03 50.68 120.04 50.8 120.05 50.93 120.06 51.05 120.07 51.17 120.08 51.3 120.09 51.42 120.1 51.55 120.12 51.67 120.13 51.79 120.14 51.92 120.15 52.04 120.16 52.16 120.16 52.29 120.17 52.41 120.18 52.54 120.19 52.66 120.2 52.78 120.21 52.91 120.22 53.03 120.22 53.15 120.23 53.28 120.24 53.4 120.24 53.52 120.25 53.65 120.25 53.77 120.26 53.9 120.26 54.02 120.26 54.14 120.27 54.27 120.27 54.39 120.27 54.51 120.27 54.64 120.27 54.76 120.27 54.88 120.27 55.01 120.26 55.13 120.26 55.26 120.26 55.38 120.25 55.5 120.24 55.63 120.24 55.75 120.23 55.87 120.22 56 120.21 56.12 120.2 56.24 120.18 56.37 120.17 56.49 120.16 56.62 120.14 56.74 120.13 56.86 120.11 56.99 120.09 57.11 120.08 57.23 120.06 57.36 120.04 57.48 120.02 57.6 120 57.73 119.98 57.85 119.96 57.98 119.93 58.1 119.91 58.22 119.89 58.35 119.87 58.47 119.84 58.59 119.82 58.72 119.8 58.84 119.77 58.97 119.75 59.09 119.73 59.21 119.71 59.34 119.68 59.46 119.66 59.58 119.64 59.71 119.62 59.83 119.59 59.95 119.57 60.08 119.55 60.2 119.53 60.33 119.51 60.45 119.49 60.57 119.47 60.7 119.45 60.82 119.44 60.94 119.42 61.07 119.4 61.19 119.39 61.31 119.37 61.44 119.35 61.56 119.34 61.69 119.32 61.81 119.31 61.93 119.3 62.06 119.28 62.18 119.27 62.3 119.26 62.43 119.25 62.55 119.24 62.67 119.23 62.8 119.22 62.92 119.21 63.05 119.2 63.17 119.19 63.29 119.18 63.42 119.17 63.54 119.16 63.66 119.15 63.79 119.15 63.91 119.14 64.04 119.13 64.16 119.12 64.28 119.12 64.41 119.11 64.53 119.1 64.65 119.1 64.78 119.09 64.9 119.08 65.02 119.08 65.15 119.07 65.27 119.06 65.4 119.06 65.52 119.05 65.64 119.04 65.77 119.03 65.89 119.03 66.01 119.02 66.14 119.01 66.26 119 66.38 118.99 66.51 118.98 66.63 118.97 66.76 118.96 66.88 118.95 67 118.93 67.13 118.92 67.25 118.9 67.37 118.89 67.5 118.87 67.62 118.86 67.74 118.84 67.87 118.82 67.99 118.8 68.12 118.78 68.24 118.76 68.36 118.74 68.49 118.71 68.61 118.69 68.73 118.66 68.86 118.64 68.98 118.61 69.1 118.58 69.23 118.55 69.35 118.52 69.48 118.49 69.6 118.46 69.72 118.42 69.85 118.39 69.97 118.36 70.09 118.32 70.22 118.28 70.34 118.25 70.47 118.21 70.59 118.17 70.71 118.14 70.84 118.1 70.96 118.06 71.08 118.02 71.21 117.98 71.33 117.94 71.45 117.9 71.58 117.87 71.7 117.83 71.83 117.79 71.95 117.75 72.07 117.71 72.2 117.68 72.32 117.64 72.44 117.6 72.57 117.57 72.69 117.53 72.81 117.5 72.94 117.46 73.06 117.43 73.19 117.4 73.31 117.37 73.43 117.34 73.56 117.31 73.68 117.28 73.8 117.25 73.93 117.22 74.05 117.2 74.17 117.17 74.3 117.15 74.42 117.12 74.55 117.1 74.67 117.08 74.79 117.06 74.92 117.03 75.04 117.01 75.16 117 75.29 116.98 75.41 116.96 75.53 116.94 75.66 116.93 75.78 116.91 75.91 116.9 76.03 116.88 76.15 116.87 76.28 116.86 76.4 116.85 76.52 116.84 76.65 116.83 76.77 116.82 76.9 116.81 77.02 116.8 77.14 116.79 77.27 116.78 77.39 116.78 77.51 116.77 77.64 116.76 77.76 116.76 77.88 116.75 78.01 116.75 78.13 116.74 78.26 116.74 78.38 116.74 78.5 116.73 78.63 116.73 78.75 116.73 78.87 116.73 79 116.73 79.12 116.72 79.24 116.72 79.37 116.72 79.49 116.72 79.62 116.72 79.74 116.72 79.86 116.72 79.99 116.72 80.11 116.72 80.23 116.72 80.36 116.72 80.48 116.72 80.6 116.72 80.73 116.72 80.85 116.72 80.98 116.72 81.1 116.72 81.22 116.72 81.35 116.72 81.47 116.72 81.59 116.72 81.72 116.72 81.84 116.71 81.96 116.71 82.09 116.71 82.21 116.71 82.34 116.7 82.46 116.7 82.58 116.69 82.71 116.69 82.83 116.68 82.95 116.68 83.08 116.67 83.2 116.66 83.33 116.65 83.45 116.64 83.57 116.63 83.7 116.62 83.82 116.61 83.94 116.6 84.07 116.59 84.19 116.58 84.31 116.57 84.44 116.55 84.56 116.54 84.69 116.53 84.81 116.51 84.93 116.5 85.06 116.48 85.18 116.46 85.3 116.45 85.43 116.43 85.55 116.41 85.67 116.4 85.8 116.38 85.92 116.36 86.05 116.34 86.17 116.33 86.29 116.31 86.42 116.29 86.54 116.27 86.66 116.25 86.79 116.23 86.91 116.22 87.03 116.2 87.16 116.18 87.28 116.16 87.41 116.14 87.53 116.12 87.65 116.1 87.78 116.09 87.9 116.07 88.02 116.05 88.15 116.03 88.27 116.01 88.4 116 88.52 115.98 88.64 115.96 88.77 115.94 88.89 115.93 89.01 115.91 89.14 115.9 89.26 115.88 89.38 115.86 89.51 115.85 89.63 115.83 89.76 115.82 89.88 115.8 90 115.79 90.13 115.77 90.25 115.76 90.37 115.74 90.5 115.73 90.62 115.72 90.74 115.7 90.87 115.69 90.99 115.68 91.12 115.67 91.24 115.65 91.36 115.64 91.49 115.63 91.61 115.62 91.73 115.61 91.86 115.6 91.98 115.59 92.1 115.58 92.23 115.57 92.35 115.56 92.48 115.55 92.6 115.54 92.72 115.53 92.85 115.52 92.97 115.51 93.09 115.5 93.22 115.49 93.34 115.48 93.46 115.48 93.59 115.47 93.71 115.46 93.84 115.45 93.96 115.44 94.08 115.44 94.21 115.43 94.33 115.42 94.45 115.42 94.58 115.41 94.7 115.4 94.83 115.39 94.95 115.39 95.07 115.38 95.2 115.37 95.32 115.37 95.44 115.36 95.57 115.35 95.69 115.35 95.81 115.34 95.94 115.33 96.06 115.33 96.19 115.32 96.31 115.31 96.43 115.31 96.56 115.3 96.68 115.29 96.8 115.29 96.93 115.28 97.05 115.27 97.17 115.26 97.3 115.25 97.42 115.25 97.55 115.24 97.67 115.23 97.79 115.22 97.92 115.21 98.04 115.21 98.16 115.2 98.29 115.19 98.41 115.18 98.53 115.17 98.66 115.16 98.78 115.15 98.91 115.14 99.03 115.13 99.15 115.12 99.28 115.12 99.4 115.11 99.52 115.1 99.65 115.09 99.77 115.08 99.89 115.07 100.02 115.06 100.14 115.05 100.27 115.04 100.39 115.03 100.51 115.02 100.64 115.01 100.76 115 100.88 114.99 101.01 114.98 101.13 114.97 101.26 114.96 101.38 114.95 101.5 114.94 101.63 114.93 101.75 114.92 101.87 114.91 102 114.91 102.12 114.9 102.24 114.89 102.37 114.88 102.49 114.87 102.62 114.86 102.74 114.85 102.86 114.84 102.99 114.83 103.11 114.83 103.23 114.82 103.36 114.81 103.48 114.8 103.6 114.79 103.73 114.78 103.85 114.77 103.98 114.77 104.1 114.76 104.22 114.75 104.35 114.74 104.47 114.73 104.59 114.72 104.72 114.72 104.84 114.71 104.96 114.7 105.09 114.69 105.21 114.68 105.34 114.67 105.46 114.66 105.58 114.65 105.71 114.64 105.83 114.63 105.95 114.62 106.08 114.61 106.2 114.6 106.33 114.59 106.45 114.58 106.57 114.57 106.7 114.56 106.82 114.55 106.94 114.53 107.07 114.52 107.19 114.51 107.31 114.49 107.44 114.48 107.56 114.46 107.69 114.45 107.81 114.43 107.93 114.42 108.06 114.4 108.18 114.38 108.3 114.36 108.43 114.34 108.55 114.33 108.67 114.31 108.8 114.28 108.92 114.26 109.05 114.24 109.17 114.22 109.29 114.2 109.42 114.17 109.54 114.15 109.66 114.12 109.79 114.1 109.91 114.07 110.03 114.04 110.16 114.02 110.28 113.99 110.41 113.96 110.53 113.93 110.65 113.9 110.78 113.87 110.9 113.84 111.02 113.81 111.15 113.78 111.27 113.75 111.39 113.72 111.52 113.69 111.64 113.66 111.77 113.63 111.89 113.6 112.01 113.57 112.14 113.54 112.26 113.51 112.38 113.48 112.51 113.45 112.63 113.42 112.76 113.39 112.88 113.36 113 113.33 113.13 113.3 113.25 113.27 113.37 113.24 113.5 113.22 113.62 113.19 113.74 113.16 113.87 113.14 113.99 113.11 114.12 113.09 114.24 113.06 114.36 113.04 114.49 113.02 114.61 112.99 114.73 112.97 114.86 112.95 114.98 112.93 115.1 112.91 115.23 112.89 115.35 112.88 115.48 112.86 115.6 112.84 115.72 112.83 115.85 112.81 115.97 112.8 116.09 112.79 116.22 112.77 116.34 112.76 116.46 112.75 116.59 112.74 116.71 112.73 116.84 112.73 116.96 112.72 117.08 112.71 117.21 112.71 117.33 112.7 117.45 112.7 117.58 112.7 117.7 112.69 117.82 112.69 117.95 112.69 118.07 112.69 118.2 112.7 118.32 112.7 118.44 112.7 118.57 112.71 118.69 112.71 118.81 112.72 118.94 112.72 119.06 112.73 119.19 112.74 119.31 112.75 119.43 112.76 119.56 112.77 119.68 112.78 119.8 112.79 119.93 112.8 120.05 112.81 120.17 112.82 120.3 112.84 120.42 112.85 120.55 112.87 120.67 112.88 120.79 112.9 120.92 112.91 121.04 112.93 121.16 112.94 121.29 112.96 121.41 112.97 121.53 112.99 121.66 113 121.78 113.02 121.91 113.03 122.03 113.05 122.15 113.06 122.28 113.08 122.4 113.09 122.52 113.11 122.65 113.12 122.77 113.13 122.89 113.14 123.02 113.15 123.14 113.16 123.27 113.17 123.39 113.18 123.51 113.19 123.64 113.2 123.76 113.21 123.88 113.21 124.01 113.22 124.13 113.22 124.25 113.22 124.38 113.22 124.5 113.23 124.63 113.23 124.75 113.22 124.87 113.22 125 113.22 125.12 113.22 125.24 113.21 125.37 113.2 125.49 113.2 125.62 113.19 125.74 113.18 125.86 113.17 125.99 113.16 126.11 113.15 126.23 113.14 126.36 113.13 126.48 113.11 126.6 113.1 126.73 113.08 126.85 113.07 126.98 113.05 127.1 113.03 127.22 113.02 127.35 113 127.47 112.98 127.59 112.96 127.72 112.94 127.84 112.92 127.96 112.91 128.09 112.89 128.21 112.87 128.34 112.85 128.46 112.82 128.58 112.8 128.71 112.78 128.83 112.76 128.95 112.74 129.08 112.72 129.2 112.7 129.32 112.68 129.45 112.66 129.57 112.64 129.7 112.62 129.82 112.6 129.94 112.58 130.07 112.56 130.19 112.54 130.31 112.52 130.44 112.5 130.56 112.48 130.69 112.47 130.81 112.45 130.93 112.43 131.06 112.41 131.18 112.4 131.3 112.38 131.43 112.37 131.55 112.35 131.67 112.34 131.8 112.32 131.92 112.31 132.05 112.3 132.17 112.28 132.29 112.27 132.42 112.26 132.54 112.25 132.66 112.24 132.79 112.23 132.91 112.22 133.03 112.21 133.16 112.2 133.28 112.19 133.41 112.18 133.53 112.18 133.65 112.17 133.78 112.16 133.9 112.16 134.02 112.15 134.15 112.15 134.27 112.14 134.39 112.14 134.52 112.13 134.64 112.13 134.77 112.12 134.89 112.12 135.01 112.12 135.14 112.11 135.26 112.11 135.38 112.11 135.51 112.1 135.63 112.1 135.75 112.1 135.88 112.09 136 112.09 136.13 112.08 136.25 112.08 136.37 112.08 136.5 112.07 136.62 112.07 136.74 112.06 136.87 112.05 136.99 112.05 137.12 112.04 137.24 112.03 137.36 112.03 137.49 112.02 137.61 112.01 137.73 112 137.86 111.99 137.98 111.98 138.1 111.97 138.23 111.95 138.35 111.94 138.48 111.93 138.6 111.92 138.72 111.9 138.85 111.89 138.97 111.87 139.09 111.85 139.22 111.84 139.34 111.82 139.46 111.8 139.59 111.79 139.71 111.77 139.84 111.75 139.96 111.73 140.08 111.71 140.21 111.69 140.33 111.67 140.45 111.65 140.58 111.62 140.7 111.6 140.82 111.58 140.95 111.56 141.07 111.54 141.2 111.51 141.32 111.49 141.44 111.47 141.57 111.45 141.69 111.42 141.81 111.4 141.94 111.38 142.06 111.36 142.18 111.34 142.31 111.31 142.43 111.29 142.56 111.27 142.68 111.25 142.8 111.23 142.93 111.21 143.05 111.19 143.17 111.17 143.3 111.15 143.42 111.14 143.55 111.12 143.67 111.1 143.79 111.09 143.92 111.07 144.04 111.06 144.16 111.04 144.29 111.03 144.41 111.02 144.53 111.01 144.66 111 144.78 110.99 144.91 110.98 145.03 110.97 145.15 110.97 145.28 110.96 145.4 110.96" class="geometry color_k" stroke="#D4CA3A"/>
      </g>
    </g>
  </g>
  <g class="guide ylabels" font-size="2.82" font-family="'PT Sans Caption','Helvetica Neue','Helvetica',sans-serif" fill="#6C606B" id="fig-f7dc5130f90b45e58cc39b0524fdd98c-element-23">
    <text x="18.75" y="131.11" text-anchor="end" dy="0.35em">-0.5</text>
    <text x="18.75" y="121.95" text-anchor="end" dy="0.35em">0.0</text>
    <text x="18.75" y="112.78" text-anchor="end" dy="0.35em">0.5</text>
    <text x="18.75" y="103.61" text-anchor="end" dy="0.35em">1.0</text>
    <text x="18.75" y="94.44" text-anchor="end" dy="0.35em">1.5</text>
  </g>
  <g font-size="3.88" font-family="'PT Sans','Helvetica Neue','Helvetica',sans-serif" fill="#564A55" stroke="#000000" stroke-opacity="0.000" id="fig-f7dc5130f90b45e58cc39b0524fdd98c-element-24">
    <text x="8.81" y="110.78" text-anchor="middle" dy="0.35em" transform="rotate(-90, 8.81, 112.78)">Total Effect</text>
  </g>
  <g class="guide colorkey" id="fig-f7dc5130f90b45e58cc39b0524fdd98c-element-25">
    <g class="color_k" id="fig-f7dc5130f90b45e58cc39b0524fdd98c-element-26">
      <g fill="#4C404B" font-size="2.82" font-family="'PT Sans','Helvetica Neue','Helvetica',sans-serif" id="fig-f7dc5130f90b45e58cc39b0524fdd98c-element-27">
        <text x="35.52" y="88.63" dy="0.35em">k</text>
      </g>
      <g fill="#D4CA3A" stroke="#000000" stroke-opacity="0.000" id="fig-f7dc5130f90b45e58cc39b0524fdd98c-element-28">
        <rect x="32.71" y="87.73" width="1.81" height="1.81"/>
      </g>
    </g>
    <g class="color_omega" id="fig-f7dc5130f90b45e58cc39b0524fdd98c-element-29">
      <g fill="#4C404B" font-size="2.82" font-family="'PT Sans','Helvetica Neue','Helvetica',sans-serif" id="fig-f7dc5130f90b45e58cc39b0524fdd98c-element-30">
        <text x="23.56" y="88.63" dy="0.35em">omega</text>
      </g>
      <g fill="#00BFFF" stroke="#000000" stroke-opacity="0.000" id="fig-f7dc5130f90b45e58cc39b0524fdd98c-element-31">
        <rect x="20.74" y="87.73" width="1.81" height="1.81"/>
      </g>
    </g>
    <g fill="#362A35" font-size="3.88" font-family="'PT Sans','Helvetica Neue','Helvetica',sans-serif" stroke="#000000" stroke-opacity="0.000" id="fig-f7dc5130f90b45e58cc39b0524fdd98c-element-32">
      <text x="20.74" y="84.81">parameter</text>
    </g>
  </g>
</g>
<g class="plotroot xscalable yscalable" id="fig-f7dc5130f90b45e58cc39b0524fdd98c-element-33">
  <g font-size="3.88" font-family="'PT Sans','Helvetica Neue','Helvetica',sans-serif" fill="#564A55" stroke="#000000" stroke-opacity="0.000" id="fig-f7dc5130f90b45e58cc39b0524fdd98c-element-34">
    <text x="82.67" y="64.59" text-anchor="middle" dy="0.6em">x</text>
  </g>
  <g class="guide xlabels" font-size="2.82" font-family="'PT Sans Caption','Helvetica Neue','Helvetica',sans-serif" fill="#6C606B" id="fig-f7dc5130f90b45e58cc39b0524fdd98c-element-35">
    <text x="19.94" y="57.91" text-anchor="middle" dy="0.6em">0</text>
    <text x="82.67" y="57.91" text-anchor="middle" dy="0.6em">50</text>
    <text x="145.4" y="57.91" text-anchor="middle" dy="0.6em">100</text>
  </g>
  <g clip-path="url(#fig-f7dc5130f90b45e58cc39b0524fdd98c-element-37)" id="fig-f7dc5130f90b45e58cc39b0524fdd98c-element-36">
    <g pointer-events="visible" opacity="1" fill="#000000" fill-opacity="0.000" stroke="#000000" stroke-opacity="0.000" class="guide background" id="fig-f7dc5130f90b45e58cc39b0524fdd98c-element-38">
      <rect x="17.94" y="5" width="129.46" height="51.91"/>
    </g>
    <g class="guide ygridlines xfixed" stroke-dasharray="0.5,0.5" stroke-width="0.2" stroke="#D0D0E0" id="fig-f7dc5130f90b45e58cc39b0524fdd98c-element-39">
      <path fill="none" d="M17.94,54.91 L 147.4 54.91"/>
      <path fill="none" d="M17.94,42.94 L 147.4 42.94"/>
      <path fill="none" d="M17.94,30.96 L 147.4 30.96"/>
      <path fill="none" d="M17.94,18.98 L 147.4 18.98"/>
      <path fill="none" d="M17.94,7 L 147.4 7"/>
    </g>
    <g class="guide xgridlines yfixed" stroke-dasharray="0.5,0.5" stroke-width="0.2" stroke="#D0D0E0" id="fig-f7dc5130f90b45e58cc39b0524fdd98c-element-40">
      <path fill="none" d="M19.94,5 L 19.94 56.91"/>
      <path fill="none" d="M82.67,5 L 82.67 56.91"/>
      <path fill="none" d="M145.4,5 L 145.4 56.91"/>
    </g>
    <g class="plotpanel" id="fig-f7dc5130f90b45e58cc39b0524fdd98c-element-41">
      <g stroke-width="0.3" fill="#000000" fill-opacity="0.000" class="geometry" stroke="#00BFFF" id="fig-f7dc5130f90b45e58cc39b0524fdd98c-element-42">
        <path fill="none" d="M19.94,7 L 20.06 7.01 20.19 7.04 20.32 7.1 20.44 7.17 20.57 7.26 20.69 7.38 20.82 7.51 20.94 7.67 21.07 7.84 21.19 8.04 21.32 8.25 21.44 8.48 21.57 8.72 21.7 8.99 21.82 9.27 21.95 9.57 22.07 9.88 22.2 10.21 22.32 10.56 22.45 10.92 22.57 11.3 22.7 11.68 22.82 12.09 22.95 12.5 23.08 12.93 23.2 13.37 23.33 13.82 23.45 14.28 23.58 14.75 23.7 15.23 23.83 15.73 23.95 16.23 24.08 16.73 24.2 17.25 24.33 17.77 24.46 18.3 24.58 18.84 24.71 19.38 24.83 19.92 24.96 20.47 25.08 21.03 25.21 21.59 25.33 22.15 25.46 22.71 25.58 23.27 25.71 23.84 25.84 24.41 25.96 24.97 26.09 25.54 26.21 26.11 26.34 26.67 26.46 27.23 26.59 27.79 26.71 28.35 26.84 28.91 26.96 29.46 27.09 30 27.22 30.55 27.34 31.08 27.47 31.62 27.59 32.14 27.72 32.66 27.84 33.17 27.97 33.68 28.09 34.18 28.22 34.67 28.35 35.15 28.47 35.62 28.6 36.09 28.72 36.54 28.85 36.99 28.97 37.43 29.1 37.85 29.22 38.27 29.35 38.67 29.47 39.07 29.6 39.45 29.73 39.82 29.85 40.18 29.98 40.53 30.1 40.86 30.23 41.19 30.35 41.5 30.48 41.8 30.6 42.08 30.73 42.36 30.85 42.62 30.98 42.87 31.11 43.1 31.23 43.32 31.36 43.53 31.48 43.72 31.61 43.9 31.73 44.07 31.86 44.23 31.98 44.37 32.11 44.49 32.23 44.61 32.36 44.71 32.49 44.8 32.61 44.87 32.74 44.93 32.86 44.98 32.99 45.01 33.11 45.04 33.24 45.04 33.36 45.04 33.49 45.02 33.61 45 33.74 44.95 33.87 44.9 33.99 44.84 34.12 44.76 34.24 44.67 34.37 44.57 34.49 44.46 34.62 44.34 34.74 44.21 34.87 44.06 34.99 43.91 35.12 43.74 35.25 43.57 35.37 43.39 35.5 43.2 35.62 42.99 35.75 42.78 35.87 42.56 36 42.34 36.12 42.1 36.25 41.86 36.37 41.61 36.5 41.35 36.63 41.09 36.75 40.82 36.88 40.54 37 40.26 37.13 39.97 37.25 39.68 37.38 39.38 37.5 39.08 37.63 38.77 37.75 38.46 37.88 38.15 38.01 37.83 38.13 37.51 38.26 37.19 38.38 36.86 38.51 36.53 38.63 36.21 38.76 35.87 38.88 35.54 39.01 35.21 39.13 34.88 39.26 34.54 39.39 34.21 39.51 33.88 39.64 33.55 39.76 33.21 39.89 32.88 40.01 32.56 40.14 32.23 40.26 31.91 40.39 31.58 40.51 31.26 40.64 30.95 40.77 30.63 40.89 30.32 41.02 30.02 41.14 29.72 41.27 29.42 41.39 29.12 41.52 28.83 41.64 28.55 41.77 28.27 41.89 28 42.02 27.73 42.15 27.46 42.27 27.21 42.4 26.95 42.52 26.71 42.65 26.47 42.77 26.24 42.9 26.01 43.02 25.79 43.15 25.58 43.27 25.37 43.4 25.17 43.53 24.98 43.65 24.8 43.78 24.62 43.9 24.45 44.03 24.29 44.15 24.13 44.28 23.98 44.4 23.85 44.53 23.71 44.65 23.59 44.78 23.47 44.91 23.37 45.03 23.27 45.16 23.17 45.28 23.09 45.41 23.01 45.53 22.94 45.66 22.88 45.78 22.83 45.91 22.79 46.04 22.75 46.16 22.72 46.29 22.7 46.41 22.68 46.54 22.67 46.66 22.68 46.79 22.68 46.91 22.7 47.04 22.72 47.16 22.75 47.29 22.79 47.42 22.83 47.54 22.88 47.67 22.94 47.79 23 47.92 23.07 48.04 23.15 48.17 23.23 48.29 23.32 48.42 23.42 48.54 23.52 48.67 23.63 48.8 23.74 48.92 23.86 49.05 23.98 49.17 24.11 49.3 24.24 49.42 24.38 49.55 24.52 49.67 24.66 49.8 24.81 49.92 24.97 50.05 25.13 50.18 25.29 50.3 25.45 50.43 25.62 50.55 25.79 50.68 25.97 50.8 26.14 50.93 26.32 51.05 26.51 51.18 26.69 51.3 26.88 51.43 27.07 51.56 27.25 51.68 27.45 51.81 27.64 51.93 27.83 52.06 28.03 52.18 28.22 52.31 28.42 52.43 28.61 52.56 28.81 52.68 29 52.81 29.2 52.94 29.4 53.06 29.59 53.19 29.78 53.31 29.98 53.44 30.17 53.56 30.36 53.69 30.55 53.81 30.74 53.94 30.93 54.06 31.11 54.19 31.29 54.32 31.47 54.44 31.65 54.57 31.83 54.69 32 54.82 32.17 54.94 32.34 55.07 32.5 55.19 32.67 55.32 32.82 55.44 32.98 55.57 33.13 55.7 33.28 55.82 33.43 55.95 33.57 56.07 33.71 56.2 33.84 56.32 33.97 56.45 34.1 56.57 34.22 56.7 34.34 56.82 34.45 56.95 34.56 57.08 34.66 57.2 34.76 57.33 34.86 57.45 34.95 57.58 35.04 57.7 35.12 57.83 35.2 57.95 35.27 58.08 35.34 58.2 35.41 58.33 35.47 58.46 35.52 58.58 35.57 58.71 35.62 58.83 35.66 58.96 35.7 59.08 35.73 59.21 35.76 59.33 35.78 59.46 35.8 59.58 35.81 59.71 35.82 59.84 35.83 59.96 35.83 60.09 35.82 60.21 35.82 60.34 35.8 60.46 35.79 60.59 35.77 60.71 35.74 60.84 35.71 60.96 35.68 61.09 35.64 61.22 35.6 61.34 35.56 61.47 35.51 61.59 35.46 61.72 35.4 61.84 35.34 61.97 35.28 62.09 35.22 62.22 35.15 62.34 35.08 62.47 35 62.6 34.92 62.72 34.84 62.85 34.76 62.97 34.68 63.1 34.59 63.22 34.5 63.35 34.41 63.47 34.31 63.6 34.21 63.72 34.12 63.85 34.02 63.98 33.91 64.1 33.81 64.23 33.7 64.35 33.6 64.48 33.49 64.6 33.38 64.73 33.27 64.85 33.16 64.98 33.05 65.11 32.93 65.23 32.82 65.36 32.7 65.48 32.59 65.61 32.48 65.73 32.36 65.86 32.24 65.98 32.13 66.11 32.01 66.23 31.9 66.36 31.78 66.49 31.67 66.61 31.56 66.74 31.44 66.86 31.33 66.99 31.22 67.11 31.11 67.24 31 67.36 30.89 67.49 30.78 67.61 30.68 67.74 30.57 67.87 30.47 67.99 30.36 68.12 30.26 68.24 30.17 68.37 30.07 68.49 29.97 68.62 29.88 68.74 29.79 68.87 29.7 68.99 29.61 69.12 29.52 69.25 29.44 69.37 29.36 69.5 29.28 69.62 29.2 69.75 29.13 69.87 29.05 70 28.99 70.12 28.92 70.25 28.85 70.37 28.79 70.5 28.73 70.63 28.67 70.75 28.62 70.88 28.57 71 28.52 71.13 28.47 71.25 28.43 71.38 28.39 71.5 28.35 71.63 28.31 71.75 28.28 71.88 28.25 72.01 28.22 72.13 28.2 72.26 28.17 72.38 28.15 72.51 28.14 72.63 28.12 72.76 28.11 72.88 28.1 73.01 28.1 73.13 28.09 73.26 28.09 73.39 28.1 73.51 28.1 73.64 28.11 73.76 28.12 73.89 28.13 74.01 28.14 74.14 28.16 74.26 28.18 74.39 28.2 74.51 28.22 74.64 28.25 74.77 28.28 74.89 28.31 75.02 28.34 75.14 28.37 75.27 28.41 75.39 28.45 75.52 28.49 75.64 28.53 75.77 28.57 75.89 28.62 76.02 28.66 76.15 28.71 76.27 28.76 76.4 28.81 76.52 28.86 76.65 28.92 76.77 28.97 76.9 29.03 77.02 29.09 77.15 29.15 77.27 29.21 77.4 29.27 77.53 29.33 77.65 29.39 77.78 29.46 77.9 29.52 78.03 29.58 78.15 29.65 78.28 29.72 78.4 29.78 78.53 29.85 78.65 29.92 78.78 29.98 78.91 30.05 79.03 30.12 79.16 30.19 79.28 30.25 79.41 30.32 79.53 30.39 79.66 30.46 79.78 30.52 79.91 30.59 80.03 30.66 80.16 30.72 80.29 30.79 80.41 30.86 80.54 30.92 80.66 30.98 80.79 31.05 80.91 31.11 81.04 31.17 81.16 31.23 81.29 31.29 81.41 31.35 81.54 31.41 81.67 31.47 81.79 31.53 81.92 31.58 82.04 31.63 82.17 31.69 82.29 31.74 82.42 31.79 82.54 31.84 82.67 31.89 82.8 31.94 82.92 31.98 83.05 32.02 83.17 32.07 83.3 32.11 83.42 32.15 83.55 32.19 83.67 32.22 83.8 32.26 83.92 32.29 84.05 32.33 84.18 32.36 84.3 32.39 84.43 32.41 84.55 32.44 84.68 32.46 84.8 32.49 84.93 32.51 85.05 32.53 85.18 32.55 85.3 32.56 85.43 32.58 85.56 32.59 85.68 32.6 85.81 32.61 85.93 32.62 86.06 32.63 86.18 32.63 86.31 32.64 86.43 32.64 86.56 32.64 86.68 32.64 86.81 32.64 86.94 32.63 87.06 32.63 87.19 32.62 87.31 32.62 87.44 32.61 87.56 32.59 87.69 32.58 87.81 32.57 87.94 32.55 88.06 32.54 88.19 32.52 88.32 32.5 88.44 32.48 88.57 32.46 88.69 32.44 88.82 32.42 88.94 32.39 89.07 32.37 89.19 32.34 89.32 32.31 89.44 32.28 89.57 32.26 89.7 32.23 89.82 32.19 89.95 32.16 90.07 32.13 90.2 32.1 90.32 32.06 90.45 32.03 90.57 31.99 90.7 31.96 90.82 31.92 90.95 31.89 91.08 31.85 91.2 31.81 91.33 31.77 91.45 31.73 91.58 31.7 91.7 31.66 91.83 31.62 91.95 31.58 92.08 31.54 92.2 31.5 92.33 31.46 92.46 31.42 92.58 31.38 92.71 31.34 92.83 31.3 92.96 31.26 93.08 31.22 93.21 31.18 93.33 31.14 93.46 31.1 93.58 31.06 93.71 31.03 93.84 30.99 93.96 30.95 94.09 30.91 94.21 30.88 94.34 30.84 94.46 30.8 94.59 30.77 94.71 30.73 94.84 30.7 94.96 30.66 95.09 30.63 95.22 30.6 95.34 30.57 95.47 30.53 95.59 30.5 95.72 30.47 95.84 30.44 95.97 30.42 96.09 30.39 96.22 30.36 96.34 30.34 96.47 30.31 96.6 30.29 96.72 30.26 96.85 30.24 96.97 30.22 97.1 30.2 97.22 30.18 97.35 30.16 97.47 30.14 97.6 30.12 97.72 30.1 97.85 30.09 97.98 30.07 98.1 30.06 98.23 30.05 98.35 30.04 98.48 30.03 98.6 30.02 98.73 30.01 98.85 30 98.98 29.99 99.1 29.98 99.23 29.98 99.36 29.98 99.48 29.97 99.61 29.97 99.73 29.97 99.86 29.97 99.98 29.97 100.11 29.97 100.23 29.97 100.36 29.97 100.49 29.98 100.61 29.98 100.74 29.99 100.86 29.99 100.99 30 101.11 30.01 101.24 30.02 101.36 30.03 101.49 30.04 101.61 30.05 101.74 30.06 101.87 30.07 101.99 30.08 102.12 30.1 102.24 30.11 102.37 30.13 102.49 30.14 102.62 30.16 102.74 30.17 102.87 30.19 102.99 30.21 103.12 30.23 103.25 30.24 103.37 30.26 103.5 30.28 103.62 30.3 103.75 30.32 103.87 30.34 104 30.36 104.12 30.39 104.25 30.41 104.37 30.43 104.5 30.45 104.63 30.47 104.75 30.5 104.88 30.52 105 30.54 105.13 30.56 105.25 30.59 105.38 30.61 105.5 30.63 105.63 30.66 105.75 30.68 105.88 30.7 106.01 30.73 106.13 30.75 106.26 30.77 106.38 30.8 106.51 30.82 106.63 30.84 106.76 30.87 106.88 30.89 107.01 30.91 107.13 30.94 107.26 30.96 107.39 30.98 107.51 31 107.64 31.02 107.76 31.04 107.89 31.07 108.01 31.09 108.14 31.11 108.26 31.13 108.39 31.15 108.51 31.17 108.64 31.18 108.77 31.2 108.89 31.22 109.02 31.24 109.14 31.26 109.27 31.27 109.39 31.29 109.52 31.3 109.64 31.32 109.77 31.34 109.89 31.35 110.02 31.36 110.15 31.38 110.27 31.39 110.4 31.4 110.52 31.41 110.65 31.43 110.77 31.44 110.9 31.45 111.02 31.46 111.15 31.47 111.27 31.48 111.4 31.48 111.53 31.49 111.65 31.5 111.78 31.5 111.9 31.51 112.03 31.52 112.15 31.52 112.28 31.52 112.4 31.53 112.53 31.53 112.65 31.53 112.78 31.54 112.91 31.54 113.03 31.54 113.16 31.54 113.28 31.54 113.41 31.54 113.53 31.54 113.66 31.54 113.78 31.53 113.91 31.53 114.03 31.53 114.16 31.53 114.29 31.52 114.41 31.52 114.54 31.51 114.66 31.51 114.79 31.5 114.91 31.49 115.04 31.49 115.16 31.48 115.29 31.47 115.41 31.47 115.54 31.46 115.67 31.45 115.79 31.44 115.92 31.43 116.04 31.42 116.17 31.41 116.29 31.4 116.42 31.39 116.54 31.38 116.67 31.37 116.79 31.36 116.92 31.34 117.05 31.33 117.17 31.32 117.3 31.31 117.42 31.3 117.55 31.28 117.67 31.27 117.8 31.26 117.92 31.24 118.05 31.23 118.17 31.22 118.3 31.2 118.43 31.19 118.55 31.18 118.68 31.16 118.8 31.15 118.93 31.14 119.05 31.12 119.18 31.11 119.3 31.1 119.43 31.08 119.56 31.07 119.68 31.05 119.81 31.04 119.93 31.03 120.06 31.01 120.18 31 120.31 30.99 120.43 30.97 120.56 30.96 120.68 30.95 120.81 30.93 120.94 30.92 121.06 30.91 121.19 30.9 121.31 30.88 121.44 30.87 121.56 30.86 121.69 30.85 121.81 30.84 121.94 30.83 122.06 30.82 122.19 30.8 122.32 30.79 122.44 30.78 122.57 30.77 122.69 30.76 122.82 30.76 122.94 30.75 123.07 30.74 123.19 30.73 123.32 30.72 123.44 30.71 123.57 30.7 123.7 30.7 123.82 30.69 123.95 30.68 124.07 30.68 124.2 30.67 124.32 30.66 124.45 30.66 124.57 30.65 124.7 30.65 124.82 30.64 124.95 30.64 125.08 30.64 125.2 30.63 125.33 30.63 125.45 30.63 125.58 30.62 125.7 30.62 125.83 30.62 125.95 30.62 126.08 30.62 126.2 30.62 126.33 30.62 126.46 30.62 126.58 30.62 126.71 30.62 126.83 30.62 126.96 30.62 127.08 30.62 127.21 30.62 127.33 30.62 127.46 30.62 127.58 30.63 127.71 30.63 127.84 30.63 127.96 30.63 128.09 30.64 128.21 30.64 128.34 30.64 128.46 30.65 128.59 30.65 128.71 30.66 128.84 30.66 128.96 30.67 129.09 30.67 129.22 30.68 129.34 30.68 129.47 30.69 129.59 30.7 129.72 30.7 129.84 30.71 129.97 30.71 130.09 30.72 130.22 30.73 130.34 30.74 130.47 30.74 130.6 30.75 130.72 30.76 130.85 30.76 130.97 30.77 131.1 30.78 131.22 30.79 131.35 30.79 131.47 30.8 131.6 30.81 131.72 30.82 131.85 30.83 131.98 30.83 132.1 30.84 132.23 30.85 132.35 30.86 132.48 30.87 132.6 30.87 132.73 30.88 132.85 30.89 132.98 30.9 133.1 30.91 133.23 30.92 133.36 30.92 133.48 30.93 133.61 30.94 133.73 30.95 133.86 30.95 133.98 30.96 134.11 30.97 134.23 30.98 134.36 30.98 134.48 30.99 134.61 31 134.74 31.01 134.86 31.01 134.99 31.02 135.11 31.03 135.24 31.03 135.36 31.04 135.49 31.05 135.61 31.05 135.74 31.06 135.86 31.06 135.99 31.07 136.12 31.08 136.24 31.08 136.37 31.09 136.49 31.09 136.62 31.1 136.74 31.1 136.87 31.11 136.99 31.11 137.12 31.11 137.25 31.12 137.37 31.12 137.5 31.13 137.62 31.13 137.75 31.13 137.87 31.14 138 31.14 138.12 31.14 138.25 31.14 138.37 31.15 138.5 31.15 138.63 31.15 138.75 31.15 138.88 31.15 139 31.15 139.13 31.16 139.25 31.16 139.38 31.16 139.5 31.16 139.63 31.16 139.75 31.16 139.88 31.16 140.01 31.16 140.13 31.16 140.26 31.16 140.38 31.16 140.51 31.16 140.63 31.16 140.76 31.15 140.88 31.15 141.01 31.15 141.13 31.15 141.26 31.15 141.39 31.15 141.51 31.14 141.64 31.14 141.76 31.14 141.89 31.14 142.01 31.13 142.14 31.13 142.26 31.13 142.39 31.13 142.51 31.12 142.64 31.12 142.77 31.12 142.89 31.11 143.02 31.11 143.14 31.1 143.27 31.1 143.39 31.1 143.52 31.09 143.64 31.09 143.77 31.08 143.89 31.08 144.02 31.08 144.15 31.07 144.27 31.07 144.4 31.06 144.52 31.06 144.65 31.05 144.77 31.05 144.9 31.04 145.02 31.04 145.15 31.04 145.27 31.03 145.4 31.03"/>
      </g>
    </g>
  </g>
  <g class="guide ylabels" font-size="2.82" font-family="'PT Sans Caption','Helvetica Neue','Helvetica',sans-serif" fill="#6C606B" id="fig-f7dc5130f90b45e58cc39b0524fdd98c-element-43">
    <text x="16.94" y="54.91" text-anchor="end" dy="0.35em">-1.0</text>
    <text x="16.94" y="42.94" text-anchor="end" dy="0.35em">-0.5</text>
    <text x="16.94" y="30.96" text-anchor="end" dy="0.35em">0.0</text>
    <text x="16.94" y="18.98" text-anchor="end" dy="0.35em">0.5</text>
    <text x="16.94" y="7" text-anchor="end" dy="0.35em">1.0</text>
  </g>
  <g font-size="3.88" font-family="'PT Sans','Helvetica Neue','Helvetica',sans-serif" fill="#564A55" stroke="#000000" stroke-opacity="0.000" id="fig-f7dc5130f90b45e58cc39b0524fdd98c-element-44">
    <text x="8.81" y="30.96" text-anchor="end" dy="0.35em">y</text>
  </g>
</g>
<defs>
<clipPath id="fig-f7dc5130f90b45e58cc39b0524fdd98c-element-5">
  <path d="M19.75,157.4 L 147.4 157.4 147.4 209.31 19.75 209.31" />
</clipPath
><clipPath id="fig-f7dc5130f90b45e58cc39b0524fdd98c-element-17">
  <path d="M19.74,92.44 L 147.4 92.44 147.4 133.11 19.74 133.11" />
</clipPath
><clipPath id="fig-f7dc5130f90b45e58cc39b0524fdd98c-element-37">
  <path d="M17.94,5 L 147.4 5 147.4 56.91 17.94 56.91" />
</clipPath
></defs>
</svg>
