<?xml version="1.0" encoding="UTF-8"?>
<svg xmlns="http://www.w3.org/2000/svg"
     xmlns:xlink="http://www.w3.org/1999/xlink"
     xmlns:gadfly="http://www.gadflyjl.org/ns"
     version="1.2"
     width="152.4mm" height="152.4mm" viewBox="0 0 152.4 152.4"
     stroke="none"
     fill="#000000"
     stroke-width="0.3"
     font-size="3.88"
>
<g class="plotroot" id="img-4dc54599-1">
  <g font-size="4.94" font-family="'PT Sans','Helvetica Neue','Helvetica',sans-serif" fill="#564A55" stroke="#000000" stroke-opacity="0.000" id="img-4dc54599-2">
    <text x="82.12" y="129.11" text-anchor="middle" dy="0.6em">Eigenvectors</text>
  </g>
  <g class="guide xlabels" font-size="4.23" font-family="'PT Sans Caption','Helvetica Neue','Helvetica',sans-serif" fill="#6C606B" id="img-4dc54599-3">
    <text x="56.02" y="121.1" text-anchor="middle" dy="0.6em">1</text>
    <text x="108.22" y="121.1" text-anchor="middle" dy="0.6em">2</text>
  </g>
  <g class="guide colorkey" id="img-4dc54599-4">
    <g font-size="4.23" font-family="'PT Sans','Helvetica Neue','Helvetica',sans-serif" fill="#4C404B" id="img-4dc54599-5">
      <text x="139.29" y="71.67" dy="0.35em">0.0</text>
      <text x="139.29" y="93.6" dy="0.35em">-1.0</text>
      <text x="139.29" y="60.7" dy="0.35em">0.5</text>
      <text x="139.29" y="82.63" dy="0.35em">-0.5</text>
    </g>
    <g shape-rendering="crispEdges" stroke="#000000" stroke-opacity="0.000" id="img-4dc54599-6">
      <rect x="136.32" y="92.77" width="1.97" height="0.82" fill="#008000"/>
      <rect x="136.32" y="91.95" width="1.97" height="0.82" fill="#208600"/>
      <rect x="136.32" y="91.13" width="1.97" height="0.82" fill="#328D00"/>
      <rect x="136.32" y="90.31" width="1.97" height="0.82" fill="#409300"/>
      <rect x="136.32" y="89.48" width="1.97" height="0.82" fill="#4D9A00"/>
      <rect x="136.32" y="88.66" width="1.97" height="0.82" fill="#5AA000"/>
      <rect x="136.32" y="87.84" width="1.97" height="0.82" fill="#66A700"/>
      <rect x="136.32" y="87.02" width="1.97" height="0.82" fill="#72AD00"/>
      <rect x="136.32" y="86.2" width="1.97" height="0.82" fill="#7DB300"/>
      <rect x="136.32" y="85.37" width="1.97" height="0.82" fill="#88BA00"/>
      <rect x="136.32" y="84.55" width="1.97" height="0.82" fill="#94C000"/>
      <rect x="136.32" y="83.73" width="1.97" height="0.82" fill="#9FC700"/>
      <rect x="136.32" y="82.91" width="1.97" height="0.82" fill="#AACE00"/>
      <rect x="136.32" y="82.08" width="1.97" height="0.82" fill="#B5D400"/>
      <rect x="136.32" y="81.26" width="1.97" height="0.82" fill="#C1DB00"/>
      <rect x="136.32" y="80.44" width="1.97" height="0.82" fill="#CCE100"/>
      <rect x="136.32" y="79.62" width="1.97" height="0.82" fill="#D7E800"/>
      <rect x="136.32" y="78.79" width="1.97" height="0.82" fill="#E2EE00"/>
      <rect x="136.32" y="77.97" width="1.97" height="0.82" fill="#EEF500"/>
      <rect x="136.32" y="77.15" width="1.97" height="0.82" fill="#F9FC00"/>
      <rect x="136.32" y="76.33" width="1.97" height="0.82" fill="#FFFA00"/>
      <rect x="136.32" y="75.51" width="1.97" height="0.82" fill="#FFF100"/>
      <rect x="136.32" y="74.68" width="1.97" height="0.82" fill="#FFE800"/>
      <rect x="136.32" y="73.86" width="1.97" height="0.82" fill="#FFDE00"/>
      <rect x="136.32" y="73.04" width="1.97" height="0.82" fill="#FFD500"/>
      <rect x="136.32" y="72.22" width="1.97" height="0.82" fill="#FFCB00"/>
      <rect x="136.32" y="71.39" width="1.97" height="0.82" fill="#FFC200"/>
      <rect x="136.32" y="70.57" width="1.97" height="0.82" fill="#FFB800"/>
      <rect x="136.32" y="69.75" width="1.97" height="0.82" fill="#FFAE00"/>
      <rect x="136.32" y="68.93" width="1.97" height="0.82" fill="#FFA400"/>
      <rect x="136.32" y="68.1" width="1.97" height="0.82" fill="#FF9A00"/>
      <rect x="136.32" y="67.28" width="1.97" height="0.82" fill="#FF8F00"/>
      <rect x="136.32" y="66.46" width="1.97" height="0.82" fill="#FF8400"/>
      <rect x="136.32" y="65.64" width="1.97" height="0.82" fill="#FF7900"/>
      <rect x="136.32" y="64.82" width="1.97" height="0.82" fill="#FF6D00"/>
      <rect x="136.32" y="63.99" width="1.97" height="0.82" fill="#FF6000"/>
      <rect x="136.32" y="63.17" width="1.97" height="0.82" fill="#FF5200"/>
      <rect x="136.32" y="62.35" width="1.97" height="0.82" fill="#FF4200"/>
      <rect x="136.32" y="61.53" width="1.97" height="0.82" fill="#FF2D00"/>
      <rect x="136.32" y="60.7" width="1.97" height="0.82" fill="#FF0000"/>
      <g stroke="#FFFFFF" stroke-width="0.2" id="img-4dc54599-7">
        <path fill="none" d="M136.32,71.67 L 138.29 71.67"/>
        <path fill="none" d="M136.32,93.6 L 138.29 93.6"/>
        <path fill="none" d="M136.32,60.7 L 138.29 60.7"/>
        <path fill="none" d="M136.32,82.63 L 138.29 82.63"/>
      </g>
    </g>
    <g fill="#362A35" font-size="5.64" font-family="'PT Sans','Helvetica Neue','Helvetica',sans-serif" stroke="#000000" stroke-opacity="0.000" id="img-4dc54599-8">
      <text x="136.32" y="56.7">value</text>
    </g>
  </g>
<g clip-path="url(#img-4dc54599-9)">
  <g id="img-4dc54599-10">
    <g pointer-events="visible" opacity="1" fill="#000000" fill-opacity="0.000" stroke="#000000" stroke-opacity="0.000" class="guide background" id="img-4dc54599-11">
      <rect x="29.92" y="15.7" width="104.4" height="104.4"/>
    </g>
    <g class="guide ygridlines xfixed" stroke-dasharray="0.5,0.5" stroke-width="0.2" stroke="#D0D0E0" id="img-4dc54599-12">
      <path fill="none" d="M29.92,67.9 L 134.32 67.9"/>
    </g>
    <g class="guide xgridlines yfixed" stroke-dasharray="0.5,0.5" stroke-width="0.2" stroke="#D0D0E0" id="img-4dc54599-13">
      <path fill="none" d="M82.12,15.7 L 82.12 120.1"/>
    </g>
    <g class="plotpanel" id="img-4dc54599-14">
      <g shape-rendering="crispEdges" class="geometry" stroke="#000000" stroke-opacity="0.000" id="img-4dc54599-15">
        <rect x="29.92" y="15.7" width="52.25" height="52.25" fill="#208600"/>
        <rect x="29.92" y="67.9" width="52.25" height="52.25" fill="#FF7800"/>
        <rect x="82.12" y="15.7" width="52.25" height="52.25" fill="#F8FB00"/>
        <rect x="82.12" y="67.9" width="52.25" height="52.25" fill="#208600"/>
      </g>
    </g>
  </g>
</g>
  <g class="guide ylabels" font-size="4.23" font-family="'PT Sans Caption','Helvetica Neue','Helvetica',sans-serif" fill="#6C606B" id="img-4dc54599-16">
    <text x="28.92" y="41.8" text-anchor="end" dy="0.35em">omega</text>
    <text x="28.92" y="94" text-anchor="end" dy="0.35em">k</text>
  </g>
  <g font-size="4.94" font-family="'PT Sans','Helvetica Neue','Helvetica',sans-serif" fill="#564A55" stroke="#000000" stroke-opacity="0.000" id="img-4dc54599-17">
    <text x="9.3" y="65.9" text-anchor="middle" dy="0.35em" transform="rotate(-90, 9.3, 67.9)">Parameters</text>
  </g>
</g>
<defs>
  <clipPath id="img-4dc54599-9">
  <path d="M29.92,15.7 L 134.32 15.7 134.32 120.1 29.92 120.1" />
</clipPath>
</defs>
</svg>
