<?xml version="1.0" encoding="UTF-8"?>
<svg xmlns="http://www.w3.org/2000/svg"
     xmlns:xlink="http://www.w3.org/1999/xlink"
     xmlns:gadfly="http://www.gadflyjl.org/ns"
     version="1.2"
     width="152.4mm" height="203.2mm" viewBox="0 0 152.4 203.2"
     stroke="none"
     fill="#000000"
     stroke-width="0.3"
     font-size="3.88"
>
<g class="plotroot xscalable yscalable" id="img-1bbac302-1">
  <g font-size="3.88" font-family="'PT Sans','Helvetica Neue','Helvetica',sans-serif" fill="#564A55" stroke="#000000" stroke-opacity="0.000" id="img-1bbac302-2">
    <text x="83.45" y="191.56" text-anchor="middle" dy="0.6em">Time [a]</text>
  </g>
  <g class="guide xlabels" font-size="2.82" font-family="'PT Sans Caption','Helvetica Neue','Helvetica',sans-serif" fill="#6C606B" id="img-1bbac302-3">
    <text x="21.51" y="185.51" text-anchor="middle" dy="0.6em">0</text>
    <text x="46.29" y="185.51" text-anchor="middle" dy="0.6em">10</text>
    <text x="71.07" y="185.51" text-anchor="middle" dy="0.6em">20</text>
    <text x="95.84" y="185.51" text-anchor="middle" dy="0.6em">30</text>
    <text x="120.62" y="185.51" text-anchor="middle" dy="0.6em">40</text>
    <text x="145.4" y="185.51" text-anchor="middle" dy="0.6em">50</text>
  </g>
<g clip-path="url(#img-1bbac302-4)">
  <g id="img-1bbac302-5">
    <g pointer-events="visible" opacity="1" fill="#000000" fill-opacity="0.000" stroke="#000000" stroke-opacity="0.000" class="guide background" id="img-1bbac302-6">
      <rect x="19.51" y="111.41" width="127.89" height="73.1"/>
    </g>
    <g class="guide ygridlines xfixed" stroke-dasharray="0.5,0.5" stroke-width="0.2" stroke="#D0D0E0" id="img-1bbac302-7">
      <path fill="none" d="M19.51,182.51 L 147.4 182.51"/>
      <path fill="none" d="M19.51,165.24 L 147.4 165.24"/>
      <path fill="none" d="M19.51,147.96 L 147.4 147.96"/>
      <path fill="none" d="M19.51,130.68 L 147.4 130.68"/>
      <path fill="none" d="M19.51,113.41 L 147.4 113.41"/>
    </g>
    <g class="guide xgridlines yfixed" stroke-dasharray="0.5,0.5" stroke-width="0.2" stroke="#D0D0E0" id="img-1bbac302-8">
      <path fill="none" d="M21.51,111.41 L 21.51 184.51"/>
      <path fill="none" d="M46.29,111.41 L 46.29 184.51"/>
      <path fill="none" d="M71.07,111.41 L 71.07 184.51"/>
      <path fill="none" d="M95.84,111.41 L 95.84 184.51"/>
      <path fill="none" d="M120.62,111.41 L 120.62 184.51"/>
      <path fill="none" d="M145.4,111.41 L 145.4 184.51"/>
    </g>
    <g class="plotpanel" id="img-1bbac302-9">
      <g stroke-width="0.71" fill="#000000" fill-opacity="0.000" class="geometry" stroke-dasharray="none" stroke="#0000FF" id="img-1bbac302-10">
        <path fill="none" d="M23.99,182.51 L 26.47 182.51 28.94 182.51 31.42 182.51 33.9 182.51 36.38 182.51 38.85 182.51 41.33 182.51 43.81 182.51 46.29 182.51 48.77 182.5 51.24 182.48 53.72 182.39 56.2 182.17 58.68 181.71 61.15 180.9 63.63 179.62 66.11 177.78 68.59 175.31 71.07 172.19 73.54 168.42 76.02 164.07 78.5 159.23 80.98 154.02 83.45 148.63 85.93 143.25 88.41 138.11 90.89 133.42 93.37 129.36 95.84 126.05 98.32 123.58 100.8 121.99 103.28 121.26 105.76 121.33 108.23 122.14 110.71 123.58 113.19 125.55 115.67 127.94 118.14 130.65 120.62 133.59 123.1 136.66 125.58 139.81 128.06 142.95 130.53 146.05 133.01 149.06 135.49 151.95 137.97 154.7 140.44 157.29 142.92 159.71 145.4 161.97"/>
      </g>
      <g class="geometry" id="img-1bbac302-11">
        <g class="color_RGBA{Float32}(1.0f0,0.0f0,0.0f0,1.0f0)" stroke-width="0.3" id="img-1bbac302-12">
          <g stroke="#FFFFFF" fill="#FF0000" id="img-1bbac302-13">
            <use xlink:href="#img-1bbac302-14" x="145.4" y="132.27"/>
          </g>
          <g stroke="#FFFFFF" fill="#FF0000" id="img-1bbac302-15">
            <use xlink:href="#img-1bbac302-16" x="142.92" y="129.84"/>
          </g>
          <g stroke="#FFFFFF" fill="#FF0000" id="img-1bbac302-17">
            <use xlink:href="#img-1bbac302-18" x="140.44" y="127.52"/>
          </g>
          <g stroke="#FFFFFF" fill="#FF0000" id="img-1bbac302-19">
            <use xlink:href="#img-1bbac302-20" x="137.97" y="125.36"/>
          </g>
          <g stroke="#FFFFFF" fill="#FF0000" id="img-1bbac302-21">
            <use xlink:href="#img-1bbac302-22" x="135.49" y="123.4"/>
          </g>
          <g stroke="#FFFFFF" fill="#FF0000" id="img-1bbac302-23">
            <use xlink:href="#img-1bbac302-24" x="133.01" y="121.71"/>
          </g>
          <g stroke="#FFFFFF" fill="#FF0000" id="img-1bbac302-25">
            <use xlink:href="#img-1bbac302-26" x="130.53" y="120.32"/>
          </g>
          <g stroke="#FFFFFF" fill="#FF0000" id="img-1bbac302-27">
            <use xlink:href="#img-1bbac302-28" x="128.06" y="119.3"/>
          </g>
          <g stroke="#FFFFFF" fill="#FF0000" id="img-1bbac302-29">
            <use xlink:href="#img-1bbac302-30" x="125.58" y="118.71"/>
          </g>
          <g stroke="#FFFFFF" fill="#FF0000" id="img-1bbac302-31">
            <use xlink:href="#img-1bbac302-32" x="123.1" y="118.59"/>
          </g>
          <g stroke="#FFFFFF" fill="#FF0000" id="img-1bbac302-33">
            <use xlink:href="#img-1bbac302-34" x="120.62" y="119.01"/>
          </g>
          <g stroke="#FFFFFF" fill="#FF0000" id="img-1bbac302-35">
            <use xlink:href="#img-1bbac302-36" x="118.14" y="119.98"/>
          </g>
          <g stroke="#FFFFFF" fill="#FF0000" id="img-1bbac302-37">
            <use xlink:href="#img-1bbac302-38" x="115.67" y="121.55"/>
          </g>
          <g stroke="#FFFFFF" fill="#FF0000" id="img-1bbac302-39">
            <use xlink:href="#img-1bbac302-40" x="113.19" y="123.72"/>
          </g>
          <g stroke="#FFFFFF" fill="#FF0000" id="img-1bbac302-41">
            <use xlink:href="#img-1bbac302-42" x="110.71" y="126.49"/>
          </g>
          <g stroke="#FFFFFF" fill="#FF0000" id="img-1bbac302-43">
            <use xlink:href="#img-1bbac302-44" x="108.23" y="129.83"/>
          </g>
          <g stroke="#FFFFFF" fill="#FF0000" id="img-1bbac302-45">
            <use xlink:href="#img-1bbac302-46" x="105.76" y="133.68"/>
          </g>
          <g stroke="#FFFFFF" fill="#FF0000" id="img-1bbac302-47">
            <use xlink:href="#img-1bbac302-48" x="103.28" y="137.96"/>
          </g>
          <g stroke="#FFFFFF" fill="#FF0000" id="img-1bbac302-49">
            <use xlink:href="#img-1bbac302-50" x="100.8" y="142.57"/>
          </g>
          <g stroke="#FFFFFF" fill="#FF0000" id="img-1bbac302-51">
            <use xlink:href="#img-1bbac302-52" x="98.32" y="147.38"/>
          </g>
          <g stroke="#FFFFFF" fill="#FF0000" id="img-1bbac302-53">
            <use xlink:href="#img-1bbac302-54" x="95.84" y="152.25"/>
          </g>
          <g stroke="#FFFFFF" fill="#FF0000" id="img-1bbac302-55">
            <use xlink:href="#img-1bbac302-56" x="93.37" y="157.04"/>
          </g>
          <g stroke="#FFFFFF" fill="#FF0000" id="img-1bbac302-57">
            <use xlink:href="#img-1bbac302-58" x="90.89" y="161.6"/>
          </g>
          <g stroke="#FFFFFF" fill="#FF0000" id="img-1bbac302-59">
            <use xlink:href="#img-1bbac302-60" x="88.41" y="165.81"/>
          </g>
          <g stroke="#FFFFFF" fill="#FF0000" id="img-1bbac302-61">
            <use xlink:href="#img-1bbac302-62" x="85.93" y="169.57"/>
          </g>
          <g stroke="#FFFFFF" fill="#FF0000" id="img-1bbac302-63">
            <use xlink:href="#img-1bbac302-64" x="83.45" y="172.82"/>
          </g>
          <g stroke="#FFFFFF" fill="#FF0000" id="img-1bbac302-65">
            <use xlink:href="#img-1bbac302-66" x="80.98" y="175.53"/>
          </g>
          <g stroke="#FFFFFF" fill="#FF0000" id="img-1bbac302-67">
            <use xlink:href="#img-1bbac302-68" x="78.5" y="177.7"/>
          </g>
          <g stroke="#FFFFFF" fill="#FF0000" id="img-1bbac302-69">
            <use xlink:href="#img-1bbac302-70" x="76.02" y="179.36"/>
          </g>
          <g stroke="#FFFFFF" fill="#FF0000" id="img-1bbac302-71">
            <use xlink:href="#img-1bbac302-72" x="73.54" y="180.57"/>
          </g>
          <g stroke="#FFFFFF" fill="#FF0000" id="img-1bbac302-73">
            <use xlink:href="#img-1bbac302-74" x="71.07" y="181.4"/>
          </g>
          <g stroke="#FFFFFF" fill="#FF0000" id="img-1bbac302-75">
            <use xlink:href="#img-1bbac302-76" x="68.59" y="181.93"/>
          </g>
          <g stroke="#FFFFFF" fill="#FF0000" id="img-1bbac302-77">
            <use xlink:href="#img-1bbac302-78" x="66.11" y="182.24"/>
          </g>
          <g stroke="#FFFFFF" fill="#FF0000" id="img-1bbac302-79">
            <use xlink:href="#img-1bbac302-80" x="63.63" y="182.4"/>
          </g>
          <g stroke="#FFFFFF" fill="#FF0000" id="img-1bbac302-81">
            <use xlink:href="#img-1bbac302-82" x="61.15" y="182.47"/>
          </g>
          <g stroke="#FFFFFF" fill="#FF0000" id="img-1bbac302-83">
            <use xlink:href="#img-1bbac302-84" x="58.68" y="182.5"/>
          </g>
          <g stroke="#FFFFFF" fill="#FF0000" id="img-1bbac302-85">
            <use xlink:href="#img-1bbac302-86" x="56.2" y="182.51"/>
          </g>
          <g stroke="#FFFFFF" fill="#FF0000" id="img-1bbac302-87">
            <use xlink:href="#img-1bbac302-88" x="53.72" y="182.51"/>
          </g>
          <g stroke="#FFFFFF" fill="#FF0000" id="img-1bbac302-89">
            <use xlink:href="#img-1bbac302-90" x="51.24" y="182.51"/>
          </g>
          <g stroke="#FFFFFF" fill="#FF0000" id="img-1bbac302-91">
            <use xlink:href="#img-1bbac302-92" x="48.77" y="182.51"/>
          </g>
          <g stroke="#FFFFFF" fill="#FF0000" id="img-1bbac302-93">
            <use xlink:href="#img-1bbac302-94" x="46.29" y="182.51"/>
          </g>
          <g stroke="#FFFFFF" fill="#FF0000" id="img-1bbac302-95">
            <use xlink:href="#img-1bbac302-96" x="43.81" y="182.51"/>
          </g>
          <g stroke="#FFFFFF" fill="#FF0000" id="img-1bbac302-97">
            <use xlink:href="#img-1bbac302-98" x="41.33" y="182.51"/>
          </g>
          <g stroke="#FFFFFF" fill="#FF0000" id="img-1bbac302-99">
            <use xlink:href="#img-1bbac302-100" x="38.85" y="182.51"/>
          </g>
          <g stroke="#FFFFFF" fill="#FF0000" id="img-1bbac302-101">
            <use xlink:href="#img-1bbac302-102" x="36.38" y="182.51"/>
          </g>
          <g stroke="#FFFFFF" fill="#FF0000" id="img-1bbac302-103">
            <use xlink:href="#img-1bbac302-104" x="33.9" y="182.51"/>
          </g>
          <g stroke="#FFFFFF" fill="#FF0000" id="img-1bbac302-105">
            <use xlink:href="#img-1bbac302-106" x="31.42" y="182.51"/>
          </g>
          <g stroke="#FFFFFF" fill="#FF0000" id="img-1bbac302-107">
            <use xlink:href="#img-1bbac302-108" x="28.94" y="182.51"/>
          </g>
          <g stroke="#FFFFFF" fill="#FF0000" id="img-1bbac302-109">
            <use xlink:href="#img-1bbac302-110" x="26.47" y="182.51"/>
          </g>
          <g stroke="#FFFFFF" fill="#FF0000" id="img-1bbac302-111">
            <use xlink:href="#img-1bbac302-112" x="23.99" y="182.51"/>
          </g>
        </g>
      </g>
    </g>
  </g>
</g>
  <g class="guide ylabels" font-size="2.82" font-family="'PT Sans Caption','Helvetica Neue','Helvetica',sans-serif" fill="#6C606B" id="img-1bbac302-113">
    <text x="18.51" y="182.51" text-anchor="end" dy="0.35em">0</text>
    <text x="18.51" y="165.24" text-anchor="end" dy="0.35em">100</text>
    <text x="18.51" y="147.96" text-anchor="end" dy="0.35em">200</text>
    <text x="18.51" y="130.68" text-anchor="end" dy="0.35em">300</text>
    <text x="18.51" y="113.41" text-anchor="end" dy="0.35em">400</text>
  </g>
  <g font-size="3.88" font-family="'PT Sans','Helvetica Neue','Helvetica',sans-serif" fill="#564A55" stroke="#000000" stroke-opacity="0.000" id="img-1bbac302-114">
    <text x="8.83" y="145.96" text-anchor="middle" dy="0.35em" transform="rotate(-90, 8.83, 147.96)">Concentration [ppb]</text>
  </g>
  <g font-size="3.88" font-family="'PT Sans','Helvetica Neue','Helvetica',sans-serif" fill="#564A55" stroke="#000000" stroke-opacity="0.000" id="img-1bbac302-115">
    <text x="83.45" y="106.6" text-anchor="middle" dy="0.6em">w20a</text>
  </g>
</g>
<g class="plotroot xscalable yscalable" id="img-1bbac302-116">
  <g font-size="3.88" font-family="'PT Sans','Helvetica Neue','Helvetica',sans-serif" fill="#564A55" stroke="#000000" stroke-opacity="0.000" id="img-1bbac302-117">
    <text x="84.22" y="89.96" text-anchor="middle" dy="0.6em">Time [a]</text>
  </g>
  <g class="guide xlabels" font-size="2.82" font-family="'PT Sans Caption','Helvetica Neue','Helvetica',sans-serif" fill="#6C606B" id="img-1bbac302-118">
    <text x="23.04" y="83.91" text-anchor="middle" dy="0.6em">0</text>
    <text x="47.51" y="83.91" text-anchor="middle" dy="0.6em">10</text>
    <text x="71.98" y="83.91" text-anchor="middle" dy="0.6em">20</text>
    <text x="96.45" y="83.91" text-anchor="middle" dy="0.6em">30</text>
    <text x="120.93" y="83.91" text-anchor="middle" dy="0.6em">40</text>
    <text x="145.4" y="83.91" text-anchor="middle" dy="0.6em">50</text>
  </g>
<g clip-path="url(#img-1bbac302-119)">
  <g id="img-1bbac302-120">
    <g pointer-events="visible" opacity="1" fill="#000000" fill-opacity="0.000" stroke="#000000" stroke-opacity="0.000" class="guide background" id="img-1bbac302-121">
      <rect x="21.04" y="9.81" width="126.36" height="73.1"/>
    </g>
    <g class="guide ygridlines xfixed" stroke-dasharray="0.5,0.5" stroke-width="0.2" stroke="#D0D0E0" id="img-1bbac302-122">
      <path fill="none" d="M21.04,80.91 L 147.4 80.91"/>
      <path fill="none" d="M21.04,46.36 L 147.4 46.36"/>
      <path fill="none" d="M21.04,11.81 L 147.4 11.81"/>
    </g>
    <g class="guide xgridlines yfixed" stroke-dasharray="0.5,0.5" stroke-width="0.2" stroke="#D0D0E0" id="img-1bbac302-123">
      <path fill="none" d="M23.04,9.81 L 23.04 82.91"/>
      <path fill="none" d="M47.51,9.81 L 47.51 82.91"/>
      <path fill="none" d="M71.98,9.81 L 71.98 82.91"/>
      <path fill="none" d="M96.45,9.81 L 96.45 82.91"/>
      <path fill="none" d="M120.93,9.81 L 120.93 82.91"/>
      <path fill="none" d="M145.4,9.81 L 145.4 82.91"/>
    </g>
    <g class="plotpanel" id="img-1bbac302-124">
      <g stroke-width="0.71" fill="#000000" fill-opacity="0.000" class="geometry" stroke-dasharray="none" stroke="#0000FF" id="img-1bbac302-125">
        <path fill="none" d="M25.48,80.91 L 27.93 80.91 30.38 80.91 32.83 80.91 35.27 80.91 37.72 80.91 40.17 80.87 42.61 80.56 45.06 79.57 47.51 77.56 49.96 74.42 52.4 70.25 54.85 65.3 57.3 59.82 59.75 54.09 62.19 48.33 64.64 42.72 67.09 37.41 69.53 32.73 71.98 29.13 74.43 26.97 76.88 26.34 79.32 27.15 81.77 29.12 84.22 31.97 86.67 35.39 89.11 39.13 91.56 42.98 94.01 46.79 96.45 50.46 98.9 53.9 101.35 57.09 103.8 59.99 106.24 62.61 108.69 64.96 111.14 67.04 113.59 68.88 116.03 70.5 118.48 71.92 120.93 73.16 123.37 74.23 125.82 75.16 128.27 75.97 130.72 76.67 133.16 77.27 135.61 77.79 138.06 78.24 140.51 78.62 142.95 78.95 145.4 79.23"/>
      </g>
      <g class="geometry" id="img-1bbac302-126">
        <g class="color_RGBA{Float32}(1.0f0,0.0f0,0.0f0,1.0f0)" stroke-width="0.3" id="img-1bbac302-127">
          <g stroke="#FFFFFF" fill="#FF0000" id="img-1bbac302-128">
            <use xlink:href="#img-1bbac302-129" x="145.4" y="73.32"/>
          </g>
          <g stroke="#FFFFFF" fill="#FF0000" id="img-1bbac302-130">
            <use xlink:href="#img-1bbac302-131" x="142.95" y="72.39"/>
          </g>
          <g stroke="#FFFFFF" fill="#FF0000" id="img-1bbac302-132">
            <use xlink:href="#img-1bbac302-133" x="140.51" y="71.36"/>
          </g>
          <g stroke="#FFFFFF" fill="#FF0000" id="img-1bbac302-134">
            <use xlink:href="#img-1bbac302-135" x="138.06" y="70.2"/>
          </g>
          <g stroke="#FFFFFF" fill="#FF0000" id="img-1bbac302-136">
            <use xlink:href="#img-1bbac302-137" x="135.61" y="68.92"/>
          </g>
          <g stroke="#FFFFFF" fill="#FF0000" id="img-1bbac302-138">
            <use xlink:href="#img-1bbac302-139" x="133.16" y="67.5"/>
          </g>
          <g stroke="#FFFFFF" fill="#FF0000" id="img-1bbac302-140">
            <use xlink:href="#img-1bbac302-141" x="130.72" y="65.92"/>
          </g>
          <g stroke="#FFFFFF" fill="#FF0000" id="img-1bbac302-142">
            <use xlink:href="#img-1bbac302-143" x="128.27" y="64.18"/>
          </g>
          <g stroke="#FFFFFF" fill="#FF0000" id="img-1bbac302-144">
            <use xlink:href="#img-1bbac302-145" x="125.82" y="62.25"/>
          </g>
          <g stroke="#FFFFFF" fill="#FF0000" id="img-1bbac302-146">
            <use xlink:href="#img-1bbac302-147" x="123.37" y="60.14"/>
          </g>
          <g stroke="#FFFFFF" fill="#FF0000" id="img-1bbac302-148">
            <use xlink:href="#img-1bbac302-149" x="120.93" y="57.84"/>
          </g>
          <g stroke="#FFFFFF" fill="#FF0000" id="img-1bbac302-150">
            <use xlink:href="#img-1bbac302-151" x="118.48" y="55.32"/>
          </g>
          <g stroke="#FFFFFF" fill="#FF0000" id="img-1bbac302-152">
            <use xlink:href="#img-1bbac302-153" x="116.03" y="52.6"/>
          </g>
          <g stroke="#FFFFFF" fill="#FF0000" id="img-1bbac302-154">
            <use xlink:href="#img-1bbac302-155" x="113.59" y="49.68"/>
          </g>
          <g stroke="#FFFFFF" fill="#FF0000" id="img-1bbac302-156">
            <use xlink:href="#img-1bbac302-157" x="111.14" y="46.55"/>
          </g>
          <g stroke="#FFFFFF" fill="#FF0000" id="img-1bbac302-158">
            <use xlink:href="#img-1bbac302-159" x="108.69" y="43.25"/>
          </g>
          <g stroke="#FFFFFF" fill="#FF0000" id="img-1bbac302-160">
            <use xlink:href="#img-1bbac302-161" x="106.24" y="39.8"/>
          </g>
          <g stroke="#FFFFFF" fill="#FF0000" id="img-1bbac302-162">
            <use xlink:href="#img-1bbac302-163" x="103.8" y="36.24"/>
          </g>
          <g stroke="#FFFFFF" fill="#FF0000" id="img-1bbac302-164">
            <use xlink:href="#img-1bbac302-165" x="101.35" y="32.65"/>
          </g>
          <g stroke="#FFFFFF" fill="#FF0000" id="img-1bbac302-166">
            <use xlink:href="#img-1bbac302-167" x="98.9" y="29.1"/>
          </g>
          <g stroke="#FFFFFF" fill="#FF0000" id="img-1bbac302-168">
            <use xlink:href="#img-1bbac302-169" x="96.45" y="25.72"/>
          </g>
          <g stroke="#FFFFFF" fill="#FF0000" id="img-1bbac302-170">
            <use xlink:href="#img-1bbac302-171" x="94.01" y="22.65"/>
          </g>
          <g stroke="#FFFFFF" fill="#FF0000" id="img-1bbac302-172">
            <use xlink:href="#img-1bbac302-173" x="91.56" y="20.06"/>
          </g>
          <g stroke="#FFFFFF" fill="#FF0000" id="img-1bbac302-174">
            <use xlink:href="#img-1bbac302-175" x="89.11" y="18.16"/>
          </g>
          <g stroke="#FFFFFF" fill="#FF0000" id="img-1bbac302-176">
            <use xlink:href="#img-1bbac302-177" x="86.67" y="17.16"/>
          </g>
          <g stroke="#FFFFFF" fill="#FF0000" id="img-1bbac302-178">
            <use xlink:href="#img-1bbac302-179" x="84.22" y="17.3"/>
          </g>
          <g stroke="#FFFFFF" fill="#FF0000" id="img-1bbac302-180">
            <use xlink:href="#img-1bbac302-181" x="81.77" y="18.76"/>
          </g>
          <g stroke="#FFFFFF" fill="#FF0000" id="img-1bbac302-182">
            <use xlink:href="#img-1bbac302-183" x="79.32" y="21.66"/>
          </g>
          <g stroke="#FFFFFF" fill="#FF0000" id="img-1bbac302-184">
            <use xlink:href="#img-1bbac302-185" x="76.88" y="25.98"/>
          </g>
          <g stroke="#FFFFFF" fill="#FF0000" id="img-1bbac302-186">
            <use xlink:href="#img-1bbac302-187" x="74.43" y="31.52"/>
          </g>
          <g stroke="#FFFFFF" fill="#FF0000" id="img-1bbac302-188">
            <use xlink:href="#img-1bbac302-189" x="71.98" y="37.93"/>
          </g>
          <g stroke="#FFFFFF" fill="#FF0000" id="img-1bbac302-190">
            <use xlink:href="#img-1bbac302-191" x="69.53" y="44.74"/>
          </g>
          <g stroke="#FFFFFF" fill="#FF0000" id="img-1bbac302-192">
            <use xlink:href="#img-1bbac302-193" x="67.09" y="51.55"/>
          </g>
          <g stroke="#FFFFFF" fill="#FF0000" id="img-1bbac302-194">
            <use xlink:href="#img-1bbac302-195" x="64.64" y="58.07"/>
          </g>
          <g stroke="#FFFFFF" fill="#FF0000" id="img-1bbac302-196">
            <use xlink:href="#img-1bbac302-197" x="62.19" y="64.07"/>
          </g>
          <g stroke="#FFFFFF" fill="#FF0000" id="img-1bbac302-198">
            <use xlink:href="#img-1bbac302-199" x="59.75" y="69.34"/>
          </g>
          <g stroke="#FFFFFF" fill="#FF0000" id="img-1bbac302-200">
            <use xlink:href="#img-1bbac302-201" x="57.3" y="73.67"/>
          </g>
          <g stroke="#FFFFFF" fill="#FF0000" id="img-1bbac302-202">
            <use xlink:href="#img-1bbac302-203" x="54.85" y="76.93"/>
          </g>
          <g stroke="#FFFFFF" fill="#FF0000" id="img-1bbac302-204">
            <use xlink:href="#img-1bbac302-205" x="52.4" y="79.09"/>
          </g>
          <g stroke="#FFFFFF" fill="#FF0000" id="img-1bbac302-206">
            <use xlink:href="#img-1bbac302-207" x="49.96" y="80.28"/>
          </g>
          <g stroke="#FFFFFF" fill="#FF0000" id="img-1bbac302-208">
            <use xlink:href="#img-1bbac302-209" x="47.51" y="80.77"/>
          </g>
          <g stroke="#FFFFFF" fill="#FF0000" id="img-1bbac302-210">
            <use xlink:href="#img-1bbac302-211" x="45.06" y="80.9"/>
          </g>
          <g stroke="#FFFFFF" fill="#FF0000" id="img-1bbac302-212">
            <use xlink:href="#img-1bbac302-213" x="42.61" y="80.91"/>
          </g>
          <g stroke="#FFFFFF" fill="#FF0000" id="img-1bbac302-214">
            <use xlink:href="#img-1bbac302-215" x="40.17" y="80.91"/>
          </g>
          <g stroke="#FFFFFF" fill="#FF0000" id="img-1bbac302-216">
            <use xlink:href="#img-1bbac302-217" x="37.72" y="80.91"/>
          </g>
          <g stroke="#FFFFFF" fill="#FF0000" id="img-1bbac302-218">
            <use xlink:href="#img-1bbac302-219" x="35.27" y="80.91"/>
          </g>
          <g stroke="#FFFFFF" fill="#FF0000" id="img-1bbac302-220">
            <use xlink:href="#img-1bbac302-221" x="32.83" y="80.91"/>
          </g>
          <g stroke="#FFFFFF" fill="#FF0000" id="img-1bbac302-222">
            <use xlink:href="#img-1bbac302-223" x="30.38" y="80.91"/>
          </g>
          <g stroke="#FFFFFF" fill="#FF0000" id="img-1bbac302-224">
            <use xlink:href="#img-1bbac302-225" x="27.93" y="80.91"/>
          </g>
          <g stroke="#FFFFFF" fill="#FF0000" id="img-1bbac302-226">
            <use xlink:href="#img-1bbac302-227" x="25.48" y="80.91"/>
          </g>
        </g>
      </g>
    </g>
  </g>
</g>
  <g class="guide ylabels" font-size="2.82" font-family="'PT Sans Caption','Helvetica Neue','Helvetica',sans-serif" fill="#6C606B" id="img-1bbac302-228">
    <text x="20.04" y="80.91" text-anchor="end" dy="0.35em">0</text>
    <text x="20.04" y="46.36" text-anchor="end" dy="0.35em">500</text>
    <text x="20.04" y="11.81" text-anchor="end" dy="0.35em">1000</text>
  </g>
  <g font-size="3.88" font-family="'PT Sans','Helvetica Neue','Helvetica',sans-serif" fill="#564A55" stroke="#000000" stroke-opacity="0.000" id="img-1bbac302-229">
    <text x="8.83" y="44.36" text-anchor="middle" dy="0.35em" transform="rotate(-90, 8.83, 46.36)">Concentration [ppb]</text>
  </g>
  <g font-size="3.88" font-family="'PT Sans','Helvetica Neue','Helvetica',sans-serif" fill="#564A55" stroke="#000000" stroke-opacity="0.000" id="img-1bbac302-230">
    <text x="84.22" y="5" text-anchor="middle" dy="0.6em">w13a</text>
  </g>
</g>
<defs>
  <clipPath id="img-1bbac302-119">
  <path d="M21.04,9.81 L 147.4 9.81 147.4 82.91 21.04 82.91" />
</clipPath>
  <clipPath id="img-1bbac302-4">
  <path d="M19.51,111.41 L 147.4 111.41 147.4 184.51 19.51 184.51" />
</clipPath>
  <g id="img-1bbac302-14">
    <circle cx="0" cy="0" r="1.41"/>
  </g>
  <g id="img-1bbac302-16">
    <circle cx="0" cy="0" r="1.41"/>
  </g>
  <g id="img-1bbac302-18">
    <circle cx="0" cy="0" r="1.41"/>
  </g>
  <g id="img-1bbac302-20">
    <circle cx="0" cy="0" r="1.41"/>
  </g>
  <g id="img-1bbac302-22">
    <circle cx="0" cy="0" r="1.41"/>
  </g>
  <g id="img-1bbac302-24">
    <circle cx="0" cy="0" r="1.41"/>
  </g>
  <g id="img-1bbac302-26">
    <circle cx="0" cy="0" r="1.41"/>
  </g>
  <g id="img-1bbac302-28">
    <circle cx="0" cy="0" r="1.41"/>
  </g>
  <g id="img-1bbac302-30">
    <circle cx="0" cy="0" r="1.41"/>
  </g>
  <g id="img-1bbac302-32">
    <circle cx="0" cy="0" r="1.41"/>
  </g>
  <g id="img-1bbac302-34">
    <circle cx="0" cy="0" r="1.41"/>
  </g>
  <g id="img-1bbac302-36">
    <circle cx="0" cy="0" r="1.41"/>
  </g>
  <g id="img-1bbac302-38">
    <circle cx="0" cy="0" r="1.41"/>
  </g>
  <g id="img-1bbac302-40">
    <circle cx="0" cy="0" r="1.41"/>
  </g>
  <g id="img-1bbac302-42">
    <circle cx="0" cy="0" r="1.41"/>
  </g>
  <g id="img-1bbac302-44">
    <circle cx="0" cy="0" r="1.41"/>
  </g>
  <g id="img-1bbac302-46">
    <circle cx="0" cy="0" r="1.41"/>
  </g>
  <g id="img-1bbac302-48">
    <circle cx="0" cy="0" r="1.41"/>
  </g>
  <g id="img-1bbac302-50">
    <circle cx="0" cy="0" r="1.41"/>
  </g>
  <g id="img-1bbac302-52">
    <circle cx="0" cy="0" r="1.41"/>
  </g>
  <g id="img-1bbac302-54">
    <circle cx="0" cy="0" r="1.41"/>
  </g>
  <g id="img-1bbac302-56">
    <circle cx="0" cy="0" r="1.41"/>
  </g>
  <g id="img-1bbac302-58">
    <circle cx="0" cy="0" r="1.41"/>
  </g>
  <g id="img-1bbac302-60">
    <circle cx="0" cy="0" r="1.41"/>
  </g>
  <g id="img-1bbac302-62">
    <circle cx="0" cy="0" r="1.41"/>
  </g>
  <g id="img-1bbac302-64">
    <circle cx="0" cy="0" r="1.41"/>
  </g>
  <g id="img-1bbac302-66">
    <circle cx="0" cy="0" r="1.41"/>
  </g>
  <g id="img-1bbac302-68">
    <circle cx="0" cy="0" r="1.41"/>
  </g>
  <g id="img-1bbac302-70">
    <circle cx="0" cy="0" r="1.41"/>
  </g>
  <g id="img-1bbac302-72">
    <circle cx="0" cy="0" r="1.41"/>
  </g>
  <g id="img-1bbac302-74">
    <circle cx="0" cy="0" r="1.41"/>
  </g>
  <g id="img-1bbac302-76">
    <circle cx="0" cy="0" r="1.41"/>
  </g>
  <g id="img-1bbac302-78">
    <circle cx="0" cy="0" r="1.41"/>
  </g>
  <g id="img-1bbac302-80">
    <circle cx="0" cy="0" r="1.41"/>
  </g>
  <g id="img-1bbac302-82">
    <circle cx="0" cy="0" r="1.41"/>
  </g>
  <g id="img-1bbac302-84">
    <circle cx="0" cy="0" r="1.41"/>
  </g>
  <g id="img-1bbac302-86">
    <circle cx="0" cy="0" r="1.41"/>
  </g>
  <g id="img-1bbac302-88">
    <circle cx="0" cy="0" r="1.41"/>
  </g>
  <g id="img-1bbac302-90">
    <circle cx="0" cy="0" r="1.41"/>
  </g>
  <g id="img-1bbac302-92">
    <circle cx="0" cy="0" r="1.41"/>
  </g>
  <g id="img-1bbac302-94">
    <circle cx="0" cy="0" r="1.41"/>
  </g>
  <g id="img-1bbac302-96">
    <circle cx="0" cy="0" r="1.41"/>
  </g>
  <g id="img-1bbac302-98">
    <circle cx="0" cy="0" r="1.41"/>
  </g>
  <g id="img-1bbac302-100">
    <circle cx="0" cy="0" r="1.41"/>
  </g>
  <g id="img-1bbac302-102">
    <circle cx="0" cy="0" r="1.41"/>
  </g>
  <g id="img-1bbac302-104">
    <circle cx="0" cy="0" r="1.41"/>
  </g>
  <g id="img-1bbac302-106">
    <circle cx="0" cy="0" r="1.41"/>
  </g>
  <g id="img-1bbac302-108">
    <circle cx="0" cy="0" r="1.41"/>
  </g>
  <g id="img-1bbac302-110">
    <circle cx="0" cy="0" r="1.41"/>
  </g>
  <g id="img-1bbac302-112">
    <circle cx="0" cy="0" r="1.41"/>
  </g>
  <g id="img-1bbac302-129">
    <circle cx="0" cy="0" r="1.41"/>
  </g>
  <g id="img-1bbac302-131">
    <circle cx="0" cy="0" r="1.41"/>
  </g>
  <g id="img-1bbac302-133">
    <circle cx="0" cy="0" r="1.41"/>
  </g>
  <g id="img-1bbac302-135">
    <circle cx="0" cy="0" r="1.41"/>
  </g>
  <g id="img-1bbac302-137">
    <circle cx="0" cy="0" r="1.41"/>
  </g>
  <g id="img-1bbac302-139">
    <circle cx="0" cy="0" r="1.41"/>
  </g>
  <g id="img-1bbac302-141">
    <circle cx="0" cy="0" r="1.41"/>
  </g>
  <g id="img-1bbac302-143">
    <circle cx="0" cy="0" r="1.41"/>
  </g>
  <g id="img-1bbac302-145">
    <circle cx="0" cy="0" r="1.41"/>
  </g>
  <g id="img-1bbac302-147">
    <circle cx="0" cy="0" r="1.41"/>
  </g>
  <g id="img-1bbac302-149">
    <circle cx="0" cy="0" r="1.41"/>
  </g>
  <g id="img-1bbac302-151">
    <circle cx="0" cy="0" r="1.41"/>
  </g>
  <g id="img-1bbac302-153">
    <circle cx="0" cy="0" r="1.41"/>
  </g>
  <g id="img-1bbac302-155">
    <circle cx="0" cy="0" r="1.41"/>
  </g>
  <g id="img-1bbac302-157">
    <circle cx="0" cy="0" r="1.41"/>
  </g>
  <g id="img-1bbac302-159">
    <circle cx="0" cy="0" r="1.41"/>
  </g>
  <g id="img-1bbac302-161">
    <circle cx="0" cy="0" r="1.41"/>
  </g>
  <g id="img-1bbac302-163">
    <circle cx="0" cy="0" r="1.41"/>
  </g>
  <g id="img-1bbac302-165">
    <circle cx="0" cy="0" r="1.41"/>
  </g>
  <g id="img-1bbac302-167">
    <circle cx="0" cy="0" r="1.41"/>
  </g>
  <g id="img-1bbac302-169">
    <circle cx="0" cy="0" r="1.41"/>
  </g>
  <g id="img-1bbac302-171">
    <circle cx="0" cy="0" r="1.41"/>
  </g>
  <g id="img-1bbac302-173">
    <circle cx="0" cy="0" r="1.41"/>
  </g>
  <g id="img-1bbac302-175">
    <circle cx="0" cy="0" r="1.41"/>
  </g>
  <g id="img-1bbac302-177">
    <circle cx="0" cy="0" r="1.41"/>
  </g>
  <g id="img-1bbac302-179">
    <circle cx="0" cy="0" r="1.41"/>
  </g>
  <g id="img-1bbac302-181">
    <circle cx="0" cy="0" r="1.41"/>
  </g>
  <g id="img-1bbac302-183">
    <circle cx="0" cy="0" r="1.41"/>
  </g>
  <g id="img-1bbac302-185">
    <circle cx="0" cy="0" r="1.41"/>
  </g>
  <g id="img-1bbac302-187">
    <circle cx="0" cy="0" r="1.41"/>
  </g>
  <g id="img-1bbac302-189">
    <circle cx="0" cy="0" r="1.41"/>
  </g>
  <g id="img-1bbac302-191">
    <circle cx="0" cy="0" r="1.41"/>
  </g>
  <g id="img-1bbac302-193">
    <circle cx="0" cy="0" r="1.41"/>
  </g>
  <g id="img-1bbac302-195">
    <circle cx="0" cy="0" r="1.41"/>
  </g>
  <g id="img-1bbac302-197">
    <circle cx="0" cy="0" r="1.41"/>
  </g>
  <g id="img-1bbac302-199">
    <circle cx="0" cy="0" r="1.41"/>
  </g>
  <g id="img-1bbac302-201">
    <circle cx="0" cy="0" r="1.41"/>
  </g>
  <g id="img-1bbac302-203">
    <circle cx="0" cy="0" r="1.41"/>
  </g>
  <g id="img-1bbac302-205">
    <circle cx="0" cy="0" r="1.41"/>
  </g>
  <g id="img-1bbac302-207">
    <circle cx="0" cy="0" r="1.41"/>
  </g>
  <g id="img-1bbac302-209">
    <circle cx="0" cy="0" r="1.41"/>
  </g>
  <g id="img-1bbac302-211">
    <circle cx="0" cy="0" r="1.41"/>
  </g>
  <g id="img-1bbac302-213">
    <circle cx="0" cy="0" r="1.41"/>
  </g>
  <g id="img-1bbac302-215">
    <circle cx="0" cy="0" r="1.41"/>
  </g>
  <g id="img-1bbac302-217">
    <circle cx="0" cy="0" r="1.41"/>
  </g>
  <g id="img-1bbac302-219">
    <circle cx="0" cy="0" r="1.41"/>
  </g>
  <g id="img-1bbac302-221">
    <circle cx="0" cy="0" r="1.41"/>
  </g>
  <g id="img-1bbac302-223">
    <circle cx="0" cy="0" r="1.41"/>
  </g>
  <g id="img-1bbac302-225">
    <circle cx="0" cy="0" r="1.41"/>
  </g>
  <g id="img-1bbac302-227">
    <circle cx="0" cy="0" r="1.41"/>
  </g>
</defs>
</svg>
