<?xml version="1.0" encoding="UTF-8"?>
<svg xmlns="http://www.w3.org/2000/svg"
     xmlns:xlink="http://www.w3.org/1999/xlink"
     xmlns:gadfly="http://www.gadflyjl.org/ns"
     version="1.2"
     width="101.6mm" height="76.2mm" viewBox="0 0 101.6 76.2"
     stroke="none"
     fill="#000000"
     stroke-width="0.3"
     font-size="3.88"
>
<g class="plotroot xscalable yscalable" id="fig-d0dc2220e211430ba0a861e695859c12-element-1">
  <g font-size="3.88" font-family="'PT Sans','Helvetica Neue','Helvetica',sans-serif" fill="#564A55" stroke="#000000" stroke-opacity="0.000" id="fig-d0dc2220e211430ba0a861e695859c12-element-2">
    <text x="40.46" y="64.59" text-anchor="middle" dy="0.6em">Horizon of uncertainty</text>
  </g>
  <g class="guide xlabels" font-size="2.82" font-family="'PT Sans Caption','Helvetica Neue','Helvetica',sans-serif" fill="#6C606B" id="fig-d0dc2220e211430ba0a861e695859c12-element-3">
    <text x="22.31" y="57.91" text-anchor="middle" dy="0.6em">0.0</text>
    <text x="31.38" y="57.91" text-anchor="middle" dy="0.6em">0.1</text>
    <text x="40.46" y="57.91" text-anchor="middle" dy="0.6em">0.2</text>
    <text x="49.54" y="57.91" text-anchor="middle" dy="0.6em">0.3</text>
    <text x="58.62" y="57.91" text-anchor="middle" dy="0.6em">0.4</text>
  </g>
  <g class="guide colorkey" id="fig-d0dc2220e211430ba0a861e695859c12-element-4">
    <g fill="#4C404B" font-size="2.82" font-family="'PT Sans','Helvetica Neue','Helvetica',sans-serif" id="fig-d0dc2220e211430ba0a861e695859c12-element-5">
      <text x="64.43" y="27.33" dy="0.35em" id="fig-d0dc2220e211430ba0a861e695859c12-element-6" class="color_Source_terminated_in_2015">Source terminated in 2015</text>
      <text x="64.43" y="30.96" dy="0.35em" id="fig-d0dc2220e211430ba0a861e695859c12-element-7" class="color_Source_terminated_in_2020">Source terminated in 2020</text>
      <text x="64.43" y="34.58" dy="0.35em" id="fig-d0dc2220e211430ba0a861e695859c12-element-8" class="color_Source_terminated_in_2025">Source terminated in 2025</text>
      <text x="64.43" y="38.21" dy="0.35em" id="fig-d0dc2220e211430ba0a861e695859c12-element-9" class="color_Source_terminated_in_2030">Source terminated in 2030</text>
    </g>
    <g stroke="#000000" stroke-opacity="0.000" id="fig-d0dc2220e211430ba0a861e695859c12-element-10">
      <rect x="61.62" y="26.42" width="1.81" height="1.81" id="fig-d0dc2220e211430ba0a861e695859c12-element-11" fill="#FF0000" class="color_Source_terminated_in_2015"/>
      <rect x="61.62" y="30.05" width="1.81" height="1.81" id="fig-d0dc2220e211430ba0a861e695859c12-element-12" fill="#0000FF" class="color_Source_terminated_in_2020"/>
      <rect x="61.62" y="33.68" width="1.81" height="1.81" id="fig-d0dc2220e211430ba0a861e695859c12-element-13" fill="#008000" class="color_Source_terminated_in_2025"/>
      <rect x="61.62" y="37.3" width="1.81" height="1.81" id="fig-d0dc2220e211430ba0a861e695859c12-element-14" fill="#00FFFF" class="color_Source_terminated_in_2030"/>
    </g>
    <g fill="#362A35" font-size="3.88" font-family="'PT Sans','Helvetica Neue','Helvetica',sans-serif" stroke="#000000" stroke-opacity="0.000" id="fig-d0dc2220e211430ba0a861e695859c12-element-15">
      <text x="61.62" y="23.51" id="fig-d0dc2220e211430ba0a861e695859c12-element-16">Choices</text>
    </g>
  </g>
  <g clip-path="url(#fig-d0dc2220e211430ba0a861e695859c12-element-18)" id="fig-d0dc2220e211430ba0a861e695859c12-element-17">
    <g pointer-events="visible" opacity="1" fill="#000000" fill-opacity="0.000" stroke="#000000" stroke-opacity="0.000" class="guide background" id="fig-d0dc2220e211430ba0a861e695859c12-element-19">
      <rect x="20.31" y="5" width="40.31" height="51.91" id="fig-d0dc2220e211430ba0a861e695859c12-element-20"/>
    </g>
    <g class="guide ygridlines xfixed" stroke-dasharray="0.5,0.5" stroke-width="0.2" stroke="#D0D0E0" id="fig-d0dc2220e211430ba0a861e695859c12-element-21">
      <path fill="none" d="M20.31,54.91 L 60.62 54.91" id="fig-d0dc2220e211430ba0a861e695859c12-element-22"/>
      <path fill="none" d="M20.31,30.96 L 60.62 30.96" id="fig-d0dc2220e211430ba0a861e695859c12-element-23"/>
      <path fill="none" d="M20.31,7 L 60.62 7" id="fig-d0dc2220e211430ba0a861e695859c12-element-24"/>
    </g>
    <g class="guide xgridlines yfixed" stroke-dasharray="0.5,0.5" stroke-width="0.2" stroke="#D0D0E0" id="fig-d0dc2220e211430ba0a861e695859c12-element-25">
      <path fill="none" d="M22.31,5 L 22.31 56.91" id="fig-d0dc2220e211430ba0a861e695859c12-element-26"/>
      <path fill="none" d="M31.38,5 L 31.38 56.91" id="fig-d0dc2220e211430ba0a861e695859c12-element-27"/>
      <path fill="none" d="M40.46,5 L 40.46 56.91" id="fig-d0dc2220e211430ba0a861e695859c12-element-28"/>
      <path fill="none" d="M49.54,5 L 49.54 56.91" id="fig-d0dc2220e211430ba0a861e695859c12-element-29"/>
      <path fill="none" d="M58.62,5 L 58.62 56.91" id="fig-d0dc2220e211430ba0a861e695859c12-element-30"/>
    </g>
    <g class="plotpanel" id="fig-d0dc2220e211430ba0a861e695859c12-element-31">
      <g stroke-width="0.3" fill="#000000" fill-opacity="0.000" id="fig-d0dc2220e211430ba0a861e695859c12-element-32">
        <path fill="none" d="M22.31,54.91 L 23.04 54.91 23.77 54.91 24.51 54.91 25.24 54.91 25.97 54.91 26.71 54.91 27.44 54.91 28.17 54.91 28.91 54.91 29.64 54.91 30.37 54.91 31.11 54.91 31.84 54.91 32.58 54.91 33.31 54.91 34.04 54.91 34.78 54.91 35.51 54.91 36.24 54.91 36.98 54.91 37.71 54.91 38.44 54.91 39.18 54.89 39.91 54.49 40.65 53.64 41.38 52.82 42.11 52.49 42.85 51.07 43.58 49.52 44.31 47.32 45.05 44.55 45.78 39.74 46.51 37.15 47.25 32.09 47.98 29.05 48.72 24.24 49.45 19.45 50.18 13.24 50.92 4.03 51.65 -6.12 52.38 -19.8 53.12 -34.83 53.85 -49.84 54.58 -63.11 55.32 -80.55 56.05 -98.71 56.79 -127.84 57.52 -162.91 58.25 -189.54 58.99 -221.32 59.72 -253.95 60.45 -288.86 61.19 -314.98 61.92 -328.53 62.65 -356.67 63.39 -372.65 64.12 -399.44 64.86 -412.97 65.59 -423.55 66.32 -424.23 67.06 -424.23 67.79 -424.23 68.52 -424.23 69.26 -424.23 69.99 -424.23 70.72 -424.23 71.46 -424.23 72.19 -424.23 72.93 -424.23 73.66 -424.23 74.39 -424.23 75.13 -424.23 75.86 -424.23 76.59 -424.23 77.33 -424.23 78.06 -424.23 78.79 -424.23 79.53 -424.23 80.26 -424.23 81 -424.23 81.73 -424.23 82.46 -424.23 83.2 -424.23 83.93 -424.23 84.66 -424.23 85.4 -424.23 86.13 -424.23 86.86 -424.23 87.6 -424.23 88.33 -424.23 89.07 -424.23 89.8 -424.23 90.53 -424.23 91.27 -424.23 92 -424.23 92.73 -424.23 93.47 -424.23 94.2 -424.23 94.93 -424.23" id="fig-d0dc2220e211430ba0a861e695859c12-element-33" stroke="#0000FF" class="geometry color_Source_terminated_in_2020"/>
        <path fill="none" d="M22.31,54.91 L 23.04 54.91 23.77 54.91 24.51 54.91 25.24 54.91 25.97 54.91 26.71 54.91 27.44 54.91 28.17 54.91 28.91 54.91 29.64 54.91 30.37 54.91 31.11 54.91 31.84 54.91 32.58 54.91 33.31 54.91 34.04 54.91 34.78 54.91 35.51 54.91 36.24 54.91 36.98 54.91 37.71 54.91 38.44 54.51 39.18 53.47 39.91 52.64 40.65 51.66 41.38 49.96 42.11 45.89 42.85 42.09 43.58 38.08 44.31 32.11 45.05 26.25 45.78 19.38 46.51 14.06 47.25 -0.59 47.98 -18.48 48.72 -39.49 49.45 -57.64 50.18 -83.07 50.92 -115.14 51.65 -161.95 52.38 -202.56 53.12 -254.64 53.85 -313.6 54.58 -349.33 55.32 -385.72 56.05 -408.97 56.79 -420.33 57.52 -424.23 58.25 -424.23 58.99 -424.23 59.72 -424.23 60.45 -424.23 61.19 -424.23 61.92 -424.23 62.65 -424.23 63.39 -424.23 64.12 -424.23 64.86 -424.23 65.59 -424.23 66.32 -424.23 67.06 -424.23 67.79 -424.23 68.52 -424.23 69.26 -424.23 69.99 -424.23 70.72 -424.23 71.46 -424.23 72.19 -424.23 72.93 -424.23 73.66 -424.23 74.39 -424.23 75.13 -424.23 75.86 -424.23 76.59 -424.23 77.33 -424.23 78.06 -424.23 78.79 -424.23 79.53 -424.23 80.26 -424.23 81 -424.23 81.73 -424.23 82.46 -424.23 83.2 -424.23 83.93 -424.23 84.66 -424.23 85.4 -424.23 86.13 -424.23 86.86 -424.23 87.6 -424.23 88.33 -424.23 89.07 -424.23 89.8 -424.23 90.53 -424.23 91.27 -424.23 92 -424.23 92.73 -424.23 93.47 -424.23 94.2 -424.23 94.93 -424.23" id="fig-d0dc2220e211430ba0a861e695859c12-element-34" stroke="#008000" class="geometry color_Source_terminated_in_2025"/>
        <path fill="none" d="M22.31,54.91 L 23.04 54.91 23.77 54.91 24.51 54.91 25.24 54.91 25.97 54.91 26.71 54.91 27.44 54.91 28.17 54.91 28.91 54.91 29.64 54.91 30.37 54.91 31.11 54.91 31.84 54.91 32.58 54.91 33.31 54.91 34.04 54.91 34.78 54.91 35.51 54.91 36.24 54.91 36.98 54.91 37.71 54.89 38.44 54.29 39.18 52.99 39.91 52.56 40.65 51.16 41.38 47.93 42.11 43.77 42.85 39.72 43.58 34.34 44.31 27.52 45.05 21.44 45.78 14.7 46.51 -0.27 47.25 -18.54 47.98 -40.32 48.72 -66.57 49.45 -101.56 50.18 -150.59 50.92 -199.6 51.65 -267.04 52.38 -328.24 53.12 -375.22 53.85 -410.95 54.58 -424.21 55.32 -424.23 56.05 -424.23 56.79 -424.23 57.52 -424.23 58.25 -424.23 58.99 -424.23 59.72 -424.23 60.45 -424.23 61.19 -424.23 61.92 -424.23 62.65 -424.23 63.39 -424.23 64.12 -424.23 64.86 -424.23 65.59 -424.23 66.32 -424.23 67.06 -424.23 67.79 -424.23 68.52 -424.23 69.26 -424.23 69.99 -424.23 70.72 -424.23 71.46 -424.23 72.19 -424.23 72.93 -424.23 73.66 -424.23 74.39 -424.23 75.13 -424.23 75.86 -424.23 76.59 -424.23 77.33 -424.23 78.06 -424.23 78.79 -424.23 79.53 -424.23 80.26 -424.23 81 -424.23 81.73 -424.23 82.46 -424.23 83.2 -424.23 83.93 -424.23 84.66 -424.23 85.4 -424.23 86.13 -424.23 86.86 -424.23 87.6 -424.23 88.33 -424.23 89.07 -424.23 89.8 -424.23 90.53 -424.23 91.27 -424.23 92 -424.23 92.73 -424.23 93.47 -424.23 94.2 -424.23 94.93 -424.23" id="fig-d0dc2220e211430ba0a861e695859c12-element-35" stroke="#00FFFF" class="geometry color_Source_terminated_in_2030"/>
        <path fill="none" d="M22.31,54.91 L 23.04 54.91 23.77 54.91 24.51 54.91 25.24 54.91 25.97 54.91 26.71 54.91 27.44 54.91 28.17 54.91 28.91 54.91 29.64 54.91 30.37 54.91 31.11 54.91 31.84 54.91 32.58 54.91 33.31 54.91 34.04 54.91 34.78 54.91 35.51 54.91 36.24 54.91 36.98 54.91 37.71 54.91 38.44 54.91 39.18 54.91 39.91 54.91 40.65 54.91 41.38 54.91 42.11 54.91 42.85 54.91 43.58 54.9 44.31 54.7 45.05 54.46 45.78 54.24 46.51 53.82 47.25 53.17 47.98 52.62 48.72 52.02 49.45 51.69 50.18 51.07 50.92 49.47 51.65 48.58 52.38 46.55 53.12 44.49 53.85 41.18 54.58 38.01 55.32 35.98 56.05 33.11 56.79 29.61 57.52 27.57 58.25 22.31 58.99 21.55 59.72 16.93 60.45 12.35 61.19 5.75 61.92 -2.42 62.65 -7.53 63.39 -17.63 64.12 -28.61 64.86 -39.16 65.59 -213.48 66.32 -229.04 67.06 -246.52 67.79 -258.8 68.52 -270.62 69.26 -288.59 69.99 -305.76 70.72 -327.51 71.46 -341.07 72.19 -351.64 72.93 -361.18 73.66 -371.99 74.39 -382.27 75.13 -397.24 75.86 -401.08 76.59 -406.92 77.33 -412.83 78.06 -416.16 78.79 -422.5 79.53 -423.07 80.26 -424.23 81 -424.23 81.73 -424.23 82.46 -424.23 83.2 -424.23 83.93 -424.23 84.66 -424.23 85.4 -424.23 86.13 -424.23 86.86 -424.23 87.6 -424.23 88.33 -424.23 89.07 -424.23 89.8 -424.23 90.53 -424.23 91.27 -424.23 92 -424.23 92.73 -424.23 93.47 -424.23 94.2 -424.23 94.93 -424.23" id="fig-d0dc2220e211430ba0a861e695859c12-element-36" stroke="#FF0000" class="geometry color_Source_terminated_in_2015"/>
      </g>
    </g>
  </g>
  <g class="guide ylabels" font-size="2.82" font-family="'PT Sans Caption','Helvetica Neue','Helvetica',sans-serif" fill="#6C606B" id="fig-d0dc2220e211430ba0a861e695859c12-element-37">
    <text x="19.31" y="54.91" text-anchor="end" dy="0.35em" id="fig-d0dc2220e211430ba0a861e695859c12-element-38">0.00</text>
    <text x="19.31" y="30.96" text-anchor="end" dy="0.35em" id="fig-d0dc2220e211430ba0a861e695859c12-element-39">0.05</text>
    <text x="19.31" y="7" text-anchor="end" dy="0.35em" id="fig-d0dc2220e211430ba0a861e695859c12-element-40">0.10</text>
  </g>
  <g font-size="3.88" font-family="'PT Sans','Helvetica Neue','Helvetica',sans-serif" fill="#564A55" stroke="#000000" stroke-opacity="0.000" id="fig-d0dc2220e211430ba0a861e695859c12-element-41">
    <text x="8.81" y="28.96" text-anchor="middle" dy="0.35em" transform="rotate(-90, 8.81, 30.96)" id="fig-d0dc2220e211430ba0a861e695859c12-element-42">Maximum probability of failure</text>
  </g>
</g>
<defs>
<clipPath id="fig-d0dc2220e211430ba0a861e695859c12-element-18">
  <path d="M20.31,5 L 60.62 5 60.62 56.91 20.31 56.91" />
</clipPath
></defs>
</svg>
