<?xml version="1.0" encoding="UTF-8"?>
<svg xmlns="http://www.w3.org/2000/svg"
     xmlns:xlink="http://www.w3.org/1999/xlink"
     xmlns:gadfly="http://www.gadflyjl.org/ns"
     version="1.2"
     width="101.6mm" height="76.2mm" viewBox="0 0 101.6 76.2"
     stroke="none"
     fill="#000000"
     stroke-width="0.3"
     font-size="3.88"
>
<g class="plotroot xscalable yscalable" id="fig-e36022e5b76345a2820828414ed3ec57-element-1">
  <g font-size="3.88" font-family="'PT Sans','Helvetica Neue','Helvetica',sans-serif" fill="#564A55" stroke="#000000" stroke-opacity="0.000" id="fig-e36022e5b76345a2820828414ed3ec57-element-2">
    <text x="38.45" y="64.59" text-anchor="middle" dy="0.6em">Horizon of uncertainty</text>
  </g>
  <g class="guide xlabels" font-size="2.82" font-family="'PT Sans Caption','Helvetica Neue','Helvetica',sans-serif" fill="#6C606B" id="fig-e36022e5b76345a2820828414ed3ec57-element-3">
    <text x="18.29" y="57.91" text-anchor="middle" dy="0.6em">0.0</text>
    <text x="28.37" y="57.91" text-anchor="middle" dy="0.6em">0.2</text>
    <text x="38.45" y="57.91" text-anchor="middle" dy="0.6em">0.4</text>
    <text x="48.54" y="57.91" text-anchor="middle" dy="0.6em">0.6</text>
    <text x="58.62" y="57.91" text-anchor="middle" dy="0.6em">0.8</text>
  </g>
  <g class="guide colorkey" id="fig-e36022e5b76345a2820828414ed3ec57-element-4">
    <g fill="#4C404B" font-size="2.82" font-family="'PT Sans','Helvetica Neue','Helvetica',sans-serif" id="fig-e36022e5b76345a2820828414ed3ec57-element-5">
      <text x="64.43" y="27.33" dy="0.35em" id="fig-e36022e5b76345a2820828414ed3ec57-element-6" class="color_Source_terminated_in_2015">Source terminated in 2015</text>
      <text x="64.43" y="30.96" dy="0.35em" id="fig-e36022e5b76345a2820828414ed3ec57-element-7" class="color_Source_terminated_in_2020">Source terminated in 2020</text>
      <text x="64.43" y="34.58" dy="0.35em" id="fig-e36022e5b76345a2820828414ed3ec57-element-8" class="color_Source_terminated_in_2025">Source terminated in 2025</text>
      <text x="64.43" y="38.21" dy="0.35em" id="fig-e36022e5b76345a2820828414ed3ec57-element-9" class="color_Source_terminated_in_2030">Source terminated in 2030</text>
    </g>
    <g stroke="#000000" stroke-opacity="0.000" id="fig-e36022e5b76345a2820828414ed3ec57-element-10">
      <rect x="61.62" y="26.42" width="1.81" height="1.81" id="fig-e36022e5b76345a2820828414ed3ec57-element-11" class="color_Source_terminated_in_2015" fill="#FF0000"/>
      <rect x="61.62" y="30.05" width="1.81" height="1.81" id="fig-e36022e5b76345a2820828414ed3ec57-element-12" class="color_Source_terminated_in_2020" fill="#0000FF"/>
      <rect x="61.62" y="33.68" width="1.81" height="1.81" id="fig-e36022e5b76345a2820828414ed3ec57-element-13" class="color_Source_terminated_in_2025" fill="#008000"/>
      <rect x="61.62" y="37.3" width="1.81" height="1.81" id="fig-e36022e5b76345a2820828414ed3ec57-element-14" class="color_Source_terminated_in_2030" fill="#00FFFF"/>
    </g>
    <g fill="#362A35" font-size="3.88" font-family="'PT Sans','Helvetica Neue','Helvetica',sans-serif" stroke="#000000" stroke-opacity="0.000" id="fig-e36022e5b76345a2820828414ed3ec57-element-15">
      <text x="61.62" y="23.51" id="fig-e36022e5b76345a2820828414ed3ec57-element-16">Choices</text>
    </g>
  </g>
  <g clip-path="url(#fig-e36022e5b76345a2820828414ed3ec57-element-18)" id="fig-e36022e5b76345a2820828414ed3ec57-element-17">
    <g pointer-events="visible" opacity="1" fill="#000000" fill-opacity="0.000" stroke="#000000" stroke-opacity="0.000" class="guide background" id="fig-e36022e5b76345a2820828414ed3ec57-element-19">
      <rect x="16.29" y="5" width="44.33" height="51.91" id="fig-e36022e5b76345a2820828414ed3ec57-element-20"/>
    </g>
    <g class="guide ygridlines xfixed" stroke-dasharray="0.5,0.5" stroke-width="0.2" stroke="#D0D0E0" id="fig-e36022e5b76345a2820828414ed3ec57-element-21">
      <path fill="none" d="M16.29,30.96 L 60.62 30.96" id="fig-e36022e5b76345a2820828414ed3ec57-element-22"/>
    </g>
    <g class="guide xgridlines yfixed" stroke-dasharray="0.5,0.5" stroke-width="0.2" stroke="#D0D0E0" id="fig-e36022e5b76345a2820828414ed3ec57-element-23">
      <path fill="none" d="M18.29,5 L 18.29 56.91" id="fig-e36022e5b76345a2820828414ed3ec57-element-24"/>
      <path fill="none" d="M28.37,5 L 28.37 56.91" id="fig-e36022e5b76345a2820828414ed3ec57-element-25"/>
      <path fill="none" d="M38.45,5 L 38.45 56.91" id="fig-e36022e5b76345a2820828414ed3ec57-element-26"/>
      <path fill="none" d="M48.54,5 L 48.54 56.91" id="fig-e36022e5b76345a2820828414ed3ec57-element-27"/>
      <path fill="none" d="M58.62,5 L 58.62 56.91" id="fig-e36022e5b76345a2820828414ed3ec57-element-28"/>
    </g>
    <g class="plotpanel" id="fig-e36022e5b76345a2820828414ed3ec57-element-29">
      <g stroke-width="0.3" fill="#000000" fill-opacity="0.000" stroke-dasharray="none" id="fig-e36022e5b76345a2820828414ed3ec57-element-30">
        <path fill="none" d="M18.29,30.96 L 18.69 30.96 19.1 30.96 19.51 30.96 19.91 30.96 20.32 30.96 20.73 30.96 21.14 30.96 21.54 30.96 21.95 30.96 22.36 30.96 22.77 30.96 23.17 30.96 23.58 30.96 23.99 30.96 24.4 30.96 24.8 30.96 25.21 30.96 25.62 30.96 26.03 30.96 26.43 30.96 26.84 30.96 27.25 30.96 27.66 30.96 28.06 30.96 28.47 30.96 28.88 30.96 29.29 30.96 29.69 30.96 30.1 30.96 30.51 30.96 30.92 30.96 31.32 30.96 31.73 30.96 32.14 30.96 32.54 30.96 32.95 30.96 33.36 30.96 33.77 30.96 34.17 30.96 34.58 30.96 34.99 30.96 35.4 30.96 35.8 30.96 36.21 30.96 36.62 30.96 37.03 30.96 37.43 30.96 37.84 30.96 38.25 30.96 38.66 30.96 39.06 30.96 39.47 30.96 39.88 30.96 40.29 30.96 40.69 30.96 41.1 30.96 41.51 30.96 41.92 30.96 42.32 30.96 42.73 30.96 43.14 30.96 43.55 30.96 43.95 30.96 44.36 30.96 44.77 30.96 45.17 30.96 45.58 30.96 45.99 30.96 46.4 30.96 46.8 30.96 47.21 30.96 47.62 30.96 48.03 30.96 48.43 30.96 48.84 30.96 49.25 30.96 49.66 30.96 50.06 30.96 50.47 30.96 50.88 30.96 51.29 30.96 51.69 30.96 52.1 30.96 52.51 30.96 52.92 30.96 53.32 30.96 53.73 30.96 54.14 30.96 54.55 30.96 54.95 30.96 55.36 30.96 55.77 30.96 56.18 30.96 56.58 30.96 56.99 30.96 57.4 30.96 57.81 30.96 58.21 30.96 58.62 30.96" id="fig-e36022e5b76345a2820828414ed3ec57-element-31" class="geometry color_Source_terminated_in_2020" stroke="#0000FF"/>
        <path fill="none" d="M18.29,30.96 L 18.69 30.96 19.1 30.96 19.51 30.96 19.91 30.96 20.32 30.96 20.73 30.96 21.14 30.96 21.54 30.96 21.95 30.96 22.36 30.96 22.77 30.96 23.17 30.96 23.58 30.96 23.99 30.96 24.4 30.96 24.8 30.96 25.21 30.96 25.62 30.96 26.03 30.96 26.43 30.96 26.84 30.96 27.25 30.96 27.66 30.96 28.06 30.96 28.47 30.96 28.88 30.96 29.29 30.96 29.69 30.96 30.1 30.96 30.51 30.96 30.92 30.96 31.32 30.96 31.73 30.96 32.14 30.96 32.54 30.96 32.95 30.96 33.36 30.96 33.77 30.96 34.17 30.96 34.58 30.96 34.99 30.96 35.4 30.96 35.8 30.96 36.21 30.96 36.62 30.96 37.03 30.96 37.43 30.96 37.84 30.96 38.25 30.96 38.66 30.96 39.06 30.96 39.47 30.96 39.88 30.96 40.29 30.96 40.69 30.96 41.1 30.96 41.51 30.96 41.92 30.96 42.32 30.96 42.73 30.96 43.14 30.96 43.55 30.96 43.95 30.96 44.36 30.96 44.77 30.96 45.17 30.96 45.58 30.96 45.99 30.96 46.4 30.96 46.8 30.96 47.21 30.96 47.62 30.96 48.03 30.96 48.43 30.96 48.84 30.96 49.25 30.96 49.66 30.96 50.06 30.96 50.47 30.96 50.88 30.96 51.29 30.96 51.69 30.96 52.1 30.96 52.51 30.96 52.92 30.96 53.32 30.96 53.73 30.96 54.14 30.96 54.55 30.96 54.95 30.96 55.36 30.96 55.77 30.96 56.18 30.96 56.58 30.96 56.99 30.96 57.4 30.96 57.81 30.96 58.21 30.96 58.62 30.96" id="fig-e36022e5b76345a2820828414ed3ec57-element-32" class="geometry color_Source_terminated_in_2025" stroke="#008000"/>
        <path fill="none" d="M18.29,30.96 L 18.69 30.96 19.1 30.96 19.51 30.96 19.91 30.96 20.32 30.96 20.73 30.96 21.14 30.96 21.54 30.96 21.95 30.96 22.36 30.96 22.77 30.96 23.17 30.96 23.58 30.96 23.99 30.96 24.4 30.96 24.8 30.96 25.21 30.96 25.62 30.96 26.03 30.96 26.43 30.96 26.84 30.96 27.25 30.96 27.66 30.96 28.06 30.96 28.47 30.96 28.88 30.96 29.29 30.96 29.69 30.96 30.1 30.96 30.51 30.96 30.92 30.96 31.32 30.96 31.73 30.96 32.14 30.96 32.54 30.96 32.95 30.96 33.36 30.96 33.77 30.96 34.17 30.96 34.58 30.96 34.99 30.96 35.4 30.96 35.8 30.96 36.21 30.96 36.62 30.96 37.03 30.96 37.43 30.96 37.84 30.96 38.25 30.96 38.66 30.96 39.06 30.96 39.47 30.96 39.88 30.96 40.29 30.96 40.69 30.96 41.1 30.96 41.51 30.96 41.92 30.96 42.32 30.96 42.73 30.96 43.14 30.96 43.55 30.96 43.95 30.96 44.36 30.96 44.77 30.96 45.17 30.96 45.58 30.96 45.99 30.96 46.4 30.96 46.8 30.96 47.21 30.96 47.62 30.96 48.03 30.96 48.43 30.96 48.84 30.96 49.25 30.96 49.66 30.96 50.06 30.96 50.47 30.96 50.88 30.96 51.29 30.96 51.69 30.96 52.1 30.96 52.51 30.96 52.92 30.96 53.32 30.96 53.73 30.96 54.14 30.96 54.55 30.96 54.95 30.96 55.36 30.96 55.77 30.96 56.18 30.96 56.58 30.96 56.99 30.96 57.4 30.96 57.81 30.96 58.21 30.96 58.62 30.96" id="fig-e36022e5b76345a2820828414ed3ec57-element-33" class="geometry color_Source_terminated_in_2030" stroke="#00FFFF"/>
        <path fill="none" d="M18.29,30.96 L 18.69 30.96 19.1 30.96 19.51 30.96 19.91 30.96 20.32 30.96 20.73 30.96 21.14 30.96 21.54 30.96 21.95 30.96 22.36 30.96 22.77 30.96 23.17 30.96 23.58 30.96 23.99 30.96 24.4 30.96 24.8 30.96 25.21 30.96 25.62 30.96 26.03 30.96 26.43 30.96 26.84 30.96 27.25 30.96 27.66 30.96 28.06 30.96 28.47 30.96 28.88 30.96 29.29 30.96 29.69 30.96 30.1 30.96 30.51 30.96 30.92 30.96 31.32 30.96 31.73 30.96 32.14 30.96 32.54 30.96 32.95 30.96 33.36 30.96 33.77 30.96 34.17 30.96 34.58 30.96 34.99 30.96 35.4 30.96 35.8 30.96 36.21 30.96 36.62 30.96 37.03 30.96 37.43 30.96 37.84 30.96 38.25 30.96 38.66 30.96 39.06 30.96 39.47 30.96 39.88 30.96 40.29 30.96 40.69 30.96 41.1 30.96 41.51 30.96 41.92 30.96 42.32 30.96 42.73 30.96 43.14 30.96 43.55 30.96 43.95 30.96 44.36 30.96 44.77 30.96 45.17 30.96 45.58 30.96 45.99 30.96 46.4 30.96 46.8 30.96 47.21 30.96 47.62 30.96 48.03 30.96 48.43 30.96 48.84 30.96 49.25 30.96 49.66 30.96 50.06 30.96 50.47 30.96 50.88 30.96 51.29 30.96 51.69 30.96 52.1 30.96 52.51 30.96 52.92 30.96 53.32 30.96 53.73 30.96 54.14 30.96 54.55 30.96 54.95 30.96 55.36 30.96 55.77 30.96 56.18 30.96 56.58 30.96 56.99 30.96 57.4 30.96 57.81 30.96 58.21 30.96 58.62 30.96" id="fig-e36022e5b76345a2820828414ed3ec57-element-34" class="geometry color_Source_terminated_in_2015" stroke="#FF0000"/>
      </g>
    </g>
  </g>
  <g class="guide ylabels" font-size="2.82" font-family="'PT Sans Caption','Helvetica Neue','Helvetica',sans-serif" fill="#6C606B" id="fig-e36022e5b76345a2820828414ed3ec57-element-35">
    <text x="15.28" y="30.96" text-anchor="end" dy="0.35em" id="fig-e36022e5b76345a2820828414ed3ec57-element-36">1</text>
  </g>
  <g font-size="3.88" font-family="'PT Sans','Helvetica Neue','Helvetica',sans-serif" fill="#564A55" stroke="#000000" stroke-opacity="0.000" id="fig-e36022e5b76345a2820828414ed3ec57-element-37">
    <text x="8.81" y="28.96" text-anchor="middle" dy="0.35em" transform="rotate(-90, 8.81, 30.96)" id="fig-e36022e5b76345a2820828414ed3ec57-element-38">Maximum probability of failure</text>
  </g>
</g>
<defs>
<clipPath id="fig-e36022e5b76345a2820828414ed3ec57-element-18">
  <path d="M16.29,5 L 60.62 5 60.62 56.91 16.29 56.91" />
</clipPath
></defs>
</svg>
