<?xml version="1.0" encoding="UTF-8"?>
<svg xmlns="http://www.w3.org/2000/svg"
     xmlns:xlink="http://www.w3.org/1999/xlink"
     xmlns:gadfly="http://www.gadflyjl.org/ns"
     version="1.2"
     width="101.6mm" height="76.2mm" viewBox="0 0 101.6 76.2"
     stroke="none"
     fill="#000000"
     stroke-width="0.3"
     font-size="3.88"
>
<g class="plotroot xscalable yscalable" id="fig-f7558ca1c5c6423eb9ab1cd8972ab505-element-1">
  <g font-size="3.88" font-family="'PT Sans','Helvetica Neue','Helvetica',sans-serif" fill="#564A55" stroke="#000000" stroke-opacity="0.000" id="fig-f7558ca1c5c6423eb9ab1cd8972ab505-element-2">
    <text x="39.63" y="64.59" text-anchor="middle" dy="0.6em">Horizon of uncertainty</text>
  </g>
  <g class="guide xlabels" font-size="2.82" font-family="'PT Sans Caption','Helvetica Neue','Helvetica',sans-serif" fill="#6C606B" id="fig-f7558ca1c5c6423eb9ab1cd8972ab505-element-3">
    <text x="20.63" y="57.91" text-anchor="middle" dy="0.6em">0.0</text>
    <text x="30.13" y="57.91" text-anchor="middle" dy="0.6em">0.2</text>
    <text x="39.63" y="57.91" text-anchor="middle" dy="0.6em">0.4</text>
    <text x="49.12" y="57.91" text-anchor="middle" dy="0.6em">0.6</text>
    <text x="58.62" y="57.91" text-anchor="middle" dy="0.6em">0.8</text>
  </g>
  <g class="guide colorkey" id="fig-f7558ca1c5c6423eb9ab1cd8972ab505-element-4">
    <g fill="#4C404B" font-size="2.82" font-family="'PT Sans','Helvetica Neue','Helvetica',sans-serif" id="fig-f7558ca1c5c6423eb9ab1cd8972ab505-element-5">
      <text x="64.43" y="27.33" dy="0.35em" id="fig-f7558ca1c5c6423eb9ab1cd8972ab505-element-6" class="color_Source_terminated_in_2015">Source terminated in 2015</text>
      <text x="64.43" y="30.96" dy="0.35em" id="fig-f7558ca1c5c6423eb9ab1cd8972ab505-element-7" class="color_Source_terminated_in_2020">Source terminated in 2020</text>
      <text x="64.43" y="34.58" dy="0.35em" id="fig-f7558ca1c5c6423eb9ab1cd8972ab505-element-8" class="color_Source_terminated_in_2025">Source terminated in 2025</text>
      <text x="64.43" y="38.21" dy="0.35em" id="fig-f7558ca1c5c6423eb9ab1cd8972ab505-element-9" class="color_Source_terminated_in_2030">Source terminated in 2030</text>
    </g>
    <g stroke="#000000" stroke-opacity="0.000" id="fig-f7558ca1c5c6423eb9ab1cd8972ab505-element-10">
      <rect x="61.62" y="26.42" width="1.81" height="1.81" id="fig-f7558ca1c5c6423eb9ab1cd8972ab505-element-11" fill="#FF0000" class="color_Source_terminated_in_2015"/>
      <rect x="61.62" y="30.05" width="1.81" height="1.81" id="fig-f7558ca1c5c6423eb9ab1cd8972ab505-element-12" fill="#0000FF" class="color_Source_terminated_in_2020"/>
      <rect x="61.62" y="33.68" width="1.81" height="1.81" id="fig-f7558ca1c5c6423eb9ab1cd8972ab505-element-13" fill="#008000" class="color_Source_terminated_in_2025"/>
      <rect x="61.62" y="37.3" width="1.81" height="1.81" id="fig-f7558ca1c5c6423eb9ab1cd8972ab505-element-14" fill="#00FFFF" class="color_Source_terminated_in_2030"/>
    </g>
    <g fill="#362A35" font-size="3.88" font-family="'PT Sans','Helvetica Neue','Helvetica',sans-serif" stroke="#000000" stroke-opacity="0.000" id="fig-f7558ca1c5c6423eb9ab1cd8972ab505-element-15">
      <text x="61.62" y="23.51" id="fig-f7558ca1c5c6423eb9ab1cd8972ab505-element-16">Choices</text>
    </g>
  </g>
  <g clip-path="url(#fig-f7558ca1c5c6423eb9ab1cd8972ab505-element-18)" id="fig-f7558ca1c5c6423eb9ab1cd8972ab505-element-17">
    <g pointer-events="visible" opacity="1" fill="#000000" fill-opacity="0.000" stroke="#000000" stroke-opacity="0.000" class="guide background" id="fig-f7558ca1c5c6423eb9ab1cd8972ab505-element-19">
      <rect x="18.63" y="5" width="41.99" height="51.91" id="fig-f7558ca1c5c6423eb9ab1cd8972ab505-element-20"/>
    </g>
    <g class="guide ygridlines xfixed" stroke-dasharray="0.5,0.5" stroke-width="0.2" stroke="#D0D0E0" id="fig-f7558ca1c5c6423eb9ab1cd8972ab505-element-21">
      <path fill="none" d="M18.63,54.91 L 60.62 54.91" id="fig-f7558ca1c5c6423eb9ab1cd8972ab505-element-22"/>
      <path fill="none" d="M18.63,30.96 L 60.62 30.96" id="fig-f7558ca1c5c6423eb9ab1cd8972ab505-element-23"/>
      <path fill="none" d="M18.63,7 L 60.62 7" id="fig-f7558ca1c5c6423eb9ab1cd8972ab505-element-24"/>
    </g>
    <g class="guide xgridlines yfixed" stroke-dasharray="0.5,0.5" stroke-width="0.2" stroke="#D0D0E0" id="fig-f7558ca1c5c6423eb9ab1cd8972ab505-element-25">
      <path fill="none" d="M20.63,5 L 20.63 56.91" id="fig-f7558ca1c5c6423eb9ab1cd8972ab505-element-26"/>
      <path fill="none" d="M30.13,5 L 30.13 56.91" id="fig-f7558ca1c5c6423eb9ab1cd8972ab505-element-27"/>
      <path fill="none" d="M39.63,5 L 39.63 56.91" id="fig-f7558ca1c5c6423eb9ab1cd8972ab505-element-28"/>
      <path fill="none" d="M49.12,5 L 49.12 56.91" id="fig-f7558ca1c5c6423eb9ab1cd8972ab505-element-29"/>
      <path fill="none" d="M58.62,5 L 58.62 56.91" id="fig-f7558ca1c5c6423eb9ab1cd8972ab505-element-30"/>
    </g>
    <g class="plotpanel" id="fig-f7558ca1c5c6423eb9ab1cd8972ab505-element-31">
      <g stroke-width="0.3" fill="#000000" fill-opacity="0.000" id="fig-f7558ca1c5c6423eb9ab1cd8972ab505-element-32">
        <path fill="none" d="M20.63,54.91 L 21.02 54.91 21.4 54.91 21.78 54.91 22.17 54.91 22.55 54.91 22.93 54.91 23.32 54.91 23.7 54.91 24.09 54.91 24.47 54.91 24.85 54.91 25.24 54.91 25.62 54.91 26 54.91 26.39 54.91 26.77 54.91 27.15 54.91 27.54 54.91 27.92 54.91 28.31 54.91 28.69 54.91 29.07 54.91 29.46 54.91 29.84 54.87 30.22 54.79 30.61 54.71 30.99 54.67 31.38 54.53 31.76 54.38 32.14 54.16 32.53 53.88 32.91 53.4 33.29 53.14 33.68 52.63 34.06 52.33 34.45 51.85 34.83 51.37 35.21 50.75 35.6 49.83 35.98 48.81 36.36 47.44 36.75 45.94 37.13 44.44 37.52 43.11 37.9 41.37 38.28 39.55 38.67 36.64 39.05 33.13 39.43 30.47 39.82 27.29 40.2 24.03 40.59 20.54 40.97 17.93 41.35 16.57 41.74 13.76 42.12 12.16 42.5 9.48 42.89 8.13 43.27 7.07 43.65 7 44.04 7 44.42 7 44.81 7 45.19 7 45.57 7 45.96 7 46.34 7 46.72 7 47.11 7 47.49 7 47.88 7 48.26 7 48.64 7 49.03 7 49.41 7 49.79 7 50.18 7 50.56 7 50.95 7 51.33 7 51.71 7 52.1 7 52.48 7 52.86 7 53.25 7 53.63 7 54.02 7 54.4 7 54.78 7 55.17 7 55.55 7 55.93 7 56.32 7 56.7 7 57.09 7 57.47 7 57.85 7 58.24 7 58.62 7" id="fig-f7558ca1c5c6423eb9ab1cd8972ab505-element-33" stroke="#0000FF" class="geometry color_Source_terminated_in_2020"/>
        <path fill="none" d="M20.63,54.91 L 21.02 54.91 21.4 54.91 21.78 54.91 22.17 54.91 22.55 54.91 22.93 54.91 23.32 54.91 23.7 54.91 24.09 54.91 24.47 54.91 24.85 54.91 25.24 54.91 25.62 54.91 26 54.91 26.39 54.91 26.77 54.91 27.15 54.91 27.54 54.91 27.92 54.91 28.31 54.91 28.69 54.91 29.07 54.87 29.46 54.77 29.84 54.69 30.22 54.59 30.61 54.42 30.99 54.01 31.38 53.63 31.76 53.23 32.14 52.63 32.53 52.05 32.91 51.36 33.29 50.83 33.68 49.36 34.06 47.58 34.45 45.47 34.83 43.66 35.21 41.12 35.6 37.91 35.98 33.23 36.36 29.17 36.75 23.96 37.13 18.06 37.52 14.49 37.9 10.85 38.28 8.53 38.67 7.39 39.05 7 39.43 7 39.82 7 40.2 7 40.59 7 40.97 7 41.35 7 41.74 7 42.12 7 42.5 7 42.89 7 43.27 7 43.65 7 44.04 7 44.42 7 44.81 7 45.19 7 45.57 7 45.96 7 46.34 7 46.72 7 47.11 7 47.49 7 47.88 7 48.26 7 48.64 7 49.03 7 49.41 7 49.79 7 50.18 7 50.56 7 50.95 7 51.33 7 51.71 7 52.1 7 52.48 7 52.86 7 53.25 7 53.63 7 54.02 7 54.4 7 54.78 7 55.17 7 55.55 7 55.93 7 56.32 7 56.7 7 57.09 7 57.47 7 57.85 7 58.24 7 58.62 7" id="fig-f7558ca1c5c6423eb9ab1cd8972ab505-element-34" stroke="#008000" class="geometry color_Source_terminated_in_2025"/>
        <path fill="none" d="M20.63,54.91 L 21.02 54.91 21.4 54.91 21.78 54.91 22.17 54.91 22.55 54.91 22.93 54.91 23.32 54.91 23.7 54.91 24.09 54.91 24.47 54.91 24.85 54.91 25.24 54.91 25.62 54.91 26 54.91 26.39 54.91 26.77 54.91 27.15 54.91 27.54 54.91 27.92 54.91 28.31 54.91 28.69 54.91 29.07 54.85 29.46 54.72 29.84 54.68 30.22 54.54 30.61 54.22 30.99 53.8 31.38 53.4 31.76 52.86 32.14 52.18 32.53 51.57 32.91 50.89 33.29 49.4 33.68 47.57 34.06 45.39 34.45 42.77 34.83 39.27 35.21 34.36 35.6 29.46 35.98 22.72 36.36 16.6 36.75 11.9 37.13 8.33 37.52 7 37.9 7 38.28 7 38.67 7 39.05 7 39.43 7 39.82 7 40.2 7 40.59 7 40.97 7 41.35 7 41.74 7 42.12 7 42.5 7 42.89 7 43.27 7 43.65 7 44.04 7 44.42 7 44.81 7 45.19 7 45.57 7 45.96 7 46.34 7 46.72 7 47.11 7 47.49 7 47.88 7 48.26 7 48.64 7 49.03 7 49.41 7 49.79 7 50.18 7 50.56 7 50.95 7 51.33 7 51.71 7 52.1 7 52.48 7 52.86 7 53.25 7 53.63 7 54.02 7 54.4 7 54.78 7 55.17 7 55.55 7 55.93 7 56.32 7 56.7 7 57.09 7 57.47 7 57.85 7 58.24 7 58.62 7" id="fig-f7558ca1c5c6423eb9ab1cd8972ab505-element-35" stroke="#00FFFF" class="geometry color_Source_terminated_in_2030"/>
        <path fill="none" d="M20.63,54.91 L 21.02 54.91 21.4 54.91 21.78 54.91 22.17 54.91 22.55 54.91 22.93 54.91 23.32 54.91 23.7 54.91 24.09 54.91 24.47 54.91 24.85 54.91 25.24 54.91 25.62 54.91 26 54.91 26.39 54.91 26.77 54.91 27.15 54.91 27.54 54.91 27.92 54.91 28.31 54.91 28.69 54.91 29.07 54.91 29.46 54.91 29.84 54.91 30.22 54.91 30.61 54.91 30.99 54.91 31.38 54.91 31.76 54.91 32.14 54.89 32.53 54.87 32.91 54.85 33.29 54.81 33.68 54.74 34.06 54.69 34.45 54.63 34.83 54.59 35.21 54.53 35.6 54.37 35.98 54.28 36.36 54.08 36.75 53.87 37.13 53.54 37.52 53.22 37.9 53.02 38.28 52.73 38.67 52.38 39.05 52.18 39.43 51.65 39.82 51.58 40.2 51.12 40.59 50.66 40.97 50 41.35 49.18 41.74 48.67 42.12 47.66 42.5 46.56 42.89 45.51 43.27 28.08 43.65 26.52 44.04 24.77 44.42 23.54 44.81 22.36 45.19 20.56 45.57 18.85 45.96 16.67 46.34 15.32 46.72 14.26 47.11 13.31 47.49 12.22 47.88 11.2 48.26 9.7 48.64 9.32 49.03 8.73 49.41 8.14 49.79 7.81 50.18 7.17 50.56 7.12 50.95 7 51.33 7 51.71 7 52.1 7 52.48 7 52.86 7 53.25 7 53.63 7 54.02 7 54.4 7 54.78 7 55.17 7 55.55 7 55.93 7 56.32 7 56.7 7 57.09 7 57.47 7 57.85 7 58.24 7 58.62 7" id="fig-f7558ca1c5c6423eb9ab1cd8972ab505-element-36" stroke="#FF0000" class="geometry color_Source_terminated_in_2015"/>
      </g>
    </g>
  </g>
  <g class="guide ylabels" font-size="2.82" font-family="'PT Sans Caption','Helvetica Neue','Helvetica',sans-serif" fill="#6C606B" id="fig-f7558ca1c5c6423eb9ab1cd8972ab505-element-37">
    <text x="17.63" y="54.91" text-anchor="end" dy="0.35em" id="fig-f7558ca1c5c6423eb9ab1cd8972ab505-element-38">0.0</text>
    <text x="17.63" y="30.96" text-anchor="end" dy="0.35em" id="fig-f7558ca1c5c6423eb9ab1cd8972ab505-element-39">0.5</text>
    <text x="17.63" y="7" text-anchor="end" dy="0.35em" id="fig-f7558ca1c5c6423eb9ab1cd8972ab505-element-40">1.0</text>
  </g>
  <g font-size="3.88" font-family="'PT Sans','Helvetica Neue','Helvetica',sans-serif" fill="#564A55" stroke="#000000" stroke-opacity="0.000" id="fig-f7558ca1c5c6423eb9ab1cd8972ab505-element-41">
    <text x="8.81" y="28.96" text-anchor="middle" dy="0.35em" transform="rotate(-90, 8.81, 30.96)" id="fig-f7558ca1c5c6423eb9ab1cd8972ab505-element-42">Maximum probability of failure</text>
  </g>
</g>
<defs>
<clipPath id="fig-f7558ca1c5c6423eb9ab1cd8972ab505-element-18">
  <path d="M18.63,5 L 60.62 5 60.62 56.91 18.63 56.91" />
</clipPath
></defs>
</svg>
