<?xml version="1.0" encoding="UTF-8"?>
<svg xmlns="http://www.w3.org/2000/svg"
     xmlns:xlink="http://www.w3.org/1999/xlink"
     xmlns:gadfly="http://www.gadflyjl.org/ns"
     version="1.2"
     width="101.6mm" height="76.2mm" viewBox="0 0 101.6 76.2"
     stroke="none"
     fill="#000000"
     stroke-width="0.3"
     font-size="3.88"
>
<g class="plotroot xscalable yscalable" id="img-3e0290ad-1">
  <g font-size="3.88" font-family="'PT Sans','Helvetica Neue','Helvetica',sans-serif" fill="#564A55" stroke="#000000" stroke-opacity="0.000" id="img-3e0290ad-2">
    <text x="40.58" y="64.66" text-anchor="middle" dy="0.6em">Horizon of uncertainty</text>
  </g>
  <g class="guide xlabels" font-size="2.82" font-family="'PT Sans Caption','Helvetica Neue','Helvetica',sans-serif" fill="#6C606B" id="img-3e0290ad-3">
    <text x="22" y="58.61" text-anchor="middle" dy="0.6em">0.0</text>
    <text x="31.29" y="58.61" text-anchor="middle" dy="0.6em">0.2</text>
    <text x="40.58" y="58.61" text-anchor="middle" dy="0.6em">0.4</text>
    <text x="49.88" y="58.61" text-anchor="middle" dy="0.6em">0.6</text>
    <text x="59.17" y="58.61" text-anchor="middle" dy="0.6em">0.8</text>
  </g>
  <g class="guide colorkey" id="img-3e0290ad-4">
    <g fill="#4C404B" font-size="2.82" font-family="'PT Sans','Helvetica Neue','Helvetica',sans-serif" id="img-3e0290ad-5">
      <text x="64.69" y="28.26" dy="0.35em" id="img-3e0290ad-6" class="color_Source_terminated_in_2015">Source terminated in 2015</text>
      <text x="64.69" y="31.3" dy="0.35em" id="img-3e0290ad-7" class="color_Source_terminated_in_2020">Source terminated in 2020</text>
      <text x="64.69" y="34.35" dy="0.35em" id="img-3e0290ad-8" class="color_Source_terminated_in_2025">Source terminated in 2025</text>
      <text x="64.69" y="37.39" dy="0.35em" id="img-3e0290ad-9" class="color_Source_terminated_in_2030">Source terminated in 2030</text>
    </g>
    <g stroke="#000000" stroke-opacity="0.000" id="img-3e0290ad-10">
      <rect x="62.17" y="27.5" width="1.52" height="1.52" id="img-3e0290ad-11" fill="#FF0000" class="color_Source_terminated_in_2015"/>
      <rect x="62.17" y="30.54" width="1.52" height="1.52" id="img-3e0290ad-12" fill="#0000FF" class="color_Source_terminated_in_2020"/>
      <rect x="62.17" y="33.59" width="1.52" height="1.52" id="img-3e0290ad-13" fill="#008000" class="color_Source_terminated_in_2025"/>
      <rect x="62.17" y="36.63" width="1.52" height="1.52" id="img-3e0290ad-14" fill="#00FFFF" class="color_Source_terminated_in_2030"/>
    </g>
    <g fill="#362A35" font-size="3.88" font-family="'PT Sans','Helvetica Neue','Helvetica',sans-serif" stroke="#000000" stroke-opacity="0.000" id="img-3e0290ad-15">
      <text x="62.17" y="24.62" id="img-3e0290ad-16">Choices</text>
    </g>
  </g>
<g clip-path="url(#img-3e0290ad-17)">
  <g id="img-3e0290ad-18">
    <g pointer-events="visible" opacity="1" fill="#000000" fill-opacity="0.000" stroke="#000000" stroke-opacity="0.000" class="guide background" id="img-3e0290ad-19">
      <rect x="20" y="5" width="41.17" height="52.61" id="img-3e0290ad-20"/>
    </g>
    <g class="guide ygridlines xfixed" stroke-dasharray="0.5,0.5" stroke-width="0.2" stroke="#D0D0E0" id="img-3e0290ad-21">
      <path fill="none" d="M20,55.61 L 61.17 55.61" id="img-3e0290ad-22"/>
      <path fill="none" d="M20,31.3 L 61.17 31.3" id="img-3e0290ad-23"/>
      <path fill="none" d="M20,7 L 61.17 7" id="img-3e0290ad-24"/>
    </g>
    <g class="guide xgridlines yfixed" stroke-dasharray="0.5,0.5" stroke-width="0.2" stroke="#D0D0E0" id="img-3e0290ad-25">
      <path fill="none" d="M22,5 L 22 57.61" id="img-3e0290ad-26"/>
      <path fill="none" d="M31.29,5 L 31.29 57.61" id="img-3e0290ad-27"/>
      <path fill="none" d="M40.58,5 L 40.58 57.61" id="img-3e0290ad-28"/>
      <path fill="none" d="M49.88,5 L 49.88 57.61" id="img-3e0290ad-29"/>
      <path fill="none" d="M59.17,5 L 59.17 57.61" id="img-3e0290ad-30"/>
    </g>
    <g class="plotpanel" id="img-3e0290ad-31">
      <g stroke-width="0.3" fill="#000000" fill-opacity="0.000" stroke-dasharray="none" id="img-3e0290ad-32">
        <path fill="none" d="M22,55.61 L 22.37 55.61 22.75 55.61 23.12 55.61 23.5 55.61 23.88 55.61 24.25 55.61 24.63 55.61 25 55.61 25.38 55.61 25.75 55.61 26.13 55.61 26.5 55.61 26.88 55.61 27.25 55.61 27.63 55.61 28.01 55.61 28.38 55.61 28.76 55.61 29.13 55.61 29.51 55.61 29.88 55.61 30.26 55.61 30.63 55.61 31.01 55.61 31.38 55.61 31.76 55.61 32.14 55.61 32.51 55.61 32.89 55.61 33.26 55.61 33.64 55.61 34.01 55.61 34.39 55.61 34.76 55.61 35.14 55.61 35.51 55.61 35.89 55.61 36.27 55.61 36.64 55.61 37.02 55.61 37.39 55.61 37.77 55.61 38.14 55.61 38.52 55.61 38.89 55.61 39.27 55.61 39.64 55.61 40.02 55.61 40.4 55.61 40.77 55.61 41.15 55.61 41.52 55.61 41.9 55.61 42.27 55.61 42.65 55.61 43.02 55.61 43.4 55.61 43.77 55.61 44.15 55.61 44.53 55.61 44.9 55.61 45.28 55.61 45.65 55.61 46.03 55.61 46.4 55.61 46.78 55.61 47.15 55.61 47.53 55.61 47.9 55.61 48.28 55.61 48.66 55.61 49.03 55.61 49.41 55.61 49.78 55.61 50.16 55.61 50.53 55.61 50.91 55.61 51.28 55.61 51.66 55.61 52.03 55.61 52.41 55.61 52.79 55.61 53.16 55.61 53.54 55.61 53.91 55.61 54.29 55.61 54.66 55.61 55.04 55.61 55.41 55.61 55.79 55.61 56.16 55.61 56.54 55.61 56.91 55.61 57.29 55.61 57.67 55.61 58.04 55.61 58.42 55.61 58.79 55.61 59.17 55.61" id="img-3e0290ad-33" stroke="#0000FF" class="geometry color_Source_terminated_in_2020"/>
        <path fill="none" d="M22,55.61 L 22.37 55.61 22.75 55.61 23.12 55.61 23.5 55.61 23.88 55.61 24.25 55.61 24.63 55.61 25 55.61 25.38 55.61 25.75 55.61 26.13 55.61 26.5 55.61 26.88 55.61 27.25 55.61 27.63 55.61 28.01 55.61 28.38 55.61 28.76 55.61 29.13 55.61 29.51 55.61 29.88 55.61 30.26 55.61 30.63 55.61 31.01 55.61 31.38 55.61 31.76 55.61 32.14 55.61 32.51 55.61 32.89 55.61 33.26 55.61 33.64 55.61 34.01 55.61 34.39 55.61 34.76 55.61 35.14 55.61 35.51 55.61 35.89 55.61 36.27 55.61 36.64 55.61 37.02 55.61 37.39 55.61 37.77 55.61 38.14 55.61 38.52 55.61 38.89 55.61 39.27 55.61 39.64 55.61 40.02 55.61 40.4 55.61 40.77 55.61 41.15 55.61 41.52 55.61 41.9 55.61 42.27 55.61 42.65 55.61 43.02 55.61 43.4 55.61 43.77 55.61 44.15 55.61 44.53 55.61 44.9 55.61 45.28 55.61 45.65 55.61 46.03 55.61 46.4 55.61 46.78 55.61 47.15 55.61 47.53 55.61 47.9 55.61 48.28 55.61 48.66 55.61 49.03 55.61 49.41 55.61 49.78 55.61 50.16 55.61 50.53 55.61 50.91 55.61 51.28 55.61 51.66 55.61 52.03 55.61 52.41 55.61 52.79 55.61 53.16 55.61 53.54 55.61 53.91 55.61 54.29 55.61 54.66 55.61 55.04 55.61 55.41 55.61 55.79 55.61 56.16 55.61 56.54 55.61 56.91 55.61 57.29 55.61 57.67 55.61 58.04 55.61 58.42 55.61 58.79 55.61 59.17 55.61" id="img-3e0290ad-34" stroke="#008000" class="geometry color_Source_terminated_in_2025"/>
        <path fill="none" d="M22,55.61 L 22.37 55.61 22.75 55.61 23.12 55.61 23.5 55.61 23.88 55.61 24.25 55.61 24.63 55.61 25 55.61 25.38 55.61 25.75 55.61 26.13 55.61 26.5 55.61 26.88 55.61 27.25 55.61 27.63 55.61 28.01 55.61 28.38 55.61 28.76 55.61 29.13 55.61 29.51 55.61 29.88 55.61 30.26 55.61 30.63 55.61 31.01 55.61 31.38 55.61 31.76 55.61 32.14 55.61 32.51 55.61 32.89 55.61 33.26 55.61 33.64 55.61 34.01 55.61 34.39 55.61 34.76 55.61 35.14 55.61 35.51 55.61 35.89 55.61 36.27 55.61 36.64 55.61 37.02 55.61 37.39 55.61 37.77 55.61 38.14 55.61 38.52 55.61 38.89 55.61 39.27 55.61 39.64 55.61 40.02 55.61 40.4 55.61 40.77 55.61 41.15 55.61 41.52 55.61 41.9 55.61 42.27 55.61 42.65 55.61 43.02 55.61 43.4 55.61 43.77 55.61 44.15 55.61 44.53 55.61 44.9 55.61 45.28 55.61 45.65 55.61 46.03 55.61 46.4 55.61 46.78 55.61 47.15 55.61 47.53 55.61 47.9 55.61 48.28 55.61 48.66 55.61 49.03 55.61 49.41 55.61 49.78 55.61 50.16 55.61 50.53 55.61 50.91 55.61 51.28 55.61 51.66 55.61 52.03 55.61 52.41 55.61 52.79 55.61 53.16 55.61 53.54 55.61 53.91 55.61 54.29 55.61 54.66 55.61 55.04 55.61 55.41 55.61 55.79 55.61 56.16 55.61 56.54 55.61 56.91 55.61 57.29 55.61 57.67 55.61 58.04 55.61 58.42 55.61 58.79 55.61 59.17 55.61" id="img-3e0290ad-35" stroke="#00FFFF" class="geometry color_Source_terminated_in_2030"/>
        <path fill="none" d="M22,55.61 L 22.37 55.61 22.75 55.61 23.12 55.61 23.5 55.61 23.88 55.61 24.25 55.61 24.63 55.61 25 55.61 25.38 55.61 25.75 55.61 26.13 55.61 26.5 55.61 26.88 55.61 27.25 55.61 27.63 55.61 28.01 55.61 28.38 55.61 28.76 55.61 29.13 55.61 29.51 55.61 29.88 55.61 30.26 55.61 30.63 55.61 31.01 55.61 31.38 55.61 31.76 55.61 32.14 55.61 32.51 55.61 32.89 55.61 33.26 55.61 33.64 55.61 34.01 55.61 34.39 55.61 34.76 55.61 35.14 55.61 35.51 55.61 35.89 55.61 36.27 55.61 36.64 55.61 37.02 55.61 37.39 55.61 37.77 55.61 38.14 55.61 38.52 55.61 38.89 55.61 39.27 55.61 39.64 55.61 40.02 55.61 40.4 55.61 40.77 55.61 41.15 55.61 41.52 55.61 41.9 55.61 42.27 55.61 42.65 55.61 43.02 55.61 43.4 55.61 43.77 55.61 44.15 55.61 44.53 55.61 44.9 55.61 45.28 55.61 45.65 55.61 46.03 55.61 46.4 55.61 46.78 55.61 47.15 55.61 47.53 55.61 47.9 55.61 48.28 55.61 48.66 55.61 49.03 55.61 49.41 55.61 49.78 55.61 50.16 55.61 50.53 55.61 50.91 55.61 51.28 55.61 51.66 55.61 52.03 55.61 52.41 55.61 52.79 55.61 53.16 55.61 53.54 55.61 53.91 55.61 54.29 55.61 54.66 55.61 55.04 55.61 55.41 55.61 55.79 55.61 56.16 55.61 56.54 55.61 56.91 55.61 57.29 55.61 57.67 55.61 58.04 55.61 58.42 55.61 58.79 55.61 59.17 55.61" id="img-3e0290ad-36" stroke="#FF0000" class="geometry color_Source_terminated_in_2015"/>
      </g>
    </g>
  </g>
</g>
  <g class="guide ylabels" font-size="2.82" font-family="'PT Sans Caption','Helvetica Neue','Helvetica',sans-serif" fill="#6C606B" id="img-3e0290ad-37">
    <text x="19" y="55.61" text-anchor="end" dy="0.35em" id="img-3e0290ad-38">0.00</text>
    <text x="19" y="31.3" text-anchor="end" dy="0.35em" id="img-3e0290ad-39">0.05</text>
    <text x="19" y="7" text-anchor="end" dy="0.35em" id="img-3e0290ad-40">0.10</text>
  </g>
  <g font-size="3.88" font-family="'PT Sans','Helvetica Neue','Helvetica',sans-serif" fill="#564A55" stroke="#000000" stroke-opacity="0.000" id="img-3e0290ad-41">
    <text x="8.77" y="29.3" text-anchor="middle" dy="0.35em" transform="rotate(-90, 8.77, 31.3)" id="img-3e0290ad-42">Maximum probability of failure</text>
  </g>
</g>
<defs>
  <clipPath id="img-3e0290ad-17">
  <path d="M20,5 L 61.17 5 61.17 57.61 20 57.61" />
</clipPath>
</defs>
</svg>
