<?xml version="1.0" encoding="UTF-8"?>
<svg xmlns="http://www.w3.org/2000/svg"
     xmlns:xlink="http://www.w3.org/1999/xlink"
     xmlns:gadfly="http://www.gadflyjl.org/ns"
     version="1.2"
     width="101.6mm" height="76.2mm" viewBox="0 0 101.6 76.2"
     stroke="none"
     fill="#000000"
     stroke-width="0.3"
     font-size="3.88"
>
<defs>
  <marker id="arrow" markerWidth="15" markerHeight="7" refX="5" refY="3.5" orient="auto" markerUnits="strokeWidth">
    <path d="M0,0 L15,3.5 L0,7 z" stroke="context-stroke" fill="context-stroke"/>
  </marker>
</defs>
<g class="plotroot xscalable yscalable" id="img-d4078412-1">
  <g font-size="3.88" font-family="'PT Sans','Helvetica Neue','Helvetica',sans-serif" fill="#564A55" stroke="#000000" stroke-opacity="0.000" id="img-d4078412-2">
    <g transform="translate(39.74,64.66)">
      <g class="primitive">
        <text text-anchor="middle" dy="0.6em">Horizon of uncertainty</text>
      </g>
    </g>
  </g>
  <g class="guide xlabels" font-size="2.82" font-family="'PT Sans Caption','Helvetica Neue','Helvetica',sans-serif" fill="#6C606B" id="img-d4078412-3">
    <g transform="translate(20.32,58.61)">
      <g class="primitive">
        <text text-anchor="middle" dy="0.6em">0.0</text>
      </g>
    </g>
    <g transform="translate(30.03,58.61)">
      <g class="primitive">
        <text text-anchor="middle" dy="0.6em">0.2</text>
      </g>
    </g>
    <g transform="translate(39.74,58.61)">
      <g class="primitive">
        <text text-anchor="middle" dy="0.6em">0.4</text>
      </g>
    </g>
    <g transform="translate(49.46,58.61)">
      <g class="primitive">
        <text text-anchor="middle" dy="0.6em">0.6</text>
      </g>
    </g>
    <g transform="translate(59.17,58.61)">
      <g class="primitive">
        <text text-anchor="middle" dy="0.6em">0.8</text>
      </g>
    </g>
  </g>
  <g class="guide colorkey" id="img-d4078412-4">
    <g fill="#4C404B" font-size="2.82" font-family="'PT Sans','Helvetica Neue','Helvetica',sans-serif" id="img-d4078412-5">
      <g transform="translate(64.69,28.26)" id="img-d4078412-6" class="color_Source_terminated_in_2015">
        <g class="primitive">
          <text dy="0.35em">Source terminated in 2015</text>
        </g>
      </g>
      <g transform="translate(64.69,31.3)" id="img-d4078412-7" class="color_Source_terminated_in_2020">
        <g class="primitive">
          <text dy="0.35em">Source terminated in 2020</text>
        </g>
      </g>
      <g transform="translate(64.69,34.35)" id="img-d4078412-8" class="color_Source_terminated_in_2025">
        <g class="primitive">
          <text dy="0.35em">Source terminated in 2025</text>
        </g>
      </g>
      <g transform="translate(64.69,37.39)" id="img-d4078412-9" class="color_Source_terminated_in_2030">
        <g class="primitive">
          <text dy="0.35em">Source terminated in 2030</text>
        </g>
      </g>
    </g>
    <g fill-opacity="1" id="img-d4078412-10">
      <g transform="translate(62.93,28.26)" id="img-d4078412-11" class="color_Source_terminated_in_2015" stroke="#FFFFFF" fill="#FF0000">
        <path d="M-0.76,-0.76 L0.76,-0.76 0.76,0.76 -0.76,0.76  z" class="primitive"/>
      </g>
      <g transform="translate(62.93,31.3)" id="img-d4078412-12" class="color_Source_terminated_in_2020" stroke="#FFFFFF" fill="#0000FF">
        <path d="M-0.76,-0.76 L0.76,-0.76 0.76,0.76 -0.76,0.76  z" class="primitive"/>
      </g>
      <g transform="translate(62.93,34.35)" id="img-d4078412-13" class="color_Source_terminated_in_2025" stroke="#FFFFFF" fill="#008000">
        <path d="M-0.76,-0.76 L0.76,-0.76 0.76,0.76 -0.76,0.76  z" class="primitive"/>
      </g>
      <g transform="translate(62.93,37.39)" id="img-d4078412-14" class="color_Source_terminated_in_2030" stroke="#FFFFFF" fill="#00FFFF">
        <path d="M-0.76,-0.76 L0.76,-0.76 0.76,0.76 -0.76,0.76  z" class="primitive"/>
      </g>
    </g>
    <g fill="#362A35" font-size="3.88" font-family="'PT Sans','Helvetica Neue','Helvetica',sans-serif" stroke="#000000" stroke-opacity="0.000" id="img-d4078412-15">
      <g transform="translate(62.17,24.62)" id="img-d4078412-16">
        <g class="primitive">
          <text dy="-0em">Choices</text>
        </g>
      </g>
    </g>
  </g>
  <g clip-path="url(#img-d4078412-17)">
    <g id="img-d4078412-18">
      <g pointer-events="visible" stroke-width="0.3" fill="#000000" fill-opacity="0.000" stroke="#000000" stroke-opacity="0.000" class="guide background" id="img-d4078412-19">
        <g transform="translate(39.74,31.3)" id="img-d4078412-20">
          <path d="M-21.42,-26.3 L21.42,-26.3 21.42,26.3 -21.42,26.3  z" class="primitive"/>
        </g>
      </g>
      <g class="guide ygridlines xfixed" stroke-dasharray="0.5,0.5" stroke-width="0.2" stroke="#D0D0E0" id="img-d4078412-21">
        <g transform="translate(39.74,55.61)" id="img-d4078412-22">
          <path fill="none" d="M-21.42,0 L21.42,0 " class="primitive"/>
        </g>
        <g transform="translate(39.74,31.3)" id="img-d4078412-23">
          <path fill="none" d="M-21.42,0 L21.42,0 " class="primitive"/>
        </g>
        <g transform="translate(39.74,7)" id="img-d4078412-24">
          <path fill="none" d="M-21.42,0 L21.42,0 " class="primitive"/>
        </g>
      </g>
      <g class="guide xgridlines yfixed" stroke-dasharray="0.5,0.5" stroke-width="0.2" stroke="#D0D0E0" id="img-d4078412-25">
        <g transform="translate(20.32,31.3)" id="img-d4078412-26">
          <path fill="none" d="M0,-26.3 L0,26.3 " class="primitive"/>
        </g>
        <g transform="translate(30.03,31.3)" id="img-d4078412-27">
          <path fill="none" d="M0,-26.3 L0,26.3 " class="primitive"/>
        </g>
        <g transform="translate(39.74,31.3)" id="img-d4078412-28">
          <path fill="none" d="M0,-26.3 L0,26.3 " class="primitive"/>
        </g>
        <g transform="translate(49.46,31.3)" id="img-d4078412-29">
          <path fill="none" d="M0,-26.3 L0,26.3 " class="primitive"/>
        </g>
        <g transform="translate(59.17,31.3)" id="img-d4078412-30">
          <path fill="none" d="M0,-26.3 L0,26.3 " class="primitive"/>
        </g>
      </g>
      <g class="plotpanel" id="img-d4078412-31">
        <metadata>
          <boundingbox value="18.32186143663195mm 5.0mm 42.84578179253473mm 52.608265516493034mm"/>
          <unitbox value="-0.04118851329972418 1.0411452657022167 0.8823770265994484 -1.0822905314044333"/>
        </metadata>
        <g stroke-width="0.3" fill="#000000" fill-opacity="0.000" class="geometry" id="img-d4078412-32">
          <g transform="translate(39.74,55.61)" id="img-d4078412-33" class="color_Source_terminated_in_2015" stroke="#FF0000" stroke-dasharray="none">
            <path fill="none" d="M-19.42,-0 L-19.03,-0 -18.64,-0 -18.25,-0 -17.85,-0 -17.46,-0 -17.07,-0 -16.68,-0 -16.28,-0 -15.89,-0 -15.5,-0 -15.11,-0 -14.71,-0 -14.32,-0 -13.93,-0 -13.54,-0 -13.14,-0 -12.75,-0 -12.36,-0 -11.97,-0 -11.58,-0 -11.18,-0 -10.79,-0 -10.4,-0 -10.01,-0 -9.61,-0 -9.22,-0 -8.83,-0 -8.44,-0 -8.04,-0 -7.65,-0 -7.26,-0 -6.87,-0 -6.47,-0 -6.08,-0 -5.69,-0 -5.3,-0 -4.9,-0 -4.51,-0 -4.12,-0 -3.73,-0 -3.34,-0 -2.94,-0 -2.55,-0 -2.16,-0 -1.77,-0 -1.37,-0 -0.98,-0 -0.59,-0 -0.2,-0 0.2,-0 0.59,-0 0.98,-0 1.37,-0 1.77,-0 2.16,-0 2.55,-0 2.94,-0 3.34,-0 3.73,-0 4.12,-0 4.51,-0 4.9,-0 5.3,-0 5.69,-0 6.08,-0 6.47,-0 6.87,-0 7.26,-0 7.65,-0 8.04,-0 8.44,-0 8.83,-0 9.22,-0 9.61,-0 10.01,-0 10.4,-0 10.79,-0 11.18,-0 11.58,-0 11.97,-0 12.36,-0 12.75,-0 13.14,-0 13.54,-0 13.93,-0 14.32,-0 14.71,-0 15.11,-0 15.5,-0 15.89,-0 16.28,-0 16.68,-0 17.07,-0 17.46,-0 17.85,-0 18.25,-0 18.64,-0 19.03,-0 19.42,-0 " class="primitive"/>
          </g>
          <g transform="translate(39.74,55.61)" id="img-d4078412-34" class="color_Source_terminated_in_2020" stroke="#0000FF" stroke-dasharray="none">
            <path fill="none" d="M-19.42,-0 L-19.03,-0 -18.64,-0 -18.25,-0 -17.85,-0 -17.46,-0 -17.07,-0 -16.68,-0 -16.28,-0 -15.89,-0 -15.5,-0 -15.11,-0 -14.71,-0 -14.32,-0 -13.93,-0 -13.54,-0 -13.14,-0 -12.75,-0 -12.36,-0 -11.97,-0 -11.58,-0 -11.18,-0 -10.79,-0 -10.4,-0 -10.01,-0 -9.61,-0 -9.22,-0 -8.83,-0 -8.44,-0 -8.04,-0 -7.65,-0 -7.26,-0 -6.87,-0 -6.47,-0 -6.08,-0 -5.69,-0 -5.3,-0 -4.9,-0 -4.51,-0 -4.12,-0 -3.73,-0 -3.34,-0 -2.94,-0 -2.55,-0 -2.16,-0 -1.77,-0 -1.37,-0 -0.98,-0 -0.59,-0 -0.2,-0 0.2,-0 0.59,-0 0.98,-0 1.37,-0 1.77,-0 2.16,-0 2.55,-0 2.94,-0 3.34,-0 3.73,-0 4.12,-0 4.51,-0 4.9,-0 5.3,-0 5.69,-0 6.08,-0 6.47,-0 6.87,-0 7.26,-0 7.65,-0 8.04,-0 8.44,-0 8.83,-0 9.22,-0 9.61,-0 10.01,-0 10.4,-0 10.79,-0 11.18,-0 11.58,-0 11.97,-0 12.36,-0 12.75,-0 13.14,-0 13.54,-0 13.93,-0 14.32,-0 14.71,-0 15.11,-0 15.5,-0 15.89,-0 16.28,-0 16.68,-0 17.07,-0 17.46,-0 17.85,-0 18.25,-0 18.64,-0 19.03,-0 19.42,-0 " class="primitive"/>
          </g>
          <g transform="translate(39.74,55.61)" id="img-d4078412-35" class="color_Source_terminated_in_2025" stroke="#008000" stroke-dasharray="none">
            <path fill="none" d="M-19.42,-0 L-19.03,-0 -18.64,-0 -18.25,-0 -17.85,-0 -17.46,-0 -17.07,-0 -16.68,-0 -16.28,-0 -15.89,-0 -15.5,-0 -15.11,-0 -14.71,-0 -14.32,-0 -13.93,-0 -13.54,-0 -13.14,-0 -12.75,-0 -12.36,-0 -11.97,-0 -11.58,-0 -11.18,-0 -10.79,-0 -10.4,-0 -10.01,-0 -9.61,-0 -9.22,-0 -8.83,-0 -8.44,-0 -8.04,-0 -7.65,-0 -7.26,-0 -6.87,-0 -6.47,-0 -6.08,-0 -5.69,-0 -5.3,-0 -4.9,-0 -4.51,-0 -4.12,-0 -3.73,-0 -3.34,-0 -2.94,-0 -2.55,-0 -2.16,-0 -1.77,-0 -1.37,-0 -0.98,-0 -0.59,-0 -0.2,-0 0.2,-0 0.59,-0 0.98,-0 1.37,-0 1.77,-0 2.16,-0 2.55,-0 2.94,-0 3.34,-0 3.73,-0 4.12,-0 4.51,-0 4.9,-0 5.3,-0 5.69,-0 6.08,-0 6.47,-0 6.87,-0 7.26,-0 7.65,-0 8.04,-0 8.44,-0 8.83,-0 9.22,-0 9.61,-0 10.01,-0 10.4,-0 10.79,-0 11.18,-0 11.58,-0 11.97,-0 12.36,-0 12.75,-0 13.14,-0 13.54,-0 13.93,-0 14.32,-0 14.71,-0 15.11,-0 15.5,-0 15.89,-0 16.28,-0 16.68,-0 17.07,-0 17.46,-0 17.85,-0 18.25,-0 18.64,-0 19.03,-0 19.42,-0 " class="primitive"/>
          </g>
          <g transform="translate(39.74,55.61)" id="img-d4078412-36" class="color_Source_terminated_in_2030" stroke="#00FFFF" stroke-dasharray="none">
            <path fill="none" d="M-19.42,-0 L-19.03,-0 -18.64,-0 -18.25,-0 -17.85,-0 -17.46,-0 -17.07,-0 -16.68,-0 -16.28,-0 -15.89,-0 -15.5,-0 -15.11,-0 -14.71,-0 -14.32,-0 -13.93,-0 -13.54,-0 -13.14,-0 -12.75,-0 -12.36,-0 -11.97,-0 -11.58,-0 -11.18,-0 -10.79,-0 -10.4,-0 -10.01,-0 -9.61,-0 -9.22,-0 -8.83,-0 -8.44,-0 -8.04,-0 -7.65,-0 -7.26,-0 -6.87,-0 -6.47,-0 -6.08,-0 -5.69,-0 -5.3,-0 -4.9,-0 -4.51,-0 -4.12,-0 -3.73,-0 -3.34,-0 -2.94,-0 -2.55,-0 -2.16,-0 -1.77,-0 -1.37,-0 -0.98,-0 -0.59,-0 -0.2,-0 0.2,-0 0.59,-0 0.98,-0 1.37,-0 1.77,-0 2.16,-0 2.55,-0 2.94,-0 3.34,-0 3.73,-0 4.12,-0 4.51,-0 4.9,-0 5.3,-0 5.69,-0 6.08,-0 6.47,-0 6.87,-0 7.26,-0 7.65,-0 8.04,-0 8.44,-0 8.83,-0 9.22,-0 9.61,-0 10.01,-0 10.4,-0 10.79,-0 11.18,-0 11.58,-0 11.97,-0 12.36,-0 12.75,-0 13.14,-0 13.54,-0 13.93,-0 14.32,-0 14.71,-0 15.11,-0 15.5,-0 15.89,-0 16.28,-0 16.68,-0 17.07,-0 17.46,-0 17.85,-0 18.25,-0 18.64,-0 19.03,-0 19.42,-0 " class="primitive"/>
          </g>
        </g>
      </g>
    </g>
  </g>
  <g class="guide ylabels" font-size="2.82" font-family="'PT Sans Caption','Helvetica Neue','Helvetica',sans-serif" fill="#6C606B" id="img-d4078412-37">
    <g transform="translate(17.32,55.61)" id="img-d4078412-38">
      <g class="primitive">
        <text text-anchor="end" dy="0.35em">0.0</text>
      </g>
    </g>
    <g transform="translate(17.32,31.3)" id="img-d4078412-39">
      <g class="primitive">
        <text text-anchor="end" dy="0.35em">0.5</text>
      </g>
    </g>
    <g transform="translate(17.32,7)" id="img-d4078412-40">
      <g class="primitive">
        <text text-anchor="end" dy="0.35em">1.0</text>
      </g>
    </g>
  </g>
  <g font-size="3.88" font-family="'PT Sans','Helvetica Neue','Helvetica',sans-serif" fill="#564A55" stroke="#000000" stroke-opacity="0.000" id="img-d4078412-41">
    <g transform="translate(8.77,29.3)" id="img-d4078412-42">
      <g class="primitive">
        <text text-anchor="middle" dy="0.35em" transform="rotate(-90,0, 2)">Maximum probability of failure</text>
      </g>
    </g>
  </g>
</g>
<defs>
  <clipPath id="img-d4078412-17">
    <path d="M18.32,5 L61.17,5 61.17,57.61 18.32,57.61 " />
  </clipPath>
</defs>
</svg>
