<?xml version="1.0" encoding="UTF-8" standalone="no"?>
<!-- Created with Inkscape (http://www.inkscape.org/) -->

<svg
   width="95.266403mm"
   height="95.267662mm"
   viewBox="0 0 95.266403 95.267662"
   version="1.1"
   id="svg1"
   xml:space="preserve"
   xmlns="http://www.w3.org/2000/svg"
   xmlns:svg="http://www.w3.org/2000/svg"><defs
     id="defs1" /><g
     id="layer1"
     transform="translate(-1912.8454,-164.11104)"><g
       id="g2"><path
         id="path4-6-8-0-7"
         style="font-variation-settings:normal;vector-effect:none;fill:#ffffff;fill-opacity:1;stroke:none;stroke-width:3.0023;stroke-linecap:square;stroke-linejoin:miter;stroke-miterlimit:4;stroke-dasharray:none;stroke-dashoffset:0;stroke-opacity:1;-inkscape-stroke:none;stop-color:#000000"
         d="m 1960.675,164.11443 a 47.437095,9.5257512 0 0 0 -0.196,0.001 v 19.04689 a 47.437095,9.5257512 0 0 0 0.196,0.003 47.437095,9.5257512 0 0 0 47.4372,-9.52582 47.437095,9.5257512 0 0 0 -47.4372,-9.52586 z" /><path
         id="path4-6-8-1-5-1"
         style="font-variation-settings:normal;vector-effect:none;fill:#ffffff;fill-opacity:1;stroke:none;stroke-width:3.0023;stroke-linecap:square;stroke-linejoin:miter;stroke-miterlimit:4;stroke-dasharray:none;stroke-dashoffset:0;stroke-opacity:1;-inkscape-stroke:none;stop-color:#000000"
         d="m 1960.675,164.11262 a 47.437095,9.5257512 0 0 0 -0.196,0.003 v 19.04611 a 47.437095,9.5257512 0 0 0 0.196,0.001 47.437095,9.5257512 0 0 0 47.4372,-9.52585 47.437095,9.5257512 0 0 0 -47.4372,-9.52583 z" /><path
         id="path4-6-8-1-3-6-9"
         style="font-variation-settings:normal;vector-effect:none;fill:#ffffff;fill-opacity:1;stroke:none;stroke-width:2.12305;stroke-linecap:square;stroke-linejoin:miter;stroke-miterlimit:4;stroke-dasharray:none;stroke-dashoffset:0;stroke-opacity:1;-inkscape-stroke:none;stop-color:#000000"
         d="m 1960.6096,168.87574 a 31.624744,7.1451167 0 0 0 -0.1306,0.001 v 14.28675 a 31.624744,7.1451167 0 0 0 0.1306,0.001 31.624744,7.1451167 0 0 0 31.6249,-7.14517 31.624744,7.1451167 0 0 0 -31.6249,-7.14524 z" /><path
         id="path4-6-8-5-11-8"
         style="font-variation-settings:normal;vector-effect:none;fill:#ffffff;fill-opacity:1;stroke:none;stroke-width:2.99255;stroke-linecap:square;stroke-linejoin:miter;stroke-miterlimit:4;stroke-dasharray:none;stroke-dashoffset:0;stroke-opacity:1;-inkscape-stroke:none;stop-color:#000000"
         d="m 1960.2831,183.16433 a 47.437095,9.5278998 0 0 1 0.1959,0.001 v 19.05117 a 47.437095,9.5278998 0 0 1 -0.1959,0.001 47.437095,9.5278998 0 0 1 -47.4373,-9.52796 47.437095,9.5278998 0 0 1 47.4373,-9.52802 z" /><path
         id="path4-6-8-5-3-5-5"
         style="font-variation-settings:normal;vector-effect:none;fill:#ffffff;fill-opacity:1;stroke:none;stroke-width:2.11585;stroke-linecap:square;stroke-linejoin:miter;stroke-miterlimit:4;stroke-dasharray:none;stroke-dashoffset:0;stroke-opacity:1;-inkscape-stroke:none;stop-color:#000000"
         d="m 1960.3484,183.16503 a 31.624731,7.144596 0 0 1 0.1307,0.001 v 14.28573 a 31.624731,7.144596 0 0 1 -0.1307,0.001 31.624731,7.144596 0 0 1 -31.6248,-7.14453 31.624731,7.144596 0 0 1 31.6248,-7.14466 z" /><path
         id="path4-6-8-8-6-5"
         style="font-variation-settings:normal;vector-effect:none;fill:#ffffff;fill-opacity:1;stroke:none;stroke-width:2.62522;stroke-linecap:square;stroke-linejoin:miter;stroke-miterlimit:4;stroke-dasharray:none;stroke-dashoffset:0;stroke-opacity:1;-inkscape-stroke:none;stop-color:#000000"
         d="m 1960.5443,173.63841 a 15.81243,4.7637639 0 0 0 -0.065,0.001 v 9.52523 a 15.81243,4.7637639 0 0 0 0.065,0.001 15.81243,4.7637639 0 0 0 15.8125,-4.76379 15.81243,4.7637639 0 0 0 -15.8125,-4.76388 z" /><path
         id="path4-6-8-80-9-1"
         style="font-variation-settings:normal;vector-effect:none;fill:#ffffff;fill-opacity:1;stroke:none;stroke-width:3.0023;stroke-linecap:square;stroke-linejoin:miter;stroke-miterlimit:4;stroke-dasharray:none;stroke-dashoffset:0;stroke-opacity:1;-inkscape-stroke:none;stop-color:#000000"
         d="m 1960.675,202.22037 a 47.437095,9.5257554 0 0 0 -0.196,0.003 v 19.04688 a 47.437095,9.5257554 0 0 0 0.196,0.003 47.437095,9.5257554 0 0 0 47.4372,-9.52584 47.437095,9.5257554 0 0 0 -47.4372,-9.52586 z" /><path
         id="path4-6-8-80-35-0-1"
         style="font-variation-settings:normal;vector-effect:none;fill:#ffffff;fill-opacity:1;stroke:none;stroke-width:2.12168;stroke-linecap:square;stroke-linejoin:miter;stroke-miterlimit:4;stroke-dasharray:none;stroke-dashoffset:0;stroke-opacity:1;-inkscape-stroke:none;stop-color:#000000"
         d="m 1960.6031,206.98061 a 31.631321,7.1342995 0 0 0 -0.1307,10e-4 v 14.26513 a 31.631321,7.1342995 0 0 0 0.1307,0.001 31.631321,7.1342995 0 0 0 31.6314,-7.13436 31.631321,7.1342995 0 0 0 -31.6314,-7.13438 z" /><path
         id="path4-6-8-8-8-4-2"
         style="font-variation-settings:normal;vector-effect:none;fill:#ffffff;fill-opacity:1;stroke:none;stroke-width:2.59831;stroke-linecap:square;stroke-linejoin:miter;stroke-miterlimit:4;stroke-dasharray:none;stroke-dashoffset:0;stroke-opacity:1;-inkscape-stroke:none;stop-color:#000000"
         d="m 1960.5429,211.74437 a 15.489796,4.7637639 0 0 0 -0.064,0.001 v 9.5252 a 15.489796,4.7637639 0 0 0 0.064,0.001 15.489796,4.7637639 0 0 0 15.4899,-4.7638 15.489796,4.7637639 0 0 0 -15.4899,-4.76386 z" /><path
         id="path4-6-8-8-1-72-2"
         style="font-variation-settings:normal;vector-effect:none;fill:#ffffff;fill-opacity:1;stroke:none;stroke-width:2.59149;stroke-linecap:square;stroke-linejoin:miter;stroke-miterlimit:4;stroke-dasharray:none;stroke-dashoffset:0;stroke-opacity:1;-inkscape-stroke:none;stop-color:#000000"
         d="m 1960.4151,183.16432 a 15.489796,4.7634106 0 0 1 0.064,0.001 v 9.5245 a 15.489796,4.7634106 0 0 1 -0.064,0.001 15.489796,4.7634106 0 0 1 -15.4898,-4.76344 15.489796,4.7634106 0 0 1 15.4898,-4.76352 z" /><path
         id="path4-6-8-5-2-33-9"
         style="font-variation-settings:normal;vector-effect:none;fill:#ffffff;fill-opacity:1;stroke:none;stroke-width:2.99226;stroke-linecap:square;stroke-linejoin:miter;stroke-miterlimit:4;stroke-dasharray:none;stroke-dashoffset:0;stroke-opacity:1;-inkscape-stroke:none;stop-color:#000000"
         d="m 1960.2831,221.27391 a 47.437095,9.52605 0 0 1 0.196,0.001 v 19.04749 a 47.437095,9.52605 0 0 1 -0.196,0.001 47.437095,9.52605 0 0 1 -47.4372,-9.52612 47.437095,9.52605 0 0 1 47.4372,-9.52614 z" /><path
         id="path4-6-8-5-2-7-0-4"
         style="font-variation-settings:normal;vector-effect:none;fill:#ffffff;fill-opacity:1;stroke:none;stroke-width:2.11613;stroke-linecap:square;stroke-linejoin:miter;stroke-miterlimit:4;stroke-dasharray:none;stroke-dashoffset:0;stroke-opacity:1;-inkscape-stroke:none;stop-color:#000000"
         d="m 1960.3484,221.27389 a 31.624746,7.1464992 0 0 1 0.1307,0.001 v 14.28952 a 31.624746,7.1464992 0 0 1 -0.1307,0.001 31.624746,7.1464992 0 0 1 -31.6249,-7.14658 31.624746,7.1464992 0 0 1 31.6249,-7.14657 z" /><path
         id="path4-6-8-8-1-3-3-3"
         style="font-variation-settings:normal;vector-effect:none;fill:#ffffff;fill-opacity:1;stroke:none;stroke-width:2.59158;stroke-linecap:square;stroke-linejoin:miter;stroke-miterlimit:4;stroke-dasharray:none;stroke-dashoffset:0;stroke-opacity:1;-inkscape-stroke:none;stop-color:#000000"
         d="m 1960.4151,221.2721 a 15.489796,4.7637639 0 0 1 0.064,0.001 v 9.52522 a 15.489796,4.7637639 0 0 1 -0.064,0.001 15.489796,4.7637639 0 0 1 -15.4898,-4.7638 15.489796,4.7637639 0 0 1 15.4898,-4.76388 z" /><path
         id="path4-6-8-80-4-34-4"
         style="font-variation-settings:normal;vector-effect:none;fill:#ffffff;fill-opacity:1;stroke:none;stroke-width:3.0024;stroke-linecap:square;stroke-linejoin:miter;stroke-miterlimit:4;stroke-dasharray:none;stroke-dashoffset:0;stroke-opacity:1;-inkscape-stroke:none;stop-color:#000000"
         d="m 1960.675,240.32625 a 47.437095,9.5263671 0 0 0 -0.196,0.001 v 19.04812 a 47.437095,9.5263671 0 0 0 0.196,0.001 47.437095,9.5263671 0 0 0 47.4372,-9.52645 47.437095,9.5263671 0 0 0 -47.4372,-9.52647 z" /><path
         id="path4-6-8-80-4-2-2-1"
         style="font-variation-settings:normal;vector-effect:none;fill:#ffffff;fill-opacity:1;stroke:none;stroke-width:2.12328;stroke-linecap:square;stroke-linejoin:miter;stroke-miterlimit:4;stroke-dasharray:none;stroke-dashoffset:0;stroke-opacity:1;-inkscape-stroke:none;stop-color:#000000"
         d="m 1960.6096,245.08585 a 31.624744,7.1465304 0 0 0 -0.1306,0.001 v 14.28958 a 31.624744,7.1465304 0 0 0 0.1306,9.6e-4 31.624744,7.1465304 0 0 0 31.6249,-7.14658 31.624744,7.1465304 0 0 0 -31.6249,-7.14661 z" /><path
         id="path4-6-8-8-8-8-7-6"
         style="font-variation-settings:normal;vector-effect:none;fill:#ffffff;fill-opacity:1;stroke:none;stroke-width:2.59871;stroke-linecap:square;stroke-linejoin:miter;stroke-miterlimit:4;stroke-dasharray:none;stroke-dashoffset:0;stroke-opacity:1;-inkscape-stroke:none;stop-color:#000000"
         d="m 1960.5429,249.84858 a 15.489796,4.7652408 0 0 0 -0.064,0.001 v 9.52817 a 15.489796,4.7652408 0 0 0 0.064,9.6e-4 15.489796,4.7652408 0 0 0 15.4899,-4.7653 15.489796,4.7652408 0 0 0 -15.4899,-4.76535 z" /></g></g></svg>
