<?xml version="1.0" encoding="UTF-8" standalone="no"?>
<!-- Created with Inkscape (http://www.inkscape.org/) -->

<svg
   width="450.53009mm"
   height="100.0001mm"
   viewBox="0 0 450.53009 100.0001"
   version="1.1"
   id="svg1"
   xml:space="preserve"
   xmlns="http://www.w3.org/2000/svg"
   xmlns:svg="http://www.w3.org/2000/svg"><defs
     id="defs1" /><g
     id="layer1"
     transform="translate(-6268.5082,4266.6708)"><path
       id="path3-90-5-8-03-4-7-5-2-3-22-0-5-38-1-2-4-3-7-7"
       style="font-variation-settings:normal;vector-effect:none;fill:#56cfe1;fill-opacity:1;stroke:none;stroke-width:0.168488;stroke-linecap:square;stroke-linejoin:miter;stroke-miterlimit:4;stroke-dasharray:none;stroke-dashoffset:0;stroke-opacity:1;-inkscape-stroke:none;stop-color:#000000"
       d="m 6337.0449,-4195.9122 a 3.4265324,29.241487 0 0 1 -3.4271,29.2416 3.4265324,29.241487 0 0 1 -3.4266,-29.2416 z" /><path
       id="path3-90-5-8-03-4-7-5-2-3-22-0-5-4-0-1-5-8-9-6"
       style="font-variation-settings:normal;vector-effect:none;fill:#48bfe3;fill-opacity:1;stroke:none;stroke-width:0.168488;stroke-linecap:square;stroke-linejoin:miter;stroke-miterlimit:4;stroke-dasharray:none;stroke-dashoffset:0;stroke-opacity:1;-inkscape-stroke:none;stop-color:#000000"
       d="m 6343.8985,-4195.9122 a 3.4265324,55.262034 0 0 0 -3.4271,-55.2621 3.4265324,55.262034 0 0 0 -3.4265,55.2621 z" /><path
       id="path3-90-5-8-03-4-7-5-2-3-22-0-5-5-1-8-1-4-0-2"
       style="font-variation-settings:normal;vector-effect:none;fill:#48bfe3;fill-opacity:1;stroke:none;stroke-width:0.168488;stroke-linecap:square;stroke-linejoin:miter;stroke-miterlimit:4;stroke-dasharray:none;stroke-dashoffset:0;stroke-opacity:1;-inkscape-stroke:none;stop-color:#000000"
       d="m 6350.7522,-4195.9122 a 3.4265324,29.241553 0 0 1 -3.4271,29.2416 3.4265324,29.241553 0 0 1 -3.4266,-29.2416 z" /><path
       id="path3-90-5-8-03-4-7-5-2-3-22-8-4-1-6-1-7"
       style="font-variation-settings:normal;vector-effect:none;fill:#80ffdb;fill-opacity:1;stroke:none;stroke-width:0.102681;stroke-linecap:square;stroke-linejoin:miter;stroke-miterlimit:4;stroke-dasharray:none;stroke-dashoffset:0;stroke-opacity:1;-inkscape-stroke:none;stop-color:#000000"
       d="m 6275.362,-4195.9122 a 3.4265324,13.831984 0 0 0 -3.4271,-13.832 3.4265324,13.831984 0 0 0 -3.4266,13.832 z" /><path
       id="path3-90-5-8-03-4-7-5-2-3-22-0-7-2-0-3-9-2"
       style="font-variation-settings:normal;vector-effect:none;fill:#72efdd;fill-opacity:1;stroke:none;stroke-width:0.162821;stroke-linecap:square;stroke-linejoin:miter;stroke-miterlimit:4;stroke-dasharray:none;stroke-dashoffset:0;stroke-opacity:1;-inkscape-stroke:none;stop-color:#000000"
       d="m 6289.0693,-4195.9122 a 3.4265324,26.731582 0 0 0 -3.4271,-26.7316 3.4265324,26.731582 0 0 0 -3.4266,26.7316 z" /><path
       id="path3-90-5-8-03-4-7-5-2-3-22-0-5-6-1-7-0-2-6"
       style="font-variation-settings:normal;vector-effect:none;fill:#72efdd;fill-opacity:1;stroke:none;stroke-width:0.162821;stroke-linecap:square;stroke-linejoin:miter;stroke-miterlimit:4;stroke-dasharray:none;stroke-dashoffset:0;stroke-opacity:1;-inkscape-stroke:none;stop-color:#000000"
       d="m 6302.7765,-4195.9122 a 3.4265324,29.175357 0 0 0 -3.4271,-29.1754 3.4265324,29.175357 0 0 0 -3.4264,29.1754 z" /><path
       id="path3-90-5-8-03-4-7-5-2-3-22-0-5-8-00-0-0-1-9-3"
       style="font-variation-settings:normal;vector-effect:none;fill:#64dfdf;fill-opacity:1;stroke:none;stroke-width:0.168488;stroke-linecap:square;stroke-linejoin:miter;stroke-miterlimit:4;stroke-dasharray:none;stroke-dashoffset:0;stroke-opacity:1;-inkscape-stroke:none;stop-color:#000000"
       d="m 6316.4839,-4195.9122 a 3.4265324,43.619077 0 0 0 -3.4271,-43.6192 3.4265324,43.619077 0 0 0 -3.4266,43.6192 z" /><path
       id="path3-90-5-8-03-4-7-5-2-3-22-0-5-3-9-6-4-6-6-1"
       style="font-variation-settings:normal;vector-effect:none;fill:#56cfe1;fill-opacity:1;stroke:none;stroke-width:0.168488;stroke-linecap:square;stroke-linejoin:miter;stroke-miterlimit:4;stroke-dasharray:none;stroke-dashoffset:0;stroke-opacity:1;-inkscape-stroke:none;stop-color:#000000"
       d="m 6323.3375,-4195.9122 a 3.4265324,29.241553 0 0 1 -3.4271,29.2416 3.4265324,29.241553 0 0 1 -3.4265,-29.2416 z" /><path
       id="path3-90-5-8-03-4-7-5-2-3-22-0-5-1-5-0-5-5-9-1"
       style="font-variation-settings:normal;vector-effect:none;fill:#56cfe1;fill-opacity:1;stroke:none;stroke-width:0.168488;stroke-linecap:square;stroke-linejoin:miter;stroke-miterlimit:4;stroke-dasharray:none;stroke-dashoffset:0;stroke-opacity:1;-inkscape-stroke:none;stop-color:#000000"
       d="m 6330.1912,-4195.9122 a 3.4265324,46.263452 0 0 0 -3.4271,-46.2637 3.4265324,46.263452 0 0 0 -3.4266,46.2637 z" /><path
       id="path3-90-5-8-03-4-7-5-2-3-22-0-5-38-2-6-37-1-9-1-4"
       style="font-variation-settings:normal;vector-effect:none;fill:#4ea8de;fill-opacity:1;stroke:none;stroke-width:0.168489;stroke-linecap:square;stroke-linejoin:miter;stroke-miterlimit:4;stroke-dasharray:none;stroke-dashoffset:0;stroke-opacity:1;-inkscape-stroke:none;stop-color:#000000"
       d="m 6364.4594,-4195.9122 a 3.4265324,29.241468 0 0 1 -3.4268,29.2416 3.4265324,29.241468 0 0 1 -3.4267,-29.2416 z" /><path
       id="path3-90-5-8-03-4-7-5-2-3-22-0-5-4-2-2-8-4-5-6-8"
       style="font-variation-settings:normal;vector-effect:none;fill:#4ea8de;fill-opacity:1;stroke:none;stroke-width:0.168489;stroke-linecap:square;stroke-linejoin:miter;stroke-miterlimit:4;stroke-dasharray:none;stroke-dashoffset:0;stroke-opacity:1;-inkscape-stroke:none;stop-color:#000000"
       d="m 6371.3131,-4195.9122 a 3.4265324,70.758264 0 0 0 -3.427,-70.7584 3.4265324,70.758264 0 0 0 -3.4267,70.7584 z" /><path
       id="path3-90-5-8-03-4-7-5-2-3-22-0-5-5-6-85-4-2-8-0-4"
       style="font-variation-settings:normal;vector-effect:none;fill:#5390d9;fill-opacity:1;stroke:none;stroke-width:0.168488;stroke-linecap:square;stroke-linejoin:miter;stroke-miterlimit:4;stroke-dasharray:none;stroke-dashoffset:0;stroke-opacity:1;-inkscape-stroke:none;stop-color:#000000"
       d="m 6378.1669,-4195.9122 a 3.4265324,29.241553 0 0 1 -3.4271,29.2416 3.4265324,29.241553 0 0 1 -3.4267,-29.2416 z" /><path
       id="path3-90-5-8-03-4-7-5-2-3-22-0-5-1-6-9-7-4-5-1-5"
       style="font-variation-settings:normal;vector-effect:none;fill:#4ea8de;fill-opacity:1;stroke:none;stroke-width:0.168489;stroke-linecap:square;stroke-linejoin:miter;stroke-miterlimit:4;stroke-dasharray:none;stroke-dashoffset:0;stroke-opacity:1;-inkscape-stroke:none;stop-color:#000000"
       d="m 6357.6059,-4195.9122 a 3.4265324,66.54334 0 0 0 -3.427,-66.5436 3.4265324,66.54334 0 0 0 -3.4267,66.5436 z" /><path
       id="path3-90-5-8-03-4-7-5-2-3-22-0-5-38-7-4-9-0-9-0-7"
       style="font-variation-settings:normal;vector-effect:none;fill:#5e60ce;fill-opacity:1;stroke:none;stroke-width:0.168488;stroke-linecap:square;stroke-linejoin:miter;stroke-miterlimit:4;stroke-dasharray:none;stroke-dashoffset:0;stroke-opacity:1;-inkscape-stroke:none;stop-color:#000000"
       d="m 6391.8741,-4195.9122 a 3.4265324,29.241468 0 0 1 -3.4271,29.2416 3.4265324,29.241468 0 0 1 -3.4266,-29.2416 z" /><path
       id="path3-90-5-8-03-4-7-5-2-3-22-0-5-4-1-3-5-6-1-2-3"
       style="font-variation-settings:normal;vector-effect:none;fill:#5e60ce;fill-opacity:1;stroke:none;stroke-width:0.168488;stroke-linecap:square;stroke-linejoin:miter;stroke-miterlimit:4;stroke-dasharray:none;stroke-dashoffset:0;stroke-opacity:1;-inkscape-stroke:none;stop-color:#000000"
       d="m 6398.7278,-4195.9122 a 3.4265324,64.47687 0 0 0 -3.4271,-64.477 3.4265324,64.47687 0 0 0 -3.4266,64.477 z" /><path
       id="path3-90-5-8-03-4-7-5-2-3-22-0-5-5-8-9-3-7-4-1-7"
       style="font-variation-settings:normal;vector-effect:none;fill:#5e60ce;fill-opacity:1;stroke:none;stroke-width:0.168488;stroke-linecap:square;stroke-linejoin:miter;stroke-miterlimit:4;stroke-dasharray:none;stroke-dashoffset:0;stroke-opacity:1;-inkscape-stroke:none;stop-color:#000000"
       d="m 6405.5814,-4195.9122 a 3.4265324,29.241554 0 0 1 -3.4271,29.2416 3.4265324,29.241554 0 0 1 -3.4265,-29.2416 z" /><path
       id="path3-90-5-8-03-4-7-5-2-3-22-0-5-1-7-0-3-1-0-5-5"
       style="font-variation-settings:normal;vector-effect:none;fill:#5390d9;fill-opacity:1;stroke:none;stroke-width:0.168488;stroke-linecap:square;stroke-linejoin:miter;stroke-miterlimit:4;stroke-dasharray:none;stroke-dashoffset:0;stroke-opacity:1;-inkscape-stroke:none;stop-color:#000000"
       d="m 6385.0204,-4195.9122 a 3.4265324,70.157057 0 0 0 -3.4271,-70.1574 3.4265324,70.157057 0 0 0 -3.4264,70.1574 z" /><path
       id="path3-90-5-8-03-4-7-5-2-3-22-0-1-56-6-5-6-0-36"
       style="font-variation-settings:normal;vector-effect:none;fill:#72efdd;fill-opacity:1;stroke:none;stroke-width:0.162821;stroke-linecap:square;stroke-linejoin:miter;stroke-miterlimit:4;stroke-dasharray:none;stroke-dashoffset:0;stroke-opacity:1;-inkscape-stroke:none;stop-color:#000000"
       d="m 6295.923,-4195.9122 a 3.4265324,28.830222 0 0 1 -3.4271,28.8303 3.4265324,28.830222 0 0 1 -3.4266,-28.8303 z" /><path
       id="path3-90-5-8-03-4-7-5-2-3-22-0-1-7-3-0-9-2-4-8"
       style="font-variation-settings:normal;vector-effect:none;fill:#64dfdf;fill-opacity:1;stroke:none;stroke-width:0.168488;stroke-linecap:square;stroke-linejoin:miter;stroke-miterlimit:4;stroke-dasharray:none;stroke-dashoffset:0;stroke-opacity:1;-inkscape-stroke:none;stop-color:#000000"
       d="m 6309.6302,-4195.9122 a 3.4265324,28.559949 0 0 1 -3.4271,28.56 3.4265324,28.559949 0 0 1 -3.4266,-28.56 z" /><path
       id="path3-90-5-8-03-4-7-5-2-3-22-5-6-8-1-3-7-1"
       style="font-variation-settings:normal;vector-effect:none;fill:#80ffdb;fill-opacity:1;stroke:none;stroke-width:0.102681;stroke-linecap:square;stroke-linejoin:miter;stroke-miterlimit:4;stroke-dasharray:none;stroke-dashoffset:0;stroke-opacity:1;-inkscape-stroke:none;stop-color:#000000"
       d="m 6282.2156,-4195.9122 a 3.4265324,22.379919 0 0 1 -3.4271,22.38 3.4265324,22.379919 0 0 1 -3.4265,-22.38 z" /><path
       id="path3-90-5-8-03-4-7-5-2-3-22-9-97-0-3-3-7"
       style="font-variation-settings:normal;vector-effect:none;fill:#6930c3;fill-opacity:1;stroke:none;stroke-width:0.214477;stroke-linecap:square;stroke-linejoin:miter;stroke-miterlimit:4;stroke-dasharray:none;stroke-dashoffset:0;stroke-opacity:1;-inkscape-stroke:none;stop-color:#000000"
       d="m 6412.4351,-4195.9122 a 3.4265324,49.986035 0 0 0 -3.4271,-49.9862 3.4265324,49.986035 0 0 0 -3.4266,49.9862 z" /><path
       id="path3-90-5-8-03-4-7-5-2-3-22-0-8-5-0-5-5-0"
       style="font-variation-settings:normal;vector-effect:none;fill:#7400b8;fill-opacity:1;stroke:none;stroke-width:0.102679;stroke-linecap:square;stroke-linejoin:miter;stroke-miterlimit:4;stroke-dasharray:none;stroke-dashoffset:0;stroke-opacity:1;-inkscape-stroke:none;stop-color:#000000"
       d="m 6426.1423,-4195.9122 a 3.4265324,22.375677 0 0 0 -3.4271,-22.3757 3.4265324,22.375677 0 0 0 -3.4264,22.3757 z" /><path
       id="path3-90-5-8-03-4-7-5-2-3-22-0-1-5-2-4-1-8-0"
       style="font-variation-settings:normal;vector-effect:none;fill:#7400b8;fill-opacity:1;stroke:none;stroke-width:0.102679;stroke-linecap:square;stroke-linejoin:miter;stroke-miterlimit:4;stroke-dasharray:none;stroke-dashoffset:0;stroke-opacity:1;-inkscape-stroke:none;stop-color:#000000"
       d="m 6432.9961,-4195.9122 a 3.4265324,13.833419 0 0 1 -3.4272,13.8335 3.4265324,13.833419 0 0 1 -3.4266,-13.8335 z" /><path
       id="path3-90-5-8-03-4-7-5-2-3-22-5-2-3-4-5-1-2"
       style="font-variation-settings:normal;vector-effect:none;fill:#6930c3;fill-opacity:1;stroke:none;stroke-width:0.214477;stroke-linecap:square;stroke-linejoin:miter;stroke-miterlimit:4;stroke-dasharray:none;stroke-dashoffset:0;stroke-opacity:1;-inkscape-stroke:none;stop-color:#000000"
       d="m 6419.2888,-4195.9122 a 3.4265324,26.732585 0 0 1 -3.4271,26.7327 3.4265324,26.732585 0 0 1 -3.4266,-26.7327 z" /><g
       id="text4-90-4-5-9-8-8-8-2-1-9-5-0-3-1-4-0-8-1-8-2-1-6-6-2-6-6"
       style="font-weight:500;font-size:72.1518px;line-height:0;font-family:'Reem Kufi';-inkscape-font-specification:'Reem Kufi Medium';letter-spacing:-3.4581px;fill:#ffffff;stroke-width:5.38248;stroke-linecap:square"
       aria-label="EnviCloud"><path
         style="font-weight:600;font-family:'Titillium Web';-inkscape-font-specification:'Titillium Web Semi-Bold'"
         d="m 6457.158,-4178.7056 v -49.424 h 31.1696 v 6.9988 h -23.1607 v 13.9974 h 18.8316 v 6.9266 h -18.8316 v 14.4304 h 23.1607 v 7.0708 z m 43.3684,0 h -7.8646 v -36.0759 h 7.7924 v 2.2367 q 5.2671,-3.0303 9.957,-3.0303 7.2152,0 9.8126,4.1126 2.6696,4.0405 2.6696,13.4203 v 19.3366 h -7.7924 v -19.1202 q 0,-5.8443 -1.2987,-8.2975 -1.2266,-2.4531 -5.1228,-2.4531 -3.6797,0 -7.0708,1.443 l -1.0823,0.4329 z m 24.3204,-36.0759 h 8.2253 l 6.9265,29.3658 h 2.3089 l 7.2152,-29.3658 h 8.0088 l -9.3797,36.0759 h -13.9975 z m 35.3595,36.0759 v -36.0759 h 7.8645 v 36.0759 z m 0,-42.2088 v -8.2974 h 7.8645 v 8.2974 z"
         id="path118" /><path
         style="font-weight:300;font-family:'Titillium Web';-inkscape-font-specification:'Titillium Web Light'"
         d="m 6605.5949,-4179.4992 q -7.4317,1.5152 -12.6987,1.5152 -5.2671,0 -8.5139,-1.0823 -3.1747,-1.1545 -5.195,-3.1747 -2.0202,-2.0203 -3.1747,-5.2671 -2.1645,-5.9164 -2.1645,-16.0898 0,-16.3063 5.1949,-21.5734 4.257,-4.4013 12.9873,-4.4013 5.9886,0 13.5646,1.5152 l -0.2165,3.8962 q -7.5038,-1.3709 -12.0493,-1.3709 -4.5456,0 -7.0709,1.0101 -2.4532,0.938 -4.0405,2.5975 -1.5152,1.5873 -2.3089,4.4734 -1.443,4.9063 -1.443,12.2658 0,7.3595 0.5051,11.0392 0.505,3.6076 1.9481,6.5659 1.443,2.9582 4.2569,4.2569 2.8139,1.2988 7.7924,1.2988 4.9785,0 12.4101,-1.3709 z m 5.4166,0.7936 v -52.0936 h 4.257 v 52.0936 z m 10.5394,-18.1101 q 0,-10.1734 3.3911,-14.4303 3.4633,-4.257 11.6886,-4.257 8.2975,0 11.6886,4.257 3.4633,4.2569 3.4633,14.4303 0,10.1734 -3.1747,14.5025 -3.1025,4.3292 -11.905,4.3292 -8.8026,0 -11.9772,-4.3292 -3.1747,-4.3291 -3.1747,-14.5025 z m 4.4734,-0.072 q 0,8.5139 1.9481,11.8329 2.0203,3.2468 8.6582,3.2468 6.7101,0 8.7304,-3.319 2.0202,-3.319 2.0202,-11.7607 0,-8.5139 -2.3088,-11.6165 -2.2367,-3.1746 -8.3696,-3.1746 -6.1329,0 -8.4418,3.1025 -2.2367,3.1025 -2.2367,11.6886 z m 54.4077,-17.8937 h 4.2569 v 36.0759 h -4.2569 v -2.6696 q -5.5557,3.3912 -11.1114,3.3912 -7.3595,0 -9.7405,-3.7519 -2.3088,-3.7519 -2.3088,-14.2139 v -18.8317 h 4.2569 v 18.7595 q 0,8.3696 1.5152,11.2557 1.5873,2.8861 6.7823,2.8861 2.5253,0 5.1949,-0.7216 2.6696,-0.7936 4.0405,-1.5873 l 1.3709,-0.7215 z m 38.6064,-16.0177 v 52.0936 h -4.3292 v -2.6696 q -5.6999,3.3912 -11.5442,3.3912 -2.6697,0 -4.6178,-0.6494 -1.9481,-0.5772 -3.9683,-2.381 -4.1127,-3.6798 -4.1127,-14.3582 0,-10.7507 3.4633,-15.4405 3.4633,-4.6899 11.6886,-4.6899 3.1747,0 9.0911,0.938 v -16.2342 z m -21.2848,46.5379 q 1.3709,1.3709 2.6696,1.876 1.3709,0.5051 3.4633,0.5051 2.1645,0 4.9063,-0.7937 2.8139,-0.7937 4.4013,-1.5152 l 1.5151,-0.7937 v -25.8303 q -5.7721,-0.8658 -8.9468,-0.8658 -6.1329,0 -8.5139,3.7519 -2.3088,3.7518 -2.3088,11.6164 0,9.2354 2.8139,12.0493 z"
         id="path119" /></g></g></svg>
