<?xml version="1.0" encoding="UTF-8" standalone="no"?>
<!-- Created with Inkscape (http://www.inkscape.org/) -->

<svg
   width="320.20987mm"
   height="101.99992mm"
   viewBox="0 0 320.20987 101.99992"
   version="1.1"
   id="svg1"
   xml:space="preserve"
   xmlns="http://www.w3.org/2000/svg"
   xmlns:svg="http://www.w3.org/2000/svg"><defs
     id="defs1" /><g
     id="layer1"
     transform="translate(-21086.56,-707.63568)"><path
       style="font-weight:600;font-size:73.7306px;line-height:0;font-family:'Titillium Web';-inkscape-font-specification:'Titillium Web Semi-Bold';letter-spacing:-3.37645px;fill:#ffffff;fill-opacity:1;stroke-width:4.07245;stroke-linecap:square"
       d="m 21231.615,786.89478 v -50.50546 h 14.23 l 11.281,39.44587 11.28,-39.44587 h 14.304 v 50.50546 h -8.258 v -41.43659 h -1.106 l -11.944,39.37214 h -8.553 l -11.944,-39.37214 h -1.106 v 41.43659 z m 54.944,0 12.461,-50.50546 h 16.294 l 12.535,50.50546 h -8.258 l -2.728,-10.83839 h -19.391 l -2.729,10.83839 z m 18.802,-43.64851 -6.267,25.58452 h 16.147 l -6.194,-25.58452 z m 43.811,43.64851 h -17.474 v -50.50546 h 17.474 q 11.649,0 15.926,5.89845 4.276,5.89845 4.276,18.50638 0,6.41456 -0.885,10.91213 -0.811,4.42384 -2.949,8.03664 -4.203,7.15186 -16.368,7.15186 z m 11.723,-26.10063 q 0,-9.14259 -2.286,-13.19778 -2.285,-4.05518 -9.437,-4.05518 h -9.29 v 36.128 h 9.29 q 7.299,0 9.732,-5.38234 1.18,-2.72803 1.549,-5.82472 0.442,-3.09668 0.442,-7.66798 z m 29.507,-18.06399 q -9.363,0 -9.363,6.56202 0,3.39161 2.212,4.86622 2.212,1.40088 9.732,3.53907 7.594,2.06445 10.691,5.01368 3.097,2.87549 3.097,9.14259 0,7.96291 -4.572,11.94436 -4.497,3.90772 -12.313,3.90772 -6.267,0 -13.861,-1.47461 l -2.654,-0.51612 0.811,-6.56202 q 9.953,1.32715 15.188,1.32715 9.143,0 9.143,-8.11036 0,-3.17042 -2.065,-4.64503 -2.064,-1.54834 -9.29,-3.31788 -7.225,-1.84326 -10.764,-5.01368 -3.539,-3.17042 -3.539,-10.02736 0,-6.85695 4.423,-10.32228 4.498,-3.53907 12.387,-3.53907 5.677,0 13.419,1.32715 l 2.581,0.44238 -0.664,6.63575 q -10.322,-1.17968 -14.599,-1.17968 z"
       id="text4-90-4-5-9-8-8-8-2-1-9-5-4-3-5-3-8-3-5-1-0-2-1-1-4-0"
       aria-label="MADS" /><path
       id="path3-90-5-8-03-4-7-9-6-2-0-7-5-7-1-3-4-0-4-3-48-3-6-0-5-8-7-71-5-3"
       style="font-variation-settings:normal;fill:none;fill-opacity:1;stroke:#00ffd0;stroke-width:2;stroke-linecap:square;stroke-linejoin:miter;stroke-miterlimit:4;stroke-dasharray:none;stroke-dashoffset:0;stroke-opacity:1"
       d="m 21187.563,758.63572 a 49.999688,50.000043 0 0 1 -50.006,49.99996 49.999688,50.000043 0 0 1 -49.994,-49.99996 z" /><path
       id="path3-90-5-8-03-4-7-9-6-2-0-7-5-7-1-3-4-0-4-8-3-9-1-5-3-1-5-9-3"
       style="font-variation-settings:normal;fill:none;fill-opacity:1;stroke:#00d3e0;stroke-width:2;stroke-linecap:square;stroke-linejoin:miter;stroke-miterlimit:4;stroke-dasharray:none;stroke-dashoffset:0;stroke-opacity:1"
       d="m 21167.645,758.63572 a 40.039806,37.037069 0 0 1 -40.047,37.03696 40.039806,37.037069 0 0 1 -40.035,-37.03696 z" /><path
       id="path3-90-5-8-03-4-7-9-6-2-0-7-5-7-1-3-4-0-45-2-1-7-1-9-3-5-7-5"
       style="font-variation-settings:normal;fill:none;fill-opacity:1;stroke:#3aa7ef;stroke-width:2;stroke-linecap:square;stroke-linejoin:miter;stroke-miterlimit:4;stroke-dasharray:none;stroke-dashoffset:0;stroke-opacity:1"
       d="m 21147.624,758.63572 a 30.029854,27.777801 0 0 1 -30.036,27.77766 30.029854,27.777801 0 0 1 -30.025,-27.77766 z" /><path
       id="path3-90-5-8-03-4-7-9-6-2-0-7-5-7-1-3-4-7-9-6-1-38-0-8-8-5-0"
       style="font-variation-settings:normal;fill:none;fill-opacity:1;stroke:#007bff;stroke-width:2;stroke-linecap:square;stroke-linejoin:miter;stroke-miterlimit:4;stroke-dasharray:none;stroke-dashoffset:0;stroke-opacity:1"
       d="m 21127.603,758.63572 a 20.019902,18.518535 0 0 1 -20.024,18.51846 20.019902,18.518535 0 0 1 -20.016,-18.51846 z" /><path
       id="path3-90-5-8-03-4-7-9-6-2-0-7-5-7-1-3-4-0-4-3-4-9-7-01-9-4-5-4-5-3-2"
       style="font-variation-settings:normal;fill:none;fill-opacity:1;stroke:#00ffd0;stroke-width:2;stroke-linecap:square;stroke-linejoin:miter;stroke-miterlimit:4;stroke-dasharray:none;stroke-dashoffset:0;stroke-opacity:1;stop-color:#000000"
       d="m 21207.685,758.63572 a 49.999688,50.000043 0 0 0 -50.007,-50 49.999688,50.000043 0 0 0 -49.993,50 z" /><path
       id="path3-90-5-8-03-4-7-9-6-2-0-7-5-7-1-3-4-0-4-5-8-9-0-0-8-2-8-6-9-3"
       style="font-variation-settings:normal;fill:none;fill-opacity:1;stroke:#00d3e0;stroke-width:2;stroke-linecap:square;stroke-linejoin:miter;stroke-miterlimit:4;stroke-dasharray:none;stroke-dashoffset:0;stroke-opacity:1;stop-color:#000000"
       d="m 21187.766,758.63572 a 40.039806,37.037069 0 0 0 -40.046,-37.0371 40.039806,37.037069 0 0 0 -40.035,37.0371 z" /><path
       id="path3-90-5-8-03-4-7-9-6-2-0-7-5-7-1-3-4-0-17-4-7-2-4-5-2-0-79-0-2"
       style="font-variation-settings:normal;fill:none;fill-opacity:1;stroke:#3aa7ef;stroke-width:2;stroke-linecap:square;stroke-linejoin:miter;stroke-miterlimit:4;stroke-dasharray:none;stroke-dashoffset:0;stroke-opacity:1;stop-color:#000000"
       d="m 21167.745,758.63572 a 30.029854,27.777801 0 0 0 -30.036,-27.7778 30.029854,27.777801 0 0 0 -30.024,27.7778 z" /><path
       id="path3-90-5-8-03-4-7-9-6-2-0-7-5-7-1-3-4-8-5-1-15-7-45-7-4-41-5-7"
       style="font-variation-settings:normal;fill:none;fill-opacity:1;stroke:#007bff;stroke-width:2;stroke-linecap:square;stroke-linejoin:miter;stroke-miterlimit:4;stroke-dasharray:none;stroke-dashoffset:0;stroke-opacity:1;stop-color:#000000"
       d="m 21147.725,758.63572 a 20.019902,18.518535 0 0 0 -20.024,-18.5186 20.019902,18.518535 0 0 0 -20.016,18.5186 z" /></g></svg>
