<?xml version="1.0" encoding="UTF-8"?>
<svg xmlns="http://www.w3.org/2000/svg"
     xmlns:xlink="http://www.w3.org/1999/xlink"
     xmlns:gadfly="http://www.gadflyjl.org/ns"
     version="1.2"
     width="141.42mm" height="100mm" viewBox="0 0 141.42 100"
     stroke="none"
     fill="#000000"
     stroke-width="0.3"
     font-size="3.88"
>
<g class="plotroot xscalable yscalable" id="img-15069ec6-1">
  <g font-size="3.88" font-family="'PT Sans','Helvetica Neue','Helvetica',sans-serif" fill="#564A55" stroke="#000000" stroke-opacity="0.000" id="img-15069ec6-2">
    <text x="64.34" y="89.28" text-anchor="middle" dy="0.6em">X</text>
  </g>
  <g class="guide xlabels" font-size="2.82" font-family="'PT Sans Caption','Helvetica Neue','Helvetica',sans-serif" fill="#6C606B" id="img-15069ec6-3">
    <text x="16.54" y="83.23" text-anchor="middle" dy="0.6em">0</text>
    <text x="64.34" y="83.23" text-anchor="middle" dy="0.6em">50</text>
    <text x="112.15" y="83.23" text-anchor="middle" dy="0.6em">100</text>
  </g>
  <g class="guide colorkey" id="img-15069ec6-4">
    <g fill="#4C404B" font-size="2.82" font-family="'PT Sans','Helvetica Neue','Helvetica',sans-serif" id="img-15069ec6-5">
      <text x="117.95" y="40.01" dy="0.35em" id="img-15069ec6-6" class="color_Signal_1">Signal 1</text>
      <text x="117.95" y="43.62" dy="0.35em" id="img-15069ec6-7" class="color_Signal_2">Signal 2</text>
      <text x="117.95" y="47.22" dy="0.35em" id="img-15069ec6-8" class="color_Signal_3">Signal 3</text>
      <text x="117.95" y="50.83" dy="0.35em" id="img-15069ec6-9" class="color_Signal_4">Signal 4</text>
    </g>
    <g stroke="#000000" stroke-opacity="0.000" id="img-15069ec6-10">
      <rect x="115.15" y="39.11" width="1.8" height="1.8" id="img-15069ec6-11" class="color_Signal_1" fill="#00BFFF"/>
      <rect x="115.15" y="42.72" width="1.8" height="1.8" id="img-15069ec6-12" class="color_Signal_2" fill="#D4CA3A"/>
      <rect x="115.15" y="46.32" width="1.8" height="1.8" id="img-15069ec6-13" class="color_Signal_3" fill="#FF6DAE"/>
      <rect x="115.15" y="49.93" width="1.8" height="1.8" id="img-15069ec6-14" class="color_Signal_4" fill="#00B78D"/>
    </g>
    <g fill="#362A35" font-size="3.88" font-family="'PT Sans','Helvetica Neue','Helvetica',sans-serif" stroke="#000000" stroke-opacity="0.000" id="img-15069ec6-15">
      <text x="115.15" y="36.19" id="img-15069ec6-16">Mixed signals</text>
    </g>
  </g>
<g clip-path="url(#img-15069ec6-17)">
  <g id="img-15069ec6-18">
    <g pointer-events="visible" opacity="1" fill="#000000" fill-opacity="0.000" stroke="#000000" stroke-opacity="0.000" class="guide background" id="img-15069ec6-19">
      <rect x="14.54" y="5" width="99.61" height="77.23" id="img-15069ec6-20"/>
    </g>
    <g class="guide ygridlines xfixed" stroke-dasharray="0.5,0.5" stroke-width="0.2" stroke="#D0D0E0" id="img-15069ec6-21">
      <path fill="none" d="M14.54,80.23 L 114.15 80.23" id="img-15069ec6-22"/>
      <path fill="none" d="M14.54,55.82 L 114.15 55.82" id="img-15069ec6-23"/>
      <path fill="none" d="M14.54,31.41 L 114.15 31.41" id="img-15069ec6-24"/>
      <path fill="none" d="M14.54,7 L 114.15 7" id="img-15069ec6-25"/>
    </g>
    <g class="guide xgridlines yfixed" stroke-dasharray="0.5,0.5" stroke-width="0.2" stroke="#D0D0E0" id="img-15069ec6-26">
      <path fill="none" d="M16.54,5 L 16.54 82.23" id="img-15069ec6-27"/>
      <path fill="none" d="M64.34,5 L 64.34 82.23" id="img-15069ec6-28"/>
      <path fill="none" d="M112.15,5 L 112.15 82.23" id="img-15069ec6-29"/>
    </g>
    <g class="plotpanel" id="img-15069ec6-30">
      <g stroke-width="0.3" fill="#000000" fill-opacity="0.000" class="geometry color_Signal_4" stroke-dasharray="none" stroke="#00B78D" id="img-15069ec6-31">
        <path fill="none" d="M17.49,35.79 L 18.45 28.61 19.41 22.67 20.36 18.44 21.32 16.25 22.27 16.24 23.23 18.36 24.19 22.38 25.14 27.88 26.1 34.32 27.05 41.09 28.01 47.53 28.97 53.02 29.92 57.03 30.88 59.16 31.84 59.18 32.79 57.05 33.75 52.92 34.7 47.13 35.66 40.17 36.62 32.62 37.57 25.13 38.53 18.36 39.48 12.87 40.44 9.14 41.4 7.48 42.35 8.03 43.31 10.73 44.26 15.32 45.22 21.38 46.18 28.38 47.13 35.67 48.09 42.62 49.04 48.6 50 53.08 50.96 55.68 51.91 56.16 52.87 54.51 53.83 50.88 54.78 45.62 55.74 39.21 56.69 32.26 57.65 25.41 58.61 19.3 59.56 14.5 60.52 11.48 61.47 10.54 62.43 11.8 63.39 15.19 64.34 20.44 65.3 27.13 66.25 34.69 67.21 42.51 68.17 49.93 69.12 56.33 70.08 61.2 71.04 64.13 71.99 64.93 72.95 63.57 73.9 60.23 74.86 55.25 75.82 49.14 76.77 42.49 77.73 35.95 78.68 30.16 79.64 25.68 80.6 22.97 81.55 22.33 82.51 23.86 83.46 27.47 84.42 32.9 85.38 39.71 86.33 47.34 87.29 55.15 88.24 62.49 89.2 68.75 90.16 73.41 91.11 76.1 92.07 76.62 93.03 74.96 93.98 71.3 94.94 66 95.89 59.57 96.85 52.61 97.81 45.78 98.76 39.69 99.72 34.93 100.67 31.94 101.63 30.99 102.59 32.2 103.54 35.47 104.5 40.5 105.45 46.87 106.41 54.01 107.37 61.28 108.32 68.03 109.28 73.65 110.23 77.64 111.19 79.63 112.15 79.44" id="img-15069ec6-32"/>
      </g>
      <g stroke-width="0.3" fill="#000000" fill-opacity="0.000" class="geometry color_Signal_3" stroke-dasharray="none" stroke="#FF6DAE" id="img-15069ec6-33">
        <path fill="none" d="M17.49,42.11 L 18.45 54.63 19.41 54.25 20.36 50.74 21.32 63.02 22.27 51.82 23.23 59.6 24.19 20.2 25.14 21.19 26.1 51.59 27.05 45.36 28.01 47.18 28.97 17.23 29.92 43.13 30.88 55.15 31.84 18.9 32.79 50.86 33.75 43.87 34.7 56.8 35.66 39.94 36.62 18.69 37.57 16.74 38.53 34.86 39.48 45.08 40.44 54.25 41.4 45.86 42.35 50.86 43.31 12.9 44.26 28.39 45.22 26.89 46.18 44.64 47.13 44.8 48.09 40.24 49.04 26.26 50 23 50.96 45.29 51.91 31.72 52.87 53.25 53.83 55.1 54.78 39.63 55.74 36.9 56.69 38.32 57.65 17.61 58.61 43.23 59.56 54.02 60.52 10.65 61.47 38.64 62.43 47.51 63.39 23.03 64.34 40.93 65.3 32.3 66.25 23.25 67.21 52.01 68.17 30.23 69.12 22.37 70.08 47.23 71.04 19.18 71.99 30.94 72.95 47.4 73.9 32.78 74.86 43.67 75.82 59.16 76.77 46.93 77.73 28.44 78.68 30.55 79.64 49.66 80.6 64.71 81.55 22.78 82.51 29.65 83.46 37.61 84.42 43.83 85.38 30.47 86.33 42.92 87.29 33.12 88.24 47.46 89.2 32.21 90.16 42.53 91.11 40.47 92.07 70.55 93.03 28.85 93.98 64.75 94.94 45.1 95.89 75.18 96.85 68.02 97.81 31.99 98.76 77.76 99.72 78.95 100.67 41.07 101.63 51.63 102.59 33.27 103.54 49.62 104.5 35.51 105.45 51.95 106.41 55.04 107.37 59.95 108.32 33.24 109.28 41.26 110.23 44.05 111.19 47.99 112.15 50.05" id="img-15069ec6-34"/>
      </g>
      <g stroke-width="0.3" fill="#000000" fill-opacity="0.000" class="geometry color_Signal_2" stroke-dasharray="none" stroke="#D4CA3A" id="img-15069ec6-35">
        <path fill="none" d="M17.49,35.95 L 18.45 35.95 19.41 30.73 20.36 25.64 21.32 30.48 22.27 25.75 23.23 32.63 24.19 17.79 25.14 24.63 26.1 47.08 27.05 51.53 28.01 59.65 28.97 50.9 29.92 68.58 30.88 77.41 31.84 59.96 32.79 74.42 33.75 67.39 34.7 68.62 35.66 53.73 36.62 36.04 37.57 28.01 38.53 30.69 39.48 30.66 40.44 31.83 41.4 26.24 42.35 29.52 43.31 13.41 44.26 25.88 45.22 31.28 46.18 47.19 47.13 54.56 48.09 59.18 49.04 58.08 50 60.79 50.96 74.34 51.91 67.81 52.87 76.65 53.83 73.63 54.78 60.27 55.74 52.1 56.69 45.42 57.65 27.73 58.61 33.9 59.56 33.95 60.52 8.65 61.47 21.08 62.43 26.11 63.39 16.57 64.34 30.05 65.3 31.68 66.25 33.95 67.21 55.35 68.17 51.06 69.12 52.7 70.08 69.14 71.04 57.17 71.99 62.97 72.95 68.95 73.9 57.39 74.86 56.95 75.82 57.67 76.77 43.99 77.73 27.29 78.68 21.64 79.64 25.81 80.6 29.73 81.55 7.23 82.51 11.32 83.46 18.05 84.42 25.74 85.38 25.03 86.33 38.08 87.29 40.2 88.24 53.94 89.2 51.84 90.16 60.95 91.11 61.94 92.07 76.85 93.03 53.72 93.98 67.43 94.94 51.76 95.89 59.87 96.85 48.86 97.81 23.58 98.76 39.99 99.72 35.48 100.67 13.24 101.63 17.32 102.59 9.13 103.54 20.4 104.5 18.26 105.45 32.77 106.41 41.41 107.37 51.15 108.32 44.6 109.28 54.33 110.23 59.87 111.19 64.03 112.15 65.1" id="img-15069ec6-36"/>
      </g>
      <g stroke-width="0.3" fill="#000000" fill-opacity="0.000" class="geometry color_Signal_1" stroke-dasharray="none" stroke="#00BFFF" id="img-15069ec6-37">
        <path fill="none" d="M17.49,38.95 L 18.45 41.62 19.41 38.46 20.36 34.59 21.32 39.63 22.27 34.03 23.23 38.98 24.19 21.29 25.14 24.53 26.1 42.96 27.05 43.22 28.01 47.36 28.97 35.12 29.92 50.08 30.88 57.16 31.84 39.04 32.79 53.95 33.75 48.39 34.7 51.97 35.66 40.05 36.62 25.66 37.57 20.94 38.53 26.61 39.48 28.97 40.44 31.69 41.4 26.67 42.35 29.45 43.31 11.81 44.26 21.85 45.22 24.13 46.18 36.51 47.13 40.24 48.09 41.43 49.04 37.43 50 38.04 50.96 50.49 51.91 43.94 52.87 53.88 53.83 52.99 54.78 42.62 55.74 38.06 56.69 35.29 57.65 21.51 58.61 31.26 59.56 34.26 60.52 11.06 61.47 24.59 62.43 29.65 63.39 19.11 64.34 30.68 65.3 29.71 66.25 28.97 67.21 47.26 68.17 40.08 69.12 39.35 70.08 54.21 71.04 41.65 71.99 47.94 72.95 55.49 73.9 46.5 74.86 49.46 75.82 54.15 76.77 44.71 77.73 32.19 78.68 30.35 79.64 37.67 80.6 43.84 81.55 22.56 82.51 26.75 83.46 32.54 84.42 38.37 85.38 35.09 86.33 45.13 87.29 44.13 88.24 54.97 89.2 50.48 90.16 57.97 91.11 58.29 92.07 73.58 93.03 51.91 93.98 68.03 94.94 55.55 95.89 67.38 96.85 60.32 97.81 38.88 98.76 58.72 99.72 56.94 100.67 36.5 101.63 41.31 102.59 32.74 103.54 42.55 104.5 38.01 105.45 49.41 106.41 54.53 107.37 60.61 108.32 50.63 109.28 57.45 110.23 60.85 111.19 63.81 112.15 64.75" id="img-15069ec6-38"/>
      </g>
    </g>
  </g>
</g>
  <g class="guide ylabels" font-size="2.82" font-family="'PT Sans Caption','Helvetica Neue','Helvetica',sans-serif" fill="#6C606B" id="img-15069ec6-39">
    <text x="13.54" y="80.23" text-anchor="end" dy="0.35em" id="img-15069ec6-40">0</text>
    <text x="13.54" y="55.82" text-anchor="end" dy="0.35em" id="img-15069ec6-41">1</text>
    <text x="13.54" y="31.41" text-anchor="end" dy="0.35em" id="img-15069ec6-42">2</text>
    <text x="13.54" y="7" text-anchor="end" dy="0.35em" id="img-15069ec6-43">3</text>
  </g>
  <g font-size="3.88" font-family="'PT Sans','Helvetica Neue','Helvetica',sans-serif" fill="#564A55" stroke="#000000" stroke-opacity="0.000" id="img-15069ec6-44">
    <text x="9.11" y="43.62" text-anchor="end" dy="0.35em" id="img-15069ec6-45">Y</text>
  </g>
</g>
<defs>
  <clipPath id="img-15069ec6-17">
  <path d="M14.54,5 L 114.15 5 114.15 82.23 14.54 82.23" />
</clipPath>
</defs>
</svg>
