<?xml version="1.0" encoding="UTF-8"?>
<svg xmlns="http://www.w3.org/2000/svg"
     xmlns:xlink="http://www.w3.org/1999/xlink"
     xmlns:gadfly="http://www.gadflyjl.org/ns"
     version="1.2"
     width="141.42mm" height="100mm" viewBox="0 0 141.42 100"
     stroke="none"
     fill="#000000"
     stroke-width="0.3"
     font-size="3.88"
>
<defs>
  <marker id="arrow" markerWidth="15" markerHeight="7" refX="5" refY="3.5" orient="auto" markerUnits="strokeWidth">
    <path d="M0,0 L15,3.5 L0,7 z" stroke="context-stroke" fill="context-stroke"/>
  </marker>
</defs>
<g class="plotroot xscalable yscalable" id="img-072d42ea-1">
  <g class="guide xlabels" font-size="4.23" font-family="'PT Sans Caption','Helvetica Neue','Helvetica',sans-serif" fill="#6C606B" id="img-072d42ea-2">
    <g transform="translate(14.67,90.93)">
      <g class="primitive">
        <text text-anchor="middle" dy="0.6em">0</text>
      </g>
    </g>
    <g transform="translate(67.69,90.93)">
      <g class="primitive">
        <text text-anchor="middle" dy="0.6em">50</text>
      </g>
    </g>
    <g transform="translate(120.71,90.93)">
      <g class="primitive">
        <text text-anchor="middle" dy="0.6em">100</text>
      </g>
    </g>
  </g>
  <g class="guide colorkey" id="img-072d42ea-3">
    <g fill="#4C404B" font-size="2.82" font-family="'PT Sans','Helvetica Neue','Helvetica',sans-serif" id="img-072d42ea-4">
      <g transform="translate(126.75,48.45)" id="img-072d42ea-5">
        <g class="primitive">
          <text dy="0.35em">Source 1</text>
        </g>
      </g>
      <g transform="translate(126.75,51.5)" id="img-072d42ea-6">
        <g class="primitive">
          <text dy="0.35em">Source 2</text>
        </g>
      </g>
      <g transform="translate(126.75,54.54)" id="img-072d42ea-7">
        <g class="primitive">
          <text dy="0.35em">Source 3</text>
        </g>
      </g>
    </g>
    <g stroke-width="0" id="img-072d42ea-8">
      <g stroke="#000000" stroke-opacity="0.000" fill-opacity="1" fill="#008000" id="img-072d42ea-9">
        <g transform="translate(124.23,54.54)" id="img-072d42ea-10">
          <circle cx="0" cy="0" r="0.9" class="primitive"/>
        </g>
      </g>
      <g stroke="#000000" stroke-opacity="0.000" fill-opacity="1" fill="#0000FF" id="img-072d42ea-11">
        <g transform="translate(124.23,51.5)" id="img-072d42ea-12">
          <circle cx="0" cy="0" r="0.9" class="primitive"/>
        </g>
      </g>
      <g stroke="#000000" stroke-opacity="0.000" fill-opacity="1" fill="#FF0000" id="img-072d42ea-13">
        <g transform="translate(124.23,48.45)" id="img-072d42ea-14">
          <circle cx="0" cy="0" r="0.9" class="primitive"/>
        </g>
      </g>
    </g>
    <g fill="#362A35" font-size="3.88" font-family="'PT Sans','Helvetica Neue','Helvetica',sans-serif" stroke="#000000" stroke-opacity="0.000" id="img-072d42ea-15">
      <g transform="translate(123.71,45.43)" id="img-072d42ea-16">
        <g class="primitive">
          <text dy="-0em"></text>
        </g>
      </g>
    </g>
  </g>
  <g clip-path="url(#img-072d42ea-17)">
    <g id="img-072d42ea-18">
      <g pointer-events="visible" stroke-width="0.3" fill="#000000" fill-opacity="0.000" stroke="#000000" stroke-opacity="0.000" class="guide background" id="img-072d42ea-19">
        <g transform="translate(67.69,50.75)" id="img-072d42ea-20">
          <path d="M-55.02,-39.18 L55.02,-39.18 55.02,39.18 -55.02,39.18  z" class="primitive"/>
        </g>
      </g>
      <g class="guide ygridlines xfixed" stroke-dasharray="0.5,0.5" stroke-width="0.2" stroke="#D0D0E0" id="img-072d42ea-21">
        <g transform="translate(67.69,87.93)" id="img-072d42ea-22">
          <path fill="none" d="M-55.02,0 L55.02,0 " class="primitive"/>
        </g>
        <g transform="translate(67.69,50.75)" id="img-072d42ea-23">
          <path fill="none" d="M-55.02,0 L55.02,0 " class="primitive"/>
        </g>
        <g transform="translate(67.69,13.56)" id="img-072d42ea-24">
          <path fill="none" d="M-55.02,0 L55.02,0 " class="primitive"/>
        </g>
      </g>
      <g class="guide xgridlines yfixed" stroke-dasharray="0.5,0.5" stroke-width="0.2" stroke="#D0D0E0" id="img-072d42ea-25">
        <g transform="translate(14.67,50.75)" id="img-072d42ea-26">
          <path fill="none" d="M0,-39.18 L0,39.18 " class="primitive"/>
        </g>
        <g transform="translate(67.69,50.75)" id="img-072d42ea-27">
          <path fill="none" d="M0,-39.18 L0,39.18 " class="primitive"/>
        </g>
        <g transform="translate(120.71,50.75)" id="img-072d42ea-28">
          <path fill="none" d="M0,-39.18 L0,39.18 " class="primitive"/>
        </g>
      </g>
      <g class="plotpanel" id="img-072d42ea-29">
        <metadata>
          <boundingbox value="12.674072265625mm 11.563373480902783mm 110.03464833800396mm 78.3632568359375mm"/>
          <unitbox value="-1.8861759164086167 1.0268950027889776 103.77235183281724 -1.0537900055779552"/>
        </metadata>
        <g stroke-width="0.71" fill="#000000" fill-opacity="0.000" class="geometry" id="img-072d42ea-30">
          <g class="color_RGBA{N0f8}(0.0,0.502,0.0,1.0)" stroke-dasharray="none" stroke="#008000" id="img-072d42ea-31">
            <g transform="translate(68.22,50.5)" id="img-072d42ea-32">
              <path fill="none" d="M-52.49,-1.13 L-51.43,18.88 -50.37,19.23 -49.31,14.78 -48.25,34.4 -47.19,18.24 -46.13,30.97 -45.06,-28.19 -44,-25.82 -42.94,21.3 -41.88,12.62 -40.82,16.18 -39.76,-28.7 -38.7,11.48 -37.64,30.49 -36.58,-24.06 -35.52,25.24 -34.46,15.19 -33.4,35.45 -32.34,10.28 -31.28,-21.59 -30.22,-24.12 -29.16,3.88 -28.1,19.8 -27.04,34.09 -25.98,21.57 -24.92,29.42 -23.86,-28.21 -22.8,-4.49 -21.74,-6.69 -20.68,20.4 -19.62,20.63 -18.56,13.63 -17.5,-7.75 -16.44,-12.86 -15.38,20.91 -14.31,-0.01 -13.25,32.51 -12.19,35.01 -11.13,11.07 -10.07,6.52 -9.01,8.23 -7.95,-23.81 -6.89,14.68 -5.83,30.56 -4.77,-36.11 -3.71,5.9 -2.65,18.73 -1.59,-19.26 -0.53,7.27 0.53,-6.62 1.59,-21.2 2.65,21.8 3.71,-12.2 4.77,-25.02 5.83,11.98 6.89,-31.63 7.95,-14.61 9.01,9.55 10.07,-13.63 11.13,2.03 12.19,24.7 13.25,5.13 14.31,-23.96 15.38,-21.66 16.44,6.51 17.5,28.53 18.56,-36.24 19.62,-26.67 20.68,-15.43 21.74,-6.81 22.8,-28.01 23.86,-9.86 24.92,-25.59 25.98,-4.53 27.04,-28.5 28.1,-13.51 29.16,-17.33 30.22,27.82 31.28,-36.31 32.34,17.78 33.4,-12.71 34.46,32.59 35.52,21.22 36.58,-34.1 37.64,35.21 38.7,36.68 39.76,-21.33 40.82,-5.5 41.88,-33.68 42.94,-8.95 44,-30.57 45.06,-5.62 46.13,-0.94 47.19,6.54 48.25,-34.07 49.31,-21.76 50.37,-17.36 51.43,-11.16 52.49,-7.78 " class="primitive"/>
            </g>
          </g>
        </g>
        <g stroke-width="0.71" fill="#000000" fill-opacity="0.000" class="geometry" id="img-072d42ea-33">
          <g class="color_RGBA{N0f8}(0.0,0.0,1.0,1.0)" stroke-dasharray="none" stroke="#0000FF" id="img-072d42ea-34">
            <g transform="translate(68.22,49.89)" id="img-072d42ea-35">
              <path fill="none" d="M-52.49,-10.13 L-51.43,-20.14 -50.37,-28.27 -49.31,-33.8 -48.25,-36.23 -47.19,-35.35 -46.13,-31.24 -45.06,-24.26 -44,-15.03 -42.94,-4.39 -41.88,6.72 -40.82,17.31 -39.76,26.43 -38.7,33.26 -37.64,37.2 -36.58,37.9 -35.52,35.28 -34.46,29.59 -33.4,21.33 -32.34,11.25 -31.28,0.23 -30.22,-10.73 -29.16,-20.65 -28.1,-28.65 -27.04,-34.02 -25.98,-36.27 -24.92,-35.21 -23.86,-30.92 -22.8,-23.79 -21.74,-14.47 -20.68,-3.77 -19.62,7.34 -18.56,17.87 -17.5,26.88 -16.44,33.57 -15.38,37.33 -14.31,37.84 -13.25,35.04 -12.19,29.19 -11.13,20.81 -10.07,10.64 -9.01,-0.39 -7.95,-11.32 -6.89,-21.16 -5.83,-29.03 -4.77,-34.23 -3.71,-36.3 -2.65,-35.05 -1.59,-30.59 -0.53,-23.32 0.53,-13.89 1.59,-3.15 2.65,7.95 3.71,18.42 4.77,27.32 5.83,33.86 6.89,37.45 7.95,37.77 9.01,34.79 10.07,28.78 11.13,20.28 12.19,10.04 13.25,-1.02 14.31,-11.91 15.38,-21.66 16.44,-29.4 17.5,-34.43 18.56,-36.32 19.62,-34.88 20.68,-30.25 21.74,-22.84 22.8,-13.32 23.86,-2.53 24.92,8.57 25.98,18.97 27.04,27.76 28.1,34.14 29.16,37.55 30.22,37.68 31.28,34.53 32.34,28.36 33.4,19.74 34.46,9.43 35.52,-1.64 36.58,-12.49 37.64,-22.15 38.7,-29.76 39.76,-34.63 40.82,-36.32 41.88,-34.7 42.94,-29.9 44,-22.36 45.06,-12.74 46.13,-1.9 47.19,9.18 48.25,19.51 49.31,28.19 50.37,34.42 51.43,37.65 52.49,37.59 " class="primitive"/>
            </g>
          </g>
        </g>
        <g stroke-width="0.71" fill="#000000" fill-opacity="0.000" class="geometry" id="img-072d42ea-36">
          <g class="color_RGBA{N0f8}(1.0,0.0,0.0,1.0)" stroke-dasharray="none" stroke="#FF0000" id="img-072d42ea-37">
            <g transform="translate(68.22,45.6)" id="img-072d42ea-38">
              <path fill="none" d="M-52.49,3.29 L-51.43,1.44 -50.37,-0.41 -49.31,-2.24 -48.25,-4.05 -47.19,-5.84 -46.13,-7.6 -45.06,-9.33 -44,-11.03 -42.94,-12.68 -41.88,-14.29 -40.82,-15.85 -39.76,-17.35 -38.7,-18.81 -37.64,-20.2 -36.58,-21.52 -35.52,-22.79 -34.46,-23.98 -33.4,-25.1 -32.34,-26.14 -31.28,-27.1 -30.22,-27.99 -29.16,-28.79 -28.1,-29.51 -27.04,-30.14 -25.98,-30.68 -24.92,-31.13 -23.86,-31.49 -22.8,-31.76 -21.74,-31.94 -20.68,-32.03 -19.62,-32.02 -18.56,-31.92 -17.5,-31.72 -16.44,-31.44 -15.38,-31.06 -14.31,-30.59 -13.25,-30.04 -12.19,-29.39 -11.13,-28.66 -10.07,-27.85 -9.01,-26.95 -7.95,-25.97 -6.89,-24.91 -5.83,-23.78 -4.77,-22.58 -3.71,-21.31 -2.65,-19.97 -1.59,-18.57 -0.53,-17.1 0.53,-15.59 1.59,-14.02 2.65,-12.4 3.71,-10.74 4.77,-9.04 5.83,-7.31 6.89,-5.54 7.95,-3.75 9.01,-1.93 10.07,-0.1 11.13,1.75 12.19,3.6 13.25,5.46 14.31,7.32 15.38,9.17 16.44,11.01 17.5,12.84 18.56,14.65 19.62,16.43 20.68,18.19 21.74,19.91 22.8,21.6 23.86,23.25 24.92,24.85 25.98,26.4 27.04,27.9 28.1,29.34 29.16,30.72 30.22,32.04 31.28,33.29 32.34,34.47 33.4,35.57 34.46,36.6 35.52,37.55 36.58,38.42 37.64,39.21 38.7,39.91 39.76,40.53 40.82,41.06 41.88,41.49 42.94,41.84 44,42.09 45.06,42.26 46.13,42.33 47.19,42.3 48.25,42.19 49.31,41.98 50.37,41.68 51.43,41.28 52.49,40.8 " class="primitive"/>
            </g>
          </g>
        </g>
      </g>
    </g>
  </g>
  <g class="guide ylabels" font-size="4.23" font-family="'PT Sans Caption','Helvetica Neue','Helvetica',sans-serif" fill="#6C606B" id="img-072d42ea-39">
    <g transform="translate(11.67,87.93)" id="img-072d42ea-40">
      <g class="primitive">
        <text text-anchor="end" dy="0.35em">0.0</text>
      </g>
    </g>
    <g transform="translate(11.67,50.75)" id="img-072d42ea-41">
      <g class="primitive">
        <text text-anchor="end" dy="0.35em">0.5</text>
      </g>
    </g>
    <g transform="translate(11.67,13.56)" id="img-072d42ea-42">
      <g class="primitive">
        <text text-anchor="end" dy="0.35em">1.0</text>
      </g>
    </g>
  </g>
  <g font-size="4.94" font-family="'PT Sans','Helvetica Neue','Helvetica',sans-serif" fill="#564A55" stroke="#000000" stroke-opacity="0.000" id="img-072d42ea-43">
    <g transform="translate(67.69,5)" id="img-072d42ea-44">
      <g class="primitive">
        <text text-anchor="middle" dy="0.6em">Original sources</text>
      </g>
    </g>
  </g>
</g>
<defs>
  <clipPath id="img-072d42ea-17">
    <path d="M12.67,11.56 L122.71,11.56 122.71,89.93 12.67,89.93 " />
  </clipPath>
</defs>
</svg>
