<?xml version="1.0" encoding="UTF-8"?>
<svg xmlns="http://www.w3.org/2000/svg"
     xmlns:xlink="http://www.w3.org/1999/xlink"
     xmlns:gadfly="http://www.gadflyjl.org/ns"
     version="1.2"
     width="141.42mm" height="100mm" viewBox="0 0 141.42 100"
     stroke="none"
     fill="#000000"
     stroke-width="0.3"
     font-size="3.88"
>
<g class="plotroot xscalable yscalable" id="img-ad81fe11-1">
  <g font-size="3.88" font-family="'PT Sans','Helvetica Neue','Helvetica',sans-serif" fill="#564A55" stroke="#000000" stroke-opacity="0.000" id="img-ad81fe11-2">
    <text x="63.43" y="89.28" text-anchor="middle" dy="0.6em">X</text>
  </g>
  <g class="guide xlabels" font-size="2.82" font-family="'PT Sans Caption','Helvetica Neue','Helvetica',sans-serif" fill="#6C606B" id="img-ad81fe11-3">
    <text x="18.89" y="83.23" text-anchor="middle" dy="0.6em">0</text>
    <text x="63.43" y="83.23" text-anchor="middle" dy="0.6em">50</text>
    <text x="107.98" y="83.23" text-anchor="middle" dy="0.6em">100</text>
  </g>
  <g class="guide colorkey" id="img-ad81fe11-4">
    <g fill="#4C404B" font-size="2.82" font-family="'PT Sans','Helvetica Neue','Helvetica',sans-serif" id="img-ad81fe11-5">
      <text x="113.5" y="42.1" dy="0.35em" id="img-ad81fe11-6" class="color_Source_1">Source 1</text>
      <text x="113.5" y="45.14" dy="0.35em" id="img-ad81fe11-7" class="color_Source_2">Source 2</text>
      <text x="113.5" y="48.18" dy="0.35em" id="img-ad81fe11-8" class="color_Source_3">Source 3</text>
    </g>
    <g stroke="#000000" stroke-opacity="0.000" id="img-ad81fe11-9">
      <rect x="110.98" y="41.33" width="1.52" height="1.52" id="img-ad81fe11-10" class="color_Source_1" fill="#00BFFF"/>
      <rect x="110.98" y="44.38" width="1.52" height="1.52" id="img-ad81fe11-11" class="color_Source_2" fill="#D4CA3A"/>
      <rect x="110.98" y="47.42" width="1.52" height="1.52" id="img-ad81fe11-12" class="color_Source_3" fill="#FF6DAE"/>
    </g>
    <g fill="#362A35" font-size="3.88" font-family="'PT Sans','Helvetica Neue','Helvetica',sans-serif" stroke="#000000" stroke-opacity="0.000" id="img-ad81fe11-13">
      <text x="110.98" y="38.84" id="img-ad81fe11-14">Original sources</text>
    </g>
  </g>
<g clip-path="url(#img-ad81fe11-15)">
  <g id="img-ad81fe11-16">
    <g pointer-events="visible" opacity="1" fill="#000000" fill-opacity="0.000" stroke="#000000" stroke-opacity="0.000" class="guide background" id="img-ad81fe11-17">
      <rect x="16.89" y="5" width="93.09" height="77.23" id="img-ad81fe11-18"/>
    </g>
    <g class="guide ygridlines xfixed" stroke-dasharray="0.5,0.5" stroke-width="0.2" stroke="#D0D0E0" id="img-ad81fe11-19">
      <path fill="none" d="M16.89,80.23 L 109.98 80.23" id="img-ad81fe11-20"/>
      <path fill="none" d="M16.89,43.62 L 109.98 43.62" id="img-ad81fe11-21"/>
      <path fill="none" d="M16.89,7 L 109.98 7" id="img-ad81fe11-22"/>
    </g>
    <g class="guide xgridlines yfixed" stroke-dasharray="0.5,0.5" stroke-width="0.2" stroke="#D0D0E0" id="img-ad81fe11-23">
      <path fill="none" d="M18.89,5 L 18.89 82.23" id="img-ad81fe11-24"/>
      <path fill="none" d="M63.43,5 L 63.43 82.23" id="img-ad81fe11-25"/>
      <path fill="none" d="M107.98,5 L 107.98 82.23" id="img-ad81fe11-26"/>
    </g>
    <g class="plotpanel" id="img-ad81fe11-27">
      <g stroke-width="0.3" fill="#000000" fill-opacity="0.000" class="geometry color_Source_3" stroke-dasharray="none" stroke="#FF6DAE" id="img-ad81fe11-28">
        <path fill="none" d="M19.78,42.26 L 20.67 61.97 21.56 62.31 22.45 57.93 23.34 77.25 24.23 61.34 25.12 73.88 26.01 15.62 26.9 17.94 27.79 64.35 28.69 55.8 29.58 59.31 30.47 15.11 31.36 54.68 32.25 73.4 33.14 19.68 34.03 68.23 34.92 58.34 35.81 78.28 36.7 53.5 37.59 22.11 38.49 19.62 39.38 47.2 40.27 62.88 41.16 76.95 42.05 64.62 42.94 72.35 43.83 15.59 44.72 38.95 45.61 36.79 46.5 63.46 47.39 63.69 48.29 56.8 49.18 35.74 50.07 30.71 50.96 63.96 51.85 43.37 52.74 75.39 53.63 77.85 54.52 54.28 55.41 49.79 56.3 51.48 57.19 19.93 58.09 57.83 58.98 73.47 59.87 7.82 60.76 49.18 61.65 61.82 62.54 24.41 63.43 50.54 64.32 36.85 65.21 22.5 66.1 64.84 66.99 31.36 67.89 18.74 68.78 55.17 69.67 12.22 70.56 28.98 71.45 52.78 72.34 29.95 73.23 45.38 74.12 67.69 75.01 48.43 75.9 19.78 76.79 22.04 77.69 49.79 78.58 71.47 79.47 7.69 80.36 17.11 81.25 28.18 82.14 36.67 83.03 15.79 83.92 33.67 84.81 18.18 85.7 38.91 86.59 15.31 87.48 30.07 88.38 26.31 89.27 70.77 90.16 7.61 91.05 60.89 91.94 30.86 92.83 75.47 93.72 64.27 94.61 9.79 95.5 78.05 96.39 79.5 97.28 22.37 98.18 37.96 99.07 10.2 99.96 34.56 100.85 13.27 101.74 37.84 102.63 42.45 103.52 49.82 104.41 9.82 105.3 21.94 106.19 26.28 107.08 32.38 107.98 35.72" id="img-ad81fe11-29"/>
      </g>
      <g stroke-width="0.3" fill="#000000" fill-opacity="0.000" class="geometry color_Source_2" stroke-dasharray="none" stroke="#D4CA3A" id="img-ad81fe11-30">
        <path fill="none" d="M19.78,32.8 L 20.67 22.94 21.56 14.93 22.45 9.49 23.34 7.09 24.23 7.96 25.12 12.01 26.01 18.88 26.9 27.97 27.79 38.45 28.69 49.39 29.58 59.82 30.47 68.8 31.36 75.53 32.25 79.41 33.14 80.09 34.03 77.52 34.92 71.91 35.81 63.78 36.7 53.85 37.59 43 38.49 32.21 39.38 22.44 40.27 14.56 41.16 9.27 42.05 7.05 42.94 8.1 43.83 12.32 44.72 19.34 45.61 28.53 46.5 39.06 47.39 50 48.29 60.37 49.18 69.24 50.07 75.83 50.96 79.54 51.85 80.03 52.74 77.28 53.63 71.52 54.52 63.26 55.41 53.26 56.3 42.39 57.19 31.63 58.09 21.94 58.98 14.18 59.87 9.06 60.76 7.03 61.65 8.26 62.54 12.65 63.43 19.81 64.32 29.09 65.21 39.67 66.1 50.61 66.99 60.92 67.89 69.68 68.78 76.12 69.67 79.65 70.56 79.97 71.45 77.03 72.34 71.12 73.23 62.74 74.12 52.66 75.01 41.77 75.9 31.05 76.79 21.44 77.69 13.82 78.58 8.86 79.47 7.01 80.36 8.42 81.25 12.98 82.14 20.28 83.03 29.66 83.92 40.28 84.81 51.21 85.7 61.46 86.59 70.11 87.48 76.4 88.38 79.76 89.27 79.89 90.16 76.78 91.05 70.71 91.94 62.21 92.83 52.06 93.72 41.16 94.61 30.47 95.5 20.96 96.39 13.47 97.28 8.67 98.18 7 99.07 8.6 99.96 13.32 100.85 20.75 101.74 30.23 102.63 40.9 103.52 51.81 104.41 61.99 105.3 70.53 106.19 76.67 107.08 79.85 107.98 79.8" id="img-ad81fe11-31"/>
      </g>
      <g stroke-width="0.3" fill="#000000" fill-opacity="0.000" class="geometry color_Source_1" stroke-dasharray="none" stroke="#00BFFF" id="img-ad81fe11-32">
        <path fill="none" d="M19.78,41.79 L 20.67 39.96 21.56 38.15 22.45 36.34 23.34 34.56 24.23 32.8 25.12 31.06 26.01 29.36 26.9 27.69 27.79 26.06 28.69 24.48 29.58 22.94 30.47 21.46 31.36 20.03 32.25 18.66 33.14 17.35 34.03 16.11 34.92 14.93 35.81 13.83 36.7 12.8 37.59 11.85 38.49 10.98 39.38 10.19 40.27 9.49 41.16 8.87 42.05 8.33 42.94 7.89 43.83 7.53 44.72 7.27 45.61 7.09 46.5 7.01 47.39 7.02 48.29 7.11 49.18 7.31 50.07 7.59 50.96 7.96 51.85 8.42 52.74 8.97 53.63 9.6 54.52 10.32 55.41 11.12 56.3 12.01 57.19 12.97 58.09 14.01 58.98 15.13 59.87 16.31 60.76 17.57 61.65 18.88 62.54 20.26 63.43 21.7 64.32 23.2 65.21 24.74 66.1 26.33 66.99 27.97 67.89 29.64 68.78 31.35 69.67 33.09 70.56 34.86 71.45 36.64 72.34 38.45 73.23 40.27 74.12 42.09 75.01 43.93 75.9 45.75 76.79 47.58 77.69 49.39 78.58 51.19 79.47 52.97 80.36 54.73 81.25 56.46 82.14 58.16 83.03 59.82 83.92 61.44 84.81 63.02 85.7 64.55 86.59 66.02 87.48 67.44 88.38 68.8 89.27 70.1 90.16 71.33 91.05 72.49 91.94 73.58 92.83 74.59 93.72 75.53 94.61 76.39 95.5 77.16 96.39 77.86 97.28 78.46 98.18 78.98 99.07 79.41 99.96 79.75 100.85 80 101.74 80.16 102.63 80.23 103.52 80.21 104.41 80.09 105.3 79.89 106.19 79.59 107.08 79.21 107.98 78.73" id="img-ad81fe11-33"/>
      </g>
    </g>
  </g>
</g>
  <g class="guide ylabels" font-size="2.82" font-family="'PT Sans Caption','Helvetica Neue','Helvetica',sans-serif" fill="#6C606B" id="img-ad81fe11-34">
    <text x="15.89" y="80.23" text-anchor="end" dy="0.35em" id="img-ad81fe11-35">0.0</text>
    <text x="15.89" y="43.62" text-anchor="end" dy="0.35em" id="img-ad81fe11-36">0.5</text>
    <text x="15.89" y="7" text-anchor="end" dy="0.35em" id="img-ad81fe11-37">1.0</text>
  </g>
  <g font-size="3.88" font-family="'PT Sans','Helvetica Neue','Helvetica',sans-serif" fill="#564A55" stroke="#000000" stroke-opacity="0.000" id="img-ad81fe11-38">
    <text x="9.11" y="43.62" text-anchor="end" dy="0.35em" id="img-ad81fe11-39">Y</text>
  </g>
</g>
<defs>
  <clipPath id="img-ad81fe11-15">
  <path d="M16.89,5 L 109.98 5 109.98 82.23 16.89 82.23" />
</clipPath>
</defs>
</svg>
