<?xml version="1.0" encoding="UTF-8"?>
<svg xmlns="http://www.w3.org/2000/svg"
     xmlns:xlink="http://www.w3.org/1999/xlink"
     xmlns:gadfly="http://www.gadflyjl.org/ns"
     version="1.2"
     width="141.42mm" height="100mm" viewBox="0 0 141.42 100"
     stroke="none"
     fill="#000000"
     stroke-width="0.3"
     font-size="3.88"
>
<defs>
  <marker id="arrow" markerWidth="15" markerHeight="7" refX="5" refY="3.5" orient="auto" markerUnits="strokeWidth">
    <path d="M0,0 L15,3.5 L0,7 z" stroke="context-stroke" fill="context-stroke"/>
  </marker>
</defs>
<g class="plotroot xscalable yscalable" id="img-37143133-1">
  <g class="guide xlabels" font-size="4.23" font-family="'PT Sans Caption','Helvetica Neue','Helvetica',sans-serif" fill="#6C606B" id="img-37143133-2">
    <g transform="translate(11.15,90.93)">
      <g class="primitive">
        <text text-anchor="middle" dy="0.6em">0</text>
      </g>
    </g>
    <g transform="translate(65.92,90.93)">
      <g class="primitive">
        <text text-anchor="middle" dy="0.6em">50</text>
      </g>
    </g>
    <g transform="translate(120.7,90.93)">
      <g class="primitive">
        <text text-anchor="middle" dy="0.6em">100</text>
      </g>
    </g>
  </g>
  <g class="guide colorkey" id="img-37143133-3">
    <g fill="#4C404B" font-size="2.82" font-family="'PT Sans','Helvetica Neue','Helvetica',sans-serif" id="img-37143133-4">
      <g transform="translate(127.31,46.07)" id="img-37143133-5">
        <g class="primitive">
          <text dy="0.35em">Signal 1</text>
        </g>
      </g>
      <g transform="translate(127.31,49.68)" id="img-37143133-6">
        <g class="primitive">
          <text dy="0.35em">Signal 2</text>
        </g>
      </g>
      <g transform="translate(127.31,53.29)" id="img-37143133-7">
        <g class="primitive">
          <text dy="0.35em">Signal 3</text>
        </g>
      </g>
      <g transform="translate(127.31,56.9)" id="img-37143133-8">
        <g class="primitive">
          <text dy="0.35em">Signal 4</text>
        </g>
      </g>
    </g>
    <g stroke-width="0" id="img-37143133-9">
      <g stroke="#000000" stroke-opacity="0.000" fill-opacity="1" fill="#FFA500" id="img-37143133-10">
        <g transform="translate(124.51,56.9)" id="img-37143133-11">
          <circle cx="0" cy="0" r="0.9" class="primitive"/>
        </g>
      </g>
      <g stroke="#000000" stroke-opacity="0.000" fill-opacity="1" fill="#008000" id="img-37143133-12">
        <g transform="translate(124.51,53.29)" id="img-37143133-13">
          <circle cx="0" cy="0" r="0.9" class="primitive"/>
        </g>
      </g>
      <g stroke="#000000" stroke-opacity="0.000" fill-opacity="1" fill="#0000FF" id="img-37143133-14">
        <g transform="translate(124.51,49.68)" id="img-37143133-15">
          <circle cx="0" cy="0" r="0.9" class="primitive"/>
        </g>
      </g>
      <g stroke="#000000" stroke-opacity="0.000" fill-opacity="1" fill="#FF0000" id="img-37143133-16">
        <g transform="translate(124.51,46.07)" id="img-37143133-17">
          <circle cx="0" cy="0" r="0.9" class="primitive"/>
        </g>
      </g>
    </g>
    <g fill="#362A35" font-size="3.88" font-family="'PT Sans','Helvetica Neue','Helvetica',sans-serif" stroke="#000000" stroke-opacity="0.000" id="img-37143133-18">
      <g transform="translate(123.7,42.77)" id="img-37143133-19">
        <g class="primitive">
          <text dy="-0em"></text>
        </g>
      </g>
    </g>
  </g>
  <g clip-path="url(#img-37143133-20)">
    <g id="img-37143133-21">
      <g pointer-events="visible" stroke-width="0.3" fill="#000000" fill-opacity="0.000" stroke="#000000" stroke-opacity="0.000" class="guide background" id="img-37143133-22">
        <g transform="translate(65.92,50.74)" id="img-37143133-23">
          <path d="M-56.78,-39.19 L56.78,-39.19 56.78,39.19 -56.78,39.19  z" class="primitive"/>
        </g>
      </g>
      <g class="guide ygridlines xfixed" stroke-dasharray="0.5,0.5" stroke-width="0.2" stroke="#D0D0E0" id="img-37143133-24">
        <g transform="translate(65.92,87.93)" id="img-37143133-25">
          <path fill="none" d="M-56.78,0 L56.78,0 " class="primitive"/>
        </g>
        <g transform="translate(65.92,63.13)" id="img-37143133-26">
          <path fill="none" d="M-56.78,0 L56.78,0 " class="primitive"/>
        </g>
        <g transform="translate(65.92,38.34)" id="img-37143133-27">
          <path fill="none" d="M-56.78,0 L56.78,0 " class="primitive"/>
        </g>
        <g transform="translate(65.92,13.54)" id="img-37143133-28">
          <path fill="none" d="M-56.78,0 L56.78,0 " class="primitive"/>
        </g>
      </g>
      <g class="guide xgridlines yfixed" stroke-dasharray="0.5,0.5" stroke-width="0.2" stroke="#D0D0E0" id="img-37143133-29">
        <g transform="translate(11.15,50.74)" id="img-37143133-30">
          <path fill="none" d="M0,-39.19 L0,39.19 " class="primitive"/>
        </g>
        <g transform="translate(65.92,50.74)" id="img-37143133-31">
          <path fill="none" d="M0,-39.19 L0,39.19 " class="primitive"/>
        </g>
        <g transform="translate(120.7,50.74)" id="img-37143133-32">
          <path fill="none" d="M0,-39.19 L0,39.19 " class="primitive"/>
        </g>
      </g>
      <g class="plotpanel" id="img-37143133-33">
        <metadata>
          <boundingbox value="9.146294487847229mm 11.543736436631946mm 113.55725847255258mm 78.38289388020833mm"/>
          <unitbox value="-1.8255294335437036 3.0806637075678025 103.65105886708741 -3.1613274151356046"/>
        </metadata>
        <g stroke-width="0.71" fill="#000000" fill-opacity="0.000" class="geometry" id="img-37143133-34">
          <g class="color_RGBA{N0f8}(1.0,0.647,0.0,1.0)" stroke-dasharray="none" stroke="#FFA500" id="img-37143133-35">
            <g transform="translate(66.47,48.45)" id="img-37143133-36">
              <path fill="none" d="M-54.23,-5.66 L-53.14,-12.95 -52.04,-18.99 -50.94,-23.28 -49.85,-25.51 -48.75,-25.52 -47.66,-23.37 -46.56,-19.29 -45.47,-13.7 -44.37,-7.15 -43.28,-0.28 -42.18,6.26 -41.08,11.84 -39.99,15.91 -38.89,18.07 -37.8,18.09 -36.7,15.93 -35.61,11.74 -34.51,5.86 -33.41,-1.22 -32.32,-8.88 -31.22,-16.49 -30.13,-23.37 -29.03,-28.95 -27.94,-32.73 -26.84,-34.42 -25.75,-33.86 -24.65,-31.12 -23.55,-26.46 -22.46,-20.3 -21.36,-13.19 -20.27,-5.78 -19.17,1.27 -18.08,7.35 -16.98,11.9 -15.89,14.54 -14.79,15.03 -13.69,13.35 -12.6,9.66 -11.5,4.32 -10.41,-2.19 -9.31,-9.25 -8.22,-16.21 -7.12,-22.42 -6.03,-27.29 -4.93,-30.36 -3.83,-31.31 -2.74,-30.03 -1.64,-26.59 -0.55,-21.26 0.55,-14.46 1.64,-6.77 2.74,1.17 3.83,8.7 4.93,15.2 6.03,20.14 7.12,23.12 8.22,23.93 9.31,22.55 10.41,19.16 11.5,14.1 12.6,7.9 13.69,1.14 14.79,-5.5 15.89,-11.39 16.98,-15.93 18.08,-18.68 19.17,-19.33 20.27,-17.78 21.36,-14.11 22.46,-8.59 23.55,-1.68 24.65,6.07 25.75,14 26.84,21.45 27.94,27.81 29.03,32.55 30.13,35.28 31.22,35.81 32.32,34.12 33.41,30.41 34.51,25.02 35.61,18.49 36.7,11.43 37.8,4.48 38.89,-1.7 39.99,-6.53 41.08,-9.58 42.18,-10.53 43.28,-9.31 44.37,-5.99 45.47,-0.87 46.56,5.59 47.66,12.84 48.75,20.22 49.85,27.08 50.94,32.79 52.04,36.85 53.14,38.87 54.23,38.67 " class="primitive"/>
            </g>
          </g>
        </g>
        <g stroke-width="0.71" fill="#000000" fill-opacity="0.000" class="geometry" id="img-37143133-37">
          <g class="color_RGBA{N0f8}(0.0,0.502,0.0,1.0)" stroke-dasharray="none" stroke="#008000" id="img-37143133-38">
            <g transform="translate(66.47,48.85)" id="img-37143133-39">
              <path fill="none" d="M-54.23,0.35 L-53.14,13.07 -52.04,12.69 -50.94,9.11 -49.85,21.59 -48.75,10.22 -47.66,18.12 -46.56,-21.91 -45.47,-20.9 -44.37,9.98 -43.28,3.65 -42.18,5.5 -41.08,-24.92 -39.99,1.39 -38.89,13.6 -37.8,-23.22 -36.7,9.24 -35.61,2.14 -34.51,15.27 -33.41,-1.86 -32.32,-23.43 -31.22,-25.41 -30.13,-7.01 -29.03,3.37 -27.94,12.68 -26.84,4.16 -25.75,9.24 -24.65,-29.32 -23.55,-13.59 -22.46,-15.11 -21.36,2.92 -20.27,3.08 -19.17,-1.55 -18.08,-15.75 -16.98,-19.06 -15.89,3.58 -14.79,-10.21 -13.69,11.66 -12.6,13.55 -11.5,-2.17 -10.41,-4.94 -9.31,-3.49 -8.22,-24.53 -7.12,1.48 -6.03,12.45 -4.93,-31.61 -3.83,-3.17 -2.74,5.83 -1.64,-19.03 -0.55,-0.85 0.55,-9.61 1.64,-18.81 2.74,10.4 3.83,-11.72 4.93,-19.7 6.03,5.55 7.12,-22.94 8.22,-10.99 9.31,5.72 10.41,-9.13 11.5,1.94 12.6,17.67 13.69,5.24 14.79,-13.54 15.89,-11.39 16.98,8.01 18.08,23.31 19.17,-19.28 20.27,-12.31 21.36,-4.22 22.46,2.1 23.55,-11.48 24.65,1.18 25.75,-8.78 26.84,5.78 27.94,-9.7 29.03,0.77 30.13,-1.31 31.22,29.23 32.32,-13.12 33.41,23.35 34.51,3.38 35.61,33.94 36.7,26.67 37.8,-9.93 38.89,36.56 39.99,37.77 41.08,-0.71 42.18,10.02 43.28,-8.63 44.37,7.98 45.47,-6.35 46.56,10.34 47.66,13.49 48.75,18.47 49.85,-8.66 50.94,-0.52 52.04,2.32 53.14,6.32 54.23,8.42 " class="primitive"/>
            </g>
          </g>
        </g>
        <g stroke-width="0.71" fill="#000000" fill-opacity="0.000" class="geometry" id="img-37143133-40">
          <g class="color_RGBA{N0f8}(0.0,0.0,1.0,1.0)" stroke-dasharray="none" stroke="#0000FF" id="img-37143133-41">
            <g transform="translate(66.47,50.08)" id="img-37143133-42">
              <path fill="none" d="M-54.23,-7.13 L-53.14,-7.13 -52.04,-12.44 -50.94,-17.61 -49.85,-12.69 -48.75,-17.49 -47.66,-10.5 -46.56,-25.57 -45.47,-18.63 -44.37,4.18 -43.28,8.69 -42.18,16.94 -41.08,8.05 -39.99,26.01 -38.89,34.97 -37.8,17.25 -36.7,31.94 -35.61,24.8 -34.51,26.04 -33.41,10.93 -32.32,-7.04 -31.22,-15.19 -30.13,-12.48 -29.03,-12.5 -27.94,-11.32 -26.84,-16.99 -25.75,-13.67 -24.65,-30.03 -23.55,-17.36 -22.46,-11.88 -21.36,4.29 -20.27,11.77 -19.17,16.46 -18.08,15.34 -16.98,18.09 -15.89,31.86 -14.79,25.23 -13.69,34.2 -12.6,31.14 -11.5,17.57 -10.41,9.27 -9.31,2.48 -8.22,-15.49 -7.12,-9.21 -6.03,-9.17 -4.93,-34.87 -3.83,-22.24 -2.74,-17.13 -1.64,-26.82 -0.55,-13.13 0.55,-11.47 1.64,-9.17 2.74,12.57 3.83,8.22 4.93,9.88 6.03,26.57 7.12,14.42 8.22,20.31 9.31,26.38 10.41,14.65 11.5,14.2 12.6,14.93 13.69,1.03 14.79,-15.93 15.89,-21.67 16.98,-17.43 18.08,-13.45 19.17,-36.3 20.27,-32.15 21.36,-25.32 22.46,-17.5 23.55,-18.22 24.65,-4.97 25.75,-2.82 26.84,11.14 27.94,9.01 29.03,18.26 30.13,19.26 31.22,34.4 32.32,10.92 33.41,24.84 34.51,8.93 35.61,17.16 36.7,5.98 37.8,-19.7 38.89,-3.03 39.99,-7.61 41.08,-30.2 42.18,-26.06 43.28,-34.37 44.37,-22.93 45.47,-25.1 46.56,-10.37 47.66,-1.58 48.75,8.3 49.85,1.65 50.94,11.54 52.04,17.16 53.14,21.38 54.23,22.48 " class="primitive"/>
            </g>
          </g>
        </g>
        <g stroke-width="0.71" fill="#000000" fill-opacity="0.000" class="geometry" id="img-37143133-43">
          <g class="color_RGBA{N0f8}(1.0,0.0,0.0,1.0)" stroke-dasharray="none" stroke="#FF0000" id="img-37143133-44">
            <g transform="translate(66.47,48.65)" id="img-37143133-45">
              <path fill="none" d="M-54.23,-2.66 L-53.14,0.06 -52.04,-3.15 -50.94,-7.09 -49.85,-1.96 -48.75,-7.65 -47.66,-2.62 -46.56,-20.6 -45.47,-17.3 -44.37,1.41 -43.28,1.69 -42.18,5.88 -41.08,-6.54 -39.99,8.65 -38.89,15.84 -37.8,-2.56 -36.7,12.58 -35.61,6.94 -34.51,10.56 -33.41,-1.54 -32.32,-16.16 -31.22,-20.95 -30.13,-15.19 -29.03,-12.79 -27.94,-10.03 -26.84,-15.13 -25.75,-12.31 -24.65,-30.22 -23.55,-20.02 -22.46,-17.7 -21.36,-5.14 -20.27,-1.35 -19.17,-0.14 -18.08,-4.2 -16.98,-3.58 -15.89,9.06 -14.79,2.41 -13.69,12.51 -12.6,11.61 -11.5,1.07 -10.41,-3.56 -9.31,-6.37 -8.22,-20.37 -7.12,-10.47 -6.03,-7.42 -4.93,-30.98 -3.83,-17.24 -2.74,-12.1 -1.64,-22.81 -0.55,-11.05 0.55,-12.04 1.64,-12.79 2.74,5.78 3.83,-1.51 4.93,-2.25 6.03,12.85 7.12,0.09 8.22,6.47 9.31,14.14 10.41,5.02 11.5,8.02 12.6,12.78 13.69,3.19 14.79,-9.52 15.89,-11.39 16.98,-3.96 18.08,2.31 19.17,-19.31 20.27,-15.04 21.36,-9.17 22.46,-3.25 23.55,-6.58 24.65,3.62 25.75,2.61 26.84,13.62 27.94,9.05 29.03,16.66 30.13,16.98 31.22,32.52 32.32,10.5 33.41,26.88 34.51,14.2 35.61,26.22 36.7,19.05 37.8,-2.72 38.89,17.43 39.99,15.62 41.08,-5.14 42.18,-0.26 43.28,-8.97 44.37,1 45.47,-3.61 46.56,7.97 47.66,13.16 48.75,19.35 49.85,9.21 50.94,16.14 52.04,19.58 53.14,22.59 54.23,23.55 " class="primitive"/>
            </g>
          </g>
        </g>
      </g>
    </g>
  </g>
  <g class="guide ylabels" font-size="4.23" font-family="'PT Sans Caption','Helvetica Neue','Helvetica',sans-serif" fill="#6C606B" id="img-37143133-46">
    <g transform="translate(8.15,87.93)" id="img-37143133-47">
      <g class="primitive">
        <text text-anchor="end" dy="0.35em">0</text>
      </g>
    </g>
    <g transform="translate(8.15,63.13)" id="img-37143133-48">
      <g class="primitive">
        <text text-anchor="end" dy="0.35em">1</text>
      </g>
    </g>
    <g transform="translate(8.15,38.34)" id="img-37143133-49">
      <g class="primitive">
        <text text-anchor="end" dy="0.35em">2</text>
      </g>
    </g>
    <g transform="translate(8.15,13.54)" id="img-37143133-50">
      <g class="primitive">
        <text text-anchor="end" dy="0.35em">3</text>
      </g>
    </g>
  </g>
  <g font-size="4.94" font-family="'PT Sans','Helvetica Neue','Helvetica',sans-serif" fill="#564A55" stroke="#000000" stroke-opacity="0.000" id="img-37143133-51">
    <g transform="translate(65.92,5)" id="img-37143133-52">
      <g class="primitive">
        <text text-anchor="middle" dy="0.6em">Reproduced signals</text>
      </g>
    </g>
  </g>
</g>
<defs>
  <clipPath id="img-37143133-20">
    <path d="M9.15,11.54 L122.7,11.54 122.7,89.93 9.15,89.93 " />
  </clipPath>
</defs>
</svg>
