<?xml version="1.0" encoding="UTF-8"?>
<svg xmlns="http://www.w3.org/2000/svg"
     xmlns:xlink="http://www.w3.org/1999/xlink"
     xmlns:gadfly="http://www.gadflyjl.org/ns"
     version="1.2"
     width="141.42mm" height="100mm" viewBox="0 0 141.42 100"
     stroke="none"
     fill="#000000"
     stroke-width="0.3"
     font-size="3.88"
>
<g class="plotroot xscalable yscalable" id="img-8e70d2bc-1">
  <g font-size="3.88" font-family="'PT Sans','Helvetica Neue','Helvetica',sans-serif" fill="#564A55" stroke="#000000" stroke-opacity="0.000" id="img-8e70d2bc-2">
    <text x="58.32" y="89.28" text-anchor="middle" dy="0.6em">X</text>
  </g>
  <g class="guide xlabels" font-size="2.82" font-family="'PT Sans Caption','Helvetica Neue','Helvetica',sans-serif" fill="#6C606B" id="img-8e70d2bc-3">
    <text x="18.96" y="83.23" text-anchor="middle" dy="0.6em">0</text>
    <text x="58.32" y="83.23" text-anchor="middle" dy="0.6em">50</text>
    <text x="97.69" y="83.23" text-anchor="middle" dy="0.6em">100</text>
  </g>
  <g class="guide colorkey" id="img-8e70d2bc-4">
    <g fill="#4C404B" font-size="2.82" font-family="'PT Sans','Helvetica Neue','Helvetica',sans-serif" id="img-8e70d2bc-5">
      <text x="103.21" y="42.1" dy="0.35em" id="img-8e70d2bc-6" class="color_Source_1">Source 1</text>
      <text x="103.21" y="45.14" dy="0.35em" id="img-8e70d2bc-7" class="color_Source_2">Source 2</text>
      <text x="103.21" y="48.18" dy="0.35em" id="img-8e70d2bc-8" class="color_Source_3">Source 3</text>
    </g>
    <g stroke="#000000" stroke-opacity="0.000" id="img-8e70d2bc-9">
      <rect x="100.69" y="41.33" width="1.52" height="1.52" id="img-8e70d2bc-10" class="color_Source_1" fill="#00BFFF"/>
      <rect x="100.69" y="44.38" width="1.52" height="1.52" id="img-8e70d2bc-11" class="color_Source_2" fill="#D4CA3A"/>
      <rect x="100.69" y="47.42" width="1.52" height="1.52" id="img-8e70d2bc-12" class="color_Source_3" fill="#FF6DAE"/>
    </g>
    <g fill="#362A35" font-size="3.88" font-family="'PT Sans','Helvetica Neue','Helvetica',sans-serif" stroke="#000000" stroke-opacity="0.000" id="img-8e70d2bc-13">
      <text x="100.69" y="38.45" id="img-8e70d2bc-14">Reconstructed sources</text>
    </g>
  </g>
<g clip-path="url(#img-8e70d2bc-15)">
  <g id="img-8e70d2bc-16">
    <g pointer-events="visible" opacity="1" fill="#000000" fill-opacity="0.000" stroke="#000000" stroke-opacity="0.000" class="guide background" id="img-8e70d2bc-17">
      <rect x="16.96" y="5" width="82.73" height="77.23" id="img-8e70d2bc-18"/>
    </g>
    <g class="guide ygridlines xfixed" stroke-dasharray="0.5,0.5" stroke-width="0.2" stroke="#D0D0E0" id="img-8e70d2bc-19">
      <path fill="none" d="M16.96,80.23 L 99.69 80.23" id="img-8e70d2bc-20"/>
      <path fill="none" d="M16.96,61.93 L 99.69 61.93" id="img-8e70d2bc-21"/>
      <path fill="none" d="M16.96,43.62 L 99.69 43.62" id="img-8e70d2bc-22"/>
      <path fill="none" d="M16.96,25.31 L 99.69 25.31" id="img-8e70d2bc-23"/>
      <path fill="none" d="M16.96,7 L 99.69 7" id="img-8e70d2bc-24"/>
    </g>
    <g class="guide xgridlines yfixed" stroke-dasharray="0.5,0.5" stroke-width="0.2" stroke="#D0D0E0" id="img-8e70d2bc-25">
      <path fill="none" d="M18.96,5 L 18.96 82.23" id="img-8e70d2bc-26"/>
      <path fill="none" d="M58.32,5 L 58.32 82.23" id="img-8e70d2bc-27"/>
      <path fill="none" d="M97.69,5 L 97.69 82.23" id="img-8e70d2bc-28"/>
    </g>
    <g class="plotpanel" id="img-8e70d2bc-29">
      <g stroke-width="0.3" fill="#000000" fill-opacity="0.000" class="geometry color_Source_3" stroke-dasharray="none" stroke="#FF6DAE" id="img-8e70d2bc-30">
        <path fill="none" d="M19.74,43.59 L 20.53 63.27 21.32 63.71 22.11 59.44 22.89 78.68 23.68 62.9 24.47 75.35 25.26 17.46 26.04 19.72 26.83 65.76 27.62 57.2 28.4 60.62 29.19 16.67 29.98 55.94 30.77 74.53 31.55 21.19 32.34 69.46 33.13 59.7 33.92 79.59 34.7 55.08 35.49 24.01 36.28 21.65 37.07 49.13 37.85 64.78 38.64 78.81 39.43 66.6 40.21 74.27 41 17.87 41.79 41.02 42.58 38.79 43.36 65.2 44.15 65.34 44.94 58.4 45.73 37.41 46.51 32.35 47.3 65.34 48.09 44.87 48.87 76.69 49.66 79.18 50.45 55.82 51.24 51.43 52.02 53.19 52.81 21.92 53.6 59.63 54.39 75.21 55.17 10.02 55.96 51.1 56.75 63.62 57.54 26.4 58.32 52.27 59.11 38.57 59.9 24.2 60.68 66.14 61.47 32.77 62.26 20.13 63.05 56.23 63.83 13.51 64.62 30.13 65.41 53.75 66.2 31.09 66.98 46.46 67.77 68.68 68.56 49.6 69.35 21.2 70.13 23.5 70.92 51.09 71.71 72.64 72.49 9.27 73.28 18.58 74.07 29.51 74.86 37.85 75.64 17 76.43 34.65 77.22 19.14 78.01 39.62 78.79 16.08 79.58 30.67 80.37 26.87 81.16 71.01 81.94 8.29 82.73 61.23 83.52 31.46 84.3 75.84 85.09 64.79 85.88 10.75 86.67 78.62 87.45 80.11 88.24 23.4 89.03 38.88 89.82 11.29 90.6 35.44 91.39 14.23 92.18 38.55 92.96 43.03 93.75 50.26 94.54 10.45 95.33 22.42 96.11 26.68 96.9 32.72 97.69 36.05" id="img-8e70d2bc-31"/>
      </g>
      <g stroke-width="0.3" fill="#000000" fill-opacity="0.000" class="geometry color_Source_2" stroke-dasharray="none" stroke="#D4CA3A" id="img-8e70d2bc-32">
        <path fill="none" d="M19.74,36.88 L 20.53 27.82 21.32 20.51 22.11 15.55 22.89 13.28 23.68 14.11 24.47 17.75 25.26 24.22 26.04 32.48 26.83 41.84 27.62 51.84 28.4 61.32 29.19 69.65 29.98 75.63 30.77 79.09 31.55 79.9 32.34 77.36 33.13 72.28 33.92 64.79 34.7 55.83 35.49 46.05 36.28 36.22 37.07 27.21 37.85 19.96 38.64 15.09 39.43 13.11 40.21 14.03 41 18.09 41.79 24.4 42.58 32.77 43.36 42.27 44.15 52.24 44.94 61.72 45.73 69.88 46.51 75.9 47.3 79.16 48.09 79.7 48.87 77.07 49.66 71.81 50.45 64.39 51.24 55.29 52.02 45.38 52.81 35.7 53.6 26.74 54.39 19.62 55.17 15.21 55.96 13.21 56.75 14.29 57.54 18.44 58.32 24.88 59.11 33.4 59.9 43.1 60.68 52.92 61.47 62.45 62.26 70.5 63.05 76.24 63.83 79.63 64.62 79.87 65.41 77.12 66.2 71.83 66.98 64.15 67.77 54.89 68.56 45.05 69.35 35.4 70.13 26.65 70.92 19.62 71.71 15.03 72.49 13.59 73.28 14.85 74.07 18.98 74.86 25.61 75.64 34.24 76.43 43.87 77.22 53.9 78.01 63.17 78.79 71.15 79.58 76.84 80.37 79.92 81.16 79.88 81.94 77.29 82.73 71.57 83.52 63.95 84.3 54.54 85.09 44.65 85.88 35.12 86.67 26.2 87.45 19.38 88.24 15.23 89.03 13.65 89.82 15.21 90.6 19.43 91.39 26.28 92.18 34.82 92.96 44.53 93.75 54.45 94.54 63.87 95.33 71.61 96.11 77.18 96.9 80.06 97.69 79.99" id="img-8e70d2bc-33"/>
      </g>
      <g stroke-width="0.3" fill="#000000" fill-opacity="0.000" class="geometry color_Source_1" stroke-dasharray="none" stroke="#00BFFF" id="img-8e70d2bc-34">
        <path fill="none" d="M19.74,46.53 L 20.53 44.97 21.32 43.32 22.11 41.68 22.89 40.24 23.68 38.65 24.47 37.28 25.26 35.58 26.04 34.27 26.83 33.26 27.62 31.98 28.4 30.81 29.19 29.4 29.98 28.47 30.77 27.45 31.55 26.04 32.34 25.21 33.13 24.09 33.92 23.16 34.7 22.02 35.49 20.91 36.28 20.02 37.07 19.38 37.85 18.77 38.64 18.26 39.43 17.71 40.21 17.38 41 16.81 41.79 16.79 42.58 16.74 43.36 16.94 44.15 17.08 44.94 17.25 45.73 17.4 46.51 17.69 47.3 18.23 48.09 18.52 48.87 19.14 49.66 19.63 50.45 20.01 51.24 20.56 52.02 21.2 52.81 21.72 53.6 22.71 54.39 23.66 55.17 24.24 55.96 25.52 56.75 26.74 57.54 27.76 58.32 29.23 59.11 30.54 59.9 31.91 60.68 33.64 61.47 34.97 62.26 36.44 63.05 38.18 63.83 39.47 64.62 41.08 65.41 42.71 66.2 44.06 66.98 45.6 67.77 47.17 68.56 48.51 69.35 49.79 70.13 51.25 70.92 52.87 71.71 54.47 72.49 55.62 73.28 57.19 74.07 58.79 74.86 60.38 75.64 61.79 76.43 63.41 77.22 64.8 78.01 66.35 78.79 67.58 79.58 68.95 80.37 70.13 81.16 71.5 81.94 72.16 82.73 73.38 83.52 74.05 84.3 75.05 85.09 75.66 85.88 75.96 86.67 76.89 87.45 77.41 88.24 77.55 89.03 78.06 89.82 78.29 90.6 78.78 91.39 78.96 92.18 79.35 92.96 79.56 93.75 79.71 94.54 79.5 95.33 79.5 96.11 79.34 96.9 79.08 97.69 78.69" id="img-8e70d2bc-35"/>
      </g>
    </g>
  </g>
</g>
  <g class="guide ylabels" font-size="2.82" font-family="'PT Sans Caption','Helvetica Neue','Helvetica',sans-serif" fill="#6C606B" id="img-8e70d2bc-36">
    <text x="15.96" y="80.23" text-anchor="end" dy="0.35em" id="img-8e70d2bc-37">0.0</text>
    <text x="15.96" y="61.93" text-anchor="end" dy="0.35em" id="img-8e70d2bc-38">0.2</text>
    <text x="15.96" y="43.62" text-anchor="end" dy="0.35em" id="img-8e70d2bc-39">0.4</text>
    <text x="15.96" y="25.31" text-anchor="end" dy="0.35em" id="img-8e70d2bc-40">0.6</text>
    <text x="15.96" y="7" text-anchor="end" dy="0.35em" id="img-8e70d2bc-41">0.8</text>
  </g>
  <g font-size="3.88" font-family="'PT Sans','Helvetica Neue','Helvetica',sans-serif" fill="#564A55" stroke="#000000" stroke-opacity="0.000" id="img-8e70d2bc-42">
    <text x="9.11" y="43.62" text-anchor="end" dy="0.35em" id="img-8e70d2bc-43">Y</text>
  </g>
</g>
<defs>
  <clipPath id="img-8e70d2bc-15">
  <path d="M16.96,5 L 99.69 5 99.69 82.23 16.96 82.23" />
</clipPath>
</defs>
</svg>
