<?xml version="1.0" encoding="UTF-8"?>
<svg xmlns="http://www.w3.org/2000/svg"
     xmlns:xlink="http://www.w3.org/1999/xlink"
     xmlns:gadfly="http://www.gadflyjl.org/ns"
     version="1.2"
     width="141.42mm" height="100mm" viewBox="0 0 141.42 100"
     stroke="none"
     fill="#000000"
     stroke-width="0.3"
     font-size="3.88"
>
<g class="plotroot xscalable yscalable" id="img-b7d898c8-1">
  <g font-size="3.88" font-family="'PT Sans','Helvetica Neue','Helvetica',sans-serif" fill="#564A55" stroke="#000000" stroke-opacity="0.000" id="img-b7d898c8-2">
    <text x="59.54" y="89.28" text-anchor="middle" dy="0.6em">X</text>
  </g>
  <g class="guide xlabels" font-size="2.82" font-family="'PT Sans Caption','Helvetica Neue','Helvetica',sans-serif" fill="#6C606B" id="img-b7d898c8-3">
    <text x="16.54" y="83.23" text-anchor="middle" dy="0.6em">0</text>
    <text x="59.54" y="83.23" text-anchor="middle" dy="0.6em">50</text>
    <text x="102.55" y="83.23" text-anchor="middle" dy="0.6em">100</text>
  </g>
  <g class="guide colorkey" id="img-b7d898c8-4">
    <g fill="#4C404B" font-size="2.82" font-family="'PT Sans','Helvetica Neue','Helvetica',sans-serif" id="img-b7d898c8-5">
      <text x="108.35" y="40.01" dy="0.35em" id="img-b7d898c8-6" class="color_Signal_1">Signal 1</text>
      <text x="108.35" y="43.62" dy="0.35em" id="img-b7d898c8-7" class="color_Signal_2">Signal 2</text>
      <text x="108.35" y="47.22" dy="0.35em" id="img-b7d898c8-8" class="color_Signal_3">Signal 3</text>
      <text x="108.35" y="50.83" dy="0.35em" id="img-b7d898c8-9" class="color_Signal_4">Signal 4</text>
    </g>
    <g stroke="#000000" stroke-opacity="0.000" id="img-b7d898c8-10">
      <rect x="105.55" y="39.11" width="1.8" height="1.8" id="img-b7d898c8-11" class="color_Signal_1" fill="#00BFFF"/>
      <rect x="105.55" y="42.72" width="1.8" height="1.8" id="img-b7d898c8-12" class="color_Signal_2" fill="#D4CA3A"/>
      <rect x="105.55" y="46.32" width="1.8" height="1.8" id="img-b7d898c8-13" class="color_Signal_3" fill="#FF6DAE"/>
      <rect x="105.55" y="49.93" width="1.8" height="1.8" id="img-b7d898c8-14" class="color_Signal_4" fill="#00B78D"/>
    </g>
    <g fill="#362A35" font-size="3.88" font-family="'PT Sans','Helvetica Neue','Helvetica',sans-serif" stroke="#000000" stroke-opacity="0.000" id="img-b7d898c8-15">
      <text x="105.55" y="36.19" id="img-b7d898c8-16">Reproduced signals</text>
    </g>
  </g>
<g clip-path="url(#img-b7d898c8-17)">
  <g id="img-b7d898c8-18">
    <g pointer-events="visible" opacity="1" fill="#000000" fill-opacity="0.000" stroke="#000000" stroke-opacity="0.000" class="guide background" id="img-b7d898c8-19">
      <rect x="14.54" y="5" width="90.01" height="77.23" id="img-b7d898c8-20"/>
    </g>
    <g class="guide ygridlines xfixed" stroke-dasharray="0.5,0.5" stroke-width="0.2" stroke="#D0D0E0" id="img-b7d898c8-21">
      <path fill="none" d="M14.54,80.23 L 104.55 80.23" id="img-b7d898c8-22"/>
      <path fill="none" d="M14.54,55.82 L 104.55 55.82" id="img-b7d898c8-23"/>
      <path fill="none" d="M14.54,31.41 L 104.55 31.41" id="img-b7d898c8-24"/>
      <path fill="none" d="M14.54,7 L 104.55 7" id="img-b7d898c8-25"/>
    </g>
    <g class="guide xgridlines yfixed" stroke-dasharray="0.5,0.5" stroke-width="0.2" stroke="#D0D0E0" id="img-b7d898c8-26">
      <path fill="none" d="M16.54,5 L 16.54 82.23" id="img-b7d898c8-27"/>
      <path fill="none" d="M59.54,5 L 59.54 82.23" id="img-b7d898c8-28"/>
      <path fill="none" d="M102.55,5 L 102.55 82.23" id="img-b7d898c8-29"/>
    </g>
    <g class="plotpanel" id="img-b7d898c8-30">
      <g stroke-width="0.3" fill="#000000" fill-opacity="0.000" class="geometry color_Signal_4" stroke-dasharray="none" stroke="#00B78D" id="img-b7d898c8-31">
        <path fill="none" d="M17.4,35.79 L 18.26 28.61 19.12 22.67 19.98 18.44 20.84 16.25 21.7 16.24 22.56 18.36 23.42 22.38 24.28 27.88 25.14 34.32 26 41.09 26.86 47.53 27.72 53.02 28.58 57.03 29.44 59.16 30.3 59.18 31.16 57.05 32.02 52.92 32.88 47.13 33.74 40.17 34.6 32.62 35.46 25.13 36.32 18.36 37.18 12.87 38.04 9.14 38.9 7.48 39.76 8.03 40.62 10.73 41.48 15.32 42.34 21.38 43.2 28.38 44.06 35.67 44.92 42.62 45.78 48.6 46.64 53.08 47.5 55.68 48.36 56.16 49.22 54.51 50.08 50.88 50.94 45.62 51.8 39.21 52.66 32.26 53.52 25.41 54.38 19.3 55.24 14.5 56.1 11.48 56.96 10.54 57.82 11.8 58.68 15.19 59.54 20.44 60.4 27.13 61.26 34.69 62.12 42.51 62.98 49.93 63.84 56.33 64.7 61.2 65.56 64.13 66.42 64.93 67.28 63.57 68.14 60.23 69 55.25 69.86 49.14 70.72 42.49 71.58 35.95 72.44 30.16 73.3 25.68 74.16 22.97 75.02 22.33 75.88 23.86 76.74 27.47 77.6 32.9 78.46 39.71 79.32 47.34 80.18 55.15 81.04 62.49 81.9 68.75 82.76 73.41 83.62 76.1 84.48 76.62 85.34 74.96 86.2 71.3 87.07 66 87.93 59.57 88.79 52.61 89.65 45.78 90.51 39.69 91.37 34.93 92.23 31.94 93.09 30.99 93.95 32.2 94.81 35.47 95.67 40.5 96.53 46.87 97.39 54.01 98.25 61.28 99.11 68.03 99.97 73.65 100.83 77.64 101.69 79.63 102.55 79.44" id="img-b7d898c8-32"/>
      </g>
      <g stroke-width="0.3" fill="#000000" fill-opacity="0.000" class="geometry color_Signal_3" stroke-dasharray="none" stroke="#FF6DAE" id="img-b7d898c8-33">
        <path fill="none" d="M17.4,42.11 L 18.26 54.63 19.12 54.25 19.98 50.74 20.84 63.02 21.7 51.82 22.56 59.6 23.42 20.2 24.28 21.19 25.14 51.59 26 45.36 26.86 47.18 27.72 17.23 28.58 43.13 29.44 55.15 30.3 18.9 31.16 50.86 32.02 43.87 32.88 56.8 33.74 39.94 34.6 18.69 35.46 16.74 36.32 34.86 37.18 45.08 38.04 54.25 38.9 45.86 39.76 50.86 40.62 12.9 41.48 28.39 42.34 26.89 43.2 44.64 44.06 44.8 44.92 40.24 45.78 26.26 46.64 23 47.5 45.29 48.36 31.72 49.22 53.25 50.08 55.1 50.94 39.63 51.8 36.9 52.66 38.32 53.52 17.61 54.38 43.23 55.24 54.02 56.1 10.65 56.96 38.64 57.82 47.51 58.68 23.03 59.54 40.93 60.4 32.3 61.26 23.25 62.12 52.01 62.98 30.23 63.84 22.37 64.7 47.23 65.56 19.18 66.42 30.94 67.28 47.4 68.14 32.78 69 43.67 69.86 59.16 70.72 46.93 71.58 28.44 72.44 30.55 73.3 49.66 74.16 64.71 75.02 22.78 75.88 29.65 76.74 37.61 77.6 43.83 78.46 30.47 79.32 42.92 80.18 33.12 81.04 47.46 81.9 32.21 82.76 42.53 83.62 40.47 84.48 70.55 85.34 28.85 86.2 64.75 87.07 45.1 87.93 75.18 88.79 68.02 89.65 31.99 90.51 77.76 91.37 78.95 92.23 41.07 93.09 51.63 93.95 33.27 94.81 49.62 95.67 35.51 96.53 51.95 97.39 55.04 98.25 59.95 99.11 33.24 99.97 41.26 100.83 44.05 101.69 47.99 102.55 50.05" id="img-b7d898c8-34"/>
      </g>
      <g stroke-width="0.3" fill="#000000" fill-opacity="0.000" class="geometry color_Signal_2" stroke-dasharray="none" stroke="#D4CA3A" id="img-b7d898c8-35">
        <path fill="none" d="M17.4,35.95 L 18.26 35.95 19.12 30.73 19.98 25.64 20.84 30.48 21.7 25.75 22.56 32.63 23.42 17.79 24.28 24.63 25.14 47.08 26 51.53 26.86 59.65 27.72 50.9 28.58 68.58 29.44 77.41 30.3 59.96 31.16 74.42 32.02 67.39 32.88 68.62 33.74 53.73 34.6 36.04 35.46 28.01 36.32 30.69 37.18 30.66 38.04 31.83 38.9 26.24 39.76 29.52 40.62 13.41 41.48 25.88 42.34 31.28 43.2 47.19 44.06 54.56 44.92 59.18 45.78 58.08 46.64 60.79 47.5 74.34 48.36 67.81 49.22 76.65 50.08 73.63 50.94 60.27 51.8 52.1 52.66 45.42 53.52 27.73 54.38 33.9 55.24 33.95 56.1 8.65 56.96 21.08 57.82 26.11 58.68 16.57 59.54 30.05 60.4 31.68 61.26 33.95 62.12 55.35 62.98 51.06 63.84 52.7 64.7 69.14 65.56 57.17 66.42 62.97 67.28 68.95 68.14 57.39 69 56.95 69.86 57.67 70.72 43.99 71.58 27.29 72.44 21.64 73.3 25.81 74.16 29.73 75.02 7.23 75.88 11.32 76.74 18.05 77.6 25.74 78.46 25.03 79.32 38.08 80.18 40.2 81.04 53.94 81.9 51.84 82.76 60.95 83.62 61.94 84.48 76.85 85.34 53.72 86.2 67.43 87.07 51.76 87.93 59.87 88.79 48.86 89.65 23.58 90.51 39.99 91.37 35.48 92.23 13.24 93.09 17.32 93.95 9.13 94.81 20.4 95.67 18.26 96.53 32.77 97.39 41.41 98.25 51.15 99.11 44.6 99.97 54.33 100.83 59.87 101.69 64.03 102.55 65.1" id="img-b7d898c8-36"/>
      </g>
      <g stroke-width="0.3" fill="#000000" fill-opacity="0.000" class="geometry color_Signal_1" stroke-dasharray="none" stroke="#00BFFF" id="img-b7d898c8-37">
        <path fill="none" d="M17.4,38.95 L 18.26 41.62 19.12 38.46 19.98 34.59 20.84 39.63 21.7 34.03 22.56 38.98 23.42 21.29 24.28 24.53 25.14 42.96 26 43.22 26.86 47.36 27.72 35.12 28.58 50.08 29.44 57.16 30.3 39.04 31.16 53.95 32.02 48.39 32.88 51.97 33.74 40.05 34.6 25.66 35.46 20.94 36.32 26.61 37.18 28.97 38.04 31.69 38.9 26.67 39.76 29.45 40.62 11.81 41.48 21.85 42.34 24.13 43.2 36.51 44.06 40.24 44.92 41.43 45.78 37.43 46.64 38.04 47.5 50.49 48.36 43.94 49.22 53.88 50.08 52.99 50.94 42.62 51.8 38.06 52.66 35.29 53.52 21.51 54.38 31.26 55.24 34.26 56.1 11.06 56.96 24.59 57.82 29.65 58.68 19.11 59.54 30.68 60.4 29.71 61.26 28.97 62.12 47.26 62.98 40.08 63.84 39.35 64.7 54.21 65.56 41.65 66.42 47.94 67.28 55.49 68.14 46.5 69 49.46 69.86 54.15 70.72 44.71 71.58 32.19 72.44 30.35 73.3 37.67 74.16 43.84 75.02 22.56 75.88 26.75 76.74 32.54 77.6 38.37 78.46 35.09 79.32 45.13 80.18 44.13 81.04 54.97 81.9 50.48 82.76 57.97 83.62 58.29 84.48 73.58 85.34 51.91 86.2 68.03 87.07 55.55 87.93 67.38 88.79 60.32 89.65 38.88 90.51 58.72 91.37 56.94 92.23 36.5 93.09 41.31 93.95 32.74 94.81 42.55 95.67 38.01 96.53 49.41 97.39 54.53 98.25 60.61 99.11 50.63 99.97 57.45 100.83 60.85 101.69 63.81 102.55 64.75" id="img-b7d898c8-38"/>
      </g>
    </g>
  </g>
</g>
  <g class="guide ylabels" font-size="2.82" font-family="'PT Sans Caption','Helvetica Neue','Helvetica',sans-serif" fill="#6C606B" id="img-b7d898c8-39">
    <text x="13.54" y="80.23" text-anchor="end" dy="0.35em" id="img-b7d898c8-40">0</text>
    <text x="13.54" y="55.82" text-anchor="end" dy="0.35em" id="img-b7d898c8-41">1</text>
    <text x="13.54" y="31.41" text-anchor="end" dy="0.35em" id="img-b7d898c8-42">2</text>
    <text x="13.54" y="7" text-anchor="end" dy="0.35em" id="img-b7d898c8-43">3</text>
  </g>
  <g font-size="3.88" font-family="'PT Sans','Helvetica Neue','Helvetica',sans-serif" fill="#564A55" stroke="#000000" stroke-opacity="0.000" id="img-b7d898c8-44">
    <text x="9.11" y="43.62" text-anchor="end" dy="0.35em" id="img-b7d898c8-45">Y</text>
  </g>
</g>
<defs>
  <clipPath id="img-b7d898c8-17">
  <path d="M14.54,5 L 104.55 5 104.55 82.23 14.54 82.23" />
</clipPath>
</defs>
</svg>
