<?xml version="1.0" encoding="UTF-8"?>
<svg xmlns="http://www.w3.org/2000/svg"
     xmlns:xlink="http://www.w3.org/1999/xlink"
     xmlns:gadfly="http://www.gadflyjl.org/ns"
     version="1.2"
     width="152.4mm" height="101.6mm" viewBox="0 0 152.4 101.6"
     stroke="none"
     fill="#000000"
     stroke-width="0.3"
     font-size="3.88"
>
<g class="plotroot xscalable yscalable" id="img-6bd10744-1">
  <g font-size="4.94" font-family="'PT Sans','Helvetica Neue','Helvetica',sans-serif" fill="#564A55" stroke="#000000" stroke-opacity="0.000" id="img-6bd10744-2">
    <text x="72.15" y="89" text-anchor="middle" dy="0.6em">Time [a]</text>
  </g>
  <g class="guide xlabels" font-size="4.23" font-family="'PT Sans Caption','Helvetica Neue','Helvetica',sans-serif" fill="#6C606B" id="img-6bd10744-3">
    <text x="23.63" y="80.99" text-anchor="middle" dy="0.6em">0</text>
    <text x="43.03" y="80.99" text-anchor="middle" dy="0.6em">10</text>
    <text x="62.44" y="80.99" text-anchor="middle" dy="0.6em">20</text>
    <text x="81.85" y="80.99" text-anchor="middle" dy="0.6em">30</text>
    <text x="101.26" y="80.99" text-anchor="middle" dy="0.6em">40</text>
    <text x="120.67" y="80.99" text-anchor="middle" dy="0.6em">50</text>
  </g>
  <g class="guide colorkey" id="img-6bd10744-4">
    <g fill="#4C404B" font-size="4.23" font-family="'PT Sans','Helvetica Neue','Helvetica',sans-serif" id="img-6bd10744-5">
      <text x="128.12" y="39.04" dy="0.35em" id="img-6bd10744-6" class="color_v">v</text>
      <text x="128.12" y="45.95" dy="0.35em" id="img-6bd10744-7" class="color_t0">t<tspan style="dominant-baseline:inherit" dy="0.6em" font-size="83%">0</tspan><tspan dy="-0.498000em"></tspan></text>
      <text x="128.12" y="52.86" dy="0.35em" id="img-6bd10744-8" class="color_t1">t<tspan style="dominant-baseline:inherit" dy="0.6em" font-size="83%">1</tspan><tspan dy="-0.498000em"></tspan></text>
    </g>
    <g stroke="#000000" stroke-opacity="0.000" id="img-6bd10744-9">
      <rect x="123.67" y="37.31" width="3.46" height="3.46" id="img-6bd10744-10" class="color_v" fill="#00BFFF"/>
      <rect x="123.67" y="44.22" width="3.46" height="3.46" id="img-6bd10744-11" class="color_t0" fill="#D4CA3A"/>
      <rect x="123.67" y="51.13" width="3.46" height="3.46" id="img-6bd10744-12" class="color_t1" fill="#FF6DAE"/>
    </g>
    <g fill="#362A35" font-size="5.64" font-family="'PT Sans','Helvetica Neue','Helvetica',sans-serif" stroke="#000000" stroke-opacity="0.000" id="img-6bd10744-13">
      <text x="123.67" y="32.76" id="img-6bd10744-14">parameter</text>
    </g>
  </g>
<g clip-path="url(#img-6bd10744-15)">
  <g id="img-6bd10744-16">
    <g pointer-events="visible" opacity="1" fill="#000000" fill-opacity="0.000" stroke="#000000" stroke-opacity="0.000" class="guide background" id="img-6bd10744-17">
      <rect x="21.63" y="5" width="101.04" height="74.99" id="img-6bd10744-18"/>
    </g>
    <g class="guide ygridlines xfixed" stroke-dasharray="0.5,0.5" stroke-width="0.2" stroke="#D0D0E0" id="img-6bd10744-19">
      <path fill="none" d="M21.63,77.99 L 122.67 77.99" id="img-6bd10744-20"/>
      <path fill="none" d="M21.63,42.5 L 122.67 42.5" id="img-6bd10744-21"/>
      <path fill="none" d="M21.63,7 L 122.67 7" id="img-6bd10744-22"/>
    </g>
    <g class="guide xgridlines yfixed" stroke-dasharray="0.5,0.5" stroke-width="0.2" stroke="#D0D0E0" id="img-6bd10744-23">
      <path fill="none" d="M23.63,5 L 23.63 79.99" id="img-6bd10744-24"/>
      <path fill="none" d="M43.03,5 L 43.03 79.99" id="img-6bd10744-25"/>
      <path fill="none" d="M62.44,5 L 62.44 79.99" id="img-6bd10744-26"/>
      <path fill="none" d="M81.85,5 L 81.85 79.99" id="img-6bd10744-27"/>
      <path fill="none" d="M101.26,5 L 101.26 79.99" id="img-6bd10744-28"/>
      <path fill="none" d="M120.67,5 L 120.67 79.99" id="img-6bd10744-29"/>
    </g>
    <g class="plotpanel" id="img-6bd10744-30">
      <g stroke-width="0.53" fill="#000000" fill-opacity="0.000" stroke-dasharray="none" id="img-6bd10744-31">
        <path fill="none" d="M25.57,21.68 L 27.51 30.4 29.45 24.1 31.39 19.33 33.33 16.78 35.27 15.47 37.21 14.62 39.15 13.88 41.09 13.23 43.03 12.68 44.98 12.09 46.92 11.45 48.86 10.96 50.8 10.77 52.74 10.77 54.68 10.9 56.62 11.08 58.56 11.22 60.5 11.31 62.44 11.35 64.38 11.36 66.32 11.35 68.27 11.36 70.21 11.42 72.15 11.53 74.09 11.65 76.03 11.76 77.97 11.84 79.91 11.87 81.85 11.86 83.79 11.88 85.73 11.94 87.67 12.04 89.61 12.15 91.55 12.28 93.5 12.42 95.44 12.56 97.38 12.68 99.32 12.77 101.26 12.84 103.2 12.89 105.14 12.92 107.08 12.93 109.02 12.92 110.96 12.89 112.9 12.85 114.84 12.79 116.79 12.72 118.73 12.63 120.67 12.53" id="img-6bd10744-32" class="geometry color_v" stroke="#00BFFF"/>
        <path fill="none" d="M25.57,63.95 L 27.51 39.4 29.45 27.1 31.39 24.98 33.33 26.3 35.27 29.23 37.21 32.71 39.15 36.38 41.09 40.29 43.03 44.57 44.98 49.26 46.92 54.04 48.86 58.26 50.8 61.58 52.74 64.1 54.68 66.01 56.62 67.5 58.56 68.7 60.5 69.69 62.44 70.52 64.38 71.23 66.32 71.84 68.27 72.37 70.21 72.82 72.15 73.22 74.09 73.57 76.03 73.88 77.97 74.15 79.91 74.38 81.85 74.59 83.79 74.78 85.73 74.94 87.67 75.09 89.61 75.22 91.55 75.34 93.5 75.44 95.44 75.53 97.38 75.62 99.32 75.69 101.26 75.76 103.2 75.82 105.14 75.88 107.08 75.92 109.02 75.96 110.96 76 112.9 76.03 114.84 76.06 116.79 76.09 118.73 76.11 120.67 76.12" id="img-6bd10744-33" class="geometry color_t0" stroke="#D4CA3A"/>
        <path fill="none" d="M25.57,77.99 L 27.51 77.99 29.45 77.99 31.39 77.99 33.33 77.99 35.27 77.99 37.21 77.98 39.15 77.86 41.09 77.58 43.03 77.1 44.98 76.45 46.92 75.65 48.86 74.73 50.8 73.74 52.74 72.72 54.68 71.7 56.62 70.7 58.56 69.77 60.5 68.9 62.44 68.1 64.38 67.38 66.32 66.67 68.27 65.97 70.21 65.29 72.15 64.63 74.09 63.97 76.03 63.34 77.97 62.73 79.91 62.14 81.85 61.58 83.79 61.05 85.73 60.55 87.67 60.11 89.61 59.73 91.55 59.42 93.5 59.16 95.44 58.94 97.38 58.76 99.32 58.61 101.26 58.5 103.2 58.43 105.14 58.42 107.08 58.45 109.02 58.49 110.96 58.55 112.9 58.6 114.84 58.66 116.79 58.71 118.73 58.75 120.67 58.79" id="img-6bd10744-34" class="geometry color_t1" stroke="#FF6DAE"/>
      </g>
    </g>
  </g>
</g>
  <g class="guide ylabels" font-size="4.23" font-family="'PT Sans Caption','Helvetica Neue','Helvetica',sans-serif" fill="#6C606B" id="img-6bd10744-35">
    <text x="20.63" y="77.99" text-anchor="end" dy="0.35em" id="img-6bd10744-36">0.0</text>
    <text x="20.63" y="42.5" text-anchor="end" dy="0.35em" id="img-6bd10744-37">0.5</text>
    <text x="20.63" y="7" text-anchor="end" dy="0.35em" id="img-6bd10744-38">1.0</text>
  </g>
  <g font-size="4.94" font-family="'PT Sans','Helvetica Neue','Helvetica',sans-serif" fill="#564A55" stroke="#000000" stroke-opacity="0.000" id="img-6bd10744-39">
    <text x="9.3" y="40.5" text-anchor="middle" dy="0.35em" transform="rotate(-90, 9.3, 42.5)" id="img-6bd10744-40">Total Effect</text>
  </g>
</g>
<defs>
  <clipPath id="img-6bd10744-15">
  <path d="M21.63,5 L 122.67 5 122.67 79.99 21.63 79.99" />
</clipPath>
</defs>
</svg>
