<?xml version="1.0" encoding="UTF-8"?>
<svg xmlns="http://www.w3.org/2000/svg"
     xmlns:xlink="http://www.w3.org/1999/xlink"
     xmlns:gadfly="http://www.gadflyjl.org/ns"
     version="1.2"
     width="152.4mm" height="101.6mm" viewBox="0 0 152.4 101.6"
     stroke="none"
     fill="#000000"
     stroke-width="0.3"
     font-size="3.88"
>
<g class="plotroot xscalable yscalable" id="img-669f6bcd-1">
  <g font-size="4.94" font-family="'PT Sans','Helvetica Neue','Helvetica',sans-serif" fill="#564A55" stroke="#000000" stroke-opacity="0.000" id="img-669f6bcd-2">
    <text x="72.15" y="89" text-anchor="middle" dy="0.6em">Time [a]</text>
  </g>
  <g class="guide xlabels" font-size="4.23" font-family="'PT Sans Caption','Helvetica Neue','Helvetica',sans-serif" fill="#6C606B" id="img-669f6bcd-3">
    <text x="23.63" y="80.99" text-anchor="middle" dy="0.6em">0</text>
    <text x="43.03" y="80.99" text-anchor="middle" dy="0.6em">10</text>
    <text x="62.44" y="80.99" text-anchor="middle" dy="0.6em">20</text>
    <text x="81.85" y="80.99" text-anchor="middle" dy="0.6em">30</text>
    <text x="101.26" y="80.99" text-anchor="middle" dy="0.6em">40</text>
    <text x="120.67" y="80.99" text-anchor="middle" dy="0.6em">50</text>
  </g>
  <g class="guide colorkey" id="img-669f6bcd-4">
    <g fill="#4C404B" font-size="4.23" font-family="'PT Sans','Helvetica Neue','Helvetica',sans-serif" id="img-669f6bcd-5">
      <text x="128.12" y="39.04" dy="0.35em" id="img-669f6bcd-6" class="color_v">v</text>
      <text x="128.12" y="45.95" dy="0.35em" id="img-669f6bcd-7" class="color_t0">t<tspan style="dominant-baseline:inherit" dy="0.6em" font-size="83%">0</tspan><tspan dy="-0.498000em"></tspan></text>
      <text x="128.12" y="52.86" dy="0.35em" id="img-669f6bcd-8" class="color_t1">t<tspan style="dominant-baseline:inherit" dy="0.6em" font-size="83%">1</tspan><tspan dy="-0.498000em"></tspan></text>
    </g>
    <g stroke="#000000" stroke-opacity="0.000" id="img-669f6bcd-9">
      <rect x="123.67" y="37.31" width="3.46" height="3.46" id="img-669f6bcd-10" class="color_v" fill="#00BFFF"/>
      <rect x="123.67" y="44.22" width="3.46" height="3.46" id="img-669f6bcd-11" class="color_t0" fill="#D4CA3A"/>
      <rect x="123.67" y="51.13" width="3.46" height="3.46" id="img-669f6bcd-12" class="color_t1" fill="#FF6DAE"/>
    </g>
    <g fill="#362A35" font-size="5.64" font-family="'PT Sans','Helvetica Neue','Helvetica',sans-serif" stroke="#000000" stroke-opacity="0.000" id="img-669f6bcd-13">
      <text x="123.67" y="32.76" id="img-669f6bcd-14">parameter</text>
    </g>
  </g>
<g clip-path="url(#img-669f6bcd-15)">
  <g id="img-669f6bcd-16">
    <g pointer-events="visible" opacity="1" fill="#000000" fill-opacity="0.000" stroke="#000000" stroke-opacity="0.000" class="guide background" id="img-669f6bcd-17">
      <rect x="21.63" y="5" width="101.04" height="74.99" id="img-669f6bcd-18"/>
    </g>
    <g class="guide ygridlines xfixed" stroke-dasharray="0.5,0.5" stroke-width="0.2" stroke="#D0D0E0" id="img-669f6bcd-19">
      <path fill="none" d="M21.63,77.99 L 122.67 77.99" id="img-669f6bcd-20"/>
      <path fill="none" d="M21.63,42.5 L 122.67 42.5" id="img-669f6bcd-21"/>
      <path fill="none" d="M21.63,7 L 122.67 7" id="img-669f6bcd-22"/>
    </g>
    <g class="guide xgridlines yfixed" stroke-dasharray="0.5,0.5" stroke-width="0.2" stroke="#D0D0E0" id="img-669f6bcd-23">
      <path fill="none" d="M23.63,5 L 23.63 79.99" id="img-669f6bcd-24"/>
      <path fill="none" d="M43.03,5 L 43.03 79.99" id="img-669f6bcd-25"/>
      <path fill="none" d="M62.44,5 L 62.44 79.99" id="img-669f6bcd-26"/>
      <path fill="none" d="M81.85,5 L 81.85 79.99" id="img-669f6bcd-27"/>
      <path fill="none" d="M101.26,5 L 101.26 79.99" id="img-669f6bcd-28"/>
      <path fill="none" d="M120.67,5 L 120.67 79.99" id="img-669f6bcd-29"/>
    </g>
    <g class="plotpanel" id="img-669f6bcd-30">
      <g stroke-width="0.53" fill="#000000" fill-opacity="0.000" stroke-dasharray="none" id="img-669f6bcd-31">
        <path fill="none" d="M25.57,21.8 L 27.51 42.95 29.45 41.27 31.39 35.67 33.33 30.2 35.27 24.78 37.21 20.13 39.15 16.8 41.09 14.7 43.03 13.4 44.98 12.51 46.92 11.82 48.86 11.15 50.8 10.4 52.74 9.66 54.68 9.07 56.62 8.74 58.56 8.69 60.5 8.89 62.44 9.26 64.38 9.71 66.32 10.14 68.27 10.49 70.21 10.73 72.15 10.86 74.09 10.9 76.03 10.89 77.97 10.88 79.91 10.91 81.85 10.97 83.79 11.03 85.73 11.08 87.67 11.13 89.61 11.19 91.55 11.28 93.5 11.35 95.44 11.41 97.38 11.42 99.32 11.4 101.26 11.35 103.2 11.29 105.14 11.22 107.08 11.14 109.02 11.07 110.96 11 112.9 10.95 114.84 10.91 116.79 10.88 118.73 10.88 120.67 10.88" id="img-669f6bcd-32" class="geometry color_v" stroke="#00BFFF"/>
        <path fill="none" d="M25.57,77.85 L 27.51 69.61 29.45 55.86 31.39 43.32 33.33 35.43 35.27 31.99 37.21 31.74 39.15 33.56 41.09 36.5 43.03 39.99 44.98 43.75 46.92 47.7 48.86 51.81 50.8 55.86 52.74 59.44 54.68 62.36 56.62 64.68 58.56 66.53 60.5 68.05 62.44 69.3 64.38 70.33 66.32 71.17 68.27 71.85 70.21 72.4 72.15 72.84 74.09 73.21 76.03 73.51 77.97 73.76 79.91 73.98 81.85 74.18 83.79 74.35 85.73 74.51 87.67 74.66 89.61 74.79 91.55 74.92 93.5 75.04 95.44 75.15 97.38 75.25 99.32 75.34 101.26 75.43 103.2 75.52 105.14 75.59 107.08 75.66 109.02 75.73 110.96 75.79 112.9 75.84 114.84 75.89 116.79 75.94 118.73 75.98 120.67 76.02" id="img-669f6bcd-33" class="geometry color_t0" stroke="#D4CA3A"/>
        <path fill="none" d="M25.57,77.99 L 27.51 77.99 29.45 77.99 31.39 77.99 33.33 77.99 35.27 77.99 37.21 77.99 39.15 77.99 41.09 77.96 43.03 77.84 44.98 77.56 46.92 77.14 48.86 76.59 50.8 75.9 52.74 75.12 54.68 74.26 56.62 73.35 58.56 72.36 60.5 71.34 62.44 70.31 64.38 69.31 66.32 68.36 68.27 67.49 70.21 66.72 72.15 66.01 74.09 65.33 76.03 64.68 77.97 64.05 79.91 63.42 81.85 62.81 83.79 62.24 85.73 61.69 87.67 61.17 89.61 60.68 91.55 60.24 93.5 59.85 95.44 59.5 97.38 59.2 99.32 58.95 101.26 58.74 103.2 58.56 105.14 58.43 107.08 58.33 109.02 58.28 110.96 58.27 112.9 58.3 114.84 58.36 116.79 58.44 118.73 58.53 120.67 58.62" id="img-669f6bcd-34" class="geometry color_t1" stroke="#FF6DAE"/>
      </g>
    </g>
  </g>
</g>
  <g class="guide ylabels" font-size="4.23" font-family="'PT Sans Caption','Helvetica Neue','Helvetica',sans-serif" fill="#6C606B" id="img-669f6bcd-35">
    <text x="20.63" y="77.99" text-anchor="end" dy="0.35em" id="img-669f6bcd-36">0.0</text>
    <text x="20.63" y="42.5" text-anchor="end" dy="0.35em" id="img-669f6bcd-37">0.5</text>
    <text x="20.63" y="7" text-anchor="end" dy="0.35em" id="img-669f6bcd-38">1.0</text>
  </g>
  <g font-size="4.94" font-family="'PT Sans','Helvetica Neue','Helvetica',sans-serif" fill="#564A55" stroke="#000000" stroke-opacity="0.000" id="img-669f6bcd-39">
    <text x="9.3" y="40.5" text-anchor="middle" dy="0.35em" transform="rotate(-90, 9.3, 42.5)" id="img-669f6bcd-40">Total Effect</text>
  </g>
</g>
<defs>
  <clipPath id="img-669f6bcd-15">
  <path d="M21.63,5 L 122.67 5 122.67 79.99 21.63 79.99" />
</clipPath>
</defs>
</svg>
