<?xml version="1.0" encoding="UTF-8"?>
<svg xmlns="http://www.w3.org/2000/svg"
     xmlns:xlink="http://www.w3.org/1999/xlink"
     xmlns:gadfly="http://www.gadflyjl.org/ns"
     version="1.2"
     width="88.9mm" height="101.6mm" viewBox="0 0 88.9 101.6"
     stroke="none"
     fill="#000000"
     stroke-width="0.3"
     font-size="3.88"
>
<defs>
  <marker id="arrow" markerWidth="15" markerHeight="7" refX="5" refY="3.5" orient="auto" markerUnits="strokeWidth">
    <path d="M0,0 L15,3.5 L0,7 z" stroke="context-stroke" fill="context-stroke"/>
  </marker>
</defs>
<g class="plotroot" id="img-0061ca9f-1">
  <g font-size="4.94" font-family="'PT Sans','Helvetica Neue','Helvetica',sans-serif" fill="#564A55" stroke="#000000" stroke-opacity="0.000" id="img-0061ca9f-2">
    <g transform="translate(44.8,90.07)">
      <g class="primitive">
        <text text-anchor="middle" dy="0.6em">Parameters</text>
      </g>
    </g>
  </g>
  <g class="guide xlabels" font-size="4.23" font-family="'PT Sans Caption','Helvetica Neue','Helvetica',sans-serif" fill="#6C606B" id="img-0061ca9f-3">
    <g transform="translate(35.24,82.54)">
      <g class="primitive">
        <text text-anchor="middle" dy="0.6em">a</text>
      </g>
    </g>
    <g transform="translate(54.37,82.54)">
      <g class="primitive">
        <text text-anchor="middle" dy="0.6em">b</text>
      </g>
    </g>
  </g>
  <g class="guide colorkey" id="img-0061ca9f-4">
    <g font-size="4.23" font-family="'PT Sans','Helvetica Neue','Helvetica',sans-serif" fill="#4C404B" id="img-0061ca9f-5">
      <g transform="translate(68.53,68.06)">
        <g class="primitive">
          <text dy="0.35em">-1.0</text>
        </g>
      </g>
      <g transform="translate(68.53,43.76)">
        <g class="primitive">
          <text dy="0.35em">0.5</text>
        </g>
      </g>
      <g transform="translate(68.53,35.66)">
        <g class="primitive">
          <text dy="0.35em">1.0</text>
        </g>
      </g>
      <g transform="translate(68.53,51.86)">
        <g class="primitive">
          <text dy="0.35em">0.0</text>
        </g>
      </g>
      <g transform="translate(68.53,59.96)">
        <g class="primitive">
          <text dy="0.35em">-0.5</text>
        </g>
      </g>
    </g>
    <g shape-rendering="crispEdges" fill-opacity="1" stroke="#000000" stroke-opacity="0.000" id="img-0061ca9f-6">
      <g transform="translate(66.73,67.65)" fill="#008000">
        <path d="M-0.79,-0.4 L0.79,-0.4 0.79,0.4 -0.79,0.4  z" class="primitive"/>
      </g>
      <g transform="translate(66.73,66.84)" fill="#208600">
        <path d="M-0.79,-0.4 L0.79,-0.4 0.79,0.4 -0.79,0.4  z" class="primitive"/>
      </g>
      <g transform="translate(66.73,66.03)" fill="#328D00">
        <path d="M-0.79,-0.4 L0.79,-0.4 0.79,0.4 -0.79,0.4  z" class="primitive"/>
      </g>
      <g transform="translate(66.73,65.22)" fill="#409300">
        <path d="M-0.79,-0.4 L0.79,-0.4 0.79,0.4 -0.79,0.4  z" class="primitive"/>
      </g>
      <g transform="translate(66.73,64.41)" fill="#4D9A00">
        <path d="M-0.79,-0.4 L0.79,-0.4 0.79,0.4 -0.79,0.4  z" class="primitive"/>
      </g>
      <g transform="translate(66.73,63.6)" fill="#5AA000">
        <path d="M-0.79,-0.4 L0.79,-0.4 0.79,0.4 -0.79,0.4  z" class="primitive"/>
      </g>
      <g transform="translate(66.73,62.79)" fill="#66A700">
        <path d="M-0.79,-0.4 L0.79,-0.4 0.79,0.4 -0.79,0.4  z" class="primitive"/>
      </g>
      <g transform="translate(66.73,61.98)" fill="#72AD00">
        <path d="M-0.79,-0.4 L0.79,-0.4 0.79,0.4 -0.79,0.4  z" class="primitive"/>
      </g>
      <g transform="translate(66.73,61.17)" fill="#7DB300">
        <path d="M-0.79,-0.4 L0.79,-0.4 0.79,0.4 -0.79,0.4  z" class="primitive"/>
      </g>
      <g transform="translate(66.73,60.36)" fill="#88BA00">
        <path d="M-0.79,-0.4 L0.79,-0.4 0.79,0.4 -0.79,0.4  z" class="primitive"/>
      </g>
      <g transform="translate(66.73,59.55)" fill="#94C000">
        <path d="M-0.79,-0.4 L0.79,-0.4 0.79,0.4 -0.79,0.4  z" class="primitive"/>
      </g>
      <g transform="translate(66.73,58.74)" fill="#9FC700">
        <path d="M-0.79,-0.4 L0.79,-0.4 0.79,0.4 -0.79,0.4  z" class="primitive"/>
      </g>
      <g transform="translate(66.73,57.93)" fill="#AACE00">
        <path d="M-0.79,-0.4 L0.79,-0.4 0.79,0.4 -0.79,0.4  z" class="primitive"/>
      </g>
      <g transform="translate(66.73,57.12)" fill="#B5D400">
        <path d="M-0.79,-0.4 L0.79,-0.4 0.79,0.4 -0.79,0.4  z" class="primitive"/>
      </g>
      <g transform="translate(66.73,56.31)" fill="#C1DB00">
        <path d="M-0.79,-0.4 L0.79,-0.4 0.79,0.4 -0.79,0.4  z" class="primitive"/>
      </g>
      <g transform="translate(66.73,55.5)" fill="#CCE100">
        <path d="M-0.79,-0.4 L0.79,-0.4 0.79,0.4 -0.79,0.4  z" class="primitive"/>
      </g>
      <g transform="translate(66.73,54.69)" fill="#D7E800">
        <path d="M-0.79,-0.4 L0.79,-0.4 0.79,0.4 -0.79,0.4  z" class="primitive"/>
      </g>
      <g transform="translate(66.73,53.88)" fill="#E2EE00">
        <path d="M-0.79,-0.4 L0.79,-0.4 0.79,0.4 -0.79,0.4  z" class="primitive"/>
      </g>
      <g transform="translate(66.73,53.07)" fill="#EEF500">
        <path d="M-0.79,-0.4 L0.79,-0.4 0.79,0.4 -0.79,0.4  z" class="primitive"/>
      </g>
      <g transform="translate(66.73,52.26)" fill="#F9FC00">
        <path d="M-0.79,-0.4 L0.79,-0.4 0.79,0.4 -0.79,0.4  z" class="primitive"/>
      </g>
      <g transform="translate(66.73,51.45)" fill="#FFFA00">
        <path d="M-0.79,-0.4 L0.79,-0.4 0.79,0.4 -0.79,0.4  z" class="primitive"/>
      </g>
      <g transform="translate(66.73,50.64)" fill="#FFF100">
        <path d="M-0.79,-0.4 L0.79,-0.4 0.79,0.4 -0.79,0.4  z" class="primitive"/>
      </g>
      <g transform="translate(66.73,49.83)" fill="#FFE800">
        <path d="M-0.79,-0.4 L0.79,-0.4 0.79,0.4 -0.79,0.4  z" class="primitive"/>
      </g>
      <g transform="translate(66.73,49.02)" fill="#FFDE00">
        <path d="M-0.79,-0.4 L0.79,-0.4 0.79,0.4 -0.79,0.4  z" class="primitive"/>
      </g>
      <g transform="translate(66.73,48.21)" fill="#FFD500">
        <path d="M-0.79,-0.4 L0.79,-0.4 0.79,0.4 -0.79,0.4  z" class="primitive"/>
      </g>
      <g transform="translate(66.73,47.4)" fill="#FFCB00">
        <path d="M-0.79,-0.4 L0.79,-0.4 0.79,0.4 -0.79,0.4  z" class="primitive"/>
      </g>
      <g transform="translate(66.73,46.59)" fill="#FFC200">
        <path d="M-0.79,-0.4 L0.79,-0.4 0.79,0.4 -0.79,0.4  z" class="primitive"/>
      </g>
      <g transform="translate(66.73,45.78)" fill="#FFB800">
        <path d="M-0.79,-0.4 L0.79,-0.4 0.79,0.4 -0.79,0.4  z" class="primitive"/>
      </g>
      <g transform="translate(66.73,44.97)" fill="#FFAE00">
        <path d="M-0.79,-0.4 L0.79,-0.4 0.79,0.4 -0.79,0.4  z" class="primitive"/>
      </g>
      <g transform="translate(66.73,44.16)" fill="#FFA400">
        <path d="M-0.79,-0.4 L0.79,-0.4 0.79,0.4 -0.79,0.4  z" class="primitive"/>
      </g>
      <g transform="translate(66.73,43.35)" fill="#FF9A00">
        <path d="M-0.79,-0.4 L0.79,-0.4 0.79,0.4 -0.79,0.4  z" class="primitive"/>
      </g>
      <g transform="translate(66.73,42.54)" fill="#FF8F00">
        <path d="M-0.79,-0.4 L0.79,-0.4 0.79,0.4 -0.79,0.4  z" class="primitive"/>
      </g>
      <g transform="translate(66.73,41.73)" fill="#FF8400">
        <path d="M-0.79,-0.4 L0.79,-0.4 0.79,0.4 -0.79,0.4  z" class="primitive"/>
      </g>
      <g transform="translate(66.73,40.92)" fill="#FF7900">
        <path d="M-0.79,-0.4 L0.79,-0.4 0.79,0.4 -0.79,0.4  z" class="primitive"/>
      </g>
      <g transform="translate(66.73,40.11)" fill="#FF6D00">
        <path d="M-0.79,-0.4 L0.79,-0.4 0.79,0.4 -0.79,0.4  z" class="primitive"/>
      </g>
      <g transform="translate(66.73,39.3)" fill="#FF6000">
        <path d="M-0.79,-0.4 L0.79,-0.4 0.79,0.4 -0.79,0.4  z" class="primitive"/>
      </g>
      <g transform="translate(66.73,38.49)" fill="#FF5200">
        <path d="M-0.79,-0.4 L0.79,-0.4 0.79,0.4 -0.79,0.4  z" class="primitive"/>
      </g>
      <g transform="translate(66.73,37.68)" fill="#FF4200">
        <path d="M-0.79,-0.4 L0.79,-0.4 0.79,0.4 -0.79,0.4  z" class="primitive"/>
      </g>
      <g transform="translate(66.73,36.87)" fill="#FF2D00">
        <path d="M-0.79,-0.4 L0.79,-0.4 0.79,0.4 -0.79,0.4  z" class="primitive"/>
      </g>
      <g transform="translate(66.73,36.06)" fill="#FF0000">
        <path d="M-0.79,-0.4 L0.79,-0.4 0.79,0.4 -0.79,0.4  z" class="primitive"/>
      </g>
      <g stroke="#FFFFFF" stroke-width="0.2" id="img-0061ca9f-7">
        <g transform="translate(66.73,68.06)">
          <path fill="none" d="M-0.79,0 L0.79,0 " class="primitive"/>
        </g>
        <g transform="translate(66.73,43.76)">
          <path fill="none" d="M-0.79,0 L0.79,0 " class="primitive"/>
        </g>
        <g transform="translate(66.73,35.66)">
          <path fill="none" d="M-0.79,0 L0.79,0 " class="primitive"/>
        </g>
        <g transform="translate(66.73,51.86)">
          <path fill="none" d="M-0.79,0 L0.79,0 " class="primitive"/>
        </g>
        <g transform="translate(66.73,59.96)">
          <path fill="none" d="M-0.79,0 L0.79,0 " class="primitive"/>
        </g>
      </g>
    </g>
    <g fill="#362A35" font-size="5.64" font-family="'PT Sans','Helvetica Neue','Helvetica',sans-serif" stroke="#000000" stroke-opacity="0.000" id="img-0061ca9f-8">
      <g transform="translate(65.94,31.66)">
        <g class="primitive">
          <text dy="-0em">Color</text>
        </g>
      </g>
    </g>
  </g>
  <g clip-path="url(#img-0061ca9f-9)">
    <g id="img-0061ca9f-10">
      <g pointer-events="visible" stroke-width="0.3" fill="#000000" fill-opacity="0.000" stroke="#000000" stroke-opacity="0.000" class="guide background" id="img-0061ca9f-11">
        <g transform="translate(44.8,43.27)" id="img-0061ca9f-12">
          <path d="M-19.14,-38.27 L19.14,-38.27 19.14,38.27 -19.14,38.27  z" class="primitive"/>
        </g>
      </g>
      <g class="guide ygridlines xfixed" stroke-dasharray="0.5,0.5" stroke-width="0.2" stroke="#D0D0E0" id="img-0061ca9f-13">
        <g transform="translate(44.8,24.14)" id="img-0061ca9f-14">
          <path fill="none" d="M-19.14,0 L19.14,0 " class="primitive"/>
        </g>
        <g transform="translate(44.8,43.27)" id="img-0061ca9f-15">
          <path fill="none" d="M-19.14,0 L19.14,0 " class="primitive"/>
        </g>
        <g transform="translate(44.8,62.41)" id="img-0061ca9f-16">
          <path fill="none" d="M-19.14,0 L19.14,0 " class="primitive"/>
        </g>
      </g>
      <g class="guide xgridlines yfixed" stroke-dasharray="0.5,0.5" stroke-width="0.2" stroke="#D0D0E0" id="img-0061ca9f-17">
        <g transform="translate(44.8,43.27)" id="img-0061ca9f-18">
          <path fill="none" d="M0,-38.27 L0,38.27 " class="primitive"/>
        </g>
      </g>
      <g class="plotpanel" id="img-0061ca9f-19">
        <metadata>
          <boundingbox value="25.668055555555554mm 5.0mm 38.27222222222222mm 76.54444444444444mm"/>
          <unitbox value="0.5 0.5 2.0 4.0"/>
        </metadata>
        <g shape-rendering="crispEdges" class="geometry" stroke="#000000" stroke-opacity="0.000" id="img-0061ca9f-20">
          <g transform="translate(35.26,14.59)" id="img-0061ca9f-21" fill="#FFD100" fill-opacity="1">
            <path d="M-9.59,-9.59 L9.59,-9.59 9.59,9.59 -9.59,9.59  z" class="primitive"/>
          </g>
          <g transform="translate(35.26,33.73)" id="img-0061ca9f-22" fill="#FFA100" fill-opacity="1">
            <path d="M-9.59,-9.59 L9.59,-9.59 9.59,9.59 -9.59,9.59  z" class="primitive"/>
          </g>
          <g transform="translate(35.26,52.87)" id="img-0061ca9f-23" fill="#FF6C00" fill-opacity="1">
            <path d="M-9.59,-9.59 L9.59,-9.59 9.59,9.59 -9.59,9.59  z" class="primitive"/>
          </g>
          <g transform="translate(35.26,72)" id="img-0061ca9f-24" fill="#FF0000" fill-opacity="1">
            <path d="M-9.59,-9.59 L9.59,-9.59 9.59,9.59 -9.59,9.59  z" class="primitive"/>
          </g>
          <g transform="translate(54.4,14.59)" id="img-0061ca9f-25" fill="#C9DF00" fill-opacity="1">
            <path d="M-9.59,-9.59 L9.59,-9.59 9.59,9.59 -9.59,9.59  z" class="primitive"/>
          </g>
          <g transform="translate(54.4,33.73)" id="img-0061ca9f-26" fill="#C9DF00" fill-opacity="1">
            <path d="M-9.59,-9.59 L9.59,-9.59 9.59,9.59 -9.59,9.59  z" class="primitive"/>
          </g>
          <g transform="translate(54.4,52.87)" id="img-0061ca9f-27" fill="#C9DF00" fill-opacity="1">
            <path d="M-9.59,-9.59 L9.59,-9.59 9.59,9.59 -9.59,9.59  z" class="primitive"/>
          </g>
          <g transform="translate(54.4,72)" id="img-0061ca9f-28" fill="#C9DF00" fill-opacity="1">
            <path d="M-9.59,-9.59 L9.59,-9.59 9.59,9.59 -9.59,9.59  z" class="primitive"/>
          </g>
        </g>
      </g>
    </g>
  </g>
  <g class="guide ylabels" font-size="4.23" font-family="'PT Sans Caption','Helvetica Neue','Helvetica',sans-serif" fill="#6C606B" id="img-0061ca9f-29">
    <g transform="translate(24.67,14.57)" id="img-0061ca9f-30">
      <g class="primitive">
        <text text-anchor="end" dy="0.35em">o1</text>
      </g>
    </g>
    <g transform="translate(24.67,33.7)" id="img-0061ca9f-31">
      <g class="primitive">
        <text text-anchor="end" dy="0.35em">o2</text>
      </g>
    </g>
    <g transform="translate(24.67,52.84)" id="img-0061ca9f-32">
      <g class="primitive">
        <text text-anchor="end" dy="0.35em">o3</text>
      </g>
    </g>
    <g transform="translate(24.67,71.98)" id="img-0061ca9f-33">
      <g class="primitive">
        <text text-anchor="end" dy="0.35em">o4</text>
      </g>
    </g>
  </g>
  <g font-size="4.94" font-family="'PT Sans','Helvetica Neue','Helvetica',sans-serif" fill="#564A55" stroke="#000000" stroke-opacity="0.000" id="img-0061ca9f-34">
    <g transform="translate(13.38,41.27)" id="img-0061ca9f-35">
      <g class="primitive">
        <text text-anchor="middle" dy="0.35em" transform="rotate(-90,0, 2)">Observations</text>
      </g>
    </g>
  </g>
</g>
<defs>
  <clipPath id="img-0061ca9f-9">
    <path d="M25.67,5 L63.94,5 63.94,81.54 25.67,81.54 " />
  </clipPath>
</defs>
</svg>
